<svg width="1289" height="841" viewBox="0 0 1289 841" fill="none" xmlns="http://www.w3.org/2000/svg">
<g opacity="0.5">
<path opacity="0.58" d="M282.932 536.372V482.837L246.621 522.522V588.511H223.228V493.939H217.28L200.342 478.11L183.311 493.939H177.462V621.566H130.689H91.3906V746.831H339.652V536.372H282.932ZM217.28 570.307H183.41V566.846H217.28V570.307ZM217.28 563.401H183.41V559.943H217.28V563.401ZM217.28 556.498H183.41V553.045H217.28V556.498ZM217.28 549.592H183.41V546.139H217.28V549.592ZM217.28 542.695H183.41V539.234H217.28V542.695ZM217.28 535.787H183.41V532.331H217.28V535.787ZM217.28 528.885H183.41V525.434H217.28V528.885ZM217.28 521.979H183.41V518.526H217.28V521.979ZM217.28 515.075H183.41V511.623H217.28V515.075ZM217.28 508.177H183.41V504.717H217.28V508.177ZM217.28 501.272H183.41V497.82H217.28V501.272ZM278.325 669.44H274.81V499.542L278.325 495.688V669.44Z" fill="#D4CCF3"/>
<path opacity="0.6" d="M539.338 536.372V482.837L503.028 522.522V588.511H479.634V493.939H473.686L456.749 478.11L439.719 493.939H433.868V621.566H387.094H347.797V746.831H596.06V536.372H539.338ZM473.686 570.307H439.816V566.846H473.686V570.307ZM473.686 563.401H439.816V559.943H473.686V563.401ZM473.686 556.498H439.816V553.045H473.686V556.498ZM473.686 549.592H439.816V546.139H473.686V549.592ZM473.686 542.695H439.816V539.234H473.686V542.695ZM473.686 535.787H439.816V532.331H473.686V535.787ZM473.686 528.885H439.816V525.434H473.686V528.885ZM473.686 521.979H439.816V518.526H473.686V521.979ZM473.686 515.075H439.816V511.623H473.686V515.075ZM473.686 508.177H439.816V504.717H473.686V508.177ZM473.686 501.272H439.816V497.82H473.686V501.272ZM534.731 669.44H531.216V499.542L534.731 495.688V669.44Z" fill="#D4CCF3"/>
<path opacity="0.29" d="M446.673 626.305V505.306H441.219V493.062H399.042V505.306H393.62V657.423H354.036V588.534H296.393V678.933H268.543V517.007H211.762V641.414H205.098V567.357H194.827L166.194 552.236V567.357H159.932V658.819H146.029V534.963H131.967V491.511H130.044V534.963H115.982V747.099H482.198V626.311H446.673V626.305ZM142.639 614.545H119.441V611.852H142.639V614.545ZM142.639 608.317H119.441V605.626H142.639V608.317ZM142.639 602.079H119.441V599.39H142.639V602.079ZM142.639 595.851H119.441V593.159H142.639V595.851ZM142.639 589.622H119.441V586.93H142.639V589.622ZM142.639 583.387H119.441V580.695H142.639V583.387ZM142.639 577.158H119.441V574.464H142.639V577.158ZM142.639 570.929H119.441V568.235H142.639V570.929ZM142.639 564.692H119.441V562H142.639V564.692ZM142.639 558.463H119.441V555.769H142.639V558.463ZM142.639 552.236H119.441V549.543H142.639V552.236ZM142.639 545.998H119.441V543.305H142.639V545.998ZM142.639 539.767H119.441V537.075H142.639V539.767ZM223.997 576.861H217.088V569.962H223.997V576.861ZM223.997 565.353H217.088V558.445H223.997V565.353ZM223.997 553.837H217.088V546.938H223.997V553.837ZM223.997 542.329H217.088V535.421H223.997V542.329ZM223.997 530.813H217.088V523.905H223.997V530.813ZM237.114 576.861H230.216V569.962H237.114V576.861ZM237.114 565.353H230.216V558.445H237.114V565.353ZM237.114 553.837H230.216V546.938H237.114V553.837ZM237.114 542.329H230.216V535.421H237.114V542.329ZM237.114 530.813H230.216V523.905H237.114V530.813ZM250.242 576.861H243.335V569.962H250.242V576.861ZM250.242 565.353H243.335V558.445H250.242V565.353ZM250.242 553.837H243.335V546.938H250.242V553.837ZM250.242 542.329H243.335V535.421H250.242V542.329ZM250.242 530.813H243.335V523.905H250.242V530.813ZM263.361 576.861H256.461V569.962H263.361V576.861ZM263.361 565.353H256.461V558.445H263.361V565.353ZM263.361 553.837H256.461V546.938H263.361V553.837ZM263.361 542.329H256.461V535.421H263.361V542.329ZM452.108 683.253H444.929V676.074H452.108V683.253ZM452.108 668.878H444.929V661.699H452.108V668.878ZM452.108 654.505H444.929V647.326H452.108V654.505ZM452.108 640.131H444.929V632.953H452.108V640.131ZM465.43 683.253H458.251V676.074H465.43V683.253ZM465.43 668.878H458.251V661.699H465.43V668.878ZM465.43 654.505H458.251V647.326H465.43V654.505ZM465.43 640.131H458.251V632.953H465.43V640.131ZM478.748 683.253H471.56V676.074H478.748V683.253ZM478.748 668.878H471.56V661.699H478.748V668.878ZM478.748 654.505H471.56V647.326H478.748V654.505ZM478.748 640.131H471.56V632.953H478.748V640.131Z" fill="#D4CCF3"/>
<path opacity="0.41" d="M615.114 613.451V505.308H609.662V493.064H567.482V505.308H562.061V657.426H522.477V588.536H464.834V678.935H436.984V517.009H380.202V641.416H373.539V567.36H363.268L334.634 552.238V567.36H328.37V658.822H314.467V534.966H300.407V491.513H298.481V534.966H284.422V747.101H650.635V613.457H615.114V613.451ZM311.08 614.545H287.881V611.853H311.08V614.545ZM311.08 608.319H287.881V605.625H311.08V608.319ZM311.08 602.08H287.881V599.39H311.08V602.08ZM311.08 595.853H287.881V593.159H311.08V595.853ZM311.08 589.623H287.881V586.932H311.08V589.623ZM311.08 583.388H287.881V580.695H311.08V583.388ZM311.08 577.157H287.881V574.465H311.08V577.157ZM311.08 570.928H287.881V568.236H311.08V570.928ZM311.08 564.693H287.881V561.999H311.08V564.693ZM311.08 558.462H287.881V555.77H311.08V558.462ZM311.08 552.236H287.881V549.543H311.08V552.236ZM311.08 545.996H287.881V543.304H311.08V545.996ZM311.08 539.767H287.881V537.075H311.08V539.767ZM392.436 576.86H385.528V569.961H392.436V576.86ZM392.436 565.354H385.528V558.445H392.436V565.354ZM392.436 553.837H385.528V546.937H392.436V553.837ZM392.436 542.329H385.528V535.422H392.436V542.329ZM392.436 530.812H385.528V523.905H392.436V530.812ZM405.554 576.86H398.655V569.961H405.554V576.86ZM405.554 565.354H398.655V558.445H405.554V565.354ZM405.554 553.837H398.655V546.937H405.554V553.837ZM405.554 542.329H398.655V535.422H405.554V542.329ZM405.554 530.812H398.655V523.905H405.554V530.812ZM418.683 576.86H411.776V569.961H418.683V576.86ZM418.683 565.354H411.776V558.445H418.683V565.354ZM418.683 553.837H411.776V546.937H418.683V553.837ZM418.683 542.329H411.776V535.422H418.683V542.329ZM418.683 530.812H411.776V523.905H418.683V530.812ZM431.804 576.86H424.904V569.961H431.804V576.86ZM431.804 565.354H424.904V558.445H431.804V565.354ZM431.804 553.837H424.904V546.937H431.804V553.837ZM431.804 542.329H424.904V535.422H431.804V542.329ZM624.19 664.198H617.994V658.001H624.19V664.198ZM624.19 651.789H617.994V645.592H624.19V651.789ZM624.19 639.38H617.994V633.184H624.19V639.38ZM624.19 626.972H617.994V620.775H624.19V626.972ZM635.689 664.198H629.492V658.001H635.689V664.198ZM635.689 651.789H629.492V645.592H635.689V651.789ZM635.689 639.38H629.492V633.184H635.689V639.38ZM635.689 626.972H629.492V620.775H635.689V626.972ZM647.188 664.198H640.982V658.001H647.188V664.198ZM647.188 651.789H640.982V645.592H647.188V651.789ZM647.188 639.38H640.982V633.184H647.188V639.38ZM647.188 626.972H640.982V620.775H647.188V626.972Z" fill="#D4CCF3"/>
<path opacity="0.59" d="M833.341 536.372V482.837L797.032 522.522V588.511H773.639V493.939H767.691L750.752 478.11L733.722 493.939H727.872V621.566H681.1H641.803V746.831H890.06V536.372H833.341ZM767.691 570.307H733.819V566.846H767.691V570.307ZM767.691 563.401H733.819V559.943H767.691V563.401ZM767.691 556.498H733.819V553.045H767.691V556.498ZM767.691 549.592H733.819V546.139H767.691V549.592ZM767.691 542.695H733.819V539.234H767.691V542.695ZM767.691 535.787H733.819V532.331H767.691V535.787ZM767.691 528.885H733.819V525.434H767.691V528.885ZM767.691 521.979H733.819V518.526H767.691V521.979ZM767.691 515.075H733.819V511.623H767.691V515.075ZM767.691 508.177H733.819V504.717H767.691V508.177ZM767.691 501.272H733.819V497.82H767.691V501.272ZM828.738 669.44H825.222V499.542L828.738 495.688V669.44Z" fill="#D4CCF3"/>
<path opacity="0.42" d="M1089.75 536.372V482.837L1053.44 522.522V588.511H1030.05V493.939H1024.1L1007.16 478.11L990.135 493.939H984.279V621.566H937.51H898.205V746.831H1146.47V536.372H1089.75ZM1024.1 570.307H990.227V566.846H1024.1V570.307ZM1024.1 563.401H990.227V559.943H1024.1V563.401ZM1024.1 556.498H990.227V553.045H1024.1V556.498ZM1024.1 549.592H990.227V546.139H1024.1V549.592ZM1024.1 542.695H990.227V539.234H1024.1V542.695ZM1024.1 535.787H990.227V532.331H1024.1V535.787ZM1024.1 528.885H990.227V525.434H1024.1V528.885ZM1024.1 521.979H990.227V518.526H1024.1V521.979ZM1024.1 515.075H990.227V511.623H1024.1V515.075ZM1024.1 508.177H990.227V504.717H1024.1V508.177ZM1024.1 501.272H990.227V497.82H1024.1V501.272ZM1085.14 669.44H1081.63V499.542L1085.14 495.688V669.44Z" fill="#D4CCF3"/>
<path opacity="0.6" d="M997.081 626.305V505.306H991.637V493.062H949.449V505.306H944.035V657.423H904.451V588.534H846.808V678.933H818.958V517.007H762.177V641.414H755.513V567.357H745.243L716.608 552.236V567.357H710.344V658.819H696.441V534.963H682.381V491.511H680.456V534.963H666.395V747.099H1032.61V626.311H997.081V626.305ZM693.055 614.545H669.857V611.852H693.055V614.545ZM693.055 608.317H669.857V605.626H693.055V608.317ZM693.055 602.079H669.857V599.39H693.055V602.079ZM693.055 595.851H669.857V593.159H693.055V595.851ZM693.055 589.622H669.857V586.93H693.055V589.622ZM693.055 583.387H669.857V580.695H693.055V583.387ZM693.055 577.158H669.857V574.464H693.055V577.158ZM693.055 570.929H669.857V568.235H693.055V570.929ZM693.055 564.692H669.857V562H693.055V564.692ZM693.055 558.463H669.857V555.769H693.055V558.463ZM693.055 552.236H669.857V549.543H693.055V552.236ZM693.055 545.998H669.857V543.305H693.055V545.998ZM693.055 539.767H669.857V537.075H693.055V539.767ZM774.409 576.861H767.5V569.962H774.409V576.861ZM774.409 565.353H767.5V558.445H774.409V565.353ZM774.409 553.837H767.5V546.938H774.409V553.837ZM774.409 542.329H767.5V535.421H774.409V542.329ZM774.409 530.813H767.5V523.905H774.409V530.813ZM787.526 576.861H780.628V569.962H787.526V576.861ZM787.526 565.353H780.628V558.445H787.526V565.353ZM787.526 553.837H780.628V546.938H787.526V553.837ZM787.526 542.329H780.628V535.421H787.526V542.329ZM787.526 530.813H780.628V523.905H787.526V530.813ZM800.654 576.861H793.747V569.962H800.654V576.861ZM800.654 565.353H793.747V558.445H800.654V565.353ZM800.654 553.837H793.747V546.938H800.654V553.837ZM800.654 542.329H793.747V535.421H800.654V542.329ZM800.654 530.813H793.747V523.905H800.654V530.813ZM813.775 576.861H806.876V569.962H813.775V576.861ZM813.775 565.353H806.876V558.445H813.775V565.353ZM813.775 553.837H806.876V546.938H813.775V553.837ZM813.775 542.329H806.876V535.421H813.775V542.329ZM1002.53 683.253H995.342V676.074H1002.53V683.253ZM1002.53 668.878H995.342V661.699H1002.53V668.878ZM1002.53 654.505H995.342V647.326H1002.53V654.505ZM1002.53 640.131H995.342V632.953H1002.53V640.131ZM1015.84 683.253H1008.66V676.074H1015.84V683.253ZM1015.84 668.878H1008.66V661.699H1015.84V668.878ZM1015.84 654.505H1008.66V647.326H1015.84V654.505ZM1015.84 640.131H1008.66V632.953H1015.84V640.131ZM1029.16 683.253H1021.98V676.074H1029.16V683.253ZM1029.16 668.878H1021.98V661.699H1029.16V668.878ZM1029.16 654.505H1021.98V647.326H1029.16V654.505ZM1029.16 640.131H1021.98V632.953H1029.16V640.131Z" fill="#D4CCF3"/>
<path opacity="0.64" d="M1165.53 613.451V505.308H1160.07V493.064H1117.89V505.308H1112.48V657.426H1072.89V588.536H1015.25V678.935H987.396V517.009H930.612V641.416H923.954V567.36H913.683L885.049 552.238V567.36H878.782V658.822H864.877V534.966H850.819V491.513H848.894V534.966H834.834V747.101H1201.05V613.457H1165.53V613.451ZM861.491 614.545H838.294V611.853H861.491V614.545ZM861.491 608.319H838.294V605.625H861.491V608.319ZM861.491 602.08H838.294V599.39H861.491V602.08ZM861.491 595.853H838.294V593.159H861.491V595.853ZM861.491 589.623H838.294V586.932H861.491V589.623ZM861.491 583.388H838.294V580.695H861.491V583.388ZM861.491 577.157H838.294V574.465H861.491V577.157ZM861.491 570.928H838.294V568.236H861.491V570.928ZM861.491 564.693H838.294V561.999H861.491V564.693ZM861.491 558.462H838.294V555.77H861.491V558.462ZM861.491 552.236H838.294V549.543H861.491V552.236ZM861.491 545.996H838.294V543.304H861.491V545.996ZM861.491 539.767H838.294V537.075H861.491V539.767ZM942.851 576.86H935.935V569.961H942.851V576.86ZM942.851 565.354H935.935V558.445H942.851V565.354ZM942.851 553.837H935.935V546.937H942.851V553.837ZM942.851 542.329H935.935V535.422H942.851V542.329ZM942.851 530.812H935.935V523.905H942.851V530.812ZM955.962 576.86H949.067V569.961H955.962V576.86ZM955.962 565.354H949.067V558.445H955.962V565.354ZM955.962 553.837H949.067V546.937H955.962V553.837ZM955.962 542.329H949.067V535.422H955.962V542.329ZM955.962 530.812H949.067V523.905H955.962V530.812ZM969.096 576.86H962.19V569.961H969.096V576.86ZM969.096 565.354H962.19V558.445H969.096V565.354ZM969.096 553.837H962.19V546.937H969.096V553.837ZM969.096 542.329H962.19V535.422H969.096V542.329ZM969.096 530.812H962.19V523.905H969.096V530.812ZM982.218 576.86H975.312V569.961H982.218V576.86ZM982.218 565.354H975.312V558.445H982.218V565.354ZM982.218 553.837H975.312V546.937H982.218V553.837ZM982.218 542.329H975.312V535.422H982.218V542.329ZM1174.6 664.198H1168.4V658.001H1174.6V664.198ZM1174.6 651.789H1168.4V645.592H1174.6V651.789ZM1174.6 639.38H1168.4V633.184H1174.6V639.38ZM1174.6 626.972H1168.4V620.775H1174.6V626.972ZM1186.1 664.198H1179.91V658.001H1186.1V664.198ZM1186.1 651.789H1179.91V645.592H1186.1V651.789ZM1186.1 639.38H1179.91V633.184H1186.1V639.38ZM1186.1 626.972H1179.91V620.775H1186.1V626.972ZM1197.6 664.198H1191.39V658.001H1197.6V664.198ZM1197.6 651.789H1191.39V645.592H1197.6V651.789ZM1197.6 639.38H1191.39V633.184H1197.6V639.38ZM1197.6 626.972H1191.39V620.775H1197.6V626.972Z" fill="#D4CCF3"/>
<path d="M1058.31 600.586H1017.58V747.096H1058.31V600.586Z" fill="#D4CCF3"/>
<path d="M1286.73 749.392H2.27271C1.4709 749.392 0.824219 748.847 0.824219 748.177C0.824219 747.508 1.4709 746.964 2.27271 746.964H1286.73C1287.53 746.964 1288.18 747.508 1288.18 748.177C1288.18 748.847 1287.53 749.392 1286.73 749.392Z" fill="#B5A7E9"/>
</g>
<path d="M498.083 492.909C508.217 494.024 517.139 496.244 524.856 499.566C532.569 502.892 538.96 507.303 544.029 512.807C549.092 518.314 552.708 525.025 554.865 532.947C557.024 540.87 557.545 549.894 556.431 560.015C554.989 573.104 551.411 583.71 545.702 591.824C539.989 599.938 532.509 605.784 523.258 609.358L544.958 674.812C545.304 675.909 545.426 676.896 545.332 677.769C545.159 679.338 544.51 680.64 543.388 681.662C542.262 682.69 541.01 683.121 539.63 682.971L508.31 679.52C505.235 679.181 503.135 678.154 502.004 676.441C500.871 674.727 500.006 673.04 499.413 671.384L480.017 612.544L458.828 610.211L452.66 666.236C452.449 668.157 451.651 669.748 450.269 671.009C448.884 672.271 447.351 672.807 445.664 672.62L415.494 669.296C413.801 669.11 412.42 668.255 411.346 666.72C410.27 665.191 409.842 663.464 410.052 661.542L428.672 492.418C428.884 490.499 429.679 488.91 431.062 487.647C432.442 486.387 433.978 485.849 435.669 486.036L498.083 492.909ZM463.322 569.367L489.346 572.233C495.797 572.945 501.282 572.137 505.815 569.806C510.343 567.48 513.013 562.649 513.82 555.319C514.628 547.99 513.073 542.697 509.158 539.436C505.239 536.182 500.06 534.195 493.614 533.484L467.589 530.616L463.322 569.367Z" fill="url(#paint0_linear_674_2317)"/>
<path d="M767.372 118.246H765.952L720.67 60L676.708 118.246H674.323H497.662L404 211.008H496.377V232.968L500.738 232.972V211.008H586.036L586.271 211.242L586.507 211.008H588.549L588.786 211.242L589.021 211.008H674.319V745H767.368V211.008H852.668L852.903 211.242L853.139 211.008H855.336L949 118.246H767.372ZM414.601 206.646L496.377 125.655V206.646H414.601ZM582.551 122.608L543.187 161.979L503.821 122.608H582.551ZM500.738 125.691L540.103 165.064L500.738 204.436V125.691ZM504.699 206.646L543.187 168.147L581.675 206.646H504.699ZM585.065 203.868L546.27 165.066L585.065 126.263V203.868ZM671.24 122.608L631.875 161.979L592.51 122.608H671.24ZM589.427 125.691L628.791 165.064L589.427 204.436V125.691ZM593.387 206.646L631.875 168.147L670.363 206.646H593.387ZM674.323 204.436L634.958 165.064L674.323 125.691V204.436ZM720.72 67.1725L760.43 118.246H682.17L720.72 67.1725ZM759.773 122.608L720.77 161.618L681.766 122.608H759.773ZM682.335 648.226L720.773 609.782L759.211 648.226H682.335ZM760.188 652.588L720.77 692.011L681.353 652.588H760.188ZM681.561 564.397H759.979L720.77 603.615L681.561 564.397ZM682.127 560.035L720.77 521.382L759.414 560.035H682.127ZM681.767 476.204H759.776L720.773 515.217L681.767 476.204ZM681.921 471.842L720.77 432.985L759.623 471.842H681.921ZM681.975 388.011H759.567L720.773 426.814L681.975 388.011ZM681.714 383.649L720.773 344.585L759.829 383.649H681.714ZM681.767 299.407H759.776L720.773 338.418L681.767 299.407ZM681.921 295.045L720.77 256.187L759.623 295.045H681.921ZM681.767 211.008H759.776L720.773 250.017L681.767 211.008ZM681.921 206.646L720.77 167.788L759.623 206.646H681.921ZM678.684 125.691L717.689 164.702L678.684 203.713V125.691ZM678.684 214.09L717.689 253.102L678.684 292.114V214.09ZM678.684 302.491L717.689 341.501L678.684 380.514V302.491ZM678.684 390.889L717.689 429.899L678.684 468.908V390.889ZM678.684 479.288L717.689 518.301L678.684 557.312V479.288ZM678.684 567.688L717.689 606.697L678.684 645.71V567.688ZM678.684 656.086L717.689 695.095L678.684 734.105V656.086ZM763.011 740.638H678.684V740.275L720.773 698.18L763.011 740.426V740.638ZM763.011 734.259L723.856 695.095L763.011 655.932V734.259ZM763.011 645.861L723.856 606.697L763.011 567.536V645.861ZM763.011 557.462L723.856 518.301L763.011 479.135V557.462ZM763.011 469.062L723.856 429.899L763.011 390.736V469.062ZM763.011 380.664L723.856 341.501L763.011 302.338V380.664ZM763.011 292.264L723.856 253.102L763.011 213.937V292.264ZM763.011 203.867L723.856 164.704L763.011 125.54V203.867ZM849.185 122.608L809.821 161.979L770.455 122.608H849.185ZM767.372 125.691L806.737 165.064L767.372 204.436V125.691ZM771.33 206.646L809.821 168.147L848.31 206.646H771.33ZM852.268 204.436L812.904 165.064L852.268 125.691V204.436ZM856.632 122.608H938.406L856.632 203.596V122.608Z" fill="#517FC5"/>
<path d="M496.499 381C491.261 381 487 376.584 487 371.155V222.846C487 217.417 491.261 213 496.499 213C501.739 213 506 217.417 506 222.846V371.155C506.003 376.584 501.741 381 496.499 381ZM496.499 214.636C492.133 214.636 488.581 218.32 488.581 222.845V371.153C488.581 375.679 492.135 379.359 496.499 379.359C500.867 379.359 504.419 375.678 504.419 371.153V222.845C504.422 218.32 500.867 214.636 496.499 214.636Z" fill="#9391EC"/>
<path d="M495.999 380C491.049 380 487 375.977 487 371.059V345.94C487 341.023 491.051 337 495.999 337C500.949 337 505 341.023 505 345.94V371.059C505 375.977 500.949 380 495.999 380Z" fill="#9391EC"/>
<path d="M496.486 417C495.87 417 495.246 416.956 494.617 416.864C488.065 415.91 483.288 410.412 483.002 403.496C482.937 401.9 484.169 400.552 485.755 400.484C487.29 400.429 488.681 401.658 488.746 403.254C488.944 408.026 492.355 410.684 495.442 411.136C499.149 411.678 502.251 409.342 503.76 404.895C506.58 396.579 496.392 390.601 495.955 390.352C495.061 389.836 494.501 388.871 494.501 387.835V374.892C494.501 373.294 495.789 372 497.375 372C498.962 372 500.251 373.296 500.251 374.892V386.229C505.396 389.729 512.378 397.395 509.201 406.766C507.033 413.151 502.161 417 496.486 417Z" fill="#9391EC"/>
<path d="M502.011 241H490.99C486.025 241 482 237.039 482 232.154V195.845C482 190.959 486.025 187 490.99 187H502.011C506.975 187 511 190.959 511 195.845V232.154C511 237.039 506.976 241 502.011 241Z" fill="#9391EC"/>
<path d="M496 411V534" stroke="url(#paint1_linear_674_2317)" stroke-width="1.5" stroke-miterlimit="10" stroke-linecap="round" stroke-linejoin="round"/>
<path d="M273.199 753.997C271.511 753.997 270.059 753.301 268.836 751.895C267.609 750.495 267 748.828 267 746.899V577.094C267 575.168 267.609 573.506 268.836 572.101C270.059 570.701 271.511 570 273.199 570H347.135C357.387 570 366.038 571.624 373.08 574.863C380.12 578.107 385.744 582.312 389.956 587.48C394.165 592.65 397.19 598.518 399.026 605.09C400.862 611.663 401.782 618.193 401.782 624.672C401.782 629.757 401.283 634.182 400.29 637.949C399.294 641.719 398.109 644.96 396.732 647.674C395.356 650.393 393.937 652.581 392.485 654.246C391.027 655.912 389.844 657.182 388.927 658.057C394.896 662.789 399.065 668.268 401.442 674.484C403.813 680.707 405 688.199 405 696.958C405 704.146 404.082 711.152 402.244 717.988C400.406 724.821 397.383 730.913 393.175 736.257C388.964 741.603 383.491 745.897 376.757 749.136C370.019 752.38 361.751 754 351.958 754H273.199V753.997ZM359.076 625.725C359.076 621.17 357.888 617.535 355.516 614.817C353.141 612.101 349.661 610.741 345.068 610.741H309.478V640.707H345.068C349.661 640.707 353.14 639.351 355.516 636.631C357.888 633.917 359.076 630.283 359.076 625.725ZM309.478 713.255H347.364C351.957 713.255 355.631 711.725 358.385 708.656C361.14 705.592 362.516 701.78 362.516 697.223C362.516 692.667 361.14 688.855 358.385 685.787C355.629 682.723 351.957 681.188 347.364 681.188H309.478V713.255Z" fill="url(#paint2_linear_674_2317)"/>
<path d="M660.238 570C663.321 570 665.674 570.966 667.293 572.892C668.911 574.822 670.031 576.749 670.645 578.675L721.074 744.275C721.689 746.026 722 747.34 722 748.216C722 749.793 721.497 751.154 720.495 752.291C719.491 753.434 718.297 754 716.91 754H687.764C684.677 754 682.481 753.258 681.172 751.766C679.86 750.278 679.051 748.832 678.743 747.428L672.264 725.612H610.734L604.256 747.428C603.945 748.832 603.136 750.278 601.827 751.766C600.515 753.254 598.316 754 595.235 754H566.088C564.701 754 563.504 753.434 562.504 752.291C561.499 751.154 561 749.793 561 748.216C561 747.34 561.308 746.026 561.925 744.275L612.355 578.675C612.969 576.749 614.089 574.822 615.71 572.892C617.329 570.966 619.679 570 622.766 570H660.238ZM622.766 684.867H660.238L641.503 621.782L622.766 684.867Z" fill="url(#paint3_linear_674_2317)"/>
<path d="M836.597 753.997C833.963 753.997 831.839 753.209 830.213 751.633C828.589 750.056 827.545 748.831 827.083 747.953L773.935 658.057V746.902C773.935 748.832 773.314 750.498 772.077 751.898C770.838 753.301 769.369 754 767.668 754H737.265C735.562 754 734.093 753.304 732.856 751.898C731.616 750.498 731 748.831 731 746.902V577.094C731 575.168 731.618 573.506 732.856 572.101C734.093 570.701 735.562 570 737.265 570H761.4C764.03 570 766.159 570.789 767.784 572.363C769.408 573.943 770.454 575.168 770.916 576.043L824.063 665.943V577.094C824.063 575.168 824.678 573.506 825.919 572.101C827.156 570.701 828.622 570 830.328 570H860.726C862.431 570 863.899 570.701 865.14 572.101C866.381 573.506 867 575.168 867 577.094V746.902C867 748.832 866.381 750.498 865.14 751.898C863.899 753.301 862.431 754 860.726 754H836.597V753.997Z" fill="url(#paint4_linear_674_2317)"/>
<path d="M949.128 570C959.706 570 969.36 571.797 978.096 575.388C986.829 578.983 994.376 584.022 1000.74 590.502C1007.1 596.988 1012.08 604.743 1015.68 613.766C1019.28 622.793 1021.31 632.651 1021.78 643.338C1021.93 647.018 1022 650.394 1022 653.459C1022 656.524 1022 659.462 1022 662.264C1022 665.069 1022 667.961 1022 670.939C1022 673.92 1021.93 677.162 1021.78 680.665C1021.31 691.533 1019.32 701.431 1015.8 710.368C1012.27 719.304 1007.41 727.019 1001.2 733.499C994.989 739.985 987.597 745.024 979.016 748.612C970.426 752.208 960.853 754 950.275 754H888.215C886.526 754 885.072 753.304 883.844 751.898C882.615 750.498 882 748.831 882 746.902V577.094C882 575.168 882.615 573.506 883.844 572.101C885.072 570.701 886.526 570 888.215 570H949.128ZM979.252 642.285C978.331 622.135 967.908 612.056 947.982 612.056H924.534V711.942H949.128C968.44 711.942 978.484 701.868 979.252 681.713C979.395 678.035 979.478 674.575 979.478 671.331C979.478 668.092 979.478 664.937 979.478 661.87C979.478 658.803 979.478 655.691 979.478 652.536C979.478 649.383 979.395 645.965 979.252 642.285Z" fill="url(#paint5_linear_674_2317)"/>
<path d="M1104.87 387.075C1103.92 384.453 1102.98 381.831 1102.03 379.207C1101.63 378.084 1101.15 376.863 1100.1 376.305C1099.48 375.971 1098.73 375.931 1098.03 376.089C1095.56 376.658 1094.25 379.379 1093.56 381.844C1092.43 385.89 1091.94 390.159 1090.19 393.969C1089.79 394.829 1089.33 395.673 1089.11 396.599C1088.47 399.531 1090.68 404.42 1094.31 403.829C1094.86 403.737 1095.38 403.512 1095.92 403.312C1098.17 402.461 1099.72 403.122 1101.92 403.742C1103.94 404.315 1106.13 403.9 1107.94 402.831C1109.95 401.643 1111.46 399.602 1112 397.314" fill="#1C056D"/>
<path d="M1064.65 803C1064.39 803 1064.11 802.946 1063.85 802.827C1062.5 802.217 1061.72 800.223 1062.09 798.376C1072.01 750.446 1081.46 701.991 1090.61 655.135C1099.74 608.307 1109.19 559.882 1119.02 512.428C1119.39 510.579 1120.8 509.564 1122.15 510.181C1123.51 510.788 1124.29 512.783 1123.9 514.631C1114.09 562.041 1104.65 610.437 1095.51 657.241C1086.37 704.122 1076.91 752.601 1066.99 800.578C1066.68 802.061 1065.72 803 1064.65 803Z" fill="#517FC5"/>
<path d="M1007.61 803C1007.35 803 1007.08 802.946 1006.82 802.827C1005.5 802.217 1004.72 800.223 1005.1 798.376C1014.85 750.446 1024.15 701.991 1033.14 655.135C1042.13 608.307 1051.43 559.882 1061.09 512.428C1061.47 510.579 1062.85 509.564 1064.18 510.181C1065.51 510.788 1066.28 512.783 1065.91 514.631C1056.25 562.041 1046.96 610.437 1037.98 657.241C1028.98 704.122 1019.67 752.601 1009.91 800.578C1009.61 802.061 1008.65 803 1007.61 803Z" fill="#517FC5"/>
<path d="M1080.58 718H1025.63C1024.23 718 1023.05 716.437 1023 714.5C1022.94 712.565 1024.02 711 1025.41 711H1080.37C1081.76 711 1082.94 712.565 1083 714.5C1083.05 716.437 1081.98 718 1080.58 718Z" fill="#517FC5"/>
<path d="M1089.58 671H1034.63C1033.23 671 1032.05 669.435 1032 667.5C1031.94 665.565 1033.02 664 1034.41 664H1089.37C1090.76 664 1091.94 665.565 1092 667.5C1092.05 669.435 1090.98 671 1089.58 671Z" fill="#517FC5"/>
<path d="M1071.58 766H1016.63C1015.23 766 1014.05 764.435 1014 762.499C1013.94 760.566 1015.02 759 1016.41 759H1071.37C1072.76 759 1073.94 760.566 1074 762.499C1074.05 764.435 1072.98 766 1071.58 766Z" fill="#517FC5"/>
<path d="M1099.58 623H1044.63C1043.23 623 1042.06 621.435 1042 619.5C1041.94 617.564 1043.02 616 1044.41 616H1099.37C1100.76 616 1101.94 617.564 1102 619.5C1102.05 621.435 1100.98 623 1099.58 623Z" fill="#517FC5"/>
<path d="M1107.58 575H1052.63C1051.23 575 1050.06 573.436 1050 571.5C1049.94 569.565 1051.03 568 1052.41 568H1107.37C1108.76 568 1109.94 569.565 1110 571.5C1110.05 573.436 1108.97 575 1107.58 575Z" fill="#517FC5"/>
<path d="M1118.59 528H1063.63C1062.24 528 1061.06 526.435 1061 524.501C1060.95 522.566 1062.03 521 1063.42 521H1118.37C1119.77 521 1120.95 522.566 1121 524.501C1121.06 526.435 1119.98 528 1118.59 528Z" fill="#C1E9F4"/>
<path d="M1095.07 803C1095.32 803 1095.59 802.946 1095.87 802.827C1097.24 802.217 1098.19 800.223 1097.97 798.376C1092.25 750.446 1087.03 701.991 1081.97 655.135C1076.93 608.307 1071.71 559.882 1066.04 512.428C1065.81 510.579 1064.52 509.564 1063.13 510.181C1061.75 510.788 1060.81 512.783 1061.03 514.631C1066.7 562.041 1071.92 610.437 1076.97 657.241C1082.01 704.122 1087.24 752.601 1092.96 800.578C1093.15 802.061 1094.02 803 1095.07 803Z" fill="#517FC5"/>
<path d="M1152.99 803C1153.26 803 1153.53 802.946 1153.81 802.827C1155.23 802.217 1156.2 800.223 1155.97 798.376C1150.09 750.446 1144.73 701.991 1139.55 655.135C1134.36 608.307 1129 559.882 1123.16 512.428C1122.94 510.579 1121.62 509.564 1120.19 510.181C1118.77 510.788 1117.8 512.783 1118.03 514.631C1123.86 562.041 1129.21 610.437 1134.39 657.241C1139.59 704.122 1144.95 752.601 1150.84 800.578C1151.02 802.061 1151.92 803 1152.99 803Z" fill="#517FC5"/>
<path d="M1087.11 718H1141.09C1142.46 718 1143.75 716.437 1143.97 714.5C1144.19 712.565 1143.25 711 1141.89 711H1087.9C1086.53 711 1085.25 712.565 1085.03 714.5C1084.82 716.437 1085.74 718 1087.11 718Z" fill="#517FC5"/>
<path d="M1082.15 671H1137.05C1138.43 671 1139.74 669.435 1139.97 667.5C1140.19 665.565 1139.25 664 1137.85 664H1082.95C1081.57 664 1080.26 665.565 1080.03 667.5C1079.81 669.435 1080.75 671 1082.15 671Z" fill="#517FC5"/>
<path d="M1091.14 766H1146.05C1147.44 766 1148.74 764.435 1148.97 762.499C1149.19 760.566 1148.24 759 1146.86 759H1091.95C1090.56 759 1089.25 760.566 1089.03 762.499C1088.81 764.435 1089.75 766 1091.14 766Z" fill="#517FC5"/>
<path d="M1076.11 623H1130.09C1131.46 623 1132.74 621.435 1132.97 619.5C1133.19 617.564 1132.26 616 1130.89 616H1076.9C1075.53 616 1074.25 617.564 1074.03 619.5C1073.82 621.435 1074.74 623 1076.11 623Z" fill="#517FC5"/>
<path d="M1072.11 575H1126.09C1127.46 575 1128.75 573.436 1128.97 571.5C1129.19 569.565 1128.26 568 1126.89 568H1072.9C1071.54 568 1070.25 569.565 1070.03 571.5C1069.82 573.436 1070.74 575 1072.11 575Z" fill="#517FC5"/>
<path d="M1064.15 528H1119.04C1120.44 528 1121.74 526.435 1121.97 524.501C1122.19 522.566 1121.24 521 1119.86 521H1064.96C1063.56 521 1062.26 522.566 1062.03 524.501C1061.81 526.435 1062.76 528 1064.15 528Z" fill="#517FC5"/>
<path d="M1053 514H1131V507.002C1131 503.688 1128.28 501 1124.91 501H1059.09C1055.72 501 1053 503.688 1053 507.002V514Z" fill="#D0DCF8"/>
<path d="M1098.53 422.374C1098.53 422.374 1093.81 423.064 1087.86 423.735C1078.9 424.757 1067.14 425.717 1064.16 424.244C1059.2 421.769 1042.92 407.881 1042.92 407.881L1040.37 406.237C1039.93 405.983 1039.46 405.828 1038.97 405.772C1038.42 405.723 1037.51 405.605 1036.29 405.294C1035.68 405.126 1035.1 404.878 1034.59 404.56C1034.49 404.525 1034.4 404.459 1034.3 404.393C1034.26 404.358 1034.23 404.347 1034.23 404.347C1033.09 403.62 1032.23 402.721 1031.49 402.127C1030.37 401.218 1032.05 400.647 1033.96 401.574C1035.84 402.479 1034.64 402.301 1035.84 402.256C1037.03 402.207 1035.77 400.436 1034.67 399.166C1033.65 397.981 1033.79 397.954 1032.79 396.565C1031.8 395.202 1030.85 394.131 1030.31 393.247C1029.95 392.624 1029.78 391.83 1030.5 392.032C1031.24 392.259 1034.4 395.323 1035.19 395.845C1035.98 396.349 1037.14 395.401 1039.36 396.617C1041.57 397.833 1042.44 401.394 1043.14 402.531C1043.83 403.667 1066.37 416.783 1069.16 416.656C1071.97 416.513 1093.12 411.496 1099.68 411.86C1103.22 412.061 1098.53 422.374 1098.53 422.374Z" fill="#FFB7D6"/>
<path opacity="0.3" d="M1088 423.699C1078.92 424.751 1067 425.736 1063.98 424.225C1058.95 421.681 1042.45 407.412 1042.45 407.412L1039.86 405.724C1039.42 405.462 1038.94 405.302 1038.44 405.245C1037.88 405.195 1036.96 405.074 1035.72 404.754C1035.1 404.583 1034.52 404.327 1034 404C1035.52 404.759 1038.68 404.134 1040.24 404.962C1041.92 405.828 1053.52 415.354 1058.79 418.717C1064.03 422.059 1066.01 423.2 1070.73 423.188C1075.44 423.198 1086.65 421.189 1086.65 421.189L1088 423.699Z" fill="#ED9C80"/>
<path d="M1046 568.313C1046 568.313 1045.06 572.982 1045.25 576.68C1045.83 579.233 1045.35 580 1045.35 580L1035 579.444C1035 579.444 1039.5 577.211 1038.88 567.182C1038.26 557.153 1046 568.313 1046 568.313Z" fill="#FFB7D6"/>
<path d="M1044.89 577.023C1044.89 577.023 1040.7 578.82 1036.47 577.684C1031.6 580.248 1028.16 581.304 1023.7 582.039C1019.23 582.775 1020.13 586.67 1027.77 585.9C1035.42 585.128 1040.77 585.342 1042.48 585.472C1044.18 585.602 1046.91 585.763 1047 584.491C1047.07 583.227 1046.26 576.563 1044.89 577.023Z" fill="#517FC4"/>
<path d="M1076 572.314C1076 572.314 1075.05 576.982 1075.25 580.678C1075.81 583.232 1075.33 584 1075.33 584L1065 583.444C1065 583.444 1069.49 581.211 1068.88 571.181C1068.26 561.153 1076 572.314 1076 572.314Z" fill="#FFB7D6"/>
<path d="M1074.89 582.02C1074.89 582.02 1070.69 583.618 1066.47 582.608C1061.61 584.887 1058.16 585.826 1053.7 586.48C1049.23 587.134 1050.13 590.596 1057.77 589.911C1065.41 589.226 1070.77 589.416 1072.48 589.531C1074.19 589.646 1076.92 589.789 1076.99 588.66C1077.08 587.536 1076.27 581.611 1074.89 582.02Z" fill="#517FC4"/>
<path d="M1084.15 477.528C1084.15 477.528 1040.02 491.941 1038.15 509.446C1037.24 517.982 1030 567.495 1030 567.495C1030 567.495 1047.06 573.39 1050.65 569.89C1050.65 569.89 1054.62 520.482 1056.25 512.228C1057.86 503.974 1101 485.222 1101 485.222L1099.25 474L1084.15 477.528Z" fill="#285FAF"/>
<path d="M1084.15 477.528C1084.15 477.528 1040.02 491.941 1038.15 509.446C1037.24 517.982 1030 567.495 1030 567.495C1030 567.495 1047.06 573.39 1050.65 569.89C1050.65 569.89 1054.62 520.482 1056.25 512.228C1057.86 503.974 1101 485.222 1101 485.222L1099.25 474L1084.15 477.528Z" fill="#3A376B"/>
<path d="M1089.76 478L1100.08 479.806L1101 485.698C1101 485.698 1057.96 504.378 1056.34 512.599C1055.99 514.405 1055.52 518.192 1055 523C1054.21 519.947 1053.42 516.897 1052.63 513.844C1052.33 512.655 1052.02 511.452 1052 510.224C1051.96 507.573 1053.29 505.099 1054.79 502.924C1062.07 492.365 1078.23 483.504 1089.76 478Z" fill="#3A376B"/>
<path d="M1076.5 513.308C1074.66 501.189 1110.57 508.185 1117.6 497.802C1120.05 494.182 1121.48 483.155 1117.6 480.168C1110.04 474.354 1094.56 476.32 1094.56 476.32C1094.56 476.32 1058.03 497.897 1058 506.813C1057.96 516.793 1063.01 573.203 1063.01 573.203C1063.01 573.203 1079.48 575.464 1080.62 572.369C1082.77 556.638 1076.5 513.308 1076.5 513.308Z" fill="#3A376B"/>
<path d="M1089.19 440.879C1090.69 461.371 1081.72 461.7 1081.08 479.137C1081.08 479.137 1103.32 476.329 1119.2 483C1119.2 483 1117.94 473.085 1114.47 463.839C1114.37 463.555 1114.25 463.288 1114.14 463.019C1113.48 461.304 1112.74 459.604 1111.89 458.037C1111.86 457.943 1111.81 457.862 1111.75 457.771C1111.66 457.551 1111.56 457.346 1111.49 457.109C1111.42 457.032 1111.39 456.954 1111.37 456.874C1110.37 454.213 1110.8 450.762 1112 447.068C1113.11 443.647 1114.9 440.014 1116.84 436.635C1117.99 434.629 1119.21 432.697 1120.34 430.963V430.948C1123.66 425.999 1126.52 422.448 1126.52 422.448C1126.52 422.448 1128.46 415.946 1124.55 410.261C1124.55 410.246 1124.53 410.246 1124.52 410.23C1124.07 409.558 1123.53 408.905 1122.91 408.287C1121.22 406.599 1116.54 404.438 1112.73 403.16C1111.74 402.837 1110.81 402.561 1110.02 402.377C1109.38 402.218 1108.82 402.124 1108.35 402.088C1106.13 401.912 1104.47 402.008 1103.09 402.3C1098.96 403.227 1097.62 404.082 1091.45 405.945L1078 411.809C1078 411.809 1079.8 423.109 1078.41 426.507L1087.73 426.245C1087.73 426.245 1089.01 438.483 1089.19 440.879Z" fill="#B5A7E9"/>
<path d="M1112.17 457C1109.75 450.384 1115.88 438.94 1121 431.083V431.064L1115.34 425C1115.34 425 1115.45 434.973 1113.77 438.875C1112.11 442.746 1109.45 450.712 1112.17 457Z" fill="#F0F9FC"/>
<path d="M1091 417C1091 417 1087.14 423.571 1088.26 426.728C1079 427 1079 427 1079 427C1079 427 1079.6 425.476 1079.51 422.714C1080.94 423.094 1086.54 424.542 1091 417Z" fill="#B5A7E9"/>
<path d="M1099 475.998L1061.97 474.53C1061.09 474.495 1060.35 473.87 1060.17 473.017L1055.04 448.274C1054.79 447.067 1055.75 445.952 1057 446.002L1094.03 447.47C1094.91 447.505 1095.65 448.13 1095.83 448.983L1100.96 473.728C1101.21 474.932 1100.25 476.049 1099 475.998Z" fill="#DB4052"/>
<path d="M1099.08 474.999L1062.18 473.548C1061.65 473.526 1061.21 473.155 1061.1 472.648L1056.02 448.353C1055.88 447.637 1056.46 446.97 1057.2 447.001L1093.25 448.422C1094.08 448.454 1094.78 449.036 1094.95 449.829L1099.98 473.961C1100.1 474.511 1099.66 475.021 1099.08 474.999Z" fill="url(#paint6_linear_674_2317)"/>
<path d="M1102 462.452L1102.26 463.943L1103.03 463.832L1103.46 466C1103.46 466 1104.05 465.89 1105.15 465.687C1105.15 465.671 1105.15 465.671 1105.17 465.671C1105.18 465.671 1105.2 465.671 1105.21 465.655C1107.09 465.326 1110.41 464.651 1114.84 463.598C1117.71 462.94 1121.03 462.123 1124.77 461.148C1129.68 459.876 1132.87 457.331 1132.95 456.641C1133.1 455.527 1132.89 453.327 1132.52 450.657C1132.34 449.293 1132.11 447.798 1131.83 446.291C1130.94 440.809 1129.73 434.921 1129.28 432.816C1129.25 432.594 1129.2 432.409 1129.17 432.282C1129.14 432.094 1129.13 432 1129.13 432L1127.7 432.567L1119.93 435.597L1120.44 437.074L1125.26 451.114C1125.29 451.178 1125.29 451.257 1125.29 451.319C1125.33 451.744 1125.09 452.137 1124.69 452.278C1120.87 453.675 1116.3 455.859 1112.33 457.886C1108.93 459.598 1105.95 461.216 1104.29 462.126C1104.17 462.205 1104.06 462.268 1103.95 462.315C1103.55 462.551 1103.12 462.581 1102.76 462.567C1102.32 462.547 1102 462.452 1102 462.452Z" fill="#FFB7D6"/>
<path d="M1105 466C1106.89 465.657 1110.23 464.968 1114.7 463.913C1117.59 463.237 1120.94 462.404 1124.69 461.417C1129.65 460.109 1132.87 457.517 1132.95 456.827C1133.1 455.688 1132.89 453.435 1132.52 450.725C1131.65 444.284 1129.83 435.28 1129.25 432.541C1129.21 432.319 1129.18 432.126 1129.14 432L1127.19 433.035C1127.19 433.035 1127.26 433.383 1127.4 434.003C1128.03 436.947 1129.93 445.903 1130.81 451.126C1131.09 452.862 1131.27 454.186 1131.26 454.748C1131.15 457.359 1129.75 457.685 1128.02 458.44C1127.03 458.885 1120.33 461.143 1114.38 463.091C1109.86 464.579 1105.76 465.866 1105 466Z" fill="#FFB7D6"/>
<path d="M1104 462.549C1104 462.549 1102.99 462.762 1102.65 462.747C1102.12 462.723 1101.94 462.621 1101.94 462.621C1101.94 462.621 1099.83 461.208 1097.97 461L1098.28 462.478C1098.28 462.478 1095.8 463.862 1095.01 464.357C1095.01 464.357 1094.19 464.722 1093.86 464.817C1093.54 464.911 1090.62 464.65 1089.93 464.662C1089.25 464.672 1088.87 465.065 1088.89 465.49C1088.89 465.49 1088.94 465.705 1089.31 465.77C1089.38 465.783 1089.58 465.81 1089.82 465.841C1089.47 465.819 1089.18 465.802 1089.04 465.806C1088.36 465.818 1087.98 466.209 1088 466.635C1088 466.635 1088.04 466.847 1088.42 466.915C1088.53 466.935 1089.04 466.999 1089.71 467.08C1089.18 467.167 1088.87 467.499 1088.89 467.872C1088.89 467.872 1088.93 468.085 1089.31 468.153C1089.42 468.172 1089.97 468.243 1090.69 468.328C1090.48 468.483 1090.36 468.698 1090.37 468.928C1090.37 468.928 1090.42 469.143 1090.79 469.211C1091.17 469.279 1096.27 470.086 1096.79 469.992C1097.74 469.824 1101.36 467.235 1101.56 467.099C1102.24 466.709 1103.15 466.354 1103.15 466.354L1104 462.549Z" fill="#FFB7D6"/>
<path d="M1113.86 424.341C1115.96 431.286 1116.89 434.928 1117.25 436.335C1117.36 436.783 1117.41 437 1117.41 437C1117.41 437 1118.73 437 1120.66 436.644C1122.7 436.258 1125.41 435.47 1127.96 433.866C1128.14 433.757 1128.3 433.634 1128.48 433.51C1128.95 433.187 1129.41 432.848 1129.86 432.46C1130.61 431.796 1131.36 431.056 1132 430.205C1132 430.205 1129.83 416.578 1125.09 410.742C1125.09 410.726 1125.07 410.726 1125.06 410.71C1124.2 409.659 1123.23 408.841 1122.18 408.441C1122.02 408.379 1121.86 408.316 1121.72 408.288C1119.25 407.515 1117.13 408.348 1115.6 410.186C1114.21 411.821 1113.33 414.276 1113.07 417.086C1112.87 419.355 1113.1 421.84 1113.86 424.341Z" fill="#8F80C7"/>
<path d="M1098.49 399.181C1100.21 400.072 1102.05 400.426 1103.86 400.462C1103.85 401.198 1103.79 401.983 1103.67 402.795C1103.21 402.905 1102.97 402.963 1102.66 403.07C1101.96 403.315 1102.28 404.663 1102.37 405.163C1102.75 407.473 1104.93 408.428 1107.09 407.822C1109.24 407.22 1110.06 404.875 1110.79 403.037C1111.09 402.266 1110.76 399.847 1110.77 399.341C1111.74 398.953 1114.38 397.916 1114.38 397.916C1114.38 397.916 1118.95 394.268 1119 391C1119.02 390.088 1117.38 387.711 1117.36 386.7C1117.29 382.021 1114.1 379.295 1112.41 376.597C1110.28 373.229 1104.74 373.787 1100.89 374.689C1098.57 375.23 1096.87 375.884 1096.87 375.884C1096.87 375.884 1091.73 395.709 1098.49 399.181Z" fill="#FFB7D6"/>
<path d="M1092.39 369.508C1092.67 368.994 1092.98 368.494 1093.27 368.007C1093.73 368.909 1094.94 369.093 1095.97 369.068C1100.27 368.969 1104.66 367.184 1108.77 368.455C1109.98 368.829 1111.2 369.564 1111.6 370.755C1115.01 369.738 1118.43 370.7 1120.88 373.357C1125.78 378.655 1121.24 386.57 1123.72 392.623C1124.57 394.701 1126.22 396.432 1126.79 398.603C1127.31 400.543 1126.84 402.71 1125.59 404.283C1124.18 406.039 1121.99 406.953 1119.9 407.8C1119.02 408.156 1118.13 408.514 1117.2 408.736C1115.26 409.201 1113.18 409.048 1111.34 408.309C1109.99 407.765 1108.67 406.804 1108.28 405.412C1107.9 404.04 1108.47 402.599 1109.05 401.292C1110.07 398.97 1111.58 397.471 1113.03 395.459C1114.49 393.425 1115.95 392.469 1115.62 389.74C1115.56 389.321 1115.49 388.869 1115.2 388.565C1114.72 388.076 1113.84 388.232 1113.34 388.709C1112.84 389.185 1112.65 389.875 1112.46 390.531C1111.91 388.71 1110.68 387.101 1109.06 386.085C1107.74 385.261 1106.63 384.714 1105.68 383.482C1105.09 382.734 1103.41 380.439 1104.03 379.542C1102.13 380.627 1098.34 380.255 1096.3 379.736C1093.92 379.131 1091.65 377.436 1091.12 375.062C1090.7 373.158 1091.42 371.265 1092.39 369.508Z" fill="#1C056D"/>
<path d="M247 783C247 785.208 224.839 787 197.498 787C170.161 787 148 785.208 148 783C148 780.792 170.161 779 197.498 779C224.839 778.999 247 780.79 247 783Z" fill="#D4DFFF"/>
<path d="M206.864 514C208.73 515.892 210.474 518 211.387 520.507C212.302 523.014 212.27 525.995 210.765 528.19C209.963 529.359 208.553 530.296 207.2 529.913C206.835 529.81 206.504 529.62 206.186 529.419C202.833 527.295 200.497 523.605 200 519.64" fill="#1C056D"/>
<path d="M168 764.535C168 764.535 165.674 770.749 165.002 772.31C164.332 773.87 159.317 772.437 159.026 771.428C158.735 770.418 160.995 763 160.995 763" fill="#FFB7D6"/>
<path d="M157.487 772.019C156.895 773.691 155.8 776.076 156.032 776.915C156.262 777.757 162.44 780.269 163.824 781.076C164.852 781.675 167.116 782.502 168.291 782.702C172.395 783.405 175.546 782.721 175.859 782.111C177.166 779.559 169.031 777.861 165.563 770.662C165.563 770.662 164.949 770.594 164.306 771.204C163.322 772.14 161.95 772.518 160.832 771.876C160.194 771.511 159.426 770.726 159.126 770C159.126 770 158.078 770.345 157.487 772.019Z" fill="#517FC4"/>
<path d="M221 767C221 767 220.839 773.812 220.718 775.549C220.598 777.285 215.48 777.319 214.886 776.409C214.292 775.499 214 767.513 214 767.513" fill="#FFB7D6"/>
<path d="M214.111 776.729C214.079 778.538 213.801 781.191 214.27 781.943C214.738 782.694 221.152 783.304 222.661 783.679C223.785 783.958 226.106 784.088 227.241 783.935C231.21 783.397 233.884 781.789 233.984 781.1C234.402 778.22 226.445 778.99 221.084 773C221.084 773 220.5 773.117 220.099 773.903C219.485 775.11 218.344 775.889 217.128 775.598C216.432 775.428 215.49 774.894 214.995 774.276C214.995 774.272 214.142 774.921 214.111 776.729Z" fill="#517FC4"/>
<path d="M270.931 497.066C270.844 496.338 269.877 496.699 269.63 497.301C269.596 497.382 269.55 497.568 269.494 497.82C269.576 496.619 269.624 495.64 269.596 495.401C269.513 494.712 268.617 494.974 268.316 495.518C268.33 495.035 268.336 494.671 268.32 494.516C268.23 493.63 267.254 494.005 267.011 494.737C266.957 494.9 266.881 495.362 266.799 495.966C266.81 495.646 266.812 495.402 266.801 495.293C266.714 494.568 265.849 494.759 265.603 495.362C265.524 495.561 265.479 495.918 265.35 496.778C265.243 497.509 265.032 498.296 264.937 499.031C264.849 499.7 264.041 502.848 262.423 503.183C259.945 503.694 261.515 499.531 259.768 498.597C259.221 498.305 258.638 501.533 258.595 503.357C258.556 505.182 258.544 506.096 258.723 507.173C258.876 508.248 259.494 509.771 259.408 510.421C259.27 511.47 258 513.623 258 513.623L264.261 515C264.261 515 265.739 511.676 266.498 510.904C268.398 509.073 269.589 506.972 270.287 504.429C270.725 502.837 270.876 501.175 271 499.536C271 499.536 270.96 497.304 270.931 497.066Z" fill="#FFB7D6"/>
<path d="M213.365 548.46C213.365 548.46 232.902 548.285 243.508 536.334C251.969 524.412 260.145 511.224 260.756 510C262.422 510.639 266 512.287 266 512.287C266 512.287 254.82 537.435 250.466 543.179C246.112 548.923 237.545 558.33 219.44 563C210.766 552.988 213.365 548.46 213.365 548.46Z" fill="#FFB7D6"/>
<path d="M227.84 703.217C228.948 688.528 223.942 642.482 223.454 638.521C222.983 634.559 220.221 634.052 218.123 633.402C207.653 630.206 195.237 646.683 198.544 661.48C198.588 661.718 198.653 661.973 198.719 662.229C200.686 670.798 211.791 698.334 211.012 706.295C204.932 722.957 211.833 757.477 213.913 771.997C214.167 772.005 214.423 771.995 214.658 771.984C219.883 771.822 222.835 771.07 222.835 771.07C222.835 771.07 226.734 717.903 227.84 703.217Z" fill="#3A376B"/>
<path d="M213.981 706.112C214.362 700.669 208.938 657.417 207.597 658.006C207.15 658.202 206.875 658.655 206.631 659.079C205.509 661.036 204.432 663.023 203.49 665.074C202.512 667.195 201.701 669.381 201 671.602C204.933 683.369 211.02 700.325 210.435 706.298C206.816 716.206 207.778 732.412 209.596 747C208.89 727.805 213.678 710.453 213.981 706.112Z" fill="#3A376B"/>
<path d="M221.62 622.645C221.62 622.645 217.601 623.644 209.6 623.432C199.438 623.164 186.553 618 186.553 618C173.592 632.089 180.717 648.584 180.267 654.01C179.819 659.435 178.77 685.212 177.61 699.572C164.465 712.499 163.986 746.872 160.141 764.943C160.095 765.147 160.046 765.353 160 765.556C165.394 767.562 168.72 768 168.72 768L169.229 766.553C173.144 754.665 191.228 720.574 195.728 707.251C199.811 695.164 210.358 658.479 210.553 658.511L224 660.821C224.027 637.451 221.62 622.645 221.62 622.645Z" fill="#3A376B"/>
<path d="M213.232 535.345C213.272 536.576 213.32 541.387 210.781 542.538C208.243 543.705 206.613 544.192 206.687 544.588C206.715 544.769 206.967 545.616 207.235 546.446C207.819 548.304 208.705 548.766 208.705 548.766L209.074 554.926L204.511 559.507L203.021 561L200.784 558.935L193.483 552.238C193.483 552.238 196.492 548.506 194.415 544.506C194.117 543.943 190.79 540.234 188.136 536.497C186.592 534.3 185.277 532.111 184.93 530.547C183.978 526.27 183.175 521.766 185.614 519.082C188.035 516.394 206.045 507.794 209.227 521.787C209.227 521.787 211.934 525.424 213.184 526.542C214.45 527.678 214.128 529.216 213.005 529.849C211.895 530.482 213.189 534.114 213.232 535.345Z" fill="#FFB7D6"/>
<path d="M224.811 638.61C224.811 638.61 204.063 643.807 178 638.874C179.262 630.663 181.388 605.948 181.722 596.583L181.758 595.628C181.964 589.647 182.072 585.376 182.203 585.2C182.463 584.831 181.537 565.747 183.075 558.268C183.356 556.889 183.729 555.911 184.204 555.516C187.254 552.93 190.84 550.22 194.845 548.193C194.845 548.193 204.171 558.422 208.928 547.103C214.165 546.623 216.831 547.7 218.344 553.043C226.728 582.736 224.811 638.61 224.811 638.61Z" fill="#B5A7E9"/>
<path d="M213 547.819C213 547.819 221.862 547.967 230.904 544C235.951 549.874 239 560.584 239 560.584C239 560.584 226.802 568.263 217.887 569C215.973 556.129 213 547.819 213 547.819Z" fill="#8F80C7"/>
<path d="M215 549C215 549 220.431 556.038 222.215 568C228.293 566.788 237.8 561.406 239 560.155C236.324 561.04 224.906 565.389 223.343 561.79C220.429 555.082 215 549 215 549Z" fill="#8F80C7"/>
<path d="M211.939 556.015L251 560.159L242.874 582L210.138 560.016C209.149 559.568 208.736 558.63 209.174 557.827L209.601 557.039C209.988 556.332 210.941 555.915 211.939 556.015Z" fill="url(#paint7_linear_674_2317)"/>
<path d="M250.028 571.612C247.832 577.678 244.696 582.32 243.023 581.983C241.348 581.646 241.775 576.455 243.972 570.389C246.169 564.323 249.304 559.68 250.977 560.017C252.651 560.356 252.226 565.547 250.028 571.612Z" fill="#F99BA7"/>
<path d="M178 585.377C178 585.377 182.087 599.413 192.713 606.024C195.807 607.948 199.693 606.871 202.127 604.163C209.402 596.062 216.673 577.815 219 570.923C214.737 568.669 213.373 569.02 213.373 569.02C213.373 569.02 203.054 583.282 197.137 592.825L192.715 585.15" fill="#FFB7D6"/>
<path d="M213 569.143C213 569.143 214.858 566.123 214.946 563.837C215.033 561.547 213.953 557.595 216.163 555.538C216.984 554.771 219.863 553.598 223.1 554.137C227.92 554.94 229.227 556.368 228.969 557.392C228.708 558.418 225.37 558.774 224.494 560.514C223.619 562.253 224.109 563.344 223.889 565.253C223.56 568.123 219.583 569.338 218.719 570.767C218.103 571.783 213 569.143 213 569.143Z" fill="#FFB7D6"/>
<path d="M183.089 630.75C184.298 626.532 182.959 600.629 183.089 596.944C186.356 596.604 198.422 589.282 198.909 589.282C199.395 589.282 194.129 578.736 187.808 571.782L184.16 558C184.16 558 183.738 558.324 183.095 558.942C181.552 566.361 182.484 585.289 182.22 585.655C182.088 585.829 181.98 590.065 181.773 595.997L181.737 596.944C181.392 606.235 179.273 630.739 178 638.891C204.168 643.784 225 638.63 225 638.63C225 638.63 181.733 635.547 183.089 630.75Z" fill="#B5A7E9"/>
<path d="M186.222 554C186.222 554 175.475 561.063 175.015 573.086C174.66 582.382 180.786 595.947 180.786 595.947C180.786 595.947 191.42 597.124 197 588.405C195.348 584.172 193.9 580.41 190.726 575.41" fill="#8F80C7"/>
<path d="M202.337 517.267C206.395 516.013 211.798 515.774 209.415 509.919C208.021 506.5 203.306 503.715 197.615 504.023C194.489 504.191 191.006 507.602 189.038 511.761C180.029 515.281 178.927 522.485 180.729 529.766C180.729 529.766 184.718 543.488 195.181 544C195.181 544 195.113 541.259 194.109 537.683C194.109 537.683 189.855 536.268 189.097 533.757C188.04 530.261 193.013 532.59 193.013 532.59C193.013 532.59 193.059 529.834 192.528 527.374C192.329 526.448 191.767 525.697 191.035 525.076C191.205 524.722 193.279 520.07 202.337 517.267Z" fill="#1C056D"/>
<path d="M563 795.501C563 797.985 548.451 800 530.497 800C512.55 800 498 797.985 498 795.501C498 793.015 512.55 791 530.497 791C548.451 791 563 793.015 563 795.501Z" fill="#D4DFFF"/>
<path d="M366.499 821C455.694 821 528 815.851 528 809.5C528 803.149 455.694 798 366.499 798C277.306 798 205 803.149 205 809.5C205 815.851 277.306 821 366.499 821Z" fill="#D4DFFF"/>
<path d="M293.132 794.682C272.005 793.601 250.899 794.115 229.763 794.17C222.126 794.19 214.462 794.306 206.854 795.077C202.265 795.543 195.649 795.688 191.83 798.854C185.332 804.241 198.003 806.415 200.884 806.789C216.185 808.773 231.936 807.828 247.3 807.365C270.404 806.673 293.576 807.823 316.653 806.642C317.112 806.619 317.119 805.876 316.653 805.871C297.247 805.784 277.758 805.559 258.356 806.111C244.404 806.508 230.443 807.113 216.484 806.836C210.264 806.712 203.907 806.578 197.769 805.396C194.9 804.842 187.844 803.071 192.72 799.319C197.136 795.921 205.095 796.068 210.222 795.682C216.723 795.192 223.247 795.077 229.763 795.05C250.893 794.958 272.001 794.696 293.132 794.978C293.314 794.978 293.311 794.689 293.132 794.682Z" fill="url(#paint8_linear_674_2317)"/>
<path d="M432.641 779.491C443.72 779.719 454.775 780.514 465.803 781.592C470.825 782.082 475.839 782.712 480.867 783.157C483.226 783.365 486.296 783.161 488.501 784.044C491.756 784.435 492.089 786.931 489.497 791.534C488.025 791.756 486.549 791.933 485.066 792.063C463.893 794.117 442.382 789.479 421.333 793.05C420.817 793.136 420.934 794.023 421.456 793.983C436.125 792.864 450.583 793.55 465.264 793.889C472.858 794.063 480.648 794.179 488.184 793.054C490.778 792.666 494.1 792.003 494.847 788.957C496.75 781.215 480.363 781.894 476.49 781.493C461.91 779.983 447.3 778.945 432.637 779.002C432.335 779.004 432.335 779.486 432.641 779.491Z" fill="url(#paint9_linear_674_2317)"/>
<path d="M264.592 799.578C253.471 799.699 242.262 800.715 231.344 802.56C224.867 803.653 218.038 804.999 212.184 808.093C209.316 809.609 205.027 812.716 206.198 816.528C207.274 820.037 212.215 821.44 215.314 822.293C221.349 823.955 227.692 824.602 233.917 825.094C244.66 825.943 255.406 825.899 266.171 825.933C275.175 825.963 289.123 827.307 292.576 816.375C294.503 810.276 291.812 803.843 290.062 798.042C288.982 794.462 288.066 790.533 289.204 786.847C289.827 784.826 291.115 782.708 293.382 782.302C295.314 781.955 297.037 782.895 297.84 784.637C298.179 785.371 299.273 784.733 298.937 784.004C297.519 780.928 293.538 780.085 290.828 782.079C286.615 785.177 287.086 791.668 288.196 796.107C289.688 802.064 292.754 808.033 291.744 814.329C290.903 819.573 286.692 822.751 281.744 824.007C275.319 825.636 268.324 824.748 261.714 824.782C256.278 824.811 250.842 824.758 245.41 824.573C238.704 824.345 231.984 823.955 225.332 823.068C220.266 822.394 214.501 821.659 210.015 819.044C206.36 816.915 206.592 813.656 209.713 811.009C214.297 807.121 221.106 805.668 226.838 804.443C239.183 801.801 251.967 800.744 264.623 800.275L264.592 799.578Z" fill="url(#paint10_linear_674_2317)"/>
<path d="M552.054 785.162C552.635 787.427 555.113 787.633 557.138 787.933C560.119 788.374 562.996 788.879 565.912 789.666C567.262 790.031 568.991 790.258 570.228 790.945C576.557 794.452 573.682 799.022 568.739 800.798C562.125 803.174 554.606 802.174 547.718 802.299C539.839 802.442 531.962 802.596 524.082 802.631C493.872 802.766 463.662 802.9 433.453 803.061C432.849 803.062 432.849 804.003 433.453 804C469.031 803.817 504.624 804.016 540.202 803.327C547.874 803.178 555.942 803.837 563.556 802.815C567.147 802.335 572.851 801.296 574.557 797.417C575.797 794.598 574.294 792.111 571.772 790.772C568.802 789.197 564.986 788.602 561.718 787.946C559.143 787.431 553.292 787.865 552.304 785.092C552.249 784.934 552.009 784.994 552.054 785.162Z" fill="url(#paint11_linear_674_2317)"/>
<path d="M547.488 787.125C547.7 788.851 551.628 790.562 552.863 791.358C555.709 793.197 561.034 795.831 562.034 799.353C565.16 810.345 499.457 807.596 494.384 807.632C472.403 807.788 450.432 807.941 428.453 808.077C427.85 808.081 427.848 809.005 428.453 809C449.347 808.876 470.224 808.77 491.118 808.564C509.908 808.38 529.059 809.491 547.748 807.181C551.504 806.717 561.263 806.177 562.822 801.48C563.812 798.5 560.443 795.874 558.39 794.299C556.345 792.731 554.129 791.406 551.93 790.067C550.99 789.495 548.016 788.282 547.746 787.092C547.716 786.952 547.47 786.979 547.488 787.125Z" fill="url(#paint12_linear_674_2317)"/>
<path d="M495.777 783.367C492.758 777.427 491.947 770.24 494.615 763.991C496.158 760.375 498.325 756.81 501.469 754.37C504.211 752.243 507.44 750.721 510.789 749.836C516.561 748.31 522.972 748.814 528.123 751.832C532.423 754.352 535.569 758.446 537.641 762.92C539.662 767.284 540.513 772.706 544.867 775.521C546.111 776.323 548.177 776.658 548.787 778.155C549.517 779.937 548.191 781.707 547.484 783.255C546.641 785.096 545.806 786.935 544.97 788.779C544.371 790.098 543.79 792.378 542.202 792.867C540.679 793.407 539.052 792.088 537.623 791.695C533.856 790.66 529.773 792.127 526.345 793.629C522.411 795.352 518.353 796.296 514.033 795.917C506.04 795.217 499.39 790.476 495.777 783.367Z" fill="#EEEEFD"/>
<path d="M548 784.94C548 784.94 535.595 778.828 529.669 775.484C528.096 774.596 526.467 773.712 524.307 771.793C522.918 770.557 520.103 767.639 521.908 765.712C524.04 763.439 526.55 767.152 526.533 769.222C526.517 770.927 525.05 773.437 523.634 774.442C521.145 776.201 517.314 775.754 514.944 774.291C513.127 773.171 514.151 770.513 516.165 770.645C518.089 770.772 523.502 774.818 522.254 778.071C521.598 779.782 520.203 781.136 518.56 781.937C515.593 783.382 511.743 779.626 515.913 778.289C518.874 777.34 522.663 778.362 525.441 779.44C533.048 782.389 538.937 784.908 546.485 788" stroke="url(#paint13_linear_674_2317)" stroke-width="0.4169" stroke-miterlimit="10"/>
<path d="M545.082 793L550 779.593L548.916 779L544 792.407L545.082 793Z" fill="#389FE5"/>
<path d="M548.461 795.391C548.295 795.045 547.862 794.861 547.511 794.984L547.392 795.027C547.047 795.148 546.62 794.971 546.448 794.633L546.345 794.428C546.167 794.077 545.712 793.902 545.364 794.05C545.024 794.196 544.576 794.029 544.392 793.687L544.091 793.131C543.981 792.928 543.969 792.685 544.062 792.473L549.706 779.574C549.797 779.362 549.983 779.208 550.203 779.158L550.807 779.018C551.179 778.932 551.596 779.162 551.718 779.52C551.842 779.885 552.272 780.114 552.648 780.018L552.866 779.962C553.225 779.867 553.641 780.076 553.78 780.42L553.829 780.54C553.972 780.892 554.398 781.099 554.759 780.994L554.924 780.948C555.294 780.842 555.727 781.061 555.864 781.423L555.893 781.501C556.041 781.9 556.035 782.314 555.878 782.675L550.429 795.136C550.273 795.493 549.972 795.775 549.581 795.925L549.506 795.954C549.151 796.092 548.702 795.908 548.535 795.554L548.461 795.391Z" fill="#67C2EF"/>
<path d="M546.22 793C546.19 793 546.158 792.994 546.131 792.981C546.019 792.932 545.97 792.805 546.019 792.697L548.578 787.127C548.63 787.018 548.759 786.971 548.869 787.018C548.982 787.068 549.029 787.194 548.982 787.302L546.421 792.873C546.385 792.951 546.306 793 546.22 793Z" fill="#389FE5"/>
<path d="M550.118 785C550.102 785 550.084 784.991 550.07 784.979C550.01 784.924 549.984 784.78 550.01 784.656L550.773 781.145C550.8 781.02 550.87 780.968 550.93 781.02C550.99 781.076 551.016 781.222 550.99 781.345L550.227 784.854C550.207 784.944 550.163 785 550.118 785Z" fill="#389FE5"/>
<path d="M549.212 790C549.182 790 549.153 789.993 549.125 789.98C549.018 789.928 548.971 789.794 549.018 789.679L552.595 781.135C552.642 781.02 552.77 780.968 552.874 781.02C552.981 781.071 553.03 781.205 552.981 781.321L549.406 789.866C549.37 789.952 549.294 790 549.212 790Z" fill="#389FE5"/>
<path d="M547.287 794C547.248 794 547.208 793.995 547.171 793.981C547.025 793.93 546.961 793.793 547.025 793.678L548.452 791.135C548.516 791.019 548.689 790.97 548.83 791.019C548.975 791.07 549.04 791.206 548.975 791.321L547.549 793.864C547.502 793.952 547.398 794 547.287 794Z" fill="#389FE5"/>
<path d="M552.182 788C552.157 788 552.13 787.993 552.108 787.98C552.015 787.929 551.976 787.795 552.015 787.681L553.653 783.135C553.695 783.019 553.801 782.969 553.892 783.019C553.984 783.071 554.025 783.205 553.984 783.319L552.348 787.866C552.317 787.948 552.25 788 552.182 788Z" fill="#389FE5"/>
<path d="M550.177 792C550.153 792 550.127 791.994 550.104 791.983C550.014 791.938 549.977 791.82 550.014 791.72L550.659 790.117C550.7 790.017 550.805 789.973 550.895 790.017C550.985 790.061 551.024 790.178 550.985 790.278L550.34 791.883C550.311 791.958 550.244 792 550.177 792Z" fill="#389FE5"/>
<path d="M549.301 786C549.261 786 549.22 785.994 549.179 785.982C549.025 785.937 548.961 785.816 549.025 785.713L549.42 785.119C549.488 785.017 549.667 784.974 549.819 785.017C549.974 785.063 550.041 785.183 549.974 785.286L549.578 785.88C549.525 785.955 549.417 786 549.301 786Z" fill="#389FE5"/>
<path d="M495.777 783.416C492.758 777.498 491.947 770.341 494.615 764.113C494.919 763.405 495.249 762.697 495.605 762C491.766 772.162 496.544 784.576 507.067 788.885C515.915 792.507 524.045 791.035 531.808 783.96C533.432 782.48 535.241 781.706 537.486 782.355C539.562 782.955 541.262 784.451 543.391 784.916C543.712 784.988 544.055 785.028 544.367 784.92C544.655 784.818 544.882 784.601 545.095 784.38C546.84 782.563 547.97 780.269 548.562 777.817C548.65 777.944 548.727 778.077 548.787 778.225C549.518 780 548.191 781.764 547.484 783.305C546.642 785.139 545.807 786.971 544.97 788.807C544.371 790.121 543.789 792.393 542.202 792.879C540.679 793.418 539.052 792.103 537.624 791.712C533.858 790.681 529.776 792.142 526.347 793.638C522.414 795.355 518.355 796.295 514.036 795.917C506.039 795.218 499.389 790.495 495.777 783.416Z" fill="#EEEEFD"/>
<path d="M438.213 805.133H290.781C290.348 805.133 290 805.422 290 805.778V810.357C290 810.714 290.348 811 290.781 811H453.027C455.774 811 458 809.161 458 806.89V777.111C458 774.839 455.774 773 453.027 773H290.781C290.348 773 290 773.289 290 773.644V778.223C290 778.58 290.348 778.867 290.781 778.867H438.213C440.958 778.867 443.183 780.709 443.183 782.977V801.018C443.183 803.294 440.958 805.133 438.213 805.133Z" fill="#6880E4"/>
<path d="M296 779H439.127C445.131 779 450 783.822 450 789.769V794.231C450 800.179 445.131 805 439.127 805H296V779Z" fill="#EEEEFD"/>
<path d="M450 797H380" stroke="#9391EC" stroke-width="0.8337" stroke-miterlimit="10"/>
<path d="M450 792H336" stroke="#9391EC" stroke-width="0.8337" stroke-miterlimit="10"/>
<path d="M450 787H306" stroke="#9391EC" stroke-width="0.8337" stroke-miterlimit="10"/>
<path d="M433 782H319" stroke="#9391EC" stroke-width="0.8337" stroke-miterlimit="10"/>
<path d="M355 797H316" stroke="#9391EC" stroke-width="0.8337" stroke-miterlimit="10"/>
<path d="M296.717 754.397H449.268C449.672 754.397 450 754.229 450 754.025V751.373C450 751.165 449.672 751 449.268 751H282.834C280.262 751 279 752.066 279 753.38V770.622C279 771.934 280.262 773 282.834 773H449.266C449.67 773 449.997 772.833 449.997 772.627V769.976C449.997 769.77 449.67 769.604 449.266 769.604H296.716C294.142 769.604 292.057 768.539 292.057 767.225V756.778C292.058 755.463 294.145 754.397 296.717 754.397Z" fill="#6880E4"/>
<path d="M443.999 770H289.648C285.425 770 282 766.419 282 762C282 757.581 285.425 754 289.648 754H444L443.999 770Z" fill="#EEEEFD"/>
<path d="M282 759H349" stroke="#9391EC" stroke-width="0.8337" stroke-miterlimit="10"/>
<path d="M282 762H391" stroke="#9391EC" stroke-width="0.8337" stroke-miterlimit="10"/>
<path d="M282 765H434" stroke="#9391EC" stroke-width="0.8337" stroke-miterlimit="10"/>
<path d="M298 768H422" stroke="#9391EC" stroke-width="0.8337" stroke-miterlimit="10"/>
<path d="M373 759H425" stroke="#9391EC" stroke-width="0.8337" stroke-miterlimit="10"/>
<path d="M611 823.502C611 827.089 588.167 830 559.998 830C531.834 830 509 827.089 509 823.502C509 819.911 531.834 817 559.998 817C588.167 817 611 819.911 611 823.502Z" fill="#D4DFFF"/>
<path d="M539 809.288C539 809.288 538.988 814.717 539.29 816.658C539.594 818.597 544.378 818.158 544.833 817.079C545.286 815.999 544.675 807 544.675 807" fill="#FFB7D6"/>
<path d="M545.838 816.747C545.895 818.558 546.222 821.212 545.742 821.963C545.26 822.713 538.529 823.314 536.947 823.687C535.771 823.963 533.334 824.087 532.141 823.933C527.962 823.39 525.134 821.776 525.02 821.085C524.54 818.203 532.913 818.985 538.465 813C538.465 813 539.078 813.118 539.508 813.907C540.17 815.115 541.379 815.896 542.654 815.604C543.382 815.439 544.109 815.111 544.62 814.492C544.62 814.492 545.782 814.937 545.838 816.747Z" fill="#517FC4"/>
<path d="M583 664C585.091 662.454 587.367 660.717 589.533 658.905C594.466 654.754 598.872 650.245 599.416 646.962C600.621 639.603 599.68 617.737 599.096 607.416C599.077 606.793 599.041 606.207 599.003 605.66C598.418 595.904 593.187 591.584 590.569 590C589.233 602.678 586.219 631.3 585.976 632.772C585.654 634.66 583 664 583 664Z" fill="white"/>
<path d="M583 664C585.124 662.442 587.441 660.692 589.645 658.866C589.834 650.741 592.269 639.395 595.696 625.195C599.765 607.292 597.206 604 597.206 604L589.033 605.235C587.675 617.878 586.2 631.53 586.027 632.535C585.7 634.436 583 664 583 664Z" fill="#8F80C7"/>
<path d="M582 807.022C582 807.022 582.69 813.29 582.944 814.882C583.197 816.473 588.208 816.145 588.719 815.263C589.23 814.381 588.888 807 588.888 807" fill="#FFB7D6"/>
<path d="M590.577 815.052C590.758 816.789 591.26 819.32 590.831 820.078C590.398 820.837 583.706 821.917 582.147 822.395C580.989 822.748 578.56 823.052 577.354 822.993C573.138 822.781 570.201 821.44 570.038 820.786C569.365 818.048 577.791 818.175 582.944 812C582.944 812 583.567 812.07 584.051 812.793C584.794 813.906 586.055 814.566 587.312 814.192C588.03 813.977 588.977 813.389 589.446 812.756C589.446 812.756 590.397 813.313 590.577 815.052Z" fill="#517FC4"/>
<path d="M584.077 662.129L560 662L562.298 691.991L563.087 702.131C563.087 702.131 565.352 742.79 567.175 749.171C570.218 767.088 581.182 811.458 581.182 811.458C584.098 812.26 587.477 812.234 589.508 810.962C587.352 787.303 591.706 760.979 582.353 744.099C583.83 733.222 586.063 723.556 588.244 698.765C588.685 693.759 590.385 692.967 590.969 682.566C591.535 672.153 584.077 662.129 584.077 662.129Z" fill="#3A376B"/>
<path d="M564.901 731C566.024 725.989 569.449 715.38 571.518 709.897C574.405 702.233 577.581 698.728 577.581 698.728C588.98 684.839 578.855 669 578.855 669C578.855 669 569.374 678.112 568.736 679.027C568.132 679.881 564.674 687.229 562 691.308L562.818 701.456C562.822 701.456 563.774 715.548 564.901 731Z" fill="#3A376B"/>
<path d="M579.244 662L547.618 663.417C547.618 663.417 539.009 730.236 539.492 743.01C540.368 766.143 538 810.861 538 810.861C538 810.861 541.844 814.443 546.196 812.336C546.196 812.336 562.556 772.671 557.666 747.211C559.931 737.933 568.513 707.323 571.274 703.083C575.127 697.163 589.81 691.561 579.244 662Z" fill="#3A376B"/>
<path d="M577.361 583.808C577.361 583.808 575.612 578.002 576.376 573.718C577.142 569.433 579.766 561.72 578.782 555.935C577.799 550.15 570.366 545.328 562.494 546.077C554.624 546.827 552.329 554.218 551.017 558.505C549.703 562.789 549.922 569.324 550.251 572.861C550.58 576.396 552.548 579.181 553.859 579.931C555.172 580.68 560.106 579.689 560.971 580.613C561.837 581.537 562.494 587 562.494 587" fill="#FFB7D6"/>
<path d="M581 588.672C581 588.672 580.573 585.269 579.295 584.066C578.014 582.86 569.492 582.86 566.933 583.183C564.376 583.507 558.068 586.476 557.236 587.103C556.402 587.731 558.048 591 558.048 591L581 588.672Z" fill="#B5A7E9"/>
<path d="M577.405 576.614C577.303 576.677 577.199 576.739 577.091 576.796C575.22 577.796 572.782 577.612 571.081 576.345C569.675 577.463 567.869 578.282 566.113 577.909C564.359 577.534 562.918 575.573 563.595 573.905C562.22 574.131 560.747 573.658 559.755 572.672C557.723 570.647 559.059 568.908 559.048 566.58C559.039 564.926 558.918 562.086 556.817 561.754C556.022 561.629 555.172 562.049 554.789 562.76C554.633 563.047 554.536 563.39 554.27 563.576C553.911 563.823 553.384 563.658 553.111 563.321C552.835 562.983 552.758 562.526 552.73 562.091C552.596 560.073 553.372 557.956 554.836 556.552C551.939 554.869 550.356 551.997 550.051 548.646C549.924 547.247 550.003 545.78 550.643 544.531C551.529 542.802 553.336 541.762 555.117 541.006C557.456 540.015 559.784 539.76 562.281 540.225C565.116 540.754 566.073 542.538 568.261 543.259C571.761 542.066 576.475 543.222 577.204 547.177C579.036 546.847 580.968 547.271 582.173 548.86C583.854 551.074 582.544 552.925 581.973 555.207C581.18 558.386 582.189 561.11 582.025 564.2C581.885 566.858 580.037 569.096 579.35 571.596C578.838 573.453 579.288 575.434 577.405 576.614Z" fill="#1C056D"/>
<path d="M547.325 656.362C546.927 659.769 543.949 668.119 545.978 668.861C546.793 669.147 550.111 668.956 554.169 668.614H554.282C554.358 668.614 554.414 668.595 554.47 668.595C558.073 668.29 562.186 667.89 565.638 667.623C579.42 667.034 586.455 666.718 587.839 665.937C588.502 665.537 588.521 664.337 588.313 663.1C587.839 660.055 587.687 656.989 588.085 653.926C588.425 651.356 588.899 648.291 589.562 644.789C591.837 632.662 596.294 614.139 596.956 603.003C598.019 585.546 579.401 587.202 579.401 587.202C555.702 585.716 544.573 592.569 543.285 602.793C543.188 603.515 543.132 604.297 543.075 605.114C542.469 615.662 545.671 632.68 547.188 645.396C547.607 648.899 547.531 652.952 547.325 656.362Z" fill="#B5A7E9"/>
<path d="M547.261 656.433C546.869 659.822 543.937 668.123 545.936 668.862C546.737 669.145 550.006 668.957 554 668.617C550.396 668.881 549.725 663.021 550.528 661.147C551.329 659.253 552.992 654.994 552.843 649.941C552.672 644.906 550.806 633.548 549.706 622.816C548.659 612.841 549.555 605.042 549.686 604C549.126 605.134 547.521 606.726 543.002 607.786C542.908 618.329 545.748 633.773 547.128 645.532C547.54 649.012 547.466 653.044 547.261 656.433Z" fill="#B5A7E9"/>
<path d="M486.537 650.101C485.981 649.815 486.569 649.208 487.128 649.211C487.204 649.211 487.367 649.234 487.586 649.271C486.599 648.961 485.796 648.698 485.614 648.606C485.085 648.333 485.577 647.749 486.106 647.691C485.713 647.557 485.42 647.447 485.301 647.388C484.618 647.05 485.221 646.443 485.885 646.487C486.033 646.499 486.429 646.583 486.936 646.707C486.679 646.616 486.481 646.545 486.396 646.5C485.841 646.214 486.264 645.632 486.824 645.634C487.006 645.636 487.306 645.714 488.034 645.882C488.655 646.025 489.35 646.11 489.973 646.264C490.838 646.482 491.774 646.565 491.788 646.566C493.937 645.907 494.987 644.82 494.987 644.82L492.87 643.697C492.87 643.697 492.745 641.913 498.647 644.054C499.525 644.372 500.276 645.524 500.825 645.662C501.376 645.799 503 645.782 503 645.782L502.995 650.718C502.995 650.718 500.117 650.236 499.264 650.558C498.419 650.905 494.981 651.95 494.395 651.996C494.153 652.022 493.127 651.916 491.934 651.761L490.162 651.406L488.503 650.905C488.499 650.91 486.719 650.196 486.537 650.101Z" fill="#FFB7D6"/>
<path d="M501 650.992C501 650.992 510.121 653.058 517.538 654.438C523.271 655.471 529.352 656.318 535.343 655.883C535.388 655.881 535.441 655.903 535.482 655.899C539.192 655.762 544.107 654.67 545.254 653.012C546.4 651.354 548.631 644.797 548.631 644.797C550.509 640.934 553.342 630.438 555.734 621.503C555.777 621.354 555.81 621.222 555.844 621.092C556.953 616.932 557.977 613.128 558.742 610.543C559.121 609.332 559.075 608.049 558.652 606.919C558.306 605.907 557.641 605.009 556.703 604.371C556.692 604.346 556.692 604.346 556.675 604.337C554.166 602.633 554.935 600.204 552.354 601.867C552.22 601.937 550.672 601.471 550.556 601.548C548.889 597.478 550.011 592 550.011 592C550.011 592 542.771 595.169 540.134 610.071C539.549 613.377 535.92 636.7 535.665 639.557C535.653 639.782 535.651 639.988 535.631 640.187C535.631 640.187 535.535 640.52 535.442 641.041C535.418 641.197 535.416 641.402 535.396 641.603C533.245 641.537 530.85 641.706 528.331 642.274C520.077 644.155 501.586 645.097 501.586 645.097L501.102 649.704L501.097 649.766L501.109 649.79L501 650.992Z" fill="#8F80C7"/>
<g opacity="0.4">
<path d="M631.984 453.833C635.118 446.13 632.342 436.672 626.056 431.229C619.768 425.786 610.562 424.29 602.58 426.618C594.597 428.947 587.884 434.791 583.641 441.944C582.325 438.098 580.336 434.211 576.844 432.129C571.991 429.237 565.491 430.754 561.054 434.248C556.615 437.742 553.781 442.831 551.06 447.78C545.902 443.689 540.454 439.462 533.974 438.304C524.389 436.589 515.149 441.889 506.417 446.199C490.294 454.154 476.027 452.679 447.143 456.309C505.411 452.953 631.984 453.833 631.984 453.833Z" fill="#F3FBFF"/>
</g>
<g opacity="0.4">
<path d="M402.671 288.003C406.8 277.859 403.144 265.401 394.864 258.232C386.584 251.065 374.458 249.093 363.944 252.16C353.431 255.227 344.587 262.926 338.999 272.345C337.265 267.281 334.648 262.16 330.049 259.419C323.658 255.611 315.096 257.608 309.252 262.21C303.41 266.812 299.674 273.515 296.091 280.035C289.298 274.647 282.122 269.082 273.586 267.554C260.964 265.296 248.794 272.278 237.295 277.951C216.059 288.429 197.268 286.486 159.225 291.267C235.968 286.845 402.671 288.003 402.671 288.003Z" fill="#F3FBFF"/>
</g>
<g opacity="0.4">
<path d="M960.328 283.121C969.293 283.121 977.618 290.632 978.566 299.541C981.385 295.859 985.719 293.054 990.35 293.182C994.992 293.311 999.572 297.057 999.623 301.691C1004.53 296.23 1013.56 295.234 1019.92 298.454C1022.78 299.905 1025.27 302.009 1027.38 304.419C1029.21 306.514 1030.75 309.063 1033.31 310.348C1035.9 311.646 1052.82 312.801 1058.39 313.182C1071.26 314.067 1084.13 314.663 1097.01 315.156C1104.3 315.436 1111.59 315.682 1118.9 315.844C1087.09 315.844 926.095 315.427 916.432 315.427C917.141 310.204 920.6 305.432 925.334 303.119C930.459 300.615 935.637 301.492 940.587 303.634C940.361 301.816 942.265 283.121 960.328 283.121Z" fill="#F3FBFF"/>
</g>
<g opacity="0.4">
<path d="M878.019 2.7749C892.397 2.7749 905.767 14.8259 907.29 29.1199C911.808 23.2132 918.765 18.712 926.207 18.917C933.638 19.1221 940.997 25.1333 941.079 32.5717C948.943 23.8068 963.444 22.2074 973.644 27.3743C978.234 29.7022 982.237 33.0822 985.614 36.9469C988.557 40.3093 991.016 44.3954 995.133 46.4599C999.292 48.5432 1026.45 50.3936 1035.39 51.0092C1056.01 52.4294 1076.67 53.3876 1097.34 54.1771C1109.04 54.6248 1120.75 55.02 1132.46 55.2794C1081.42 55.2794 823.092 54.6114 807.592 54.6114C808.731 46.2304 814.267 38.5721 821.867 34.8606C830.092 30.8436 838.403 32.2485 846.349 35.6872C845.988 32.7744 849.04 2.7749 878.019 2.7749Z" fill="#F3FBFF"/>
</g>
<path d="M805 836.501C805 838.985 819.773 841 837.998 841C856.224 841 871 838.985 871 836.501C871 834.015 856.224 832 837.998 832C819.773 832 805 834.015 805 836.501Z" fill="#D4DFFF"/>
<path d="M873.225 824.369C876.245 818.426 877.052 811.241 874.382 804.99C872.846 801.375 870.677 797.808 867.535 795.37C864.792 793.243 861.558 791.721 858.212 790.836C852.44 789.31 846.029 789.814 840.878 792.833C836.578 795.352 833.432 799.448 831.359 803.92C829.337 808.285 828.486 813.706 824.133 816.521C822.89 817.324 820.821 817.661 820.213 819.155C819.482 820.937 820.809 822.709 821.516 824.256C822.358 826.096 823.193 827.937 824.031 829.779C824.629 831.098 825.211 833.38 826.799 833.869C828.322 834.409 829.949 833.09 831.377 832.696C835.144 831.661 839.226 833.13 842.654 834.63C846.588 836.353 850.648 837.297 854.968 836.916C862.96 836.218 869.613 831.479 873.225 824.369Z" fill="#EEEEFD"/>
<path d="M821 826.073C821 826.073 833.038 820.227 838.789 817.029C840.316 816.18 841.896 815.335 843.993 813.499C845.341 812.316 848.072 809.526 846.321 807.682C844.252 805.506 841.816 809.059 841.836 811.039C841.85 812.671 843.273 815.072 844.647 816.031C847.065 817.716 850.781 817.287 853.084 815.887C854.846 814.816 853.854 812.274 851.899 812.4C850.033 812.521 844.78 816.391 845.989 819.503C846.627 821.14 847.979 822.434 849.574 823.201C852.454 824.584 856.19 820.991 852.143 819.713C849.269 818.804 845.592 819.783 842.897 820.811C835.516 823.633 829.799 826.042 822.474 829" stroke="url(#paint14_linear_674_2317)" stroke-width="0.4169" stroke-miterlimit="10"/>
<path d="M825 833.45L819.265 821L818 821.55L823.737 834L825 833.45Z" fill="#389FE5"/>
<path d="M819.539 836.428C819.703 836.101 820.137 835.927 820.489 836.043L820.607 836.084C820.953 836.199 821.379 836.031 821.552 835.713L821.654 835.52C821.833 835.189 822.288 835.023 822.636 835.164C822.976 835.302 823.424 835.145 823.608 834.823L823.909 834.301C824.019 834.112 824.031 833.882 823.936 833.683L818.296 821.54C818.203 821.341 818.019 821.197 817.799 821.148L817.194 821.017C816.822 820.936 816.404 821.153 816.283 821.489C816.16 821.833 815.729 822.048 815.352 821.958L815.136 821.904C814.776 821.816 814.36 822.012 814.22 822.337L814.171 822.449C814.028 822.78 813.601 822.975 813.241 822.877L813.075 822.833C812.707 822.732 812.272 822.939 812.137 823.28L812.108 823.354C811.958 823.729 811.966 824.12 812.121 824.458L817.573 836.185C817.729 836.525 818.03 836.788 818.419 836.929L818.496 836.957C818.85 837.086 819.299 836.913 819.466 836.579L819.539 836.428Z" fill="#517FC4"/>
<path d="M822.779 835C822.81 835 822.841 834.993 822.87 834.978C822.98 834.922 823.031 834.773 822.98 834.647L820.421 828.148C820.37 828.02 820.242 827.968 820.13 828.02C820.019 828.077 819.97 828.226 820.019 828.352L822.58 834.85C822.616 834.946 822.697 835 822.779 835Z" fill="#389FE5"/>
<path d="M818.764 826C818.797 826 818.828 825.995 818.861 825.984C818.98 825.943 819.032 825.835 818.98 825.743L817.454 823.108C817.401 823.016 817.261 822.974 817.14 823.016C817.021 823.057 816.967 823.165 817.021 823.257L818.547 825.892C818.589 825.96 818.674 826 818.764 826Z" fill="#389FE5"/>
<path d="M819.735 831C819.772 831 819.808 830.992 819.843 830.98C819.979 830.928 820.034 830.794 819.978 830.678L815.508 822.134C815.449 822.02 815.288 821.969 815.157 822.02C815.024 822.07 814.963 822.206 815.024 822.32L819.492 830.864C819.537 830.948 819.635 831 819.735 831Z" fill="#389FE5"/>
<path d="M820.856 835C820.876 835 820.897 834.992 820.914 834.98C820.988 834.928 821.02 834.792 820.988 834.675L820.274 832.134C820.242 832.019 820.156 831.97 820.084 832.019C820.011 832.071 819.981 832.206 820.012 832.322L820.725 834.864C820.749 834.948 820.802 835 820.856 835Z" fill="#389FE5"/>
<path d="M816.728 829C816.766 829 816.806 828.995 816.839 828.981C816.977 828.93 817.037 828.796 816.977 828.682L814.521 824.133C814.457 824.019 814.299 823.969 814.161 824.019C814.024 824.071 813.962 824.205 814.024 824.319L816.479 828.866C816.526 828.952 816.624 829 816.728 829Z" fill="#389FE5"/>
<path d="M818.821 834C818.846 834 818.87 833.991 818.894 833.974C818.985 833.908 819.024 833.73 818.985 833.58L818.34 831.176C818.3 831.026 818.195 830.958 818.105 831.026C818.016 831.093 817.975 831.268 818.016 831.418L818.66 833.824C818.689 833.934 818.754 834 818.821 834Z" fill="#389FE5"/>
<path d="M819.696 828C819.739 828 819.783 827.994 819.82 827.983C819.975 827.937 820.04 827.817 819.975 827.713L819.577 827.119C819.512 827.017 819.331 826.973 819.178 827.017C819.025 827.063 818.96 827.184 819.025 827.286L819.419 827.88C819.469 827.955 819.577 828 819.696 828Z" fill="#389FE5"/>
<path d="M873.226 824.417C876.244 818.499 877.052 811.34 874.382 805.115C874.085 804.405 873.747 803.698 873.399 803C877.236 813.163 872.458 825.58 861.927 829.887C853.082 833.507 844.953 832.04 837.19 824.963C835.566 823.481 833.757 822.708 831.513 823.356C829.439 823.958 827.738 825.453 825.609 825.918C825.289 825.989 824.947 826.031 824.633 825.923C824.344 825.82 824.116 825.602 823.904 825.382C822.16 823.563 821.03 821.27 820.438 818.818C820.352 818.946 820.273 819.078 820.212 819.225C819.484 821 820.809 822.765 821.516 824.305C822.358 826.139 823.193 827.971 824.031 829.806C824.629 831.12 825.211 833.394 826.799 833.88C828.321 834.418 829.948 833.104 831.375 832.713C835.143 831.68 839.225 833.145 842.653 834.639C846.587 836.355 850.646 837.296 854.965 836.917C862.961 836.221 869.613 831.499 873.226 824.417Z" fill="#EEEEFD"/>
<path opacity="0.16" d="M85.037 758.871C85.037 758.871 -7.20832 662.249 38.9143 516.319C85.037 370.389 272.466 314.539 297.984 264.965C323.501 215.391 329.11 100.614 411.236 40.7733C507.574 -29.4231 646.55 -5.08451 711.128 83.9373C775.705 172.959 833.945 285.174 916.794 294.428C999.64 303.681 1082.07 294.538 1148.8 423.206C1215.53 551.874 1132.12 729.435 1106.6 759.846" fill="#B5A7E9"/>
<defs>
<linearGradient id="paint0_linear_674_2317" x1="410" y1="584.5" x2="557" y2="584.5" gradientUnits="userSpaceOnUse">
<stop stop-color="#FB9004"/>
<stop offset="1" stop-color="#FC067D"/>
</linearGradient>
<linearGradient id="paint1_linear_674_2317" x1="-nan" y1="-nan" x2="-nan" y2="-nan" gradientUnits="userSpaceOnUse">
<stop stop-color="#9942FF"/>
<stop offset="1" stop-color="#FC067D"/>
</linearGradient>
<linearGradient id="paint2_linear_674_2317" x1="267" y1="662" x2="405" y2="662" gradientUnits="userSpaceOnUse">
<stop stop-color="#9942FF"/>
<stop offset="1" stop-color="#4D6DFF"/>
</linearGradient>
<linearGradient id="paint3_linear_674_2317" x1="561" y1="662" x2="722" y2="662" gradientUnits="userSpaceOnUse">
<stop stop-color="#9942FF"/>
<stop offset="1" stop-color="#4D6DFF"/>
</linearGradient>
<linearGradient id="paint4_linear_674_2317" x1="731" y1="662" x2="867" y2="662" gradientUnits="userSpaceOnUse">
<stop stop-color="#FB9004"/>
<stop offset="1" stop-color="#FC067D"/>
</linearGradient>
<linearGradient id="paint5_linear_674_2317" x1="882" y1="662" x2="1022" y2="662" gradientUnits="userSpaceOnUse">
<stop stop-color="#9942FF"/>
<stop offset="1" stop-color="#4D6DFF"/>
</linearGradient>
<linearGradient id="paint6_linear_674_2317" x1="1056" y1="461" x2="1100" y2="461" gradientUnits="userSpaceOnUse">
<stop stop-color="#FB9004"/>
<stop offset="1" stop-color="#FC067D"/>
</linearGradient>
<linearGradient id="paint7_linear_674_2317" x1="209" y1="569" x2="251" y2="569" gradientUnits="userSpaceOnUse">
<stop stop-color="#FB9004"/>
<stop offset="1" stop-color="#FC067D"/>
</linearGradient>
<linearGradient id="paint8_linear_674_2317" x1="190" y1="801" x2="317" y2="801" gradientUnits="userSpaceOnUse">
<stop stop-color="#9942FF"/>
<stop offset="1" stop-color="#FC067D"/>
</linearGradient>
<linearGradient id="paint9_linear_674_2317" x1="421.001" y1="786.499" x2="494.999" y2="786.499" gradientUnits="userSpaceOnUse">
<stop stop-color="#9942FF"/>
<stop offset="1" stop-color="#FC067D"/>
</linearGradient>
<linearGradient id="paint10_linear_674_2317" x1="206.001" y1="803.501" x2="299" y2="803.501" gradientUnits="userSpaceOnUse">
<stop stop-color="#9942FF"/>
<stop offset="1" stop-color="#FC067D"/>
</linearGradient>
<linearGradient id="paint11_linear_674_2317" x1="433" y1="794.501" x2="575" y2="794.501" gradientUnits="userSpaceOnUse">
<stop stop-color="#9942FF"/>
<stop offset="1" stop-color="#FC067D"/>
</linearGradient>
<linearGradient id="paint12_linear_674_2317" x1="428" y1="798.001" x2="563" y2="798.001" gradientUnits="userSpaceOnUse">
<stop stop-color="#9942FF"/>
<stop offset="1" stop-color="#FC067D"/>
</linearGradient>
<linearGradient id="paint13_linear_674_2317" x1="514" y1="776.5" x2="548" y2="776.5" gradientUnits="userSpaceOnUse">
<stop stop-color="#9942FF"/>
<stop offset="1" stop-color="#FC067D"/>
</linearGradient>
<linearGradient id="paint14_linear_674_2317" x1="821" y1="818" x2="854.001" y2="818" gradientUnits="userSpaceOnUse">
<stop stop-color="#9942FF"/>
<stop offset="1" stop-color="#FC067D"/>
</linearGradient>
</defs>
</svg>
