<svg width="33" height="41" viewBox="0 0 33 41" fill="none" xmlns="http://www.w3.org/2000/svg">
<path d="M30.1572 22.737L24.0353 13.1401C24.9027 12.6843 25.496 11.7747 25.496 10.7287C25.496 9.58373 24.7853 8.60224 23.7821 8.20046L25.6366 1.71662C25.7167 1.43689 25.6386 1.13586 25.433 0.930128C24.1993 -0.30347 22.1921 -0.30347 20.9584 0.930128C20.6633 1.22523 20.271 1.38772 19.8537 1.38772C19.4364 1.38772 19.0441 1.22523 18.7471 0.928206L18.7432 0.924282C17.5139 -0.305152 15.5102 -0.308595 14.2759 0.916995L14.2529 0.939898C13.6437 1.54476 12.6543 1.543 12.0474 0.935974L12.0415 0.930128C10.8078 -0.30347 8.80064 -0.30347 7.56697 0.930128C7.36115 1.13602 7.28323 1.43729 7.36339 1.71718L9.22196 8.19894C8.2166 8.59967 7.50394 9.58221 7.50394 10.7288C7.50394 11.7748 8.09719 12.6844 8.96465 13.1402L2.84271 22.737C0.474337 26.4496 0.324261 30.9716 2.44125 34.8331C4.55825 38.6946 8.45124 41 12.8551 41H20.1447C24.5485 41 28.4415 38.6946 30.5585 34.8331C32.6755 30.9716 32.5255 26.4496 30.1572 22.737ZM10.9089 2.06266L10.9148 2.06851C12.1442 3.29786 14.1479 3.30122 15.382 2.0758L15.405 2.05289C16.0141 1.44802 17.0035 1.44979 17.6124 2.05866L17.6163 2.06258C18.85 3.29618 20.8572 3.29618 22.0909 2.06258C22.5929 1.56062 23.3542 1.47229 23.9475 1.79759L22.1719 8.00586H10.8329L9.05266 1.79751C9.64592 1.47229 10.407 1.56078 10.9089 2.06266ZM29.1541 34.0632C27.3226 37.4039 23.9547 39.3985 20.1448 39.3985H12.8552C9.0453 39.3985 5.67733 37.404 3.84583 34.0632C2.01433 30.7224 2.14415 26.8104 4.19307 23.5983L10.6658 13.4515H12.8962C13.3385 13.4515 13.6971 13.093 13.6971 12.6507C13.6971 12.2084 13.3385 11.8498 12.8962 11.8498H10.2268C9.60852 11.8498 9.1056 11.3469 9.1056 10.7287C9.1056 10.1104 9.60852 9.60752 10.2268 9.60752H10.2294H22.7731C23.3914 9.60752 23.8943 10.1104 23.8943 10.7287C23.8943 11.3469 23.3914 11.8498 22.7731 11.8498H20.1037C19.6614 11.8498 19.3029 12.2084 19.3029 12.6507C19.3029 13.093 19.6614 13.4515 20.1037 13.4515H22.3341L28.8069 23.5983C30.8558 26.8103 30.9856 30.7224 29.1541 34.0632Z" fill="url(#paint0_linear_158_2581)"/>
<path d="M17.912 26.1537C17.7111 26.0827 17.506 26.0087 17.3009 25.9319V22.3024C17.8439 22.4622 18.2065 22.7213 18.2219 22.7325C18.5742 22.9963 19.074 22.9263 19.3402 22.575C19.6073 22.2225 19.538 21.7202 19.1855 21.4531C19.1385 21.4174 18.3938 20.8647 17.3009 20.6554V19.8584C17.3009 19.4161 16.9424 19.0576 16.5001 19.0576C16.0578 19.0576 15.6993 19.4161 15.6993 19.8584V20.6497C15.5636 20.6757 15.4261 20.7086 15.2868 20.7505C14.1597 21.0892 13.3172 22.053 13.0881 23.266C12.879 24.3735 13.2339 25.4418 14.0142 26.0537C14.4377 26.3858 14.9668 26.6891 15.6993 27.0112V31.6557C15.0686 31.6158 14.6468 31.4723 13.9435 31.0122C13.5734 30.77 13.077 30.8739 12.8349 31.244C12.5927 31.6141 12.6965 32.1104 13.0666 32.3526C14.0922 33.0234 14.7866 33.2135 15.6993 33.2584V34.0865C15.6993 34.5288 16.0578 34.8874 16.5001 34.8874C16.9424 34.8874 17.3009 34.5288 17.3009 34.0865V33.1752C19.0158 32.7996 20.0188 31.3686 20.2438 30.0299C20.538 28.2798 19.6227 26.7583 17.912 26.1537ZM15.0026 24.7934C14.6948 24.5519 14.5643 24.0805 14.662 23.5631C14.7518 23.0872 15.072 22.5134 15.6993 22.3011V25.234C15.436 25.0936 15.1984 24.9469 15.0026 24.7934ZM18.6643 29.7643C18.549 30.4502 18.086 31.1777 17.3009 31.4991V27.636C17.327 27.6453 17.3517 27.6544 17.3781 27.6637C18.814 28.1712 18.7256 29.3999 18.6643 29.7643Z" fill="url(#paint1_linear_158_2581)"/>
<path d="M16.5 13.4513C16.7107 13.4513 16.9173 13.3656 17.0662 13.2166C17.2152 13.0677 17.3009 12.8611 17.3009 12.6504C17.3009 12.4398 17.2152 12.2332 17.0662 12.0843C16.9173 11.9353 16.7107 11.8496 16.5 11.8496C16.2894 11.8496 16.0828 11.9353 15.9339 12.0843C15.7849 12.2332 15.6992 12.4398 15.6992 12.6504C15.6992 12.8611 15.7849 13.0677 15.9339 13.2166C16.0828 13.3656 16.2894 13.4513 16.5 13.4513Z" fill="url(#paint2_linear_158_2581)"/>
<defs>
<linearGradient id="paint0_linear_158_2581" x1="0.953613" y1="20.5" x2="32.0462" y2="20.5" gradientUnits="userSpaceOnUse">
<stop stop-color="#9942FF"/>
<stop offset="1" stop-color="#FC067D"/>
</linearGradient>
<linearGradient id="paint1_linear_158_2581" x1="12.7041" y1="26.9725" x2="20.2983" y2="26.9725" gradientUnits="userSpaceOnUse">
<stop stop-color="#9942FF"/>
<stop offset="1" stop-color="#FC067D"/>
</linearGradient>
<linearGradient id="paint2_linear_158_2581" x1="15.6992" y1="12.6504" x2="17.3009" y2="12.6504" gradientUnits="userSpaceOnUse">
<stop stop-color="#9942FF"/>
<stop offset="1" stop-color="#FC067D"/>
</linearGradient>
</defs>
</svg>
