<svg width="68" height="68" viewBox="0 0 68 68" fill="none" xmlns="http://www.w3.org/2000/svg">
<g clip-path="url(#clip0_613_917)">
<circle cx="43" cy="42" r="14" fill="#DDDFE8"/>
<path d="M9.61484 14.3438H38.3555C39.3914 14.3438 40.2281 13.507 40.2281 12.4711C40.2281 11.4352 39.3914 10.5984 38.3555 10.5984H9.61484C8.57891 10.5984 7.74219 11.4352 7.74219 12.4711C7.74219 13.507 8.57891 14.3438 9.61484 14.3438Z" fill="url(#paint0_linear_613_917)"/>
<path d="M9.61484 25.075H32.2328C33.2687 25.075 34.1055 24.2383 34.1055 23.2024C34.1055 22.1664 33.2687 21.3297 32.2328 21.3297H9.61484C8.57891 21.3297 7.74219 22.1664 7.74219 23.2024C7.74219 24.2383 8.57891 25.075 9.61484 25.075Z" fill="url(#paint1_linear_613_917)"/>
<path d="M22.3914 32.0609H9.61484C8.57891 32.0609 7.74219 32.8976 7.74219 33.9336C7.74219 34.9695 8.57891 35.8062 9.61484 35.8062H22.3914C23.4273 35.8062 24.2641 34.9695 24.2641 33.9336C24.2641 32.8976 23.4273 32.0609 22.3914 32.0609Z" fill="url(#paint2_linear_613_917)"/>
<path d="M65.9547 58.0125L56.9234 48.9812C57.8531 46.9492 58.3711 44.7047 58.3711 42.3273C58.3711 35.368 53.9086 29.4445 47.693 27.2398V5.87031C47.693 2.77578 45.1695 0.265625 42.075 0.265625H5.88359C2.78906 0.265625 0.265625 2.77578 0.265625 5.87031V43.3234C0.265625 44.8242 0.85 46.232 1.9125 47.2945L10.9172 56.3125C11.9797 57.375 13.3875 57.9594 14.8883 57.9594H38.7414C39.8969 58.225 41.1055 58.3844 42.3406 58.3844C44.718 58.3844 46.9492 57.8531 48.9812 56.9234L58.0258 65.968C60.2437 68.1859 63.418 68.5047 65.9547 65.968C68.3852 63.5242 68.2656 60.3234 65.9547 58.0125ZM11.4617 51.5711L6.65391 46.75H11.475V51.5711H11.4617ZM15.207 54.2141V44.8773C15.207 43.8414 14.3703 43.0047 13.3344 43.0047H4.01094V5.87031C4.01094 4.83437 4.84766 3.99766 5.88359 3.99766H42.1016C43.1375 3.99766 43.9742 4.83437 43.9742 5.87031V26.3766C43.443 26.3234 42.8984 26.2969 42.3539 26.2969C33.5086 26.2969 26.3102 33.4953 26.3102 42.3273C26.3102 47.0422 28.3687 51.2656 31.6094 54.2008H15.207V54.2141ZM42.3406 54.6258C35.5539 54.6258 30.0422 49.1141 30.0422 42.3273C30.0422 35.5406 35.5539 30.0289 42.3406 30.0289C49.1273 30.0289 54.6391 35.5406 54.6391 42.3273C54.6391 49.1141 49.1273 54.6258 42.3406 54.6258ZM63.3117 63.2984C62.6078 64.0023 61.3727 64.0023 60.6687 63.2984L52.275 54.9047C53.2578 54.1344 54.1477 53.2445 54.918 52.2617L63.3117 60.6555C64.082 61.4258 64.0555 62.568 63.3117 63.2984Z" fill="url(#paint3_linear_613_917)"/>
</g>
<defs>
<linearGradient id="paint0_linear_613_917" x1="7.74219" y1="12.4711" x2="40.2281" y2="12.4711" gradientUnits="userSpaceOnUse">
<stop stop-color="#FB9004"/>
<stop offset="1" stop-color="#FC067D"/>
</linearGradient>
<linearGradient id="paint1_linear_613_917" x1="7.74219" y1="23.2024" x2="34.1055" y2="23.2024" gradientUnits="userSpaceOnUse">
<stop stop-color="#FB9004"/>
<stop offset="1" stop-color="#FC067D"/>
</linearGradient>
<linearGradient id="paint2_linear_613_917" x1="7.74219" y1="33.9336" x2="24.2641" y2="33.9336" gradientUnits="userSpaceOnUse">
<stop stop-color="#FB9004"/>
<stop offset="1" stop-color="#FC067D"/>
</linearGradient>
<linearGradient id="paint3_linear_613_917" x1="0.265625" y1="34.0093" x2="67.733" y2="34.0093" gradientUnits="userSpaceOnUse">
<stop stop-color="#9942FF"/>
<stop offset="1" stop-color="#FC067D"/>
</linearGradient>
<clipPath id="clip0_613_917">
<rect width="68" height="68" fill="white"/>
</clipPath>
</defs>
</svg>
