<svg width="1149" height="995" viewBox="0 0 1149 995" fill="none" xmlns="http://www.w3.org/2000/svg">
<path opacity="0.16" d="M59.037 939.316C59.037 939.316 -33.2083 842.693 12.9143 696.763C59.037 550.834 246.466 494.984 271.984 445.41C297.501 395.836 303.11 281.059 385.236 221.218C481.574 151.021 620.55 175.36 685.128 264.382C749.705 353.404 807.945 465.618 890.794 474.873C973.64 484.126 1056.07 474.983 1122.8 603.651C1189.53 732.319 1106.12 909.88 1080.6 940.291" fill="#B5A7E9"/>
<path d="M964.569 36.4446H811.643C809.079 36.4446 807 38.5232 807 41.0871V152.095V156.055V174.501C807 178.532 811.784 180.649 814.767 177.936L837.49 157.263C838.345 156.485 839.458 156.055 840.615 156.055H964.571C967.135 156.055 969.213 153.977 969.213 151.413V41.0871C969.211 38.5232 967.133 36.4446 964.569 36.4446Z" fill="url(#paint0_linear_672_2028)"/>
<path d="M165.08 850.348H1044.21" stroke="#59B3EB" stroke-miterlimit="10"/>
<path d="M308.132 255.975L301.231 249.9C300.821 249.539 300.668 248.979 300.828 248.458C301.24 247.115 301.601 245.748 301.885 244.341C302.419 241.684 302.701 239.033 302.751 236.416C302.763 235.831 303.126 235.324 303.68 235.135L311.008 232.662C314 231.654 315.606 228.41 314.596 225.418L308.739 208.058C307.731 205.066 304.487 203.46 301.495 204.47L293.509 207.165C292.974 207.344 292.398 207.178 292.03 206.751C289.185 203.444 285.828 200.568 282.074 198.203C281.589 197.898 281.336 197.335 281.449 196.772L282.743 190.326C283.366 187.23 281.36 184.218 278.265 183.596L260.3 179.988C257.204 179.365 254.192 181.371 253.57 184.466L252.275 190.913C252.162 191.476 251.713 191.899 251.145 191.994C246.161 192.832 241.413 194.509 237.069 196.914C236.557 197.197 235.928 197.137 235.489 196.752L231.946 193.634C229.577 191.549 225.965 191.779 223.877 194.148L211.771 207.901C209.686 210.27 209.914 213.882 212.285 215.969L216.33 219.528C216.757 219.905 216.906 220.496 216.715 221.033C216.044 222.927 215.468 224.875 215.06 226.903C214.404 230.169 214.169 233.416 214.247 236.613C214.262 237.223 213.89 237.766 213.312 237.961L209.411 239.277C206.42 240.287 204.813 243.529 205.824 246.521L211.681 263.883C212.689 266.875 215.933 268.482 218.925 267.471L224.762 265.501C225.276 265.328 225.834 265.477 226.206 265.871C229.568 269.463 233.539 272.508 238.011 274.837C238.558 275.123 238.86 275.724 238.738 276.331L237.676 281.614C237.054 284.709 239.059 287.721 242.155 288.344L260.118 291.951C263.214 292.574 266.225 290.568 266.848 287.473L268.441 279.535C268.545 279.016 268.94 278.611 269.452 278.48C273.704 277.39 277.746 275.686 281.456 273.43C281.974 273.115 282.626 273.164 283.082 273.563L288.472 278.307C290.84 280.393 294.453 280.164 296.538 277.793L308.644 264.041C310.731 261.672 310.501 258.06 308.132 255.975ZM255.938 257.242C244.191 254.882 236.58 243.447 238.94 231.698C241.3 219.951 252.734 212.339 264.483 214.699C276.23 217.059 283.842 228.494 281.482 240.243C279.122 251.99 267.686 259.602 255.938 257.242Z" fill="url(#paint1_linear_672_2028)"/>
<path d="M160.023 467.279C160.351 467.279 181.94 467.279 181.94 467.279H231.997H250.99C262.874 467.279 272.51 457.644 272.51 445.76C272.51 433.875 262.874 424.24 250.99 424.24C250.813 424.24 250.64 424.262 250.463 424.267C247.185 403.195 228.963 387.069 206.974 387.069C189.671 387.069 174.709 397.056 167.516 411.578C165.124 410.924 162.62 410.545 160.023 410.545C144.356 410.545 131.656 423.245 131.656 438.912C131.656 454.579 144.356 467.279 160.023 467.279Z" stroke="#D3F2FE" stroke-miterlimit="10"/>
<path d="M919.201 702.962C919.531 702.962 941.119 702.962 941.119 702.962H991.176H1010.17C1022.05 702.962 1031.69 693.327 1031.69 681.442C1031.69 669.558 1022.05 659.923 1010.17 659.923C1009.99 659.923 1009.82 659.945 1009.64 659.949C1006.36 638.877 988.143 622.751 966.153 622.751C948.851 622.751 933.886 632.739 926.695 647.26C924.304 646.607 921.8 646.228 919.203 646.228C903.536 646.228 890.836 658.928 890.836 674.595C890.834 690.262 903.534 702.962 919.201 702.962Z" stroke="#D3F2FE" stroke-miterlimit="10"/>
<path d="M375.041 56.5878C375.274 56.5878 390.505 56.5878 390.505 56.5878H425.821H439.221C447.607 56.5878 454.403 49.7913 454.403 41.406C454.403 33.0206 447.607 26.2241 439.221 26.2241C439.095 26.2241 438.973 26.2397 438.849 26.2419C436.535 11.3769 423.683 0 408.168 0C395.96 0 385.406 7.04688 380.331 17.2915C378.645 16.8305 376.879 16.5624 375.046 16.5624C363.992 16.5624 355.033 25.5217 355.033 36.5751C355.033 47.6285 363.988 56.5878 375.041 56.5878Z" fill="#DCD3FE"/>
<path d="M979.096 442.697H973.993V432.441C973.993 429.004 973.326 425.727 972.124 422.74L972.133 422.735C971.832 421.982 971.486 421.259 971.123 420.552C971.101 420.508 971.076 420.466 971.054 420.424C968.448 415.422 964.348 411.582 959.476 409.401C959.407 409.37 959.338 409.339 959.267 409.308C957.909 408.717 956.495 408.249 955.037 407.926C954.873 407.888 954.704 407.861 954.54 407.828C953.989 407.719 953.43 407.629 952.867 407.56C952.664 407.536 952.46 407.509 952.254 407.489C951.527 407.42 950.795 407.372 950.058 407.372H944.373C943.633 407.372 942.902 407.418 942.177 407.489C941.971 407.509 941.767 407.536 941.564 407.56C941.001 407.629 940.442 407.719 939.89 407.828C939.724 407.861 939.558 407.888 939.394 407.926C937.934 408.249 936.522 408.714 935.164 409.308C935.095 409.339 935.024 409.37 934.955 409.401C930.082 411.582 925.983 415.422 923.377 420.424C923.355 420.466 923.33 420.51 923.308 420.552C922.945 421.261 922.599 421.984 922.298 422.735L922.307 422.74C921.105 425.724 920.438 429.002 920.438 432.441V442.697H915.333C910.438 442.697 906.469 446.666 906.469 451.561V507.003C906.469 511.898 910.438 515.867 915.333 515.867H979.1C983.996 515.867 987.964 511.898 987.964 507.003V451.561C987.96 446.666 983.993 442.697 979.096 442.697ZM926.871 432.439C926.871 429.755 927.417 427.211 928.381 424.905C928.646 424.264 928.952 423.653 929.278 423.056C929.409 422.822 929.54 422.587 929.677 422.358C930.032 421.773 930.408 421.208 930.816 420.674C930.991 420.446 931.184 420.233 931.368 420.014C931.687 419.635 932.019 419.269 932.365 418.919C932.584 418.698 932.806 418.48 933.036 418.27C933.537 417.816 934.054 417.381 934.599 416.991C934.776 416.863 934.967 416.756 935.148 416.637C935.607 416.333 936.077 416.049 936.562 415.79C936.775 415.677 936.99 415.564 937.207 415.46C937.863 415.145 938.534 414.859 939.226 414.633C939.314 414.605 939.407 414.587 939.496 414.56C940.141 414.361 940.801 414.208 941.468 414.088C941.663 414.053 941.858 414.02 942.058 413.993C942.82 413.884 943.589 413.811 944.371 413.811H950.055C950.838 413.811 951.609 413.887 952.369 413.993C952.566 414.022 952.761 414.055 952.958 414.088C953.627 414.208 954.286 414.361 954.93 414.56C955.019 414.587 955.112 414.605 955.201 414.633C955.894 414.859 956.564 415.145 957.22 415.46C957.437 415.564 957.652 415.677 957.864 415.79C958.35 416.047 958.82 416.331 959.278 416.637C959.46 416.756 959.651 416.865 959.828 416.991C960.373 417.381 960.889 417.816 961.39 418.27C961.621 418.478 961.84 418.698 962.059 418.919C962.405 419.267 962.737 419.635 963.057 420.014C963.24 420.233 963.433 420.446 963.608 420.674C964.016 421.208 964.395 421.773 964.747 422.358C964.887 422.587 965.018 422.822 965.146 423.056C965.472 423.653 965.778 424.264 966.044 424.905C967.005 427.211 967.553 429.758 967.553 432.439V442.695H926.869V432.439H926.871ZM950.891 483.797V490.64C950.891 492.351 949.503 493.74 947.791 493.74C946.08 493.74 944.693 492.353 944.693 490.64V483.795C942.454 482.658 940.905 480.358 940.905 477.676C940.905 473.872 943.99 470.789 947.793 470.789C951.598 470.789 954.68 473.874 954.68 477.676C954.68 480.36 953.129 482.66 950.891 483.797Z" fill="#84B4FE"/>
<path d="M395.131 849.335C395.131 855.678 485.1 860.819 596.084 860.819C707.068 860.819 797.038 855.678 797.038 849.335C797.038 842.993 707.068 837.852 596.084 837.852C485.1 837.85 395.131 842.991 395.131 849.335Z" fill="#E2E2E2"/>
<path d="M763.986 851.037H424.307C415.622 851.037 408.582 843.997 408.582 835.312V142.77C408.582 134.086 415.622 127.046 424.307 127.046H763.986C772.671 127.046 779.711 134.086 779.711 142.77V835.31C779.711 843.997 772.671 851.037 763.986 851.037Z" fill="#6880E4"/>
<path d="M745.569 139.293H642.274C634.507 139.293 627.108 143.515 623.642 150.655C618.583 161.072 608.115 168.23 596.009 168.23C583.903 168.23 573.434 161.075 568.375 150.655C564.907 143.515 557.508 139.293 549.743 139.293H442.726C430.181 139.293 420.012 149.74 420.012 162.626V776.028C420.012 788.914 430.181 799.36 442.726 799.36H745.573C758.118 799.36 768.287 788.914 768.287 776.028V162.626C768.285 149.74 758.116 139.293 745.569 139.293Z" fill="white"/>
<path d="M639.753 833.254H550.355C544.602 833.254 539.938 828.589 539.938 822.836C539.938 817.084 544.602 812.419 550.355 812.419H639.753C645.506 812.419 650.17 817.084 650.17 822.836C650.17 828.589 645.506 833.254 639.753 833.254Z" fill="white"/>
<g opacity="0.12">
<path d="M431.979 145.933H538.996C546.763 145.933 554.162 150.154 557.628 157.294C562.687 167.711 573.156 174.869 585.262 174.869C593.35 174.869 600.665 171.625 606.167 166.395C602.976 167.541 599.577 168.228 596.007 168.228C583.901 168.228 573.433 161.072 568.374 150.653C564.906 143.513 557.506 139.291 549.741 139.291H442.724C436.158 139.291 430.261 142.17 426.115 146.744C427.988 146.232 429.947 145.933 431.979 145.933Z" fill="#5799E6"/>
<path d="M745.57 139.293H642.276C636.135 139.293 630.256 141.966 626.336 146.6C628.022 146.179 629.764 145.933 631.53 145.933H734.827C747.372 145.933 757.541 156.379 757.541 169.265V782.665C757.541 788.807 755.212 794.379 751.436 798.545C761.133 795.885 768.286 786.824 768.286 776.026V162.626C768.286 149.737 758.117 139.293 745.57 139.293Z" fill="#5799E6"/>
</g>
<path d="M603.933 145.933C603.933 150.309 600.385 153.857 596.008 153.857C591.632 153.857 588.084 150.309 588.084 145.933C588.084 141.556 591.632 138.008 596.008 138.008C600.385 138.008 603.933 141.556 603.933 145.933Z" fill="white"/>
<path d="M513.97 268.273H709.723V249.485L513.97 249.485V268.273Z" fill="#D4CCF3"/>
<path d="M513.97 304.503H709.723V285.716H513.97V304.503Z" fill="#D4CCF3"/>
<path d="M513.97 340.737H709.723V321.949H513.97V340.737Z" fill="#D4CCF3"/>
<path d="M456.154 219.557C456.154 218.808 456.356 218.181 456.757 217.671C457.158 217.164 457.732 216.67 458.481 216.187L484.958 198.295C485.171 198.188 485.346 198.122 485.479 198.093C485.612 198.066 485.731 198.053 485.84 198.053C486.321 198.053 486.722 198.213 487.043 198.534C487.364 198.855 487.524 199.256 487.524 199.737V203.347C487.524 204.149 487.243 204.845 486.682 205.432C486.121 206.022 485.545 206.503 484.956 206.877L463.773 221.239L484.956 235.601C485.543 235.975 486.119 236.456 486.682 237.046C487.243 237.635 487.524 238.329 487.524 239.131V242.741C487.524 243.222 487.364 243.623 487.043 243.944C486.722 244.265 486.321 244.425 485.84 244.425C485.731 244.425 485.612 244.412 485.479 244.385C485.343 244.359 485.171 244.292 484.958 244.186L458.481 226.294C457.732 225.813 457.158 225.319 456.757 224.809C456.356 224.302 456.154 223.672 456.154 222.923V219.557Z" fill="#D4CCF3"/>
<path d="M360.359 586.715H554.658V425.244H360.359V586.715Z" fill="white" stroke="#D4CCF3" stroke-miterlimit="10"/>
<path d="M380.257 474.141H532.68V459.513H380.257V474.141Z" fill="#D4CCF3"/>
<path d="M380.257 502.354H532.68V487.726H380.257V502.354Z" fill="#D4CCF3"/>
<path d="M406.82 530.566H532.678V515.939H406.82V530.566Z" fill="#D4CCF3"/>
<path d="M406.82 558.777H532.678V544.149H406.82V558.777Z" fill="#D4CCF3"/>
<path d="M293.094 932.741C293.094 939.354 330.892 944.717 377.521 944.717C424.15 944.717 461.949 939.356 461.949 932.741C461.949 926.129 424.15 920.766 377.521 920.766C330.892 920.766 293.094 926.127 293.094 932.741Z" fill="#E2E2E2"/>
<path d="M318.358 888.978L314.135 914.096L333.288 922.437L343.667 889.567C335.696 890.145 323.677 889.813 318.358 888.978Z" fill="#FFB7D6"/>
<path d="M429.79 893.263L444.905 763.459L444.852 574.037L356.582 563.817L405.684 762.076L404.634 892.142C410.712 893.354 419.268 894.245 429.79 893.263Z" fill="#3A376B"/>
<path d="M404.631 892.14L405.699 918.359L424.234 922.191L429.789 893.263" fill="#FFB7D6"/>
<path d="M400.815 578.325L349.397 582.015L346.991 612.456L337.925 769.77L318.355 888.98C323.676 889.813 335.693 890.147 343.667 889.569L380.49 765.258L400.815 578.325Z" fill="#3A376B"/>
<path d="M314.908 909.99C314.908 909.99 320.807 919.102 336.376 911.131C336.376 911.131 336.006 913.54 344.903 922.437C344.903 922.437 366.157 927.875 371.595 936.77C371.595 936.77 338.479 940.972 307.586 935.039C307.586 935.039 309.627 919.288 314.908 909.99Z" fill="#2A3141"/>
<path d="M405.7 912.551C405.7 912.551 419.787 919.224 426.213 912.303C426.213 912.303 429.426 915.022 436.099 920.952C436.099 920.952 456.116 927.379 461.554 936.274C461.554 936.274 432.145 942.946 400.51 939.487C400.51 939.487 400.419 921.852 405.7 912.551Z" fill="#2A3141"/>
<path d="M333.93 504.479C328.754 517.913 324.67 529.232 322.966 534.617C322.325 536.64 322.662 538.843 323.907 540.56C333.252 553.438 375.356 578.855 390.159 588.051L400.005 572.819C400.005 572.819 354.635 537.414 353.314 531.712C353.314 531.712 355.607 520.231 360.356 510.952" fill="#FFB7D6"/>
<path d="M366.325 517.084C372.191 505.63 376.621 487.308 382.385 468.52C385.31 458.989 383.442 448.271 378.753 441.443C373.587 433.922 367.781 438.077 367.781 438.077C357.269 449.54 341.462 484.936 333.93 504.482" fill="#B5A7E9"/>
<path d="M450.184 516.39C453.204 529.808 459.116 545.112 460.603 550.286C461.162 552.23 462.531 553.779 464.328 554.446C477.795 559.452 521.865 556.349 537.487 555.465L537 538.069C537 538.069 485.934 533.527 482.054 529.762C482.054 529.762 480.25 516.384 479.031 506.474" fill="#FFB7D6"/>
<path d="M480.584 506.875C479.081 494.638 476.26 482.57 470.946 464.613C468.249 455.506 454.448 440.889 445.458 439.22C437.347 437.716 441.671 448.268 441.671 448.268C444.164 465.934 445.79 496.867 450.187 516.39" fill="#B5A7E9"/>
<path d="M449.527 382.586L455.284 392.354C455.721 393.289 455.329 394.404 454.403 394.86L449.986 397.041L449.527 382.586Z" fill="#FFB7D6"/>
<path d="M435.443 437.12C435.312 437.069 435.181 437.015 435.053 436.964C431.352 435.466 429.914 407.363 433.138 400.033L403.087 360.315C403.087 360.315 405.268 388.217 401.899 415.097C400.802 423.855 393.432 431.382 390.318 432.931" fill="#FFB7D6"/>
<path d="M450.113 413.894C450.098 415.631 448.968 417.231 447.279 417.645C428.321 422.286 397.009 393.342 396.982 373.394C396.967 363.387 407.353 358.675 417.418 356.216C432.997 352.406 444.779 350.217 450.096 378.553C450.149 378.836 450.113 413.894 450.113 413.894Z" fill="#FFB7D6"/>
<path d="M445.82 363.936L447.44 362.358C449.383 360.466 449.226 357.332 447.165 355.569C421.406 333.515 390.786 360.878 392.6 372.306C397.768 404.839 402.734 409.623 402.734 409.623C402.734 409.623 416.199 420.333 415.676 392.441C427.89 399.618 429.012 371.371 429.012 371.371C428.852 366.999 439.817 366.263 445.82 363.936Z" fill="#181670"/>
<path d="M413.48 395.157C415.495 398.798 419.399 400.596 422.198 399.175C424.999 397.755 425.637 393.653 423.623 390.012C421.609 386.371 417.706 384.574 414.905 385.994C412.104 387.417 411.466 391.519 413.48 395.157Z" fill="#FFB7D6"/>
<path d="M460.047 472.285C458.374 456.104 452.883 441.691 449.439 440.736C449.439 440.736 436.77 433.937 432.899 432.736C432.899 432.736 403.413 434.682 396.94 426.913C396.94 426.913 368.52 435.61 367.782 438.075C356.666 475.148 359.421 484.697 359.421 484.697L355.334 535.237L347.461 592.011C359.217 597.467 419.53 604.698 446.532 599.386C446.532 599.386 443.755 546.528 444.149 537.786C444.149 537.786 461.512 486.437 460.047 472.285Z" fill="#B5A7E9"/>
<path d="M531.357 539.251C531.357 539.251 534.369 529.64 538.411 527.716C542.453 525.793 549.748 521.15 551.643 522.821C553.537 524.492 548.008 530.513 541.356 531.84L531.357 539.251Z" fill="#FFB7D6"/>
<path d="M536.723 532.361C536.723 532.361 553.657 528.534 556.463 528.534C560.6 528.534 560.693 532.629 559.404 534.265C558.448 535.477 562.384 536.651 560.17 540.706C558.788 543.239 560.913 543.095 560.365 545.52C559.935 547.423 556.769 548.247 557.165 550.18C557.894 553.737 554.24 553.976 551.984 555.261C549.728 556.546 540.113 558.18 531.314 553.923C519.832 548.369 536.723 532.361 536.723 532.361Z" fill="#FFB7D6"/>
<path d="M423.494 387.878C423.494 387.878 434.43 396.959 440.176 396.959C445.922 396.959 449.986 397.039 449.986 397.039C449.986 397.039 454.077 417.719 452.778 418.645C451.48 419.571 432.019 423.649 422.935 413.269C413.854 402.891 423.308 391.215 423.494 387.878Z" fill="#181670"/>
<path d="M356.766 512.807L357.878 472.398" stroke="#2A3141" stroke-miterlimit="10"/>
<path d="M452.778 484.633L450.678 515.402" stroke="#2A3141" stroke-miterlimit="10"/>
<path d="M388.399 691.612L375.549 651.573" stroke="#292B57" stroke-miterlimit="10"/>
<path d="M427.977 900.166L405.986 899.051C403.858 898.945 402.223 897.132 402.329 895.005L402.606 889.543C402.715 887.415 404.525 885.78 406.653 885.886L428.644 887.001C430.771 887.109 432.407 888.92 432.301 891.047L432.024 896.51C431.915 898.637 430.104 900.275 427.977 900.166Z" fill="#3A376B"/>
<path d="M341.215 897.664L319.349 895.054C317.235 894.801 315.726 892.882 315.979 890.768L316.628 885.337C316.881 883.223 318.8 881.713 320.914 881.966L342.777 884.577C344.891 884.829 346.4 886.748 346.147 888.862L345.498 894.294C345.248 896.408 343.329 897.917 341.215 897.664Z" fill="#3A376B"/>
<path d="M753.977 877.297V892.973L868.688 899.339L968.869 896.102V880.741L753.977 877.297Z" fill="#90D2FC"/>
<path d="M753.977 892.973L868.688 899.339V883.978L817.223 878.31L753.977 877.297V892.973Z" fill="#84B4FE"/>
<path d="M968.869 880.741L868.688 883.978L753.977 877.612L854.16 874.374L968.869 880.741Z" fill="#A4D0FC"/>
<path d="M794.75 860.734V876.41L909.459 882.775L1009.64 879.537V864.176L794.75 860.734Z" fill="#84B063"/>
<path d="M794.75 876.41L909.459 882.775V867.413L857.995 861.747L794.75 860.734V876.41Z" fill="#9942FF"/>
<path d="M1009.64 864.176L909.459 867.414L794.75 861.049L894.931 857.809L1009.64 864.176Z" fill="#A8D18A"/>
<path d="M753.977 841.302V856.978L868.688 863.345L968.869 860.107V844.746L753.977 841.302Z" fill="#90D2FC"/>
<path d="M753.977 856.978L868.688 863.345V847.984L817.223 842.317L753.977 841.302V856.978Z" fill="#84B4FE"/>
<path d="M968.869 844.746L868.688 847.984L753.977 841.617L854.16 838.379L968.869 844.746Z" fill="#A4D0FC"/>
<path d="M1110.3 893.365L1065.92 790.919H955.072L948.701 799.837L993.083 902.285H1103.93L1110.3 893.365Z" fill="#CEB4F7"/>
<path d="M1110.3 893.365H999.454L955.072 790.919H1065.92L1110.3 893.365Z" fill="#D4CCF3"/>
<path d="M988.243 829.413C988.098 829.413 987.957 829.373 987.822 829.291C987.686 829.21 987.584 829.105 987.516 828.977L981.478 817.622C981.41 817.494 981.4 817.389 981.449 817.308C981.498 817.226 981.595 817.185 981.74 817.185H990.822C990.967 817.185 991.107 817.226 991.243 817.308C991.392 817.389 991.5 817.494 991.568 817.622L992.507 819.386C992.575 819.514 992.578 819.619 992.516 819.701C992.467 819.782 992.37 819.823 992.224 819.823H986.131L987.496 822.391H993.194C993.339 822.391 993.483 822.438 993.625 822.531C993.774 822.612 993.882 822.717 993.95 822.845L994.879 824.592C994.941 824.708 994.944 824.813 994.888 824.906C994.839 824.988 994.742 825.029 994.597 825.029H988.899L990.998 828.977C991.066 829.105 991.076 829.21 991.027 829.291C990.978 829.373 990.881 829.413 990.736 829.413H988.243ZM1000.24 829.413C1000.09 829.413 999.951 829.373 999.815 829.291C999.68 829.21 999.578 829.105 999.51 828.977L993.379 817.447C993.31 817.319 993.301 817.214 993.35 817.133C993.399 817.051 993.496 817.011 993.641 817.011H995.976C996.121 817.011 996.261 817.051 996.397 817.133C996.532 817.214 996.634 817.319 996.702 817.447L1002.83 828.977C1002.9 829.105 1002.91 829.21 1002.86 829.291C1002.81 829.373 1002.72 829.413 1002.57 829.413H1000.24ZM1009.27 829.588C1008.52 829.588 1007.77 829.437 1007.02 829.134C1006.27 828.831 1005.58 828.389 1004.94 827.806C1004.3 827.212 1003.75 826.49 1003.3 825.64L1000.71 820.766C1000.64 820.638 1000.63 820.533 1000.68 820.452C1000.73 820.37 1000.82 820.33 1000.97 820.33H1003.44C1003.59 820.33 1003.73 820.37 1003.86 820.452C1004 820.533 1004.1 820.638 1004.17 820.766L1006.7 825.535C1007.31 826.677 1008.19 827.247 1009.36 827.247C1009.9 827.247 1010.25 827.102 1010.41 826.811C1010.58 826.508 1010.52 826.083 1010.23 825.535L1007.69 820.766C1007.62 820.638 1007.61 820.533 1007.66 820.452C1007.71 820.37 1007.81 820.33 1007.95 820.33H1010.43C1010.57 820.33 1010.71 820.37 1010.85 820.452C1010.98 820.533 1011.08 820.638 1011.15 820.766L1015.52 828.977C1015.59 829.105 1015.6 829.21 1015.55 829.291C1015.5 829.373 1015.4 829.413 1015.26 829.413H1012.96C1012.83 829.413 1012.69 829.373 1012.54 829.291C1012.4 829.21 1012.3 829.105 1012.23 828.977L1011.88 828.313C1011.76 828.732 1011.48 829.052 1011.05 829.274C1010.62 829.483 1010.03 829.588 1009.27 829.588ZM1023.34 829.413C1022.5 829.413 1021.7 829.297 1020.96 829.064C1020.22 828.819 1019.56 828.447 1018.96 827.946C1018.36 827.434 1017.84 826.776 1017.42 825.972L1015.63 822.618H1014.09C1013.94 822.618 1013.8 822.577 1013.65 822.496C1013.51 822.414 1013.41 822.309 1013.34 822.181L1012.59 820.766C1012.52 820.638 1012.51 820.533 1012.56 820.452C1012.62 820.37 1012.73 820.33 1012.87 820.33H1014.41L1012.88 817.447C1012.81 817.319 1012.8 817.214 1012.85 817.133C1012.92 817.051 1013.01 817.011 1013.14 817.011H1015.44C1015.58 817.011 1015.72 817.051 1015.86 817.133C1016 817.214 1016.1 817.319 1016.17 817.447L1017.7 820.33H1020.17C1020.32 820.33 1020.46 820.37 1020.59 820.452C1020.73 820.533 1020.83 820.638 1020.9 820.766L1021.65 822.181C1021.72 822.309 1021.73 822.414 1021.68 822.496C1021.63 822.577 1021.53 822.618 1021.39 822.618H1018.92L1020.57 825.728C1020.78 826.123 1021.03 826.438 1021.33 826.671C1021.62 826.904 1021.98 827.02 1022.38 827.02H1023.91C1024.05 827.02 1024.19 827.061 1024.33 827.142C1024.46 827.224 1024.57 827.329 1024.63 827.457L1025.44 828.977C1025.51 829.105 1025.52 829.21 1025.47 829.291C1025.42 829.373 1025.33 829.413 1025.18 829.413H1023.34ZM1032.58 829.413C1031.73 829.413 1030.94 829.297 1030.19 829.064C1029.46 828.819 1028.79 828.447 1028.2 827.946C1027.59 827.434 1027.08 826.776 1026.65 825.972L1024.87 822.618H1023.32C1023.18 822.618 1023.03 822.577 1022.88 822.496C1022.75 822.414 1022.65 822.309 1022.58 822.181L1021.82 820.766C1021.76 820.638 1021.75 820.533 1021.8 820.452C1021.86 820.37 1021.96 820.33 1022.11 820.33H1023.65L1022.12 817.447C1022.05 817.319 1022.04 817.214 1022.09 817.133C1022.15 817.051 1022.25 817.011 1022.38 817.011H1024.67C1024.82 817.011 1024.96 817.051 1025.1 817.133C1025.23 817.214 1025.33 817.319 1025.4 817.447L1026.93 820.33H1029.41C1029.55 820.33 1029.69 820.37 1029.83 820.452C1029.96 820.533 1030.07 820.638 1030.13 820.766L1030.89 822.181C1030.96 822.309 1030.96 822.414 1030.92 822.496C1030.87 822.577 1030.77 822.618 1030.62 822.618H1028.15L1029.8 825.728C1030.02 826.123 1030.27 826.438 1030.56 826.671C1030.86 826.904 1031.21 827.02 1031.62 827.02H1033.14C1033.29 827.02 1033.43 827.061 1033.56 827.142C1033.7 827.224 1033.8 827.329 1033.87 827.457L1034.68 828.977C1034.75 829.105 1034.76 829.21 1034.71 829.291C1034.66 829.373 1034.56 829.413 1034.42 829.413H1032.58ZM1041.39 829.588C1039.83 829.588 1038.4 829.215 1037.08 828.47C1035.76 827.725 1034.69 826.618 1033.87 825.151C1033.82 825.07 1033.77 824.965 1033.7 824.837C1033.63 824.708 1033.58 824.61 1033.54 824.54C1033.09 823.62 1032.9 822.834 1032.98 822.181C1033.06 821.518 1033.39 821.017 1033.96 820.679C1034.54 820.33 1035.34 820.155 1036.35 820.155C1037.51 820.155 1038.58 820.359 1039.55 820.766C1040.53 821.174 1041.4 821.727 1042.15 822.426C1042.91 823.125 1043.52 823.922 1044 824.819L1044.22 825.238C1044.29 825.366 1044.29 825.471 1044.23 825.553C1044.18 825.634 1044.09 825.675 1043.96 825.675H1037.63C1037.63 825.687 1037.64 825.704 1037.66 825.728C1037.67 825.751 1037.68 825.774 1037.69 825.797C1037.89 826.135 1038.12 826.444 1038.38 826.723C1038.65 827.003 1038.95 827.224 1039.29 827.387C1039.63 827.55 1039.97 827.632 1040.33 827.632C1040.59 827.632 1040.79 827.597 1040.93 827.527C1041.07 827.445 1041.17 827.358 1041.24 827.265C1041.31 827.16 1041.35 827.073 1041.38 827.003C1041.44 826.886 1041.49 826.816 1041.55 826.793C1041.61 826.758 1041.72 826.741 1041.87 826.741H1044.33C1044.46 826.741 1044.58 826.776 1044.7 826.846C1044.82 826.904 1044.91 826.991 1044.96 827.108C1045.05 827.306 1045.07 827.544 1045 827.824C1044.94 828.103 1044.78 828.383 1044.52 828.662C1044.27 828.93 1043.88 829.151 1043.37 829.326C1042.85 829.501 1042.19 829.588 1041.39 829.588ZM1036.71 823.946H1040.05L1040.03 823.911C1039.84 823.538 1039.6 823.212 1039.32 822.933C1039.05 822.653 1038.74 822.438 1038.4 822.286C1038.07 822.135 1037.72 822.059 1037.37 822.059C1037.01 822.059 1036.75 822.135 1036.58 822.286C1036.42 822.438 1036.35 822.653 1036.37 822.933C1036.38 823.212 1036.49 823.538 1036.69 823.911L1036.71 823.946ZM1048.79 829.413C1048.65 829.413 1048.51 829.373 1048.37 829.291C1048.23 829.21 1048.13 829.105 1048.06 828.977L1043.7 820.766C1043.64 820.65 1043.63 820.551 1043.68 820.469C1043.72 820.376 1043.82 820.33 1043.96 820.33H1046.24C1046.38 820.33 1046.52 820.376 1046.67 820.469C1046.8 820.551 1046.9 820.65 1046.96 820.766L1047.33 821.465C1047.5 821.104 1047.77 820.825 1048.15 820.627C1048.55 820.429 1049.06 820.33 1049.68 820.33H1050.55C1050.68 820.33 1050.81 820.37 1050.95 820.452C1051.1 820.533 1051.21 820.638 1051.28 820.766L1052.23 822.566C1052.29 822.682 1052.3 822.787 1052.24 822.88C1052.19 822.962 1052.1 823.002 1051.97 823.002H1050.05C1049.51 823.002 1049.16 823.136 1049 823.404C1048.84 823.66 1048.89 824.027 1049.15 824.505L1051.53 828.977C1051.59 829.105 1051.6 829.21 1051.54 829.291C1051.49 829.373 1051.39 829.413 1051.24 829.413H1048.79Z" fill="white"/>
<path d="M999.454 893.365L993.083 902.285L948.701 799.837L955.072 790.919L999.454 893.365Z" fill="#9C79D3"/>
<path d="M944.376 926.452L936.801 941.612L832.33 899.643L847.86 864.562L944.376 926.452Z" fill="#E2E2E2"/>
<path d="M1033.57 874.85L943.613 808.714L847.86 864.561L846.85 875.475L936.801 941.612L1032.55 885.764L1033.57 874.85Z" fill="#9C79D3"/>
<path d="M1033.56 874.85L937.811 930.698L847.859 864.561L943.613 808.714L1033.56 874.85Z" fill="url(#paint2_linear_672_2028)"/>
<path d="M908.134 878.048C908.008 878.121 907.866 878.157 907.708 878.155C907.55 878.153 907.409 878.114 907.286 878.037L896.349 871.27C896.226 871.194 896.165 871.108 896.166 871.013C896.167 870.918 896.23 870.834 896.356 870.761L901.005 868.049C902.475 867.192 903.968 866.726 905.484 866.651C907 866.562 908.37 866.895 909.592 867.652C910.389 868.145 910.862 868.678 911.013 869.25C911.175 869.816 911.078 870.372 910.72 870.918L917.218 872.103C917.319 872.125 917.398 872.153 917.454 872.188C917.544 872.243 917.588 872.319 917.587 872.414C917.586 872.495 917.534 872.566 917.431 872.626L915.175 873.942C914.959 874.068 914.749 874.13 914.545 874.127C914.331 874.117 914.156 874.098 914.02 874.069L908.37 872.915L906.61 873.942L910.345 876.253C910.468 876.329 910.529 876.415 910.528 876.51C910.527 876.605 910.464 876.689 910.338 876.762L908.134 878.048ZM904.237 872.474L906.22 871.317C906.756 871.005 907.025 870.693 907.029 870.38C907.045 870.061 906.828 869.763 906.38 869.485C905.942 869.214 905.458 869.072 904.927 869.059C904.407 869.038 903.868 869.191 903.309 869.516L901.327 870.673L904.237 872.474ZM923.489 869.295C922.144 870.079 920.714 870.482 919.199 870.503C917.683 870.524 916.202 870.107 914.754 869.253C914.676 869.204 914.575 869.141 914.452 869.065C914.328 868.989 914.233 868.93 914.166 868.888C913.314 868.32 912.756 867.735 912.492 867.134C912.229 866.519 912.259 865.921 912.584 865.341C912.908 864.748 913.509 864.195 914.386 863.683C915.389 863.099 916.411 862.738 917.453 862.602C918.507 862.46 919.535 862.501 920.539 862.724C921.542 862.948 922.476 863.327 923.34 863.861L923.743 864.111C923.867 864.188 923.922 864.277 923.909 864.378C923.908 864.474 923.851 864.554 923.737 864.621L918.267 867.811C918.279 867.817 918.295 867.828 918.318 867.842C918.34 867.856 918.363 867.869 918.385 867.883C918.722 868.078 919.076 868.229 919.448 868.335C919.82 868.442 920.192 868.481 920.566 868.452C920.939 868.423 921.28 868.319 921.587 868.139C921.815 868.006 921.97 867.876 922.051 867.748C922.132 867.606 922.178 867.478 922.191 867.362C922.193 867.24 922.189 867.142 922.178 867.067C922.169 866.937 922.181 866.849 922.216 866.802C922.25 866.742 922.336 866.671 922.473 866.592L924.592 865.356C924.706 865.289 924.831 865.257 924.967 865.259C925.102 865.247 925.221 865.279 925.321 865.355C925.501 865.48 925.634 865.678 925.721 865.951C925.808 866.224 925.809 866.547 925.725 866.919C925.641 867.278 925.421 867.663 925.065 868.073C924.71 868.482 924.184 868.89 923.489 869.295ZM916.602 866.78L919.49 865.095L919.456 865.074C919.098 864.852 918.726 864.691 918.343 864.591C917.972 864.484 917.599 864.452 917.225 864.495C916.863 864.531 916.528 864.639 916.22 864.818C915.913 864.998 915.723 865.195 915.653 865.412C915.593 865.622 915.641 865.843 915.797 866.076C915.952 866.309 916.209 866.537 916.568 866.759L916.602 866.78ZM932.202 864.214C931.586 864.573 930.921 864.826 930.207 864.973C929.493 865.106 928.797 865.135 928.12 865.058C927.442 864.981 926.857 864.79 926.363 864.484C925.567 863.992 925.269 863.41 925.47 862.74C925.66 862.063 926.218 861.354 927.143 860.612L928.96 859.168L928.724 859.022C928.321 858.772 927.927 858.631 927.543 858.599C927.159 858.567 926.739 858.684 926.283 858.95C925.964 859.136 925.764 859.327 925.682 859.523C925.611 859.712 925.626 859.906 925.725 860.104C925.768 860.254 925.699 860.382 925.517 860.489L923.602 861.605C923.477 861.678 923.346 861.714 923.211 861.712C923.064 861.703 922.946 861.664 922.856 861.595C922.654 861.47 922.498 861.285 922.388 861.039C922.279 860.779 922.254 860.477 922.315 860.131C922.377 859.785 922.574 859.414 922.907 859.018C923.24 858.621 923.76 858.217 924.466 857.805C925.207 857.373 925.923 857.056 926.616 856.855C927.308 856.653 927.965 856.553 928.587 856.554C929.22 856.549 929.824 856.628 930.399 856.792C930.962 856.949 931.491 857.18 931.984 857.485L937.099 860.65C937.223 860.727 937.278 860.816 937.265 860.917C937.264 861.012 937.206 861.093 937.092 861.16L935.11 862.316C934.984 862.389 934.843 862.425 934.684 862.422C934.526 862.42 934.385 862.381 934.262 862.305L933.673 861.94C933.738 862.159 933.735 862.396 933.664 862.654C933.592 862.911 933.436 863.171 933.196 863.432C932.977 863.694 932.646 863.955 932.202 864.214ZM931.087 862.559C931.417 862.366 931.646 862.152 931.774 861.916C931.901 861.666 931.893 861.408 931.75 861.141C931.607 860.86 931.311 860.581 930.862 860.304L930.626 860.158L929.426 861.161C928.98 861.529 928.727 861.845 928.667 862.109C928.607 862.36 928.701 862.562 928.948 862.714C929.138 862.832 929.358 862.9 929.606 862.917C929.855 862.933 930.11 862.913 930.371 862.855C930.62 862.791 930.859 862.692 931.087 862.559ZM943.702 857.507C942.858 857.999 941.961 858.341 941.008 858.532C940.056 858.724 939.1 858.755 938.141 858.627C937.181 858.486 936.281 858.175 935.439 857.695C935.248 857.591 935.018 857.455 934.749 857.289C934.468 857.115 934.244 856.969 934.076 856.852C933.291 856.325 932.801 855.775 932.605 855.202C932.398 854.622 932.467 854.049 932.814 853.482C933.172 852.91 933.773 852.377 934.616 851.886C935.402 851.427 936.187 851.104 936.969 850.918C937.741 850.724 938.466 850.625 939.144 850.62C939.823 850.615 940.421 850.671 940.94 850.786C941.459 850.888 941.853 851.015 942.122 851.168C942.246 851.231 942.307 851.317 942.305 851.426C942.293 851.527 942.23 851.611 942.116 851.678L939.945 852.944C939.82 853.017 939.695 853.056 939.57 853.061C939.446 853.066 939.299 853.051 939.13 853.015C938.645 852.879 938.222 852.829 937.86 852.866C937.509 852.895 937.168 853.006 936.838 853.199C936.382 853.464 936.174 853.761 936.215 854.087C936.268 854.407 936.585 854.761 937.168 855.149C937.606 855.434 938.004 855.68 938.363 855.889C939.003 856.257 939.582 856.458 940.102 856.492C940.633 856.52 941.127 856.4 941.582 856.135C941.936 855.929 942.142 855.721 942.201 855.511C942.26 855.301 942.179 855.052 941.957 854.764C941.901 854.661 941.88 854.572 941.892 854.498C941.904 854.423 941.973 854.349 942.099 854.276L944.269 853.01C944.383 852.944 944.531 852.912 944.712 852.914C944.881 852.91 945.016 852.945 945.117 853.022C945.296 853.146 945.464 853.318 945.619 853.538C945.764 853.75 945.868 854.006 945.932 854.306C945.995 854.606 945.974 854.935 945.868 855.294C945.761 855.639 945.536 855.999 945.192 856.375C944.848 856.751 944.351 857.129 943.702 857.507ZM954.076 851.255C953.347 851.68 952.603 851.98 951.843 852.153C951.083 852.313 950.32 852.327 949.552 852.194C948.774 852.055 947.998 851.746 947.224 851.267L943.993 849.268L942.66 850.046C942.535 850.119 942.387 850.158 942.218 850.162C942.059 850.16 941.918 850.121 941.795 850.045L940.432 849.201C940.309 849.125 940.248 849.039 940.249 848.944C940.262 848.842 940.331 848.755 940.456 848.682L941.789 847.904L939.013 846.187C938.89 846.11 938.828 846.025 938.83 845.929C938.842 845.828 938.906 845.744 939.02 845.677L941.002 844.521C941.128 844.448 941.269 844.412 941.428 844.414C941.586 844.416 941.727 844.456 941.85 844.532L944.626 846.25L946.763 845.004C946.888 844.931 947.03 844.895 947.188 844.897C947.347 844.899 947.487 844.939 947.611 845.015L948.974 845.858C949.097 845.935 949.158 846.02 949.157 846.115C949.156 846.21 949.092 846.295 948.967 846.368L946.83 847.614L949.825 849.467C950.207 849.703 950.584 849.847 950.956 849.899C951.329 849.952 951.692 849.875 952.045 849.669L953.361 848.902C953.486 848.828 953.628 848.793 953.786 848.795C953.945 848.797 954.085 848.836 954.209 848.913L955.673 849.818C955.796 849.895 955.857 849.98 955.856 850.076C955.855 850.171 955.791 850.255 955.666 850.328L954.076 851.255Z" fill="white"/>
<path d="M937.812 930.698L936.802 941.612L846.85 875.475L847.86 864.562L937.812 930.698Z" fill="#9C79D3"/>
<path d="M732.369 501.722C732.369 501.722 801.741 515.958 803.607 518.945C805.473 521.93 777.392 535.284 777.392 535.284C777.392 535.284 735.164 529.575 721.642 520.124C708.12 510.675 732.369 501.722 732.369 501.722Z" fill="#FFB7D6"/>
<path d="M740.476 506.454C734.814 492.854 719.728 457.212 719.728 457.212L709.1 458.16C709.1 458.16 710.948 507.668 717.822 517.044C724.696 526.418 744.715 516.636 740.476 506.454Z" fill="#FFB7D6"/>
<path d="M809.184 982.896C809.184 989.238 772.935 994.379 728.216 994.379C683.497 994.379 647.248 989.238 647.248 982.896C647.248 976.554 683.497 971.413 728.216 971.413C772.935 971.413 809.184 976.554 809.184 982.896Z" fill="#E2E2E2"/>
<path d="M774.574 938.662L750.134 803.597L735.996 636.524L805.007 624.954L787.516 799.225L798.532 935.633C792.817 937.264 784.708 938.784 774.574 938.662Z" fill="#3A376B"/>
<path d="M798.534 935.633L799.553 960.778L782.133 965.882L774.574 938.663" fill="#FFB7D6"/>
<path d="M799.101 955.227C799.101 955.227 786.155 962.702 779.473 956.585C779.473 956.585 776.615 959.435 770.698 965.622C770.698 965.622 752.064 973.321 747.559 982.249C747.559 982.249 776.189 986.34 806.158 980.571C806.158 980.571 804.871 963.705 799.101 955.227Z" fill="#2A3141"/>
<path d="M777 945.1L797.62 942.365C799.731 942.086 801.214 940.147 800.935 938.037L800.288 933.151C800.008 931.039 798.069 929.555 795.958 929.836L775.338 932.571C773.226 932.85 771.741 934.789 772.023 936.898L772.67 941.785C772.951 943.897 774.89 945.381 777 945.1Z" fill="#3A376B"/>
<path d="M722.131 636.207L769.459 648.563L767.812 658.196C764.366 678.366 782.167 671.659 774.753 690.732L710.666 798.695L714.369 956.244C708.898 954.817 697.188 950.099 689.758 946.201L669.67 794.97L722.131 636.207Z" fill="#3A376B"/>
<path d="M714.216 938.574L716.481 965.219L695.724 972.306L687.68 937.022C695.974 938.31 708.579 938.99 714.216 938.574Z" fill="#FFB7D6"/>
<path d="M716.025 960.855C716.025 960.855 709.072 969.883 693.462 960.21C693.462 960.21 693.644 962.763 683.572 971.31C683.572 971.31 660.867 975.177 654.414 984.021C654.414 984.021 688.707 991.257 721.541 987.698C721.541 987.698 720.754 971.038 716.025 960.855Z" fill="#2A3141"/>
<path d="M689.365 945.712L712.853 944.838C714.98 944.759 716.642 942.97 716.562 940.843L716.334 934.72C716.254 932.593 714.466 930.931 712.338 931.011L688.851 931.884C686.724 931.963 685.062 933.752 685.141 935.879L685.37 942.002C685.447 944.129 687.236 945.791 689.365 945.712Z" fill="#3A376B"/>
<path opacity="0.3" d="M717.113 641.273C717.113 641.273 771.326 664.88 792.65 624.848L717.113 641.273Z" fill="#947FAD"/>
<path d="M779.76 516.853C779.76 516.853 777.282 494.436 778.335 492.524C779.385 490.614 794.893 474.034 794.299 460.173C793.707 446.312 778.885 433.344 760.685 436.854C742.808 440.304 738.387 450.161 737.561 459.836C737.328 462.564 739.593 466.105 738.112 473.571C735.719 485.659 739.548 490.326 744.517 502.04C744.887 502.915 745.986 503.247 746.93 503.36C749.984 503.724 755.716 503.314 758.87 500.28L756 512.255C756 512.255 768.999 520.184 779.76 516.853Z" fill="#FFB7D6"/>
<path d="M742.302 450.473C742.302 450.473 748.511 464.902 761.215 474.269C761.215 474.269 767.673 467.938 770.13 474.074C773.344 482.098 762.385 485.903 762.385 485.903L777.966 493.317C777.966 493.317 794.832 478.933 795.608 464.875C796.381 450.819 788.002 435.936 770.405 432.929C750.505 429.528 732.25 445.505 737.899 457.152C737.899 457.152 737.994 454.185 742.302 450.473Z" fill="#2A3141"/>
<path d="M740.347 467.654C740.347 467.654 735.649 474.991 733.646 478.067C732.064 480.493 737.653 483.376 739.45 483.033C741.247 482.689 740.347 467.654 740.347 467.654Z" fill="#FFB7D6"/>
<path d="M802.795 518.513C796.749 513.855 788.442 515.836 779.141 508.84L756.312 508.692C756.312 508.692 748.035 514.719 734.597 514.804C724.384 514.868 719.719 534.145 719.719 534.145C719.01 536.76 720.506 617.334 720.506 617.334L717.115 641.271C764.728 662.473 805.008 624.95 805.008 624.95L790.709 598.983L802.276 548.923C806.376 541.099 809.93 524.013 802.795 518.513Z" fill="#B5A7E9"/>
<path d="M778.212 442.892C779.424 435.331 786.757 428.67 795.231 428.532C800.824 428.442 806.596 431.201 809.59 435.978C815.52 445.438 809.606 461.287 799.485 463.634C789.369 465.978 776.344 454.537 778.212 442.892Z" fill="#2A3141"/>
<path d="M746.152 739.391L773.558 690.729" stroke="#292B57" stroke-miterlimit="10"/>
<path d="M805.009 624.954C805.009 624.954 812.647 663.606 797.889 692.724L805.009 624.954Z" fill="#3A376B"/>
<path d="M739.578 499.828L684.191 402.885L574.013 415.084L568.664 424.65L624.051 521.591L734.226 509.392L739.578 499.828Z" fill="#9C79D3"/>
<path d="M739.578 499.828L629.4 512.025L574.014 415.084L684.191 402.885L739.578 499.828Z" fill="url(#paint3_linear_672_2028)"/>
<path d="M609.961 449.716C609.856 449.728 609.736 449.706 609.599 449.651C609.468 449.583 609.373 449.506 609.314 449.419C609.277 449.364 609.25 449.315 609.233 449.27L606.693 438.267C606.65 438.142 606.658 438.03 606.717 437.93C606.781 437.817 606.925 437.749 607.147 437.724L610.058 437.402C610.281 437.377 610.485 437.407 610.67 437.492C610.86 437.565 611.016 437.659 611.137 437.774L622.901 447.756C622.957 447.796 623.003 447.844 623.041 447.899C623.1 447.986 623.11 448.072 623.07 448.159C623.036 448.233 622.96 448.277 622.842 448.29L620.423 448.558C620.227 448.579 620.05 448.558 619.893 448.493C619.742 448.416 619.631 448.347 619.56 448.284L617.655 446.702L612.404 447.284L612.795 449.033C612.813 449.102 612.806 449.184 612.774 449.282C612.734 449.368 612.603 449.424 612.38 449.448L609.961 449.716ZM611.604 444.841L615.262 444.436L610.468 440.327L611.604 444.841ZM625.1 448.04C624.956 448.055 624.812 448.03 624.668 447.964C624.524 447.898 624.412 447.805 624.33 447.685L619.087 440.005C619.005 439.885 618.984 439.782 619.023 439.696C619.063 439.609 619.155 439.558 619.299 439.542L621.561 439.292C621.705 439.276 621.849 439.301 621.993 439.367C622.137 439.433 622.25 439.526 622.331 439.646L622.755 440.267C622.866 439.891 623.118 439.558 623.513 439.269C623.907 438.979 624.478 438.793 625.225 438.71C625.986 438.626 626.751 438.693 627.521 438.913C628.305 439.131 629.05 439.499 629.757 440.018C630.469 440.525 631.097 441.177 631.64 441.972L634.753 446.531C634.834 446.651 634.849 446.755 634.796 446.843C634.756 446.929 634.671 446.98 634.54 446.994L632.062 447.268C631.931 447.283 631.787 447.258 631.63 447.193C631.486 447.127 631.373 447.034 631.291 446.914L628.246 442.453C627.896 441.941 627.478 441.566 626.99 441.327C626.509 441.075 625.979 440.982 625.402 441.046C624.865 441.105 624.529 441.295 624.395 441.614C624.266 441.921 624.376 442.331 624.726 442.843L627.771 447.304C627.853 447.424 627.868 447.528 627.815 447.616C627.775 447.702 627.69 447.753 627.558 447.767L625.1 448.04ZM641.153 446.437C640.524 446.507 639.897 446.489 639.275 446.382C638.657 446.263 638.054 446.06 637.464 445.774C636.879 445.475 636.329 445.103 635.812 444.656C635.288 444.198 634.805 443.666 634.362 443.059C634.2 442.842 634.064 442.653 633.952 442.489C633.833 442.315 633.71 442.123 633.581 441.915C633.206 441.324 632.957 440.783 632.834 440.293C632.71 439.803 632.711 439.369 632.834 438.992C632.957 438.615 633.215 438.311 633.608 438.08C633.993 437.838 634.5 437.683 635.129 437.613C635.784 437.54 636.411 437.571 637.01 437.703C637.601 437.826 638.157 438.01 638.678 438.257L636.291 434.76C636.209 434.64 636.188 434.537 636.228 434.45C636.267 434.364 636.359 434.313 636.503 434.297L638.903 434.031C639.034 434.017 639.171 434.042 639.315 434.109C639.472 434.173 639.591 434.265 639.673 434.385L647.036 445.171C647.118 445.29 647.132 445.394 647.079 445.482C647.04 445.569 646.954 445.619 646.823 445.634L644.601 445.88C644.457 445.896 644.313 445.871 644.169 445.805C644.025 445.738 643.912 445.645 643.83 445.526L643.473 445.003C643.374 445.353 643.146 445.66 642.79 445.922C642.433 446.184 641.887 446.356 641.153 446.437ZM640.72 444.13C641.166 444.081 641.461 443.966 641.606 443.786C641.757 443.593 641.806 443.365 641.753 443.102C641.713 442.837 641.599 442.556 641.411 442.261C641.275 442.041 641.141 441.834 641.007 441.637C640.873 441.441 640.729 441.241 640.574 441.035C640.375 440.764 640.132 440.522 639.845 440.307C639.55 440.082 639.223 439.913 638.865 439.801C638.498 439.677 638.105 439.639 637.686 439.685C637.253 439.733 636.958 439.848 636.8 440.029C636.655 440.209 636.619 440.436 636.693 440.709C636.766 440.982 636.898 441.278 637.087 441.597C637.278 441.939 637.509 442.277 637.779 442.61C638.021 442.923 638.283 443.205 638.567 443.454C638.85 443.704 639.168 443.892 639.522 444.017C639.888 444.14 640.287 444.178 640.72 444.13ZM650.124 445.268C649.98 445.284 649.836 445.259 649.692 445.193C649.548 445.127 649.435 445.034 649.354 444.914L644.111 437.233C644.036 437.124 644.019 437.027 644.059 436.94C644.091 436.843 644.179 436.786 644.323 436.77L646.585 436.52C646.729 436.504 646.877 436.534 647.028 436.611C647.172 436.678 647.281 436.765 647.355 436.874L647.802 437.528C647.925 437.151 648.166 436.843 648.525 436.604C648.897 436.364 649.391 436.209 650.007 436.141L650.872 436.045C651.003 436.031 651.141 436.056 651.284 436.122C651.441 436.187 651.561 436.279 651.643 436.399L652.792 438.082C652.866 438.191 652.88 438.295 652.835 438.394C652.795 438.48 652.71 438.531 652.579 438.545L650.671 438.757C650.134 438.816 649.8 438.988 649.669 439.272C649.544 439.543 649.634 439.903 649.939 440.349L652.795 444.533C652.877 444.653 652.891 444.756 652.839 444.844C652.799 444.931 652.707 444.982 652.563 444.998L650.124 445.268ZM663.435 443.969C662.334 444.091 661.303 444.047 660.342 443.838C659.393 443.626 658.53 443.271 657.752 442.771C656.979 442.259 656.307 441.624 655.734 440.868C655.572 440.651 655.398 440.407 655.212 440.134C655.019 439.851 654.858 439.605 654.73 439.397C654.254 438.618 654.04 437.932 654.088 437.341C654.135 436.75 654.432 436.266 654.979 435.889C655.539 435.511 656.349 435.263 657.411 435.145C658.486 435.026 659.498 435.072 660.446 435.284C661.407 435.493 662.284 435.848 663.075 436.346C663.866 436.844 664.552 437.477 665.133 438.245C665.287 438.45 665.461 438.695 665.654 438.978C665.84 439.25 666.001 439.496 666.137 439.715C666.605 440.484 666.825 441.168 666.798 441.769C666.777 442.357 666.486 442.841 665.927 443.219C665.38 443.596 664.55 443.846 663.435 443.969ZM662.074 441.976C662.664 441.91 662.99 441.716 663.051 441.393C663.126 441.068 662.982 440.61 662.62 440.017C662.521 439.852 662.379 439.634 662.193 439.361C662.007 439.089 661.852 438.872 661.727 438.71C661.294 438.137 660.839 437.718 660.363 437.455C659.892 437.179 659.362 437.073 658.772 437.139C658.195 437.203 657.873 437.402 657.806 437.738C657.732 438.062 657.879 438.515 658.246 439.095C658.345 439.26 658.487 439.479 658.673 439.751C658.859 440.023 659.014 440.241 659.139 440.403C659.567 440.988 660.019 441.412 660.495 441.676C660.971 441.94 661.497 442.04 662.074 441.976ZM670.981 442.958C670.836 442.974 670.692 442.949 670.549 442.883C670.405 442.817 670.292 442.724 670.21 442.604L664.967 434.923C664.885 434.804 664.864 434.7 664.904 434.614C664.944 434.528 665.036 434.476 665.18 434.46L667.5 434.203C667.631 434.189 667.769 434.215 667.913 434.281C668.07 434.345 668.189 434.438 668.271 434.557L673.514 442.238C673.596 442.358 673.61 442.462 673.557 442.55C673.518 442.636 673.432 442.686 673.301 442.701L670.981 442.958ZM664.323 433.237C664.179 433.253 664.035 433.228 663.891 433.162C663.748 433.096 663.635 433.003 663.553 432.883L662.56 431.429C662.478 431.309 662.457 431.206 662.497 431.119C662.529 431.022 662.617 430.965 662.762 430.949L665.102 430.69C665.246 430.674 665.394 430.705 665.545 430.782C665.702 430.846 665.821 430.938 665.903 431.058L666.896 432.513C666.978 432.632 666.992 432.736 666.94 432.824C666.9 432.911 666.808 432.962 666.664 432.978L664.323 433.237ZM680.023 442.132C679.394 442.202 678.768 442.183 678.145 442.077C677.528 441.957 676.924 441.755 676.334 441.469C675.75 441.17 675.199 440.797 674.683 440.351C674.159 439.893 673.676 439.361 673.233 438.754C673.071 438.537 672.934 438.347 672.823 438.184C672.704 438.01 672.58 437.818 672.452 437.61C672.077 437.019 671.827 436.478 671.704 435.988C671.581 435.497 671.581 435.064 671.705 434.687C671.828 434.31 672.086 434.006 672.478 433.775C672.863 433.533 673.37 433.378 674 433.308C674.655 433.235 675.282 433.265 675.88 433.398C676.471 433.52 677.027 433.705 677.549 433.952L675.161 430.455C675.08 430.335 675.058 430.232 675.098 430.145C675.138 430.059 675.23 430.008 675.374 429.992L677.773 429.726C677.904 429.711 678.042 429.737 678.186 429.803C678.343 429.868 678.462 429.96 678.544 430.08L685.906 440.865C685.988 440.985 686.003 441.089 685.95 441.177C685.91 441.263 685.825 441.314 685.694 441.328L683.471 441.575C683.327 441.59 683.183 441.565 683.039 441.499C682.896 441.433 682.783 441.34 682.701 441.22L682.344 440.698C682.245 441.048 682.017 441.355 681.66 441.617C681.303 441.879 680.758 442.051 680.023 442.132ZM679.591 439.825C680.036 439.775 680.332 439.661 680.477 439.481C680.627 439.288 680.676 439.06 680.623 438.796C680.583 438.531 680.469 438.251 680.282 437.955C680.146 437.736 680.011 437.528 679.877 437.332C679.744 437.136 679.599 436.935 679.445 436.73C679.246 436.459 679.003 436.216 678.716 436.002C678.421 435.777 678.094 435.608 677.735 435.495C677.369 435.372 676.976 435.333 676.556 435.38C676.124 435.428 675.828 435.543 675.67 435.724C675.525 435.904 675.49 436.131 675.563 436.404C675.637 436.677 675.768 436.973 675.958 437.292C676.149 437.634 676.379 437.972 676.649 438.305C676.891 438.618 677.154 438.899 677.437 439.149C677.721 439.399 678.039 439.587 678.392 439.711C678.758 439.835 679.158 439.873 679.591 439.825Z" fill="white"/>
<path d="M629.4 512.025L624.051 521.591L568.664 424.65L574.013 415.084L629.4 512.025Z" fill="#9C79D3"/>
<path d="M667.322 541.283C667.322 541.283 731.404 513.323 734.597 514.804C737.79 516.286 723.364 544.806 723.364 544.806C723.364 544.806 684.872 563.088 668.385 562.556C651.898 562.024 667.322 541.283 667.322 541.283Z" fill="#FFB7D6"/>
<path d="M630.51 504.652C630.51 504.652 629.018 494.964 625.59 493.969C618.193 491.821 615.9 486.96 615.609 489.043C615.002 493.417 618.067 496.125 623.135 497.579L630.51 504.652Z" fill="#FFB7D6"/>
<path d="M626.681 498.228C626.681 498.228 613.8 494.124 611.637 494.015C608.448 493.856 608.193 497.55 609.113 499.074C609.795 500.205 606.709 501.115 608.233 504.86C609.186 507.2 607.553 506.99 607.868 509.197C608.114 510.932 610.518 511.796 610.126 513.527C609.403 516.709 612.211 517.066 613.891 518.311C615.57 519.559 622.91 521.401 629.884 517.895C638.982 513.325 626.681 498.228 626.681 498.228Z" fill="#FFB7D6"/>
<path d="M676.696 540.817C664.523 532.516 632.42 510.901 632.42 510.901L624.037 517.5C624.037 517.5 652.626 557.962 663.504 562.06C674.382 566.159 685.808 547.033 676.696 540.817Z" fill="#FFB7D6"/>
<path d="M735.398 514.823C735.398 514.823 716.119 515.023 690.059 530.845C690.059 530.845 691.92 553.781 694.047 558.567C694.047 558.567 767.84 543.011 735.398 514.823Z" fill="#B5A7E9"/>
<path d="M719.483 456.396C719.483 456.396 716.325 447.57 714.88 443.962C713.438 440.355 701.952 438.309 698.105 436.147C694.258 433.982 697.926 443.001 706.043 444.986C706.043 444.986 708.928 462.603 720.474 459.958" fill="#FFB7D6"/>
<path d="M81.6866 631.865C90.2596 627.763 98.7921 655.055 98.7921 655.055C113.363 674.31 133.725 648.695 131.735 677.477C128.25 727.841 189.707 693.314 161.353 745.896C133 798.479 186.387 775.629 168.767 818.026C151.149 860.426 173.986 910.993 147.476 890.214C147.476 890.214 124.132 839.023 100.059 823.186C75.9859 807.348 114.481 788.558 106.949 767.046C96.0075 735.801 69.6494 737.027 88.654 703.452C107.66 669.875 52.5456 645.801 81.6866 631.865Z" fill="url(#paint4_linear_672_2028)"/>
<path d="M155.873 870.948C144.382 862.868 130.934 806.547 130.131 773.002C129.719 755.818 124.641 748.66 120.158 742.343C115.874 736.307 112.175 731.092 114.331 719.119C118.449 696.242 107.621 686.364 107.512 686.266L108.767 684.837C109.247 685.259 120.524 695.444 116.203 719.455C114.189 730.64 117.508 735.319 121.71 741.24C126.12 747.457 131.608 755.189 132.033 772.954C132.893 808.956 146.644 862.131 156.968 869.392L155.873 870.948Z" fill="white"/>
<path d="M160.171 875.121C158.689 875.121 157.078 874.952 155.312 874.593C150.883 873.699 147.979 871.362 146.68 867.649C143.582 858.79 150.76 844.398 156.586 837.463C156.682 837.346 166.432 825.429 165.393 808.912C165.218 806.143 164.931 803.581 164.678 801.319C163.944 794.782 163.415 790.059 166.223 786.905C168.697 784.124 173.474 782.922 182.193 782.879C197.487 782.807 203.534 776.477 208.395 771.387C210.457 769.226 212.407 767.186 214.775 765.892C222.397 761.731 230.469 761.121 233.97 764.44C235.633 766.015 237.038 769.103 234.282 774.861C231.766 780.122 228.5 783.456 225.876 786.131C222.346 789.734 220.015 792.114 221.23 796.855C221.515 797.969 221.843 799.093 222.172 800.221C224.53 808.285 227.202 817.424 213.402 823.628C210.474 824.943 207.804 825.991 205.45 826.915C195.816 830.694 190 832.978 183.436 846.834C182.165 849.517 181.043 852.06 179.958 854.518C174.782 866.251 170.866 875.121 160.171 875.121ZM215.686 767.563C213.577 768.715 211.813 770.562 209.769 772.702C204.662 778.051 198.307 784.706 182.205 784.782C174.187 784.819 169.697 785.866 167.645 788.17C165.4 790.692 165.891 795.062 166.569 801.108C166.823 803.392 167.113 805.979 167.29 808.792C168.38 826.092 158.466 838.178 158.045 838.684C152.278 845.55 145.748 859.218 148.476 867.025C149.537 870.061 151.964 871.982 155.69 872.735C168.689 875.362 172.276 867.23 178.221 853.755C179.311 851.286 180.437 848.731 181.719 846.026C188.607 831.487 195.032 828.967 204.758 825.151C207.092 824.233 209.737 823.196 212.625 821.897C224.916 816.374 222.699 808.789 220.351 800.759C220.014 799.609 219.68 798.465 219.389 797.332C217.91 791.552 220.828 788.575 224.522 784.805C227.178 782.093 230.189 779.022 232.57 774.045C233.818 771.436 234.847 767.892 232.665 765.823C229.791 763.099 222.491 763.848 215.686 767.563Z" fill="url(#paint5_linear_672_2028)"/>
<path d="M155.517 886.094L153.619 885.993C153.712 884.21 156.107 842.18 172.981 829.88C191.497 816.385 197.332 801.882 200.112 792.149C203.387 780.678 220.061 777.612 220.769 777.487L221.1 779.358C220.938 779.388 204.888 782.345 201.94 792.67C199.083 802.675 193.089 817.578 174.101 831.418C157.95 843.189 155.538 885.666 155.517 886.094Z" fill="url(#paint6_linear_672_2028)"/>
<path d="M194.102 674.279C182.109 670.165 184.6 693.284 179.532 710.389C174.463 727.495 123.149 717.851 144.688 760.682C166.228 803.516 117.448 775.006 132.018 812.383C146.589 849.761 133.283 889.735 149.122 879.567C164.961 869.4 158.021 822.33 174.492 816.739C190.963 811.147 193.652 804.621 177.342 789.418C161.035 774.213 220.076 759.12 205.505 728.419C190.935 697.719 207.961 679.03 194.102 674.279Z" fill="url(#paint7_linear_672_2028)"/>
<path d="M156.47 877.779C154.962 871.38 142.08 815.07 154.099 808.263C164.694 802.263 164.433 778.929 162.778 756.896C161.316 737.39 186.365 728.274 187.433 727.896L188.069 729.689C187.821 729.777 163.32 738.701 164.674 756.756C166.371 779.383 166.553 803.395 155.035 809.919C145.907 815.088 154.31 860.343 158.319 877.346L156.47 877.779Z" fill="white"/>
<path d="M183.737 857.727L166.611 922.697H128.341L111.217 857.727H183.737Z" fill="#3B4971"/>
<defs>
<linearGradient id="paint0_linear_672_2028" x1="807" y1="107.799" x2="969.213" y2="107.799" gradientUnits="userSpaceOnUse">
<stop stop-color="#9942FF"/>
<stop offset="1" stop-color="#FC067D"/>
</linearGradient>
<linearGradient id="paint1_linear_672_2028" x1="205.521" y1="235.97" x2="314.898" y2="235.97" gradientUnits="userSpaceOnUse">
<stop stop-color="#FB9004"/>
<stop offset="1" stop-color="#FC067D"/>
</linearGradient>
<linearGradient id="paint2_linear_672_2028" x1="847.859" y1="869.706" x2="1033.56" y2="869.706" gradientUnits="userSpaceOnUse">
<stop stop-color="#9942FF"/>
<stop offset="1" stop-color="#FC067D"/>
</linearGradient>
<linearGradient id="paint3_linear_672_2028" x1="574.014" y1="457.455" x2="739.578" y2="457.455" gradientUnits="userSpaceOnUse">
<stop stop-color="#9942FF"/>
<stop offset="1" stop-color="#4D6DFF"/>
</linearGradient>
<linearGradient id="paint4_linear_672_2028" x1="73" y1="763.24" x2="172.42" y2="763.24" gradientUnits="userSpaceOnUse">
<stop stop-color="#9942FF"/>
<stop offset="1" stop-color="#4D6DFF"/>
</linearGradient>
<linearGradient id="paint5_linear_672_2028" x1="145.934" y1="818.714" x2="235.843" y2="818.714" gradientUnits="userSpaceOnUse">
<stop stop-color="#9942FF"/>
<stop offset="1" stop-color="#4D6DFF"/>
</linearGradient>
<linearGradient id="paint6_linear_672_2028" x1="153.619" y1="831.791" x2="221.1" y2="831.791" gradientUnits="userSpaceOnUse">
<stop stop-color="#9942FF"/>
<stop offset="1" stop-color="#4D6DFF"/>
</linearGradient>
<linearGradient id="paint7_linear_672_2028" x1="129.252" y1="777.485" x2="207.84" y2="777.485" gradientUnits="userSpaceOnUse">
<stop stop-color="#9942FF"/>
<stop offset="1" stop-color="#4D6DFF"/>
</linearGradient>
</defs>
</svg>
