<svg width="127" height="30" viewBox="0 0 127 30" fill="none" xmlns="http://www.w3.org/2000/svg">
<path d="M20.776 15.9003C20.736 13.4623 21.7891 11.5644 23.9328 10.2059C22.7238 8.44783 20.9408 7.4597 18.583 7.23879C17.7443 7.16003 16.6721 7.35827 15.3677 7.83851C13.9647 8.3587 13.1748 8.61726 12.9996 8.61726C12.6292 8.61726 11.9181 8.39865 10.8643 7.95799C9.81274 7.51848 8.91566 7.29872 8.17494 7.29872C6.92787 7.31908 5.76762 7.6637 4.69611 8.33257C3.62423 9.00221 2.7671 9.91697 2.12435 11.0745C1.30488 12.5137 0.896484 14.2322 0.896484 16.2296C0.896484 18.0276 1.19769 19.8252 1.80163 21.6244C2.36678 23.3428 3.08905 24.8512 3.965 26.1486C4.74375 27.3276 5.42838 28.1867 6.01119 28.7269C6.85026 29.5655 7.70662 29.9659 8.58487 29.9251C9.14963 29.9044 9.88958 29.695 10.8059 29.2943C11.6626 28.9167 12.5209 28.7265 13.3788 28.7265C14.1775 28.7265 15.0051 28.9155 15.8637 29.2943C16.818 29.695 17.5983 29.8944 18.2023 29.8944C19.099 29.8552 19.9365 29.4653 20.7172 28.7269C20.9888 28.486 21.2865 28.1567 21.6077 27.7372C21.9785 27.2485 22.3346 26.7489 22.6754 26.2389C22.9594 25.7991 23.2276 25.3493 23.4795 24.8904C23.7497 24.3962 23.9889 23.8856 24.1956 23.3617C24.2921 23.1419 24.3797 22.9175 24.4584 22.6878C24.536 22.458 24.614 22.2241 24.692 21.984C23.9709 21.6651 23.3178 21.2137 22.7334 20.6339C21.4487 19.3573 20.7956 17.7782 20.776 15.9003ZM41.9744 21.2429H41.8326L35.8957 7.67561H31.2336V29.5655H35.2968V15.3886H35.4854L40.4468 26.6461H43.2964L48.242 15.3886H48.4314V29.5655H52.5415V7.67561H47.9112L41.9744 21.2429ZM17.0916 4.81187C18.1251 3.51292 18.6418 2.11447 18.6418 0.615753V0.31647C18.6418 0.215813 18.6318 0.116308 18.6126 0.0164185C17.8911 0.0563741 17.1265 0.286503 16.3171 0.705269C15.5087 1.12557 14.8414 1.65575 14.3143 2.29389C13.2624 3.55365 12.7357 4.90138 12.7357 6.34017V6.62408C12.7357 6.71475 12.7456 6.80926 12.7649 6.90992C14.3831 7.06936 15.8253 6.36975 17.0916 4.81187ZM100.03 7.67561H104.597V29.5659H100.03V7.67561ZM118.39 11.1552C121.099 11.1552 122.531 13.2402 122.531 15.4854H126.91V15.0202C126.91 10.7868 123.682 7.25915 118.358 7.25915C112.657 7.25915 109.256 11.0115 109.256 17.4106V19.8805C109.256 26.2777 112.626 29.9835 118.342 29.9835C123.807 29.9835 126.91 26.406 126.91 22.4296V21.9486H122.531C122.531 24.2107 121.13 26.0867 118.423 26.0867C115.65 26.0867 113.886 24.1139 113.886 19.8955V17.4275C113.886 13.2237 115.666 11.1552 118.39 11.1552ZM70.0082 21.4987C70.0082 24.4343 68.2917 26.0533 65.7722 26.0533C63.2365 26.0533 61.5204 24.4497 61.5204 21.4987V7.67561H56.9842V22.1403C56.9842 26.8082 60.291 29.9832 65.7714 29.9832C71.2365 29.9832 74.559 26.8082 74.559 22.1403V7.67561H70.0082V21.4987ZM89.6687 16.8166L86.4093 16.0797C84.4883 15.6775 83.4802 14.8281 83.4802 13.5606C83.4802 11.8775 84.8499 10.8187 87.0559 10.8187C89.5439 10.8187 90.7879 12.2459 90.8978 13.7858H95.15C95.1027 9.92043 91.8747 7.22649 87.0708 7.22649C82.5201 7.22649 78.9291 9.61653 78.9291 13.9141C78.9291 17.6346 81.4494 19.3653 84.473 20.0246L87.7009 20.7776C89.8743 21.2747 90.9765 21.997 90.9765 23.4873C90.9765 25.1885 89.6219 26.3434 87.087 26.3434C84.3623 26.3434 82.9289 24.8996 82.8037 23.2794H78.4251C78.4892 26.3749 80.5362 29.9832 86.8672 29.9832C92.1898 29.9832 95.4819 27.3372 95.4819 23.0378C95.4804 19.0607 92.8187 17.5051 89.6687 16.8166Z" fill="#5D616A"/>
</svg>
