<svg width="13" height="13" viewBox="0 0 13 13" fill="none" xmlns="http://www.w3.org/2000/svg">
<path d="M1.24189 11.4117C0.924579 11.0822 0.924579 10.5479 1.24189 10.2184L10.4502 0.655902C10.7675 0.32639 11.2819 0.32639 11.5992 0.655902C11.9165 0.985415 11.9165 1.51968 11.5992 1.84919L2.39094 11.4117C2.07363 11.7412 1.55919 11.7412 1.24189 11.4117Z" fill="#7418D5" stroke="#7418D5" stroke-width="0.5"/>
<path d="M0.461914 1.25249C0.461914 0.786514 0.825675 0.408739 1.27441 0.408739L11.0245 0.408739C11.4732 0.408739 11.837 0.786514 11.837 1.25249L11.837 11.3775C11.837 11.8435 11.4732 12.2213 11.0245 12.2213C10.5756 12.2213 10.212 11.8435 10.212 11.3775L10.212 2.09624L1.27441 2.09624C0.825675 2.09624 0.461914 1.71858 0.461914 1.25249Z" fill="#7418D5" stroke="#7418D5" stroke-width="0.5"/>
</svg>
