<svg width="13" height="14" viewBox="0 0 13 14" fill="none" xmlns="http://www.w3.org/2000/svg">
<path d="M1.24189 11.9603C0.924579 11.6308 0.924579 11.0965 1.24189 10.767L10.4502 1.20451C10.7675 0.874997 11.2819 0.874997 11.5992 1.20451C11.9165 1.53402 11.9165 2.06828 11.5992 2.3978L2.39094 11.9603C2.07363 12.2898 1.55919 12.2898 1.24189 11.9603Z" fill="white" stroke="white" stroke-width="0.5"/>
<path d="M0.462402 1.8011C0.462402 1.33513 0.826163 0.957354 1.2749 0.957354L11.0249 0.957353C11.4737 0.957353 11.8374 1.33513 11.8374 1.8011L11.8374 11.9261C11.8374 12.3921 11.4737 12.7699 11.0249 12.7699C10.5761 12.7699 10.2124 12.3921 10.2124 11.9261L10.2124 2.64485L1.2749 2.64485C0.826164 2.64485 0.462402 2.26719 0.462402 1.8011Z" fill="white" stroke="white" stroke-width="0.5"/>
</svg>
