<svg width="597" height="650" viewBox="0 0 597 650" fill="none" xmlns="http://www.w3.org/2000/svg">
<g clip-path="url(#clip0_161_3293)">
<path opacity="0.16" d="M172.458 564.536C168.256 562.89 57.6565 515.875 16.0095 410.608C-25.6375 305.32 52.3422 259.884 105.352 269.563C158.361 279.242 204.5 203.101 136.526 162.873C68.5519 122.644 79.6696 0 192.915 0C306.16 0 344.805 22.0501 392.856 72.3582C440.907 122.666 501.521 101.039 555.953 162.895C597.356 209.932 667.553 491.778 410.066 578.332C410.066 578.332 298.089 613.554 172.458 564.559V564.536Z" fill="#B5A7E9"/>
<path opacity="0.52" d="M300.646 557.594H111.2C40.046 557.594 143.485 584.584 131.367 588.01C119.249 591.437 34.2426 599.848 79.6474 626.237C125.719 653.004 310.696 651.357 361.282 648.465C411.867 645.572 553.885 650 559.689 631.065C568.561 602.073 508.503 592.327 529.738 588.01C550.995 583.694 577.055 569.565 551.951 564.559C526.847 559.552 300.623 557.616 300.623 557.616L300.646 557.594Z" fill="#C3D3F5"/>
<path d="M398.193 595.309C398.193 595.309 385.141 565.004 384.963 521.504C384.785 478.005 397.081 425.828 426.054 396.101C455.027 366.375 468.079 358.409 468.079 358.409C468.079 358.409 495.606 401.174 497.052 452.639C498.497 504.104 472.504 600.982 398.193 595.309Z" fill="url(#paint0_linear_161_3293)"/>
<path d="M398.193 595.309C403.151 586.208 407.621 576.863 411.868 567.429C413.936 562.69 416.115 557.995 418.049 553.189C420.05 548.427 422.029 543.643 423.83 538.793C431.257 519.502 438.083 499.943 443.687 480.007C449.357 460.115 454.471 440.046 458.318 419.709C460.563 409.607 462.031 399.35 463.765 389.137C464.744 384.041 465.255 378.901 465.989 373.762L468.079 358.364L466.589 373.828C466.033 378.99 465.678 384.153 464.877 389.292C463.343 399.55 462.053 409.852 460.03 420.02C459.074 425.116 458.206 430.233 457.117 435.306L453.67 450.481C452.581 455.554 451.224 460.56 449.913 465.589C448.556 470.595 447.378 475.646 445.843 480.608L441.307 495.493C439.729 500.433 438.017 505.328 436.371 510.245C434.77 515.185 432.88 520.013 431.101 524.886C429.367 529.781 427.41 534.587 425.431 539.371C417.56 558.551 408.866 577.464 398.215 595.242L398.193 595.309Z" fill="#C3D3F5"/>
<path d="M393.99 455.688C398.86 461.562 403.062 467.992 406.909 474.6C410.756 481.209 414.069 488.151 416.937 495.249C419.694 502.413 421.873 509.8 423.297 517.343C424.608 524.908 424.986 532.652 424.23 540.239C423.964 536.412 424.119 532.629 423.452 528.869C423.163 525.086 422.318 521.393 421.607 517.677C419.828 510.334 417.627 503.103 414.869 496.05C412.09 489.019 408.866 482.143 405.419 475.401C403.685 472.019 401.862 468.704 399.927 465.433C398.082 462.118 396.058 458.892 393.99 455.688Z" fill="#C3D3F5"/>
<path d="M442.041 489.642C444.754 488.084 447.444 486.527 450.046 484.858C452.692 483.256 455.316 481.587 457.85 479.829C462.942 476.314 468.012 472.754 472.704 468.771C477.418 464.81 481.931 460.605 486.001 455.977C487.046 454.842 487.935 453.574 488.913 452.395C489.38 451.794 489.892 451.193 490.336 450.57L491.582 448.634C492.404 447.321 493.427 446.12 494.05 444.718C494.739 443.339 495.473 441.959 496.229 440.602C495.184 443.517 494.094 446.498 492.516 449.213L491.382 451.282C490.959 451.95 490.492 452.572 490.07 453.24C489.158 454.508 488.335 455.866 487.335 457.089C483.488 462.096 478.907 466.434 474.149 470.506C469.324 474.511 464.143 478.094 458.784 481.298C453.403 484.48 447.867 487.417 442.063 489.686L442.041 489.642Z" fill="#C3D3F5"/>
<path d="M436.549 385.599C441.93 392.875 445.821 401.13 449.134 409.518C450.691 413.746 452.18 418.018 453.314 422.401C454.537 426.74 455.404 431.19 456.094 435.64L451.669 422.913C450.201 418.685 448.645 414.502 447.066 410.319C445.487 406.136 443.798 401.997 442.063 397.881C440.284 393.787 438.528 389.648 436.571 385.599H436.549Z" fill="#C3D3F5"/>
<path d="M274.875 584.651C269.049 601.049 250.171 608.703 234.228 601.739C208.435 590.458 163.453 566.094 134.213 524.018C91.1877 462.118 119.783 459.225 129.722 465.967C139.661 472.731 137.749 481.231 134.013 429.855C130.278 378.479 160.073 363.215 173.881 385.376C187.69 407.538 192.893 472.464 216.084 470.373C239.276 468.303 229.715 448.612 249.482 456.466C265.225 462.741 290.329 541.04 274.853 584.651H274.875Z" fill="url(#paint1_linear_161_3293)"/>
<path d="M159.384 375.497C158.539 385.999 158.85 396.568 159.873 407.048C160.874 417.506 162.475 427.919 164.92 438.154C169.768 458.58 177.061 478.45 187.067 496.917C196.94 515.497 207.946 533.475 219.842 550.83C225.734 559.552 231.983 568.03 238.386 576.374C244.768 584.74 251.416 592.928 258.443 600.804C243.79 585.63 230.693 569.009 218.441 551.809C206.212 534.587 195.183 516.542 185.11 497.963C182.709 493.246 180.352 488.507 178.128 483.701C176.127 478.806 173.837 474.022 172.169 468.993L169.479 461.517L167.166 453.93C166.344 451.415 165.699 448.857 165.076 446.276C164.476 443.695 163.742 441.158 163.253 438.555C160.985 428.208 159.562 417.706 158.783 407.159C158.139 396.613 158.027 385.999 159.384 375.542V375.497Z" fill="#C3D3F5"/>
<path d="M131.367 495.315C134.28 497.896 137.193 500.433 140.239 502.814C143.219 505.261 146.287 507.62 149.422 509.912C155.671 514.451 162.097 518.745 168.745 522.617C175.349 526.599 182.309 529.892 189.38 532.963L194.76 535.099C196.562 535.789 198.429 536.278 200.253 536.901C203.877 538.281 207.702 538.904 211.437 539.994C203.744 539.037 196.072 537.28 188.757 534.565C181.441 531.851 174.326 528.535 167.611 524.552C160.896 520.57 154.425 516.164 148.377 511.269C142.329 506.374 136.526 501.145 131.367 495.315Z" fill="#C3D3F5"/>
<path d="M185.466 496.294C186.022 493.936 186.6 491.6 187.067 489.241C187.601 486.905 188.068 484.546 188.513 482.188C189.358 477.471 190.158 472.754 190.714 467.992C191.359 463.253 191.737 458.491 192.026 453.707L192.204 450.125V446.52C192.382 444.117 192.137 441.714 192.226 439.289C193.138 444.028 193.716 448.879 193.738 453.73C193.849 458.58 193.538 463.453 192.937 468.259C192.293 473.065 191.448 477.849 190.18 482.544C188.935 487.239 187.467 491.867 185.489 496.272L185.466 496.294Z" fill="#C3D3F5"/>
<path d="M239.231 578.309L241.966 568.719C242.9 565.538 243.812 562.334 244.679 559.152C246.414 552.744 248.148 546.358 249.771 539.927C251.439 533.519 252.906 527.067 254.396 520.614C255.13 517.388 255.841 514.139 256.464 510.891C257.242 507.664 257.709 504.371 258.443 501.123C258.02 507.753 257.22 514.384 256.086 520.948C254.996 527.512 253.573 534.031 251.928 540.484C250.26 546.936 248.437 553.344 246.325 559.641C244.212 565.96 241.944 572.213 239.231 578.309Z" fill="#C3D3F5"/>
<path d="M383.206 0H232.761C215.684 0 201.854 13.8397 201.854 30.928V130.721C201.854 147.809 215.684 161.649 232.761 161.649H284.369L307.983 191.375L327.351 161.649H383.206C400.283 161.649 414.113 147.809 414.113 130.721V30.928C414.113 13.8397 400.283 0 383.206 0Z" fill="#F94B6A"/>
<path d="M365.04 69.5992C365.04 53.5789 352.054 40.5847 336.045 40.5847C323.17 40.5847 312.275 48.9953 308.495 60.61C304.715 48.9953 293.82 40.5847 280.945 40.5847C264.936 40.5847 251.95 53.5789 251.95 69.5992C251.95 73.671 252.795 77.5425 254.307 81.0803C254.307 81.0803 254.307 81.0803 254.307 81.1026C264.246 116.703 309.918 131.945 309.918 131.945C342.004 120.486 355.545 98.5914 361.171 84.0619C363.617 79.8121 365.04 74.8947 365.04 69.6214V69.5992Z" fill="white"/>
<path d="M383.739 402.554C375.045 393.854 339.691 386.6 339.691 386.6H314.743C314.743 386.6 279.388 393.854 270.694 402.554C262 411.254 232.049 498.23 234.473 513.694C236.896 529.158 248.97 534.966 259.576 534.966C270.183 534.966 272.139 529.158 272.139 529.158C272.139 529.158 287.171 542.197 327.217 539.794C367.263 542.219 382.294 529.158 382.294 529.158C382.294 529.158 384.228 534.966 394.857 534.966C405.486 534.966 417.559 529.158 419.961 513.694C422.384 498.23 392.433 411.231 383.739 402.554Z" fill="#B5A7E9"/>
<path d="M289.839 335.714C289.839 335.714 293.174 361.301 304.292 370.202C315.41 379.102 336.378 380.837 347.006 370.202C357.635 359.566 359.569 331.041 359.569 331.041C359.569 331.041 332.353 316.534 324.704 300.113C324.704 300.113 306.582 326.368 289.839 335.714Z" fill="#FFB7D6"/>
<path d="M362.438 295.752C357.124 272.078 335.867 269.541 324.682 269.652C324.682 269.652 304.137 267.227 289.817 285.606C275.497 303.962 289.817 335.691 289.817 335.691C306.56 326.346 324.682 300.091 324.682 300.091C332.331 316.511 359.547 331.019 359.547 331.019C359.547 331.019 367.752 319.426 362.438 295.73V295.752Z" fill="#181670"/>
<path d="M324.682 269.652C329.685 269.608 336.667 270.097 343.36 272.745C345.139 269.452 346.162 265.669 346.162 261.664C346.162 248.781 335.733 238.346 322.859 238.346C309.985 238.346 299.556 248.781 299.556 261.664C299.556 266.315 300.935 270.653 303.292 274.28C314.387 268.473 324.682 269.652 324.682 269.652Z" fill="#181670"/>
<path d="M289.839 335.714C289.839 335.714 282.768 333.088 279.878 338.829C276.987 344.569 283.658 362.525 297.221 360.79C291.685 349.865 289.839 335.714 289.839 335.714Z" fill="#FFB7D6"/>
<path d="M370.176 338.829C367.285 333.088 360.214 335.714 360.214 335.714C360.214 335.714 359.703 336.292 358.88 337.271C358.058 343.39 356.323 352.958 352.943 360.812C366.44 362.436 373.089 344.569 370.198 338.851L370.176 338.829Z" fill="#FFB7D6"/>
<path d="M314.743 375.631V386.622C314.743 386.622 316.877 394.366 324.682 395.812C332.487 397.258 338.29 392.074 339.246 385.732C339.824 381.928 339.713 377.833 339.535 375.141C332.042 378.323 322.747 378.212 314.743 375.653V375.631Z" fill="#FFB7D6"/>
<path d="M294.842 457.178V417.995H359.547L358.88 467.08V506.952H294.842V457.178Z" fill="#2D2D54"/>
<path d="M262.957 486.171C262.957 486.171 267.292 505.506 281.301 509.845L292.419 498.008C292.419 498.008 281.434 485.192 279.188 476.981L262.957 486.171Z" fill="#D1C9F4"/>
<path d="M279.188 476.981C279.188 476.981 280.3 464.721 283.458 463.364C286.615 462.007 294.82 457.178 294.82 457.178V467.08C294.82 467.08 317.033 449.435 320.902 449.925C324.771 450.414 318.012 463.453 318.012 463.453C318.012 463.453 317.256 470.707 314.743 478.45C312.23 486.193 292.419 498.03 292.419 498.03C292.419 498.03 284.325 489.575 279.188 477.003V476.981Z" fill="#FFB7D6"/>
<path d="M281.301 509.845C280.567 513.449 279.211 516.743 277.721 519.991C276.164 523.195 274.452 526.332 272.14 529.18C272.873 525.576 274.23 522.283 275.72 519.034C277.276 515.83 278.988 512.693 281.301 509.845Z" fill="#867BBF"/>
<path d="M262.956 486.171C259.688 487.261 256.464 487.906 253.262 488.64C250.038 489.352 246.947 490.042 243.634 490.999C244.835 489.731 246.347 488.796 247.903 488.084C249.459 487.35 251.127 486.86 252.773 486.46C254.44 486.104 256.13 485.881 257.842 485.815C259.532 485.748 261.244 485.815 262.956 486.171Z" fill="#867BBF"/>
<path d="M390.744 486.171C390.744 486.171 386.408 505.506 372.399 509.845L361.282 498.008C361.282 498.008 372.266 485.192 374.512 476.981L390.744 486.171Z" fill="#D1C9F4"/>
<path d="M374.512 476.981C374.512 476.981 373.4 464.721 370.243 463.364C367.085 462.007 358.88 457.178 358.88 457.178V467.08C358.88 467.08 336.667 449.435 332.798 449.925C328.929 450.414 335.689 463.453 335.689 463.453C335.689 463.453 336.445 470.707 338.957 478.45C341.47 486.193 361.282 498.03 361.282 498.03C361.282 498.03 369.375 489.575 374.512 477.003V476.981Z" fill="#FFB7D6"/>
<path d="M381.582 529.18C379.27 526.332 377.558 523.195 376.001 519.991C374.512 516.765 373.155 513.449 372.421 509.845C374.756 512.693 376.446 515.83 378.002 519.034C379.492 522.283 380.849 525.576 381.582 529.18Z" fill="#867BBF"/>
<path d="M390.744 486.171C392.434 485.815 394.146 485.748 395.858 485.815C397.57 485.881 399.26 486.104 400.928 486.46C402.595 486.86 404.241 487.328 405.797 488.084C407.354 488.818 408.866 489.731 410.066 490.999C406.753 490.042 403.662 489.33 400.438 488.64C397.236 487.906 394.012 487.261 390.744 486.171Z" fill="#867BBF"/>
<path d="M382.294 529.18C382.294 529.18 367.263 542.219 327.217 539.816C287.171 542.241 272.139 529.18 272.139 529.18C272.139 529.18 270.205 534.988 259.576 534.988C259.576 534.988 255.241 575.105 262.956 588.144C270.694 601.183 353.855 601.672 372.399 597.801C390.944 593.929 396.347 570.032 390.743 534.632C383.717 533.386 382.294 529.18 382.294 529.18Z" fill="#2D2D54"/>
<path d="M398.548 530.516C413.579 527.734 428.811 536.167 433.347 550.786C433.547 551.453 433.858 552.121 433.925 552.855C436.349 581.847 401.039 596.354 359.058 603.608C317.055 610.862 304.025 608.926 304.025 608.926C304.025 608.926 298.111 598.78 298.422 584.272C298.422 584.272 330.552 561.065 359.058 545.134C375.045 536.189 389.209 532.251 398.571 530.538L398.548 530.516Z" fill="#2F2F5B"/>
<path d="M355.678 608.904C355.678 608.904 367.263 611.796 378.87 614.933C390.454 618.071 406.397 623.389 413.157 618.56C419.916 613.732 419.427 596.221 403.373 591.326C387.297 586.431 361.326 588.366 361.326 588.366C361.326 588.366 360.77 598.513 355.7 608.904H355.678Z" fill="#B5A7E9"/>
<path d="M304.381 608.904C304.381 608.904 292.797 611.796 281.19 614.933C269.605 618.071 253.662 623.389 246.903 618.56C240.143 613.732 240.632 596.221 256.686 591.326C272.762 586.431 298.733 588.366 298.733 588.366C298.733 588.366 299.289 598.513 304.359 608.904H304.381Z" fill="#B5A7E9"/>
<path d="M261.133 530.516C246.102 527.734 230.871 536.167 226.335 550.786C226.134 551.453 225.823 552.121 225.756 552.855C223.333 581.847 258.643 596.354 300.623 603.608C342.626 610.862 355.656 608.926 355.656 608.926C355.656 608.926 361.571 598.78 361.259 584.272C361.259 584.272 329.129 561.065 300.623 545.134C284.636 536.189 270.472 532.251 261.111 530.538L261.133 530.516Z" fill="#3A376B"/>
<path d="M216.729 191.375H69.2188C56.3444 191.375 45.916 201.811 45.916 214.694V266.626C45.916 279.509 56.3444 289.945 69.2188 289.945H216.729C217.107 289.945 217.463 289.9 217.841 289.878L240.032 305.164V214.694C240.032 201.811 229.603 191.375 216.729 191.375Z" fill="#D7DCFF"/>
<path d="M66.1504 213.982H214.661" stroke="white" stroke-width="2" stroke-miterlimit="10" stroke-linecap="round"/>
<path d="M66.1504 231.248H214.661" stroke="white" stroke-width="2" stroke-miterlimit="10" stroke-linecap="round"/>
<path d="M66.1504 249.783H214.661" stroke="white" stroke-width="2" stroke-miterlimit="10" stroke-linecap="round"/>
<path d="M66.1504 266.626H214.661" stroke="white" stroke-width="2" stroke-miterlimit="10" stroke-linecap="round"/>
<path d="M418.093 217.764H518.042C526.758 217.764 533.829 224.84 533.829 233.562V268.74C533.829 277.462 526.758 284.538 518.042 284.538H418.093C417.849 284.538 417.582 284.515 417.337 284.493L402.306 294.84V233.54C402.306 224.818 409.377 217.742 418.093 217.742V217.764Z" fill="#D7DCFF"/>
<path d="M414.202 232.227H523.69" stroke="white" stroke-width="2" stroke-miterlimit="10" stroke-linecap="round"/>
<path d="M414.202 249.471H523.69" stroke="white" stroke-width="2" stroke-miterlimit="10" stroke-linecap="round"/>
<path d="M414.202 268.028H523.69" stroke="white" stroke-width="2" stroke-miterlimit="10" stroke-linecap="round"/>
<path d="M37.4668 398.393C58.1591 398.393 74.9335 381.607 74.9335 360.901C74.9335 340.195 58.1591 323.409 37.4668 323.409C16.7744 323.409 0 340.195 0 360.901C0 381.607 16.7744 398.393 37.4668 398.393Z" fill="#F94B6A"/>
<path d="M40.2017 377.7V382.951H35.51V377.833C30.8628 377.544 26.4157 376.098 23.8364 374.073L26.4157 368.355C28.7505 370.09 32.1303 371.359 35.51 371.692V363.86C30.3069 362.592 24.4813 360.856 24.4813 354.137C24.4813 349.153 28.0834 344.881 35.51 344.035V338.829H40.2017V343.946C43.7149 344.235 47.1392 345.17 49.7185 346.816L47.3615 352.602C44.9601 351.244 42.5365 350.443 40.1795 350.154V358.142C45.3826 359.366 51.1193 361.101 51.1193 367.71C51.1193 372.582 47.5617 376.81 40.1795 377.7H40.2017ZM35.51 356.94V350.265C33.0197 350.822 32.0413 352.201 32.0413 353.736C32.0413 355.383 33.4421 356.273 35.51 356.918V356.94ZM43.5815 368.266C43.5815 366.619 42.2252 365.729 40.2017 365.017V371.492C42.5365 370.98 43.5815 369.757 43.5815 368.244V368.266Z" fill="white"/>
<path d="M511.46 136.284C532.152 136.284 548.927 119.498 548.927 98.7916C548.927 78.0854 532.152 61.2998 511.46 61.2998C490.768 61.2998 473.993 78.0854 473.993 98.7916C473.993 119.498 490.768 136.284 511.46 136.284Z" fill="#634AFF"/>
<path d="M514.195 115.591V120.842H509.503V115.724C504.856 115.435 500.409 113.989 497.83 111.964L500.409 106.246C502.744 107.981 506.123 109.249 509.503 109.583V101.751C504.3 100.483 498.474 98.7471 498.474 92.0275C498.474 87.0434 502.099 82.7714 509.503 81.9259V76.7193H514.195V81.8369C517.708 82.1261 521.132 83.0606 523.712 84.7072L521.355 90.4922C518.953 89.135 516.53 88.334 514.173 88.0447V96.0326C519.376 97.2564 525.113 98.9919 525.113 105.6C525.113 110.473 521.555 114.701 514.173 115.591H514.195ZM509.503 94.8311V88.156C507.013 88.7122 506.034 90.0917 506.034 91.627C506.034 93.2735 507.435 94.1636 509.503 94.8088V94.8311ZM517.575 106.157C517.575 104.51 516.218 103.62 514.195 102.908V109.383C516.53 108.871 517.575 107.647 517.575 106.134V106.157Z" fill="white"/>
<path d="M121.895 76.0962V69.5769H114.646C114.246 67.1071 113.356 64.7931 112.045 62.7905L117.025 57.8064L112.423 53.2006L107.531 58.0957C105.507 56.6494 103.195 55.6482 100.66 55.1587V48.3278H94.145V55.1587C91.6102 55.6259 89.2977 56.6494 87.2743 58.0957L82.3825 53.2006L77.7797 57.8064L82.7605 62.7905C81.4486 64.7931 80.5369 67.1071 80.1589 69.5769H72.9102V76.0962H80.3146C80.826 78.4325 81.8043 80.5908 83.1607 82.4821L77.7797 87.8667L82.3825 92.4725L87.8524 86.9989C89.7424 88.2227 91.8548 89.1127 94.145 89.5355V97.3453H100.66V89.5355C102.95 89.1127 105.085 88.2227 106.953 86.9989L112.423 92.4725L117.025 87.8667L111.644 82.4821C112.978 80.5908 113.979 78.4325 114.49 76.0962H121.895Z" stroke="#B5A7E9" stroke-miterlimit="10"/>
<path d="M108.976 72.3582C108.976 78.7663 103.795 83.9506 97.3913 83.9506C90.9875 83.9506 85.8066 78.7663 85.8066 72.3582C85.8066 65.9501 90.9875 60.7657 97.3913 60.7657C103.795 60.7657 108.976 65.9501 108.976 72.3582Z" stroke="#B5A7E9" stroke-miterlimit="10"/>
<path d="M573.053 353.158V346.638H565.804C565.404 344.169 564.514 341.855 563.202 339.852L568.183 334.868L563.58 330.262L558.688 335.157C556.665 333.711 554.353 332.71 551.818 332.22V325.389H545.303V332.22C542.768 332.688 540.455 333.711 538.432 335.157L533.54 330.262L528.937 334.868L533.918 339.852C532.606 341.855 531.695 344.169 531.317 346.638H524.068V353.158H531.472C531.984 355.494 532.962 357.652 534.318 359.544L528.937 364.928L533.54 369.534L539.01 364.061C540.9 365.284 543.012 366.174 545.303 366.597V374.407H551.818V366.597C554.108 366.174 556.243 365.284 558.11 364.061L563.58 369.534L568.183 364.928L562.802 359.544C564.136 357.652 565.137 355.494 565.648 353.158H573.053Z" stroke="#B5A7E9" stroke-miterlimit="10"/>
<path d="M560.134 349.398C560.134 355.806 554.953 360.99 548.549 360.99C542.145 360.99 536.964 355.806 536.964 349.398C536.964 342.989 542.145 337.805 548.549 337.805C554.953 337.805 560.134 342.989 560.134 349.398Z" stroke="#B5A7E9" stroke-miterlimit="10"/>
<path d="M307.983 417.995V405.068C307.983 394.877 299.734 386.622 289.55 386.622H203.899C193.715 386.622 185.466 378.368 185.466 368.177V289.967" stroke="#5B65D7" stroke-linecap="round" stroke-linejoin="round"/>
<path d="M418.093 284.56V349.598C418.093 355.828 413.046 360.901 406.798 360.901H392.856C386.63 360.901 381.561 365.952 381.561 372.204V429.276C381.561 435.506 376.513 440.58 370.265 440.58H359.214" stroke="#5B65D7" stroke-linecap="round" stroke-linejoin="round"/>
<path d="M94.1226 97.3454V159.335C94.1226 167.1 100.415 173.397 108.175 173.397H133.813C141.573 173.397 147.866 167.1 147.866 159.335V123.445C147.866 115.68 154.158 109.383 161.918 109.383H201.898" stroke="#5B65D7" stroke-linecap="round" stroke-linejoin="round"/>
<path d="M473.993 98.7916H454.315C444.509 98.7916 436.549 106.757 436.549 116.57V167.234C436.549 177.046 428.588 185.012 418.783 185.012H363.928C354.122 185.012 346.162 177.046 346.162 167.234V161.671" stroke="#5B65D7" stroke-linecap="round" stroke-linejoin="round"/>
</g>
<defs>
<linearGradient id="paint0_linear_161_3293" x1="384.961" y1="476.978" x2="497.109" y2="476.978" gradientUnits="userSpaceOnUse">
<stop stop-color="#9942FF"/>
<stop offset="1" stop-color="#4D6DFF"/>
</linearGradient>
<linearGradient id="paint1_linear_161_3293" x1="111.182" y1="489.906" x2="279.706" y2="489.906" gradientUnits="userSpaceOnUse">
<stop stop-color="#9942FF"/>
<stop offset="1" stop-color="#4D6DFF"/>
</linearGradient>
<clipPath id="clip0_161_3293">
<rect width="597" height="650" fill="white"/>
</clipPath>
</defs>
</svg>
