<svg width="1201" height="840" viewBox="0 0 1201 840" fill="none" xmlns="http://www.w3.org/2000/svg">
<path opacity="0.16" d="M59.037 758.871C59.037 758.871 -33.2083 662.249 12.9143 516.319C59.037 370.389 246.466 314.539 271.984 264.965C297.501 215.391 303.11 100.614 385.236 40.7733C481.574 -29.4231 620.55 -5.08451 685.128 83.9373C749.705 172.959 807.945 285.174 890.794 294.428C973.64 303.681 1056.07 294.538 1122.8 423.206C1189.53 551.874 1106.12 729.435 1080.6 759.846" fill="#B5A7E9"/>
<path d="M50.3509 735.384C50.3509 735.384 43.5993 763.755 76.988 770.438C122.656 779.577 390.269 791.182 325.146 809.429C288.384 819.729 343.913 833.716 522.97 838.866C702.027 844.016 1009.28 823.837 905.953 793.979C802.63 764.12 1224.72 797.491 1199.08 735.385L50.3509 735.384Z" fill="#D4DFFF"/>
<path d="M1029.64 323.214L1052.46 287.534L1031.94 274.457C1034.39 267.063 1035.79 259.465 1036.18 251.866L1060.21 246.573L1051.07 205.238L1027.94 210.332C1024.15 202.326 1019.1 194.849 1012.86 188.23L1026.34 167.16L990.59 144.384L977.12 165.453C969.09 162.798 960.82 161.38 952.576 161.141L947.774 139.428L906.359 148.552L911.161 170.264C903.782 173.946 896.881 178.705 890.72 184.486L870.196 171.409L847.375 207.089L867.899 220.166C865.034 228.791 863.608 237.693 863.544 246.55L840.42 251.643L849.562 292.979L873.59 287.685C877.148 294.414 881.623 300.718 886.969 306.394L873.492 327.463L909.242 350.24L922.718 329.17C930.744 331.826 939.011 333.243 947.257 333.483L952.853 358.789L994.27 349.665L988.67 324.359C996.05 320.677 1002.95 315.918 1009.11 310.138L1029.64 323.214ZM931.245 281.2C886.934 256.533 924.123 189.346 968.59 213.424C1012.9 238.091 975.71 305.278 931.245 281.2Z" fill="url(#paint0_linear_674_2318)"/>
<path d="M675.534 649.836H555.346V758.484H675.534V649.836Z" fill="#6880E4"/>
<path d="M675.534 586.073H555.346V709.471H675.534V586.073Z" fill="#6880E4"/>
<path d="M799.595 779.765H431.285C423.892 779.765 417.898 773.783 417.898 766.404C417.898 759.025 423.892 753.043 431.285 753.043H799.595C806.988 753.043 812.982 759.025 812.982 766.404C812.981 773.783 806.988 779.765 799.595 779.765Z" fill="#6880E4"/>
<path d="M276.41 664.576V270.628C276.41 255.635 288.56 243.48 303.548 243.48H927.33C942.318 243.48 954.468 255.635 954.468 270.628V664.576C954.468 679.569 942.318 691.723 927.33 691.723H303.548C288.56 691.723 276.41 679.569 276.41 664.576Z" fill="#6880E4"/>
<path d="M615.44 680.407C623.288 680.407 629.651 674.058 629.651 666.225C629.651 658.393 623.288 652.043 615.44 652.043C607.592 652.043 601.23 658.393 601.23 666.225C601.23 674.058 607.592 680.407 615.44 680.407Z" fill="white"/>
<path opacity="0.44" d="M927.918 269.809V378.194L766.435 621.439L302.961 466.826V269.809H927.918Z" fill="white"/>
<path d="M302.961 466.825C302.961 466.825 396.209 381.609 490.754 433.585C585.299 485.56 602.353 589.793 729.086 579.35C859.161 568.631 772.485 395.433 927.918 378.193V634.096H302.961V466.825Z" fill="#D4CCF3"/>
<path d="M302.961 269.809C302.961 269.809 326.663 368.75 477.454 345.323C615.439 323.885 608.406 469.731 698.655 474.966C788.905 480.201 815.447 375.693 848.715 339.07C881.982 302.448 927.918 308.701 927.918 308.701V269.809H302.961Z" fill="#EEEEFD"/>
<path d="M588.656 487.893C588.548 487.893 588.44 487.867 588.34 487.812L395.895 382.185C395.577 382.011 395.461 381.612 395.636 381.294C395.811 380.976 396.21 380.86 396.527 381.034L588.972 486.66C589.29 486.835 589.406 487.234 589.232 487.552C589.112 487.77 588.887 487.893 588.656 487.893Z" fill="#6880E4"/>
<path d="M492.433 428.531H485.273V435.677H492.433V428.531Z" fill="#6880E4"/>
<path d="M396.21 384.62C397.875 384.62 399.226 383.272 399.226 381.61C399.226 379.947 397.875 378.599 396.21 378.599C394.544 378.599 393.193 379.947 393.193 381.61C393.193 383.272 394.544 384.62 396.21 384.62Z" fill="#6880E4"/>
<path d="M592.032 487.344C592.032 489.006 590.681 490.354 589.016 490.354C587.35 490.354 586 489.006 586 487.344C586 485.682 587.35 484.334 589.016 484.334C590.681 484.334 592.032 485.682 592.032 487.344Z" fill="#6880E4"/>
<path d="M732.666 575.613H725.506V582.759H732.666V575.613Z" fill="#6880E4"/>
<path d="M602.353 590.45C602.015 590.45 601.728 590.191 601.7 589.847C601.67 589.486 601.939 589.169 602.3 589.139L859.801 567.911C860.177 567.879 860.479 568.15 860.509 568.511C860.54 568.873 860.271 569.19 859.909 569.22L602.408 590.448C602.389 590.449 602.371 590.45 602.353 590.45Z" fill="#6880E4"/>
<path d="M605.37 589.794C605.37 591.456 604.02 592.804 602.354 592.804C600.688 592.804 599.338 591.456 599.338 589.794C599.338 588.131 600.689 586.783 602.354 586.783C604.02 586.783 605.37 588.131 605.37 589.794Z" fill="#6880E4"/>
<path d="M862.87 568.565C862.87 570.228 861.52 571.575 859.854 571.575C858.188 571.575 856.838 570.228 856.838 568.565C856.838 566.903 858.188 565.555 859.854 565.555C861.52 565.555 862.87 566.903 862.87 568.565Z" fill="#6880E4"/>
<path d="M756.854 397.83H869.108C876.772 397.83 882.986 404.045 882.986 411.714V472.544C882.986 480.212 876.773 486.428 869.108 486.428H756.854C749.189 486.428 742.975 480.212 742.975 472.544V411.713C742.975 404.045 749.188 397.83 756.854 397.83Z" fill="#84B4FE"/>
<path d="M863.602 438.086V417.877H843.354V438.086H863.602Z" fill="url(#paint1_linear_674_2318)"/>
<path d="M863.602 466.38V446.171H843.354V466.38H863.602Z" fill="url(#paint2_linear_674_2318)"/>
<path d="M843.354 438.086V417.877H823.105V438.086H843.354Z" fill="url(#paint3_linear_674_2318)"/>
<path d="M843.354 466.381V446.171H823.105V466.381H843.354Z" fill="url(#paint4_linear_674_2318)"/>
<path d="M823.105 438.086V417.876H802.857V438.086H823.105Z" fill="url(#paint5_linear_674_2318)"/>
<path d="M823.105 466.38V446.171H802.857V466.38H823.105Z" fill="url(#paint6_linear_674_2318)"/>
<path d="M802.855 438.086V417.877H782.607V438.086H802.855Z" fill="url(#paint7_linear_674_2318)"/>
<path d="M802.855 466.38V446.171H782.607V466.38H802.855Z" fill="url(#paint8_linear_674_2318)"/>
<path d="M782.607 438.086V417.877H762.359V438.086H782.607Z" fill="url(#paint9_linear_674_2318)"/>
<path d="M782.607 466.38V446.171H762.359V466.38H782.607Z" fill="url(#paint10_linear_674_2318)"/>
<path d="M530.037 360.062H386.812C380.974 360.062 376.24 355.328 376.24 349.487V297.811C376.24 291.971 380.973 287.235 386.812 287.235H530.036C535.875 287.235 540.608 291.97 540.608 297.811V349.487C540.608 355.328 535.875 360.062 530.037 360.062Z" fill="#84B4FE"/>
<path d="M407.745 310.227H389.814V328.123H407.745V310.227Z" fill="#1D3F70"/>
<path d="M416.71 319.175H398.779V337.071H416.71V319.175Z" fill="#1D3F70"/>
<path d="M444.519 310.227H426.588V328.123H444.519V310.227Z" fill="#1D3F70"/>
<path d="M453.486 319.175H435.555V337.071H453.486V319.175Z" fill="#A9BFF7"/>
<path d="M481.296 310.227V319.176H472.33V328.123H463.363V310.227H481.296Z" fill="#A9BFF7"/>
<path d="M481.297 319.176H472.33V328.122H481.297V319.176Z" fill="#1D3F70"/>
<path d="M490.26 319.176V337.071H472.33V328.122H481.297V319.176H490.26Z" fill="#A9BFF7"/>
<path d="M518.072 310.227V319.176H509.105V328.123H500.139V310.227H518.072Z" fill="#1D3F70"/>
<path d="M518.073 319.176H509.105V328.122H518.073V319.176Z" fill="#A9BFF7"/>
<path d="M527.036 319.176V337.072H509.105V328.123H518.073V319.176H527.036Z" fill="#1D3F70"/>
<path d="M486.381 600.663H436.577C429.867 600.663 424.428 595.222 424.428 588.509V538.859C424.428 532.146 429.867 526.705 436.577 526.705H486.381C493.091 526.705 498.53 532.146 498.53 538.859V588.509C498.53 595.222 493.091 600.663 486.381 600.663Z" fill="#84B4FE"/>
<path d="M479.836 561.157V581.994H458.934V561.157H479.836ZM485.197 555.793H453.572V587.357H485.197V555.793Z" fill="white"/>
<path d="M469.385 540.012H437.76V571.575H469.385V540.012Z" fill="#D0DCF8"/>
<path d="M453.573 588.182C453.361 588.182 453.15 588.101 452.989 587.94C452.667 587.617 452.668 587.095 452.991 586.773L484.615 555.209C484.938 554.887 485.46 554.888 485.782 555.21C486.104 555.533 486.103 556.056 485.781 556.377L454.156 587.941C453.994 588.102 453.784 588.182 453.573 588.182Z" fill="url(#paint11_linear_674_2318)"/>
<path d="M241.154 364.615V208.303C241.154 201.157 246.946 195.363 254.09 195.363H329.172C336.316 195.363 342.107 201.157 342.107 208.303V364.615C342.107 371.762 336.316 377.556 329.172 377.556H254.09C246.946 377.555 241.154 371.762 241.154 364.615Z" fill="#84B4FE"/>
<path d="M328.198 353.481L318.201 343.504C319.755 341.639 320.602 339.314 320.602 336.859C320.602 334.075 319.516 331.458 317.544 329.49C313.474 325.428 306.854 325.428 302.784 329.49C300.812 331.458 299.727 334.075 299.727 336.859C299.727 339.642 300.812 342.259 302.784 344.227C304.819 346.258 307.492 347.274 310.164 347.274C312.531 347.274 314.897 346.473 316.821 344.879L326.822 354.861L328.198 353.481ZM304.161 342.847C302.558 341.248 301.675 339.121 301.675 336.859C301.675 334.596 302.558 332.469 304.161 330.87C305.815 329.218 307.99 328.392 310.164 328.392C312.338 328.392 314.513 329.218 316.168 330.87C317.77 332.469 318.653 334.597 318.653 336.859C318.653 339.121 317.77 341.247 316.168 342.847C312.857 346.151 307.471 346.151 304.161 342.847Z" fill="white"/>
<path d="M314.104 282.434C310.872 282.434 307.641 281.206 305.18 278.751C302.796 276.371 301.482 273.206 301.482 269.841C301.482 266.475 302.796 263.31 305.18 260.93C310.101 256.019 318.108 256.019 323.029 260.93C325.414 263.31 326.726 266.475 326.726 269.841C326.726 273.206 325.413 276.371 323.029 278.751C320.568 281.207 317.336 282.434 314.104 282.434ZM314.104 259.195C311.371 259.195 308.637 260.233 306.556 262.31C304.541 264.322 303.431 266.996 303.431 269.841C303.431 272.685 304.541 275.359 306.556 277.371C310.719 281.524 317.49 281.524 321.652 277.371C323.668 275.359 324.777 272.685 324.777 269.841C324.777 266.996 323.668 264.322 321.652 262.31C319.572 260.234 316.838 259.195 314.104 259.195Z" fill="white"/>
<path d="M322.721 295.331L304.105 313.911L305.482 315.29L324.097 296.71L322.721 295.331Z" fill="white"/>
<path d="M258.96 222.569L275.386 233.519L266.151 232.698C266.093 232.692 266.035 232.69 265.978 232.69C265.223 232.69 264.529 233.129 264.208 233.825L260.332 242.248L258.96 222.569ZM256.74 218.747L258.918 249.982L265.978 234.64L282.828 236.138L256.74 218.747Z" fill="white"/>
<path d="M301.061 218.747L303.238 249.983L310.298 234.64L327.149 236.138L301.061 218.747Z" fill="white"/>
<path d="M258.957 294.896V299.848H260.906V296.846H268.81V313.787H265.848V315.736H273.72V313.787H270.758V296.846H278.662V299.848H280.611V294.896H258.957Z" fill="white"/>
<path d="M273.674 264.992L255.059 283.572L256.435 284.952L275.05 266.372L273.674 264.992Z" fill="white"/>
<path d="M271.837 261.721C269.223 261.721 267.105 263.835 267.105 266.443C267.105 263.834 264.987 261.721 262.373 261.721C264.987 261.721 267.105 259.608 267.105 256.999C267.105 259.607 269.223 261.721 271.837 261.721Z" fill="white"/>
<path d="M281.135 258.986C279.163 258.986 277.565 260.581 277.565 262.549C277.565 260.581 275.968 258.986 273.996 258.986C275.968 258.986 277.565 257.392 277.565 255.424C277.565 257.392 279.163 258.986 281.135 258.986Z" fill="white"/>
<path d="M283.818 267.81C281.846 267.81 280.249 269.404 280.249 271.372C280.249 269.404 278.652 267.81 276.68 267.81C278.652 267.81 280.249 266.216 280.249 264.248C280.249 266.216 281.847 267.81 283.818 267.81Z" fill="white"/>
<path d="M282.221 328.397C281.37 327.547 279.99 327.546 279.139 328.395L276.688 330.837L275.781 329.93C274.93 329.08 273.551 329.079 272.699 329.928C271.992 330.632 271.881 331.697 272.346 332.526L256.924 347.895C256.159 348.659 255.737 349.674 255.736 350.754C255.735 351.835 256.156 352.85 256.921 353.614C257.71 354.403 258.747 354.798 259.785 354.798C260.82 354.798 261.856 354.405 262.645 353.619L278.069 338.246C278.899 338.712 279.966 338.602 280.673 337.898C281.524 337.049 281.525 335.672 280.675 334.822L279.768 333.915L282.219 331.473C283.07 330.624 283.071 329.247 282.221 328.397ZM261.269 352.238C260.449 353.055 259.116 353.054 258.298 352.235C257.902 351.84 257.684 351.314 257.684 350.756C257.685 350.197 257.903 349.672 258.3 349.277L273.661 333.969L276.626 336.933L261.269 352.238Z" fill="white"/>
<path d="M617.198 209.691H392.322C385.739 209.691 380.402 204.353 380.402 197.767V160.429C380.402 153.843 385.739 148.505 392.322 148.505H617.197C623.781 148.505 629.117 153.843 629.117 160.429V197.767C629.118 204.353 623.781 209.691 617.198 209.691Z" fill="#84B4FE"/>
<path d="M397.964 166.97H395.764V193.431H397.964V166.97Z" fill="white"/>
<path d="M412.624 170.032H399.625V177.534H412.624V170.032Z" fill="white"/>
<path d="M417.419 179.753H399.625V187.255H417.419V179.753Z" fill="white"/>
<path d="M495.423 166.97H493.223V193.431H495.423V166.97Z" fill="white"/>
<path d="M478.562 177.534H491.561V170.032H478.562V177.534Z" fill="white"/>
<path d="M473.768 187.256H491.562V179.754H473.768V187.256Z" fill="white"/>
<path d="M446.693 166.97H444.492V193.431H446.693V166.97Z" fill="white"/>
<path d="M453.494 170.032H437.693V177.534H453.494V170.032Z" fill="white"/>
<path d="M456.406 179.753H434.777V187.255H456.406V179.753Z" fill="white"/>
<path d="M574.204 179.1H547.691V181.301H574.204V179.1Z" fill="white"/>
<path d="M571.136 188.085V172.316H563.619V188.085H571.136Z" fill="white"/>
<path d="M561.397 190.994V169.407H553.881V190.994H561.397Z" fill="white"/>
<path d="M535.752 166.954H509.24V169.155H535.752V166.954Z" fill="white"/>
<path d="M531.124 186.529V170.759H523.607V186.529H531.124Z" fill="white"/>
<path d="M521.384 192.346V170.759H513.867V192.346H521.384Z" fill="white"/>
<path d="M612.656 191.246H586.145V193.447H612.656V191.246Z" fill="white"/>
<path d="M600.512 173.872V189.642H608.028V173.872H600.512Z" fill="white"/>
<path d="M590.771 168.055V189.642H598.289V168.055H590.771Z" fill="white"/>
<path d="M356.319 134.105L359.197 119.318L347.85 117.119C347.885 114.727 347.725 112.362 347.366 110.048L358.283 106.295L353.367 92.0529L342.435 95.8109C341.278 93.7479 339.951 91.7849 338.467 89.9399L346.051 81.2309L334.659 71.3499L327.085 80.0479C325.069 78.8499 322.933 77.8169 320.697 76.9539L322.901 65.6289L308.086 62.7559L305.882 74.0819C303.485 74.0459 301.116 74.2059 298.798 74.5639L295.037 63.6689L280.768 68.5749L284.533 79.4849C282.466 80.6399 280.499 81.9649 278.651 83.4459L269.925 75.8769L260.025 87.2459L268.74 94.8049C267.539 96.8169 266.503 98.9489 265.639 101.18L254.292 98.9809L251.414 113.767L262.761 115.967C262.726 118.359 262.886 120.723 263.245 123.037L252.328 126.79L257.243 141.032L268.174 137.274C269.332 139.337 270.66 141.301 272.143 143.145L264.559 151.854L275.951 161.735L283.525 153.037C285.54 154.235 287.677 155.269 289.913 156.132L287.708 167.457L302.524 170.329L304.728 159.003C307.125 159.039 309.494 158.879 311.812 158.52L315.573 169.416L329.842 164.51L326.076 153.6C328.144 152.445 330.111 151.12 331.959 149.64L340.685 157.209L350.585 145.839L341.87 138.28C343.071 136.269 344.106 134.136 344.971 131.905L356.319 134.105ZM301.249 137.389C273.885 131.599 281.822 90.8399 309.364 95.6969C336.727 101.488 328.79 142.247 301.249 137.389Z" fill="url(#paint12_linear_674_2318)"/>
<path d="M750.148 58.9319C750.148 58.9319 755.638 48.5459 772.101 51.7529C788.563 54.9599 792.291 75.8709 797.812 85.4179C809.508 105.642 812.891 127.061 806.653 137.29C799.725 148.65 784.658 144.069 762.619 141.851C739.101 139.484 729.4 119.019 744.26 91.1009L750.148 58.9319Z" fill="#1C056D"/>
<path d="M756.611 107.459C750.09 116.843 745.613 162.813 745.451 166.387C737.87 165.769 719.66 164.283 711.895 163.649C709.832 146.792 732.473 112.431 752.911 108.498C752.911 108.493 752.911 108.493 752.911 108.493C755.215 107.731 756.611 107.459 756.611 107.459Z" fill="#8F80C7"/>
<path d="M659.02 360.326L691.804 360.222C691.761 354.992 690.448 344.423 691.535 338.464L677.37 340.176C677.739 343.046 678.562 349.269 673.783 350.72C667.592 352.6 660.873 351.954 656.982 356.667C655.968 358.253 657.136 360.332 659.02 360.326Z" fill="#FFB7D6"/>
<path d="M692.755 357.069C692.625 358.176 692.322 359.251 691.77 360.222L658.666 360.327C657.057 360.333 655.887 358.755 656.416 357.238C657.662 353.692 661.781 348.551 677.037 347.706C677.037 347.706 682.616 348.637 691.146 347.067C691.146 347.067 693.29 352.581 692.755 357.069Z" fill="#517FC4"/>
<path d="M763.851 236.224C747.722 235.422 719.683 226.334 707.399 246.726C693.951 268.998 696.83 316.491 697.993 339.44C680.236 344.995 670.757 339.228 670.757 339.228C663.578 292.212 639.563 185.059 722.548 200.547C722.547 200.544 778.278 200.977 778.278 200.977C787.451 220.014 778.991 236.025 763.851 236.224Z" fill="#3A376B"/>
<path d="M698.331 360.63L731.115 360.526C731.072 355.296 729.758 344.727 730.845 338.768L716.68 340.482C717.05 343.351 717.983 349.576 713.094 351.023C706.89 352.861 700.184 352.257 696.292 356.971C695.279 358.556 696.446 360.637 698.331 360.63Z" fill="#FFB7D6"/>
<path d="M732.102 357.373C731.972 358.48 731.669 359.556 731.116 360.527L698.012 360.632C696.403 360.637 695.233 359.06 695.762 357.543C697.007 353.997 701.177 348.767 716.433 347.922C716.433 347.922 721.928 349.013 730.458 347.444C730.458 347.444 732.637 352.886 732.102 357.373Z" fill="#517FC4"/>
<path d="M789.865 239.705C772.07 248.439 751.094 236.786 739.032 260.621C729.284 281.496 734.345 321.572 736.835 339.742C719.078 345.296 709.599 339.529 709.599 339.529C699.413 298.941 676.129 204.617 744.04 200.712C762.631 200.266 787.052 200.619 803.487 199.759C803.487 199.759 811.868 228.906 789.865 239.705Z" fill="#3A376B"/>
<path d="M803.892 190.181C805.251 200.452 804.498 204.782 804.498 204.782C777.099 207.965 759.839 207.99 726.545 203.084C748.087 140.32 700.388 180.412 756.611 107.459C756.745 107.471 770.255 108.797 770.378 108.806C785.932 120.673 795.89 136.324 803.892 190.181Z" fill="#B5A7E9"/>
<path d="M669.088 203.726L742.849 204.301L728.583 150.225L655.27 149.654L669.088 203.726Z" fill="#6880E4"/>
<path d="M669.079 203.428L669.051 207.092L742.814 207.668L742.842 204.003L669.079 203.428Z" fill="#1C056D"/>
<path d="M727.477 150.217L730.116 150.237L744.08 204.043L779.084 204.316L779.055 207.98L741.594 207.689L741.62 204.411L727.477 150.217Z" fill="#4359B7"/>
<path d="M794.549 119.446C811.453 132.298 820.356 155.258 815.702 176.038C813.89 187.718 806.411 198.781 794.822 202C789.095 204.234 762.436 207.692 763.75 198.267C764.19 196.007 766.208 195.189 768.161 194.599C771.38 193.494 774.699 192.272 777.771 190.907C783.276 188.109 790.345 185.503 791.586 179.369C794.24 165.045 788.46 150.975 777.794 141.527C777.813 141.538 777.744 141.484 777.902 141.6C763.432 130.667 779.991 108.648 794.549 119.446Z" fill="#FFB7D6"/>
<path d="M804.115 199.509C795.427 203.299 787.219 204.419 780.914 204.598C780.914 204.598 782.442 195.222 775.676 191.302C814.191 162.559 759.601 149.909 770.438 107.318C811.486 108.369 853.389 170.806 804.115 199.509Z" fill="#8F80C7"/>
<path d="M747.457 204.069C747.457 204.069 750.832 192.631 770.432 194.105L774.46 204.28L747.457 204.069Z" fill="#FFB7D6"/>
<path d="M756.982 102.572L756.61 107.458C756.61 107.458 756.116 112.156 756.047 120.898C755.951 133.188 759.004 131.781 763.289 123.228C765.644 118.529 770.439 107.319 770.439 107.319L771.155 98.7256L756.982 102.572Z" fill="#FFB7D6"/>
<path d="M755.885 58.3391C738.112 56.0711 735.071 84.0751 747.08 94.4811L755.885 58.3391Z" fill="#1C056D"/>
<path d="M776.702 78.2509C777.512 84.3779 777.512 91.5559 774.047 96.8049L774.04 96.8069C764.561 112.012 733.668 101.921 742.295 83.8709C743.56 81.5689 744.284 78.7639 744.395 76.3799C744.871 51.3649 774.392 56.8449 776.702 78.2509Z" fill="#FFB7D6"/>
<path d="M749.236 63.0951C749.236 63.0951 752.423 79.6551 772.599 80.8131L778.05 75.2631C780.677 60.8881 763.65 46.0181 749.236 63.0951Z" fill="#1C056D"/>
<path d="M781.309 80.0918C781.97 87.0988 773.103 87.8318 772.6 80.8118C771.938 73.8068 780.806 73.0728 781.309 80.0918Z" fill="#FFB7D6"/>
<path d="M388.174 514.968C388.174 514.968 392.622 515.626 395.715 513.286L391.521 511.622L388.174 514.968Z" fill="#FFB7D6"/>
<path d="M228.31 777.288L227.727 776.984C227.727 777.391 227.223 778.806 226.815 778.806L209.575 779.16C209.167 779.16 208.916 778.393 208.916 777.986L207.445 777.566C207.445 774.99 207.658 774.055 208.798 772.061C212.99 766.502 207.986 741.636 208.13 735.14C207.097 733.363 226.285 734.757 226.553 734.338C226.984 734.338 227.324 734.705 227.289 735.134L225.031 763.547C224.018 768.941 228.166 772.202 228.31 777.288Z" fill="#FFB7D6"/>
<path d="M313.58 779.763H279.24C276.243 779.643 276.265 776.592 276.818 774.226C278.709 765.696 275.367 746.112 274.747 737.34C274.582 735.734 275.845 734.338 277.463 734.338C302.801 734.081 294.174 730.587 292.683 757.897C291.924 771.793 302.462 770.682 308.955 771.735C313.229 772.044 320.379 777.868 313.58 779.763Z" fill="#FFB7D6"/>
<path d="M275.512 776.208C275.605 777.889 276.44 779.805 278.39 779.764H314.009C322.411 776.654 310.341 765.531 293.895 765.597C286.361 767.661 277.383 766.232 277.383 766.232C277.383 766.232 274.958 769.314 275.512 776.208Z" fill="#517FC4"/>
<path d="M210.178 779.764H225.402C232.821 778.753 227.52 765.612 217.79 765.213C208.008 764.81 202.764 778.766 210.178 779.764Z" fill="#517FC4"/>
<path d="M289.073 516.352C322.595 541.89 364.153 531.427 387.935 513.663L390.149 503.625C335.294 507.867 321.897 480.863 286.848 468.601L289.9 479.665C289.9 479.665 288.699 515.533 289.073 516.352Z" fill="#8F80C7"/>
<path d="M297.015 757.02C284.094 761.855 269.771 758.169 269.771 758.169C269.953 756.425 270.117 754.654 270.264 752.858C275.144 692.513 258.809 607.463 257.131 601.272C257.131 601.268 257.127 601.264 257.127 601.264C257.049 600.966 257.001 600.854 256.997 600.949C246.273 670.883 235.648 728.876 230.665 755.95C217.934 761.891 205.017 753.39 205.017 753.39C204.939 750.947 204.874 748.546 204.818 746.163C201.881 699.176 208.599 554.99 232.919 526.835C261.133 540.802 299.923 542.983 299.923 542.983C306.411 665.896 306.095 724.644 297.015 757.02Z" fill="#3A376B"/>
<path d="M282.747 467.077C284.355 458.59 288.259 443.322 281.864 439.559C277.36 437.097 271.011 440.211 271.575 445.839C272.054 445.64 270.852 461.214 269.175 465.312C255.913 466.968 291.78 485.782 282.747 467.077Z" fill="#FFB7D6"/>
<path d="M217.511 567.953C236.292 582.135 282.313 586.554 301.066 579.779C307.387 577.107 308.271 555.858 307.538 534.989C306.414 507.171 299.71 487.191 286.847 468.602C286.689 468.537 284.154 467.323 282.752 467.086C282.815 469.627 282.233 476.972 269.177 465.313C269.119 465.363 264.256 465.524 264.256 465.524C244.503 475.374 236.051 496.315 229.886 520.178C220.43 556.788 213.787 562.428 217.511 567.953Z" fill="#B5A7E9"/>
<path d="M295.157 433.777C295.157 433.777 294.656 426.559 292.135 421.696L288.102 423.936L295.157 433.777Z" fill="#1C056D"/>
<path d="M296.378 454.908C290.253 461.526 280.173 462.999 272.648 459.211L272.646 459.212C272.085 458.903 271.552 458.562 271.04 458.182L271.033 458.183C246.717 436.17 276.116 396.541 292.165 428.957C297.493 438.044 306.18 442.611 296.378 454.908Z" fill="#FFB7D6"/>
<path d="M293.979 411.308C290.798 405.783 282.082 403.143 275.063 410.543C269.659 416.241 263.516 416.518 263.938 422.201C252.799 427.964 259.116 440.208 259.116 440.208L264.799 439.236C271.056 433.621 270.452 425.878 270.452 425.878L270.45 425.877C271.911 425.872 273.442 425.73 274.782 425.313C278.934 424.021 285.134 423.178 289.972 424.675C294.808 426.171 297.534 417.483 293.979 411.308Z" fill="#1C056D"/>
<path d="M258.542 444.85C259.313 447.748 261.835 449.596 264.174 448.976C266.513 448.357 267.784 445.505 267.012 442.607C266.241 439.709 263.72 437.862 261.381 438.482C259.042 439.101 257.77 441.952 258.542 444.85Z" fill="#FFB7D6"/>
<path d="M490.255 437.823L488.909 435.68L462.161 452.415C462.557 454.037 461.904 455.798 460.416 456.74C458.592 457.897 456.07 457.347 454.896 455.536C453.678 453.657 454.239 451.152 456.133 449.967C457.635 449.027 459.519 449.205 460.816 450.271L487.563 433.537L486.217 431.394L451.349 437.995C448.105 438.609 445.205 440.406 443.213 443.036L432.705 456.913L438.313 465.842L443.922 474.771L461.015 471.379C464.254 470.736 467.138 468.914 469.106 466.267L490.255 437.823Z" fill="white"/>
<path d="M195.118 619.221L194.012 617.46C189.896 610.906 191.882 602.263 198.449 598.154L427.887 454.608L443.9 480.103L214.461 623.649C207.895 627.757 199.235 625.775 195.118 619.221Z" fill="url(#paint13_linear_674_2318)"/>
<path d="M436.901 479.667L425.231 461.086C423.772 458.764 424.476 455.7 426.803 454.244C429.13 452.788 432.2 453.49 433.659 455.813L445.329 474.393C446.787 476.716 446.084 479.78 443.756 481.236C441.43 482.692 438.36 481.99 436.901 479.667Z" fill="#4359B7"/>
<path d="M241.829 571.015L238.628 573.017C238.628 573.017 241.365 575.867 243.726 577C246.033 578.107 248.294 579.203 250.803 580.003C254.338 584.5 240.915 579.763 239.278 579.555C239.268 579.586 239.268 579.584 239.257 579.614C242.436 581.987 245.759 584.175 249.258 586.048C251.839 591.558 238.531 582.952 237.006 582.24C237.002 582.255 237.002 582.254 236.997 582.268C239.579 585.042 242.523 587.48 245.706 589.544C247.815 595.348 235.065 585.552 233.807 584.331C233.793 584.339 233.779 584.346 233.764 584.352C235.461 586.855 237.493 589.128 239.634 591.267C240.868 597.039 231.065 586.831 230.071 585.59C229.086 585.14 223.722 581.025 220.467 574.959C219.4 572.971 224.602 567.994 226.85 568.208C226.85 568.208 232.778 568.62 233.772 568.828C236.062 568.971 239.42 570.311 241.829 571.015Z" fill="#FFB7D6"/>
<path d="M392.07 512.495C395.215 515.757 398.924 511.277 394.099 510.118L394.155 510.173C392.426 508.436 390.41 510.907 392.07 512.495Z" fill="#FFB7D6"/>
<path d="M394.753 511.032C398.984 514.042 401.064 508.078 396.56 508.344C396.657 508.363 396.154 508.188 396.244 508.21C394.18 506.839 392.91 509.875 394.753 511.032Z" fill="#FFB7D6"/>
<path d="M397.611 509.589L399.258 510.124C401.584 510.79 401.703 507.298 399.749 506.801L398.103 506.266C395.777 505.6 395.658 509.092 397.611 509.589Z" fill="#FFB7D6"/>
<path d="M399.897 507.947L401.544 508.482C403.87 509.149 403.989 505.657 402.035 505.16L400.389 504.625C398.062 503.959 397.943 507.451 399.897 507.947Z" fill="#FFB7D6"/>
<path d="M264.256 465.523C264.256 465.523 233.142 462.61 205.423 491.381C184.843 512.742 171.721 549.089 220.409 575.125C220.409 575.125 222.042 569.896 226.85 568.207C226.85 568.207 218.075 547.629 220.5 536.576C223.181 524.349 238.265 512.66 249.855 498.273C259.972 485.715 264.256 465.523 264.256 465.523Z" fill="#8F80C7"/>
<defs>
<linearGradient id="paint0_linear_674_2318" x1="840.42" y1="249.108" x2="1060.21" y2="249.108" gradientUnits="userSpaceOnUse">
<stop stop-color="#FB9004"/>
<stop offset="1" stop-color="#FC067D"/>
</linearGradient>
<linearGradient id="paint1_linear_674_2318" x1="843.354" y1="427.982" x2="863.602" y2="427.982" gradientUnits="userSpaceOnUse">
<stop stop-color="#9942FF"/>
<stop offset="1" stop-color="#4D6DFF"/>
</linearGradient>
<linearGradient id="paint2_linear_674_2318" x1="843.354" y1="456.275" x2="863.602" y2="456.275" gradientUnits="userSpaceOnUse">
<stop stop-color="#FB9004"/>
<stop offset="1" stop-color="#FC067D"/>
</linearGradient>
<linearGradient id="paint3_linear_674_2318" x1="823.105" y1="427.982" x2="843.354" y2="427.982" gradientUnits="userSpaceOnUse">
<stop stop-color="#9942FF"/>
<stop offset="1" stop-color="#4D6DFF"/>
</linearGradient>
<linearGradient id="paint4_linear_674_2318" x1="823.105" y1="456.276" x2="843.354" y2="456.276" gradientUnits="userSpaceOnUse">
<stop stop-color="#FB9004"/>
<stop offset="1" stop-color="#FC067D"/>
</linearGradient>
<linearGradient id="paint5_linear_674_2318" x1="802.857" y1="427.981" x2="823.105" y2="427.981" gradientUnits="userSpaceOnUse">
<stop stop-color="#9942FF"/>
<stop offset="1" stop-color="#4D6DFF"/>
</linearGradient>
<linearGradient id="paint6_linear_674_2318" x1="802.857" y1="456.275" x2="823.105" y2="456.275" gradientUnits="userSpaceOnUse">
<stop stop-color="#FB9004"/>
<stop offset="1" stop-color="#FC067D"/>
</linearGradient>
<linearGradient id="paint7_linear_674_2318" x1="782.607" y1="427.982" x2="802.855" y2="427.982" gradientUnits="userSpaceOnUse">
<stop stop-color="#9942FF"/>
<stop offset="1" stop-color="#4D6DFF"/>
</linearGradient>
<linearGradient id="paint8_linear_674_2318" x1="782.607" y1="456.275" x2="802.855" y2="456.275" gradientUnits="userSpaceOnUse">
<stop stop-color="#FB9004"/>
<stop offset="1" stop-color="#FC067D"/>
</linearGradient>
<linearGradient id="paint9_linear_674_2318" x1="762.359" y1="427.982" x2="782.607" y2="427.982" gradientUnits="userSpaceOnUse">
<stop stop-color="#9942FF"/>
<stop offset="1" stop-color="#4D6DFF"/>
</linearGradient>
<linearGradient id="paint10_linear_674_2318" x1="762.359" y1="456.275" x2="782.607" y2="456.275" gradientUnits="userSpaceOnUse">
<stop stop-color="#FB9004"/>
<stop offset="1" stop-color="#FC067D"/>
</linearGradient>
<linearGradient id="paint11_linear_674_2318" x1="452.748" y1="571.575" x2="486.023" y2="571.575" gradientUnits="userSpaceOnUse">
<stop stop-color="#FB9004"/>
<stop offset="1" stop-color="#FC067D"/>
</linearGradient>
<linearGradient id="paint12_linear_674_2318" x1="251.414" y1="116.542" x2="359.197" y2="116.542" gradientUnits="userSpaceOnUse">
<stop stop-color="#9942FF"/>
<stop offset="1" stop-color="#FC067D"/>
</linearGradient>
<linearGradient id="paint13_linear_674_2318" x1="191.867" y1="540.2" x2="443.9" y2="540.2" gradientUnits="userSpaceOnUse">
<stop stop-color="#9942FF"/>
<stop offset="1" stop-color="#4D6DFF"/>
</linearGradient>
</defs>
</svg>
