<svg width="66" height="62" viewBox="0 0 66 62" fill="none" xmlns="http://www.w3.org/2000/svg">
<path fill-rule="evenodd" clip-rule="evenodd" d="M51.9485 50.1414C50.443 51.3105 48.5535 52.0077 46.5029 52.0077C41.6012 52.0077 37.6211 48.0275 37.6211 43.1259C37.6211 38.2243 41.6012 34.2441 46.5029 34.2441C51.4045 34.2441 55.3846 38.2243 55.3846 43.1259C55.3846 45.1765 54.6874 47.0661 53.5184 48.5716L55.9398 50.993L56.8202 50.1125C57.2532 49.6784 57.957 49.6784 58.39 50.1125L65.0514 56.7739C65.4854 57.2069 65.4854 57.9107 65.0514 58.3437L61.7207 61.6744C61.2877 62.1085 60.5838 62.1085 60.1508 61.6744L53.4895 55.0131C53.0554 54.5801 53.0554 53.8762 53.4895 53.4432L54.3699 52.5628L51.9485 50.1414ZM55.8443 54.2281L60.9358 59.3196L62.6966 57.5588L57.6051 52.4673L55.8443 54.2281ZM46.5029 36.4646C50.1788 36.4646 53.1642 39.45 53.1642 43.1259C53.1642 46.8019 50.1788 49.7873 46.5029 49.7873C42.8269 49.7873 39.8415 46.8019 39.8415 43.1259C39.8415 39.45 42.8269 36.4646 46.5029 36.4646Z" fill="url(#paint0_linear_663_4347)"/>
<rect x="2.72656" y="35.2754" width="10.1506" height="15.2259" fill="#DDDFE8"/>
<path fill-rule="evenodd" clip-rule="evenodd" d="M14.3061 35.3551C14.3061 34.7421 13.8087 34.2448 13.1959 34.2448H2.09365C1.48081 34.2448 0.983429 34.7421 0.983429 35.3551V50.8981C0.983429 51.5111 1.48081 52.0085 2.09365 52.0085H13.1959C13.8087 52.0085 14.3061 51.5111 14.3061 50.8981V35.3551ZM3.20387 36.4655V49.7878H12.0857V36.4655H3.20387Z" fill="url(#paint1_linear_663_4347)"/>
<path fill-rule="evenodd" clip-rule="evenodd" d="M32.0697 24.2531C32.0697 23.6392 31.5723 23.1426 30.9594 23.1426H19.8572C19.2444 23.1426 18.747 23.6392 18.747 24.2531V50.8982C18.747 51.5111 19.2444 52.0088 19.8572 52.0088H30.9594C31.5723 52.0088 32.0697 51.5111 32.0697 50.8982V24.2531ZM20.9674 25.3636V49.7877H29.8492V25.3636H20.9674Z" fill="url(#paint2_linear_663_4347)"/>
<path fill-rule="evenodd" clip-rule="evenodd" d="M2.0926 56.4489H48.7219C49.3351 56.4489 49.8321 55.9515 49.8321 55.3387C49.8321 54.7259 49.3351 54.2285 48.7219 54.2285H2.0926C1.47947 54.2285 0.982422 54.7259 0.982422 55.3387C0.982422 55.9515 1.47947 56.4489 2.0926 56.4489Z" fill="url(#paint3_linear_663_4347)"/>
<path fill-rule="evenodd" clip-rule="evenodd" d="M36.5106 15.3696H30.9595C30.5102 15.3696 30.1054 15.0987 29.9336 14.6834C29.7619 14.2693 29.8567 13.7919 30.1742 13.4744L42.3866 1.26307C42.8204 0.828976 43.5235 0.828976 43.9572 1.26307L56.1697 13.4755C56.4872 13.793 56.5819 14.2704 56.4102 14.6857C56.2385 15.0998 55.8337 15.3707 55.3844 15.3707H49.8333V30.9138C49.8333 31.5266 49.3359 32.024 48.7231 32.024C48.1102 32.024 47.6128 31.5266 47.6128 30.9138V14.2604C47.6128 13.6476 48.1102 13.1502 48.7231 13.1502H52.7043L43.1719 3.61785L33.6403 13.1491H37.6208C38.2337 13.1491 38.7311 13.6465 38.7311 14.2593V34.2444C38.7311 34.8573 38.2337 35.3547 37.6208 35.3547C37.008 35.3547 36.5106 34.8573 36.5106 34.2444V15.3696Z" fill="url(#paint4_linear_663_4347)"/>
<path fill-rule="evenodd" clip-rule="evenodd" d="M53.1633 28.6934C53.4578 28.6934 53.7402 28.5764 53.9484 28.3682C54.1566 28.16 54.2736 27.8776 54.2736 27.5831C54.2736 27.2887 54.1566 27.0063 53.9484 26.7981C53.7402 26.5899 53.4578 26.4729 53.1633 26.4729C52.8689 26.4729 52.5865 26.5899 52.3783 26.7981C52.1701 27.0063 52.0531 27.2887 52.0531 27.5831C52.0531 27.8776 52.1701 28.16 52.3783 28.3682C52.5865 28.5764 52.8689 28.6934 53.1633 28.6934Z" fill="url(#paint5_linear_663_4347)"/>
<path fill-rule="evenodd" clip-rule="evenodd" d="M52.052 18.7009V23.1418C52.052 23.7545 52.5494 24.252 53.1622 24.252C53.7751 24.252 54.2725 23.7545 54.2725 23.1418V18.7009C54.2725 18.0881 53.7751 17.5907 53.1622 17.5907C52.5494 17.5907 52.052 18.0881 52.052 18.7009Z" fill="url(#paint6_linear_663_4347)"/>
<defs>
<linearGradient id="paint0_linear_663_4347" x1="37.6211" y1="48.1221" x2="65.3769" y2="48.1221" gradientUnits="userSpaceOnUse">
<stop stop-color="#FB9004"/>
<stop offset="1" stop-color="#FC067D"/>
</linearGradient>
<linearGradient id="paint1_linear_663_4347" x1="0.982422" y1="28.6932" x2="56.4948" y2="28.6932" gradientUnits="userSpaceOnUse">
<stop stop-color="#9942FF"/>
<stop offset="1" stop-color="#FC067D"/>
</linearGradient>
<linearGradient id="paint2_linear_663_4347" x1="0.982422" y1="28.6932" x2="56.4948" y2="28.6932" gradientUnits="userSpaceOnUse">
<stop stop-color="#9942FF"/>
<stop offset="1" stop-color="#FC067D"/>
</linearGradient>
<linearGradient id="paint3_linear_663_4347" x1="0.982422" y1="28.6932" x2="56.4948" y2="28.6932" gradientUnits="userSpaceOnUse">
<stop stop-color="#9942FF"/>
<stop offset="1" stop-color="#FC067D"/>
</linearGradient>
<linearGradient id="paint4_linear_663_4347" x1="0.982422" y1="28.6932" x2="56.4948" y2="28.6932" gradientUnits="userSpaceOnUse">
<stop stop-color="#9942FF"/>
<stop offset="1" stop-color="#FC067D"/>
</linearGradient>
<linearGradient id="paint5_linear_663_4347" x1="0.982422" y1="28.6932" x2="56.4948" y2="28.6932" gradientUnits="userSpaceOnUse">
<stop stop-color="#9942FF"/>
<stop offset="1" stop-color="#FC067D"/>
</linearGradient>
<linearGradient id="paint6_linear_663_4347" x1="0.982422" y1="28.6932" x2="56.4948" y2="28.6932" gradientUnits="userSpaceOnUse">
<stop stop-color="#9942FF"/>
<stop offset="1" stop-color="#FC067D"/>
</linearGradient>
</defs>
</svg>
