<svg width="60" height="60" viewBox="0 0 60 60" fill="none" xmlns="http://www.w3.org/2000/svg">
<g clip-path="url(#clip0_663_4321)">
<path d="M21.0812 59.1891L20.6758 47.4323C22.0271 47.5674 25.1352 47.7566 26.7569 47.4323C28.7839 47.0269 31.6217 47.0269 34.0542 47.8377C36.0001 48.4864 38.3785 47.8377 39.3244 47.4323L39.7298 59.1891L30.4055 55.5404L21.0812 59.1891Z" fill="#DDDFE8"/>
<path d="M19.4654 19.7063L21.23 31.8104C21.314 32.3862 21.8077 32.8132 22.3896 32.8132H37.6098C38.1918 32.8132 38.6856 32.3862 38.7695 31.8104L40.5339 19.7063C40.6049 19.2184 40.3632 18.7383 39.929 18.505C39.4952 18.2717 38.9612 18.3351 38.5934 18.6635L34.0002 22.7686L31.0609 16.4965C30.6535 15.6038 29.3461 15.6042 28.9389 16.4965L25.9997 22.7686L21.4062 18.6635C21.0387 18.335 20.505 18.2716 20.0708 18.505C19.6361 18.7383 19.3943 19.2184 19.4654 19.7063ZM25.6116 25.5651C25.8876 25.8118 26.2641 25.9138 26.6271 25.8394C26.99 25.7652 27.2963 25.524 27.4535 25.1886L29.9996 19.7552L32.5458 25.1886C32.703 25.524 33.0094 25.7652 33.3722 25.8394C33.7352 25.9136 34.1116 25.8119 34.3878 25.5651L37.7493 22.5609L36.5964 30.4695H23.4029L22.2499 22.5609L25.6116 25.5651Z" fill="url(#paint0_linear_663_4321)"/>
<path d="M29.9997 7.03372C27.2445 7.03372 24.6048 7.65466 22.1536 8.87933C21.5747 9.16865 21.3399 9.87244 21.6291 10.4514C21.9182 11.0303 22.6221 11.265 23.2011 10.9759C33.0421 5.85663 45.4195 13.5021 45.2331 24.6112C45.2332 33.0108 38.3995 39.8446 29.9996 39.8446C18.8922 40.0299 11.2441 27.6539 16.3641 17.8131C16.6534 17.2343 16.4186 16.5303 15.8396 16.2411C15.2605 15.9517 14.5568 16.1867 14.2676 16.7656C8.35944 28.1219 17.1813 42.4024 29.9998 42.1881C53.2851 41.3053 53.2809 7.91398 29.9997 7.03372Z" fill="url(#paint1_linear_663_4321)"/>
<path d="M54.1492 28.4085C53.4733 25.7804 53.474 23.4393 54.1492 20.8134C54.5796 18.871 54.9861 17.0363 54.0052 14.6677C53.024 12.299 51.4392 11.2892 49.7613 10.2199C48.7641 9.58452 47.7329 8.92737 46.7081 7.90262C45.6833 6.87775 45.0261 5.84667 44.3909 4.84945C43.3216 3.17165 42.3117 1.58688 39.9431 0.605723C36.0944 -0.963689 33.733 1.01644 29.9998 0.981759C26.2668 1.01644 23.9053 -0.963689 20.0565 0.605723C17.6879 1.58688 16.678 3.17165 15.6088 4.84945C14.9734 5.84667 14.3164 6.87775 13.2915 7.90262C12.2667 8.92749 11.2355 9.58452 10.2383 10.2199C8.56064 11.289 6.97575 12.2989 5.99459 14.6675C5.01343 17.0362 5.42005 18.8709 5.85046 20.8133C6.52613 23.4409 6.52566 25.783 5.85034 28.4083C5.41994 30.3509 5.01343 32.1854 5.99448 34.5542C6.97564 36.9227 8.5604 37.9327 10.2383 39.0019C11.2355 39.6373 12.2667 40.2944 13.2915 41.3193C14.3164 42.344 14.9735 43.3752 15.6088 44.3724C16.5621 45.8686 17.4685 47.2908 19.3331 48.2769V58.8282C19.3331 59.2074 19.5165 59.5632 19.8255 59.783C20.1345 60.0028 20.5311 60.0597 20.889 59.9353L29.9997 56.7746L39.1106 59.9353C39.4667 60.0592 39.8644 60.0035 40.174 59.783C40.483 59.5632 40.6664 59.2074 40.6664 58.8282V48.2769C43.8493 46.5594 44.2538 43.7124 46.7081 41.3193C47.7329 40.2944 48.7641 39.6374 49.7613 39.002C51.439 37.9327 53.0239 36.9229 54.0049 34.5544C54.9862 32.1857 54.5796 30.3509 54.1492 28.4085ZM30.3837 54.4271C30.1349 54.3408 29.8644 54.3408 29.6156 54.4271L21.6766 57.1813V49.1013C23.2182 49.3957 24.7109 49.0995 26.2022 48.7603C28.8301 48.0845 31.1716 48.0852 33.7971 48.7603C35.274 49.0876 36.6885 49.4009 38.3226 49.1013V57.1813L30.3837 54.4271ZM51.8611 28.9154C52.2541 30.6895 52.5382 31.9714 51.8396 33.6574C51.1414 35.3434 50.0341 36.0489 48.5017 37.0254C47.4496 37.6959 46.2571 38.4558 45.051 39.662C43.8447 40.8682 43.0848 42.0608 42.4143 43.113C41.4378 44.6454 40.7322 45.7525 39.0462 46.4509C37.3602 47.1492 36.0785 46.8652 34.3042 46.4722C27.2124 44.6164 24.6729 47.9835 20.9533 46.4509C17.2561 44.9204 17.8111 40.7159 11.4978 37.0254C9.96541 36.0489 8.85816 35.3434 8.15987 33.6572C7.46147 31.9711 7.7454 30.6894 8.13855 28.9153C8.88617 26.0287 8.88523 23.1893 8.13855 20.3063C7.74552 18.5322 7.46147 17.2504 8.15987 15.5643C8.85816 13.8783 9.96552 13.1727 11.4978 12.1963C12.55 11.5259 13.7424 10.7659 14.9487 9.55968C16.1548 8.35353 16.9147 7.16098 17.5853 6.1088C18.5617 4.5763 19.2673 3.46917 20.9534 2.77077C24.6574 1.23229 27.1488 4.60384 34.3044 2.74944C38.1007 1.71778 40.4606 2.69753 42.4144 6.1088C43.0849 7.16098 43.8448 8.35342 45.051 9.55968C46.2572 10.7658 47.4498 11.5258 48.5019 12.1963C51.9156 14.1516 52.8917 16.5124 51.8611 20.3063C51.1132 23.1928 51.1142 26.0325 51.8611 28.9154Z" fill="url(#paint2_linear_663_4321)"/>
<path d="M18.399 14.1825C18.6991 14.1825 18.9992 14.068 19.228 13.839C19.6856 13.3814 19.6856 12.6394 19.228 12.1819C18.7703 11.7243 18.0286 11.7243 17.5707 12.1819L17.57 12.1826C17.1124 12.6402 17.1128 13.3818 17.5704 13.8394C17.7992 14.0682 18.099 14.1825 18.399 14.1825Z" fill="url(#paint3_linear_663_4321)"/>
</g>
<defs>
<linearGradient id="paint0_linear_663_4321" x1="19.4531" y1="24.3202" x2="40.5461" y2="24.3202" gradientUnits="userSpaceOnUse">
<stop stop-color="#FB9004"/>
<stop offset="1" stop-color="#FC067D"/>
</linearGradient>
<linearGradient id="paint1_linear_663_4321" x1="5.38867" y1="30" x2="54.6109" y2="30" gradientUnits="userSpaceOnUse">
<stop stop-color="#9942FF"/>
<stop offset="1" stop-color="#FC067D"/>
</linearGradient>
<linearGradient id="paint2_linear_663_4321" x1="5.38867" y1="30" x2="54.6109" y2="30" gradientUnits="userSpaceOnUse">
<stop stop-color="#9942FF"/>
<stop offset="1" stop-color="#FC067D"/>
</linearGradient>
<linearGradient id="paint3_linear_663_4321" x1="5.38867" y1="30" x2="54.6109" y2="30" gradientUnits="userSpaceOnUse">
<stop stop-color="#9942FF"/>
<stop offset="1" stop-color="#FC067D"/>
</linearGradient>
<clipPath id="clip0_663_4321">
<rect width="60" height="60" fill="white"/>
</clipPath>
</defs>
</svg>
