<svg width="39" height="39" viewBox="0 0 39 39" fill="none" xmlns="http://www.w3.org/2000/svg">
<g clip-path="url(#clip0_601_1817)">
<path fill-rule="evenodd" clip-rule="evenodd" d="M23.3781 15.0221C22.7982 14.7736 22.1264 15.0422 21.8779 15.6222L15.0224 31.6183C14.7738 32.1983 15.0425 32.87 15.6225 33.1186C16.2027 33.3672 16.8743 33.0983 17.1227 32.5185L23.9782 16.5224C24.2268 15.9423 23.9581 15.2707 23.3781 15.0221ZM13.5364 18.7862C13.1422 18.2934 12.423 18.2136 11.9305 18.6078L6.21762 23.1781C5.6464 23.6349 5.64602 24.5053 6.21762 24.9625L11.9305 29.5328C12.4233 29.9271 13.1424 29.8471 13.5364 29.3544C13.9306 28.8617 13.8508 28.1426 13.358 27.7485L8.76038 24.0703L13.358 20.3922C13.8508 19.998 13.9306 19.279 13.5364 18.7862ZM27.0692 18.6078L32.7821 23.1781C33.3537 23.6353 33.3534 24.5057 32.7821 24.9625L27.0692 29.5328C26.5772 29.9266 25.858 29.8477 25.4633 29.3544C25.0691 28.8616 25.149 28.1426 25.6418 27.7484L30.2394 24.0703L25.6418 20.3922C25.149 19.998 25.0691 19.279 25.4633 18.7862C25.8574 18.2935 26.5765 18.2136 27.0692 18.6078Z" fill="url(#paint0_linear_601_1817)"/>
<rect x="2" y="2" width="35" height="8" fill="#DDDFE8"/>
<path fill-rule="evenodd" clip-rule="evenodd" d="M35.5723 0.0761719H3.42773C1.53768 0.0761719 0 1.61385 0 3.50391V35.4961C0 37.3861 1.53768 38.9238 3.42773 38.9238H35.5723C37.4623 38.9238 39 37.3861 39 35.4961V3.50391C39 1.61385 37.4623 0.0761719 35.5723 0.0761719ZM3.42773 2.36133H35.5723C36.2023 2.36133 36.7148 2.87389 36.7148 3.50391V9.2168H2.28516V3.50391C2.28516 2.87389 2.79772 2.36133 3.42773 2.36133ZM35.5723 36.6387H3.42773C2.79772 36.6387 2.28516 36.1261 2.28516 35.4961V11.502H36.7148V35.4961C36.7148 36.1261 36.2023 36.6387 35.5723 36.6387ZM5.78906 6.93164C6.42009 6.93164 6.93164 6.42009 6.93164 5.78906C6.93164 5.15803 6.42009 4.64648 5.78906 4.64648C5.15803 4.64648 4.64648 5.15803 4.64648 5.78906C4.64648 6.42009 5.15803 6.93164 5.78906 6.93164ZM11.502 5.78906C11.502 6.42009 10.9904 6.93164 10.3594 6.93164C9.72835 6.93164 9.2168 6.42009 9.2168 5.78906C9.2168 5.15803 9.72835 4.64648 10.3594 4.64648C10.9904 4.64648 11.502 5.15803 11.502 5.78906ZM14.9297 6.93164C15.5607 6.93164 16.0723 6.42009 16.0723 5.78906C16.0723 5.15803 15.5607 4.64648 14.9297 4.64648C14.2987 4.64648 13.7871 5.15803 13.7871 5.78906C13.7871 6.42009 14.2987 6.93164 14.9297 6.93164ZM33.2109 6.93164H26.3555C25.7245 6.93164 25.2129 6.42007 25.2129 5.78906C25.2129 5.15805 25.7245 4.64648 26.3555 4.64648H33.2109C33.8419 4.64648 34.3535 5.15805 34.3535 5.78906C34.3535 6.42007 33.8419 6.93164 33.2109 6.93164Z" fill="url(#paint1_linear_601_1817)"/>
</g>
<defs>
<linearGradient id="paint0_linear_601_1817" x1="5.78906" y1="24.0703" x2="33.2107" y2="24.0703" gradientUnits="userSpaceOnUse">
<stop stop-color="#FB9004"/>
<stop offset="1" stop-color="#FC067D"/>
</linearGradient>
<linearGradient id="paint1_linear_601_1817" x1="0" y1="19.5" x2="39" y2="19.5" gradientUnits="userSpaceOnUse">
<stop stop-color="#9942FF"/>
<stop offset="1" stop-color="#FC067D"/>
</linearGradient>
<clipPath id="clip0_601_1817">
<rect width="39" height="39" fill="white"/>
</clipPath>
</defs>
</svg>
