<svg width="44" height="45" viewBox="0 0 44 45" fill="none" xmlns="http://www.w3.org/2000/svg">
<path d="M10.6182 42.5146L0.399414 32.2958L3.80569 28.2083H5.16819L12.662 35.702L16.0683 39.7896L14.7058 41.8333L11.9807 43.1958L10.6182 42.5146Z" fill="#DDDFE8"/>
<path d="M33.0995 43.1957L43.3184 31.6144L39.9121 28.8894H38.5496L31.0558 36.3832L27.6495 40.4707L29.012 42.5145L31.737 43.877L33.0995 43.1957Z" fill="#DDDFE8"/>
<path d="M21.9232 5.61068C22.4029 5.61068 22.7917 5.22183 22.7917 4.74218V0.868509C22.7917 0.38885 22.4029 0 21.9232 0C21.4435 0 21.0547 0.38885 21.0547 0.868509V4.74218C21.0548 5.22183 21.4436 5.61068 21.9232 5.61068Z" fill="url(#paint0_linear_441_2603)"/>
<path d="M43.1526 29.8374L41.6183 28.3075C41.0725 27.7624 40.3451 27.4621 39.57 27.4621C39.0744 27.4621 38.5986 27.5854 38.177 27.8164L35.2857 24.9286L35.4266 24.788C36.5995 23.6127 36.5991 21.703 35.4265 20.5317C35.0074 20.1119 34.4846 19.8319 33.9146 19.7141C33.9931 19.4433 34.0344 19.1595 34.0344 18.8692C34.0344 18.0624 33.721 17.3059 33.1537 16.741C32.7346 16.3212 32.2118 16.0412 31.6419 15.9234C31.7204 15.6526 31.7617 15.3689 31.7617 15.0785C31.7617 14.2716 31.4483 13.5152 30.8801 12.9494C30.4509 12.5208 29.9234 12.2495 29.3695 12.134C29.6658 11.1124 29.4126 9.96288 28.6089 9.15776C27.9398 8.49157 27.032 8.20525 26.1571 8.29805L20.4279 7.2136C19.5541 7.04785 18.4629 6.93824 17.7741 7.56648C17.7307 7.60615 17.6863 7.65177 17.6427 7.70257C16.5747 7.31329 15.3291 7.5451 14.4739 8.39938C13.9065 8.96605 13.594 9.72219 13.594 10.5285C13.594 10.819 13.6351 11.1026 13.7135 11.3736C13.1441 11.4913 12.622 11.7709 12.2043 12.1893C11.6358 12.7555 11.3224 13.5107 11.3217 14.3161C11.3215 14.6073 11.3628 14.8919 11.4416 15.1635C10.872 15.281 10.3495 15.56 9.93055 15.9785C9.36206 16.5463 9.04902 17.3029 9.04902 18.1088C9.04902 18.7261 9.23331 19.3142 9.57481 19.8109C9.14362 19.9571 8.74865 20.2004 8.41792 20.5307C7.24422 21.703 7.24379 23.6128 8.4187 24.7898L8.55901 24.9295L5.66743 27.8158C4.59281 27.3099 3.26879 27.4994 2.382 28.3851L0.846777 29.916C0.300714 30.4614 8.62386e-05 31.1889 0 31.9644C0 32.7401 0.300714 33.4676 0.846777 34.0131L2.76274 35.9267C3.10209 36.2657 3.65203 36.2654 3.99095 35.9261C4.32995 35.5867 4.32961 35.0368 3.99026 34.6978L2.0743 32.7842C1.8568 32.567 1.73702 32.2758 1.73702 31.9645C1.73702 31.6533 1.8568 31.3622 2.07378 31.1455L3.60909 29.6145C3.99268 29.2313 4.57979 29.1743 5.02564 29.4408C5.05703 29.488 5.09334 29.5328 5.13491 29.5745C5.20933 29.6491 5.29427 29.7063 5.38448 29.7481L14.1888 38.5395C14.2307 38.6307 14.2881 38.7165 14.363 38.7915C14.436 38.8645 14.5192 38.921 14.6075 38.9626C14.7937 39.1731 14.8966 39.442 14.8966 39.7288C14.8966 40.0402 14.7768 40.3312 14.5593 40.5484L13.0256 42.0804C12.5724 42.5316 11.8352 42.5315 11.3834 42.0818L9.46745 40.1656C9.12827 39.8265 8.57841 39.8265 8.23924 40.1656C7.90006 40.5048 7.90006 41.0547 8.23924 41.3938L10.1566 43.3114C10.7209 43.8734 11.4621 44.1543 12.2035 44.1543C12.9452 44.1543 13.6872 43.8729 14.2522 43.3104L15.7869 41.7775C16.333 41.2321 16.6337 40.5045 16.6337 39.7288C16.6337 39.1753 16.4798 38.6466 16.1935 38.1908L19.4478 34.9404C19.4513 34.9369 19.4547 34.9334 19.4583 34.9298C19.8309 34.5446 20.8686 34.6167 21.8722 34.6864C22.5852 34.736 23.3801 34.7911 24.1568 34.7016L27.7205 38.261C27.4897 38.682 27.3664 39.1572 27.3664 39.652C27.3664 40.4268 27.6672 41.1539 28.2132 41.6994L29.748 43.2323C30.2937 43.7774 31.0212 44.0777 31.7963 44.0777C32.5713 44.0777 33.2987 43.7775 33.8445 43.2323L43.1532 33.9349C43.6993 33.3895 44 32.662 44 31.8864C43.9999 31.1108 43.6992 30.3833 43.1526 29.8374ZM20.1045 8.92026L23.872 9.63337L21.6169 11.8876C21.2681 11.7199 20.79 11.4072 20.2655 10.9055C19.5475 10.2187 19.034 9.4257 18.9872 8.93112C18.9872 8.93087 18.9872 8.93061 18.9872 8.93035C18.9872 8.93026 18.9871 8.93018 18.9871 8.93009C18.9837 8.89456 18.9828 8.86619 18.9833 8.84454C19.0969 8.81694 19.3985 8.78633 20.1045 8.92026ZM15.7013 9.62836C16.1413 9.18881 16.8248 9.1381 17.322 9.47477C17.6037 10.6561 18.6114 11.7267 19.0648 12.1605C19.4008 12.482 20.4788 13.4459 21.567 13.7108C21.7142 13.9218 21.7943 14.1734 21.7943 14.4388C21.7943 14.7808 21.6628 15.1005 21.4231 15.3399C21.1842 15.5793 20.864 15.711 20.5214 15.711C20.1788 15.711 19.8586 15.5793 19.6185 15.3387L19.6184 15.3387L19.618 15.3382L15.7012 11.4285C15.4624 11.1901 15.3309 10.8704 15.3309 10.5285C15.331 10.1866 15.4625 9.8669 15.7013 9.62836ZM13.4318 13.4183C13.6708 13.179 13.9907 13.0471 14.3327 13.0471C14.6751 13.0471 14.996 13.1792 15.2366 13.4195L18.3905 16.5671C18.8871 17.0645 18.8871 17.874 18.3922 18.3697C18.1519 18.609 17.8306 18.7408 17.4875 18.7408C17.1443 18.7408 16.823 18.609 16.5838 18.3707L16.5837 18.3706L14.191 15.9785C14.1873 15.9747 14.1832 15.9713 14.1794 15.9675L13.4309 15.2193C13.1907 14.9794 13.0585 14.6591 13.0588 14.3174C13.0591 13.9769 13.1909 13.6582 13.4318 13.4183ZM11.1581 17.2074C11.3972 16.9686 11.7178 16.8371 12.0608 16.8371C12.401 16.8371 12.7188 16.9668 12.9569 17.2014L15.3569 19.6003C15.5963 19.8387 15.7281 20.158 15.7281 20.4995C15.7281 20.8409 15.5963 21.1603 15.356 21.3996C15.1169 21.6383 14.7967 21.7698 14.4543 21.7698C14.1113 21.7698 13.7901 21.638 13.5507 21.3996L12.6806 20.5306C12.6804 20.5303 12.6802 20.5301 12.68 20.53L11.1582 19.0099C10.9182 18.7703 10.7861 18.4501 10.7861 18.1086C10.7861 17.7672 10.9182 17.447 11.1581 17.2074ZM9.64544 21.7596C9.88562 21.5197 10.2066 21.3876 10.5492 21.3876C10.8918 21.3876 11.2127 21.5196 11.4527 21.7594L12.324 22.6296C12.5634 22.868 12.6952 23.1873 12.6952 23.5288C12.6952 23.8703 12.5633 24.1896 12.3222 24.4298C12.0832 24.6692 11.763 24.801 11.4205 24.801C11.0779 24.801 10.7577 24.6692 10.517 24.4281L10.4079 24.3195C10.4064 24.318 10.4053 24.3164 10.4039 24.3151C10.4023 24.3135 10.4005 24.3121 10.3989 24.3106L9.64631 23.5609C9.14966 23.0632 9.14923 22.2552 9.64544 21.7596ZM27.3445 31.6303C27.0055 31.2909 26.4556 31.2906 26.1163 31.6296L25.3436 32.4013C24.6094 33.1355 23.279 33.0431 21.9924 32.9538C20.5952 32.8567 19.1505 32.7565 18.2156 33.7164L15.0166 36.9115L7.01681 28.9235L9.84785 26.0975C10.3158 26.3844 10.8557 26.5381 11.4207 26.5381C12.2278 26.5381 12.9846 26.2252 13.5499 25.6589C14.119 25.0922 14.4325 24.3358 14.4325 23.5289C14.4325 23.5214 14.4319 23.514 14.4319 23.5065C14.4394 23.5066 14.447 23.507 14.4545 23.507C15.2604 23.507 16.0167 23.1951 16.5827 22.6297C17.1518 22.0629 17.4653 21.3065 17.4653 20.4997C17.4653 20.4922 17.4648 20.4848 17.4648 20.4773C17.4724 20.4773 17.48 20.4778 17.4876 20.4778C18.2934 20.4778 19.05 20.1662 19.6199 19.5987C20.2115 19.0061 20.5041 18.226 20.4985 17.4475C20.5063 17.4476 20.514 17.448 20.5218 17.448C21.3289 17.448 22.0856 17.1352 22.6518 16.568C23.2191 16.0013 23.5317 15.2452 23.5317 14.4388C23.5317 13.8749 23.3783 13.3358 23.0925 12.8689L25.5738 10.3886C25.7587 10.2044 25.9867 10.0889 26.2257 10.0412C26.2516 10.0384 26.2771 10.0343 26.3023 10.0293C26.6858 9.97642 27.0884 10.0947 27.3816 10.3867C27.8783 10.8843 27.8783 11.6937 27.3834 12.1894L26.6277 12.942C26.6252 12.9445 26.6225 12.9467 26.62 12.9492L25.7496 13.8182C25.4102 14.1571 25.4099 14.707 25.7489 15.0464C26.088 15.3858 26.6378 15.3861 26.9771 15.0472L27.7358 14.2895C27.736 14.2893 27.7361 14.2891 27.7363 14.289L27.851 14.1747C28.349 13.6812 29.1559 13.6823 29.6534 14.1791C29.8928 14.4175 30.0247 14.7368 30.0247 15.0783C30.0247 15.4197 29.8928 15.7391 29.6515 15.9793L28.8915 16.7409C28.8914 16.741 28.8913 16.7411 28.8912 16.7412L28.0209 17.608C27.681 17.9465 27.6799 18.4965 28.0184 18.8362C28.3569 19.1761 28.9068 19.1771 29.2466 18.8387L30.1209 17.968C30.3599 17.7286 30.6801 17.5968 31.0226 17.5968C31.3652 17.5968 31.6855 17.7286 31.9262 17.9697C32.1656 18.2082 32.2974 18.5275 32.2974 18.869C32.2974 19.2104 32.1656 19.5298 31.9248 19.7695L30.4096 21.2853C30.0705 21.6246 30.0706 22.1744 30.4098 22.5135C30.5794 22.6831 30.8016 22.7678 31.0238 22.7678C31.2461 22.7678 31.4685 22.6829 31.638 22.5133L32.3806 21.7704C32.3848 21.7664 32.3894 21.7628 32.3936 21.7586C32.6326 21.5192 32.9528 21.3874 33.2953 21.3874C33.638 21.3874 33.9582 21.5192 34.198 21.7595C34.6941 22.2551 34.6937 23.0631 34.198 23.5597L33.443 24.3139C33.4427 24.3141 33.4424 24.3144 33.4421 24.3146C33.4419 24.3149 33.4416 24.3152 33.4413 24.3155L32.243 25.5124C31.9036 25.8514 31.9033 26.4013 32.2422 26.7407C32.4118 26.9105 32.6343 26.9954 32.8567 26.9954C33.0788 26.9954 33.301 26.9108 33.4705 26.7415L34.0567 26.156L36.8661 28.9621L28.867 36.9514L26.0009 34.0888C26.2008 33.9603 26.3919 33.8092 26.5714 33.6298L27.3437 32.8585C27.6832 32.5196 27.6835 31.9697 27.3445 31.6303ZM41.9256 32.7059L32.6169 42.0033C32.3992 42.2208 32.1077 42.3406 31.7962 42.3406C31.4847 42.3406 31.1932 42.2208 30.9754 42.0032L29.4406 40.4703C29.2231 40.2532 29.1033 39.9625 29.1033 39.652C29.1033 39.3415 29.2231 39.0509 29.4406 38.8337L38.7493 29.5363C38.9671 29.3187 39.2585 29.1989 39.5701 29.1989C39.8816 29.1989 40.173 29.3187 40.3914 29.5368L41.9257 31.0668C42.1432 31.284 42.263 31.575 42.263 31.8863C42.2629 32.1977 42.1431 32.4888 41.9256 32.7059Z" fill="url(#paint1_linear_441_2603)"/>
<path d="M10.3905 4.87838C10.56 5.04758 10.782 5.13209 11.004 5.13209C11.2265 5.13209 11.4491 5.04706 11.6187 4.87708C11.9575 4.53756 11.957 3.9877 11.6175 3.64887L8.45269 0.490384C8.11326 0.151552 7.56331 0.151983 7.22448 0.491591C6.88565 0.831112 6.88617 1.38097 7.22569 1.7198L10.3905 4.87838Z" fill="url(#paint2_linear_441_2603)"/>
<path d="M32.8421 5.13206C33.0642 5.13206 33.2863 5.04737 33.4559 4.87809L36.6183 1.71951C36.9576 1.38059 36.9579 0.830649 36.6189 0.4913C36.28 0.151951 35.7302 0.151606 35.3907 0.49061L32.2284 3.64919C31.889 3.9881 31.8887 4.53805 32.2277 4.8774C32.3973 5.0472 32.6197 5.13206 32.8421 5.13206Z" fill="url(#paint3_linear_441_2603)"/>
<path d="M5.33982 37.3588C5.00378 37.7007 5.00844 38.2503 5.35033 38.5863L5.35283 38.5887C5.5215 38.7545 5.74049 38.8371 5.9594 38.8371C6.18409 38.8371 6.40877 38.7501 6.57899 38.577C6.91502 38.2352 6.90907 37.6844 6.56726 37.3483C6.22554 37.0123 5.67603 37.017 5.33982 37.3588Z" fill="url(#paint4_linear_441_2603)"/>
<path d="M29.4678 30.3779C29.5999 30.3779 29.7338 30.3478 29.8595 30.2845C30.2875 30.0686 30.4595 29.5467 30.2437 29.1187C30.0278 28.6907 29.5057 28.5186 29.0778 28.7345L29.073 28.737C28.645 28.9528 28.4755 29.4736 28.6913 29.9016C28.8437 30.2039 29.1501 30.3779 29.4678 30.3779Z" fill="url(#paint5_linear_441_2603)"/>
<defs>
<linearGradient id="paint0_linear_441_2603" x1="21.0547" y1="2.80534" x2="22.7917" y2="2.80534" gradientUnits="userSpaceOnUse">
<stop stop-color="#9942FF"/>
<stop offset="1" stop-color="#FC067D"/>
</linearGradient>
<linearGradient id="paint1_linear_441_2603" x1="0" y1="25.6196" x2="44" y2="25.6196" gradientUnits="userSpaceOnUse">
<stop stop-color="#9942FF"/>
<stop offset="1" stop-color="#FC067D"/>
</linearGradient>
<linearGradient id="paint2_linear_441_2603" x1="6.9707" y1="2.68433" x2="11.8725" y2="2.68433" gradientUnits="userSpaceOnUse">
<stop stop-color="#9942FF"/>
<stop offset="1" stop-color="#FC067D"/>
</linearGradient>
<linearGradient id="paint3_linear_441_2603" x1="31.9736" y1="2.68432" x2="36.873" y2="2.68432" gradientUnits="userSpaceOnUse">
<stop stop-color="#9942FF"/>
<stop offset="1" stop-color="#FC067D"/>
</linearGradient>
<linearGradient id="paint4_linear_441_2603" x1="5.09082" y1="37.9682" x2="6.82736" y2="37.9682" gradientUnits="userSpaceOnUse">
<stop stop-color="#9942FF"/>
<stop offset="1" stop-color="#FC067D"/>
</linearGradient>
<linearGradient id="paint5_linear_441_2603" x1="28.5977" y1="29.5096" x2="30.3368" y2="29.5096" gradientUnits="userSpaceOnUse">
<stop stop-color="#9942FF"/>
<stop offset="1" stop-color="#FC067D"/>
</linearGradient>
</defs>
</svg>
