<svg width="58" height="58" viewBox="0 0 58 58" fill="none" xmlns="http://www.w3.org/2000/svg">
<path d="M38 44.5L47.5 25.5L56.5 28.5L47.5 49.5L40 54.5L38 55V44.5Z" fill="#DDDFE8"/>
<path fill-rule="evenodd" clip-rule="evenodd" d="M50.3832 23.664C48.02 22.5606 45.2117 23.5831 44.1084 25.9463L34.9874 45.5074C34.8201 45.8688 34.7608 46.2735 34.8228 46.6674L36.2904 56.282C36.3929 56.951 36.8218 57.5257 37.4369 57.8116C38.0493 58.0976 38.7642 58.0571 39.3415 57.7064L47.6532 52.6509C47.9931 52.4432 48.2655 52.1383 48.4355 51.7768L55.2713 37.1185C55.2732 37.1146 55.275 37.1106 55.2769 37.1067C55.2786 37.103 55.2802 37.0994 55.2819 37.0958L57.5564 32.2184C58.6571 29.8552 57.6347 27.0469 55.2715 25.9436L50.3832 23.664ZM52.4627 33.5638L53.8876 30.5081C54.0467 30.1709 53.9011 29.7689 53.5611 29.6124L48.6729 27.3302C48.3357 27.1737 47.9337 27.3194 47.7773 27.6566L46.352 30.7132L52.4627 33.5638ZM44.6415 34.3815L38.9153 46.662L39.8325 52.6725L45.0256 49.5135L50.7529 37.2307L44.6415 34.3815Z" fill="url(#paint0_linear_602_1967)"/>
<path fill-rule="evenodd" clip-rule="evenodd" d="M55.9755 22.9302C57.0924 22.9302 57.9988 22.0237 57.9988 20.9069V15.5115V8.76719C57.9988 3.9248 54.0737 -0.000366211 49.2313 -0.000366211H8.76561C3.92322 -0.000366211 -0.00195312 3.9248 -0.00195312 8.76719V15.5115V49.2329C-0.00195312 54.0752 3.92322 58.0004 8.76561 58.0004H31.6961C32.813 58.0004 33.7194 57.094 33.7194 55.9771C33.7194 54.8603 32.813 53.9538 31.6961 53.9538H8.76561C6.15692 53.9538 4.04461 51.8415 4.04461 49.2329V17.5348H53.9523V20.9069C53.9523 22.0237 54.8587 22.9302 55.9755 22.9302ZM53.9523 13.4882H4.04461V8.76719C4.04461 6.15851 6.15692 4.0462 8.76561 4.0462H49.2313C51.84 4.0462 53.9523 6.16121 53.9523 8.76719V13.4882ZM13.486 8.76718C13.486 9.88461 12.5802 10.7905 11.4627 10.7905C10.3453 10.7905 9.43945 9.88461 9.43945 8.76718C9.43945 7.64975 10.3453 6.7439 11.4627 6.7439C12.5802 6.7439 13.486 7.64975 13.486 8.76718ZM20.2302 8.76718C20.2302 9.88461 19.3243 10.7905 18.2069 10.7905C17.0894 10.7905 16.1836 9.88461 16.1836 8.76718C16.1836 7.64975 17.0894 6.7439 18.2069 6.7439C19.3243 6.7439 20.2302 7.64975 20.2302 8.76718ZM24.953 10.7905C26.0704 10.7905 26.9763 9.88461 26.9763 8.76718C26.9763 7.64975 26.0704 6.7439 24.953 6.7439C23.8355 6.7439 22.9297 7.64975 22.9297 8.76718C22.9297 9.88461 23.8355 10.7905 24.953 10.7905ZM10.7891 24.9535C10.7891 26.0703 11.6955 26.9767 12.8123 26.9767H31.6963C32.8132 26.9767 33.7196 26.0703 33.7196 24.9535C33.7196 23.8366 32.8132 22.9302 31.6963 22.9302H12.8123C11.6955 22.9302 10.7891 23.8366 10.7891 24.9535ZM12.8123 37.7676C11.6955 37.7676 10.7891 36.8611 10.7891 35.7443C10.7891 34.6274 11.6955 33.721 12.8123 33.721H31.6963C32.8132 33.721 33.7196 34.6274 33.7196 35.7443C33.7196 36.8611 32.8132 37.7676 31.6963 37.7676H12.8123ZM10.7891 46.5351C10.7891 47.652 11.6955 48.5584 12.8123 48.5584H26.3009C27.4178 48.5584 28.3242 47.652 28.3242 46.5351C28.3242 45.4183 27.4178 44.5118 26.3009 44.5118H12.8123C11.6955 44.5118 10.7891 45.4183 10.7891 46.5351Z" fill="url(#paint1_linear_602_1967)"/>
<defs>
<linearGradient id="paint0_linear_602_1967" x1="34.7988" y1="40.6103" x2="57.9991" y2="40.6103" gradientUnits="userSpaceOnUse">
<stop stop-color="#FB9004"/>
<stop offset="1" stop-color="#FC067D"/>
</linearGradient>
<linearGradient id="paint1_linear_602_1967" x1="-0.00195312" y1="29" x2="57.9988" y2="29" gradientUnits="userSpaceOnUse">
<stop stop-color="#9942FF"/>
<stop offset="1" stop-color="#FC067D"/>
</linearGradient>
</defs>
</svg>
