<svg width="67" height="67" viewBox="0 0 67 67" fill="none" xmlns="http://www.w3.org/2000/svg">
<path d="M26 60.5L33.5 55V66L26 60.5Z" fill="#DDDFE8"/>
<path fill-rule="evenodd" clip-rule="evenodd" d="M9.59373 33.5619C9.59373 41.2709 13.3641 48.5244 19.6796 52.9644C21.3363 54.1294 21.4176 56.5564 19.8253 57.8093C18.7207 58.6844 17.2628 58.6844 16.2047 57.9406C0.285319 46.7608 -0.886283 23.4366 14.1207 10.7888C14.5357 10.4386 15.1558 10.4918 15.5054 10.9068C15.8551 11.3219 15.8024 11.942 15.3873 12.2916C1.37871 24.0981 2.4537 45.8816 17.3344 56.3325C18.44 57.109 19.7256 55.3991 18.5489 54.572C11.711 49.7645 7.62828 41.9103 7.62828 33.5619C7.62828 19.794 18.4446 8.5667 32.0597 7.9257V5.78491C27.2204 5.99756 22.5335 7.4636 18.4462 10.0501C17.9882 10.3405 17.3804 10.2045 17.0906 9.74546C16.8002 9.28694 16.9367 8.67967 17.3952 8.38933C21.7969 5.60345 26.8483 4.03211 32.0607 3.81793V1.67971C32.0607 0.753465 32.8147 0 33.7414 0C34.0783 0 34.4054 0.101723 34.6871 0.294434L42.2284 5.45317C43.2022 6.11922 43.2022 7.55868 42.2279 8.22422L34.6871 13.3824C33.5717 14.1451 32.0607 13.3405 32.0607 11.9972V9.89575C19.584 10.5408 9.59373 20.9549 9.59373 33.5619ZM40.7726 6.83844L34.0261 2.22359V11.4533L40.7726 6.83844ZM46.1776 11.6327C46.1116 9.17554 48.92 7.63692 50.9442 9.05899C58.8843 14.6348 63.6243 23.7485 63.6243 33.4377C63.6243 49.4854 50.9601 62.5361 35.0888 63.1802V65.3194C35.0888 66.2457 34.3348 66.9991 33.408 66.9991C33.3271 66.9991 33.2615 67.0015 33.1963 66.9973C32.6926 66.9645 32.2148 66.5356 24.9211 61.5465C23.9473 60.8799 23.9468 59.441 24.9216 58.7754L32.4624 53.6172C33.5772 52.8545 35.0888 53.6591 35.0888 55.0025V57.1034C47.5654 56.4583 57.5557 46.0447 57.5557 33.4377C57.5557 25.7283 53.7853 18.4753 47.4698 14.0352C46.675 13.476 46.2037 12.6004 46.1776 11.6327ZM26.3769 60.1612L33.1233 64.7755V55.5464L26.3769 60.1612ZM35.0903 59.0734V61.2147C49.8294 60.5645 61.6589 48.3061 61.6594 33.4377C61.6594 24.388 57.2316 15.876 49.8151 10.6671C49.1214 10.1795 48.119 10.7239 48.1425 11.5796C48.1512 11.92 48.3184 12.2293 48.6005 12.4276C55.4385 17.2352 59.5212 25.0893 59.5212 33.4377C59.5212 47.2056 48.7043 58.4329 35.0903 59.0734Z" fill="url(#paint0_linear_612_779)"/>
<path d="M28.8931 35.0116L26.2697 31.5141C23.994 28.4793 19.1808 29.7368 18.6472 33.4668C18.4861 34.5929 18.7739 35.7139 19.4563 36.6243L24.2588 43.0277C25.9891 45.3346 29.3091 45.7313 31.5343 43.886L47.0033 31.0582C48.8154 29.5558 49.0659 26.8737 47.5636 25.0616C46.0648 23.2546 43.3745 23.0032 41.567 24.5019L28.8931 35.0116ZM46.0505 26.316C46.8592 27.2914 46.7247 28.7359 45.7489 29.5451L30.2799 42.3729C28.9222 43.4985 26.8903 43.2603 25.8311 41.8485L21.0287 35.445C20.6612 34.9548 20.5063 34.3511 20.5932 33.7449C20.882 31.7212 23.4772 31.0669 24.6974 32.6934L27.9397 37.0169C28.2745 37.4631 28.9186 37.5444 29.3536 37.1835L42.8214 26.015C43.7947 25.2078 45.2434 25.3428 46.0505 26.316Z" fill="url(#paint1_linear_612_779)"/>
<defs>
<linearGradient id="paint0_linear_612_779" x1="3.5332" y1="33.4999" x2="63.6243" y2="33.4999" gradientUnits="userSpaceOnUse">
<stop stop-color="#9942FF"/>
<stop offset="1" stop-color="#FC067D"/>
</linearGradient>
<linearGradient id="paint1_linear_612_779" x1="18.6035" y1="34.2864" x2="48.5449" y2="34.2864" gradientUnits="userSpaceOnUse">
<stop stop-color="#FB9004"/>
<stop offset="1" stop-color="#FC067D"/>
</linearGradient>
</defs>
</svg>
