<svg width="42" height="40" viewBox="0 0 42 40" fill="none" xmlns="http://www.w3.org/2000/svg">
<path d="M6.42233 38.9263L0.441406 33.5434L1.0395 32.3472L2.00031 31L2.50031 30.5L9.00031 37L8.50031 37.5L6.42233 38.9263Z" fill="#DDDFE8"/>
<path d="M28.4262 0.202684C28.263 0.0387879 28.0299 -0.0324411 27.8017 0.0138924L16.8615 2.20194C16.6119 2.25173 16.4092 2.43568 16.3352 2.6798C16.2612 2.92391 16.3276 3.18877 16.5081 3.36926L24.2465 11.1076L16.0344 19.319C15.0898 18.4795 13.6444 18.5051 12.742 19.4083L0.707713 31.4418C-0.233479 32.383 -0.236245 33.912 0.701489 34.8504L4.65851 38.8075C5.12668 39.2749 5.74146 39.5087 6.35694 39.5087C6.97587 39.5087 7.59549 39.2729 8.06713 38.8005L20.1007 26.767C21.0045 25.8638 21.0281 24.4185 20.1899 23.4745L28.402 15.2624L32.3272 19.1876V19.1883L34.2552 21.1157C34.3901 21.2505 34.5671 21.3183 34.7441 21.3183C34.9212 21.3183 35.0982 21.2505 35.2331 21.1157L41.7972 14.5515C42.0676 14.2811 42.0676 13.8441 41.7972 13.5737L28.4262 0.202684ZM27.7098 1.44193L38.4031 12.1353L32.8168 17.7216L28.9041 13.8088C28.8999 13.804 28.8985 13.7978 28.8937 13.7936L25.7153 10.6153C25.7112 10.6111 25.705 10.6097 25.7001 10.6056L18.3995 3.30495L27.7098 1.44193ZM19.1228 25.7891L8.63904 36.2729L4.14469 31.7779C3.87429 31.5075 3.43724 31.5075 3.16684 31.7779C2.89645 32.0483 2.89645 32.4854 3.16684 32.7557L7.66119 37.2508L7.08928 37.8227C6.68681 38.2245 6.03675 38.2279 5.63635 37.8289L1.67933 33.8719C1.281 33.4729 1.28377 32.8214 1.68556 32.419L13.7191 20.3854C13.9183 20.1862 14.1804 20.0867 14.4425 20.0867C14.7046 20.0867 14.9667 20.1862 15.1658 20.3861L15.5545 20.7747L18.7328 23.9538L19.1215 24.3424C19.5205 24.7414 19.5205 25.3901 19.1215 25.7891H19.1228ZM19.2224 22.487L17.0219 20.2865L25.2237 12.0848L27.4241 14.2853L19.2224 22.487ZM34.7448 19.6503L33.7947 18.7001L39.3809 13.1138L40.3311 14.064L34.7448 19.6503Z" fill="url(#paint0_linear_441_2630)"/>
<defs>
<linearGradient id="paint0_linear_441_2630" x1="0" y1="19.7543" x2="42" y2="19.7543" gradientUnits="userSpaceOnUse">
<stop stop-color="#9942FF"/>
<stop offset="1" stop-color="#FC067D"/>
</linearGradient>
</defs>
</svg>
