<svg width="838" height="815" viewBox="0 0 838 815" fill="none" xmlns="http://www.w3.org/2000/svg">
<path opacity="0.16" d="M735.995 705.237C714.28 727.619 709.726 730.844 694.849 740.778C549.764 837.652 339.834 814.237 288.559 804.692C205.831 789.296 165.203 783.86 105.203 729.653C-31.133 606.478 -24.5018 349.526 79.6765 190.355C92.0281 171.482 194.231 25.0442 360.438 3.31735C364.503 2.78543 557.053 -22.6406 686.972 86.2058C705.57 101.786 735.497 129.889 763.25 172.752C864.728 329.477 865.05 572.21 735.995 705.237Z" fill="#B5A7E9"/>
<path d="M771.606 84.2405C772.641 80.6346 777.732 80.5263 778.972 84.0663C791.583 120.019 814.758 220.097 737.039 333.521C639.53 475.83 642.353 547.725 664.166 602.026C664.166 602.026 618.331 557.991 613.543 484.039C601.784 302.465 753.212 148.365 771.606 84.2405Z" fill="url(#paint0_linear_670_1412)"/>
<path d="M765.685 141.445C759.973 159.962 753.9 178.356 747.162 196.502C740.52 214.679 733.33 232.649 725.592 250.367C717.786 268.055 709.649 285.592 700.779 302.759C691.987 319.965 682.465 336.773 672.846 353.616C663.327 370.503 653.641 387.461 645.663 405.462C637.684 423.418 631.72 442.614 629.441 462.331C628.879 467.248 628.402 472.193 628.223 477.118C627.952 482.041 627.898 486.978 627.934 491.914C628.054 501.787 628.828 511.669 630.333 521.448C633.394 541.002 639.429 560.076 647.743 577.886C648.619 579.76 650.847 580.569 652.721 579.694C654.563 578.836 655.377 576.67 654.577 574.818L654.572 574.805C652.671 570.416 650.825 566.011 649.18 561.539C648.322 559.315 647.564 557.058 646.765 554.817C646.051 552.548 645.249 550.305 644.605 548.016C641.88 538.906 639.797 529.617 638.411 520.219C635.549 501.458 635.478 482.172 637.622 463.333C638.8 453.922 640.671 444.614 643.251 435.483C645.838 426.353 649.13 417.407 652.936 408.643C660.551 391.103 669.999 374.24 679.395 357.285C688.773 340.315 698.08 323.198 706.667 305.723C710.984 297 715.143 288.199 719.144 279.328C721.169 274.904 723.108 270.443 725.055 265.984C726.959 261.508 728.839 257.022 730.681 252.52C738.017 234.502 744.8 216.269 750.999 197.847C757.108 179.394 762.726 160.787 767.617 141.994C767.757 141.457 767.435 140.907 766.898 140.769C766.377 140.633 765.842 140.935 765.685 141.445Z" fill="white"/>
<path d="M595.458 469.877C590.661 474.855 582.339 473.314 579.557 466.985C564.208 432.065 529.74 329.41 589.874 212.26C640.655 113.334 658.79 54.8662 665.183 27.7528C666.534 22.0191 674.421 21.3447 676.737 26.7602C702.302 86.5095 769.3 289.518 595.458 469.877Z" fill="url(#paint1_linear_670_1412)"/>
<path d="M586.886 466.114C586.717 466.143 586.544 466.155 586.366 466.151C584.876 466.112 583.7 464.871 583.739 463.381C583.784 461.691 588.962 292.85 653.356 152.109C653.976 150.754 655.577 150.158 656.933 150.777C658.289 151.397 658.885 153 658.265 154.355C594.339 294.071 589.18 461.847 589.135 463.525C589.101 464.837 588.134 465.906 586.886 466.114Z" fill="white"/>
<path d="M58.1396 724.157C58.1396 731.374 64.0501 737.281 71.2753 737.281H781.639C788.864 737.281 794.775 731.374 794.775 724.157L800.687 315.93C800.687 308.713 792.183 294.622 776.597 295.68L82.3519 277.716C73.2868 277.481 64.5213 280.971 58.1013 287.369C51.6827 293.768 48.1704 302.516 48.3842 311.573L58.1396 724.157Z" fill="#4359B7"/>
<path d="M71.1076 711.565C71.1076 718.401 76.7001 723.993 83.5358 723.993H764.507C771.343 723.993 776.935 718.401 776.935 711.565L782.513 340.974C781.856 318.673 762.304 310.658 750.453 311.131L85.0814 293.28C78.7129 293.109 72.5543 295.563 68.0442 300.062C63.5327 304.562 61.0526 310.719 61.2123 317.087L71.1076 711.565Z" fill="#EEEEFD"/>
<path d="M769.576 535.509C769.568 535.509 769.558 535.509 769.549 535.509C768.542 535.495 767.74 534.667 767.754 533.66L768.195 503.606C768.209 502.609 769.023 501.812 770.015 501.812C770.024 501.812 770.034 501.812 770.043 501.812C771.049 501.827 771.852 502.653 771.837 503.66L771.396 533.714C771.381 534.711 770.568 535.509 769.576 535.509Z" fill="white"/>
<path d="M770.657 461.86C770.648 461.86 770.639 461.86 770.631 461.86C769.624 461.845 768.821 461.017 768.836 460.011L770.526 344.902C770.493 338.065 768.419 332.606 764.356 328.714C756.774 321.449 744.736 321.82 744.229 321.844L531.561 316.14C530.555 316.115 529.762 315.277 529.79 314.271C529.816 313.267 530.588 312.41 531.659 312.501L744.2 318.205C745.522 318.125 758.34 317.904 766.876 326.083C771.677 330.684 774.131 337.024 774.168 344.921L772.477 460.066C772.463 461.063 771.65 461.86 770.657 461.86Z" fill="white"/>
<path d="M2.15344 771.168H836.357C837.261 771.168 838 770.429 838 769.525V736.943C838 736.039 837.261 735.3 836.357 735.3H2.15317C1.24917 735.3 0.509766 736.039 0.509766 736.943V769.525C0.51003 770.429 1.24957 771.168 2.15344 771.168Z" fill="#4359B7"/>
<path d="M524.723 100.896L103.213 98.3159C89.3606 98.2301 78.2814 109.802 78.9678 123.637L107.966 722.502H577.028L603.073 187.449L524.723 100.896Z" fill="white"/>
<path d="M542.249 184.884C528.518 184.401 517.963 172.567 519.045 158.87L523.563 101.686L603.155 187.098L542.249 184.884Z" fill="white"/>
<path opacity="0.78" d="M301.358 215.209C339.197 215.149 484.457 214.686 521.138 214.568C525.765 214.553 529.437 218.969 529.253 224.315C529.078 229.403 525.453 233.46 521.049 233.497L301.368 235.369C297.137 235.404 293.611 231.709 293.234 226.842L293.139 225.611C292.707 220.045 296.52 215.215 301.358 215.209Z" fill="#DFDEFF"/>
<path opacity="0.78" d="M299.634 257.214C337.472 257.155 482.732 256.692 519.414 256.574C524.04 256.56 527.712 260.975 527.528 266.32C527.354 271.409 523.728 275.466 519.324 275.503L299.645 277.375C295.413 277.412 291.887 273.715 291.51 268.848L291.414 267.617C290.984 262.052 294.796 257.222 299.634 257.214Z" fill="#DFDEFF"/>
<path opacity="0.78" d="M168.416 317.079C226.855 317.12 451.19 317.039 507.838 317.02C514.984 317.017 520.783 321.444 520.655 326.791C520.534 331.88 515.054 335.93 508.253 335.955L169.019 337.247C162.486 337.272 156.931 333.564 156.208 328.695L156.025 327.463C155.197 321.895 160.944 317.074 168.416 317.079Z" fill="#DFDEFF"/>
<path opacity="0.78" d="M165.715 361.163C211.204 360.967 385.827 359.97 429.922 359.718C435.484 359.686 439.968 364.089 439.832 369.436C439.701 374.526 435.408 378.596 430.114 378.651L166.046 381.326C160.96 381.378 156.662 377.694 156.133 372.828L155.998 371.597C155.392 366.032 159.898 361.188 165.715 361.163Z" fill="#DFDEFF"/>
<path opacity="0.78" d="M167.841 418.886C226.28 418.927 450.614 418.848 507.263 418.826C514.409 418.823 520.208 423.25 520.08 428.598C519.958 433.688 514.479 437.737 507.677 437.762L168.444 439.055C161.909 439.08 156.357 435.372 155.632 430.503L155.449 429.27C154.621 423.703 160.368 418.881 167.841 418.886Z" fill="#DFDEFF"/>
<path opacity="0.78" d="M162.756 463.705C208.459 463.788 383.908 463.871 428.212 463.891C433.8 463.894 438.28 468.323 438.111 473.669C437.95 478.759 433.613 482.803 428.294 482.824L162.97 483.871C157.859 483.89 153.563 480.18 153.059 475.311L152.932 474.079C152.356 468.511 156.913 463.695 162.756 463.705Z" fill="#DFDEFF"/>
<path opacity="0.78" d="M164.959 522.772C223.397 522.813 447.733 522.733 504.382 522.711C511.527 522.709 517.328 527.136 517.198 532.484C517.077 537.574 511.596 541.623 504.796 541.648L165.562 542.94C159.029 542.965 153.474 539.258 152.751 534.389L152.568 533.156C151.74 527.588 157.487 522.767 164.959 522.772Z" fill="#DFDEFF"/>
<path opacity="0.78" d="M161.432 567.062C207.135 567.145 382.584 567.228 426.888 567.248C432.476 567.249 436.956 571.68 436.787 577.025C436.626 582.115 432.289 586.159 426.969 586.18L161.646 587.227C156.535 587.247 152.239 583.537 151.734 578.667L151.608 577.436C151.032 571.867 155.589 567.051 161.432 567.062Z" fill="#DFDEFF"/>
<path opacity="0.78" d="M168.416 625.451C226.855 625.492 451.19 625.411 507.838 625.39C514.984 625.387 520.783 629.814 520.655 635.163C520.534 640.252 515.054 644.302 508.253 644.327L169.019 645.619C162.486 645.644 156.931 641.936 156.208 637.067L156.025 635.834C155.197 630.267 160.944 625.446 168.416 625.451Z" fill="#DFDEFF"/>
<path opacity="0.78" d="M165.11 674.538C210.236 674.539 383.469 674.311 427.213 674.253C432.732 674.245 437.159 678.668 436.998 684.014C436.843 689.103 432.564 693.155 427.312 693.186L165.341 694.702C160.295 694.731 156.05 691.029 155.547 686.16L155.421 684.928C154.846 679.361 159.339 674.537 165.11 674.538Z" fill="#DFDEFF"/>
<g opacity="0.78">
<path d="M210.458 188.54L186.705 275.981L180.28 275.874L138.372 168.597C136.454 163.532 134.5 160.508 132.517 159.521C130.528 158.536 125.109 157.882 116.234 157.564V155.915L181.415 158.271V159.902C173.713 159.627 168.368 159.829 165.393 160.512C162.411 161.195 160.921 162.69 160.921 164.997C160.921 166.213 161.302 167.687 162.064 169.412L191.799 246.394L208.953 183.983L204.963 170.936C203.447 166.031 201.615 163.054 199.466 162.006C197.316 160.958 191.807 160.275 182.922 159.957V158.325L247.001 160.642V162.256C239.495 161.985 234.284 162.19 231.381 162.866C228.477 163.544 227.026 165.145 227.026 167.669C227.026 168.989 227.272 170.322 227.77 171.659L251.7 247.871L271.98 192.67C274.04 186.894 275.073 182.157 275.073 178.46C275.073 168.329 267.73 162.999 252.992 162.47V160.858L300.264 162.567V164.166C291.645 163.857 285.258 167.97 281.116 176.511C280.504 177.8 278.247 183.559 274.339 193.8L244.114 276.943L237.995 276.842L210.458 188.54Z" fill="#DFDEFF"/>
</g>
<path d="M598.171 716.24C606.529 716.964 621.033 718.137 632.469 718.64C639.343 718.942 643.3 718.269 645.579 717.357C645.575 717.614 645.569 717.857 645.558 718.083C645.504 719.285 644.526 720.249 643.31 720.316C621.704 721.522 604.52 720.733 598.401 720.361C597.136 720.284 596.383 718.909 597.029 717.831C597.353 717.292 597.745 716.763 598.171 716.24Z" fill="#517FC4"/>
<path d="M632.468 718.641C621.033 718.138 606.528 716.965 598.17 716.242C606.386 706.16 632.468 699.365 632.468 699.365H639.834C644.901 706.668 645.634 713.622 645.578 717.358C643.299 718.27 639.342 718.943 632.468 718.641Z" fill="#517FC4"/>
<path d="M641.074 687.34L640.385 700.981C640.309 702.458 639.203 703.699 637.725 703.911C636.253 704.121 634.281 704.147 632.192 703.452C630.905 703.024 629.951 701.941 629.713 700.619L627.332 687.34H641.074Z" fill="#FFB7D6"/>
<path d="M736.75 718.539C740.375 718.034 742.015 716.152 742.703 714.139C742.707 714.156 742.711 714.174 742.716 714.193C743.249 716.315 742.013 718.517 739.542 719.564C736.555 720.828 733.288 721.043 730.753 720.939C728.032 720.827 725.535 719.701 724.164 717.899L724.143 717.873C726.873 719.223 730.706 719.383 736.75 718.539Z" fill="#517FC4"/>
<path d="M719.661 687.254H725.736C734.989 687.066 740.799 706.582 742.701 714.139C742.013 716.152 740.374 718.034 736.75 718.54C730.706 719.383 726.873 719.224 724.142 717.873C719.144 711.295 716.665 701.66 715.473 696.037C714.119 689.642 719.661 687.254 719.661 687.254Z" fill="#517FC4"/>
<path d="M724.956 674.592L728.33 688.007C728.743 689.653 727.956 691.355 726.434 692.135C724.548 693.103 721.891 694.121 719.449 693.825C718.301 693.687 717.347 692.879 716.968 691.797L712.016 677.682L724.956 674.592Z" fill="#FFB7D6"/>
<path d="M728.98 678.47C724.782 682.193 711.132 682.684 711.132 682.684C661.96 564.667 641.845 547.901 641.845 547.901C648.945 592.447 642.989 691.063 642.989 691.063C634.876 694.644 624.414 691.063 624.414 691.063C623.756 618.137 612.546 554.539 599.305 504.399C632.538 503.652 650.213 492.28 655.984 487.715C683.687 532.377 728.98 678.47 728.98 678.47Z" fill="#3A376B"/>
<path d="M647.542 351.994C653.833 383.371 651.578 439.532 650.098 465.147C649.682 472.347 654.708 482.328 658.771 489.137C659.407 490.205 659.015 491.573 657.907 492.142C651.106 495.637 628.064 506.47 601.36 507.818C599.58 507.908 597.989 506.695 597.529 504.972C577.719 431.009 554.711 383.745 554.711 383.745C580.112 343.18 647.542 351.994 647.542 351.994Z" fill="#B5A7E9"/>
<path d="M638.49 545.106C638.77 545.106 639.052 545.031 639.308 544.875C640.05 544.422 640.286 543.455 639.835 542.713C639.57 542.277 633.209 531.997 620.339 525.788C619.556 525.412 618.615 525.736 618.235 526.52C617.857 527.303 618.186 528.247 618.97 528.623C630.969 534.413 637.084 544.253 637.145 544.351C637.442 544.837 637.959 545.106 638.49 545.106Z" fill="url(#paint2_linear_670_1412)"/>
<path d="M687 442.047C684.979 456.663 679.009 472.606 667.067 489.543L662.527 485.842C662.527 485.842 667.767 464.579 664.788 440.448C672.155 439.011 680.856 440.493 687 442.047Z" fill="#FFB7D6"/>
<path d="M640.518 390.711L647.543 351.996C647.543 351.996 694.488 387.878 687 442.047C680.856 440.494 672.156 439.011 664.789 440.449C662.643 423.066 656.232 404.195 640.518 390.711Z" fill="#8F80C7"/>
<path d="M554.712 383.744L572.833 422.77C569.903 446.33 557.246 456.518 543.598 460.425C542.748 449.688 540.033 441.012 537.514 435.012C554.951 417.008 554.712 383.744 554.712 383.744Z" fill="#8F80C7"/>
<path d="M537.512 435.012C540.032 441.012 542.747 449.688 543.598 460.425C507.187 474.552 497.555 447.156 497.555 447.156L504.284 445.968C519.48 447.569 530.094 442.671 537.512 435.012Z" fill="#FFB7D6"/>
<path d="M571.406 335.565L580.155 367.725C581.138 371.337 585.045 373.278 588.521 371.888C592.273 370.387 597.033 368.341 601.13 366.128C605.505 363.766 606.872 358.141 604.104 354.012L585.916 326.894L571.406 335.565Z" fill="#FFB7D6"/>
<path d="M552.268 311.133C552.189 311.684 559.565 347.831 559.565 347.831L580.114 343.18L578.212 307.883C578.212 307.883 553.603 301.887 552.268 311.133Z" fill="#FFB7D6"/>
<path d="M573.592 315.748L576.047 334.252C576.078 334.489 576.078 334.723 576.044 334.96C575.837 336.411 574.759 341.349 569.775 339.937C565.251 338.655 561.104 337.553 558.24 338.429C556.954 338.823 556.178 340.125 556.448 341.444C557.119 344.728 558.768 352.099 561.177 358.286C561.666 359.541 563.04 360.201 564.334 359.823C568.232 358.687 576.385 356.062 582.448 352.412C583.271 351.917 583.759 351.024 583.719 350.065C583.521 345.394 582.975 331.196 583.436 327.215C583.867 323.48 588.453 321.241 590.444 320.439C591.098 320.176 591.608 319.662 591.87 319.007C592.792 316.696 594.065 311.346 587.323 309.154C585.913 308.696 585.169 307.174 585.67 305.779C586.669 302.999 587.089 298.757 581.874 296.419C576.573 294.044 572.615 296.869 570.478 299.166C569.614 300.094 568.226 300.237 567.155 299.558C566.543 299.173 565.757 299.046 564.807 299.639C563.526 300.436 561.831 299.892 561.17 298.537C559.9 295.931 557.313 293.139 552.125 294.028C542.916 295.605 541.873 305.809 544.303 311.79C546.732 317.769 556.618 315.491 561.578 312.477C565.349 310.185 570.241 312.587 572.368 313.87C573.041 314.276 573.488 314.968 573.592 315.748Z" fill="#1C056D"/>
<path d="M584.261 333.962C584.261 333.962 580.476 323.36 584.366 320.764C588.255 318.168 594.015 319.515 592.747 327.196C591.17 336.748 584.261 333.962 584.261 333.962Z" fill="#FFB7D6"/>
<path d="M500.256 452.169C498.423 453.601 492.144 450.612 488.303 448.545C486.43 447.538 485.524 445.348 486.166 443.322C487.09 440.406 488.632 436.642 490.53 436.168C493.679 435.38 507.809 446.269 500.256 452.169Z" fill="url(#paint3_linear_670_1412)"/>
<path d="M809.411 540.722L329.949 370.2L304.582 440.663L783.878 615.948C794.058 619.672 805.42 615.542 810.874 606.175C816.477 596.553 821.831 581.52 822.153 559.004C822.271 550.816 817.125 543.464 809.411 540.722Z" fill="#84B4FE"/>
<path d="M181.617 351.988L247.846 360.118C247.777 369.235 244.791 381.027 234.687 394.556L179.377 358.07C176.442 356.133 178.124 351.559 181.617 351.988Z" fill="url(#paint4_linear_670_1412)"/>
<path d="M329.949 370.198C332.984 414.358 304.582 440.661 304.582 440.661L234.689 394.555C244.793 381.026 247.779 369.233 247.848 360.118L329.949 370.198Z" fill="#D4DFFF"/>
<path d="M803.464 562.328C804.045 562.328 804.588 561.968 804.792 561.389C805.052 560.655 804.666 559.85 803.932 559.591L345.217 397.477C344.48 397.218 343.676 397.602 343.419 398.336C343.159 399.07 343.544 399.875 344.278 400.134L802.994 562.246C803.15 562.302 803.308 562.328 803.464 562.328Z" fill="#517FC5"/>
<path d="M795.55 589.972C796.131 589.972 796.674 589.612 796.878 589.033C797.138 588.299 796.752 587.495 796.018 587.235L337.303 425.121C336.566 424.862 335.764 425.245 335.505 425.979C335.245 426.713 335.63 427.518 336.363 427.776L795.08 589.892C795.236 589.947 795.394 589.972 795.55 589.972Z" fill="#517FC5"/>
<path d="M664.4 485.197L643.209 483.471L634.031 491.93C634.031 491.93 636.202 494.931 642.989 493.206C649.778 491.481 659.076 491.059 659.076 491.059C659.076 491.059 668.448 495.282 668.561 487.378L664.4 485.197Z" fill="#FFB7D6"/>
<defs>
<linearGradient id="paint0_linear_670_1412" x1="612.892" y1="341.751" x2="792.261" y2="341.751" gradientUnits="userSpaceOnUse">
<stop stop-color="#9942FF"/>
<stop offset="1" stop-color="#4D6DFF"/>
</linearGradient>
<linearGradient id="paint1_linear_670_1412" x1="555.734" y1="247.944" x2="710.974" y2="247.944" gradientUnits="userSpaceOnUse">
<stop stop-color="#9942FF"/>
<stop offset="1" stop-color="#4D6DFF"/>
</linearGradient>
<linearGradient id="paint2_linear_670_1412" x1="673.094" y1="623.414" x2="665.224" y2="607.675" gradientUnits="userSpaceOnUse">
<stop stop-color="#53D8FF"/>
<stop offset="1" stop-color="#3840F7"/>
</linearGradient>
<linearGradient id="paint3_linear_670_1412" x1="502.449" y1="444.336" x2="485.961" y2="444.336" gradientUnits="userSpaceOnUse">
<stop stop-color="#F9B776"/>
<stop offset="1" stop-color="#F47960"/>
</linearGradient>
<linearGradient id="paint4_linear_670_1412" x1="177.871" y1="373.258" x2="247.846" y2="373.258" gradientUnits="userSpaceOnUse">
<stop stop-color="#FB9004"/>
<stop offset="1" stop-color="#FC067D"/>
</linearGradient>
</defs>
</svg>
