<svg width="64" height="67" viewBox="0 0 64 67" fill="none" xmlns="http://www.w3.org/2000/svg">
<path fill-rule="evenodd" clip-rule="evenodd" d="M0.99752 52.7108H27.4003C27.9513 52.7108 28.3978 52.2643 28.3978 51.7133V14.8864C28.3978 14.3354 27.9513 13.8889 27.4003 13.8889H0.99752C0.446516 13.8889 0 14.3354 0 14.8864V51.7133C0 52.2643 0.446516 52.7108 0.99752 52.7108ZM26.4028 50.7158H1.99504V15.8841H26.4028V50.7158ZM35.9292 52.7108H62.3324C62.8835 52.7108 63.33 52.2643 63.3299 51.7133V14.8864C63.3299 14.3354 62.8834 13.8889 62.3324 13.8889H35.9292C35.3782 13.8889 34.9316 14.3354 34.9316 14.8864V51.7133C34.9316 52.2643 35.3782 52.7108 35.9292 52.7108ZM61.3348 50.7158H36.9268V15.8841H61.3348V50.7158ZM22.5107 32.5088H5.88634C5.33519 32.5088 4.88867 32.0623 4.88867 31.5113V25.9347C4.88867 25.3837 5.33519 24.937 5.88634 24.937H22.5107C23.0617 24.937 23.5084 25.3837 23.5084 25.9347V31.5113C23.5084 32.0623 23.0617 32.5088 22.5107 32.5088ZM6.88386 30.5137H21.5131V26.9322H6.88386V30.5137ZM6.85885 40.4352H21.5407C22.0919 40.4352 22.5383 39.9889 22.5383 39.4376C22.5383 38.8866 22.0917 38.4401 21.5407 38.4401H6.85885C6.30785 38.4401 5.86133 38.8866 5.86133 39.4376C5.86133 39.9887 6.30785 40.4352 6.85885 40.4352ZM21.5407 45.6964H6.85885C6.30785 45.6964 5.86133 45.2498 5.86133 44.6987C5.86133 44.1477 6.30785 43.7012 6.85885 43.7012H21.5407C22.0917 43.7012 22.5383 44.1477 22.5383 44.6987C22.5383 45.2497 22.0919 45.6964 21.5407 45.6964ZM40.8198 32.5088H57.4445C57.9956 32.5088 58.4421 32.0623 58.4421 31.5113V25.9347C58.4421 25.3837 57.9956 24.937 57.4445 24.937H40.8198C40.2688 24.937 39.8223 25.3837 39.8223 25.9347V31.5113C39.8223 32.0623 40.2688 32.5088 40.8198 32.5088ZM56.4468 30.5137H41.8173V26.9322H56.4468V30.5137ZM44.4506 40.4352H41.7905C41.2393 40.4352 40.793 39.9887 40.793 39.4376C40.793 38.8866 41.2395 38.4401 41.7905 38.4401H44.4506C45.0016 38.4401 45.4482 38.8866 45.4482 39.4376C45.4482 39.9889 45.0018 40.4352 44.4506 40.4352ZM47.5717 40.4352H50.6922C51.2433 40.4352 51.6898 39.9889 51.6897 39.4376C51.6897 38.8866 51.2432 38.4401 50.6922 38.4401H47.5717C47.0207 38.4401 46.5742 38.8866 46.5742 39.4376C46.5742 39.9887 47.0207 40.4352 47.5717 40.4352ZM56.4721 40.4352H53.812C53.2608 40.4352 52.8145 39.9887 52.8145 39.4376C52.8145 38.8866 53.261 38.4401 53.812 38.4401H56.4721C57.0233 38.4401 57.4696 38.8866 57.4696 39.4376C57.4698 39.9889 57.0233 40.4352 56.4721 40.4352ZM41.7905 45.6964H56.4721C57.0232 45.6964 57.4698 45.2497 57.4696 44.6987C57.4696 44.1477 57.0232 43.7012 56.4721 43.7012H41.7905C41.2395 43.7012 40.793 44.1477 40.793 44.6987C40.793 45.2498 41.2393 45.6964 41.7905 45.6964Z" fill="url(#paint0_linear_613_892)"/>
<path fill-rule="evenodd" clip-rule="evenodd" d="M48.1345 9.52025C48.1345 10.0714 48.581 10.5179 49.132 10.5179C49.683 10.5179 50.1295 10.0714 50.1296 9.52025C50.1296 4.27083 45.8587 0 40.6091 0H17.4643C16.0151 0 14.8359 1.17912 14.8359 2.62848V8.29312L12.1892 6.16509C11.7602 5.82025 11.1323 5.88803 10.7866 6.31738C10.4413 6.74673 10.5096 7.37469 10.9389 7.71998L15.2353 11.1746C15.4178 11.3213 15.6389 11.3947 15.8605 11.3947C16.0813 11.3947 16.3021 11.3216 16.4845 11.1753L20.7285 7.77341C21.1585 7.42886 21.2276 6.8009 20.883 6.37125C20.5386 5.94131 19.9104 5.87279 19.4807 6.21674L16.831 8.34083V2.62848C16.831 2.27935 17.1151 1.99534 17.4641 1.99534H40.6091C44.7584 1.99534 48.1345 5.37077 48.1345 9.52025Z" fill="url(#paint1_linear_613_892)"/>
<path fill-rule="evenodd" clip-rule="evenodd" d="M51.1431 60.4349C51.3272 60.5831 51.548 60.6552 51.7675 60.6552C52.059 60.6552 52.3484 60.5279 52.5456 60.2828C52.8909 59.8535 52.8227 59.2255 52.3934 58.8804L48.0971 55.4254C47.7327 55.1321 47.2132 55.1318 46.8482 55.4244L42.6042 58.8266C42.1743 59.1713 42.1051 59.7993 42.4497 60.2292C42.7945 60.6584 43.4231 60.728 43.852 60.3834L46.4995 58.261V63.9712C46.4995 64.3206 46.2154 64.6048 45.866 64.6048H22.7213C18.5718 64.6048 15.1962 61.2289 15.1962 57.0794C15.1962 56.5284 14.7497 56.0819 14.1987 56.0819C13.6477 56.0819 13.2012 56.5283 13.2012 57.0794C13.2012 62.3291 17.4722 66.6 22.7214 66.6H45.8661C47.3158 66.6 48.4949 65.4209 48.4946 63.9712V58.3053L51.1431 60.4349Z" fill="url(#paint2_linear_613_892)"/>
<defs>
<linearGradient id="paint0_linear_613_892" x1="0" y1="33.2999" x2="63.3299" y2="33.2999" gradientUnits="userSpaceOnUse">
<stop stop-color="#9942FF"/>
<stop offset="1" stop-color="#FC067D"/>
</linearGradient>
<linearGradient id="paint1_linear_613_892" x1="10.5664" y1="5.69733" x2="50.1296" y2="5.69733" gradientUnits="userSpaceOnUse">
<stop stop-color="#FB9004"/>
<stop offset="1" stop-color="#FC067D"/>
</linearGradient>
<linearGradient id="paint2_linear_613_892" x1="13.2012" y1="60.9026" x2="52.7659" y2="60.9026" gradientUnits="userSpaceOnUse">
<stop stop-color="#FB9004"/>
<stop offset="1" stop-color="#FC067D"/>
</linearGradient>
</defs>
</svg>
