<svg width="74" height="71" viewBox="0 0 74 71" fill="none" xmlns="http://www.w3.org/2000/svg">
<rect x="44" y="44.3161" width="28" height="21" fill="#DDDFE8"/>
<path d="M30.3174 47.5772C27.7514 46.2654 26.3438 45.6635 26.2839 45.6391C26.2275 45.6148 26.1699 45.5939 26.1112 45.5753C26.0983 45.5719 24.8141 45.1277 24.3981 44.2195C24.3147 44.0374 24.0621 43.4854 24.5814 42.3406C24.9175 41.5983 25.3757 41.1448 26.0242 40.9106C27.5246 40.3678 29.69 41.1228 30.3914 41.4568C31.2656 41.8802 32.3207 41.5253 32.7495 40.6612C33.1784 39.7983 32.8176 38.7556 31.9435 38.3335C31.6698 38.2012 29.8674 37.3673 27.7279 37.2548V35.0558C27.7279 34.0943 26.9395 33.3161 25.9655 33.3161C24.9915 33.3161 24.2031 34.0943 24.2031 35.0558V37.938C22.9659 38.5527 21.9813 39.5559 21.3633 40.9233C20.4011 43.0493 20.7359 44.6684 21.1859 45.653C22.1634 47.7883 24.3794 48.6674 24.9515 48.8634C25.2453 48.9922 26.5506 49.5732 28.6972 50.6692C29.2353 50.9441 29.549 51.6934 29.4597 52.4902C29.4068 52.9622 29.1249 54.1035 27.6527 54.4862C24.5756 55.283 21.6101 53.846 21.5631 53.8239C20.6983 53.3878 19.6409 53.7265 19.1956 54.5778C18.7503 55.4314 19.091 56.4811 19.9569 56.9206C20.0662 56.9763 21.7992 57.8265 24.2043 58.1083V60.5764C24.2043 61.5379 24.9927 62.3161 25.9667 62.3161C26.9407 62.3161 27.7291 61.5379 27.7291 60.5764V58.0051C28.0016 57.9564 28.2719 57.9227 28.5492 57.8508C30.9989 57.2129 32.6896 55.305 32.9622 52.8717C33.216 50.6043 32.1773 48.5271 30.3174 47.5772Z" fill="url(#paint0_linear_613_997)"/>
<path fill-rule="evenodd" clip-rule="evenodd" d="M46.3625 25.0916H69.5309C71.6224 25.0916 73.3235 26.7935 73.3235 28.8842V63.138C73.3235 65.2295 71.6216 66.9314 69.53 66.9314H46.3616C45.4552 66.9314 44.633 66.5995 43.9803 66.0671C39.7723 69.1347 33.9123 70.6329 26.1129 70.6329C8.84673 70.6329 0.453125 63.0855 0.453125 47.5599C0.453125 37.4867 9.2793 28.9727 15.7405 24.0905C14.2664 23.1161 13.2912 21.446 13.2912 19.5506C13.2912 16.5492 15.7319 14.1085 18.7324 14.1085H19.0093L14.9415 3.57006C14.7016 2.95 14.9742 2.24824 15.5693 1.95154C15.9254 1.77352 23.7196 -2.038 27.5362 1.91628C28.9208 1.04166 31.4372 -0.237161 33.945 0.038039C35.5532 0.214339 36.9059 0.975439 37.9646 2.29984C38.2338 2.63524 38.3172 3.0833 38.1873 3.49352L34.8351 14.1085H34.9589C37.9594 14.1085 40.4001 16.55 40.4001 19.5506C40.4001 21.8089 39.0164 23.7491 37.0521 24.5713C38.7687 25.9008 40.6951 27.5357 42.569 29.401V28.885C42.569 26.7935 44.271 25.0916 46.3625 25.0916ZM26.1499 4.33374C24.5323 1.58346 19.9098 2.97924 17.7976 3.8014L21.776 14.1085H32.1304L35.5007 3.43418C32.7625 0.992639 28.269 4.52466 28.0686 4.68548C27.777 4.91854 27.3969 5.01486 27.0288 4.94692C26.6608 4.87984 26.34 4.65624 26.1499 4.33374ZM20.8884 16.6885H18.7333C17.156 16.6885 15.8729 17.9725 15.8721 19.5506C15.8721 21.1287 17.156 22.4118 18.7333 22.4118H34.958C36.5353 22.4118 37.8193 21.1278 37.8193 19.5506C37.8193 17.9725 36.5353 16.6885 34.958 16.6885H20.8927H20.891H20.8884ZM18.8769 24.9909C12.8053 29.297 3.03313 37.7516 3.03313 47.5599C3.03313 61.5409 10.3672 68.0529 26.1129 68.0529C33.4616 68.0529 38.8796 66.676 42.6404 63.8526C42.5957 63.6204 42.5682 63.3822 42.5682 63.138V33.1515C39.4421 29.6418 35.8258 26.7909 33.2862 24.9909H18.8769ZM69.53 64.3523C70.1991 64.3523 70.7435 63.8079 70.7435 63.1388V28.885C70.7435 28.2159 70.1991 27.6716 69.53 27.6716H46.3616C45.6926 27.6716 45.1482 28.2159 45.1482 28.885V63.1388C45.1482 63.8079 45.6926 64.3523 46.3616 64.3523H69.53ZM49.2392 29.6108H67.2966C68.0096 29.6108 68.5866 30.1888 68.5866 30.9008V39.3538C68.5866 40.0667 68.0096 40.6438 67.2966 40.6438H49.2392C48.5263 40.6438 47.9492 40.0667 47.9492 39.3538V30.9008C47.9492 30.1879 48.5263 29.6108 49.2392 29.6108ZM50.5292 38.0638H66.0066V32.1908H50.5292V38.0638ZM50.9091 44.0056H55.499C56.211 44.0056 56.789 44.5835 56.789 45.2956V49.8845C56.789 50.5975 56.2119 51.1745 55.499 51.1745H50.9091C50.1962 51.1745 49.6191 50.5975 49.6191 49.8845V45.2956C49.6191 44.5826 50.1962 44.0056 50.9091 44.0056ZM52.1991 48.5954H54.209V46.5864H52.1991V48.5954ZM65.5118 44.0056H60.9228C60.2099 44.0056 59.6328 44.5826 59.6328 45.2956V49.8845C59.6328 50.5975 60.2099 51.1745 60.9228 51.1745H65.5118C66.2247 51.1745 66.8018 50.5975 66.8018 49.8845V45.2956C66.8018 44.5835 66.2247 44.0056 65.5118 44.0056ZM64.2218 48.5954H62.2128V46.5864H64.2218V48.5954ZM50.9091 53.1852H55.499C56.211 53.1852 56.789 53.7631 56.789 54.4752V59.0641C56.789 59.7771 56.2119 60.3541 55.499 60.3541H50.9091C50.1962 60.3541 49.6191 59.7771 49.6191 59.0641V54.4752C49.6191 53.7622 50.1962 53.1852 50.9091 53.1852ZM52.1991 57.775H54.209V55.766H52.1991V57.775ZM65.5118 53.1852H60.9228C60.2099 53.1852 59.6328 53.7622 59.6328 54.4752V59.0641C59.6328 59.7771 60.2099 60.3541 60.9228 60.3541H65.5118C66.2247 60.3541 66.8018 59.7771 66.8018 59.0641V54.4752C66.8018 53.7631 66.2247 53.1852 65.5118 53.1852ZM64.2218 57.775H62.2128V55.766H64.2218V57.775Z" fill="url(#paint1_linear_613_997)"/>
<defs>
<linearGradient id="paint0_linear_613_997" x1="19" y1="47.8161" x2="33" y2="47.8161" gradientUnits="userSpaceOnUse">
<stop stop-color="#FB9004"/>
<stop offset="1" stop-color="#FC067D"/>
</linearGradient>
<linearGradient id="paint1_linear_613_997" x1="0.453125" y1="35.3164" x2="73.3235" y2="35.3164" gradientUnits="userSpaceOnUse">
<stop stop-color="#9942FF"/>
<stop offset="1" stop-color="#FC067D"/>
</linearGradient>
</defs>
</svg>
