<svg width="64" height="64" viewBox="0 0 64 64" fill="none" xmlns="http://www.w3.org/2000/svg">
<g clip-path="url(#clip0_663_4299)">
<path d="M45.5 62L37 48H37.5L39.5 46L42.5 44L44.5 42.5L47.5 42L56.5 56.5L48 54.5L45.5 62Z" fill="#DDDFE8"/>
<path d="M57.1051 56.121L49.0089 42.0979C50.3517 40.9671 51.2797 39.3589 51.5276 37.5365C51.696 36.2973 52.3334 35.1932 53.3223 34.4277C55.8858 32.4434 56.8187 28.962 55.5909 25.9616C55.1172 24.8041 55.1172 23.5293 55.5909 22.372C56.8187 19.3716 55.8858 15.8903 53.3223 13.9059C52.3334 13.1404 51.6959 12.0363 51.5276 10.7971C51.0907 7.58489 48.542 5.03626 45.3298 4.59956C44.0907 4.43104 42.9867 3.79369 42.2213 2.80479C40.2368 0.241149 36.7557 -0.691618 33.755 0.536194C32.5976 1.00989 31.3228 1.00989 30.1655 0.536194C27.1653 -0.691743 23.6837 0.241149 21.6993 2.80479C20.9338 3.79369 19.8298 4.43104 18.5906 4.59956C15.3782 5.03638 12.8297 7.58489 12.393 10.7973C12.2245 12.0364 11.5872 13.1405 10.5983 13.906C8.03461 15.8904 7.10184 19.3718 8.32966 22.3721C8.80335 23.5294 8.80335 24.8044 8.32966 25.9617C7.10172 28.962 8.03461 32.4434 10.5983 34.4279C11.5872 35.1934 12.2245 36.2974 12.393 37.5365C12.6441 39.3829 13.5937 41.009 14.965 42.1418L6.89406 56.121C6.64127 56.559 6.67703 57.1061 6.98495 57.5071C7.29275 57.9082 7.8117 58.0846 8.3004 57.9537L15.3353 56.0687L17.2123 63.0733C17.3432 63.5618 17.7553 63.9232 18.2567 63.9892C18.3114 63.9965 18.3661 64 18.4202 64C18.8625 64 19.2773 63.7649 19.5025 63.3749L28.2116 48.2905C28.8719 48.2193 29.5295 48.0577 30.1654 47.7974C31.3228 47.3237 32.5977 47.3237 33.7549 47.7974C34.4179 48.0688 35.1045 48.2342 35.7932 48.3002L44.4965 63.3749C44.7218 63.7651 45.1365 64 45.5788 64C45.6331 64 45.6876 63.9965 45.7425 63.9892C46.2438 63.9232 46.656 63.5618 46.7869 63.0733L48.6639 56.0687L55.6989 57.9537C56.1869 58.0846 56.7064 57.9084 57.0142 57.5071C57.322 57.1061 57.3579 56.559 57.1051 56.121ZM18.8461 59.5109L17.4268 54.214C17.3409 53.8937 17.1315 53.6207 16.8443 53.4549C16.5572 53.2891 16.2161 53.2442 15.8957 53.33L10.5685 54.7573L17.1374 43.3797C17.6018 43.5459 18.088 43.6658 18.5905 43.7341C19.8297 43.9027 20.9337 44.54 21.6992 45.5289C22.6707 46.784 24.0013 47.6472 25.4584 48.0583L18.8461 59.5109ZM29.2182 45.4834C27.2543 46.2873 24.9754 45.6766 23.6764 43.9986C22.5069 42.4878 20.8203 41.5139 18.9273 41.2566C16.8246 40.9707 15.1562 39.3025 14.8704 37.1997C14.613 35.3066 13.6392 33.6201 12.1285 32.4506C10.4504 31.1516 9.83976 28.8726 10.6435 26.9087C11.3672 25.1406 11.3672 23.1931 10.6435 21.425C9.83976 19.4611 10.4504 17.1821 12.1285 15.8832C13.6392 14.7137 14.613 13.0272 14.8704 11.1341C15.1563 9.03136 16.8246 7.36298 18.9273 7.07707C20.8203 6.81978 22.5069 5.846 23.6764 4.33527C24.5925 3.15172 25.9956 2.49924 27.4323 2.49924C28.0328 2.49924 28.6392 2.61339 29.2181 2.8503C30.9864 3.57391 32.9339 3.57391 34.7019 2.8503C36.6657 2.04642 38.9448 2.65714 40.2438 4.33527C41.4132 5.846 43.0997 6.81978 44.9926 7.07707C47.0953 7.36298 48.7637 9.03124 49.0496 11.1341C49.307 13.0272 50.2808 14.7137 51.7915 15.8832C53.4697 17.1821 54.0802 19.461 53.2765 21.425C52.5529 23.1931 52.5529 25.1406 53.2765 26.9087C54.0802 28.8726 53.4695 31.1516 51.7915 32.4506C50.2808 33.62 49.307 35.3065 49.0496 37.1995C48.7637 39.3023 47.0953 40.9707 44.9927 41.2565C43.0996 41.5138 41.4131 42.4876 40.2436 43.9984C38.9446 45.6767 36.6657 46.2872 34.7019 45.4833C32.9338 44.7598 30.9865 44.7598 29.2182 45.4834ZM48.1033 53.33C47.4361 53.1511 46.751 53.5471 46.5722 54.214L45.1528 59.5109L38.5293 48.0386C39.9599 47.62 41.2645 46.7646 42.2212 45.5289C42.9866 44.5399 44.0906 43.9026 45.3297 43.7341C45.8556 43.6626 46.3635 43.5335 46.8474 43.3551L53.4304 54.7573L48.1033 53.33Z" fill="url(#paint0_linear_663_4299)"/>
<path d="M26.2793 19.5422L22.3896 23.4318C22.1552 23.6662 22.0234 23.9843 22.0234 24.3158C22.0234 24.6474 22.1552 24.9654 22.3896 25.1998L29.6849 32.4952C29.9193 32.7296 30.2373 32.8614 30.5689 32.8614C30.9004 32.8614 31.2185 32.7296 31.4529 32.4952L41.6107 22.3374C42.0989 21.8492 42.0989 21.0576 41.6107 20.5694L37.7211 16.6797C37.4865 16.4452 37.1686 16.3135 36.8371 16.3135C36.5055 16.3135 36.1875 16.4452 35.9531 16.6797L30.569 22.0639L28.0476 19.5423C27.8132 19.3079 27.4951 19.1762 27.1636 19.1762C26.8318 19.176 26.5137 19.3078 26.2793 19.5422ZM29.6847 24.7159C29.9191 24.9503 30.2372 25.0821 30.5687 25.0821C30.9003 25.0821 31.2183 24.9503 31.4527 24.7159L36.8368 19.3317L38.9585 21.4534L30.5687 29.8432L25.0416 24.3159L27.1633 22.1944L29.6847 24.7159Z" fill="url(#paint1_linear_663_4299)"/>
<path d="M48.2529 24.5875C48.2529 21.2665 47.2576 18.0726 45.3748 15.3509C43.5362 12.6934 40.9821 10.6612 37.9889 9.47424C37.3468 9.21983 36.6205 9.53375 36.3659 10.1756C36.1114 10.8174 36.4254 11.5441 37.0672 11.7986C42.3433 13.8908 45.7526 18.9108 45.7526 24.5875C45.7526 32.1704 39.5834 38.3396 32.0005 38.3396C24.4176 38.3396 18.2484 32.1704 18.2484 24.5875C18.2484 18.9107 21.6577 13.8907 26.9339 11.7985C27.5757 11.5439 27.8898 10.8173 27.6352 10.1755C27.3807 9.53363 26.654 9.21958 26.0122 9.47412C23.0189 10.6612 20.4649 12.6932 18.6262 15.3508C16.7433 18.0724 15.748 21.2664 15.748 24.5874C15.748 33.549 23.0389 40.8399 32.0005 40.8399C40.9621 40.84 48.2529 33.5492 48.2529 24.5875Z" fill="url(#paint2_linear_663_4299)"/>
<path d="M32.0002 10.8353C32.329 10.8353 32.6515 10.7028 32.8839 10.469C33.1165 10.2365 33.2504 9.9152 33.2504 9.58515C33.2504 9.25635 33.1166 8.9338 32.8839 8.70127C32.6515 8.46873 32.329 8.33496 32.0002 8.33496C31.6714 8.33496 31.3488 8.46873 31.1163 8.70127C30.8838 8.9338 30.75 9.25635 30.75 9.58515C30.75 9.9152 30.8838 10.2365 31.1163 10.469C31.3488 10.7028 31.6714 10.8353 32.0002 10.8353Z" fill="url(#paint3_linear_663_4299)"/>
</g>
<defs>
<linearGradient id="paint0_linear_663_4299" x1="6.72656" y1="32" x2="57.2725" y2="32" gradientUnits="userSpaceOnUse">
<stop stop-color="#9942FF"/>
<stop offset="1" stop-color="#FC067D"/>
</linearGradient>
<linearGradient id="paint1_linear_663_4299" x1="22.0234" y1="24.5874" x2="41.9768" y2="24.5874" gradientUnits="userSpaceOnUse">
<stop stop-color="#FB9004"/>
<stop offset="1" stop-color="#FC067D"/>
</linearGradient>
<linearGradient id="paint2_linear_663_4299" x1="15.748" y1="25.1128" x2="48.2529" y2="25.1128" gradientUnits="userSpaceOnUse">
<stop stop-color="#FB9004"/>
<stop offset="1" stop-color="#FC067D"/>
</linearGradient>
<linearGradient id="paint3_linear_663_4299" x1="30.75" y1="9.58515" x2="33.2504" y2="9.58515" gradientUnits="userSpaceOnUse">
<stop stop-color="#FB9004"/>
<stop offset="1" stop-color="#FC067D"/>
</linearGradient>
<clipPath id="clip0_663_4299">
<rect width="64" height="64" fill="white"/>
</clipPath>
</defs>
</svg>
