<svg width="296" height="15" viewBox="0 0 296 15" fill="none" xmlns="http://www.w3.org/2000/svg">
<g clip-path="url(#clip0_158_2403)">
<path d="M66.8611 9.984L68.0831 9.89862C64.1587 10.3042 60.0178 10.5977 55.9258 10.8805C64.9687 11.0246 75.4781 10.8164 82.07 8.24974C82.9708 9.31697 91.6296 9.17823 91.7693 8.88474C93.529 8.53789 95.3306 8.29243 97.1461 8.03629C95.8892 8.19104 94.6463 8.35646 93.4173 8.53256C94.6532 8.35646 95.8962 8.19104 97.1461 8.03629C108.647 6.43544 121.328 6.238 134.407 6.38208C136.223 6.38741 138.813 6.39808 141.795 6.41409C144.777 6.41409 148.15 6.39275 151.529 6.4888C154.902 6.56351 158.289 6.63821 161.291 6.70225C162.793 6.74494 164.196 6.78229 165.46 6.81964C166.724 6.857 167.841 6.93704 168.763 6.9904C169.839 7.0491 170.907 7.1078 171.989 7.16649C170.793 7.074 169.594 6.98151 168.393 6.88901C172.925 6.67557 177.038 6.46745 181.018 6.35006C180.327 6.17396 180.208 6.01388 178.553 5.75774L180.578 5.90716C181.514 5.68837 183.05 5.60833 184.601 5.5603C186.151 5.54429 187.722 5.5603 188.727 5.50161C188.281 5.73106 189.859 5.84312 191.248 5.93384L190.704 5.74707C193.343 5.90182 196.199 5.99253 198.992 6.06724C200.389 6.10459 201.765 6.14195 203.084 6.1793C204.404 6.24333 205.675 6.3127 206.855 6.39275C207.512 6.4301 208 6.55283 208.287 6.65422L212.826 6.73426C212.442 7.04376 216.548 7.24654 214.369 7.32124C217.79 7.14515 221.205 7.54003 224.473 7.42263C227.35 7.63608 230.283 7.84419 233.237 8.03629C234.717 8.13234 236.205 8.22306 237.699 8.31911C238.446 8.3618 239.193 8.40982 239.94 8.45785L242.182 8.62861C245.178 8.85273 248.194 9.06617 251.204 9.26361C252.712 9.35433 254.221 9.45038 255.722 9.54109C257.23 9.62114 258.732 9.71185 260.219 9.82925L259.954 9.6745C264.136 9.95198 267.928 9.74387 272.935 10.555C276.636 10.5069 281.789 11.0406 283.381 10.555C287.55 11.0406 289.289 10.9285 293.409 11.3234C292.445 10.8378 297.466 11.4781 295.532 10.9338C292.941 10.0907 292.697 10.4696 290.49 9.77055L290.532 9.89328C287.878 9.39702 285.225 8.91142 282.564 8.4365C279.897 7.96692 277.236 7.48133 274.541 7.1078C269.157 6.31804 263.752 5.53896 258.292 4.83992C254.605 4.62114 250.785 4.25828 246.93 3.8634C245.003 3.66596 243.069 3.46852 241.141 3.26575C239.207 3.08965 237.28 2.95091 235.367 2.81751C231.247 2.55603 226.959 2.30523 222.811 2.08111C218.663 1.91036 214.655 1.82498 211.108 1.75027C209.411 1.75027 208.224 1.39275 206.799 1.14728C203.545 0.99787 199.844 0.901819 196.046 0.757742C192.247 0.624337 188.336 0.480261 184.663 0.437571C184.803 0.437571 184.936 0.448243 185.02 0.458916C181.116 0.432235 178.204 0.0266853 174.391 0.00534058C174.405 0.101392 173.819 0.0960556 173.526 0.144081C173.365 0.0266853 171.878 4.39677e-06 169.72 0.0213491C168.645 0.0320215 167.395 0.04803 166.061 0.0853833C164.727 0.144081 163.31 0.202779 161.885 0.266813C156.187 0.52295 150.419 0.800431 149.742 0.672363C149.344 0.693708 148.939 0.709716 148.52 0.725725C144.497 0.667027 140.406 0.496269 136.453 0.330848C132.494 0.170762 128.674 0.0160129 125.232 0.218788C123.744 0.490933 122.068 0.741733 120.825 1.02989C119.596 0.880474 119.387 1.26468 117.913 1.27002C114.122 0.506942 111.957 0.971189 113.912 1.21665C110.847 1.4301 107.767 1.5475 105.051 1.73426C103.794 1.87834 102.551 2.02242 101.28 2.16649C100.205 2.30523 99.5902 2.20385 99.0246 2.02242C96.2733 2.31057 97.0624 2.03842 94.1505 2.11847C93.4033 1.80363 86.9441 3.13768 86.1131 3.10566L86.581 3.02028C83.2291 3.22306 80.9178 2.78549 77.6428 3.01495C73.069 3.21238 68.3275 3.73533 63.6629 4.18891C58.9983 4.66383 54.4245 5.10673 50.2277 5.58165C50.2068 5.91783 52.0643 5.29349 52.2388 5.71505C47.2879 6.238 42.2253 6.41409 37.2255 6.94237C36.3038 6.95305 35.1725 6.95305 34.7396 6.89968C33.1265 6.99574 33.8388 7.1825 32.6656 7.2999L32.4422 7.02775C30.7942 7.50267 29.8794 7.04376 28.3083 7.38528C28.2524 7.51335 27.6728 7.6094 27.1002 7.67877C26.9955 7.36927 25.3545 7.94024 25.3685 7.64675L25.3545 7.67343C25.0123 7.71612 24.7679 7.76948 24.342 7.77482C23.7135 7.98293 17.8199 9.65315 17.2054 9.90929H16.8842C15.9764 10.0587 15.6482 10.3522 16.1929 10.3255L15.0686 10.4856L15.1943 10.4429L14.077 10.603C13.8676 10.603 13.5952 10.5016 13.8745 10.3148C13.274 10.523 12.5827 10.6937 11.9333 10.7364C13.7349 10.651 15.9834 10.5816 17.8967 10.6083C17.1705 10.8324 15.7739 10.8805 14.9639 11.0459C13.9374 10.9925 11.8844 11.1366 10.2923 11.238C9.95711 11.3127 9.81047 11.6969 8.99346 11.6649C8.54655 11.4835 8.12059 11.8143 7.4223 11.7396C8.12758 11.4941 8.87475 11.4354 9.62891 11.3287C9.4264 11.0672 7.74351 11.4248 7.12901 11.4408C6.87763 11.5742 5.39724 11.7129 4.50343 11.9317C4.82464 11.5955 3.72134 11.873 3.13477 11.8143C2.50631 11.8783 2.14319 12.0491 2.42251 12.1078C2.31078 12.4333 4.9224 11.8943 4.15428 12.3426C3.88893 12.2359 2.69484 12.476 2.05241 12.5881C2.08733 12.7481 2.52725 12.6414 2.15018 12.8602C1.41697 12.9402 0.711689 13.2551 0.243831 13.1537C0.369524 13.0897 0.669791 13.0683 0.886262 13.0416C-0.0634183 13.175 5.68355 11.1846 4.49644 11.4728C4.85257 11.5688 -0.587139 13.2711 0.0413259 13.1857C0.634876 13.175 -0.286873 13.5432 0.320644 13.5059L0.921177 13.207C1.74516 13.1377 2.15716 13.3671 1.90577 13.5219C0.537115 13.7086 5.44613 11.8143 4.33584 12.1612H4.83163C4.37075 12.3479 3.07891 12.6468 2.52725 12.556C2.56915 12.7161 1.91974 12.8762 1.38903 13.0203H1.18653C0.641859 13.1964 -0.16118 13.2818 0.26478 13.4312C3.58168 12.8815 -1.45302 15.3949 1.78706 14.9733C0.33461 14.8346 2.13621 14.5411 3.53978 14.2796C3.70737 14.3757 4.3917 14.4557 5.43216 14.3863C6.30503 14.2209 5.91398 14.1782 6.06062 14.0608C6.57038 14.0608 7.52006 13.9808 7.45023 14.1889C8.0787 13.8581 8.58845 14.1569 9.39149 13.9488C10.0898 13.73 9.31468 13.8634 9.80348 13.6713C10.8998 13.5219 12.4361 13.3138 13.3089 13.2177C13.693 13.3405 14.7893 13.4845 14.1189 13.8741C12.457 14.0982 14.6287 13.3351 12.9318 13.666C13.7768 13.9488 11.4445 14.0128 11.2071 14.365C11.8006 14.4557 12.9109 14.285 13.8257 14.0875L13.6232 14.0662C14.4262 13.8847 16.0393 13.5432 16.975 13.6179C16.8004 13.7887 17.2124 13.8367 16.6258 13.9648L17.7571 13.8154C17.8897 13.746 18.0224 13.682 17.6942 13.698C18.197 13.5059 18.7417 13.4792 19.1676 13.5005C19.3282 13.6339 25.0193 12.0544 24.8657 12.1718C25.6757 12.0544 25.9271 12.2519 26.6882 11.9904C26.7441 11.857 19.0349 13.5646 20.0963 13.3725C20.8296 13.4418 29.1393 11.3661 29.7119 11.5742C30.3124 11.4781 31.0316 11.3501 30.8571 11.2167C31.8905 11.1473 30.6196 11.5475 31.3738 11.5849C31.3878 11.5582 31.297 11.5155 31.5274 11.4888L32.2676 11.5849C33.7969 11.1366 36.185 11.1099 37.7772 10.5923C37.3302 10.8058 36.8484 11.1686 35.815 11.4675L35.6124 11.4141C35.4728 11.4835 34.6069 11.6542 34.6628 11.7983C35.6962 11.7609 36.5551 11.6062 37.5886 11.3234C37.7981 11.3394 38.0355 11.3554 38.1961 11.3767C38.1892 11.3554 38.1682 11.3447 38.1682 11.318C38.5383 11.3714 38.5034 11.3927 38.3917 11.4621C38.3777 11.4728 38.3567 11.4888 38.3288 11.5048C39.062 11.873 42.2532 10.7577 44.1596 10.7684C44.6903 10.6403 44.1945 10.6884 44.8579 10.523C46.7921 10.4749 48.1259 10.4589 50.123 10.3255C50.7166 10.0587 50.7515 9.97866 49.9484 9.87194L51.4567 9.75988C50.1928 10.4269 54.3407 9.91463 52.9371 10.5977C53.398 10.6617 54.2918 10.5816 55.1158 10.4002C55.1787 10.2668 55.2694 10.032 56.3239 9.93064C57.8252 9.95732 57.4621 9.93064 58.712 9.97332C59.0263 10.1121 58.5933 10.2188 58.6701 10.3469C60.5066 9.95198 60.374 10.5496 62.1337 10.3469C63.237 10.1921 65.4226 9.95732 65.4226 9.65849C66.917 9.52509 66.9519 9.73853 66.8472 9.98933L66.8611 9.984Z" fill="#634AFF"/>
</g>
<defs>
<clipPath id="clip0_158_2403">
<rect width="296" height="15" fill="white"/>
</clipPath>
</defs>
</svg>
