<svg width="33" height="42" viewBox="0 0 33 42" fill="none" xmlns="http://www.w3.org/2000/svg">
<path d="M2 19V25L17 35L31 25.5V19L16.5 28.5L2 19Z" fill="#DDDFE8"/>
<path fill-rule="evenodd" clip-rule="evenodd" d="M1.29523 26.1576C1.29523 26.1576 10.5923 32.6868 14.2316 35.2426C15.5245 36.1502 17.2478 36.1502 18.5407 35.2426C22.18 32.6868 31.4771 26.1576 31.4771 26.1576C32.0418 25.7608 32.1779 24.9814 31.7811 24.4166C31.3852 23.8528 30.6048 23.7158 30.041 24.1118C30.041 24.1118 20.7439 30.6409 17.1046 33.1967C16.6734 33.4989 16.0989 33.4989 15.6677 33.1967L2.73133 24.1117C2.1675 23.7158 1.38714 23.8528 0.991222 24.4166C0.594418 24.9814 0.730516 25.7608 1.29523 26.1576Z" fill="url(#paint0_linear_601_1804)"/>
<path fill-rule="evenodd" clip-rule="evenodd" d="M14.5701 1.41802C15.6995 0.794092 17.0711 0.794091 18.2005 1.41802C20.6989 2.80109 26.5087 6.01617 30.284 8.10535C31.4152 8.73105 32.1434 9.89583 32.2124 11.1861C32.2822 12.4773 31.6821 13.7119 30.6234 14.4542C29.0505 15.559 27.089 16.9366 25.152 18.2968C22.5833 20.1007 20.0579 21.8743 18.5399 22.9409C17.247 23.8485 15.5236 23.8485 14.2307 22.9409C12.7128 21.8743 10.1876 20.101 7.61902 18.2971C5.68193 16.9368 3.72018 15.5591 2.1472 14.4542C1.08847 13.7119 0.488406 12.4773 0.558222 11.1861C0.627155 9.89583 1.35536 8.73105 2.48656 8.10536C6.26194 6.01617 12.0717 2.80109 14.5701 1.41802ZM23.3204 7.10837C20.799 5.71308 18.3817 4.37536 16.9907 3.6053C16.6142 3.39673 16.1564 3.39673 15.7799 3.6053C14.3888 4.37543 11.9711 5.71334 9.44952 7.10878C7.44265 8.21936 5.36994 9.36639 3.69642 10.2926C3.31994 10.5012 3.07691 10.8892 3.05305 11.3196C3.03096 11.7499 3.23068 12.1618 3.5833 12.4083L15.6668 20.895C16.0981 21.1972 16.6725 21.1972 17.1038 20.895L29.1873 12.4083C29.5399 12.1618 29.7396 11.7499 29.7176 11.3196C29.6937 10.8892 29.4507 10.5012 29.0742 10.2926C27.4005 9.36627 25.3274 8.21908 23.3204 7.10837ZM14.2307 29.0038L1.29439 19.9189C0.729673 19.5221 0.593575 18.7426 0.990379 18.1779C1.3863 17.6141 2.16665 17.4771 2.73048 17.873L15.6668 26.9579C16.0981 27.2602 16.6725 27.2602 17.1038 26.9579L30.0401 17.873C30.604 17.4771 31.3843 17.6141 31.7802 18.1779C32.177 18.7426 32.0409 19.5221 31.4762 19.9189L18.5399 29.0038C17.247 29.9114 15.5237 29.9114 14.2307 29.0038Z" fill="url(#paint1_linear_601_1804)"/>
<defs>
<linearGradient id="paint0_linear_601_1804" x1="8.31612" y1="33.2052" x2="24.4562" y2="17.0651" gradientUnits="userSpaceOnUse">
<stop stop-color="#FB9004"/>
<stop offset="1" stop-color="#FC067D"/>
</linearGradient>
<linearGradient id="paint1_linear_601_1804" x1="0.552734" y1="15.3173" x2="32.2178" y2="15.3173" gradientUnits="userSpaceOnUse">
<stop stop-color="#9942FF"/>
<stop offset="1" stop-color="#FC067D"/>
</linearGradient>
</defs>
</svg>
