<svg width="36" height="35" viewBox="0 0 36 35" fill="none" xmlns="http://www.w3.org/2000/svg">
<path d="M3.11664 27.3584C3.70055 27.36 4.26714 27.5569 4.72614 27.9178C5.18514 28.2788 5.51015 28.7829 5.64938 29.35H9.91108C10.2999 29.3495 10.6727 29.1949 10.9477 28.9199C11.2226 28.645 11.3773 28.2722 11.3778 27.8833V21.8817H7.68632C-1.83845 21.4917 -1.85023 7.9082 7.67878 7.50282C7.7894 3.23547 12.8765 0.614691 16.4079 3.06371C17.3054 1.78911 18.5935 0.841321 20.0773 0.363627C21.5612 -0.114067 23.1603 -0.0957011 24.6328 0.415948C26.1053 0.927597 27.3712 1.90471 28.2392 3.1996C29.1071 4.49448 29.53 6.03673 29.4437 7.59321C31.2298 7.87822 32.8428 8.82597 33.9611 10.2475C35.0794 11.6689 35.6208 13.4597 35.4774 15.2627C35.3339 17.0656 34.5162 18.7483 33.1872 19.9751C31.8583 21.2019 30.1157 21.8827 28.307 21.8817H24.6224V27.8833C24.6228 28.2722 24.7775 28.645 25.0525 28.9199C25.3274 29.1949 25.7002 29.3495 26.0891 29.35H30.3507C30.5034 28.729 30.8782 28.1855 31.4044 27.822C31.9305 27.4585 32.5715 27.3003 33.2063 27.3772C33.8412 27.4541 34.4259 27.7609 34.85 28.2394C35.2741 28.718 35.5083 29.3354 35.5083 29.9748C35.5083 30.6143 35.2742 31.2316 34.8501 31.7103C34.426 32.1889 33.8413 32.4956 33.2065 32.5726C32.5717 32.6495 31.9307 32.4913 31.4045 32.1279C30.8783 31.7645 30.5035 31.2209 30.3507 30.6H26.089C25.3688 30.5991 24.6783 30.3126 24.169 29.8033C23.6597 29.294 23.3732 28.6035 23.3723 27.8833V21.8817H18.7972V29.797C19.417 29.9497 19.9595 30.3241 20.3222 30.8494C20.6849 31.3747 20.8427 32.0147 20.7658 32.6484C20.6889 33.2822 20.3826 33.8658 19.9048 34.2892C19.427 34.7125 18.8107 34.9463 18.1723 34.9463C17.5339 34.9463 16.9176 34.7126 16.4398 34.2893C15.962 33.8659 15.6557 33.2823 15.5787 32.6486C15.5018 32.0148 15.6596 31.3749 16.0222 30.8495C16.3849 30.3241 16.9274 29.9497 17.5472 29.797L17.5472 21.8817H12.6278V27.8833C12.6269 28.6035 12.3404 29.294 11.8311 29.8033C11.3218 30.3126 10.6313 30.5991 9.91108 30.6H5.64938C5.53209 31.0768 5.28301 31.511 4.93062 31.8529C4.57822 32.1948 4.13673 32.4307 3.65661 32.5335C3.17649 32.6364 2.67712 32.6021 2.21558 32.4345C1.75404 32.2669 1.34896 31.9729 1.04666 31.586C0.744347 31.1991 0.557011 30.7349 0.506054 30.2465C0.455097 29.7582 0.542583 29.2653 0.758511 28.8243C0.974438 28.3833 1.31009 28.012 1.72709 27.7528C2.1441 27.4935 2.62563 27.3569 3.11664 27.3584ZM32.8835 31.3415C33.2431 31.3372 33.5865 31.1913 33.8392 30.9355C34.0919 30.6797 34.2336 30.3345 34.2336 29.9749C34.2336 29.6153 34.0919 29.2702 33.8392 29.0144C33.5864 28.7586 33.243 28.6127 32.8835 28.6084C32.5237 28.6124 32.18 28.7581 31.9269 29.014C31.6739 29.2698 31.532 29.6152 31.532 29.975C31.532 30.3348 31.6739 30.6801 31.9269 30.936C32.18 31.1918 32.5237 31.3375 32.8835 31.3415ZM16.8062 32.3297C16.8102 32.6894 16.956 33.033 17.2118 33.286C17.4675 33.5389 17.8128 33.6808 18.1725 33.6808C18.5323 33.6808 18.8775 33.5389 19.1333 33.2859C19.3891 33.033 19.5348 32.6893 19.5388 32.3296C19.5351 31.9697 19.3895 31.6258 19.1337 31.3725C18.8778 31.1193 18.5324 30.9773 18.1725 30.9773C17.8125 30.9773 17.4671 31.1194 17.2113 31.3726C16.9555 31.6258 16.8099 31.9697 16.8062 32.3297ZM34.2501 14.6954C34.2455 13.2875 33.7432 11.9265 32.8321 10.853C31.921 9.77961 30.6597 9.0629 29.2712 8.82962C28.9569 10.1756 28.2631 11.4031 27.2719 12.3663C27.1523 12.4782 26.9935 12.5386 26.8298 12.5346C26.666 12.5306 26.5104 12.4625 26.3963 12.345C26.2823 12.2274 26.2189 12.0697 26.2199 11.9059C26.2209 11.7422 26.2862 11.5853 26.4016 11.4691C27.3456 10.5525 27.9597 9.34917 28.1478 8.04688C28.9967 1.58607 20.3936 -1.36229 17.1095 4.26525C17.0299 4.39506 16.9065 4.49216 16.7617 4.53903C16.6168 4.58591 16.4599 4.57948 16.3193 4.52091C15.6587 3.92432 14.8337 3.5405 13.9519 3.41946C13.07 3.29841 12.1721 3.44575 11.3752 3.84227C10.5782 4.2388 9.91917 4.86613 9.48384 5.64256C9.04851 6.41899 8.8571 7.30852 8.93452 8.19528C8.91733 8.35456 8.84191 8.50186 8.72274 8.60892C8.60357 8.71597 8.44906 8.77524 8.28886 8.77532C7.48763 8.69462 6.67836 8.77759 5.91017 9.01919C5.14198 9.26079 4.43091 9.65599 3.82012 10.1808C3.20932 10.7056 2.71156 11.349 2.35703 12.0721C2.00251 12.7951 1.79862 13.5827 1.75775 14.3869C1.71688 15.1912 1.83988 15.9953 2.11929 16.7506C2.39869 17.5059 2.82866 18.1965 3.38311 18.7805C3.93756 19.3645 4.60491 19.8297 5.34464 20.148C6.08438 20.4662 6.88108 20.6308 7.68636 20.6317H28.3071C29.8818 20.6308 31.3919 20.0053 32.5061 18.8924C33.6202 17.7796 34.2474 16.2702 34.2501 14.6954ZM3.11664 31.3416C3.47622 31.3372 3.81958 31.1913 4.07231 30.9355C4.32504 30.6797 4.46676 30.3346 4.46675 29.975C4.46675 29.6154 4.32502 29.2703 4.07228 29.0145C3.81955 28.7587 3.47618 28.6128 3.1166 28.6084C2.75703 28.6128 2.41367 28.7587 2.16094 29.0145C1.90821 29.2703 1.76649 29.6154 1.76649 29.975C1.7665 30.3346 1.90823 30.6797 2.16096 30.9355C2.4137 31.1913 2.75707 31.3372 3.11664 31.3416Z" fill="url(#paint0_linear_158_2575)"/>
<defs>
<linearGradient id="paint0_linear_158_2575" x1="35.5083" y1="17.4823" x2="0.491924" y2="17.4823" gradientUnits="userSpaceOnUse">
<stop stop-color="#9942FF"/>
<stop offset="1" stop-color="#FC067D"/>
</linearGradient>
</defs>
</svg>
