<svg width="31" height="35" viewBox="0 0 31 35" fill="none" xmlns="http://www.w3.org/2000/svg">
<path fill-rule="evenodd" clip-rule="evenodd" d="M15.2637 12.2073C11.2883 12.2073 7.54131 11.6275 4.71265 10.5754C3.27654 10.0408 2.14529 9.40421 1.35149 8.69646V13.5669C1.35149 15.8124 7.06491 18.3195 15.2637 18.3195C23.4625 18.3195 29.1753 15.8124 29.1753 13.5669V8.69681C28.3817 9.40443 27.2505 10.0408 25.8135 10.5754C22.9855 11.6275 19.2385 12.2073 15.2637 12.2073ZM4.71265 1.63192C1.67382 2.76312 0 4.3518 0 6.10401V13.5669V21.0305V28.4941C0 30.247 1.67382 31.835 4.71265 32.9655C7.54131 34.0184 11.2883 34.5981 15.2637 34.5981C19.2385 34.5981 22.9855 34.0184 25.8141 32.9655C28.8536 31.835 30.5268 30.247 30.5268 28.4941V21.0305V13.5669V6.10401C30.5268 6.09233 30.5265 6.08068 30.5259 6.06908C30.5038 4.33004 28.8341 2.7556 25.8135 1.63192C22.9855 0.579789 19.2391 0 15.2637 0C11.2883 0 7.54131 0.579789 4.71265 1.63192ZM1.35149 21.0305V16.16C2.14529 16.8678 3.27654 17.5044 4.71265 18.039C7.54131 19.0912 11.2883 19.6709 15.2637 19.6709C19.2385 19.6709 22.9855 19.0912 25.8141 18.039C27.2504 17.5045 28.3816 16.868 29.1753 16.1602V21.0305C29.1753 23.2787 23.4625 25.7831 15.2637 25.7831C7.06491 25.7831 1.35149 23.2787 1.35149 21.0305ZM25.8141 25.5026C27.2504 24.9681 28.3816 24.3316 29.1753 23.6238V28.4941C29.1753 30.7423 23.4625 33.2467 15.2637 33.2467C7.06491 33.2467 1.35149 30.7423 1.35149 28.4941V23.6236C2.14529 24.3314 3.27654 24.968 4.71265 25.5026C7.54131 26.5548 11.2883 27.1345 15.2637 27.1345C19.2385 27.1345 22.9855 26.5568 25.8141 25.5026ZM15.2637 10.8558C7.0656 10.8558 1.35244 8.35263 1.35149 6.10457L1.35149 6.10401C1.35149 3.8558 7.06491 1.35149 15.2637 1.35149C23.4619 1.35149 29.1753 3.85648 29.1753 6.10401C29.1753 8.35153 23.4625 10.8558 15.2637 10.8558ZM26.327 14.2298C26.3704 14.2387 26.4145 14.2432 26.4588 14.2434C26.5033 14.2432 26.5476 14.2387 26.5912 14.2298C26.6345 14.221 26.6768 14.2081 26.7176 14.1913C26.7583 14.1744 26.7972 14.1536 26.8338 14.1292C26.8709 14.1048 26.9053 14.0767 26.9365 14.0454C26.9679 14.0139 26.9962 13.9795 27.021 13.9426C27.0453 13.9057 27.0661 13.8665 27.0832 13.8257C27.1001 13.785 27.113 13.7426 27.1217 13.6994C27.1388 13.6121 27.1388 13.5224 27.1217 13.4352C27.1043 13.3485 27.0701 13.2661 27.021 13.1926C26.9961 13.1556 26.9678 13.121 26.9365 13.0892C26.8419 12.9953 26.7219 12.9312 26.5912 12.9047C26.504 12.8871 26.4142 12.8871 26.327 12.9047C26.2838 12.9134 26.2414 12.9263 26.2007 12.9432C26.1597 12.96 26.1206 12.9808 26.0838 13.0054C26.0098 13.0544 25.9463 13.1176 25.897 13.1914C25.8477 13.2652 25.8135 13.3481 25.7966 13.4352C25.7786 13.5223 25.7786 13.6122 25.7966 13.6994C25.8053 13.7426 25.8182 13.785 25.8351 13.8257C25.8522 13.8665 25.873 13.9057 25.8973 13.9426C25.9462 14.0168 26.0096 14.0802 26.0838 14.1292C26.1206 14.1537 26.1597 14.1745 26.2007 14.1913C26.2414 14.2082 26.2838 14.2211 26.327 14.2298ZM23.745 14.9218C23.7007 14.9217 23.6566 14.9172 23.6132 14.9083C23.57 14.8996 23.5276 14.8867 23.4869 14.8698C23.4459 14.853 23.4068 14.8322 23.37 14.8076C23.3329 14.7833 23.2985 14.7552 23.2673 14.7238C23.2042 14.6611 23.1544 14.5864 23.1206 14.5042C23.1037 14.4634 23.0908 14.4211 23.0821 14.3778C23.0732 14.3333 23.0689 14.2881 23.0693 14.2427C23.069 14.1973 23.0733 14.152 23.0821 14.1075C23.091 14.0643 23.1039 14.022 23.1206 13.9812C23.1547 13.8993 23.2045 13.8249 23.2673 13.7622C23.2985 13.7306 23.3329 13.7023 23.37 13.6778C23.4068 13.6532 23.4459 13.6324 23.4869 13.6156C23.5276 13.5987 23.57 13.5858 23.6132 13.5771C23.7002 13.5595 23.7898 13.5595 23.8768 13.5771C23.92 13.5858 23.9624 13.5987 24.0031 13.6156C24.0441 13.6324 24.0832 13.6532 24.12 13.6778C24.194 13.7272 24.2574 13.7908 24.3066 13.8649C24.331 13.9016 24.3518 13.9405 24.3687 13.9812C24.3857 14.0219 24.3986 14.0642 24.4072 14.1075C24.4163 14.152 24.4208 14.1973 24.4208 14.2427C24.4209 14.2881 24.4163 14.3334 24.4072 14.3778C24.3988 14.4212 24.3859 14.4635 24.3687 14.5042C24.3518 14.5451 24.331 14.5842 24.3066 14.6211C24.2576 14.6952 24.1942 14.7587 24.12 14.8076C24.0832 14.8322 24.0441 14.853 24.0031 14.8698C23.9624 14.8867 23.92 14.8996 23.8768 14.9083C23.8334 14.9172 23.7893 14.9217 23.745 14.9218ZM20.8961 15.5867C20.9405 15.5958 20.9858 15.6003 21.0312 15.6003C21.0757 15.6004 21.12 15.5961 21.1637 15.5874C21.2069 15.5787 21.2492 15.5658 21.29 15.5489C21.3308 15.5318 21.37 15.511 21.4069 15.4867C21.4438 15.4622 21.4782 15.4342 21.5096 15.4029C21.541 15.3717 21.5691 15.3372 21.5934 15.3002C21.618 15.2634 21.6388 15.2243 21.6556 15.1833C21.6725 15.1425 21.6854 15.1002 21.6941 15.057C21.703 15.0136 21.7075 14.9694 21.7076 14.9252C21.7077 14.8798 21.7031 14.8345 21.6941 14.79C21.6852 14.7468 21.6723 14.7045 21.6556 14.6637C21.6387 14.623 21.6178 14.5841 21.5934 14.5474C21.5691 14.5104 21.541 14.476 21.5096 14.4447C21.4781 14.4135 21.4437 14.3852 21.4069 14.3603C21.37 14.336 21.3308 14.3152 21.29 14.2981C21.2492 14.2812 21.2069 14.2683 21.1637 14.2596C21.0765 14.242 20.9866 14.242 20.8994 14.2596C20.8562 14.2684 20.8139 14.2813 20.7731 14.2981C20.7324 14.315 20.6935 14.3359 20.6568 14.3603C20.6199 14.3852 20.5853 14.4135 20.5535 14.4447C20.4911 14.5076 20.4415 14.5819 20.4075 14.6637C20.3897 14.7042 20.3756 14.7463 20.3656 14.7894C20.3568 14.8339 20.3525 14.8791 20.3528 14.9245C20.3526 14.9687 20.3569 15.0129 20.3656 15.0563C20.3743 15.0995 20.3872 15.1419 20.4041 15.1826C20.4209 15.2236 20.4417 15.2627 20.4663 15.2995C20.5401 15.4111 20.6458 15.4978 20.7697 15.5482C20.8105 15.565 20.8528 15.5779 20.8961 15.5867ZM26.4588 21.7063C26.4146 21.7064 26.3704 21.7021 26.327 21.6934C26.2838 21.6847 26.2414 21.6718 26.2007 21.6549C26.1597 21.6381 26.1206 21.6173 26.0838 21.5928C26.0467 21.5682 26.0123 21.5399 25.981 21.5083C25.8547 21.3813 25.7835 21.2097 25.7831 21.0305C25.783 20.9851 25.7875 20.9399 25.7966 20.8954C25.8053 20.8521 25.8182 20.8098 25.8351 20.769C25.8522 20.7282 25.873 20.6891 25.8973 20.6521C25.9217 20.6152 25.9498 20.5808 25.981 20.5494C26.0123 20.518 26.0467 20.49 26.0838 20.4656C26.1206 20.4411 26.1597 20.4202 26.2007 20.4034C26.2414 20.3866 26.2838 20.3737 26.327 20.3649C26.4142 20.3474 26.504 20.3474 26.5912 20.3649C26.6779 20.3823 26.7603 20.4165 26.8338 20.4656C26.8709 20.49 26.9053 20.518 26.9365 20.5494C26.9678 20.581 26.9961 20.6154 27.021 20.6521C27.0453 20.6891 27.0661 20.7282 27.0832 20.769C27.1001 20.8098 27.113 20.8521 27.1217 20.8954C27.1305 20.9399 27.1348 20.9852 27.1345 21.0305C27.1341 21.2097 27.0629 21.3813 26.9365 21.5083C26.9053 21.5399 26.8709 21.5682 26.8338 21.5928C26.7603 21.6419 26.6779 21.6761 26.5912 21.6934C26.5476 21.7021 26.5033 21.7064 26.4588 21.7063ZM23.6132 22.3719C23.6566 22.3805 23.7008 22.3848 23.745 22.3847C23.7892 22.3848 23.8334 22.3805 23.8768 22.3719C23.92 22.3632 23.9624 22.3503 24.0031 22.3334C24.0441 22.3166 24.0832 22.2958 24.12 22.2712C24.1571 22.2469 24.1915 22.2188 24.2228 22.1874C24.254 22.156 24.2821 22.1216 24.3065 22.0847C24.3308 22.0477 24.3516 22.0086 24.3687 21.9678C24.3859 21.9271 24.3988 21.8848 24.4072 21.8414C24.4252 21.7543 24.4252 21.6644 24.4072 21.5772C24.3988 21.5339 24.3859 21.4915 24.3687 21.4509C24.3516 21.4101 24.3308 21.3709 24.3065 21.3339C24.2821 21.297 24.254 21.2626 24.2228 21.2312C24.1915 21.1999 24.1571 21.1718 24.12 21.1474C24.0832 21.1229 24.0441 21.1021 24.0031 21.0853C23.9624 21.0684 23.92 21.0555 23.8768 21.0468C23.7898 21.0292 23.7002 21.0292 23.6132 21.0468C23.57 21.0555 23.5276 21.0684 23.4869 21.0853C23.4459 21.1021 23.4068 21.1229 23.37 21.1474C23.3329 21.1718 23.2985 21.1999 23.2673 21.2312C23.236 21.2628 23.2077 21.2972 23.1828 21.3339C23.1585 21.3709 23.1377 21.4101 23.1206 21.4509C23.1037 21.4916 23.0908 21.5339 23.0821 21.5772C23.065 21.6645 23.065 21.7542 23.0821 21.8414C23.0908 21.8847 23.1037 21.927 23.1206 21.9678C23.1377 22.0086 23.1585 22.0477 23.1828 22.0847C23.2077 22.1214 23.236 22.1558 23.2673 22.1874C23.2985 22.2188 23.3329 22.2469 23.37 22.2712C23.4068 22.2958 23.4459 22.3166 23.4869 22.3334C23.5276 22.3503 23.57 22.3632 23.6132 22.3719ZM21.0312 23.0632C20.9858 23.0635 20.9406 23.0592 20.8961 23.0503C20.8528 23.0415 20.8105 23.0286 20.7697 23.0118C20.6879 22.9775 20.6134 22.928 20.5501 22.8659C20.4875 22.803 20.4379 22.7283 20.4041 22.6462C20.3872 22.6055 20.3743 22.5631 20.3656 22.5199C20.357 22.4765 20.3527 22.4323 20.3528 22.3881C20.3531 22.2089 20.424 22.037 20.5501 21.9097C20.5819 21.8787 20.6165 21.8506 20.6535 21.8259C20.6901 21.8015 20.729 21.7807 20.7697 21.7637C20.8105 21.7469 20.8528 21.734 20.8961 21.7252C21.0272 21.6986 21.1633 21.7117 21.2869 21.7629C21.4105 21.814 21.5161 21.9009 21.5901 22.0124C21.6143 22.0494 21.6351 22.0885 21.6522 22.1293C21.6691 22.1701 21.682 22.2124 21.6907 22.2557C21.7087 22.3428 21.7087 22.4327 21.6907 22.5199C21.682 22.5631 21.6691 22.6055 21.6522 22.6462C21.6351 22.687 21.6143 22.7262 21.5901 22.7631C21.5411 22.8373 21.4777 22.9007 21.4035 22.9497C21.3666 22.9739 21.3274 22.9947 21.2866 23.0118C21.2459 23.0287 21.2035 23.0416 21.1603 23.0503C21.1178 23.0588 21.0745 23.0631 21.0312 23.0632ZM26.327 29.157C26.3704 29.1657 26.4146 29.17 26.4588 29.1699C26.5032 29.1706 26.5476 29.167 26.5912 29.1591C26.7003 29.1372 26.8022 29.0887 26.888 29.018C26.9738 28.9473 27.0409 28.8565 27.0832 28.7536C27.1 28.7128 27.1129 28.6705 27.1217 28.6273C27.1305 28.5828 27.1348 28.5375 27.1345 28.4921C27.1347 28.4479 27.1304 28.4037 27.1217 28.3603C27.113 28.3171 27.1001 28.2748 27.0832 28.234C27.0664 28.193 27.0456 28.1539 27.021 28.1171C26.9962 28.0802 26.9679 28.0458 26.9365 28.0144C26.9053 27.983 26.8709 27.9549 26.8338 27.9306C26.7972 27.9062 26.7583 27.8853 26.7176 27.8684C26.6768 27.8516 26.6345 27.8387 26.5912 27.8299C26.504 27.8123 26.4142 27.8123 26.327 27.8299C26.2838 27.8386 26.2414 27.8515 26.2007 27.8684C26.1597 27.8852 26.1206 27.906 26.0838 27.9306C26.0096 27.9795 25.9462 28.0429 25.8972 28.1171C25.8727 28.1539 25.8519 28.193 25.8351 28.234C25.8182 28.2748 25.8053 28.3171 25.7966 28.3603C25.7877 28.4037 25.7832 28.4479 25.783 28.4921C25.783 28.5375 25.7875 28.5828 25.7966 28.6273C25.8054 28.6705 25.8183 28.7128 25.8351 28.7536C25.852 28.7943 25.8728 28.8332 25.8972 28.8699C25.9216 28.9069 25.9497 28.9413 25.981 28.9726C26.0125 29.004 26.0469 29.0323 26.0838 29.057C26.1206 29.0814 26.1598 29.102 26.2007 29.1185C26.2414 29.1354 26.2838 29.1483 26.327 29.157ZM23.745 29.8483C23.7008 29.8484 23.6566 29.8441 23.6132 29.8355C23.57 29.8268 23.5276 29.8139 23.4869 29.797C23.4459 29.7802 23.4068 29.7594 23.37 29.7348C23.296 29.6852 23.2324 29.6216 23.1828 29.5476C23.1588 29.5108 23.1383 29.4719 23.1213 29.4314C23.1041 29.3907 23.0912 29.3484 23.0828 29.305C23.0737 29.2606 23.0692 29.2153 23.0693 29.1699C23.0694 29.1256 23.0739 29.0815 23.0828 29.0381C23.0912 28.9948 23.1041 28.9524 23.1213 28.9118C23.1381 28.871 23.1587 28.8318 23.1828 28.7948C23.2076 28.758 23.2359 28.7236 23.2673 28.6921C23.2985 28.6608 23.3329 28.6327 23.37 28.6083C23.4068 28.5838 23.4459 28.563 23.4869 28.5462C23.5276 28.5293 23.57 28.5164 23.6132 28.5077C23.7002 28.4901 23.7898 28.4901 23.8768 28.5077C23.92 28.5164 23.9624 28.5293 24.0031 28.5462C24.0441 28.563 24.0832 28.5838 24.12 28.6083C24.1571 28.6327 24.1915 28.6608 24.2228 28.6921C24.254 28.7235 24.2821 28.7579 24.3065 28.7948C24.3311 28.8317 24.3519 28.8708 24.3687 28.9118C24.3859 28.9524 24.3988 28.9948 24.4072 29.0381C24.4161 29.0815 24.4206 29.1256 24.4207 29.1699C24.4208 29.2153 24.4163 29.2606 24.4072 29.305C24.3988 29.3484 24.3859 29.3907 24.3687 29.4314C24.3518 29.472 24.331 29.511 24.3065 29.5476C24.2822 29.5846 24.2541 29.6191 24.2228 29.6503C24.1913 29.6817 24.1569 29.71 24.12 29.7348C24.0832 29.7594 24.0441 29.7802 24.0031 29.797C23.9624 29.8139 23.92 29.8268 23.8768 29.8355C23.8334 29.8441 23.7892 29.8484 23.745 29.8483ZM20.8961 30.5139C20.9405 30.523 20.9858 30.5275 21.0312 30.5275C21.0746 30.5272 21.1178 30.5226 21.1603 30.5139C21.2035 30.5052 21.2459 30.4923 21.2866 30.4754C21.3274 30.4583 21.3666 30.4375 21.4035 30.4133C21.4961 30.3515 21.5719 30.2679 21.6244 30.1698C21.6768 30.0718 21.7043 29.9623 21.7043 29.851C21.7041 29.8068 21.6996 29.7626 21.6907 29.7193C21.682 29.676 21.6691 29.6337 21.6522 29.5929C21.6351 29.5521 21.6143 29.513 21.5901 29.476C21.5411 29.4019 21.4777 29.3384 21.4035 29.2895C21.3666 29.2652 21.3274 29.2444 21.2866 29.2273C21.2459 29.2104 21.2035 29.1975 21.1603 29.1888C21.0731 29.1712 20.9833 29.1712 20.8961 29.1888C20.8528 29.1976 20.8105 29.2105 20.7697 29.2273C20.6879 29.2616 20.6134 29.3111 20.5501 29.3733C20.4875 29.4362 20.4379 29.5108 20.4041 29.5929C20.3872 29.6337 20.3743 29.676 20.3656 29.7193C20.357 29.7627 20.3527 29.8068 20.3528 29.851C20.3527 29.9847 20.3923 30.1153 20.4665 30.2265C20.5407 30.3376 20.6462 30.4242 20.7697 30.4754C20.8105 30.4922 20.8528 30.5051 20.8961 30.5139Z" fill="url(#paint0_linear_158_3017)"/>
<defs>
<linearGradient id="paint0_linear_158_3017" x1="0" y1="17.2991" x2="30.5268" y2="17.2991" gradientUnits="userSpaceOnUse">
<stop stop-color="#9942FF"/>
<stop offset="1" stop-color="#FC067D"/>
</linearGradient>
</defs>
</svg>
