<svg width="39" height="41" viewBox="0 0 39 41" fill="none" xmlns="http://www.w3.org/2000/svg">
<path d="M4.68253 16.948H4.78402V14.4616C4.78402 6.4747 11.2586 0 19.2457 0C27.2327 0 33.7073 6.4747 33.7073 14.4616V16.948H34.3162C36.5489 16.948 38.2741 18.9269 38.2741 21.2104V27.5532C38.3303 29.7664 36.5817 31.6061 34.3685 31.6624C34.351 31.6628 34.3336 31.6631 34.3162 31.6633H30.5612C30.0294 31.6384 29.6184 31.1868 29.6435 30.655C29.6444 30.6359 29.6458 30.6167 29.6479 30.5977V18.1658C29.6479 17.5569 30.0031 16.9479 30.5612 16.9479H31.6776V14.4615C31.6776 7.59561 26.1116 2.02961 19.2457 2.02961C12.3797 2.02961 6.81373 7.59561 6.81373 14.4615V16.9479H7.93007C8.48825 16.9479 8.84343 17.5568 8.84343 18.1658V30.5977C8.90006 31.1271 8.5168 31.6022 7.98738 31.6589C7.96834 31.6609 7.94921 31.6624 7.93007 31.6632H6.76303L6.86452 31.8154C8.38714 33.839 10.7764 35.0242 13.3088 35.0122C13.8632 32.2938 16.5165 30.5394 19.2349 31.0939C21.5595 31.568 23.2356 33.6039 23.2544 35.9763C23.2266 38.759 20.9628 41 18.1801 40.9998C16.8026 40.9775 15.4896 40.4122 14.5267 39.4268C13.877 38.7615 13.4513 37.91 13.3088 36.9911C10.1375 37.0031 7.14677 35.5171 5.2408 32.9825L4.27665 31.5616C2.09475 31.4095 0.724705 30.0394 0.724705 28.0604V21.7176C0.724609 19.5359 2.34834 16.948 4.68253 16.948ZM31.6776 29.6336H34.3162C35.4088 29.607 36.273 28.6998 36.2464 27.6071C36.2459 27.5892 36.2452 27.5712 36.2444 27.5531V21.2103C36.2444 20.0433 35.4325 18.9776 34.3162 18.9776H31.6776V29.6336ZM15.9981 38.0061C16.5605 38.6159 17.3506 38.965 18.18 38.9703C19.8309 38.9441 21.1707 37.6267 21.2246 35.9764C21.2252 34.323 19.8854 32.9821 18.232 32.9814C16.5785 32.9807 15.2376 34.3206 15.2369 35.974C15.2369 35.9748 15.2369 35.9757 15.2369 35.9764C15.1947 36.7298 15.4709 37.4663 15.9981 38.0061ZM2.75431 28.0606C2.75431 29.4306 4.07365 29.6336 4.68253 29.6336H6.81373V18.9777H4.68253C3.56618 18.9777 2.75431 20.5507 2.75431 21.7178V28.0606Z" fill="url(#paint0_linear_158_3039)"/>
<defs>
<linearGradient id="paint0_linear_158_3039" x1="38.2754" y1="20.4999" x2="0.724705" y2="20.4999" gradientUnits="userSpaceOnUse">
<stop stop-color="#9942FF"/>
<stop offset="1" stop-color="#FC067D"/>
</linearGradient>
</defs>
</svg>
