<svg width="76" height="76" viewBox="0 0 76 76" fill="none" xmlns="http://www.w3.org/2000/svg">
<g clip-path="url(#clip0_613_922)">
<path d="M66.5 52.5L52.5 66.5L56.5 74.5L75 56.5L66.5 52.5Z" fill="#DDDFE8"/>
<path d="M75.3412 55.2959L67.5512 51.4009L62.5934 38.5047C62.535 38.3522 62.4458 38.2134 62.3314 38.0969C62.217 37.9805 62.0798 37.8888 61.9284 37.8278L31.1662 25.5312C30.9511 25.4456 30.7157 25.4247 30.4889 25.4711C30.2621 25.5175 30.0538 25.6292 29.8896 25.7925L25.7868 29.8953C25.6257 30.0596 25.5159 30.2671 25.4705 30.4927C25.4252 30.7183 25.4464 30.9522 25.5315 31.1659L37.8281 61.9281C37.8891 62.0795 37.9807 62.2167 38.0972 62.3312C38.2137 62.4456 38.3525 62.5348 38.5049 62.5931L51.4012 67.5509L55.2962 75.3409C55.3782 75.5127 55.5003 75.6622 55.6522 75.7769C55.8041 75.8916 55.9813 75.9681 56.169 76C56.2322 76.0059 56.2958 76.0059 56.359 76C56.6734 75.9987 56.9745 75.8727 57.1962 75.6497L75.6499 57.1959C75.7858 57.0649 75.8884 56.9033 75.9493 56.7247C76.0102 56.5461 76.0277 56.3555 76.0003 56.1687C75.9684 55.9811 75.8919 55.8038 75.7772 55.6519C75.6625 55.5 75.513 55.3779 75.3412 55.2959ZM28.0193 31.0115L28.6784 30.3584L43.9912 45.6712C42.982 47.1012 42.5462 48.8578 42.7698 50.5937C42.9935 52.3296 43.8604 53.9184 45.199 55.0459C46.5377 56.1734 48.2507 56.7575 49.9994 56.6828C51.748 56.608 53.4049 55.8799 54.6425 54.6423C55.8801 53.4047 56.6083 51.7477 56.683 49.9991C56.7578 48.2505 56.1736 46.5375 55.0461 45.1988C53.9186 43.8601 52.3299 42.9932 50.594 42.7696C48.8581 42.5459 47.1015 42.9818 45.6715 43.9909L30.3587 28.6781L31.0118 28.019L60.5628 39.8406L65.2237 51.965L51.9653 65.2234L39.8409 60.5625L28.0193 31.0115ZM49.6971 45.0834C50.7644 45.085 51.7981 45.4566 52.6221 46.1348C53.4461 46.8131 54.0095 47.756 54.2163 48.8031C54.4231 49.8501 54.2604 50.9364 53.7561 51.877C53.2517 52.8176 52.4369 53.5542 51.4503 53.9614C50.4638 54.3685 49.3666 54.4211 48.3457 54.11C47.3248 53.799 46.4433 53.1436 45.8514 52.2555C45.2595 51.3674 44.9938 50.3016 45.0995 49.2396C45.2053 48.1776 45.676 47.1851 46.4315 46.4312C47.2985 45.567 48.473 45.0823 49.6971 45.0834ZM56.6856 72.8056L53.7168 66.8681L66.8565 53.7284L72.794 56.6972L56.6856 72.8056Z" fill="url(#paint0_linear_613_922)"/>
<path d="M22.7109 63.5312C22.4838 63.3166 22.1832 63.197 21.8708 63.197C21.5583 63.197 21.2577 63.3166 21.0306 63.5312L19.5225 65.0394C15.4979 59.5772 13.2777 52.9955 13.1713 46.2115C13.0649 39.4276 15.0775 32.7795 18.9287 27.1937C20.0826 27.8286 21.4111 28.0725 22.7152 27.8889C24.0193 27.7052 25.2288 27.1038 26.1623 26.1749C27.0959 25.246 27.7033 24.0396 27.8936 22.7364C28.0838 21.4333 27.8466 20.1036 27.2175 18.9466C32.8033 15.0953 39.4514 13.0827 46.2353 13.1891C53.0192 13.2955 59.6009 15.5157 65.0631 19.5403L63.5312 21.0306C63.3104 21.2533 63.1866 21.5542 63.1869 21.8678C63.186 22.0241 63.2159 22.179 63.275 22.3237C63.3341 22.4684 63.4212 22.6 63.5312 22.7109L68.7681 27.9062C68.9906 28.1274 69.2916 28.2516 69.6053 28.2516C69.919 28.2516 70.22 28.1274 70.4425 27.9062L75.6497 22.6991C75.7601 22.5888 75.8477 22.4578 75.9074 22.3136C75.9672 22.1695 75.998 22.015 75.998 21.8589C75.998 21.7028 75.9672 21.5483 75.9074 21.4042C75.8477 21.26 75.7601 21.129 75.6497 21.0187L70.4425 15.8116C70.22 15.5904 69.919 15.4662 69.6053 15.4662C69.2916 15.4662 68.9906 15.5904 68.7681 15.8116L66.7553 17.8125C61.7946 14.0796 55.9296 11.7343 49.7628 11.0174C43.596 10.3005 37.3494 11.238 31.6647 13.7334L38.5106 6.90531C39.2868 7.27621 40.1694 7.36016 41.0016 7.14228C41.8339 6.9244 42.562 6.41876 43.0569 5.71507C43.5518 5.01138 43.7815 4.15514 43.7051 3.29824C43.6288 2.44134 43.2514 1.63918 42.6398 1.03408C42.0283 0.428974 41.2222 0.0600412 40.3646 -0.00726984C39.5069 -0.0745808 38.6532 0.164082 37.9547 0.666379C37.2563 1.16868 36.7584 1.90213 36.5493 2.73663C36.3402 3.57113 36.4334 4.45271 36.8125 5.22499L25.2581 16.7972C24.085 16.0102 22.675 15.655 21.269 15.7922C19.863 15.9294 18.5483 16.5505 17.5494 17.5494C16.5505 18.5483 15.9294 19.863 15.7922 21.269C15.655 22.675 16.0102 24.085 16.7972 25.2581L5.22499 36.8125C4.44969 36.4347 3.56555 36.344 2.7297 36.5565C1.89385 36.7691 1.1604 37.271 0.659705 37.9733C0.159007 38.6755 -0.0765208 39.5325 -0.00502424 40.392C0.0664723 41.2514 0.440362 42.0577 1.05021 42.6676C1.66005 43.2774 2.46635 43.6513 3.32583 43.7228C4.18531 43.7943 5.04231 43.5588 5.74453 43.0581C6.44676 42.5574 6.94873 41.824 7.16126 40.9881C7.37378 40.1522 7.28309 39.2681 6.9053 38.4928L13.7512 31.6647C11.2533 37.3479 10.3129 43.5935 11.0266 49.7603C11.7403 55.9271 14.0825 61.7929 17.8125 66.7553L15.8056 68.7681C15.5844 68.9906 15.4603 69.2916 15.4603 69.6053C15.4603 69.919 15.5844 70.22 15.8056 70.4425L21.0128 75.6497C21.2345 75.8727 21.5356 75.9987 21.85 76C22.0067 76.0001 22.1619 75.9692 22.3066 75.9091C22.4513 75.849 22.5826 75.7608 22.6931 75.6497L27.9062 70.4425C28.1274 70.22 28.2516 69.919 28.2516 69.6053C28.2516 69.2916 28.1274 68.9906 27.9062 68.7681L22.7109 63.5312ZM69.6172 18.3172L73.1441 21.8441L69.6172 25.3709L66.0903 21.8441L69.6172 18.3172ZM39.1875 2.74906C39.3639 2.57116 39.5893 2.44969 39.8349 2.40005C40.0805 2.35042 40.3353 2.37486 40.567 2.47028C40.7987 2.5657 40.9968 2.72779 41.1362 2.93599C41.2756 3.14419 41.3501 3.38911 41.3501 3.63968C41.3501 3.89025 41.2756 4.13517 41.1362 4.34337C40.9968 4.55157 40.7987 4.71366 40.567 4.80908C40.3353 4.9045 40.0805 4.92894 39.8349 4.87931C39.5893 4.82968 39.3639 4.7082 39.1875 4.53031C39.0704 4.4134 38.9776 4.27457 38.9142 4.12175C38.8509 3.96893 38.8183 3.80511 38.8183 3.63968C38.8183 3.47425 38.8509 3.31044 38.9142 3.15762C38.9776 3.0048 39.0704 2.86596 39.1875 2.74906ZM19.2375 19.2375C19.5823 18.891 19.9922 18.6161 20.4436 18.4285C20.895 18.2409 21.379 18.1443 21.8678 18.1443C22.3566 18.1443 22.8406 18.2409 23.292 18.4285C23.7434 18.6161 24.1533 18.891 24.4981 19.2375C25.0194 19.7579 25.3745 20.4212 25.5186 21.1435C25.6628 21.8659 25.5894 22.6147 25.3078 23.2953C25.0262 23.9759 24.5491 24.5577 23.9367 24.967C23.3244 25.3764 22.6044 25.5948 21.8678 25.5948C21.1312 25.5948 20.4112 25.3764 19.7989 24.967C19.1866 24.5577 18.7094 23.9759 18.4278 23.2953C18.1462 22.6147 18.0728 21.8659 18.217 21.1435C18.3611 20.4212 18.7162 19.7579 19.2375 19.2375ZM4.53624 40.9687C4.29381 41.1709 3.98453 41.2751 3.66918 41.2609C3.35383 41.2466 3.05521 41.115 2.832 40.8917C2.60878 40.6685 2.47712 40.3699 2.46287 40.0546C2.44862 39.7392 2.55282 39.4299 2.75499 39.1875C2.99261 38.954 3.31245 38.8231 3.64562 38.8231C3.97878 38.8231 4.29862 38.954 4.53624 39.1875C4.65329 39.3044 4.74615 39.4432 4.80951 39.5961C4.87286 39.7489 4.90547 39.9127 4.90547 40.0781C4.90547 40.2436 4.87286 40.4074 4.80951 40.5602C4.74615 40.713 4.65329 40.8518 4.53624 40.9687ZM21.8678 73.1084L18.3409 69.5816L21.8678 66.0547L25.3947 69.5816L21.8678 73.1084Z" fill="url(#paint1_linear_613_922)"/>
</g>
<defs>
<linearGradient id="paint0_linear_613_922" x1="25.4473" y1="50.7257" x2="76.0129" y2="50.7257" gradientUnits="userSpaceOnUse">
<stop stop-color="#9942FF"/>
<stop offset="1" stop-color="#FC067D"/>
</linearGradient>
<linearGradient id="paint1_linear_613_922" x1="-0.0175781" y1="37.9908" x2="75.998" y2="37.9908" gradientUnits="userSpaceOnUse">
<stop stop-color="#FB9004"/>
<stop offset="1" stop-color="#FC067D"/>
</linearGradient>
<clipPath id="clip0_613_922">
<rect width="76" height="76" fill="white"/>
</clipPath>
</defs>
</svg>
