<svg width="954" height="615" viewBox="0 0 954 615" fill="none" xmlns="http://www.w3.org/2000/svg">
<path opacity="0.16" d="M631.964 38.0505C444.221 5.96725 204.55 82.1579 205.881 274.64C-8.48968 325.432 -27.1308 492.516 23.4653 600.785H924.896C1032.75 270.629 819.703 70.1294 631.964 38.0505Z" fill="#B5A7E9"/>
<path d="M319.258 460.072H744.4V160.058C744.4 151.833 737.732 145.165 729.505 145.165H334.152C325.927 145.165 319.258 151.833 319.258 160.058V460.072Z" fill="#6880E4"/>
<path d="M334.287 402.832H728.619V160.589H334.287V402.832Z" fill="#EEEEFD"/>
<path d="M744.382 414.606H531.892H319.406L272.9 588.429H533.287H790.886L744.382 414.606Z" fill="#D4CCF3"/>
<path d="M335.484 445.101H361.593C362.684 445.101 363.508 445.95 363.304 446.865L360.776 458.224C360.619 458.923 359.9 459.431 359.065 459.431H332.508C331.393 459.431 330.565 458.549 330.808 457.622L333.784 446.265C333.96 445.586 334.668 445.101 335.484 445.101Z" fill="white"/>
<path d="M373.569 445.101H393.305L390.682 459.43H370.566L373.569 445.101Z" fill="white"/>
<path d="M403.177 445.101H422.915L420.851 459.43L400.732 459.45L403.177 445.101Z" fill="white"/>
<path d="M432.785 445.101H452.523L451.022 459.43H430.908L432.785 445.101Z" fill="white"/>
<path d="M462.394 445.101H482.132L481.194 459.43H461.08L462.394 445.101Z" fill="white"/>
<path d="M492 445.101H511.739L511.365 459.43L491.248 459.45L492 445.101Z" fill="white"/>
<path d="M728.937 445.101H699.328L702.518 459.43H732.688L728.937 445.101Z" fill="white"/>
<path d="M689.459 445.101H669.721L672.349 459.43H692.463L689.459 445.101Z" fill="white"/>
<path d="M659.849 445.101H640.109L642.172 459.43L662.29 459.45L659.849 445.101Z" fill="white"/>
<path d="M630.241 445.101H610.502L612.003 459.43H632.118L630.241 445.101Z" fill="white"/>
<path d="M600.634 445.101H580.895L581.833 459.43H601.947L600.634 445.101Z" fill="white"/>
<path d="M571.023 445.101H551.283L551.661 459.43L571.776 459.45L571.023 445.101Z" fill="white"/>
<path d="M521.609 445.101H541.349L541.674 459.43H521.609V445.101Z" fill="white"/>
<path d="M326.802 470.106H368.049L365.699 484.888H323.67L326.802 470.106Z" fill="white"/>
<path d="M735.376 470.106H684.391L687.294 484.888H739.248L735.376 470.106Z" fill="white"/>
<path d="M674.193 470.106H653.801L656.123 484.888H676.904L674.193 470.106Z" fill="white"/>
<path d="M643.604 470.106H623.211L624.953 484.888H645.735L643.604 470.106Z" fill="white"/>
<path d="M613.013 470.106H592.619L593.779 484.888H614.561L613.013 470.106Z" fill="white"/>
<path d="M582.421 470.106H562.027L562.607 484.888H583.389L582.421 470.106Z" fill="white"/>
<path d="M320.638 496.454H362.805L359.728 511.136H316.791L320.638 496.454Z" fill="white"/>
<path d="M373.348 496.454H394.431L391.932 511.136H370.463L373.348 496.454Z" fill="white"/>
<path d="M404.972 496.454H426.057H563.093L563.68 511.136H402.666L404.972 496.454Z" fill="white"/>
<path d="M573.648 496.454H594.73L595.886 511.136H574.417L573.648 496.454Z" fill="white"/>
<path d="M605.275 496.454H626.36L628.09 511.136H606.621L605.275 496.454Z" fill="white"/>
<path d="M636.902 496.454H657.984L660.294 511.136H638.823L636.902 496.454Z" fill="white"/>
<path d="M668.527 496.454H689.611L692.496 511.136H671.027L668.527 496.454Z" fill="white"/>
<path d="M700.154 496.454H742.321L746.168 511.136H703.231L700.154 496.454Z" fill="white"/>
<path d="M551.873 470.106H531.645V484.888H552.261L551.873 470.106Z" fill="white"/>
<path d="M521.285 470.106H500.89L500.309 484.888H521.09L521.285 470.106Z" fill="white"/>
<path d="M490.694 470.106H470.3L469.139 484.888H489.92L490.694 470.106Z" fill="white"/>
<path d="M460.101 470.106H439.706L437.963 484.888H458.746L460.101 470.106Z" fill="white"/>
<path d="M429.51 470.106H409.115L406.791 484.888H427.571L429.51 470.106Z" fill="white"/>
<path d="M398.918 470.106H378.523L375.621 484.888H396.401L398.918 470.106Z" fill="white"/>
<path d="M336.447 436.096L339.796 423.304H349.381L346.254 436.096H336.447Z" fill="white"/>
<path d="M358.968 423.304H378.134L375.453 436.096H355.951L358.968 423.304Z" fill="white"/>
<path d="M387.72 423.304H406.886L404.709 436.096H385.205L387.72 423.304Z" fill="white"/>
<path d="M416.473 423.304H435.639L433.964 436.096H414.461L416.473 423.304Z" fill="white"/>
<path d="M445.224 423.304H464.392L463.219 436.096H443.717L445.224 423.304Z" fill="white"/>
<path d="M473.975 423.304H493.142L492.474 436.096H472.969L473.975 423.304Z" fill="white"/>
<path d="M502.726 423.304H521.893L521.727 436.096H502.225L502.726 423.304Z" fill="white"/>
<path d="M531.479 423.304H550.649L550.982 436.096H531.479V423.304Z" fill="white"/>
<path d="M560.23 423.304H579.401L580.239 436.096H560.734L560.23 423.304Z" fill="white"/>
<path d="M588.984 423.304H608.155L609.494 436.096H589.992L588.984 423.304Z" fill="white"/>
<path d="M617.736 423.304H636.907L638.749 436.096H619.244L617.736 423.304Z" fill="white"/>
<path d="M646.488 423.304H665.659L668.004 436.096H648.501L646.488 423.304Z" fill="white"/>
<path d="M675.242 423.304H694.411L697.26 436.096H677.758L675.242 423.304Z" fill="white"/>
<path d="M703.992 423.304H723.161L726.513 436.096H707.007L703.992 423.304Z" fill="white"/>
<path d="M777.353 601.961H286.432C278.958 601.961 272.9 595.903 272.9 588.429H790.886C790.886 595.903 784.826 601.961 777.353 601.961Z" fill="#BAADEB"/>
<path d="M592.109 532.259C591.602 529.198 588.956 526.955 585.853 526.955H531.892H477.931C474.829 526.955 472.185 529.198 471.679 532.259L464.936 573.058C464.298 576.919 467.275 580.428 471.188 580.428H531.892H592.596C596.509 580.428 599.488 576.919 598.851 573.058L592.109 532.259Z" fill="#CABCFE"/>
<path d="M404.84 181.143H360.91V185.641H404.84V181.143Z" fill="#E0E0E0"/>
<path d="M448.854 215.012H417.137V219.51H448.854V215.012Z" fill="#E0E0E0"/>
<path d="M474.838 215.012H453.791V219.51H474.838V215.012Z" fill="#1487E3"/>
<path d="M382.454 300.184H361.406V304.682H382.454V300.184Z" fill="#1487E3"/>
<path d="M529.817 215.012H479V219.51H529.817V215.012Z" fill="#E0E0E0"/>
<path d="M394.06 283.125H361.406V287.623H394.06V283.125Z" fill="#E0E0E0"/>
<path d="M426.864 317.121H406.93V321.617H426.864V317.121Z" fill="#E0E0E0"/>
<path d="M400.901 317.121H361.406V321.617H400.901V317.121Z" fill="#1487E3"/>
<path d="M383.189 334.054H361.406V338.552H383.189V334.054Z" fill="#E0E0E0"/>
<path d="M444.573 181.143H413.387V185.641H444.573V181.143Z" fill="#78C2FF"/>
<path d="M444.573 231.947H413.387V236.445H444.573V231.947Z" fill="#1487E3"/>
<path d="M411.118 248.882H397.793V253.38H411.118V248.882Z" fill="#E0E0E0"/>
<path d="M414.397 266.067H384.467V270.564H414.397V266.067Z" fill="#78C2FF"/>
<path d="M460.236 266.067H418.92V270.564H460.236V266.067Z" fill="#1487E3"/>
<path d="M392.592 249.006H361.406V253.504H392.592V249.006Z" fill="#1487E3"/>
<path d="M379.91 266.067H361.406V270.564H379.91V266.067Z" fill="#1487E3"/>
<path d="M434.859 249.006H417.402V253.504H434.859V249.006Z" fill="#FF8761"/>
<path d="M379.387 350.99H361.932V355.486H379.387V350.99Z" fill="#FF8761"/>
<path d="M392.468 215.012H361.283V219.51H392.468V215.012Z" fill="#78C2FF"/>
<path d="M420.047 300.184H388.861V304.682H420.047V300.184Z" fill="#78C2FF"/>
<path d="M420.434 334.054H389.25V338.552H420.434V334.054Z" fill="#78C2FF"/>
<path d="M475.833 334.054H444.648V338.552H475.833V334.054Z" fill="#78C2FF"/>
<path d="M405.738 231.947H361.283V236.445H405.738V231.947Z" fill="#78C2FF"/>
<path d="M600.784 181.143H569.6V185.641H600.784V181.143Z" fill="#78C2FF"/>
<path d="M489.692 350.99H458.506V355.486H489.692V350.99Z" fill="#78C2FF"/>
<path d="M631.362 181.143H610.486V185.641H631.362V181.143Z" fill="#78C2FF"/>
<path d="M701.99 198.078H681.115V202.575H701.99V198.078Z" fill="#78C2FF"/>
<path d="M492.701 181.143H452.969V185.641H492.701V181.143Z" fill="#1487E3"/>
<path d="M647.506 198.078H607.775V202.575H647.506V198.078Z" fill="#1487E3"/>
<path d="M598.775 215.012H559.043V219.51H598.775V215.012Z" fill="#1487E3"/>
<path d="M547.049 231.947H507.318V236.445H547.049V231.947Z" fill="#1487E3"/>
<path d="M632.02 215.012H603.775V219.51H632.02V215.012Z" fill="#78C2FF"/>
<path d="M561.816 181.143H522.086V185.641H561.816V181.143Z" fill="#FF8761"/>
<path d="M500.044 231.947H476.748V236.445H500.044V231.947Z" fill="#FF8761"/>
<path d="M481.801 300.436H458.506V304.934H481.801V300.436Z" fill="#FF8761"/>
<path d="M514.588 181.143H500.043V185.641H514.588V181.143Z" fill="#E0E0E0"/>
<path d="M467.511 231.947H452.969V236.445H467.511V231.947Z" fill="#E0E0E0"/>
<path d="M671.631 198.078H657.086V202.575H671.631V198.078Z" fill="#E0E0E0"/>
<path d="M383.663 198.078H360.91V202.575H383.663V198.078Z" fill="#1487E3"/>
<path d="M439.58 283.25H421.617V287.747H439.58V283.25Z" fill="#1487E3"/>
<path d="M396.595 198.078H389.25V202.575H396.595V198.078Z" fill="#1487E3"/>
<path d="M600.784 198.078H540.062V202.575H600.784V198.078Z" fill="#E0E0E0"/>
<path d="M542.525 334.054H481.803V338.552H542.525V334.054Z" fill="#E0E0E0"/>
<path d="M409.488 198.078H401.994V202.575H409.488V198.078Z" fill="#FF8761"/>
<path d="M534.455 198.078H514.59V202.575H534.455V198.078Z" fill="#1487E3"/>
<path d="M554.324 215.012H534.457V219.51H554.324V215.012Z" fill="#FF8761"/>
<path d="M452.169 350.99H432.303V355.486H452.169V350.99Z" fill="#FF8761"/>
<path d="M509.33 198.078H467.061V202.575H509.33V198.078Z" fill="#1487E3"/>
<path d="M452.41 300.436H427.715V304.934H452.41V300.436Z" fill="#1487E3"/>
<path d="M438.478 334.054H426.129V338.552H438.478V334.054Z" fill="#1487E3"/>
<path d="M461.063 198.078H446.518V202.575H461.063V198.078Z" fill="#78C2FF"/>
<path d="M412.112 215.012H397.57V219.51H412.112V215.012Z" fill="#FF8761"/>
<path d="M415.009 283.25H400.467V287.747H415.009V283.25Z" fill="#FF8761"/>
<path d="M440.976 198.078H415.637V202.575H440.976V198.078Z" fill="#1487E3"/>
<g opacity="0.76">
<path d="M786.654 377.579H602.9C599.415 377.579 596.59 374.753 596.59 371.267V243.886C596.59 240.4 599.415 237.574 602.9 237.574H786.654C790.14 237.574 792.966 240.399 792.966 243.886V371.267C792.965 374.753 790.138 377.579 786.654 377.579Z" fill="white"/>
</g>
<path d="M771.757 319.356H740.118C738.778 319.356 737.695 318.273 737.695 316.937V312.051C737.695 310.714 738.778 309.63 740.118 309.63H771.757C773.096 309.63 774.179 310.714 774.179 312.051V316.937C774.179 318.272 773.094 319.356 771.757 319.356Z" fill="#4AAFFF"/>
<path d="M771.757 337.571H740.118C738.778 337.571 737.695 336.489 737.695 335.151V330.265C737.695 328.927 738.778 327.844 740.118 327.844H771.757C773.096 327.844 774.179 328.929 774.179 330.265V335.151C774.179 336.488 773.094 337.571 771.757 337.571Z" fill="#4AAFFF"/>
<path d="M771.757 355.787H740.118C738.778 355.787 737.695 354.702 737.695 353.366V348.481C737.695 347.142 738.778 346.058 740.118 346.058H771.757C773.096 346.058 774.179 347.142 774.179 348.481V353.366C774.179 354.702 773.094 355.787 771.757 355.787Z" fill="#4AAFFF"/>
<path d="M720.061 287.928C711.946 265.236 690.26 251.3 667.404 251.988C661.87 252.155 656.27 253.177 650.774 255.142C634.125 261.099 622.187 274.358 617.282 290.025C613.883 300.882 613.861 312.895 617.988 324.434C618.398 325.582 618.843 326.709 619.322 327.813C621.493 332.81 624.342 337.332 627.725 341.304C641.909 357.98 665.445 365.028 687.28 357.22C715.466 347.139 730.143 316.116 720.061 287.928ZM682.71 344.447C666.339 350.303 648.694 345.018 638.06 332.516C635.526 329.537 633.388 326.148 631.762 322.4C631.404 321.575 631.069 320.726 630.759 319.867C627.665 311.216 627.683 302.209 630.231 294.072C633.908 282.324 642.857 272.382 655.339 267.919C659.46 266.444 663.66 265.678 667.809 265.551C684.944 265.034 701.204 275.484 707.289 292.497C714.85 313.629 703.843 336.888 682.71 344.447Z" fill="#4AAFFF"/>
<path d="M630.233 294.07L617.283 290.027C622.188 274.359 634.127 261.1 650.775 255.144C656.271 253.178 661.873 252.155 667.405 251.99L667.811 265.551C663.662 265.678 659.463 266.444 655.341 267.918C642.858 272.379 633.908 282.322 630.233 294.07Z" fill="#1A598C"/>
<path d="M631.762 322.398L619.322 327.813C618.843 326.709 618.398 325.582 617.988 324.434C613.861 312.895 613.883 300.884 617.282 290.025L630.231 294.069C627.683 302.206 627.665 311.213 630.759 319.864C631.069 320.726 631.404 321.573 631.762 322.398Z" fill="#2273B5"/>
<path d="M627.727 341.306C624.346 337.333 621.495 332.812 619.324 327.814L631.764 322.4C633.39 326.149 635.528 329.539 638.062 332.516L627.727 341.306Z" fill="#3788CC"/>
<path d="M687.116 338.33C687.116 338.33 684.49 333.735 688.653 321.42C692.679 309.512 706.621 310.59 711.049 318.221C715.48 325.851 713.985 330.591 707.462 339.204C700.939 347.819 689.823 342.268 687.116 338.33Z" fill="#EEA886"/>
<path d="M719.496 550.192C719.496 550.192 720.186 555.249 720.273 556.01C720.358 556.768 727.946 555.562 727.946 555.562L728.561 549.541C728.561 549.541 720.444 549.48 719.496 550.192Z" fill="#EEA886"/>
<path d="M720.188 555.367C720.188 555.367 717.785 558.416 715.459 559.741C713.134 561.071 709.481 561.596 708.105 562.972C707.113 563.964 704.491 568.238 714.148 568.15C723.806 568.065 728.461 568.755 729.495 567.117C730.53 565.478 728 555.026 728 555.026C728 555.026 725.636 555.691 720.188 555.367Z" fill="#414773"/>
<path d="M666.959 550.192C666.959 550.192 667.649 555.249 667.736 556.01C667.822 556.768 675.409 555.562 675.409 555.562L676.024 549.541C676.024 549.541 667.907 549.48 666.959 550.192Z" fill="#EEA886"/>
<path d="M667.653 555.367C667.653 555.367 665.249 558.416 662.922 559.741C660.597 561.071 652.04 562.16 650.666 563.536C649.673 564.53 648.022 568.524 661.61 568.15C671.264 567.884 675.922 568.755 676.958 567.117C677.993 565.478 675.462 555.026 675.462 555.026C675.462 555.026 672.462 555.558 667.653 555.367Z" fill="#414773"/>
<path d="M716.939 424.269C716.939 424.269 720.83 436.357 720.316 446.776C719.803 457.194 722.326 468.595 723.358 479.479C724.508 491.61 729.217 520.333 729.385 526.824C729.556 533.312 728.656 554.037 728.656 554.037L719.232 554.264C719.232 554.264 711.32 504.049 709.27 498.927C707.22 493.804 697.055 457.276 696.715 453.176C696.376 449.077 716.939 424.269 716.939 424.269Z" fill="#2D314F"/>
<path d="M677.873 423.01C677.873 423.01 672.152 454.974 671.468 461.352C670.786 467.729 670.329 492.209 669.989 496.195C669.648 500.178 667.713 548.345 665.891 554.265H676.399C676.399 554.265 687.185 519.251 687.185 502.684C687.185 486.117 694.327 466.669 698.939 455.74C703.552 444.809 714.106 444.551 716.942 424.269C716.942 424.269 681.711 416.578 677.873 423.01Z" fill="#2D314F"/>
<path d="M690.923 341.58C690.923 341.58 692.108 345.029 690.923 347.492C689.738 349.951 706.064 348.476 706.064 348.476C706.064 348.476 705.325 343.389 707.46 339.204C709.592 335.021 690.923 341.58 690.923 341.58Z" fill="#EEA886"/>
<path d="M717.699 426.904C717.699 426.904 711.827 432.936 677.35 425.964L677.876 423.01L717.07 424.488L717.699 426.904Z" fill="#2B3B57"/>
<path d="M688.454 348.291C688.454 348.291 682.423 348.906 680.7 349.236C678.977 349.563 667.379 347.161 665.001 346.914C662.621 346.668 652.476 339.718 652.147 338.896C651.82 338.075 645.975 323.279 645.647 320.079C645.318 316.877 639.954 318.531 640.415 320.735C641.275 324.86 642.38 334.871 642.987 337.775C643.641 340.908 645.392 348.005 646.378 348.879C647.362 349.753 656.497 356.7 665.44 359.654C674.385 362.608 681.115 366.957 681.115 366.957H725.189C725.189 366.957 742.331 342.452 742.701 338.761C743.069 335.068 730.728 310.53 728.266 307.452C725.804 304.376 722.244 308.457 722.244 308.457C722.244 308.457 729.619 330.099 730.602 333.175C731.587 336.252 722.024 349.77 719.397 349.811C716.772 349.852 710.032 348.99 707.037 348.866C704.043 348.742 700.883 347.429 700.883 347.429L688.454 348.291Z" fill="#EEA886"/>
<path d="M669.458 364.658C669.458 364.658 674.855 368.246 675.347 374.397C675.839 380.552 677.807 390.274 678.791 393.596C679.777 396.919 677.93 421.04 677.683 422.763C677.438 424.488 711.788 428.58 717.064 424.488C717.064 424.488 718.541 401.966 719.157 395.566C719.773 389.167 722.726 373.66 723.711 371.568C724.695 369.475 736.632 352.732 737.125 350.523C737.125 350.523 730.948 340.677 726.519 340.555C726.519 340.555 719.484 348.8 717.189 349.17C714.893 349.538 700.832 346.962 700.829 346.94C700.829 346.94 699.293 349.031 691.136 346.569C691.136 346.569 681.417 347.665 679.838 347.866C677.924 348.112 664.619 346.197 664.619 346.197C664.619 346.197 659.28 355.211 660.215 359.761L669.458 364.658Z" fill="#B5A7E9"/>
<path d="M645.952 322.002C645.952 322.002 644.747 316.299 646.199 314.66C647.025 313.728 649.009 311.26 649.189 310.897C649.37 310.535 651.502 309.309 651.502 308.719C651.502 308.13 649.417 307.405 647.603 309.083C645.79 310.758 644.657 311.123 643.932 310.941C643.204 310.76 642.164 304.731 642.072 303.236C641.981 301.739 641.404 297.795 640.467 298.068C639.532 298.34 639.579 300.063 639.579 300.063C639.579 300.063 638.491 297.07 637.766 297.661C637.04 298.249 637.131 299.702 637.131 299.702C637.131 299.702 635.771 298.024 635.408 299.247C635.047 300.472 635.408 301.56 635.408 301.56C635.408 301.56 634.001 300.79 633.913 302.694C633.82 304.597 634.322 310.174 635.319 312.169C636.315 314.164 640.049 319.38 640.494 321.417C640.941 323.455 645.952 322.002 645.952 322.002Z" fill="#EEA886"/>
<path d="M723.446 311.986C723.446 311.986 719.346 305.093 717.95 304.478C716.555 303.862 714.587 303.514 712.864 302.283C711.141 301.054 708.865 300.027 708.987 299.618C709.11 299.208 711.141 299.372 713.315 300.315C715.491 301.258 716.442 300.802 716.648 300.31C716.854 299.817 715.491 296.342 714.834 295.522C714.177 294.699 709.5 289.996 710.281 289.299C711.061 288.603 714.097 291.187 714.589 291.719C714.589 291.719 712.168 286.634 713.112 286.386C714.056 286.139 715.82 287.944 715.82 287.944C715.82 287.944 715.615 283.596 720.292 290.653C720.292 290.653 719.306 288.315 720.743 289.095C722.179 289.873 723.575 294.264 724.026 296.479C724.476 298.692 726.524 305.75 728.269 307.451C730.011 309.153 723.446 311.986 723.446 311.986Z" fill="#EEA886"/>
<path d="M707.463 339.204C707.463 339.204 705.303 339.396 700.708 337.81C696.113 336.222 695.77 328.19 694.778 329.139C692.75 331.081 690.835 329.742 690.069 328.591C690.069 328.591 692.313 325.638 691.274 324.216C690.235 322.794 688.543 321.757 688.543 321.757C688.543 321.757 691.775 306.182 706.481 313.277C723.708 321.593 707.463 339.204 707.463 339.204Z" fill="#353A3D"/>
<path d="M690.928 347.492L691.445 345.239C691.445 345.239 700.832 345.049 705.952 345.79L706.493 348.481C706.493 348.481 699.933 351.457 690.928 347.492Z" fill="#D4D8E8"/>
<path d="M693.241 327.17C694.093 325.755 697.245 324.797 697.616 328.811C697.904 331.922 691.982 335.321 691.927 332.422C691.871 329.522 692.672 328.113 693.241 327.17Z" fill="#EEA886"/>
<path d="M645.738 320.708C645.738 320.708 642.352 320.79 640.709 322.274C640.709 322.274 640.602 323.217 640.983 323.958C640.983 323.958 643.918 322.589 646.171 322.332C646.171 322.332 646.131 321.101 645.738 320.708Z" fill="#E55353"/>
<path d="M641.743 321.551C641.432 322.291 641.778 323.147 642.518 323.459C643.259 323.771 644.114 323.425 644.427 322.684C644.738 321.942 644.394 321.089 643.652 320.776C642.911 320.463 642.056 320.81 641.743 321.551Z" fill="#353A3D"/>
<path d="M558.556 201.195C558.556 201.195 563.397 209.402 565.44 210.741C568.217 212.56 566.476 214.401 565.159 214.402C563.841 214.404 557.113 214.885 555.63 213.203C554.148 211.521 553.414 206.477 552.033 205.158C550.655 203.839 549.232 198.596 552.705 197.323C555.777 196.194 558.556 201.195 558.556 201.195Z" fill="#6069A8"/>
<path d="M556.463 197.586C556.463 197.586 562.006 207.196 562.962 208.615C563.916 210.035 561.162 210.032 559.455 209.359C557.748 208.685 553.456 201.793 552.838 200.536C552.102 199.038 552.706 197.323 552.706 197.323L556.463 197.586Z" fill="#202338"/>
<path d="M550.842 202.756L552.121 212.607L552.801 212.637L552.588 205.55L550.842 202.756Z" fill="#6069A8"/>
<path d="M510.555 201.195C510.555 201.195 515.397 209.401 517.439 210.741C520.215 212.56 518.476 214.401 517.159 214.402C515.842 214.404 509.111 214.885 507.63 213.203C506.148 211.521 505.412 206.477 504.033 205.158C502.655 203.839 501.183 198.461 504.705 197.323C507.792 196.323 510.555 201.195 510.555 201.195Z" fill="#6069A8"/>
<path d="M508.751 197.604C508.751 197.604 514.005 207.194 514.961 208.614C515.915 210.034 513.159 210.03 511.455 209.358C509.747 208.683 505.454 201.791 504.838 200.535C504.102 199.037 504.706 197.321 504.706 197.321L508.751 197.604Z" fill="#202338"/>
<path d="M502.84 202.756L504.121 212.607L504.799 212.637L504.59 205.55L502.84 202.756Z" fill="#6069A8"/>
<path d="M489.07 126.512L532.876 146.472C532.876 146.472 537.763 148.061 538.313 153.491C540.024 170.437 552.698 197.321 552.698 197.321C556.767 199.31 556.456 197.584 556.456 197.584C553.893 189.356 550.772 155.447 549.659 141.812C549.424 138.924 549.277 136.946 549.244 136.314C549.222 135.884 548.752 135.321 547.943 134.664C541.931 129.788 517.197 119.697 517.197 119.697C498.629 119.229 489.07 126.512 489.07 126.512Z" fill="#202338"/>
<path d="M480.821 135.083C482.176 146.924 499.079 145.569 499.079 145.569H519.564C519.564 145.569 514.182 157.542 512.104 167.642C509.9 178.359 504.702 197.323 504.702 197.323C504.702 197.323 505.042 197.966 508.747 197.606C508.747 197.606 524.829 165.557 530.985 157.5C532.309 155.766 536.104 146.355 536.758 140.741C536.979 138.852 536.843 137.394 536.137 136.802C535.425 136.207 533.793 135.083 531.614 133.711C525.196 129.664 514.053 123.436 507.845 122.041C499.53 120.172 486.38 116.669 486.38 116.669C486.38 116.669 479.465 123.244 480.821 135.083Z" fill="#202338"/>
<path d="M494.764 43.8806C494.764 43.8806 491.698 38.0591 493.191 31.8603C494.686 25.6615 500.437 19.4847 508.861 22.3223C517.284 25.1584 524.091 31.7015 519.043 39.2665C513.994 46.8299 523.612 50.2477 521.161 53.8478C518.71 57.4479 519.639 61.2053 520.677 62.0432C521.714 62.8796 525.061 65.8666 524.693 69.4007C524.325 72.9348 508.353 59.0986 508.353 59.0986C508.353 59.0986 499.653 41.6215 494.764 43.8806Z" fill="#464240"/>
<path d="M520.43 118.281C520.43 118.281 519.161 124.443 486.445 116.663C486.445 116.663 497.411 113.019 520.43 118.281Z" fill="#EB4747"/>
<path d="M486.073 118.391C485.565 119.359 485.058 120.327 484.551 121.296C496.51 121.645 508.471 121.992 520.428 122.341C518.539 116.007 519.15 107.428 519.482 100.917C519.888 92.9634 524.278 87.4343 523.812 79.3898C526.178 79.7734 526.586 79.8457 528.955 80.2089C525.33 69.8833 524.09 64.7692 512.833 60.7933C509.167 59.4995 506.76 59.2433 502.792 59.5702C489.755 60.644 485.822 60.7981 479.42 72.6125C489.444 74.2081 487.793 77.8083 490.833 87.7801C492.316 92.6427 493.864 98.0696 493.069 103.199C492.288 108.247 486.073 113.786 486.073 118.391Z" fill="#325BB3"/>
<path d="M506.88 63.2962C501.543 62.2869 502.68 59.3203 502.68 59.3203C502.68 59.3203 502.926 57.646 503.024 55.5284C503.049 54.986 503.062 54.4138 503.058 53.8352C503.057 52.9564 503.014 52.0572 502.912 51.2114C502.475 47.6301 512.596 49.7666 512.596 49.7666C512.596 49.7666 512.013 57.0125 513.411 59.1851C514.805 61.3578 512.216 64.3039 506.88 63.2962Z" fill="#EEA886"/>
<path d="M496.703 59.3015C496.703 59.3015 507.466 71.729 511.445 74.6091C511.445 74.6091 516.015 70.4776 513.198 59.5703C513.198 59.5703 508 56.9685 496.703 59.3015Z" fill="#EEA886"/>
<path d="M496.995 29.3905C496.995 29.3905 491.404 40.1611 496.948 50.3609C502.492 60.5623 513.384 45.9181 514.087 44.1998C514.793 42.4815 518.526 32.7643 511.1 29.8103C503.671 26.8594 498.578 26.468 496.995 29.3905Z" fill="#EEA886"/>
<path d="M498.849 33.2123C498.849 33.2123 495.002 38.2667 494.546 42.0004C494.546 42.0004 493.014 34.9401 497.345 28.158C501.676 21.3759 512.689 27.8357 514.163 30.546C515.638 33.2564 519.961 35.6444 512.698 47.2906C512.698 47.2906 499.64 38.2164 498.849 33.2123Z" fill="#464240"/>
<path d="M507.784 51.4362C507.784 51.4362 506.814 53.557 503.023 55.5284C503.049 54.986 503.061 54.4138 503.058 53.8353C503.058 53.8353 505.625 53.5255 507.784 51.4362Z" fill="#A77860"/>
<path d="M451.295 108.702C451.295 108.702 448.64 109.882 447.377 109.348C446.118 108.812 444.17 108.708 443.555 108.707C442.735 108.705 440.161 107.787 440.204 108.791C440.249 109.798 444.381 110.497 445.226 110.812C446.072 111.124 442.697 112.983 442.383 113.808C442.07 114.633 445.881 120.051 448.028 118.507C450.177 116.963 451.34 113.882 451.779 113.687C452.216 113.492 453.392 112.626 453.392 112.626L451.295 108.702Z" fill="#EEA886"/>
<path d="M442.792 113.328C442.792 113.328 436.561 118.496 436.465 119.192C436.366 119.89 436.696 120.217 437.299 119.758C437.903 119.301 443.479 114.943 443.479 114.943C443.479 114.943 437.235 122.316 437.026 122.865C436.903 123.186 437.502 123.852 437.85 123.637C438.199 123.421 444.838 116.479 444.838 116.479C444.838 116.479 439.021 123.374 438.989 123.891C438.961 124.343 439.662 124.83 440.132 124.349C440.602 123.868 446.389 117.784 446.389 117.784C446.389 117.784 442.498 123.077 442.739 123.544C442.887 123.829 443.377 124.428 444.336 123.028C445.294 121.629 447.925 118.578 447.925 118.578L442.792 113.328Z" fill="#EEA886"/>
<path d="M517.426 145.569H499.08C499.08 145.569 482.176 146.924 480.823 135.085C479.466 123.244 486.38 116.669 486.38 116.669C486.38 116.669 495.31 119.046 503.106 120.93C507.008 120.101 511.713 119.562 517.206 119.7C517.206 119.7 550.252 130.62 549.257 136.368C549.257 136.368 535.432 128.977 517.426 145.569Z" fill="#2F2F5B"/>
<path d="M505.482 125.066L540.462 124.55L522.801 133.519L505.482 125.066Z" fill="#5E5853"/>
<path d="M516.348 120.596C516.348 120.596 508.478 123.645 498.832 120.889L498.381 117.287L518.243 118.391L516.348 120.596Z" fill="#325BB3"/>
<path d="M522.801 133.519L505.482 126.809V125.066L524.17 131.807L522.801 133.519Z" fill="#91887F"/>
<path d="M516.226 122.263C516.134 123.555 517.44 124.487 518.633 123.978L520.663 123.112C521.274 122.852 521.628 122.208 521.523 121.551C520.679 116.259 518.864 95.6643 521.516 92.1286C522.496 90.8222 523.107 89.6777 523.45 88.6778C525.202 93.1914 527.38 99.005 528.247 102.134L544.773 124.119L550.314 125.525C543.399 108.864 537.844 100.036 537.844 100.036C536.761 97.1326 533.661 88.3383 530.915 80.5107C529.179 75.5665 527.588 71.0074 526.733 68.558C526.299 67.3161 525.444 66.2675 524.313 65.5946C521.754 64.0634 517.489 61.6533 513.62 59.7747C513.604 59.7668 513.588 59.7605 513.574 59.7527C513.45 59.6929 513.327 59.6332 513.205 59.5734C513.2 59.5734 513.197 59.5719 513.197 59.5719L513.195 59.5703C520.55 70.6977 517.682 102.123 516.231 122.219C516.229 122.233 516.228 122.249 516.226 122.263Z" fill="#B5A7E9"/>
<path d="M488.928 60.5198C486.572 60.8846 480.73 66.5551 477.628 72.2792C474.088 78.8129 470.483 86.2505 467.782 88.6967C462.816 93.1977 448.912 109.103 448.252 108.717C447.997 108.57 452.064 113.467 452.581 113.695C452.839 113.81 475.432 94.2337 477.601 91.2498C479.661 88.4216 485.162 76.5537 486.806 76.8147C486.806 76.8147 486.808 76.8179 486.811 76.8226L486.814 76.8273C486.938 77.0961 488.939 81.4367 490.837 87.7786C490.868 87.8839 490.898 87.9892 490.931 88.0946C492.238 92.5185 492.118 97.3213 491.411 102.718C490.876 106.792 487.836 113.453 486.003 116.693C485.781 117.083 485.839 117.825 486.077 118.389C486.22 118.726 486.427 118.999 486.679 119.092L493.311 121.551L494.871 122.128C495.993 122.543 497.171 122.327 498.05 121.687C498.771 121.164 499.292 120.357 499.419 119.383C500.894 108.038 502.76 96.4472 504.247 92.0815C510.771 72.9222 501.697 58.5264 501.697 58.5264C501.697 58.5264 490.994 59.7479 488.928 60.5198Z" fill="#B5A7E9"/>
<path d="M522.801 133.519L533.207 105.11L566.749 105.658L556.831 131.837L522.801 133.519Z" fill="#6E6760"/>
<path d="M543.939 117.677C542.917 119.724 543.225 121.951 544.629 122.656C546.036 123.359 548.003 122.269 549.026 120.224C550.05 118.178 549.741 115.949 548.336 115.245C546.932 114.542 544.962 115.632 543.939 117.677Z" fill="#807066"/>
<path d="M508.582 40.1154C508.582 40.1154 510.73 43.4578 508.746 46.3441C506.759 49.229 509.246 52.0635 509.676 55.1133C510.107 58.1632 501.391 66.28 511.087 70.3628C520.78 74.4456 523.866 67.6965 521.392 63.9816C518.92 60.2667 517.164 57.253 516.955 51.9581C516.745 46.6617 515.003 38.4066 508.582 40.1154Z" fill="#464240"/>
<path d="M438.361 0H479.678V29.9486V36.2559L473.371 29.9486H438.361V0Z" fill="url(#paint0_linear_628_2302)"/>
<path d="M789.094 280.155C798.242 275.778 807.347 304.902 807.347 304.902C822.896 325.449 844.625 298.115 842.501 328.829C838.783 382.572 904.363 345.729 874.107 401.839C843.851 457.951 900.821 433.568 882.019 478.811C863.218 524.056 887.588 578.017 859.298 555.844C859.298 555.844 834.387 501.216 808.699 484.316C783.011 467.416 824.089 447.365 816.051 424.408C804.376 391.067 776.249 392.376 796.529 356.547C816.811 320.717 757.997 295.027 789.094 280.155Z" fill="url(#paint1_linear_628_2302)"/>
<path d="M868.26 535.285C855.998 526.662 841.646 466.561 840.789 430.765C840.35 412.427 834.931 404.789 830.147 398.049C825.576 391.607 821.629 386.042 823.929 373.266C828.324 348.853 816.769 338.312 816.652 338.207L817.991 336.683C818.504 337.133 830.538 348.002 825.927 373.624C823.778 385.56 827.32 390.553 831.803 396.872C836.509 403.506 842.366 411.756 842.82 430.713C843.737 469.131 858.411 525.875 869.428 533.624L868.26 535.285Z" fill="white"/>
<path d="M872.848 539.737C871.266 539.737 869.547 539.557 867.662 539.174C862.936 538.22 859.837 535.726 858.451 531.764C855.145 522.31 862.805 506.952 869.021 499.552C869.124 499.427 879.528 486.71 878.42 469.085C878.233 466.129 877.927 463.396 877.657 460.982C876.874 454.006 876.309 448.967 879.305 445.601C881.946 442.633 887.043 441.35 896.347 441.305C912.668 441.227 919.12 434.473 924.307 429.041C926.508 426.735 928.589 424.558 931.116 423.177C939.249 418.737 947.863 418.086 951.599 421.628C953.374 423.309 954.873 426.604 951.932 432.749C949.247 438.362 945.763 441.92 942.962 444.775C939.195 448.619 936.708 451.159 938.004 456.218C938.308 457.408 938.659 458.606 939.01 459.81C941.526 468.415 944.377 478.168 929.651 484.788C926.526 486.192 923.677 487.309 921.165 488.296C910.884 492.329 904.679 494.766 897.674 509.551C896.317 512.415 895.12 515.129 893.963 517.751C888.439 530.272 884.26 539.737 872.848 539.737ZM932.088 424.961C929.838 426.19 927.955 428.161 925.774 430.445C920.324 436.152 913.543 443.254 896.36 443.335C887.804 443.375 883.013 444.492 880.822 446.951C878.427 449.641 878.951 454.305 879.674 460.757C879.946 463.194 880.256 465.955 880.444 468.957C881.607 487.417 871.028 500.315 870.578 500.855C864.425 508.182 857.456 522.767 860.368 531.098C861.5 534.338 864.09 536.388 868.066 537.191C881.937 539.995 885.765 531.316 892.109 516.938C893.272 514.303 894.474 511.576 895.842 508.689C903.192 493.175 910.047 490.486 920.427 486.413C922.918 485.434 925.74 484.327 928.821 482.941C941.938 477.047 939.571 468.953 937.066 460.384C936.706 459.157 936.35 457.937 936.04 456.727C934.462 450.559 937.575 447.383 941.517 443.36C944.352 440.466 947.564 437.189 950.105 431.877C951.437 429.093 952.535 425.312 950.206 423.103C947.139 420.197 939.35 420.996 932.088 424.961Z" fill="url(#paint2_linear_628_2302)"/>
<path d="M867.878 551.447L865.854 551.339C865.953 549.436 868.508 504.586 886.515 491.46C906.273 477.06 912.501 461.583 915.467 451.196C918.962 438.956 936.755 435.684 937.51 435.551L937.863 437.547C937.69 437.579 920.564 440.734 917.418 451.753C914.369 462.429 907.972 478.332 887.71 493.101C870.475 505.662 867.902 550.99 867.878 551.447Z" fill="url(#paint3_linear_628_2302)"/>
<path d="M909.054 325.416C896.256 321.026 898.914 345.696 893.506 363.95C888.097 382.203 833.339 371.912 856.324 417.618C879.309 463.327 827.255 432.903 842.804 472.789C858.352 512.676 844.153 555.333 861.055 544.482C877.957 533.632 870.551 483.404 888.128 477.438C905.705 471.469 908.573 464.506 891.169 448.283C873.767 432.058 936.771 415.951 921.222 383.19C905.674 350.43 923.843 330.486 909.054 325.416Z" fill="url(#paint4_linear_628_2302)"/>
<path d="M868.898 542.574C867.289 535.745 853.542 475.656 866.368 468.392C877.674 461.99 877.395 437.09 875.629 413.577C874.069 392.763 900.799 383.035 901.939 382.632L902.617 384.545C902.353 384.638 876.207 394.161 877.652 413.428C879.463 437.574 879.657 463.198 867.366 470.159C857.626 475.676 866.593 523.968 870.871 542.111L868.898 542.574Z" fill="white"/>
<path d="M897.993 521.176L879.718 590.506H838.879L820.605 521.176H897.993Z" fill="#3B4971"/>
<path d="M238.954 596.202C238.954 596.202 229.64 574.577 229.513 543.536C229.386 512.495 238.161 475.262 258.835 454.05C279.51 432.837 288.824 427.153 288.824 427.153C288.824 427.153 308.467 457.67 309.499 494.395C310.53 531.12 291.982 600.251 238.954 596.202Z" fill="url(#paint5_linear_628_2302)"/>
<path d="M238.957 596.202C242.495 589.708 245.685 583.04 248.715 576.308C250.191 572.926 251.746 569.575 253.126 566.146C254.554 562.748 255.967 559.334 257.252 555.873C262.551 542.107 267.423 528.15 271.421 513.924C275.467 499.729 279.117 485.408 281.862 470.896C283.464 463.687 284.511 456.367 285.749 449.08C286.447 445.444 286.812 441.776 287.336 438.108L288.827 427.121L287.764 438.156C287.367 441.839 287.114 445.523 286.542 449.191C285.447 456.51 284.527 463.862 283.083 471.118C282.401 474.754 281.782 478.406 281.005 482.026L278.545 492.854C277.768 496.475 276.8 500.047 275.864 503.635C274.896 507.208 274.055 510.812 272.96 514.353L269.723 524.975C268.597 528.5 267.375 531.993 266.201 535.502C265.058 539.027 263.71 542.472 262.44 545.949C261.203 549.442 259.806 552.872 258.394 556.286C252.777 569.972 246.573 583.468 238.973 596.155L238.957 596.202Z" fill="#C3D3F5"/>
<path d="M235.957 496.57C239.432 500.762 242.431 505.35 245.176 510.066C247.921 514.782 250.285 519.735 252.332 524.8C254.299 529.913 255.854 535.184 256.87 540.567C257.806 545.965 258.076 551.491 257.536 556.905C257.346 554.174 257.457 551.475 256.981 548.792C256.775 546.092 256.172 543.457 255.664 540.805C254.395 535.565 252.824 530.405 250.856 525.372C248.873 520.355 246.572 515.448 244.113 510.637C242.875 508.224 241.574 505.858 240.194 503.524C238.877 501.158 237.433 498.856 235.957 496.57Z" fill="#C3D3F5"/>
<path d="M270.246 520.799C272.182 519.688 274.102 518.576 275.958 517.385C277.846 516.242 279.719 515.051 281.528 513.797C285.161 511.288 288.779 508.748 292.127 505.906C295.491 503.08 298.712 500.079 301.615 496.776C302.361 495.966 302.996 495.061 303.694 494.22C304.027 493.791 304.392 493.362 304.709 492.918L305.598 491.537C306.185 490.6 306.915 489.742 307.359 488.742C307.851 487.758 308.375 486.773 308.914 485.805C308.168 487.885 307.391 490.012 306.264 491.949L305.455 493.426C305.154 493.902 304.82 494.347 304.519 494.823C303.868 495.728 303.281 496.697 302.567 497.57C299.822 501.143 296.554 504.239 293.158 507.144C289.715 510.002 286.018 512.559 282.194 514.845C278.354 517.115 274.403 519.211 270.262 520.831L270.246 520.799Z" fill="#C3D3F5"/>
<path d="M266.326 446.555C270.166 451.747 272.943 457.638 275.307 463.624C276.418 466.64 277.481 469.689 278.29 472.817C279.163 475.913 279.781 479.088 280.273 482.264L277.116 473.182C276.069 470.165 274.958 467.18 273.831 464.195C272.705 461.21 271.499 458.257 270.261 455.32C268.992 452.398 267.738 449.445 266.342 446.555H266.326Z" fill="#C3D3F5"/>
<path d="M150.956 588.597C146.799 600.299 133.328 605.761 121.951 600.791C103.546 592.741 71.4466 575.355 50.5814 545.33C19.8787 501.158 40.2837 499.094 47.3763 503.905C54.4688 508.732 53.1043 514.797 50.4386 478.136C47.7729 441.474 69.0348 430.582 78.8882 446.396C88.7416 462.21 92.4545 508.541 109.004 507.049C125.553 505.572 118.73 491.521 132.836 497.125C144.07 501.603 161.984 557.477 150.94 588.597H150.956Z" fill="url(#paint6_linear_628_2302)"/>
<path d="M68.545 439.347C67.942 446.841 68.1642 454.383 68.8941 461.861C69.6081 469.324 70.7505 476.754 72.4959 484.058C75.9549 498.634 81.1593 512.813 88.2995 525.991C95.3444 539.249 103.199 552.078 111.688 564.463C115.892 570.687 120.351 576.736 124.921 582.69C129.474 588.66 134.219 594.503 139.233 600.124C128.776 589.295 119.431 577.435 110.688 565.161C101.961 552.872 94.0909 539.995 86.9032 526.737C85.1895 523.371 83.5076 519.989 81.9209 516.56C80.4929 513.067 78.8586 509.653 77.6685 506.065L75.7486 500.73L74.0985 495.315C73.5114 493.521 73.0512 491.695 72.6069 489.854C72.1785 488.012 71.6549 486.202 71.3058 484.344C69.6874 476.961 68.6719 469.467 68.1166 461.941C67.6564 454.415 67.5771 446.841 68.545 439.378V439.347Z" fill="#C3D3F5"/>
<path d="M48.5527 524.848C50.6313 526.69 52.7099 528.5 54.8837 530.199C57.0099 531.945 59.1995 533.628 61.4368 535.264C65.8954 538.503 70.481 541.567 75.2252 544.33C79.9378 547.172 84.9041 549.522 89.9499 551.713L93.7897 553.237C95.0749 553.729 96.4078 554.079 97.7089 554.523C100.295 555.508 103.024 555.952 105.69 556.73C100.2 556.048 94.7258 554.793 89.5056 552.856C84.2853 550.919 79.2079 548.553 74.416 545.711C69.6242 542.869 65.0069 539.725 60.691 536.232C56.3752 532.739 52.2339 529.008 48.5527 524.848Z" fill="#C3D3F5"/>
<path d="M87.1582 525.547C87.5549 523.864 87.9674 522.196 88.3006 520.513C88.6814 518.846 89.0146 517.163 89.332 515.48C89.9349 512.114 90.5061 508.748 90.9028 505.35C91.363 501.968 91.6327 498.57 91.839 495.157L91.9659 492.6V490.028C92.0929 488.313 91.9183 486.599 91.9818 484.868C92.6323 488.25 93.0449 491.711 93.0607 495.173C93.1401 498.634 92.9179 502.111 92.4895 505.541C92.0294 508.97 91.4264 512.384 90.522 515.734C89.6335 519.084 88.5862 522.387 87.1741 525.531L87.1582 525.547Z" fill="#C3D3F5"/>
<path d="M125.523 584.072L127.475 577.228C128.142 574.958 128.792 572.672 129.411 570.401C130.649 565.828 131.886 561.271 133.044 556.683C134.234 552.11 135.282 547.505 136.345 542.901C136.868 540.599 137.376 538.28 137.82 535.962C138.376 533.66 138.709 531.31 139.233 528.992C138.931 533.724 138.36 538.455 137.551 543.139C136.773 547.823 135.758 552.475 134.584 557.08C133.394 561.684 132.092 566.257 130.585 570.75C129.078 575.26 127.459 579.721 125.523 584.072Z" fill="#C3D3F5"/>
<path d="M228.642 458.654C222.438 452.446 197.209 447.27 197.209 447.27H179.407C179.407 447.27 154.178 452.446 147.974 458.654C141.77 464.862 120.397 526.928 122.127 537.963C123.856 548.998 132.472 553.142 140.04 553.142C147.609 553.142 149.005 548.998 149.005 548.998C149.005 548.998 159.731 558.302 188.308 556.587C216.885 558.318 227.611 548.998 227.611 548.998C227.611 548.998 228.991 553.142 236.576 553.142C244.16 553.142 252.776 548.998 254.49 537.963C256.219 526.928 234.846 464.846 228.642 458.654Z" fill="#B5A7E9"/>
<path d="M161.635 410.957C161.635 410.957 164.015 429.217 171.948 435.568C179.882 441.919 194.844 443.157 202.429 435.568C210.013 427.978 211.394 407.623 211.394 407.623C211.394 407.623 191.973 397.271 186.514 385.553C186.514 385.553 173.583 404.289 161.635 410.957Z" fill="#FFB7D6"/>
<path d="M213.443 382.441C209.651 365.547 194.482 363.737 186.501 363.816C186.501 363.816 171.84 362.086 161.622 375.201C151.403 388.3 161.622 410.941 161.622 410.941C173.569 404.273 186.501 385.537 186.501 385.537C191.959 397.255 211.381 407.607 211.381 407.607C211.381 407.607 217.236 399.335 213.443 382.425V382.441Z" fill="#181670"/>
<path d="M186.5 363.816C190.07 363.785 195.052 364.134 199.828 366.023C201.098 363.674 201.828 360.974 201.828 358.116C201.828 348.923 194.386 341.477 185.199 341.477C176.012 341.477 168.57 348.923 168.57 358.116C168.57 361.435 169.554 364.531 171.236 367.119C179.154 362.975 186.5 363.816 186.5 363.816Z" fill="#181670"/>
<path d="M161.636 410.957C161.636 410.957 156.59 409.084 154.527 413.18C152.465 417.277 157.225 430.09 166.904 428.851C162.953 421.055 161.636 410.957 161.636 410.957Z" fill="#FFB7D6"/>
<path d="M218.963 413.18C216.9 409.084 211.855 410.957 211.855 410.957C211.855 410.957 211.49 411.37 210.903 412.069C210.315 416.435 209.078 423.263 206.666 428.867C216.297 430.026 221.042 417.277 218.979 413.196L218.963 413.18Z" fill="#FFB7D6"/>
<path d="M179.404 439.442V447.285C179.404 447.285 180.928 452.811 186.497 453.843C192.066 454.875 196.208 451.175 196.89 446.65C197.302 443.935 197.223 441.014 197.096 439.093C191.749 441.363 185.116 441.284 179.404 439.458V439.442Z" fill="#FFB7D6"/>
<path d="M165.205 497.634V469.673H211.378L210.902 504.699V533.152H165.205V497.634Z" fill="#2D2D54"/>
<path d="M142.453 518.322C142.453 518.322 145.547 532.12 155.543 535.216L163.477 526.769C163.477 526.769 155.639 517.624 154.036 511.765L142.453 518.322Z" fill="#D1C9F4"/>
<path d="M154.033 511.765C154.033 511.765 154.827 503.016 157.08 502.048C159.333 501.079 165.188 497.634 165.188 497.634V504.699C165.188 504.699 181.039 492.108 183.8 492.457C186.561 492.807 181.737 502.111 181.737 502.111C181.737 502.111 181.198 507.287 179.405 512.813C177.612 518.338 163.474 526.785 163.474 526.785C163.474 526.785 157.698 520.751 154.033 511.781V511.765Z" fill="#FFB7D6"/>
<path d="M155.543 535.216C155.019 537.788 154.052 540.138 152.988 542.456C151.878 544.743 150.656 546.981 149.006 549.014C149.529 546.442 150.497 544.092 151.56 541.774C152.671 539.487 153.893 537.248 155.543 535.216Z" fill="#867BBF"/>
<path d="M142.451 518.322C140.118 519.1 137.817 519.561 135.533 520.085C133.232 520.593 131.026 521.085 128.662 521.768C129.519 520.863 130.598 520.196 131.709 519.688C132.819 519.164 134.009 518.814 135.183 518.529C136.373 518.275 137.579 518.116 138.801 518.068C140.007 518.02 141.229 518.068 142.451 518.322Z" fill="#867BBF"/>
<path d="M233.639 518.322C233.639 518.322 230.545 532.12 220.549 535.216L212.615 526.769C212.615 526.769 220.454 517.624 222.056 511.765L233.639 518.322Z" fill="#D1C9F4"/>
<path d="M222.057 511.765C222.057 511.765 221.264 503.016 219.011 502.048C216.758 501.079 210.903 497.634 210.903 497.634V504.699C210.903 504.699 195.051 492.108 192.291 492.457C189.53 492.807 194.353 502.111 194.353 502.111C194.353 502.111 194.893 507.287 196.686 512.813C198.479 518.338 212.616 526.785 212.616 526.785C212.616 526.785 218.392 520.751 222.057 511.781V511.765Z" fill="#FFB7D6"/>
<path d="M227.104 549.014C225.453 546.981 224.232 544.743 223.121 542.456C222.058 540.154 221.09 537.788 220.566 535.216C222.232 537.248 223.438 539.487 224.549 541.774C225.612 544.092 226.58 546.442 227.104 549.014Z" fill="#867BBF"/>
<path d="M233.641 518.322C234.847 518.068 236.068 518.02 237.29 518.068C238.512 518.116 239.718 518.275 240.908 518.529C242.098 518.814 243.272 519.148 244.383 519.688C245.493 520.212 246.572 520.863 247.429 521.768C245.065 521.085 242.859 520.577 240.559 520.085C238.274 519.561 235.973 519.1 233.641 518.322Z" fill="#867BBF"/>
<path d="M227.61 549.014C227.61 549.014 216.884 558.318 188.308 556.603C159.731 558.334 149.005 549.014 149.005 549.014C149.005 549.014 147.625 553.158 140.04 553.158C140.04 553.158 136.946 581.785 142.452 591.09C147.974 600.394 207.317 600.743 220.55 597.981C233.783 595.218 237.638 578.165 233.64 552.904C228.626 552.015 227.61 549.014 227.61 549.014Z" fill="#2D2D54"/>
<path d="M239.21 549.966C249.936 547.982 260.805 553.999 264.042 564.431C264.184 564.907 264.407 565.384 264.454 565.908C266.184 586.596 240.987 596.948 211.03 602.125C181.057 607.301 171.759 605.919 171.759 605.919C171.759 605.919 167.538 598.679 167.76 588.327C167.76 588.327 190.688 571.766 211.03 560.398C222.438 554.015 232.546 551.205 239.226 549.982L239.21 549.966Z" fill="#2F2F5B"/>
<path d="M208.617 605.904C208.617 605.904 216.884 607.968 225.167 610.206C233.433 612.445 244.81 616.24 249.633 612.794C254.457 609.349 254.108 596.853 242.652 593.36C231.18 589.867 212.647 591.248 212.647 591.248C212.647 591.248 212.251 598.489 208.633 605.904H208.617Z" fill="#B5A7E9"/>
<path d="M172.011 605.904C172.011 605.904 163.745 607.968 155.462 610.206C147.195 612.445 135.819 616.24 130.995 612.794C126.172 609.349 126.521 596.853 137.977 593.36C149.448 589.867 167.981 591.248 167.981 591.248C167.981 591.248 168.378 598.489 171.996 605.904H172.011Z" fill="#B5A7E9"/>
<path d="M141.151 549.966C130.425 547.982 119.556 553.999 116.319 564.431C116.176 564.907 115.954 565.384 115.906 565.908C114.177 586.596 139.374 596.948 169.331 602.125C199.304 607.301 208.602 605.919 208.602 605.919C208.602 605.919 212.822 598.679 212.6 588.327C212.6 588.327 189.672 571.766 169.331 560.398C157.922 554.015 147.815 551.205 141.135 549.982L141.151 549.966Z" fill="#3A376B"/>
<defs>
<linearGradient id="paint0_linear_628_2302" x1="438.361" y1="18.128" x2="479.678" y2="18.128" gradientUnits="userSpaceOnUse">
<stop stop-color="#FB9004"/>
<stop offset="1" stop-color="#FC067D"/>
</linearGradient>
<linearGradient id="paint1_linear_628_2302" x1="779.824" y1="420.347" x2="885.917" y2="420.347" gradientUnits="userSpaceOnUse">
<stop stop-color="#9942FF"/>
<stop offset="1" stop-color="#4D6DFF"/>
</linearGradient>
<linearGradient id="paint2_linear_628_2302" x1="857.654" y1="479.545" x2="953.597" y2="479.545" gradientUnits="userSpaceOnUse">
<stop stop-color="#9942FF"/>
<stop offset="1" stop-color="#4D6DFF"/>
</linearGradient>
<linearGradient id="paint3_linear_628_2302" x1="865.854" y1="493.499" x2="937.863" y2="493.499" gradientUnits="userSpaceOnUse">
<stop stop-color="#9942FF"/>
<stop offset="1" stop-color="#4D6DFF"/>
</linearGradient>
<linearGradient id="paint4_linear_628_2302" x1="839.852" y1="435.549" x2="923.714" y2="435.549" gradientUnits="userSpaceOnUse">
<stop stop-color="#9942FF"/>
<stop offset="1" stop-color="#4D6DFF"/>
</linearGradient>
<linearGradient id="paint5_linear_628_2302" x1="229.512" y1="511.763" x2="309.539" y2="511.763" gradientUnits="userSpaceOnUse">
<stop stop-color="#9942FF"/>
<stop offset="1" stop-color="#4D6DFF"/>
</linearGradient>
<linearGradient id="paint6_linear_628_2302" x1="34.1465" y1="520.988" x2="154.404" y2="520.988" gradientUnits="userSpaceOnUse">
<stop stop-color="#9942FF"/>
<stop offset="1" stop-color="#4D6DFF"/>
</linearGradient>
</defs>
</svg>
