<svg width="61" height="59" viewBox="0 0 61 59" fill="none" xmlns="http://www.w3.org/2000/svg">
<path d="M21.8508 37.694L14.5672 25.8582C11.6841 27.5273 5.37162 31.3208 3.18655 33.1417C0.455204 35.4179 1.82092 37.2388 1.3657 40.4253C0.910477 43.6119 6.37316 44.9776 8.19406 44.9776C9.65078 44.9776 13.0498 43.4601 14.5672 42.7014L21.8508 37.694Z" fill="#D9D9D9"/>
<path d="M11.3847 45.5033L17.3578 55.8144C18.6467 58.0419 21.5462 58.8665 23.8392 57.5455C26.108 56.2388 26.8878 53.3497 25.5752 51.0867L22.0169 44.9437L25.0985 43.1706C25.6656 42.8437 25.8602 42.121 25.5326 41.5559L23.9902 38.8935C24.1741 38.8579 25.3834 38.6215 46.7086 34.4524C49.3449 34.3098 50.9243 31.4363 49.5928 29.1392L45.6508 22.335L48.1699 18.5325C48.4173 18.1585 48.4322 17.6778 48.2074 17.29L45.8352 13.1953C45.6105 12.8074 45.1838 12.5802 44.7367 12.6065L40.1735 12.8794L35.7974 5.32533C35.1636 4.23101 34.028 3.56841 32.7604 3.55271C32.7451 3.55225 32.7303 3.55225 32.715 3.55225C31.4899 3.55225 30.378 4.1599 29.7191 5.18727L14.2248 24.8584L4.15179 30.6542C0.189942 32.9328 -1.18241 37.9981 1.11287 41.9571C3.20986 45.5772 7.63085 47.0012 11.3847 45.5033ZM23.5213 52.2692C24.1765 53.3986 23.7887 54.8439 22.6521 55.4981C21.5119 56.1552 20.0599 55.7516 19.4121 54.6328L13.4816 44.3946L17.5904 42.0305C24.454 53.8797 23.411 52.0794 23.5213 52.2692ZM20.8308 42.8958L19.6447 40.8485L21.6991 39.6664L22.8852 41.7138L20.8308 42.8958ZM44.1474 15.0099L45.7866 17.8394L44.3248 20.0456L41.4995 15.1683L44.1474 15.0099ZM31.7031 6.48338C32.0214 5.96438 32.5264 5.91082 32.7312 5.91636C32.9337 5.91867 33.4382 5.98147 33.7426 6.50693L47.5384 30.3212C47.9878 31.0965 47.4416 32.0712 46.5404 32.0934C46.3787 32.0971 46.3041 32.1262 45.8899 32.2033L31.2967 7.013C31.603 6.62052 31.6424 6.58265 31.7031 6.48338ZM29.7182 9.01695L43.4292 32.6844L22.7365 36.7293L16.4446 25.8687L29.7182 9.01695ZM3.16723 40.7751C2.64646 39.877 2.37125 38.8574 2.37125 37.8259C2.37125 35.7176 3.50824 33.7543 5.33788 32.7015L14.5825 27.3823L20.513 37.6191L11.2684 42.9388C8.4361 44.5678 4.80229 43.5972 3.16723 40.7751Z" fill="url(#paint0_linear_218_677)"/>
<path fill-rule="evenodd" clip-rule="evenodd" d="M45.5637 6.54048L46.8065 1.74155C46.978 1.07885 47.6357 0.685897 48.2751 0.863456C48.9151 1.04101 49.2945 1.72214 49.1231 2.38483L47.8807 7.18377C47.7088 7.84695 47.051 8.23893 46.4116 8.06186C45.7716 7.88382 45.3922 7.20318 45.5637 6.54048ZM59.2131 6.41897L52.5135 9.7393C51.9334 10.0271 51.7244 10.6792 52.0476 11.1958C52.3697 11.7119 53.1015 11.8989 53.6829 11.6107L60.382 8.29037C60.9625 8.00259 61.171 7.35048 60.8479 6.8339C60.5253 6.3169 59.7931 6.13119 59.2131 6.41897ZM58.3731 18.4919L54.1745 17.2501C53.5946 17.0786 52.9987 17.4581 52.8433 18.0983C52.6879 18.7384 53.0322 19.3959 53.612 19.5674L57.8111 20.8093C58.3943 20.9822 58.9873 20.5965 59.1418 19.9611C59.2972 19.3209 58.9529 18.663 58.3731 18.4919Z" fill="url(#paint1_linear_218_677)"/>
<defs>
<linearGradient id="paint0_linear_218_677" x1="0" y1="30.8657" x2="50.0746" y2="30.8657" gradientUnits="userSpaceOnUse">
<stop stop-color="#9942FF"/>
<stop offset="1" stop-color="#FC067D"/>
</linearGradient>
<linearGradient id="paint1_linear_218_677" x1="45.5225" y1="10.8357" x2="61" y2="10.8357" gradientUnits="userSpaceOnUse">
<stop stop-color="#FB9004"/>
<stop offset="1" stop-color="#FC067D"/>
</linearGradient>
</defs>
</svg>
