<svg width="56" height="56" viewBox="0 0 56 56" fill="none" xmlns="http://www.w3.org/2000/svg">
<g clip-path="url(#clip0_613_967)">
<rect x="2" y="40" width="39" height="14" fill="#DDDFE8"/>
<path d="M54.5552 17.6233C52.6363 15.7042 49.5137 15.7043 47.5941 17.6237C47.0037 18.2147 43.2341 21.9873 42.6582 22.5637V9.56222C42.6582 8.24753 42.1462 7.01159 41.2165 6.08202L36.5763 1.44156C35.6467 0.511875 34.4107 0 33.096 0H4.92383C2.20991 0 0.00195312 2.20795 0.00195312 4.92188V51.0781C0.00195312 53.792 2.20991 56 4.92383 56H37.7363C40.4502 56 42.6582 53.792 42.6582 51.0781V36.4909L54.5551 24.5839C56.4787 22.6604 56.4791 19.547 54.5552 17.6233ZM32.8146 3.28125C33.1245 3.28125 33.7218 3.22755 34.2561 3.76173L38.8965 8.40219C39.4171 8.92292 39.3771 9.49353 39.3771 9.84375H32.8146V3.28125ZM39.3769 51.0781C39.3769 51.9828 38.6411 52.7188 37.7363 52.7188H4.92383C4.01919 52.7188 3.2832 51.9828 3.2832 51.0781V4.92188C3.2832 4.01723 4.01919 3.28125 4.92383 3.28125H29.5332V11.4844C29.5332 12.3904 30.2678 13.125 31.1738 13.125H39.3769V25.8478C39.3769 25.8478 34.5367 30.6923 34.5364 30.6924L32.2174 33.0116C32.0373 33.1916 31.9015 33.4112 31.821 33.6528L29.5007 40.6135C29.3042 41.203 29.4576 41.853 29.8971 42.2924C30.3371 42.7324 30.9873 42.8851 31.576 42.6887L38.5366 40.3686C38.7782 40.2881 38.9979 40.1523 39.1779 39.9722L39.3769 39.7731V51.0781ZM35.6976 34.1717L38.0177 36.4919L37.1315 37.3781L33.6513 38.5382L34.8113 35.0579L35.6976 34.1717ZM40.3375 34.1712L38.0173 31.851C39.2528 30.6145 44.74 25.1226 45.9038 23.9578L48.224 26.278L40.3375 34.1712ZM52.2345 22.2642L50.5433 23.9568L48.2231 21.6367L49.9149 19.9434C50.555 19.3037 51.5956 19.3038 52.2352 19.9434C52.8747 20.5833 52.8781 21.6205 52.2345 22.2642Z" fill="url(#paint0_linear_613_967)"/>
<path d="M31.1738 16.4062H8.20508C7.29902 16.4062 6.56445 17.1408 6.56445 18.0469C6.56445 18.9529 7.29902 19.6875 8.20508 19.6875H31.1738C32.0799 19.6875 32.8145 18.9529 32.8145 18.0469C32.8145 17.1408 32.0799 16.4062 31.1738 16.4062Z" fill="url(#paint1_linear_613_967)"/>
<path d="M24.6113 22.9688H8.20508C7.29902 22.9688 6.56445 23.7033 6.56445 24.6094C6.56445 25.5154 7.29902 26.25 8.20508 26.25H24.6113C25.5174 26.25 26.252 25.5154 26.252 24.6094C26.252 23.7033 25.5174 22.9688 24.6113 22.9688Z" fill="url(#paint2_linear_613_967)"/>
<path d="M24.6113 29.5312H8.20508C7.29902 29.5312 6.56445 30.2658 6.56445 31.1719C6.56445 32.0779 7.29902 32.8125 8.20508 32.8125H24.6113C25.5174 32.8125 26.252 32.0779 26.252 31.1719C26.252 30.2658 25.5174 29.5312 24.6113 29.5312Z" fill="url(#paint3_linear_613_967)"/>
<path d="M24.6113 36.0938H8.20508C7.29902 36.0938 6.56445 36.8283 6.56445 37.7344C6.56445 38.6404 7.29902 39.375 8.20508 39.375H24.6113C25.5174 39.375 26.252 38.6404 26.252 37.7344C26.252 36.8283 25.5174 36.0938 24.6113 36.0938Z" fill="url(#paint4_linear_613_967)"/>
<path d="M31.1738 46.1562H21.3301C20.424 46.1562 19.6895 46.8908 19.6895 47.7969C19.6895 48.7029 20.424 49.4375 21.3301 49.4375H31.1738C32.0799 49.4375 32.8145 48.7029 32.8145 47.7969C32.8145 46.8908 32.0799 46.1562 31.1738 46.1562Z" fill="url(#paint5_linear_613_967)"/>
</g>
<defs>
<linearGradient id="paint0_linear_613_967" x1="0.00195312" y1="28" x2="55.998" y2="28" gradientUnits="userSpaceOnUse">
<stop stop-color="#9942FF"/>
<stop offset="1" stop-color="#FC067D"/>
</linearGradient>
<linearGradient id="paint1_linear_613_967" x1="6.56445" y1="18.0469" x2="32.8145" y2="18.0469" gradientUnits="userSpaceOnUse">
<stop stop-color="#FB9004"/>
<stop offset="1" stop-color="#FC067D"/>
</linearGradient>
<linearGradient id="paint2_linear_613_967" x1="6.56445" y1="24.6094" x2="26.252" y2="24.6094" gradientUnits="userSpaceOnUse">
<stop stop-color="#FB9004"/>
<stop offset="1" stop-color="#FC067D"/>
</linearGradient>
<linearGradient id="paint3_linear_613_967" x1="6.56445" y1="31.1719" x2="26.252" y2="31.1719" gradientUnits="userSpaceOnUse">
<stop stop-color="#FB9004"/>
<stop offset="1" stop-color="#FC067D"/>
</linearGradient>
<linearGradient id="paint4_linear_613_967" x1="6.56445" y1="37.7344" x2="26.252" y2="37.7344" gradientUnits="userSpaceOnUse">
<stop stop-color="#FB9004"/>
<stop offset="1" stop-color="#FC067D"/>
</linearGradient>
<linearGradient id="paint5_linear_613_967" x1="19.6895" y1="47.7969" x2="32.8145" y2="47.7969" gradientUnits="userSpaceOnUse">
<stop stop-color="#FB9004"/>
<stop offset="1" stop-color="#FC067D"/>
</linearGradient>
<clipPath id="clip0_613_967">
<rect width="56" height="56" fill="white"/>
</clipPath>
</defs>
</svg>
