<svg width="780" height="780" viewBox="0 0 780 780" fill="none" xmlns="http://www.w3.org/2000/svg">
<g clip-path="url(#clip0_669_1105)">
<rect width="780" height="780" fill="white"/>
<path d="M780 0H0V780H780V0Z" fill="white"/>
<path opacity="0.16" d="M46.9899 455.375C46.9899 455.375 64.0376 578.155 175.267 647.988C286.497 717.821 429.164 706.633 544.984 700.616C660.803 694.599 742.189 618.644 745.014 518.274C747.839 417.903 656.893 399.469 597.282 292.767C537.671 186.064 537.989 148.596 429.775 91.5688C321.561 34.5414 168.272 95.968 98.1174 224.376C27.9626 352.788 46.9899 455.375 46.9899 455.375Z" fill="#B5A7E9"/>
<path d="M704.14 352.083C704.14 352.083 704.14 344.723 693.836 334.419C683.532 324.115 676.908 318.228 676.908 318.228C676.908 318.228 671.757 335.155 681.325 345.459C690.892 355.763 704.14 365.33 704.14 365.33V352.083Z" fill="url(#paint0_linear_669_1105)"/>
<path d="M689.187 398.047C689.187 398.047 689.187 390.686 678.883 380.383C668.58 370.079 661.956 364.191 661.956 364.191C661.956 364.191 656.803 381.119 666.371 391.423C675.938 401.727 689.186 411.294 689.186 411.294L689.187 398.047Z" fill="url(#paint1_linear_669_1105)"/>
<path d="M703.493 364.619C703.493 364.619 704.272 357.301 715.605 348.144C726.94 338.987 734.149 333.831 734.149 333.831C734.149 333.831 737.482 351.208 726.881 360.443C716.277 369.678 702.094 377.793 702.094 377.793L703.493 364.619Z" fill="url(#paint2_linear_669_1105)"/>
<path d="M685.428 418.9C685.428 418.9 686.97 411.704 699.204 403.787C711.437 395.872 719.149 391.502 719.149 391.502C719.149 391.502 720.64 409.133 709.126 417.203C697.611 425.273 682.652 431.853 682.652 431.853L685.428 418.9Z" fill="url(#paint3_linear_669_1105)"/>
<path d="M688.824 478.087C688.824 478.087 688.824 470.726 699.128 460.423C709.432 450.119 716.056 444.231 716.056 444.231C716.056 444.231 721.207 461.159 711.639 471.463C702.072 481.767 688.824 491.334 688.824 491.334V478.087Z" fill="url(#paint4_linear_669_1105)"/>
<path d="M688.651 492.531C688.651 492.531 689.697 485.246 680.961 473.581C672.227 461.919 666.506 455.148 666.506 455.148C666.506 455.148 659.001 471.171 667.007 482.731C675.013 494.289 686.768 505.643 686.768 505.643L688.651 492.531Z" fill="url(#paint5_linear_669_1105)"/>
<path d="M678.492 535.343C678.492 535.343 678.492 527.983 688.796 517.68C699.1 507.376 705.724 501.488 705.724 501.488C705.724 501.488 710.876 518.416 701.307 528.72C691.74 539.023 678.492 548.591 678.492 548.591V535.343Z" fill="url(#paint6_linear_669_1105)"/>
<path d="M685.371 574.158C685.371 574.158 683.507 567.038 690.865 554.462C698.224 541.883 703.141 534.511 703.141 534.511C703.141 534.511 712.412 549.582 705.766 561.973C699.121 574.364 688.728 586.975 688.728 586.975L685.371 574.158Z" fill="url(#paint7_linear_669_1105)"/>
<path d="M705.073 350.196C704.469 358.063 703.575 366.202 702.251 373.049C698.178 394.093 687.995 407.67 683.922 426.677C679.849 445.684 691.541 470.171 688.41 494.585C685.28 518.999 675.776 532.576 678.492 548.869C681.208 565.161 695.463 609.286 695.463 609.286" stroke="white" stroke-width="0.5" stroke-miterlimit="10" stroke-linecap="round" stroke-linejoin="round"/>
<path d="M703.391 369.509L714.495 360.988" stroke="white" stroke-width="0.5" stroke-miterlimit="10" stroke-linecap="round" stroke-linejoin="round"/>
<path d="M703.907 359.697L699.26 351.434" stroke="white" stroke-width="0.5" stroke-miterlimit="10" stroke-linecap="round" stroke-linejoin="round"/>
<path d="M684.541 425.807C684.541 425.807 693.837 418.834 703.392 411.862" stroke="white" stroke-width="0.5" stroke-miterlimit="10" stroke-linecap="round" stroke-linejoin="round"/>
<path d="M689.185 411.294C689.185 411.294 681.44 396.107 672.66 386.036" stroke="white" stroke-width="0.5" stroke-miterlimit="10" stroke-linecap="round" stroke-linejoin="round"/>
<path d="M689.188 488.555C689.188 488.555 696.418 474.353 709.071 461.957" stroke="white" stroke-width="0.5" stroke-miterlimit="10" stroke-linecap="round" stroke-linejoin="round"/>
<path d="M687.381 498.885C687.381 498.885 682.732 487.781 677.309 479.775C671.887 471.771 671.111 470.736 671.111 470.736" stroke="white" stroke-width="0.5" stroke-miterlimit="10" stroke-linecap="round" stroke-linejoin="round"/>
<path d="M678.492 548.869C678.492 548.869 682.216 539.427 686.865 531.939C691.512 524.451 697.71 517.736 697.71 517.736" stroke="white" stroke-width="0.5" stroke-miterlimit="10" stroke-linecap="round" stroke-linejoin="round"/>
<path d="M688.727 586.974C688.727 586.974 687.638 578.162 691.512 570.673C695.385 563.185 699.775 553.371 701.583 549.497" stroke="white" stroke-width="0.5" stroke-miterlimit="10" stroke-linecap="round" stroke-linejoin="round"/>
<path d="M636.669 450.406C636.669 450.406 635.871 445.792 641.214 438.211C646.557 430.631 650.071 426.22 650.071 426.22C650.071 426.22 655.14 436.275 650.258 443.776C645.377 451.276 638.109 458.713 638.109 458.713L636.669 450.406Z" fill="url(#paint8_linear_669_1105)"/>
<path d="M651.034 477.605C651.034 477.605 650.236 472.991 655.579 465.411C660.922 457.831 664.436 453.419 664.436 453.419C664.436 453.419 669.505 463.475 664.624 470.975C659.742 478.476 652.473 485.914 652.473 485.914L651.034 477.605Z" fill="url(#paint9_linear_669_1105)"/>
<path d="M638.435 458.197C638.435 458.197 637.153 453.692 629.052 449.18C620.949 444.669 615.87 442.218 615.87 442.218C615.87 442.218 615.665 453.476 623.317 458.117C630.969 462.757 640.744 466.306 640.744 466.306L638.435 458.197Z" fill="url(#paint10_linear_669_1105)"/>
<path d="M655.654 490.273C655.654 490.273 653.906 485.929 645.375 482.292C636.844 478.656 631.535 476.753 631.535 476.753C631.535 476.753 632.515 487.971 640.611 491.782C648.708 495.593 658.802 498.095 658.802 498.095L655.654 490.273Z" fill="url(#paint11_linear_669_1105)"/>
<path d="M659.951 527.756C659.951 527.756 659.152 523.141 651.572 517.798C643.992 512.455 639.2 509.483 639.2 509.483C639.2 509.483 637.807 520.658 644.925 526.08C652.044 531.503 661.39 536.064 661.39 536.064L659.951 527.756Z" fill="url(#paint12_linear_669_1105)"/>
<path d="M661.627 536.796C661.627 536.796 660.18 532.34 664.391 524.079C668.601 515.817 671.455 510.951 671.455 510.951C671.455 510.951 677.9 520.185 674.135 528.302C670.369 536.418 664.23 544.814 664.23 544.814L661.627 536.796Z" fill="url(#paint13_linear_669_1105)"/>
<path d="M674.56 574.024C674.56 574.024 675.094 569.37 682.357 563.603C689.62 557.837 694.235 554.596 694.235 554.596C694.235 554.596 696.264 565.672 689.466 571.492C682.669 577.312 673.598 582.4 673.598 582.4L674.56 574.024Z" fill="url(#paint14_linear_669_1105)"/>
<path d="M672.645 562.54C672.645 562.54 671.846 557.926 664.266 552.583C656.686 547.24 651.893 544.267 651.893 544.267C651.893 544.267 650.5 555.441 657.619 560.863C664.737 566.286 674.083 570.847 674.083 570.847L672.645 562.54Z" fill="url(#paint15_linear_669_1105)"/>
<path d="M672.544 587.625C672.544 587.625 672.94 582.958 666.961 575.871C660.981 568.782 657.098 564.693 657.098 564.693C657.098 564.693 652.921 575.15 658.434 582.2C663.947 589.248 671.833 596.029 671.833 596.029L672.544 587.625Z" fill="url(#paint16_linear_669_1105)"/>
<path d="M635.877 449.323C637.109 454.19 638.554 459.198 640.128 463.346C644.967 476.101 652.826 483.509 657.444 494.986C662.062 506.463 657.388 523.088 662.001 538.058C666.614 553.027 674.049 560.509 674.114 571.02C674.18 581.532 670.03 610.749 670.03 610.749" stroke="white" stroke-width="0.5" stroke-miterlimit="10" stroke-linecap="round" stroke-linejoin="round"/>
<path d="M639.03 461.251L631.141 457.112" stroke="white" stroke-width="0.5" stroke-miterlimit="10" stroke-linecap="round" stroke-linejoin="round"/>
<path d="M637.639 455.155L639.657 449.469" stroke="white" stroke-width="0.5" stroke-miterlimit="10" stroke-linecap="round" stroke-linejoin="round"/>
<path d="M656.962 494.507C656.962 494.507 650.376 491.144 643.627 487.809" stroke="white" stroke-width="0.5" stroke-miterlimit="10" stroke-linecap="round" stroke-linejoin="round"/>
<path d="M652.471 485.914C652.471 485.914 655.68 475.549 660.091 468.281" stroke="white" stroke-width="0.5" stroke-miterlimit="10" stroke-linecap="round" stroke-linejoin="round"/>
<path d="M660.859 534.359C660.859 534.359 654.782 526.238 645.502 519.839" stroke="white" stroke-width="0.5" stroke-miterlimit="10" stroke-linecap="round" stroke-linejoin="round"/>
<path d="M663.113 540.643C663.113 540.643 664.823 533.176 667.353 527.567C669.885 521.959 670.258 521.228 670.258 521.228" stroke="white" stroke-width="0.5" stroke-miterlimit="10" stroke-linecap="round" stroke-linejoin="round"/>
<path d="M673.758 578.996C673.758 578.996 678.985 572.587 682.241 570.19C685.495 567.792 687.749 565.4 687.749 565.4" stroke="white" stroke-width="0.5" stroke-miterlimit="10" stroke-linecap="round" stroke-linejoin="round"/>
<path d="M674.113 571.021C674.113 571.021 670.753 565.505 667.025 561.313C663.298 557.121 658.682 553.585 658.682 553.585" stroke="white" stroke-width="0.5" stroke-miterlimit="10" stroke-linecap="round" stroke-linejoin="round"/>
<path d="M671.834 596.026C671.834 596.026 671.559 590.382 668.317 586.106C665.076 581.83 661.257 576.153 659.703 573.921" stroke="white" stroke-width="0.5" stroke-miterlimit="10" stroke-linecap="round" stroke-linejoin="round"/>
<path d="M398.838 710.109C599.71 710.109 762.549 681.388 762.549 645.959C762.549 610.53 599.71 581.809 398.838 581.809C197.965 581.809 35.127 610.53 35.127 645.959C35.127 681.388 197.965 710.109 398.838 710.109Z" fill="#D4CCF3"/>
<path d="M566.362 510.599C566.362 510.599 574.539 490.153 569.335 447.77C567.051 429.17 568.68 390.95 543.244 389.71C516.094 388.385 505.01 391.079 477.804 391.388C379.662 392.504 307.491 402.296 247.657 396.525C199.553 391.886 158.066 384.257 140.966 401.358C123.865 418.459 125.352 454.889 126.84 461.953C128.327 469.017 139.479 517.344 139.479 517.344L563.76 515.433L566.362 510.599Z" fill="#D0DCF8" stroke="#D0DCF8" stroke-miterlimit="10" stroke-linecap="round" stroke-linejoin="round"/>
<path d="M145.056 498.384C145.056 498.384 136.877 465.671 123.495 456.748C110.112 447.826 92.6396 457.492 78.1425 471.617C63.6439 485.743 59.5551 502.473 65.5034 530.353C71.4517 558.233 88.9237 599.498 94.1278 618.086C99.332 636.673 99.332 646.339 116.804 652.287C134.276 658.236 151.005 658.607 161.784 643.737C172.566 628.867 169.591 560.466 161.04 534.815C152.491 509.164 145.056 498.384 145.056 498.384Z" fill="#B4C8F5" stroke="#D0DCF8" stroke-miterlimit="10" stroke-linecap="round" stroke-linejoin="round"/>
<path d="M143.569 642.624C136.134 628.498 113.83 527.755 114.201 514C114.572 500.246 103.42 477.197 89.6652 475.339C78.3271 473.807 69.2682 484.646 66.4336 488.503C62.0032 499.413 61.7193 512.629 65.5023 530.358C71.4506 558.239 70.7049 600.366 75.9091 618.954C81.1132 637.541 81.1132 647.207 98.5852 653.155C110.082 657.069 139.476 657.704 148.845 654.034C147.563 650.458 145.654 646.584 143.569 642.624Z" fill="#B4C8F5" stroke="#D0DCF8" stroke-miterlimit="10" stroke-linecap="round" stroke-linejoin="round"/>
<path d="M543.987 497.758C543.987 497.758 552.625 465.045 566.76 456.123C580.895 447.202 599.348 456.868 614.661 470.993C629.974 485.119 634.294 501.849 628.01 529.729C621.726 557.609 603.275 598.874 597.777 617.462C592.28 636.049 592.28 645.715 573.827 651.662C555.373 657.61 537.705 657.981 526.318 643.111C514.932 628.241 518.072 559.84 527.103 534.189C536.134 508.539 543.987 497.758 543.987 497.758Z" fill="#B4C8F5" stroke="#D0DCF8" stroke-miterlimit="10" stroke-linecap="round" stroke-linejoin="round"/>
<path d="M545.558 644.06C553.411 629.76 576.969 527.775 576.576 513.85C576.183 499.926 587.962 476.593 602.489 474.712C614.465 473.161 624.032 484.132 627.026 488.039C631.706 499.082 632.006 512.46 628.01 530.408C621.728 558.633 612.123 600.405 606.628 619.222C601.13 638.039 601.13 647.823 582.677 653.845C570.534 657.807 549.881 659.323 539.984 655.608C541.34 651.993 543.356 648.071 545.558 644.06Z" fill="#B4C8F5" stroke="#D0DCF8" stroke-miterlimit="10" stroke-linecap="round" stroke-linejoin="round"/>
<path d="M576.771 561.158C576.771 561.158 567.478 618.883 561.53 638.213C555.582 657.544 557.441 657.544 547.404 658.287C537.367 659.031 156.581 657.969 144.685 656.109C132.79 654.25 126.469 645.328 123.124 632.689C119.778 620.05 116.434 562.698 116.434 562.698L560.789 561.158H576.771Z" fill="#B6C9F3" stroke="#D0DCF8" stroke-miterlimit="10" stroke-linecap="round" stroke-linejoin="round"/>
<path d="M116.452 571.832C116.452 571.832 118.594 578.256 126.444 579.684C134.295 581.111 335.575 583.253 341.999 583.253C348.423 583.253 512.588 583.253 538.998 581.111C565.407 578.969 578.852 575.464 576.77 561.157C574.686 546.85 575.4 558.271 575.4 558.271L112.168 563.981L116.452 571.832Z" fill="#D0DCF8"/>
<path d="M146.286 497.389L146.474 497.262C153.537 495.964 158.317 496.938 166.93 498.688C168.854 499.08 170.967 499.509 173.34 499.961C186.369 502.443 206.972 505.524 246.231 506.27C285.476 507.014 312.987 505.886 339.282 504.388C344.764 504.076 350.193 503.747 355.662 503.416C376.427 502.161 397.794 500.867 424.998 500.279C459.379 499.535 492.022 499.243 516.996 499.417C529.482 499.504 540.048 499.705 547.951 500.025C551.904 500.186 555.184 500.374 557.704 500.591C560.248 500.811 561.95 501.056 562.793 501.309C564.47 501.811 566.588 503.262 568.838 505.457C571.067 507.635 573.36 510.479 575.396 513.664C579.485 520.066 582.436 527.695 581.899 533.947C581.346 540.418 579.971 549.334 576.457 557.163C572.945 564.987 567.346 571.626 558.375 573.78C556.117 574.322 551.793 574.847 545.762 575.343C539.75 575.838 532.09 576.298 523.197 576.719C505.409 577.56 482.704 578.24 458.39 578.711C409.76 579.654 354.728 579.76 319.802 578.644C293.937 577.819 261.198 577.604 229.734 577.398C218.677 577.326 207.776 577.254 197.387 577.158C177.405 576.972 159.317 576.693 145.622 576.136C138.774 575.857 133.036 575.509 128.715 575.07C126.553 574.85 124.758 574.61 123.361 574.345C121.94 574.077 121.009 573.797 120.519 573.534C115.919 571.056 112.757 566.235 110.648 561.097C108.545 555.978 107.536 550.661 107.17 547.368C107.003 545.864 106.654 544.343 106.309 542.841C106.258 542.618 106.207 542.393 106.156 542.17C105.762 540.431 105.404 538.699 105.314 536.913C105.138 533.4 105.997 529.609 109.943 525.305C113.97 520.912 123.101 513.895 131.296 507.936C135.379 504.966 139.208 502.275 142.016 500.325C143.42 499.35 144.569 498.562 145.366 498.016C145.765 497.744 146.075 497.532 146.286 497.389Z" fill="#D0DCF8" stroke="#D0DCF8"/>
<mask id="mask0_669_1105" style="mask-type:luminance" maskUnits="userSpaceOnUse" x="104" y="496" width="479" height="84">
<path d="M146.286 497.389L146.474 497.262C153.537 495.964 158.317 496.938 166.93 498.688C168.854 499.08 170.967 499.509 173.34 499.961C186.369 502.443 206.972 505.524 246.231 506.27C285.476 507.014 312.987 505.886 339.282 504.388C344.764 504.076 350.193 503.747 355.662 503.416C376.427 502.161 397.794 500.867 424.998 500.279C459.379 499.535 492.022 499.243 516.996 499.417C529.482 499.504 540.048 499.705 547.951 500.025C551.904 500.186 555.184 500.374 557.704 500.591C560.248 500.811 561.95 501.056 562.793 501.309C564.47 501.811 566.588 503.262 568.838 505.457C571.067 507.635 573.36 510.479 575.396 513.664C579.485 520.066 582.436 527.695 581.899 533.947C581.346 540.418 579.971 549.334 576.457 557.163C572.945 564.987 567.346 571.626 558.375 573.78C556.117 574.322 551.793 574.847 545.762 575.343C539.75 575.838 532.09 576.298 523.197 576.719C505.409 577.56 482.704 578.24 458.39 578.711C409.76 579.654 354.728 579.76 319.802 578.644C293.937 577.819 261.198 577.604 229.734 577.398C218.677 577.326 207.776 577.254 197.387 577.158C177.405 576.972 159.317 576.693 145.622 576.136C138.774 575.857 133.036 575.509 128.715 575.07C126.553 574.85 124.758 574.61 123.361 574.345C121.94 574.077 121.009 573.797 120.519 573.534C115.919 571.056 112.757 566.235 110.648 561.097C108.545 555.978 107.536 550.661 107.17 547.368C107.003 545.864 106.654 544.343 106.309 542.841C106.258 542.618 106.207 542.393 106.156 542.17C105.762 540.431 105.404 538.699 105.314 536.913C105.138 533.4 105.997 529.609 109.943 525.305C113.97 520.912 123.101 513.895 131.296 507.936C135.379 504.966 139.208 502.275 142.016 500.325C143.42 499.35 144.569 498.562 145.366 498.016C145.765 497.744 146.075 497.532 146.286 497.389Z" fill="white" stroke="white"/>
</mask>
<g mask="url(#mask0_669_1105)">
<path d="M105.314 536.913C105.175 534.122 105.688 531.155 107.883 527.895C108.679 528.33 109.949 528.724 111.838 529.089C167.95 539.883 204.939 539.883 318.119 539.883H318.202C370.374 539.883 431.308 537.713 480.843 535.783C487.346 535.529 493.653 535.28 499.719 535.041C516.754 534.367 531.878 533.769 544.087 533.367C552.364 533.094 559.295 532.913 564.569 532.858C569.869 532.804 573.43 532.879 575.015 533.106C576.466 533.315 577.867 533.645 579.213 533.988C579.552 534.075 579.89 534.163 580.226 534.25C581.202 534.504 582.152 534.751 583.04 534.936C584.91 535.326 586.771 535.506 588.275 534.72C588.617 536.319 588.749 537.81 588.634 539.155C588.091 545.488 585.093 553.06 579.924 559.602C574.761 566.136 567.468 571.596 558.375 573.779C556.117 574.322 551.793 574.847 545.762 575.343C539.75 575.836 532.09 576.298 523.197 576.718C505.409 577.559 482.704 578.239 458.39 578.71C409.76 579.654 354.728 579.758 319.802 578.644C293.937 577.819 261.198 577.604 229.734 577.398C218.677 577.325 207.776 577.253 197.387 577.156C177.405 576.971 159.317 576.693 145.622 576.134C138.774 575.857 133.036 575.509 128.715 575.07C126.553 574.851 124.758 574.609 123.361 574.345C121.94 574.075 121.009 573.796 120.519 573.532C115.919 571.055 112.757 566.233 110.648 561.098C108.545 555.976 107.536 550.661 107.17 547.366C107.003 545.864 106.654 544.343 106.309 542.841C106.258 542.616 106.207 542.393 106.156 542.17C105.762 540.431 105.404 538.697 105.314 536.913Z" fill="#D0DCF8"/>
<path d="M575.015 533.106C573.43 532.879 569.869 532.804 564.569 532.858C559.295 532.913 552.364 533.094 544.087 533.367C531.878 533.769 516.754 534.367 499.719 535.041C493.653 535.28 487.346 535.529 480.843 535.783C431.308 537.713 370.374 539.883 318.202 539.883H318.119C204.939 539.883 167.95 539.883 111.838 529.089C109.949 528.724 108.679 528.33 107.883 527.895C105.688 531.155 105.175 534.122 105.314 536.913C105.404 538.697 105.762 540.431 106.156 542.17C106.207 542.393 106.258 542.616 106.309 542.841C106.654 544.343 107.003 545.864 107.17 547.366C107.536 550.661 108.545 555.976 110.648 561.098C112.757 566.233 115.919 571.055 120.519 573.532C121.009 573.796 121.94 574.075 123.361 574.345C124.758 574.609 126.553 574.851 128.715 575.07C133.036 575.509 138.774 575.857 145.622 576.134C159.317 576.693 177.405 576.971 197.387 577.156C207.776 577.253 218.677 577.325 229.734 577.398C261.198 577.604 293.937 577.819 319.802 578.644C354.728 579.758 409.76 579.654 458.39 578.71C482.704 578.239 505.409 577.559 523.197 576.718C532.09 576.298 539.75 575.836 545.762 575.343C551.793 574.847 556.117 574.322 558.375 573.779C567.468 571.596 574.761 566.136 579.924 559.602C585.093 553.06 588.091 545.488 588.634 539.155C588.749 537.81 588.617 536.319 588.275 534.72C586.771 535.506 584.91 535.326 583.04 534.936C582.152 534.751 581.202 534.504 580.226 534.25C579.89 534.163 579.552 534.075 579.213 533.988C577.867 533.645 576.466 533.315 575.015 533.106ZM575.015 533.106L575.126 532.336" stroke="#D0DCF8"/>
</g>
<path d="M146.17 496.525C146.17 496.525 117.546 515.855 109.367 524.778C101.188 533.7 105.649 540.763 106.393 547.454C107.137 554.145 110.482 569.015 120.148 574.221C129.814 579.425 249.886 577.194 319.776 579.425C389.664 581.656 539.967 579 558.554 574.539C577.142 570.077 581.56 547.025 582.675 534.015C583.79 521.004 570.449 502.791 563.014 500.562C555.579 498.333 493.752 498.013 424.979 499.5C356.207 500.986 324.682 506.977 246.244 505.49C167.805 504.002 164.013 493.18 146.17 496.525Z" fill="#B6C9F3" stroke="#D0DCF8" stroke-miterlimit="10" stroke-linecap="round" stroke-linejoin="round"/>
<path d="M348.522 398.021L347.946 503.353C347.946 503.353 343.341 532.132 343.917 536.161C344.493 540.191 344.493 579.329 344.493 579.329" stroke="#D0DCF8" stroke-miterlimit="10" stroke-linecap="round" stroke-linejoin="round"/>
<path d="M161.193 446.439C161.193 446.439 163.687 446.127 168.985 439.894C174.284 433.658 180.206 428.983 185.817 429.295C191.429 429.607 181.142 433.658 181.142 433.658C181.142 433.658 190.805 431.165 197.663 434.594C204.52 438.023 194.858 441.14 194.858 441.14C194.858 441.14 206.08 444.569 205.456 449.244C204.832 453.92 202.651 452.673 189.246 452.673C175.843 452.673 168.985 456.102 163.374 454.232C157.764 452.361 154.023 451.739 161.193 446.439Z" fill="#1C056D" stroke="#1C056D" stroke-miterlimit="10" stroke-linecap="round" stroke-linejoin="round"/>
<path d="M142.525 385.945C142.525 385.945 151.576 390.72 154.515 395.497C157.455 400.274 154.515 404.439 161.338 405.228C165.149 405.67 170.158 405.597 170.158 409.27C170.158 412.946 169.79 414.415 169.79 414.415C169.79 414.415 173.097 427.644 172.729 430.585C172.363 433.525 159.867 437.199 159.867 437.199C159.867 437.199 159.132 441.976 161.705 445.283C164.277 448.59 176.405 458.512 178.241 459.983C180.078 461.452 142.595 465.863 142.595 465.863C142.595 465.863 134.143 448.224 122.75 441.976C111.359 435.728 105.846 436.096 105.478 429.848C105.11 423.601 115.768 400.817 125.689 393.468C135.614 386.12 142.525 385.945 142.525 385.945Z" fill="#FFB7D6"/>
<path d="M159.868 437.202C159.868 437.202 151.466 439.196 144.557 438.179C144.557 438.179 155.369 444.817 160.225 444.331L159.868 437.202Z" fill="#FFB7D6"/>
<path d="M146.432 382.757L146.43 382.765L146.43 382.768L146.428 382.778L146.422 382.815L146.396 382.963C146.373 383.096 146.339 383.289 146.294 383.542C146.204 384.044 146.073 384.776 145.905 385.687C145.569 387.509 145.087 390.052 144.504 392.929C143.336 398.691 141.767 405.775 140.152 411.124C138.538 416.469 136.773 420.757 135.279 424.227C135.044 424.773 134.814 425.302 134.591 425.813C133.418 428.512 132.456 430.724 132.012 432.499C131.713 433.696 131.875 435.244 132.184 436.841C132.455 438.242 132.863 439.786 133.269 441.323C133.334 441.568 133.398 441.814 133.463 442.058C133.933 443.852 134.373 445.61 134.597 447.176C134.825 448.764 134.811 450.032 134.478 450.906C134.285 451.413 134.129 451.664 134.024 451.776C134.01 451.79 133.999 451.8 133.991 451.808C133.929 451.792 133.782 451.728 133.514 451.521C133.227 451.297 132.885 450.976 132.452 450.552C132.292 450.393 132.123 450.224 131.943 450.045C130.202 448.307 127.526 445.636 123.194 443.187C113.871 437.917 106.169 432.852 101.706 429.81C97.0942 426.664 95.5956 422.227 96.1722 417.207C96.7552 412.132 99.4674 406.479 103.302 401.114C107.128 395.763 112.023 390.768 116.878 387.015C121.761 383.241 126.498 380.804 130.009 380.42C133.715 380.013 136.681 379.737 139.036 379.617C141.401 379.497 143.101 379.539 144.293 379.753C145.495 379.966 146.03 380.327 146.278 380.703C146.532 381.088 146.624 381.7 146.432 382.757Z" fill="#1C056D"/>
<path d="M146.43 382.765L146.432 382.757C146.624 381.7 146.532 381.088 146.278 380.703C146.03 380.327 145.495 379.966 144.293 379.753C143.101 379.539 141.401 379.497 139.036 379.617C136.681 379.737 133.715 380.013 130.009 380.42C126.498 380.804 121.761 383.241 116.878 387.015C112.023 390.768 107.128 395.763 103.302 401.114C99.4674 406.479 96.7552 412.132 96.1722 417.207C95.5956 422.227 97.0942 426.664 101.706 429.81C106.169 432.852 113.871 437.917 123.194 443.187C127.526 445.636 130.202 448.307 131.943 450.045C132.123 450.224 132.292 450.393 132.452 450.552C132.885 450.976 133.227 451.297 133.514 451.521C133.782 451.728 133.929 451.792 133.991 451.808C133.999 451.8 134.01 451.79 134.024 451.776C134.129 451.664 134.285 451.413 134.478 450.906C134.811 450.032 134.825 448.764 134.597 447.176C134.373 445.61 133.933 443.852 133.463 442.058C133.398 441.814 133.334 441.568 133.269 441.323C132.863 439.786 132.455 438.242 132.184 436.841C131.875 435.244 131.713 433.696 132.012 432.499C132.456 430.724 133.418 428.512 134.591 425.813C134.814 425.302 135.044 424.773 135.279 424.227C136.773 420.757 138.538 416.469 140.152 411.124C141.767 405.775 143.336 398.691 144.504 392.929C145.087 390.052 145.569 387.509 145.905 385.687C146.073 384.776 146.204 384.044 146.294 383.542C146.339 383.289 146.373 383.096 146.396 382.963L146.422 382.815L146.428 382.778L146.43 382.768L146.43 382.765ZM146.43 382.765L147.199 382.898" stroke="#1C056D"/>
<mask id="mask1_669_1105" style="mask-type:luminance" maskUnits="userSpaceOnUse" x="95" y="379" width="53" height="74">
<path d="M146.432 382.757L146.43 382.765L146.43 382.768L146.428 382.778L146.422 382.815L146.396 382.963C146.373 383.096 146.339 383.289 146.294 383.542C146.204 384.044 146.073 384.776 145.905 385.687C145.569 387.509 145.087 390.052 144.504 392.929C143.336 398.691 141.767 405.775 140.152 411.124C138.538 416.469 136.773 420.757 135.279 424.227C135.044 424.773 134.814 425.302 134.591 425.813C133.418 428.512 132.456 430.724 132.012 432.499C131.713 433.696 131.875 435.244 132.184 436.841C132.455 438.242 132.863 439.786 133.269 441.323C133.334 441.568 133.398 441.814 133.463 442.058C133.933 443.852 134.373 445.61 134.597 447.176C134.825 448.764 134.811 450.032 134.478 450.906C134.285 451.413 134.129 451.664 134.024 451.776C134.01 451.79 133.999 451.8 133.991 451.808C133.929 451.792 133.782 451.728 133.514 451.521C133.227 451.297 132.885 450.976 132.452 450.552C132.292 450.393 132.123 450.224 131.943 450.045C130.202 448.307 127.526 445.636 123.194 443.187C113.871 437.917 106.169 432.852 101.706 429.81C97.0942 426.664 95.5956 422.227 96.1722 417.207C96.7552 412.132 99.4674 406.479 103.302 401.114C107.128 395.763 112.023 390.768 116.878 387.015C121.761 383.241 126.498 380.804 130.009 380.42C133.715 380.013 136.681 379.737 139.036 379.617C141.401 379.497 143.101 379.539 144.293 379.753C145.495 379.966 146.03 380.327 146.278 380.703C146.532 381.088 146.624 381.7 146.432 382.757Z" fill="white"/>
<path d="M146.43 382.765L146.432 382.757C146.624 381.7 146.532 381.088 146.278 380.703C146.03 380.327 145.495 379.966 144.293 379.753C143.101 379.539 141.401 379.497 139.036 379.617C136.681 379.737 133.715 380.013 130.009 380.42C126.498 380.804 121.761 383.241 116.878 387.015C112.023 390.768 107.128 395.763 103.302 401.114C99.4674 406.479 96.7552 412.132 96.1722 417.207C95.5956 422.227 97.0942 426.664 101.706 429.81C106.169 432.852 113.871 437.917 123.194 443.187C127.526 445.636 130.202 448.307 131.943 450.045C132.123 450.224 132.292 450.393 132.452 450.552C132.885 450.976 133.227 451.297 133.514 451.521C133.782 451.728 133.929 451.792 133.991 451.808C133.999 451.8 134.01 451.79 134.024 451.776C134.129 451.664 134.285 451.413 134.478 450.906C134.811 450.032 134.825 448.764 134.597 447.176C134.373 445.61 133.933 443.852 133.463 442.058C133.398 441.814 133.334 441.568 133.269 441.323C132.863 439.786 132.455 438.242 132.184 436.841C131.875 435.244 131.713 433.696 132.012 432.499C132.456 430.724 133.418 428.512 134.591 425.813C134.814 425.302 135.044 424.773 135.279 424.227C136.773 420.757 138.538 416.469 140.152 411.124C141.767 405.775 143.336 398.691 144.504 392.929C145.087 390.052 145.569 387.509 145.905 385.687C146.073 384.776 146.204 384.044 146.294 383.542C146.339 383.289 146.373 383.096 146.396 382.963L146.422 382.815L146.428 382.778L146.43 382.768L146.43 382.765ZM146.43 382.765L147.199 382.898" stroke="white"/>
</mask>
<g mask="url(#mask1_669_1105)">
<path d="M148.083 379.252C148.083 379.252 137.885 426.846 105.832 438.501L148.083 379.252Z" fill="#1C056D"/>
<path d="M148.083 379.252C148.083 379.252 137.885 426.846 105.832 438.501" stroke="#1C056D" stroke-miterlimit="10" stroke-linecap="round" stroke-linejoin="round"/>
</g>
<mask id="mask2_669_1105" style="mask-type:luminance" maskUnits="userSpaceOnUse" x="95" y="379" width="53" height="74">
<path d="M146.432 382.757L146.43 382.765L146.43 382.768L146.428 382.778L146.422 382.815L146.396 382.963C146.373 383.096 146.339 383.289 146.294 383.542C146.204 384.044 146.073 384.776 145.905 385.687C145.569 387.509 145.087 390.052 144.504 392.929C143.336 398.691 141.767 405.775 140.152 411.124C138.538 416.469 136.773 420.757 135.279 424.227C135.044 424.773 134.814 425.302 134.591 425.813C133.418 428.512 132.456 430.724 132.012 432.499C131.713 433.696 131.875 435.244 132.184 436.841C132.455 438.242 132.863 439.786 133.269 441.323C133.334 441.568 133.398 441.814 133.463 442.058C133.933 443.852 134.373 445.61 134.597 447.176C134.825 448.764 134.811 450.032 134.478 450.906C134.285 451.413 134.129 451.664 134.024 451.776C134.01 451.79 133.999 451.8 133.991 451.808C133.929 451.792 133.782 451.728 133.514 451.521C133.227 451.297 132.885 450.976 132.452 450.552C132.292 450.393 132.123 450.224 131.943 450.045C130.202 448.307 127.526 445.636 123.194 443.187C113.871 437.917 106.169 432.852 101.706 429.81C97.0942 426.664 95.5956 422.227 96.1722 417.207C96.7552 412.132 99.4674 406.479 103.302 401.114C107.128 395.763 112.023 390.768 116.878 387.015C121.761 383.241 126.498 380.804 130.009 380.42C133.715 380.013 136.681 379.737 139.036 379.617C141.401 379.497 143.101 379.539 144.293 379.753C145.495 379.966 146.03 380.327 146.278 380.703C146.532 381.088 146.624 381.7 146.432 382.757Z" fill="white"/>
<path d="M146.43 382.765L146.432 382.757C146.624 381.7 146.532 381.088 146.278 380.703C146.03 380.327 145.495 379.966 144.293 379.753C143.101 379.539 141.401 379.497 139.036 379.617C136.681 379.737 133.715 380.013 130.009 380.42C126.498 380.804 121.761 383.241 116.878 387.015C112.023 390.768 107.128 395.763 103.302 401.114C99.4674 406.479 96.7552 412.132 96.1722 417.207C95.5956 422.227 97.0942 426.664 101.706 429.81C106.169 432.852 113.871 437.917 123.194 443.187C127.526 445.636 130.202 448.307 131.943 450.045C132.123 450.224 132.292 450.393 132.452 450.552C132.885 450.976 133.227 451.297 133.514 451.521C133.782 451.728 133.929 451.792 133.991 451.808C133.999 451.8 134.01 451.79 134.024 451.776C134.129 451.664 134.285 451.413 134.478 450.906C134.811 450.032 134.825 448.764 134.597 447.176C134.373 445.61 133.933 443.852 133.463 442.058C133.398 441.814 133.334 441.568 133.269 441.323C132.863 439.786 132.455 438.242 132.184 436.841C131.875 435.244 131.713 433.696 132.012 432.499C132.456 430.724 133.418 428.512 134.591 425.813C134.814 425.302 135.044 424.773 135.279 424.227C136.773 420.757 138.538 416.469 140.152 411.124C141.767 405.775 143.336 398.691 144.504 392.929C145.087 390.052 145.569 387.509 145.905 385.687C146.073 384.776 146.204 384.044 146.294 383.542C146.339 383.289 146.373 383.096 146.396 382.963L146.422 382.815L146.428 382.778L146.43 382.768L146.43 382.765ZM146.43 382.765L147.199 382.898" stroke="white"/>
</mask>
<g mask="url(#mask2_669_1105)">
<path d="M141.285 376.824C141.285 376.824 127.201 419.562 98.5469 429.76L141.285 376.824Z" fill="#1C056D"/>
<path d="M141.285 376.824C141.285 376.824 127.201 419.562 98.5469 429.76" stroke="#1C056D" stroke-miterlimit="10" stroke-linecap="round" stroke-linejoin="round"/>
</g>
<mask id="mask3_669_1105" style="mask-type:luminance" maskUnits="userSpaceOnUse" x="95" y="379" width="53" height="74">
<path d="M146.432 382.757L146.43 382.765L146.43 382.768L146.428 382.778L146.422 382.815L146.396 382.963C146.373 383.096 146.339 383.289 146.294 383.542C146.204 384.044 146.073 384.776 145.905 385.687C145.569 387.509 145.087 390.052 144.504 392.929C143.336 398.691 141.767 405.775 140.152 411.124C138.538 416.469 136.773 420.757 135.279 424.227C135.044 424.773 134.814 425.302 134.591 425.813C133.418 428.512 132.456 430.724 132.012 432.499C131.713 433.696 131.875 435.244 132.184 436.841C132.455 438.242 132.863 439.786 133.269 441.323C133.334 441.568 133.398 441.814 133.463 442.058C133.933 443.852 134.373 445.61 134.597 447.176C134.825 448.764 134.811 450.032 134.478 450.906C134.285 451.413 134.129 451.664 134.024 451.776C134.01 451.79 133.999 451.8 133.991 451.808C133.929 451.792 133.782 451.728 133.514 451.521C133.227 451.297 132.885 450.976 132.452 450.552C132.292 450.393 132.123 450.224 131.943 450.045C130.202 448.307 127.526 445.636 123.194 443.187C113.871 437.917 106.169 432.852 101.706 429.81C97.0942 426.664 95.5956 422.227 96.1722 417.207C96.7552 412.132 99.4674 406.479 103.302 401.114C107.128 395.763 112.023 390.768 116.878 387.015C121.761 383.241 126.498 380.804 130.009 380.42C133.715 380.013 136.681 379.737 139.036 379.617C141.401 379.497 143.101 379.539 144.293 379.753C145.495 379.966 146.03 380.327 146.278 380.703C146.532 381.088 146.624 381.7 146.432 382.757Z" fill="white"/>
<path d="M146.43 382.765L146.432 382.757C146.624 381.7 146.532 381.088 146.278 380.703C146.03 380.327 145.495 379.966 144.293 379.753C143.101 379.539 141.401 379.497 139.036 379.617C136.681 379.737 133.715 380.013 130.009 380.42C126.498 380.804 121.761 383.241 116.878 387.015C112.023 390.768 107.128 395.763 103.302 401.114C99.4674 406.479 96.7552 412.132 96.1722 417.207C95.5956 422.227 97.0942 426.664 101.706 429.81C106.169 432.852 113.871 437.917 123.194 443.187C127.526 445.636 130.202 448.307 131.943 450.045C132.123 450.224 132.292 450.393 132.452 450.552C132.885 450.976 133.227 451.297 133.514 451.521C133.782 451.728 133.929 451.792 133.991 451.808C133.999 451.8 134.01 451.79 134.024 451.776C134.129 451.664 134.285 451.413 134.478 450.906C134.811 450.032 134.825 448.764 134.597 447.176C134.373 445.61 133.933 443.852 133.463 442.058C133.398 441.814 133.334 441.568 133.269 441.323C132.863 439.786 132.455 438.242 132.184 436.841C131.875 435.244 131.713 433.696 132.012 432.499C132.456 430.724 133.418 428.512 134.591 425.813C134.814 425.302 135.044 424.773 135.279 424.227C136.773 420.757 138.538 416.469 140.152 411.124C141.767 405.775 143.336 398.691 144.504 392.929C145.087 390.052 145.569 387.509 145.905 385.687C146.073 384.776 146.204 384.044 146.294 383.542C146.339 383.289 146.373 383.096 146.396 382.963L146.422 382.815L146.428 382.778L146.43 382.768L146.43 382.765ZM146.43 382.765L147.199 382.898" stroke="white"/>
</mask>
<g mask="url(#mask3_669_1105)">
<path d="M114.091 384.109C114.091 384.109 113.119 415.191 96.1211 427.817L114.091 384.109Z" fill="#1C056D"/>
<path d="M114.091 384.109C114.091 384.109 113.119 415.191 96.1211 427.817" stroke="#1C056D" stroke-miterlimit="10" stroke-linecap="round" stroke-linejoin="round"/>
</g>
<path d="M147.199 382.897C147.199 382.897 144.151 400.578 140.899 411.35C137.648 422.122 133.785 428.626 132.769 432.689C131.754 436.753 136.833 446.917 135.208 451.183C133.582 455.451 132.159 449.151 122.81 443.867C113.463 438.583 105.741 433.504 101.267 430.454C81.7153 417.118 115.001 381.28 129.924 379.645C144.761 378.019 148.012 378.426 147.199 382.897Z" fill="#1C056D" stroke="#1C056D" stroke-miterlimit="10" stroke-linecap="round" stroke-linejoin="round"/>
<path d="M138.053 427.809C138.053 427.809 131.144 421.713 126.876 423.541C122.608 425.371 126.063 433.093 128.706 433.703C131.348 434.313 134.194 434.923 137.242 433.5" fill="#1C056D"/>
<path d="M138.053 427.809C138.053 427.809 131.144 421.713 126.876 423.541C122.608 425.371 126.063 433.093 128.706 433.703C131.348 434.313 134.194 434.923 137.242 433.5" stroke="#1C056D" stroke-miterlimit="10" stroke-linecap="round" stroke-linejoin="round"/>
<path opacity="0.3" d="M90.1935 467.24C90.1935 467.24 109.982 476.58 113.882 486.72C117.782 496.86 118.562 507.78 125.582 511.68C132.602 515.58 145.082 522.6 159.902 525.72C174.722 528.84 186.422 528.06 186.422 528.06C186.422 528.06 213.722 529.62 234.002 529.62C254.282 529.62 285.482 523.38 285.482 523.38C285.482 523.38 308.102 525.72 322.142 497.64C336.182 469.56 388.442 430.56 392.342 400.92C392.342 400.92 329.162 431.34 319.802 444.6C310.442 457.86 247.262 492.18 214.502 492.18C181.742 492.18 143.522 467.22 122.462 453.18C101.402 439.14 89.1234 453.219 90.1935 467.24Z" fill="#D0DCF8"/>
<path d="M160.917 494.982C160.917 494.982 148.113 469.374 138.664 455.35C129.213 441.327 120.677 434.621 110.312 429.133C99.9477 423.644 94.1555 421.816 88.9731 419.378C83.7908 416.94 82.2667 418.158 81.6567 428.828C81.0468 439.499 78.6085 458.094 90.1931 467.24C101.778 476.387 106.96 476.081 113.972 479.435C120.984 482.789 124.643 491.933 130.435 503.822C136.227 515.711 154.214 515.711 161.224 515.101C168.233 514.493 165.185 501.992 160.917 494.982Z" fill="white"/>
<path d="M281.943 457.891C281.943 457.891 296.983 412.365 302.672 407.894C308.363 403.423 360.39 388.384 380.309 383.913C400.225 379.442 426.24 359.931 429.085 357.085C431.93 354.24 438.434 350.989 436.401 359.118C434.369 367.247 432.336 371.312 428.272 376.191C424.207 381.069 426.647 385.132 424.207 389.603C421.769 394.074 417.296 394.074 410.387 390.011C403.478 385.947 400.632 385.945 392.501 392.043C384.372 398.14 369.332 412.774 353.074 417.651C336.816 422.529 331.53 423.342 331.53 423.342C331.53 423.342 324.214 457.891 314.459 472.931C304.705 487.971 301.046 494.88 285.194 492.035C269.341 489.189 276.252 464.802 277.065 462.362C277.879 459.924 281.943 457.891 281.943 457.891Z" fill="#3A376B"/>
<path d="M424.21 389.603C426.648 385.132 424.21 381.067 428.275 376.191C432.339 371.312 434.372 367.249 436.405 359.118C438.437 350.989 431.934 354.24 429.088 357.085C426.776 359.397 409.175 372.707 391.973 380.017C393.871 382.666 395.788 385.845 396.901 389.064C401.961 386.128 404.893 386.775 410.392 390.011C417.299 394.074 421.77 394.074 424.21 389.603Z" fill="#FFB7D6"/>
<path d="M251.055 518.455C251.055 518.455 293.735 526.178 309.587 520.487C325.44 514.797 331.944 497.318 336.415 484.718C340.886 472.118 341.698 448.542 344.138 441.633C346.577 434.722 347.391 432.691 347.391 432.691C347.391 432.691 366.089 424.154 377.064 418.463C388.038 412.773 396.98 390.823 403.484 385.945C409.987 381.067 410.8 387.571 414.458 383.913C418.117 380.254 424.62 365.622 425.84 356.272C427.06 346.923 421.369 341.64 418.929 341.64C416.491 341.64 416.897 346.518 412.833 352.614C408.768 358.711 402.671 370.905 396.575 374.971C390.478 379.036 361.618 395.7 350.644 401.798C339.669 407.894 325.442 411.147 318.125 423.747C310.809 436.347 298.614 462.769 296.989 465.613C295.363 468.458 292.924 471.709 292.924 471.709C292.924 471.709 288.045 473.742 279.511 476.18C270.974 478.619 260.812 477.4 255.936 482.277C251.055 487.156 251.055 518.455 251.055 518.455Z" fill="#3A376B"/>
<path d="M299.941 460.184C299.941 460.184 320.916 416.557 324.271 415.718C327.627 414.879 372.093 390.549 372.093 390.549" stroke="#1B2348" stroke-miterlimit="10" stroke-linecap="round" stroke-linejoin="round"/>
<path d="M279.912 484.312C279.912 484.312 285.603 495.693 286.823 502.603" stroke="#1B2348" stroke-miterlimit="10" stroke-linecap="round" stroke-linejoin="round"/>
<path d="M283.164 485.531C283.164 485.531 287.229 486.751 290.888 496.1" stroke="#1B2348" stroke-miterlimit="10" stroke-linecap="round" stroke-linejoin="round"/>
<path d="M292.107 498.944C292.107 498.944 292.92 502.195 293.733 504.228" stroke="#1B2348" stroke-miterlimit="10" stroke-linecap="round" stroke-linejoin="round"/>
<path d="M418.926 341.64C416.488 341.64 416.894 346.518 412.83 352.614C408.764 358.711 402.668 370.905 396.571 374.971C395.345 375.788 393.189 377.12 390.453 378.768C393.554 380.106 396.745 383.54 398.958 391.123C400.576 388.831 402.086 386.994 403.482 385.945C409.986 381.067 410.799 387.571 414.457 383.913C418.115 380.254 424.619 365.622 425.839 356.272C427.055 346.923 421.365 341.64 418.926 341.64Z" fill="#FFB7D6"/>
<path d="M225.52 447.332C225.52 447.332 220.502 449.95 218.319 452.569C216.137 455.187 210.465 465.444 210.465 465.444L219.193 474.609L225.52 452.571L228.793 450.17L225.52 447.332Z" fill="#FFB7D6"/>
<path d="M146.285 455.655C146.285 455.655 167.93 451.387 181.343 451.083C194.757 450.779 199.024 448.949 203.598 453.217C208.17 457.485 220.365 470.594 222.499 472.728C224.633 474.862 263.045 470.594 263.045 470.594C263.045 470.594 266.703 479.74 264.265 494.983C261.827 510.226 252.376 518.762 252.376 518.762C252.376 518.762 226.745 522.506 209.696 521.2C177.061 518.7 165.011 506.92 156.781 496.86C148.55 486.799 142.017 465.106 141.711 461.142C141.407 457.18 146.285 455.655 146.285 455.655Z" fill="#B5A7E9"/>
<path d="M227.885 454.233C227.885 454.233 212.032 456.266 210.406 460.737C208.781 465.208 216.91 496.506 219.348 498.132C221.787 499.757 227.885 495.693 227.885 495.693C227.885 495.693 242.112 497.726 262.841 496.506C283.57 495.286 290.481 485.531 292.92 485.124C295.358 484.719 301.861 483.092 301.456 481.059C301.049 479.026 294.952 459.515 286.01 452.606C277.068 445.697 263.248 444.07 250.647 448.135C238.047 452.2 227.885 454.233 227.885 454.233Z" fill="white"/>
<path d="M221.582 453.824L224.945 469.488L274.017 463.274L264.262 448.947L221.582 453.824Z" fill="#EEEEFD" stroke="#4359B7" stroke-miterlimit="10" stroke-linecap="round" stroke-linejoin="round"/>
<path d="M248.799 454.785L249.674 457.003L252.714 456.576L251.894 454.365L248.799 454.785Z" fill="#9391EC"/>
<path d="M252.992 457.325L249.969 457.749L251.031 460.442L253.997 460.03L252.992 457.325Z" fill="#9391EC"/>
<path d="M234.636 462.73L237.143 462.379L236.257 459.674L233.811 460.017L234.636 462.73Z" fill="#9391EC"/>
<path d="M252.684 454.258L253.504 456.465L256.506 456.044L255.705 453.848L252.684 454.258Z" fill="#9391EC"/>
<path d="M236.043 456.52L236.793 458.81L240.302 458.319L239.509 456.049L236.043 456.52Z" fill="#9391EC"/>
<path d="M244.596 455.358L245.479 457.592L248.879 457.114L248.003 454.895L244.596 455.358Z" fill="#9391EC"/>
<path d="M240.297 455.942L241.088 458.21L244.684 457.703L243.799 455.466L240.297 455.942Z" fill="#9391EC"/>
<path d="M250.237 460.554L249.174 457.861L245.773 458.339L246.836 461.028L250.237 460.554Z" fill="#9391EC"/>
<path d="M255.064 460.668L255.561 462.004L258.546 461.639L258.041 460.252L255.064 460.668Z" fill="#9391EC"/>
<path d="M260.45 456.278L257.568 456.682L258.557 459.392L261.585 458.971L260.45 456.278Z" fill="#9391EC"/>
<path d="M253.783 457.214L254.788 459.918L257.767 459.503L256.78 456.793L253.783 457.214Z" fill="#9391EC"/>
<path d="M263.31 461.058L267.149 460.59L266.339 459.096L262.695 459.603L263.31 461.058Z" fill="#9391EC"/>
<path d="M238.174 463.023L238.52 464.081L242.155 463.638L241.767 462.522L238.174 463.023Z" fill="#9391EC"/>
<path d="M240.563 459.069L237.041 459.565L237.929 462.27L241.506 461.773L240.563 459.069Z" fill="#9391EC"/>
<path d="M244.98 458.449L241.352 458.958L242.294 461.663L246.041 461.139L244.98 458.449Z" fill="#9391EC"/>
<path d="M247.131 461.776L247.604 462.974L251.028 462.556L250.532 461.3L247.131 461.776Z" fill="#9391EC"/>
<path d="M256.223 452.991L258.909 452.626L258.538 451.743L255.906 452.124L256.223 452.991Z" fill="#9391EC"/>
<path d="M240.036 455.19L243.505 454.718L243.205 453.962L239.781 454.458L240.036 455.19Z" fill="#9391EC"/>
<path d="M248.503 454.04L251.613 453.615L251.306 452.79L248.188 453.241L248.503 454.04Z" fill="#9391EC"/>
<path d="M244.301 454.61L247.708 454.147L247.395 453.354L244 453.847L244.301 454.61Z" fill="#9391EC"/>
<path d="M235.798 455.765L239.248 455.295L238.996 454.571L235.568 455.067L235.798 455.765Z" fill="#9391EC"/>
<path d="M235.01 455.873L234.784 455.182L232.439 455.52L232.644 456.194L235.01 455.873Z" fill="#9391EC"/>
<path d="M237.729 464.178L237.387 463.135L234.863 463.487L235.169 464.49L237.729 464.178Z" fill="#9391EC"/>
<path d="M259.708 452.517L262.566 452.129L262.08 451.23L259.334 451.628L259.708 452.517Z" fill="#9391EC"/>
<path d="M233.579 459.262L236.009 458.922L235.257 456.626L232.875 456.949L233.579 459.262Z" fill="#9391EC"/>
<path d="M261.899 459.715L258.83 460.142L259.34 461.542L262.507 461.156L261.899 459.715Z" fill="#9391EC"/>
<path d="M252.406 453.509L255.431 453.097L255.117 452.237L252.096 452.674L252.406 453.509Z" fill="#9391EC"/>
<path d="M246.335 461.885L242.555 462.414L242.948 463.542L246.804 463.072L246.335 461.885Z" fill="#9391EC"/>
<path d="M254.275 460.777L251.326 461.189L251.828 462.459L254.766 462.1L254.275 460.777Z" fill="#9391EC"/>
<path d="M256.496 453.74L257.296 455.933L260.137 455.535L259.225 453.37L256.496 453.74Z" fill="#9391EC"/>
<path d="M264.505 455.709L261.248 456.166L262.382 458.86L265.942 458.363L264.505 455.709Z" fill="#9391EC"/>
<path d="M260.934 455.423L264.109 454.977L262.964 452.861L260.021 453.261L260.934 455.423Z" fill="#9391EC"/>
<path d="M274.016 463.276L276.76 418.158L266.09 412.062L264.262 448.949L274.016 463.276Z" fill="#EEEEFD" stroke="#4359B7" stroke-miterlimit="10" stroke-linecap="round" stroke-linejoin="round"/>
<path d="M246.031 442.07C246.031 442.07 247.76 441.31 249.872 443.02C251.984 444.729 256.594 448.528 256.018 449.478C255.443 450.428 254.674 450.428 253.521 449.288C252.37 448.149 246.031 442.07 246.031 442.07Z" fill="#FFB7D6"/>
<path d="M241.23 442.094C241.23 442.094 244.722 440.786 246.031 442.094C247.339 443.403 255.849 450.167 255.196 451.478C254.54 452.787 253.45 451.696 252.141 451.696C250.831 451.695 241.23 442.094 241.23 442.094Z" fill="#FFB7D6"/>
<path d="M223.775 451.478C223.775 451.478 221.374 449.733 226.393 446.678C231.411 443.624 237.522 441.004 239.703 441.223C241.885 441.441 252.141 451.697 252.141 451.697C252.141 451.697 252.577 453.005 251.269 453.442C249.96 453.879 241.667 447.768 240.14 447.768C238.612 447.768 233.594 450.823 232.067 451.26C230.539 451.695 227.048 454.314 223.775 451.478Z" fill="#FFB7D6"/>
<path d="M232.503 448.205C232.503 448.205 244.068 452.57 244.723 452.57C245.378 452.57 244.504 454.316 242.54 454.534C240.576 454.752 235.776 452.133 234.03 453.007C232.285 453.88 228.756 453.603 226.157 453.523C223.558 453.444 223.557 450.387 223.557 450.387" fill="#FFB7D6"/>
<path d="M162.443 456.874C162.443 456.874 152.382 449.862 142.322 452.912C132.261 455.96 134.701 469.679 142.018 484.007C149.334 498.336 178.906 526.382 183.782 529.43C188.66 532.478 193.233 529.43 196.891 523.638C200.549 517.845 208.78 483.398 211.22 477.909C213.658 472.423 214.878 469.069 214.878 469.069C214.878 469.069 219.756 467.849 222.498 465.715C225.242 463.581 229.511 460.227 229.511 460.227C229.511 460.227 240.485 455.655 241.399 455.045C242.313 454.435 241.095 453.52 239.875 453.52C238.655 453.52 232.255 453.52 226.157 453.52C220.059 453.52 212.134 460.227 209.39 463.275C206.646 466.323 187.441 501.687 187.441 501.687L162.747 467.849" fill="#8F80C7"/>
<path d="M229.511 460.228C229.511 460.228 240.485 455.656 241.399 455.046C242.314 454.436 241.095 453.521 239.875 453.521C238.655 453.521 232.255 453.521 226.157 453.521C220.059 453.521 212.134 460.228 209.39 463.276C208.434 464.339 205.48 469.321 202.039 475.363L210.948 478.577C211.045 478.324 211.135 478.098 211.22 477.911C213.658 472.424 214.878 469.07 214.878 469.07C214.878 469.07 219.756 467.85 222.498 465.716C225.243 463.582 229.511 460.228 229.511 460.228Z" fill="#FFB7D6"/>
<path d="M545.281 253.187H71.561C67.6844 253.187 64.541 250.043 64.541 246.167V197.915C64.541 194.038 67.6844 190.895 71.561 190.895H545.281C549.158 190.895 552.302 194.038 552.302 197.915V246.167C552.302 250.043 549.158 253.187 545.281 253.187Z" fill="#EEEEFD" stroke="#6880E4" stroke-miterlimit="10" stroke-linecap="round" stroke-linejoin="round"/>
<path d="M545.283 253.187H482.959V190.895H545.283C549.159 190.895 552.303 194.038 552.303 197.915V246.167C552.303 250.043 549.159 253.187 545.283 253.187Z" fill="url(#paint17_linear_669_1105)" stroke="url(#paint18_linear_669_1105)" stroke-miterlimit="10" stroke-linecap="round" stroke-linejoin="round"/>
<path d="M103.54 233.393C103.54 234.48 103.292 235.315 102.796 235.892C102.3 236.471 101.584 236.759 100.648 236.759C99.7523 236.759 99.0534 236.471 98.5511 235.892C98.0488 235.313 97.7976 234.48 97.7976 233.393V223.661C97.7976 222.312 97.4575 221.275 96.7742 220.552C96.0925 219.828 95.2142 219.468 94.141 219.468C92.8462 219.468 91.7308 219.967 90.7932 220.966C89.8572 221.964 89.3876 223.262 89.3876 224.859V233.393C89.3876 234.48 89.1365 235.315 88.6342 235.892C88.1318 236.471 87.4111 236.759 86.4751 236.759C85.5797 236.759 84.8808 236.471 84.3785 235.892C83.8762 235.313 83.625 234.48 83.625 233.393V210.233C83.625 209.158 83.8699 208.333 84.3582 207.754C84.8465 207.175 85.5391 206.887 86.4346 206.887C87.3706 206.887 88.0944 207.175 88.6045 207.754C89.1146 208.333 89.3689 209.158 89.3689 210.233V218.931C90.0163 217.885 90.904 217.078 92.0334 216.515C93.1628 215.95 94.506 215.668 96.0629 215.668C97.0956 215.668 98.0534 215.822 98.9348 216.133C99.8162 216.443 100.609 216.903 101.311 217.517C102.013 218.13 102.563 218.949 102.963 219.975C103.362 221.002 103.562 222.175 103.562 223.498L103.54 233.393Z" fill="#9391EC"/>
<path d="M111.865 235.202C110.778 234.038 110.233 232.278 110.233 229.923V219.882H108.519C107.17 219.882 106.494 219.221 106.494 217.9C106.494 217.335 106.656 216.887 106.979 216.557C107.302 216.226 107.795 216.06 108.457 216.06H110.461L111.02 211.288C111.24 209.306 112.169 208.313 113.809 208.313C115.269 208.313 115.999 209.312 115.999 211.309V216.06H118.994C120.289 216.06 120.937 216.708 120.937 218.003C120.937 219.255 120.269 219.882 118.932 219.882H115.998V228.581C115.998 230.041 116.174 231.097 116.525 231.752C116.876 232.406 117.5 232.734 118.395 232.734C118.478 232.734 118.561 232.734 118.643 232.734L120.007 232.671C120.047 232.671 120.09 232.671 120.13 232.671C120.681 232.671 121.114 232.871 121.431 233.27C121.748 233.67 121.907 234.138 121.907 234.676C121.907 234.993 121.855 235.272 121.752 235.512C121.65 235.754 121.522 235.954 121.37 236.111C121.219 236.27 121.005 236.404 120.731 236.514C120.455 236.624 120.197 236.71 119.955 236.771C119.715 236.833 119.394 236.877 118.994 236.905C118.595 236.933 118.255 236.95 117.973 236.957C117.69 236.963 117.314 236.968 116.846 236.968C116.804 236.968 116.757 236.968 116.701 236.968C116.647 236.968 116.595 236.968 116.547 236.968C116.498 236.968 116.453 236.968 116.413 236.968C114.469 236.954 112.954 236.365 111.865 235.202Z" fill="#9391EC"/>
<path d="M128.475 235.202C127.386 234.038 126.843 232.278 126.843 229.923V219.882H125.128C123.779 219.882 123.104 219.221 123.104 217.9C123.104 217.335 123.266 216.887 123.589 216.557C123.913 216.226 124.405 216.06 125.066 216.06H127.071L127.629 211.288C127.849 209.306 128.779 208.313 130.418 208.313C131.879 208.313 132.609 209.312 132.609 211.309V216.06H135.604C136.899 216.06 137.546 216.708 137.546 218.003C137.546 219.255 136.878 219.882 135.541 219.882H132.607V228.581C132.607 230.041 132.783 231.097 133.134 231.752C133.485 232.406 134.109 232.734 135.005 232.734C135.087 232.734 135.17 232.734 135.253 232.734L136.616 232.671C136.658 232.671 136.699 232.671 136.741 232.671C137.292 232.671 137.725 232.871 138.042 233.27C138.359 233.67 138.518 234.138 138.518 234.676C138.518 234.993 138.466 235.272 138.363 235.512C138.26 235.754 138.133 235.954 137.981 236.111C137.83 236.27 137.616 236.404 137.34 236.514C137.066 236.624 136.807 236.71 136.565 236.771C136.323 236.832 136.003 236.877 135.604 236.905C135.204 236.933 134.863 236.95 134.58 236.957C134.298 236.963 133.922 236.968 133.454 236.968C133.414 236.968 133.365 236.968 133.309 236.968C133.254 236.968 133.203 236.968 133.155 236.968C133.106 236.968 133.061 236.968 133.02 236.968C131.078 236.954 129.563 236.365 128.475 235.202Z" fill="#9391EC"/>
<path d="M142.609 243.65C142.127 243.079 141.885 242.249 141.885 241.16V219.529C141.885 218.442 142.147 217.584 142.669 216.957C143.194 216.33 143.902 216.016 144.797 216.016C145.679 216.016 146.368 216.261 146.863 216.749C147.359 217.238 147.607 217.924 147.607 218.806V219.384C148.902 216.92 151.181 215.686 154.446 215.686C157.144 215.686 159.314 216.675 160.954 218.651C162.593 220.628 163.412 223.234 163.412 226.471C163.412 229.777 162.559 232.359 160.851 234.218C159.143 236.078 156.918 237.008 154.178 237.008C151.065 237.008 148.881 235.878 147.629 233.619V241.16C147.629 242.248 147.374 243.078 146.864 243.65C146.354 244.221 145.624 244.508 144.674 244.508C143.779 244.508 143.091 244.223 142.609 243.65ZM155.107 232.669C155.769 232.298 156.291 231.788 156.676 231.14C157.062 230.493 157.349 229.771 157.534 228.971C157.72 228.172 157.814 227.304 157.814 226.367C157.814 225.54 157.731 224.744 157.566 223.98C157.4 223.216 157.138 222.482 156.781 221.78C156.422 221.078 155.906 220.517 155.232 220.097C154.557 219.678 153.772 219.467 152.877 219.467C151.003 219.467 149.664 220.052 148.858 221.224C148.053 222.395 147.649 224.116 147.649 226.389C147.649 228.468 148.086 230.128 148.961 231.368C149.836 232.608 151.12 233.228 152.814 233.228C153.681 233.228 154.446 233.042 155.107 232.669Z" fill="#9391EC"/>
<path d="M167.164 233.961C167.033 233.707 166.967 233.434 166.967 233.145C166.967 232.911 167.012 232.683 167.101 232.463C167.19 232.243 167.312 232.044 167.463 231.864C167.615 231.685 167.808 231.545 168.042 231.442C168.276 231.339 168.518 231.287 168.766 231.287C169.137 231.287 169.51 231.39 169.881 231.598C169.909 231.612 170.036 231.683 170.263 231.814C170.491 231.946 170.646 232.031 170.728 232.073C170.811 232.114 170.973 232.194 171.213 232.311C171.455 232.428 171.647 232.513 171.792 232.568C171.937 232.623 172.134 232.699 172.38 232.796C172.628 232.892 172.859 232.964 173.073 233.013C173.287 233.061 173.527 233.112 173.797 233.167C174.065 233.222 174.344 233.261 174.633 233.281C174.922 233.301 175.212 233.312 175.5 233.312C176.024 233.312 176.516 233.275 176.978 233.198C177.439 233.122 177.876 232.995 178.29 232.816C178.703 232.637 179.031 232.379 179.271 232.041C179.513 231.704 179.633 231.307 179.633 230.854C179.633 230.357 179.408 229.917 178.962 229.531C178.514 229.145 177.843 228.835 176.948 228.601L173.87 227.794C173.14 227.588 172.538 227.412 172.062 227.267C171.586 227.122 171.081 226.944 170.544 226.73C170.008 226.517 169.574 226.303 169.243 226.091C168.912 225.877 168.585 225.62 168.262 225.316C167.939 225.013 167.691 224.685 167.518 224.334C167.346 223.983 167.204 223.573 167.095 223.105C166.984 222.637 166.93 222.113 166.93 221.534C166.93 220.598 167.132 219.754 167.54 219.004C167.945 218.253 168.521 217.629 169.265 217.133C170.009 216.637 170.891 216.258 171.909 215.998C172.928 215.736 174.057 215.604 175.298 215.604C177.599 215.604 179.836 216.115 182.012 217.133C182.425 217.327 182.731 217.584 182.931 217.909C183.13 218.233 183.23 218.573 183.23 218.932C183.23 219.386 183.079 219.782 182.776 220.121C182.474 220.458 182.074 220.626 181.578 220.626C181.441 220.626 181.299 220.612 181.155 220.584C181.01 220.556 180.862 220.515 180.711 220.461C180.669 220.447 180.6 220.419 180.505 220.378C178.577 219.703 176.937 219.366 175.588 219.366C174.995 219.366 174.447 219.42 173.945 219.531C173.443 219.642 173.009 219.845 172.644 220.141C172.279 220.437 172.096 220.806 172.096 221.245C172.096 221.852 172.29 222.303 172.675 222.6C173.06 222.896 173.764 223.167 174.783 223.415L177.84 224.18C178.97 224.468 179.923 224.782 180.701 225.121C181.48 225.457 182.162 225.871 182.747 226.361C183.332 226.851 183.762 227.432 184.038 228.106C184.314 228.782 184.452 229.566 184.452 230.462C184.452 231.894 184.08 233.114 183.336 234.119C182.592 235.123 181.597 235.864 180.35 236.34C179.104 236.816 177.669 237.053 176.043 237.053C172.834 237.053 170.073 236.24 167.758 234.615C167.49 234.432 167.295 234.215 167.164 233.961Z" fill="#9391EC"/>
<path d="M189.972 220.563C189.358 219.985 189.053 219.24 189.053 218.333C189.053 217.492 189.352 216.766 189.951 216.153C190.55 215.54 191.312 215.234 192.234 215.234C193.115 215.234 193.865 215.531 194.485 216.122C195.104 216.715 195.414 217.451 195.414 218.333C195.414 219.186 195.115 219.916 194.516 220.523C193.917 221.128 193.156 221.432 192.234 221.432C191.338 221.431 190.585 221.141 189.972 220.563ZM189.972 235.965C189.358 235.366 189.053 234.625 189.053 233.744C189.053 232.903 189.352 232.178 189.951 231.564C190.55 230.951 191.312 230.646 192.234 230.646C193.115 230.646 193.865 230.939 194.485 231.524C195.104 232.109 195.414 232.85 195.414 233.745C195.414 234.599 195.112 235.333 194.505 235.947C193.9 236.56 193.141 236.865 192.232 236.865C191.338 236.864 190.585 236.564 189.972 235.965Z" fill="#9391EC"/>
<path d="M200.651 238.786C200.245 238.456 200.041 238.014 200.041 237.464C200.041 237.202 200.144 236.719 200.351 236.017L209.607 208.622C209.8 208.003 210.072 207.507 210.423 207.136C210.774 206.764 211.184 206.577 211.652 206.577C212.189 206.577 212.65 206.746 213.036 207.083C213.421 207.42 213.615 207.884 213.615 208.477C213.615 208.794 213.518 209.256 213.326 209.861L203.822 237.958C203.52 238.84 202.921 239.281 202.025 239.281C201.515 239.281 201.057 239.116 200.651 238.786Z" fill="#9391EC"/>
<path d="M216.747 238.786C216.341 238.456 216.137 238.014 216.137 237.464C216.137 237.202 216.24 236.719 216.447 236.017L225.703 208.622C225.896 208.003 226.168 207.507 226.519 207.136C226.87 206.764 227.28 206.577 227.748 206.577C228.284 206.577 228.746 206.746 229.132 207.083C229.517 207.42 229.71 207.884 229.71 208.477C229.71 208.794 229.614 209.256 229.422 209.861L219.918 237.958C219.616 238.84 219.016 239.281 218.121 239.281C217.611 239.281 217.154 239.116 216.747 238.786Z" fill="#9391EC"/>
<path d="M254.388 235.861C253.76 235.262 253.179 234.061 252.642 232.256L248.943 221.079L245.244 232.256C244.708 234.061 244.126 235.262 243.499 235.861C242.872 236.46 241.987 236.76 240.844 236.76C239.92 236.76 239.16 236.426 238.561 235.758C237.962 235.091 237.449 233.999 237.022 232.484L232.889 219.427C232.792 219.096 232.744 218.779 232.744 218.477C232.744 217.995 232.864 217.561 233.106 217.176C233.346 216.79 233.657 216.5 234.036 216.308C234.415 216.116 234.825 216.02 235.265 216.02C235.624 216.02 235.964 216.091 236.288 216.236C236.611 216.382 236.912 216.616 237.187 216.938C237.462 217.263 237.663 217.658 237.786 218.127L241.525 231.039L245.307 219.511C245.678 218.285 246.123 217.389 246.639 216.825C247.155 216.26 247.923 215.978 248.943 215.978C249.962 215.978 250.731 216.26 251.247 216.825C251.764 217.389 252.208 218.285 252.58 219.511L256.361 231.039L260.1 218.127C260.294 217.439 260.623 216.915 261.092 216.556C261.56 216.197 262.077 216.02 262.642 216.02C263.303 216.02 263.885 216.247 264.387 216.701C264.889 217.155 265.141 217.748 265.141 218.478C265.141 218.63 265.13 218.784 265.109 218.943C265.089 219.102 265.05 219.263 264.996 219.428L260.863 232.485C260.436 234 259.922 235.092 259.323 235.76C258.724 236.428 257.963 236.761 257.041 236.761C255.899 236.761 255.015 236.46 254.388 235.861Z" fill="#9391EC"/>
<path d="M290.05 235.861C289.423 235.262 288.841 234.061 288.304 232.256L284.605 221.079L280.907 232.256C280.37 234.061 279.788 235.262 279.161 235.861C278.534 236.46 277.649 236.76 276.506 236.76C275.584 236.76 274.823 236.426 274.223 235.758C273.624 235.091 273.111 233.999 272.684 232.484L268.551 219.427C268.455 219.096 268.406 218.779 268.406 218.477C268.406 217.995 268.526 217.561 268.768 217.176C269.01 216.79 269.319 216.5 269.698 216.308C270.077 216.116 270.486 216.02 270.927 216.02C271.286 216.02 271.626 216.091 271.951 216.236C272.275 216.382 272.575 216.616 272.849 216.938C273.125 217.263 273.325 217.658 273.448 218.127L277.188 231.039L280.969 219.511C281.34 218.285 281.785 217.389 282.301 216.825C282.818 216.26 283.585 215.978 284.605 215.978C285.624 215.978 286.393 216.26 286.909 216.825C287.426 217.389 287.87 218.285 288.242 219.511L292.023 231.039L295.762 218.127C295.956 217.439 296.285 216.915 296.755 216.556C297.223 216.197 297.739 216.02 298.304 216.02C298.965 216.02 299.547 216.247 300.049 216.701C300.552 217.155 300.803 217.748 300.803 218.478C300.803 218.63 300.792 218.784 300.772 218.943C300.751 219.102 300.712 219.263 300.658 219.428L296.525 232.485C296.098 234 295.585 235.092 294.986 235.76C294.387 236.428 293.625 236.761 292.703 236.761C291.561 236.761 290.675 236.46 290.05 235.861Z" fill="#9391EC"/>
<path d="M325.706 235.861C325.079 235.262 324.497 234.061 323.96 232.256L320.262 221.079L316.563 232.256C316.026 234.061 315.444 235.262 314.817 235.861C314.19 236.46 313.306 236.76 312.162 236.76C311.239 236.76 310.479 236.426 309.88 235.758C309.281 235.091 308.767 233.999 308.34 232.484L304.208 219.427C304.111 219.096 304.062 218.779 304.062 218.477C304.062 217.995 304.183 217.561 304.424 217.176C304.666 216.79 304.975 216.5 305.354 216.308C305.733 216.116 306.142 216.02 306.583 216.02C306.942 216.02 307.282 216.091 307.607 216.236C307.93 216.382 308.229 216.616 308.505 216.938C308.78 217.263 308.981 217.658 309.104 218.127L312.844 231.039L316.625 219.511C316.996 218.285 317.441 217.389 317.957 216.825C318.474 216.26 319.241 215.978 320.262 215.978C321.28 215.978 322.049 216.26 322.566 216.825C323.082 217.389 323.527 218.285 323.898 219.511L327.679 231.039L331.419 218.127C331.612 217.439 331.941 216.915 332.411 216.556C332.879 216.197 333.395 216.02 333.96 216.02C334.621 216.02 335.203 216.247 335.706 216.701C336.208 217.155 336.459 217.748 336.459 218.478C336.459 218.63 336.448 218.784 336.428 218.943C336.408 219.102 336.37 219.263 336.314 219.428L332.181 232.485C331.754 234 331.241 235.092 330.642 235.76C330.043 236.428 329.281 236.761 328.359 236.761C327.218 236.761 326.333 236.46 325.706 235.861Z" fill="#9391EC"/>
<path d="M537.58 239.209L522.395 222.601C522.205 222.392 521.991 222.22 521.767 222.069C523.625 219.492 524.732 216.34 524.732 212.929C524.732 204.282 517.695 197.246 509.048 197.246C500.399 197.246 493.365 204.282 493.365 212.929C493.365 221.577 500.399 228.613 509.048 228.613C511.82 228.613 514.422 227.883 516.684 226.616C516.823 226.878 516.982 227.133 517.193 227.362L532.378 243.97C533.073 244.731 534.025 245.116 534.981 245.116C535.83 245.116 536.682 244.81 537.359 244.193C538.796 242.876 538.895 240.645 537.58 239.209ZM496.889 212.927C496.889 206.224 502.343 200.77 509.046 200.77C515.75 200.77 521.205 206.224 521.205 212.927C521.205 219.631 515.751 225.084 509.046 225.084C502.345 225.086 496.889 219.632 496.889 212.927Z" fill="white"/>
<path d="M270.184 254.774V387.304" stroke="#6880E4" stroke-miterlimit="10" stroke-linecap="round" stroke-linejoin="round"/>
</g>
<defs>
<linearGradient id="paint0_linear_669_1105" x1="675.523" y1="341.779" x2="704.14" y2="341.779" gradientUnits="userSpaceOnUse">
<stop stop-color="#9942FF"/>
<stop offset="1" stop-color="#4D6DFF"/>
</linearGradient>
<linearGradient id="paint1_linear_669_1105" x1="660.569" y1="387.743" x2="689.187" y2="387.743" gradientUnits="userSpaceOnUse">
<stop stop-color="#9942FF"/>
<stop offset="1" stop-color="#4D6DFF"/>
</linearGradient>
<linearGradient id="paint2_linear_669_1105" x1="702.094" y1="355.813" x2="734.645" y2="355.813" gradientUnits="userSpaceOnUse">
<stop stop-color="#9942FF"/>
<stop offset="1" stop-color="#4D6DFF"/>
</linearGradient>
<linearGradient id="paint3_linear_669_1105" x1="682.652" y1="411.677" x2="719.211" y2="411.677" gradientUnits="userSpaceOnUse">
<stop stop-color="#9942FF"/>
<stop offset="1" stop-color="#4D6DFF"/>
</linearGradient>
<linearGradient id="paint4_linear_669_1105" x1="688.824" y1="467.783" x2="717.439" y2="467.783" gradientUnits="userSpaceOnUse">
<stop stop-color="#9942FF"/>
<stop offset="1" stop-color="#4D6DFF"/>
</linearGradient>
<linearGradient id="paint5_linear_669_1105" x1="663.315" y1="480.395" x2="688.69" y2="480.395" gradientUnits="userSpaceOnUse">
<stop stop-color="#9942FF"/>
<stop offset="1" stop-color="#4D6DFF"/>
</linearGradient>
<linearGradient id="paint6_linear_669_1105" x1="678.492" y1="525.04" x2="707.109" y2="525.04" gradientUnits="userSpaceOnUse">
<stop stop-color="#9942FF"/>
<stop offset="1" stop-color="#4D6DFF"/>
</linearGradient>
<linearGradient id="paint7_linear_669_1105" x1="685.16" y1="560.742" x2="708.166" y2="560.742" gradientUnits="userSpaceOnUse">
<stop stop-color="#9942FF"/>
<stop offset="1" stop-color="#4D6DFF"/>
</linearGradient>
<linearGradient id="paint8_linear_669_1105" x1="636.627" y1="442.466" x2="652.38" y2="442.466" gradientUnits="userSpaceOnUse">
<stop stop-color="#9942FF"/>
<stop offset="1" stop-color="#4D6DFF"/>
</linearGradient>
<linearGradient id="paint9_linear_669_1105" x1="650.992" y1="469.666" x2="666.745" y2="469.666" gradientUnits="userSpaceOnUse">
<stop stop-color="#9942FF"/>
<stop offset="1" stop-color="#4D6DFF"/>
</linearGradient>
<linearGradient id="paint10_linear_669_1105" x1="615.87" y1="454.261" x2="640.744" y2="454.261" gradientUnits="userSpaceOnUse">
<stop stop-color="#9942FF"/>
<stop offset="1" stop-color="#4D6DFF"/>
</linearGradient>
<linearGradient id="paint11_linear_669_1105" x1="631.535" y1="487.425" x2="658.802" y2="487.425" gradientUnits="userSpaceOnUse">
<stop stop-color="#9942FF"/>
<stop offset="1" stop-color="#4D6DFF"/>
</linearGradient>
<linearGradient id="paint12_linear_669_1105" x1="639.089" y1="522.773" x2="661.39" y2="522.773" gradientUnits="userSpaceOnUse">
<stop stop-color="#9942FF"/>
<stop offset="1" stop-color="#4D6DFF"/>
</linearGradient>
<linearGradient id="paint13_linear_669_1105" x1="661.386" y1="527.883" x2="675.314" y2="527.883" gradientUnits="userSpaceOnUse">
<stop stop-color="#9942FF"/>
<stop offset="1" stop-color="#4D6DFF"/>
</linearGradient>
<linearGradient id="paint14_linear_669_1105" x1="673.598" y1="568.497" x2="694.519" y2="568.497" gradientUnits="userSpaceOnUse">
<stop stop-color="#9942FF"/>
<stop offset="1" stop-color="#4D6DFF"/>
</linearGradient>
<linearGradient id="paint15_linear_669_1105" x1="651.784" y1="557.556" x2="674.083" y2="557.556" gradientUnits="userSpaceOnUse">
<stop stop-color="#9942FF"/>
<stop offset="1" stop-color="#4D6DFF"/>
</linearGradient>
<linearGradient id="paint16_linear_669_1105" x1="655.582" y1="580.362" x2="672.55" y2="580.362" gradientUnits="userSpaceOnUse">
<stop stop-color="#9942FF"/>
<stop offset="1" stop-color="#4D6DFF"/>
</linearGradient>
<linearGradient id="paint17_linear_669_1105" x1="482.959" y1="222.041" x2="552.303" y2="222.041" gradientUnits="userSpaceOnUse">
<stop stop-color="#FB9004"/>
<stop offset="1" stop-color="#FC067D"/>
</linearGradient>
<linearGradient id="paint18_linear_669_1105" x1="482.959" y1="222.041" x2="552.303" y2="222.041" gradientUnits="userSpaceOnUse">
<stop stop-color="#FB9004"/>
<stop offset="1" stop-color="#FC067D"/>
</linearGradient>
<clipPath id="clip0_669_1105">
<rect width="780" height="780" fill="white"/>
</clipPath>
</defs>
</svg>
