<svg width="43" height="43" viewBox="0 0 43 43" fill="none" xmlns="http://www.w3.org/2000/svg">
<g clip-path="url(#clip0_218_718)">
<path d="M18.8938 29.617C12.3577 23.0808 14.4683 9.53191 16.3406 3.57446H15.3194L10.213 9.70212L9.1917 16.8511L4.59595 18.383L1.53212 21.9574L1.02148 27.0638L2.5534 30.6383H20.4257L18.8938 29.617Z" fill="#DDDFE8"/>
<path d="M33.7658 10.7912C32.5205 4.58664 26.9915 0 20.6041 0C13.1938 0 7.16664 6.02537 7.16664 13.4375C7.16664 13.7403 7.17915 14.0485 7.20603 14.3781C3.16226 14.8064 0 18.2391 0 22.3959C0 23.1143 0.114639 23.8381 0.361889 24.6712C0.503402 25.146 1.00151 25.422 1.47451 25.2769C1.94928 25.1371 2.21987 24.639 2.08012 24.1642C1.88301 23.4995 1.79164 22.937 1.79164 22.3959C1.79164 18.938 4.60453 16.125 8.00514 16.1215C8.30076 16.1645 8.686 16.0587 8.88487 15.8295C9.05511 15.6342 9.13213 15.3743 9.0945 15.1163C9.00136 14.4731 8.95836 13.9392 8.95836 13.4376C8.95836 7.01807 14.1829 1.79172 20.6042 1.79172C26.3572 1.79172 31.3076 6.08811 32.1192 11.7856C32.182 12.2353 32.7051 12.5489 33.1459 12.5417C37.591 12.5417 41.2084 16.1591 41.2084 20.6042C41.2084 24.4295 38.4886 27.753 34.7422 28.5055C34.2567 28.604 33.9431 29.0752 34.0399 29.5607C34.1259 29.9854 34.5004 30.2792 34.9178 30.2792C34.9769 30.2792 35.036 30.2738 35.0951 30.2613C39.6765 29.3385 43 25.2786 43 20.6041C43 15.4245 38.9849 11.1656 33.7658 10.7912Z" fill="url(#paint0_linear_218_718)"/>
<path fill-rule="evenodd" clip-rule="evenodd" d="M29.5625 26.875H2.6875C1.20576 26.875 0 28.0808 0 29.5625V33.1459C0 33.8356 0.26875 34.4609 0.69875 34.9375C0.26875 35.4159 0 36.0394 0 36.7291V40.3125C0 41.796 1.20576 43 2.6875 43H29.5625C31.0442 43 32.25 41.7942 32.25 40.3125V36.7291C32.25 36.0394 31.9812 35.414 31.5512 34.9375C31.9812 34.4609 32.25 33.8356 32.25 33.1459V29.5625C32.25 28.0808 31.0442 26.875 29.5625 26.875ZM30.4584 40.3125C30.4584 40.807 30.057 41.2084 29.5625 41.2084H2.6875C2.193 41.2084 1.79164 40.807 1.79164 40.3125V36.7291C1.79164 36.2346 2.193 35.8333 2.6875 35.8333H29.5625C30.057 35.8333 30.4584 36.2346 30.4584 36.7291V40.3125ZM30.4584 33.1459C30.4584 33.6404 30.057 34.0417 29.5625 34.0417H2.6875C2.193 34.0417 1.79164 33.6404 1.79164 33.1459V29.5625C1.79164 29.068 2.193 28.6666 2.6875 28.6666H29.5625C30.057 28.6666 30.4584 29.068 30.4584 29.5625V33.1459ZM3.58329 31.3543C3.58329 30.8598 3.98465 30.4584 4.47915 30.4584C4.97365 30.4584 5.37501 30.8579 5.37501 31.3542C5.37501 31.8505 4.97365 32.2501 4.47915 32.2501C3.98465 32.2501 3.58329 31.8488 3.58329 31.3543ZM4.47915 37.625C3.98465 37.625 3.58329 38.0264 3.58329 38.5209C3.58329 39.0154 3.98465 39.4167 4.47915 39.4167C4.97365 39.4167 5.37501 39.0171 5.37501 38.5209C5.37501 38.0246 4.97365 37.625 4.47915 37.625ZM27.7709 37.625H20.6042C20.1097 37.625 19.7084 38.0264 19.7084 38.5209C19.7084 39.0154 20.1097 39.4167 20.6042 39.4167H27.7709C28.2654 39.4167 28.6667 39.0154 28.6667 38.5209C28.6667 38.0264 28.2654 37.625 27.7709 37.625ZM20.6042 30.4584H27.7709C28.2654 30.4584 28.6666 30.8597 28.6667 31.3543C28.6667 31.8488 28.2654 32.2501 27.7709 32.2501H20.6042C20.1097 32.2501 19.7084 31.8488 19.7084 31.3543C19.7084 30.8598 20.1097 30.4584 20.6042 30.4584Z" fill="url(#paint1_linear_218_718)"/>
</g>
<defs>
<linearGradient id="paint0_linear_218_718" x1="0" y1="15.1396" x2="43" y2="15.1396" gradientUnits="userSpaceOnUse">
<stop stop-color="#FB9004"/>
<stop offset="1" stop-color="#FC067D"/>
</linearGradient>
<linearGradient id="paint1_linear_218_718" x1="0" y1="34.9375" x2="32.25" y2="34.9375" gradientUnits="userSpaceOnUse">
<stop stop-color="#9942FF"/>
<stop offset="1" stop-color="#FC067D"/>
</linearGradient>
<clipPath id="clip0_218_718">
<rect width="43" height="43" fill="white"/>
</clipPath>
</defs>
</svg>
