<svg width="1334" height="720" viewBox="0 0 1334 720" fill="none" xmlns="http://www.w3.org/2000/svg">
<path opacity="0.16" d="M854.282 8.99539C624.811 -30.201 331.871 62.8817 333.499 298.039C71.4828 360.092 48.6986 564.22 110.54 696.493H1212.32C1344.14 293.138 1083.75 48.1864 854.282 8.99539Z" fill="#B5A7E9"/>
<path d="M645.801 154.769H515.633C511.16 154.769 507.531 151.142 507.531 146.667V73.1705C507.531 68.6971 511.158 65.0688 515.633 65.0688H645.801C650.274 65.0688 653.902 68.6952 653.902 73.1705V146.667C653.902 151.14 650.274 154.769 645.801 154.769Z" fill="url(#paint0_linear_651_774)"/>
<path d="M552.699 100.737H520.475C519.324 100.737 518.391 99.8033 518.391 98.6527C518.391 97.5022 519.324 96.5688 520.475 96.5688H552.699C553.849 96.5688 554.783 97.5022 554.783 98.6527C554.783 99.8052 553.849 100.737 552.699 100.737Z" fill="#4D427C"/>
<path d="M643.949 78.7194H611.725C610.574 78.7194 609.641 77.786 609.641 76.6354C609.641 75.4849 610.574 74.5515 611.725 74.5515H643.949C645.099 74.5515 646.033 75.4849 646.033 76.6354C646.033 77.786 645.099 78.7194 643.949 78.7194Z" fill="#4D427C"/>
<path d="M553.256 144.637H519.918C519.074 144.637 518.391 143.953 518.391 143.11V141.996C518.391 141.153 519.074 140.469 519.918 140.469H553.256C554.099 140.469 554.783 141.153 554.783 141.996V143.11C554.783 143.953 554.099 144.637 553.256 144.637Z" fill="#4D427C"/>
<path d="M528.949 111.03H520.475C519.324 111.03 518.391 110.096 518.391 108.946C518.391 107.795 519.324 106.862 520.475 106.862H528.949C530.099 106.862 531.033 107.795 531.033 108.946C531.031 110.096 530.099 111.03 528.949 111.03Z" fill="#4D427C"/>
<path d="M642.217 148.49H613.452C611.633 148.49 610.16 147.015 610.16 145.198V126.48C610.16 124.661 611.635 123.188 613.452 123.188H642.215C644.034 123.188 645.507 124.663 645.507 126.48V145.198C645.509 147.015 644.036 148.49 642.217 148.49Z" fill="white"/>
<path d="M936.795 120.021V130.404H929.195V120.117C920.112 119.56 911.305 116.594 906.488 112.424L910.66 103.061C915.203 106.77 922.154 109.457 929.197 110.106V91.5691C918.91 89.0664 907.879 85.7301 907.879 72.8458C907.879 63.392 914.738 55.1425 929.197 53.7519V43.2782H936.797V53.5675C943.656 53.9382 950.607 55.978 955.613 59.2202L951.812 68.5818C946.898 65.7084 941.709 64.1334 936.795 63.5783V82.2996C947.085 84.8024 958.298 88.0465 958.298 100.929C958.3 110.383 951.349 118.54 936.795 120.021ZM929.195 80.352V63.853C922.615 64.8729 919.834 68.2092 919.834 72.2869C919.835 76.7372 923.819 78.7751 929.195 80.352ZM946.436 101.76C946.436 97.2198 942.358 95.0878 936.795 93.5109V109.918C943.562 108.9 946.436 105.748 946.436 101.76Z" fill="#BAB2DC"/>
<path d="M1177.34 567.733V575.648H1171.55V567.806C1164.63 567.381 1157.91 565.12 1154.24 561.942L1157.42 554.804C1160.88 557.631 1166.18 559.681 1171.55 560.175V546.044C1163.71 544.136 1155.3 541.593 1155.3 531.771C1155.3 524.564 1160.53 518.276 1171.55 517.216V509.231H1177.34V517.073C1182.57 517.356 1187.87 518.91 1191.69 521.384L1188.79 528.519C1185.05 526.329 1181.09 525.127 1177.35 524.704V538.975C1185.19 540.883 1193.74 543.357 1193.74 553.177C1193.74 560.386 1188.44 566.605 1177.34 567.733ZM1171.55 537.493V524.916C1166.53 525.694 1164.42 528.237 1164.42 531.346C1164.41 534.738 1167.45 536.29 1171.55 537.493ZM1184.69 553.813C1184.69 550.352 1181.59 548.727 1177.34 547.525V560.03C1182.5 559.256 1184.69 556.852 1184.69 553.813Z" fill="#BAB2DC"/>
<path d="M1082.02 202.437C1078.41 198.834 1076.61 193.875 1076.61 187.571C1076.61 183.341 1077.44 179.702 1079.1 176.648C1080.77 173.601 1083.07 171.283 1086.02 169.685C1088.97 168.095 1092.27 167.299 1095.95 167.299C1099.62 167.299 1102.93 168.095 1105.87 169.685C1108.82 171.285 1111.12 173.603 1112.79 176.648C1114.45 179.702 1115.28 183.339 1115.28 187.571C1115.28 193.875 1113.48 198.832 1109.88 202.437C1106.27 206.042 1101.63 207.844 1095.94 207.844C1090.27 207.844 1085.62 206.042 1082.02 202.437ZM1138.68 168.333H1156.25L1106.55 241.113H1088.98L1138.68 168.333ZM1099.22 194.485C1100.09 193.064 1100.52 190.763 1100.52 187.573C1100.52 184.382 1100.09 182.081 1099.22 180.66C1098.35 179.239 1097.26 178.528 1095.95 178.528C1094.63 178.528 1093.54 179.239 1092.67 180.66C1091.8 182.081 1091.37 184.382 1091.37 187.573C1091.37 190.763 1091.8 193.064 1092.67 194.485C1093.54 195.907 1094.63 196.617 1095.95 196.617C1097.26 196.617 1098.35 195.907 1099.22 194.485ZM1135.35 236.747C1131.75 233.142 1129.95 228.185 1129.95 221.881C1129.95 217.651 1130.78 214.012 1132.44 210.958C1134.1 207.911 1136.41 205.593 1139.35 203.995C1142.3 202.405 1145.61 201.609 1149.28 201.609C1152.95 201.609 1156.26 202.405 1159.21 203.995C1162.15 205.593 1164.46 207.911 1166.12 210.958C1167.79 214.012 1168.62 217.649 1168.62 221.881C1168.62 228.185 1166.82 233.142 1163.21 236.747C1159.61 240.35 1154.96 242.154 1149.28 242.154C1143.6 242.152 1138.95 240.35 1135.35 236.747ZM1152.56 228.793C1153.42 227.372 1153.86 225.071 1153.86 221.881C1153.86 218.69 1153.42 216.389 1152.56 214.968C1151.69 213.547 1150.6 212.836 1149.28 212.836C1147.96 212.836 1146.87 213.547 1146.01 214.968C1145.14 216.389 1144.71 218.69 1144.71 221.881C1144.71 225.071 1145.14 227.372 1146.01 228.793C1146.87 230.215 1147.96 230.925 1149.28 230.925C1150.6 230.925 1151.69 230.215 1152.56 228.793Z" fill="#BAB2DC"/>
<path d="M831.392 720C1037.07 720 1203.8 710.263 1203.8 698.252C1203.8 686.24 1037.07 676.503 831.392 676.503C625.717 676.503 458.984 686.24 458.984 698.252C458.984 710.263 625.717 720 831.392 720Z" fill="#F5F5F5"/>
<path d="M1139.66 232.856H530.347C516.328 232.856 504.965 244.221 504.965 258.238V644.327C504.965 658.347 516.33 669.71 530.347 669.71H611.219V657.34C611.219 653.7 614.17 650.75 617.809 650.75H1052.2C1055.84 650.75 1058.79 653.7 1058.79 657.34V669.71H1139.66C1153.68 669.71 1165.05 658.345 1165.05 644.327V258.238C1165.05 244.219 1153.68 232.856 1139.66 232.856Z" fill="#C0B5ED"/>
<path opacity="0.2" d="M1139.66 232.856H530.347C516.328 232.856 504.965 244.221 504.965 258.238V644.327C504.965 658.347 516.33 669.71 530.347 669.71H611.219V657.34C611.219 653.7 614.17 650.75 617.809 650.75H1052.2C1055.84 650.75 1058.79 653.7 1058.79 657.34V669.71H1139.66C1153.68 669.71 1165.05 658.345 1165.05 644.327V258.238C1165.05 244.219 1153.68 232.856 1139.66 232.856Z" fill="white"/>
<path d="M840.351 249.476C840.351 252.426 837.96 254.819 835.01 254.819C832.059 254.819 829.668 252.428 829.668 249.476C829.668 246.526 832.059 244.134 835.01 244.134C837.958 244.134 840.351 246.526 840.351 249.476Z" fill="#407BFF"/>
<path d="M1214.92 660.2H455.102V679.217H1214.92V660.2Z" fill="#6880E4"/>
<path opacity="0.5" d="M1214.92 660.2H455.102V679.217H1214.92V660.2Z" fill="white"/>
<path d="M455.102 679.219L466.862 688.64C474.618 694.854 484.26 698.238 494.198 698.238H1175.82C1185.76 698.238 1195.4 694.852 1203.16 688.64L1214.92 679.219H455.102Z" fill="#6880E4"/>
<path opacity="0.4" d="M762 660.822C762 665.73 765.98 669.71 770.887 669.71H899.14C904.047 669.71 908.027 665.732 908.027 660.822C908.027 660.609 907.979 660.409 907.964 660.2H762.063C762.048 660.409 762 660.609 762 660.822Z" fill="white"/>
<path d="M1135.38 271.718H532.91V614.61H1135.38V271.718Z" fill="#407BFF"/>
<path d="M1135.38 271.718H532.91V614.61H1135.38V271.718Z" fill="white"/>
<path d="M1048.36 326.558H613.02V340.964H1048.36V326.558Z" fill="#407BFF"/>
<g opacity="0.8">
<path d="M1048.36 326.558H613.02V340.964H1048.36V326.558Z" fill="white"/>
</g>
<path d="M1063.97 326.558H1048.37V340.964H1063.97V326.558Z" fill="#407BFF"/>
<g opacity="0.5">
<path d="M1063.97 326.558H1048.37V340.964H1063.97V326.558Z" fill="white"/>
</g>
<path d="M1135.38 271.718H532.91V288.002H1135.38V271.718Z" fill="#514E84"/>
<path d="M1092.06 279.86C1092.06 282.439 1089.97 284.531 1087.39 284.531C1084.81 284.531 1082.71 282.439 1082.71 279.86C1082.71 277.28 1084.81 275.189 1087.39 275.189C1089.97 275.189 1092.06 277.28 1092.06 279.86Z" fill="white"/>
<path d="M1109.99 279.86C1109.99 282.439 1107.9 284.531 1105.32 284.531C1102.74 284.531 1100.65 282.439 1100.65 279.86C1100.65 277.28 1102.74 275.189 1105.32 275.189C1107.9 275.189 1109.99 277.28 1109.99 279.86Z" fill="white"/>
<path d="M1127.93 279.86C1127.93 282.439 1125.84 284.531 1123.26 284.531C1120.68 284.531 1118.59 282.439 1118.59 279.86C1118.59 277.28 1120.68 275.189 1123.26 275.189C1125.84 275.189 1127.93 277.28 1127.93 279.86Z" fill="white"/>
<path d="M546.382 339.761C545.43 339.537 544.648 339.233 544.035 338.853L545.351 335.874C545.927 336.21 546.574 336.477 547.291 336.681C548.005 336.882 548.693 336.984 549.352 336.984C549.918 336.984 550.322 336.928 550.566 336.819C550.808 336.709 550.929 336.546 550.929 336.325C550.929 336.072 550.769 335.882 550.452 335.753C550.135 335.626 549.613 335.488 548.885 335.338C547.95 335.142 547.17 334.933 546.547 334.706C545.923 334.479 545.382 334.111 544.919 333.596C544.456 333.083 544.225 332.386 544.225 331.51C544.225 330.747 544.439 330.056 544.867 329.432C545.293 328.809 545.933 328.318 546.78 327.961C547.629 327.603 548.658 327.423 549.872 327.423C550.704 327.423 551.52 327.511 552.323 327.69C553.126 327.868 553.833 328.131 554.445 328.477L553.216 331.439C552.027 330.838 550.902 330.538 549.838 330.538C548.787 330.538 548.263 330.792 548.263 331.299C548.263 331.541 548.418 331.723 548.731 331.844C549.042 331.965 549.557 332.096 550.272 332.234C551.194 332.407 551.974 332.607 552.609 332.831C553.243 333.056 553.794 333.423 554.263 333.93C554.73 334.439 554.964 335.131 554.964 336.008C554.964 336.769 554.751 337.46 554.323 338.077C553.894 338.694 553.257 339.185 552.408 339.55C551.559 339.913 550.527 340.096 549.315 340.096C548.313 340.1 547.333 339.988 546.382 339.761Z" fill="#6880E4"/>
<path d="M558.635 330.869H555.086V327.699H566.274V330.869H562.725V339.823H558.637L558.635 330.869Z" fill="#6880E4"/>
<path d="M569.997 339.285C568.958 338.742 568.143 337.991 567.555 337.024C566.966 336.062 566.672 334.973 566.672 333.761C566.672 332.549 566.966 331.46 567.555 330.498C568.145 329.534 568.958 328.779 569.997 328.237C571.036 327.694 572.207 327.425 573.512 327.425C574.816 327.425 575.989 327.695 577.028 328.237C578.068 328.781 578.882 329.534 579.47 330.498C580.059 331.462 580.353 332.549 580.353 333.761C580.353 334.973 580.057 336.062 579.47 337.024C578.882 337.991 578.068 338.743 577.028 339.285C575.989 339.829 574.818 340.099 573.512 340.099C572.205 340.099 571.036 339.829 569.997 339.285ZM574.891 336.419C575.3 336.172 575.626 335.82 575.87 335.363C576.112 334.906 576.233 334.374 576.233 333.761C576.233 333.15 576.112 332.614 575.87 332.159C575.626 331.702 575.3 331.351 574.891 331.103C574.48 330.855 574.023 330.73 573.514 330.73C573.005 330.73 572.547 330.855 572.136 331.103C571.727 331.351 571.401 331.704 571.159 332.159C570.917 332.614 570.796 333.148 570.796 333.761C570.796 334.374 570.917 334.908 571.159 335.363C571.401 335.82 571.727 336.17 572.136 336.419C572.547 336.669 573.005 336.792 573.514 336.792C574.021 336.792 574.48 336.669 574.891 336.419Z" fill="#6880E4"/>
<path d="M587.039 336.775H585.931V339.823H581.844V327.699H587.681C588.801 327.699 589.776 327.886 590.608 328.254C591.44 328.623 592.079 329.155 592.531 329.847C592.98 330.54 593.207 331.349 593.207 332.271C593.207 333.139 593.011 333.894 592.617 334.541C592.225 335.188 591.659 335.701 590.921 336.083L593.466 339.825H589.102L587.039 336.775ZM588.666 331.224C588.39 330.976 587.973 330.851 587.42 330.851H585.931V333.692H587.42C587.975 333.692 588.39 333.567 588.666 333.319C588.943 333.072 589.081 332.722 589.081 332.271C589.083 331.821 588.945 331.472 588.666 331.224Z" fill="#6880E4"/>
<path d="M604.822 336.74V339.823H594.742V327.699H604.597V330.784H598.76V332.203H603.887V335.148H598.76V336.742L604.822 336.74Z" fill="#6880E4"/>
<path d="M1079.08 340.95C1079.08 342.099 1078.15 343.031 1077 343.031C1075.85 343.031 1074.92 342.099 1074.92 340.95C1074.92 339.802 1075.85 338.87 1077 338.87C1078.15 338.87 1079.08 339.8 1079.08 340.95Z" fill="#6880E4"/>
<path d="M1092.06 340.95C1092.06 342.099 1091.13 343.031 1089.98 343.031C1088.83 343.031 1087.9 342.099 1087.9 340.95C1087.9 339.802 1088.83 338.87 1089.98 338.87C1091.13 338.87 1092.06 339.8 1092.06 340.95Z" fill="#6880E4"/>
<path d="M1075.26 326.226L1073.85 321.735H1068.59V323.163H1072.8L1076.75 335.993H1090.57L1091.79 327.5L1075.26 326.226ZM1089.49 334.973L1077.71 334.844L1075.48 327.361L1090.44 328.462L1089.49 334.973Z" fill="#6880E4"/>
<path d="M1135.38 288.002H532.914V318.962H1135.38V288.002Z" fill="#407BFF"/>
<g opacity="0.7">
<path d="M1135.38 288.002H532.914V318.962H1135.38V288.002Z" fill="white"/>
</g>
<path d="M928.519 311.965H578.6C575.015 311.965 572.109 309.059 572.109 305.475V301.491C572.109 297.907 575.015 295.001 578.6 295.001H928.519C932.103 295.001 935.009 297.907 935.009 301.491V305.475C935.009 309.059 932.103 311.965 928.519 311.965Z" fill="#6880E4"/>
<path opacity="0.7" d="M928.519 311.965H578.6C575.015 311.965 572.109 309.059 572.109 305.475V301.491C572.109 297.907 575.015 295.001 578.6 295.001H928.519C932.103 295.001 935.009 297.907 935.009 301.491V305.475C935.009 309.059 932.103 311.965 928.519 311.965Z" fill="white"/>
<path d="M923.826 296.979L925.939 301.261L930.664 301.946L927.245 305.279L928.052 309.984L923.826 307.764L919.6 309.984L920.407 305.279L916.988 301.946L921.713 301.261L923.826 296.979Z" fill="#407BFF"/>
<path d="M554.985 294.601L545.648 303.938H548.384V312.362H561.589V303.938H564.324L554.985 294.601Z" fill="#407BFF"/>
<path d="M896.449 407.663H901.627C902.797 407.663 903.831 407.876 904.726 408.301C905.621 408.727 906.316 409.334 906.812 410.123C907.307 410.915 907.555 411.844 907.555 412.914C907.555 413.984 907.307 414.916 906.812 415.707C906.316 416.496 905.621 417.105 904.726 417.53C903.831 417.954 902.797 418.167 901.627 418.167H896.449V407.663ZM901.478 415.407C902.238 415.407 902.845 415.19 903.3 414.754C903.756 414.318 903.982 413.706 903.982 412.916C903.982 412.127 903.756 411.514 903.3 411.078C902.845 410.642 902.236 410.425 901.478 410.425H899.991V415.407H901.478Z" fill="#BAB2DC"/>
<path d="M917.43 414.852H911.728C911.847 415.161 912.048 415.4 912.327 415.565C912.607 415.73 912.957 415.813 913.377 415.813C913.739 415.813 914.04 415.768 914.286 415.676C914.53 415.586 914.799 415.43 915.089 415.211L916.86 416.998C916.059 417.877 914.864 418.319 913.274 418.319C912.283 418.319 911.414 418.137 910.663 417.772C909.914 417.407 909.334 416.898 908.923 416.249C908.512 415.597 908.309 414.868 908.309 414.057C908.309 413.237 908.512 412.503 908.917 411.86C909.321 411.214 909.878 410.711 910.583 410.352C911.288 409.991 912.081 409.812 912.961 409.812C913.79 409.812 914.549 409.977 915.235 410.308C915.92 410.638 916.466 411.124 916.871 411.764C917.276 412.403 917.48 413.17 917.48 414.059C917.476 414.107 917.461 414.372 917.43 414.852ZM912.119 412.405C911.889 412.595 911.739 412.866 911.67 413.216H914.311C914.242 412.876 914.092 412.609 913.861 412.413C913.631 412.219 913.341 412.121 912.991 412.121C912.638 412.121 912.35 412.217 912.119 412.405Z" fill="#BAB2DC"/>
<path d="M918.539 407.033H921.931V418.167H918.539V407.033Z" fill="#BAB2DC"/>
<path d="M923.653 408.812C923.276 408.487 923.09 408.074 923.09 407.573C923.09 407.073 923.276 406.66 923.653 406.334C924.027 406.009 924.519 405.846 925.13 405.846C925.75 405.846 926.246 406.002 926.614 406.311C926.985 406.62 927.169 407.021 927.169 407.511C927.169 408.032 926.983 408.46 926.614 408.794C926.244 409.13 925.75 409.297 925.13 409.297C924.521 409.299 924.029 409.136 923.653 408.812ZM923.436 409.96H926.828V418.169H923.436V409.96Z" fill="#BAB2DC"/>
<path d="M937.466 409.96L934.164 418.169H930.653L927.352 409.96H930.832L932.484 414.357L934.255 409.96H937.466Z" fill="#BAB2DC"/>
<path d="M946.454 414.852H940.751C940.87 415.161 941.072 415.4 941.35 415.565C941.631 415.73 941.98 415.813 942.401 415.813C942.762 415.813 943.063 415.768 943.309 415.676C943.553 415.586 943.822 415.43 944.112 415.211L945.883 416.998C945.082 417.877 943.887 418.319 942.297 418.319C941.306 418.319 940.438 418.137 939.687 417.772C938.938 417.407 938.358 416.898 937.947 416.249C937.536 415.597 937.332 414.868 937.332 414.057C937.332 413.237 937.534 412.503 937.941 411.86C938.344 411.214 938.901 410.711 939.606 410.352C940.311 409.991 941.104 409.812 941.984 409.812C942.814 409.812 943.572 409.977 944.258 410.308C944.944 410.638 945.489 411.124 945.893 411.764C946.298 412.403 946.502 413.17 946.502 414.059C946.5 414.107 946.484 414.372 946.454 414.852ZM941.141 412.405C940.91 412.595 940.761 412.866 940.691 413.216H943.332C943.263 412.876 943.111 412.609 942.883 412.413C942.652 412.219 942.362 412.121 942.013 412.121C941.661 412.121 941.371 412.217 941.141 412.405Z" fill="#BAB2DC"/>
<path d="M953.448 409.81V412.812C953.177 412.772 952.927 412.753 952.697 412.753C951.535 412.753 950.954 413.344 950.954 414.524V418.171H947.562V409.962H950.789V410.848C951.392 410.154 952.278 409.81 953.448 409.81Z" fill="#BAB2DC"/>
<path d="M963.771 409.96L960.394 418.334C959.964 419.404 959.428 420.155 958.788 420.586C958.149 421.016 957.363 421.231 956.432 421.231C955.971 421.231 955.508 421.164 955.043 421.027C954.578 420.893 954.209 420.714 953.941 420.495L955.066 418.169C955.235 418.3 955.429 418.404 955.644 418.484C955.859 418.565 956.067 418.605 956.267 418.605C956.637 418.605 956.916 418.496 957.108 418.275L953.656 409.962H957.137L958.833 414.359L960.557 409.962H963.771V409.96Z" fill="#BAB2DC"/>
<path d="M976.061 416.337H972.068L971.363 418.167H967.762L972.354 407.663H975.835L980.427 418.167H976.764L976.061 416.337ZM975.085 413.786L974.064 411.145L973.044 413.786H975.085Z" fill="#BAB2DC"/>
<path d="M989.899 407.033V418.167H986.672V417.491C986.181 418.041 985.432 418.317 984.421 418.317C983.701 418.317 983.038 418.144 982.432 417.799C981.826 417.453 981.346 416.955 980.991 416.306C980.636 415.655 980.457 414.906 980.457 414.055C980.457 413.204 980.636 412.457 980.991 411.812C981.346 411.166 981.826 410.671 982.432 410.327C983.038 409.981 983.701 409.808 984.421 409.808C985.332 409.808 986.025 410.043 986.507 410.513V407.033H989.899ZM986.192 415.25C986.442 414.966 986.567 414.568 986.567 414.057C986.567 413.548 986.442 413.152 986.192 412.872C985.943 412.591 985.622 412.451 985.23 412.451C984.84 412.451 984.519 412.591 984.27 412.872C984.02 413.152 983.893 413.548 983.893 414.057C983.893 414.568 984.018 414.966 984.27 415.25C984.519 415.534 984.84 415.678 985.23 415.678C985.622 415.676 985.943 415.534 986.192 415.25Z" fill="#BAB2DC"/>
<path d="M1000.48 407.033V418.167H997.253V417.491C996.761 418.041 996.012 418.317 995.001 418.317C994.281 418.317 993.619 418.144 993.012 417.799C992.407 417.453 991.926 416.955 991.573 416.306C991.218 415.655 991.039 414.906 991.039 414.055C991.039 413.204 991.218 412.457 991.573 411.812C991.926 411.166 992.409 410.671 993.012 410.327C993.617 409.981 994.281 409.808 995.001 409.808C995.912 409.808 996.607 410.043 997.087 410.513V407.033H1000.48ZM996.772 415.25C997.022 414.966 997.147 414.568 997.147 414.057C997.147 413.548 997.02 413.152 996.772 412.872C996.523 412.591 996.202 412.451 995.812 412.451C995.422 412.451 995.101 412.591 994.852 412.872C994.602 413.152 994.475 413.548 994.475 414.057C994.475 414.568 994.6 414.966 994.852 415.25C995.101 415.534 995.422 415.678 995.812 415.678C996.202 415.676 996.523 415.534 996.772 415.25Z" fill="#BAB2DC"/>
<path d="M1007.86 409.81V412.812C1007.59 412.772 1007.34 412.753 1007.11 412.753C1005.95 412.753 1005.37 413.344 1005.37 414.524V418.171H1001.98V409.962H1005.2V410.848C1005.8 410.154 1006.69 409.81 1007.86 409.81Z" fill="#BAB2DC"/>
<path d="M1017.43 414.852H1011.73C1011.85 415.161 1012.05 415.4 1012.33 415.565C1012.61 415.73 1012.96 415.813 1013.38 415.813C1013.74 415.813 1014.04 415.768 1014.29 415.676C1014.53 415.586 1014.8 415.43 1015.09 415.211L1016.86 416.998C1016.06 417.877 1014.87 418.319 1013.28 418.319C1012.29 418.319 1011.42 418.137 1010.67 417.772C1009.92 417.407 1009.34 416.898 1008.93 416.249C1008.52 415.597 1008.31 414.868 1008.31 414.057C1008.31 413.237 1008.51 412.503 1008.92 411.86C1009.33 411.214 1009.88 410.711 1010.59 410.352C1011.29 409.991 1012.08 409.812 1012.96 409.812C1013.79 409.812 1014.55 409.977 1015.24 410.308C1015.92 410.638 1016.47 411.124 1016.87 411.764C1017.28 412.403 1017.48 413.17 1017.48 414.059C1017.48 414.107 1017.46 414.372 1017.43 414.852ZM1012.12 412.405C1011.89 412.595 1011.74 412.866 1011.67 413.216H1014.31C1014.24 412.876 1014.09 412.609 1013.86 412.413C1013.63 412.219 1013.34 412.121 1012.99 412.121C1012.64 412.121 1012.35 412.217 1012.12 412.405Z" fill="#BAB2DC"/>
<path d="M1019.69 418.093C1019.01 417.943 1018.46 417.747 1018.04 417.509L1018.96 415.273C1019.35 415.503 1019.79 415.684 1020.32 415.813C1020.84 415.943 1021.34 416.008 1021.83 416.008C1022.22 416.008 1022.49 415.976 1022.65 415.911C1022.8 415.845 1022.88 415.747 1022.88 415.619C1022.88 415.488 1022.78 415.398 1022.59 415.348C1022.39 415.298 1022.08 415.248 1021.64 415.198C1020.97 415.117 1020.4 415.015 1019.93 414.891C1019.45 414.766 1019.04 414.524 1018.69 414.163C1018.33 413.802 1018.15 413.287 1018.15 412.616C1018.15 412.086 1018.31 411.612 1018.63 411.191C1018.96 410.771 1019.43 410.436 1020.07 410.187C1020.7 409.937 1021.47 409.812 1022.36 409.812C1022.98 409.812 1023.58 409.87 1024.18 409.985C1024.77 410.1 1025.28 410.267 1025.7 410.488L1024.77 412.724C1024.05 412.325 1023.26 412.123 1022.4 412.123C1021.66 412.123 1021.29 412.253 1021.29 412.513C1021.29 412.643 1021.39 412.736 1021.59 412.791C1021.79 412.847 1022.11 412.899 1022.54 412.949C1023.21 413.029 1023.77 413.133 1024.24 413.264C1024.7 413.394 1025.11 413.638 1025.47 413.999C1025.82 414.361 1026 414.875 1026 415.546C1026 416.057 1025.84 416.521 1025.52 416.942C1025.2 417.363 1024.72 417.697 1024.08 417.947C1023.44 418.196 1022.67 418.323 1021.76 418.323C1021.05 418.319 1020.37 418.244 1019.69 418.093Z" fill="#BAB2DC"/>
<path d="M1028.16 418.093C1027.48 417.943 1026.93 417.747 1026.51 417.509L1027.44 415.273C1027.82 415.503 1028.27 415.684 1028.79 415.813C1029.31 415.943 1029.82 416.008 1030.31 416.008C1030.7 416.008 1030.97 415.976 1031.13 415.911C1031.28 415.845 1031.36 415.747 1031.36 415.619C1031.36 415.488 1031.26 415.398 1031.07 415.348C1030.87 415.298 1030.55 415.248 1030.11 415.198C1029.44 415.117 1028.87 415.015 1028.4 414.891C1027.93 414.766 1027.52 414.524 1027.16 414.163C1026.81 413.802 1026.63 413.287 1026.63 412.616C1026.63 412.086 1026.79 411.612 1027.11 411.191C1027.43 410.771 1027.91 410.436 1028.55 410.187C1029.18 409.937 1029.94 409.812 1030.83 409.812C1031.45 409.812 1032.06 409.87 1032.66 409.985C1033.25 410.1 1033.76 410.267 1034.18 410.488L1033.25 412.724C1032.53 412.325 1031.74 412.123 1030.88 412.123C1030.14 412.123 1029.77 412.253 1029.77 412.513C1029.77 412.643 1029.87 412.736 1030.07 412.791C1030.27 412.847 1030.58 412.899 1031.01 412.949C1031.68 413.029 1032.25 413.133 1032.72 413.264C1033.18 413.394 1033.59 413.638 1033.95 413.999C1034.3 414.361 1034.48 414.875 1034.48 415.546C1034.48 416.057 1034.32 416.521 1034 416.942C1033.68 417.363 1033.2 417.697 1032.56 417.947C1031.92 418.196 1031.14 418.323 1030.23 418.323C1029.53 418.319 1028.84 418.244 1028.16 418.093Z" fill="#BAB2DC"/>
<path d="M1006.15 445.907H895.723V452.487H1006.15V445.907Z" fill="#BAB2DC"/>
<path d="M983.544 456.494H895.723V463.074H983.544V456.494Z" fill="#BAB2DC"/>
<path d="M1017.02 467.079H895.723V473.659H1017.02V467.079Z" fill="#BAB2DC"/>
<path d="M997.563 477.664H895.723V484.244H997.563V477.664Z" fill="#BAB2DC"/>
<path d="M1038.7 539.438H907.381C901.613 539.438 896.938 534.763 896.938 528.995V524.704C896.938 518.936 901.613 514.261 907.381 514.261H1038.7C1044.47 514.261 1049.14 518.936 1049.14 524.704V528.995C1049.14 534.763 1044.47 539.438 1038.7 539.438Z" fill="#BAB2DC"/>
<path d="M920.135 522.375C920.715 522.632 921.161 523.003 921.476 523.485C921.789 523.967 921.947 524.531 921.947 525.175C921.947 525.818 921.789 526.381 921.476 526.865C921.163 527.347 920.715 527.718 920.135 527.975C919.555 528.233 918.875 528.361 918.095 528.361H916.876V530.438H914.027V521.988H918.095C918.875 521.988 919.555 522.117 920.135 522.375ZM918.783 525.905C918.975 525.732 919.073 525.488 919.073 525.175C919.073 524.862 918.977 524.618 918.783 524.445C918.591 524.272 918.301 524.186 917.913 524.186H916.876V526.166H917.913C918.301 526.164 918.591 526.078 918.783 525.905Z" fill="white"/>
<path d="M928.343 524.493C928.954 525.012 929.259 525.811 929.259 526.89V530.44H926.724V529.571C926.411 530.23 925.787 530.561 924.853 530.561C924.331 530.561 923.885 530.47 923.52 530.29C923.153 530.109 922.877 529.863 922.687 529.554C922.498 529.245 922.402 528.895 922.402 528.509C922.402 527.858 922.652 527.363 923.151 527.025C923.651 526.687 924.408 526.518 925.42 526.518H926.518C926.43 526.003 926.015 525.745 925.274 525.745C924.976 525.745 924.675 525.792 924.369 525.884C924.064 525.976 923.803 526.103 923.586 526.264L922.715 524.466C923.094 524.234 923.551 524.049 924.085 523.917C924.619 523.784 925.153 523.717 925.685 523.717C926.847 523.713 927.732 523.975 928.343 524.493ZM926.196 528.759C926.348 528.653 926.461 528.498 926.534 528.288V527.829H925.858C925.303 527.829 925.024 528.014 925.024 528.384C925.024 528.538 925.082 528.665 925.199 528.765C925.316 528.865 925.474 528.915 925.675 528.915C925.869 528.917 926.042 528.865 926.196 528.759Z" fill="white"/>
<path d="M937.675 523.834L934.959 530.57C934.614 531.431 934.183 532.036 933.667 532.382C933.152 532.727 932.52 532.9 931.771 532.9C931.4 532.9 931.028 532.846 930.655 532.737C930.28 532.627 929.985 532.485 929.768 532.309L930.672 530.438C930.809 530.543 930.964 530.628 931.137 530.691C931.31 530.757 931.477 530.787 931.638 530.787C931.936 530.787 932.161 530.699 932.315 530.522L929.539 523.834H932.339L933.703 527.37L935.092 523.834H937.675Z" fill="white"/>
<path d="M948.748 524.451C949.226 524.943 949.466 525.682 949.466 526.671V530.438H946.739V527.142C946.739 526.385 946.493 526.007 946.003 526.007C945.746 526.007 945.539 526.103 945.381 526.295C945.225 526.489 945.147 526.794 945.147 527.213V530.436H942.419V527.14C942.419 526.383 942.173 526.005 941.684 526.005C941.426 526.005 941.219 526.101 941.061 526.293C940.904 526.487 940.825 526.792 940.825 527.211V530.434H938.098V523.83H940.693V524.445C941.182 523.955 941.807 523.709 942.563 523.709C943.005 523.709 943.405 523.792 943.758 523.957C944.111 524.122 944.401 524.374 944.626 524.712C944.891 524.391 945.214 524.144 945.592 523.971C945.971 523.798 946.386 523.711 946.835 523.711C947.632 523.713 948.27 523.959 948.748 524.451Z" fill="white"/>
<path d="M957.757 527.77H953.17C953.266 528.02 953.428 528.21 953.652 528.342C953.877 528.475 954.16 528.542 954.498 528.542C954.788 528.542 955.03 528.506 955.227 528.433C955.425 528.36 955.64 528.235 955.873 528.058L957.298 529.495C956.655 530.203 955.692 530.557 954.413 530.557C953.616 530.557 952.917 530.411 952.314 530.117C951.711 529.823 951.242 529.414 950.914 528.892C950.583 528.369 950.418 527.781 950.418 527.13C950.418 526.471 950.581 525.882 950.906 525.361C951.232 524.843 951.678 524.437 952.246 524.147C952.813 523.857 953.453 523.713 954.16 523.713C954.828 523.713 955.437 523.846 955.988 524.111C956.539 524.376 956.977 524.768 957.304 525.283C957.63 525.797 957.792 526.414 957.792 527.128C957.794 527.171 957.782 527.384 957.757 527.77ZM953.485 525.803C953.301 525.957 953.18 526.174 953.122 526.454H955.247C955.191 526.181 955.07 525.964 954.884 525.809C954.699 525.651 954.465 525.574 954.185 525.574C953.902 525.573 953.67 525.649 953.485 525.803Z" fill="white"/>
<path d="M965.202 524.451C965.698 524.943 965.945 525.682 965.945 526.671V530.438H963.218V527.142C963.218 526.385 962.947 526.007 962.409 526.007C962.104 526.007 961.856 526.112 961.668 526.325C961.48 526.539 961.384 526.875 961.384 527.334V530.436H958.656V523.832H961.251V524.483C961.508 524.226 961.806 524.032 962.144 523.903C962.482 523.775 962.849 523.709 963.243 523.709C964.052 523.713 964.707 523.959 965.202 524.451Z" fill="white"/>
<path d="M971.992 530.209C971.581 530.442 971.022 530.559 970.313 530.559C969.387 530.559 968.675 530.336 968.177 529.888C967.678 529.441 967.428 528.773 967.428 527.879V526.189H966.523V524.197H967.428V522.35H970.156V524.197H971.508V526.189H970.156V527.854C970.156 528.054 970.207 528.212 970.313 528.325C970.419 528.438 970.553 528.494 970.724 528.494C970.956 528.494 971.162 528.434 971.341 528.313L971.992 530.209Z" fill="white"/>
<path d="M983.927 530.438L983.902 526.587L982.068 529.677H980.812L978.978 526.719V530.436H976.383V521.987H978.724L981.477 526.489L984.156 521.987H986.497L986.522 530.436H983.927V530.438Z" fill="white"/>
<path d="M994.804 527.77H990.217C990.313 528.02 990.475 528.21 990.699 528.342C990.924 528.475 991.206 528.542 991.544 528.542C991.834 528.542 992.077 528.506 992.274 528.433C992.472 528.36 992.687 528.235 992.92 528.058L994.345 529.495C993.701 530.203 992.739 530.557 991.46 530.557C990.663 530.557 989.964 530.411 989.361 530.117C988.757 529.823 988.289 529.414 987.96 528.892C987.63 528.369 987.465 527.781 987.465 527.13C987.465 526.471 987.628 525.882 987.953 525.361C988.279 524.843 988.725 524.437 989.293 524.147C989.86 523.857 990.5 523.713 991.206 523.713C991.875 523.713 992.484 523.846 993.035 524.111C993.586 524.376 994.024 524.768 994.351 525.283C994.677 525.797 994.838 526.414 994.838 527.128C994.84 527.171 994.827 527.384 994.804 527.77ZM990.53 525.803C990.346 525.957 990.225 526.174 990.167 526.454H992.292C992.236 526.181 992.115 525.964 991.929 525.809C991.744 525.651 991.51 525.574 991.228 525.574C990.949 525.573 990.715 525.649 990.53 525.803Z" fill="white"/>
<path d="M1000.56 530.209C1000.15 530.442 999.59 530.559 998.883 530.559C997.958 530.559 997.245 530.336 996.747 529.888C996.248 529.441 995.998 528.773 995.998 527.879V526.189H995.094V524.197H995.998V522.35H998.726V524.197H1000.08V526.189H998.726V527.854C998.726 528.054 998.778 528.212 998.883 528.325C998.987 528.438 999.123 528.494 999.294 528.494C999.527 528.494 999.732 528.434 999.911 528.313L1000.56 530.209Z" fill="white"/>
<path d="M1007.8 524.451C1008.29 524.943 1008.54 525.682 1008.54 526.671V530.438H1005.81V527.142C1005.81 526.385 1005.54 526.007 1005 526.007C1004.7 526.007 1004.45 526.112 1004.26 526.325C1004.07 526.539 1003.98 526.875 1003.98 527.334V530.436H1001.25V521.479H1003.98V524.364C1004.48 523.93 1005.1 523.713 1005.84 523.713C1006.65 523.713 1007.3 523.959 1007.8 524.451Z" fill="white"/>
<path d="M1011.36 530.117C1010.77 529.823 1010.32 529.416 1009.99 528.897C1009.66 528.379 1009.49 527.789 1009.49 527.128C1009.49 526.47 1009.66 525.88 1009.99 525.359C1010.32 524.841 1010.78 524.436 1011.36 524.145C1011.94 523.855 1012.6 523.711 1013.33 523.711C1014.07 523.711 1014.73 523.855 1015.32 524.145C1015.9 524.436 1016.35 524.839 1016.68 525.359C1017.01 525.878 1017.17 526.468 1017.17 527.128C1017.17 527.789 1017 528.379 1016.68 528.897C1016.35 529.416 1015.9 529.823 1015.32 530.117C1014.73 530.411 1014.07 530.557 1013.33 530.557C1012.6 530.559 1011.94 530.411 1011.36 530.117ZM1014.1 528.089C1014.3 527.86 1014.4 527.539 1014.4 527.128C1014.4 526.717 1014.3 526.4 1014.1 526.176C1013.9 525.951 1013.64 525.838 1013.33 525.838C1013.02 525.838 1012.76 525.951 1012.56 526.176C1012.36 526.4 1012.26 526.719 1012.26 527.128C1012.26 527.539 1012.36 527.858 1012.56 528.089C1012.76 528.319 1013.02 528.433 1013.33 528.433C1013.64 528.434 1013.9 528.319 1014.1 528.089Z" fill="white"/>
<path d="M1025.33 521.481V530.438H1022.73V529.894C1022.34 530.336 1021.74 530.559 1020.92 530.559C1020.34 530.559 1019.81 530.42 1019.32 530.142C1018.83 529.863 1018.45 529.464 1018.16 528.941C1017.88 528.419 1017.73 527.814 1017.73 527.13C1017.73 526.446 1017.88 525.845 1018.16 525.327C1018.45 524.808 1018.83 524.409 1019.32 524.132C1019.81 523.853 1020.34 523.715 1020.92 523.715C1021.65 523.715 1022.21 523.903 1022.6 524.284V521.483H1025.33V521.481ZM1022.35 528.089C1022.55 527.86 1022.65 527.539 1022.65 527.128C1022.65 526.717 1022.55 526.4 1022.35 526.176C1022.14 525.951 1021.89 525.838 1021.57 525.838C1021.26 525.838 1021 525.951 1020.8 526.176C1020.6 526.4 1020.5 526.719 1020.5 527.128C1020.5 527.539 1020.6 527.858 1020.8 528.089C1021 528.319 1021.26 528.433 1021.57 528.433C1021.89 528.434 1022.14 528.319 1022.35 528.089Z" fill="white"/>
<path d="M883.515 369.419H694.371V379.065H883.515V369.419Z" fill="#BAB2DC"/>
<path d="M735.878 382.841H694.371V392.487H735.878V382.841Z" fill="#BAB2DC"/>
<path d="M751.397 396.263H694.371V405.909H751.397V396.263Z" fill="#BAB2DC"/>
<path d="M741.464 409.686H694.973V419.333H741.464V409.686Z" fill="#BAB2DC"/>
<path d="M676.886 419.331H641.907C637.783 419.331 634.441 415.989 634.441 411.866V376.887C634.441 372.763 637.783 369.421 641.907 369.421H676.886C681.009 369.421 684.351 372.763 684.351 376.887V411.866C684.353 415.989 681.009 419.331 676.886 419.331Z" fill="#BAB2DC"/>
<path opacity="0.2" d="M668.249 405.172H650.547C649.474 405.172 648.602 404.302 648.602 403.226V385.525C648.602 384.451 649.472 383.581 650.547 383.581H668.249C669.322 383.581 670.194 384.451 670.194 385.525V403.226C670.192 404.302 669.322 405.172 668.249 405.172Z" fill="white"/>
<path opacity="0.2" d="M665.88 396.264H658.597C657.675 396.264 656.926 395.516 656.926 394.592V387.309C656.926 386.387 657.673 385.638 658.597 385.638H665.88C666.802 385.638 667.551 386.385 667.551 387.309V394.592C667.551 395.514 666.804 396.264 665.88 396.264Z" fill="white"/>
<path d="M608.772 382.841H590.527V401.086H608.772V382.841Z" fill="#BAB2DC"/>
<path d="M592.422 393.304L597.568 399.125L607.859 384.774L596.863 395.445L592.422 393.304Z" fill="white"/>
<path d="M883.515 444.973H694.371V454.619H883.515V444.973Z" fill="#BAB2DC"/>
<path d="M735.878 458.393H694.371V468.039H735.878V458.393Z" fill="#BAB2DC"/>
<path d="M751.397 471.815H694.371V481.461H751.397V471.815Z" fill="#BAB2DC"/>
<path d="M741.464 485.237H694.973V494.885H741.464V485.237Z" fill="#BAB2DC"/>
<path d="M676.886 494.883H641.907C637.783 494.883 634.441 491.541 634.441 487.417V452.439C634.441 448.315 637.783 444.973 641.907 444.973H676.886C681.009 444.973 684.351 448.315 684.351 452.439V487.417C684.353 491.541 681.009 494.883 676.886 494.883Z" fill="#BAB2DC"/>
<path opacity="0.2" d="M668.249 480.724H650.547C649.474 480.724 648.602 479.854 648.602 478.778V461.077C648.602 460.003 649.472 459.133 650.547 459.133H668.249C669.322 459.133 670.194 460.003 670.194 461.077V478.778C670.192 479.854 669.322 480.724 668.249 480.724Z" fill="white"/>
<path opacity="0.2" d="M665.88 471.815H658.597C657.675 471.815 656.926 471.068 656.926 470.144V462.861C656.926 461.939 657.673 461.19 658.597 461.19H665.88C666.802 461.19 667.551 461.937 667.551 462.861V470.144C667.551 471.068 666.804 471.815 665.88 471.815Z" fill="white"/>
<path d="M608.772 458.393H590.527V476.638H608.772V458.393Z" fill="#BAB2DC"/>
<path d="M592.422 468.855L597.568 474.679L607.859 460.326L596.863 470.999L592.422 468.855Z" fill="white"/>
<path d="M883.515 520.525H694.371V530.171H883.515V520.525Z" fill="#BAB2DC"/>
<path d="M735.878 533.947H694.371V543.593H735.878V533.947Z" fill="#BAB2DC"/>
<path d="M751.397 547.367H694.371V557.013H751.397V547.367Z" fill="#BAB2DC"/>
<path d="M741.464 560.789H694.973V570.437H741.464V560.789Z" fill="#BAB2DC"/>
<path d="M676.886 570.435H641.907C637.783 570.435 634.441 567.093 634.441 562.969V527.991C634.441 523.867 637.783 520.525 641.907 520.525H676.886C681.009 520.525 684.351 523.867 684.351 527.991V562.969C684.353 567.093 681.009 570.435 676.886 570.435Z" fill="#BAB2DC"/>
<path opacity="0.2" d="M668.249 556.275H650.547C649.474 556.275 648.602 555.405 648.602 554.33V536.628C648.602 535.555 649.472 534.685 650.547 534.685H668.249C669.322 534.685 670.194 535.555 670.194 536.628V554.33C670.192 555.405 669.322 556.275 668.249 556.275Z" fill="white"/>
<path opacity="0.2" d="M665.88 547.367H658.597C657.675 547.367 656.926 546.62 656.926 545.696V538.413C656.926 537.491 657.673 536.742 658.597 536.742H665.88C666.802 536.742 667.551 537.489 667.551 538.413V545.696C667.551 546.62 666.804 547.367 665.88 547.367Z" fill="white"/>
<path d="M608.772 533.947H590.527V552.192H608.772V533.947Z" fill="#BAB2DC"/>
<path d="M592.422 544.409L597.568 550.231L607.859 535.879L596.863 546.551L592.422 544.409Z" fill="white"/>
<g opacity="0.2">
<path d="M457.589 68.3628H252.375V374.239H457.589V68.3628Z" fill="black"/>
</g>
<path d="M443.199 52.1384H237.984V358.012H443.199V52.1384Z" fill="#B5A7E9"/>
<g opacity="0.5">
<path d="M443.199 52.1384H237.984V358.012H443.199V52.1384Z" fill="white"/>
</g>
<path d="M443.212 52.1384H237.957V72.6057H443.212V52.1384Z" fill="#B5A7E9"/>
<path d="M436.576 62.2799C436.576 65.6392 433.852 68.3628 430.493 68.3628C427.134 68.3628 424.41 65.6392 424.41 62.2799C424.41 58.9205 427.134 56.1969 430.493 56.1969C433.852 56.1969 436.576 58.9205 436.576 62.2799Z" fill="white"/>
<path d="M406.975 336.106H276.468C264.277 336.106 254.395 326.224 254.395 314.033C254.395 301.842 264.277 291.96 276.468 291.96H406.975C419.166 291.96 429.048 301.842 429.048 314.033C429.048 326.224 419.166 336.106 406.975 336.106Z" fill="url(#paint1_linear_651_774)"/>
<path d="M272.166 321.728C270.683 320.954 269.519 319.87 268.678 318.478C267.835 317.085 267.414 315.506 267.414 313.737C267.414 311.97 267.835 310.391 268.678 308.999C269.519 307.606 270.683 306.523 272.166 305.747C273.649 304.973 275.318 304.585 277.168 304.585C278.869 304.585 280.385 304.885 281.72 305.484C283.055 306.085 284.153 306.951 285.021 308.085L281.295 311.411C280.212 310.044 278.937 309.36 277.469 309.36C276.236 309.36 275.243 309.756 274.494 310.547C273.743 311.338 273.368 312.402 273.368 313.735C273.368 315.07 273.743 316.133 274.494 316.924C275.243 317.715 276.236 318.111 277.469 318.111C278.937 318.111 280.212 317.429 281.295 316.061L285.021 319.388C284.155 320.521 283.055 321.39 281.72 321.989C280.385 322.59 278.869 322.89 277.168 322.89C275.316 322.89 273.649 322.504 272.166 321.728Z" fill="white"/>
<path d="M303.975 304.985V322.49H298.072V316.037H292.621V322.49H286.719V304.985H292.621V311.187H298.072V304.985H303.975Z" fill="white"/>
<path d="M321.383 318.038V322.49H306.828V304.985H321.059V309.435H312.631V311.486H320.033V315.737H312.631V318.038H321.383Z" fill="white"/>
<path d="M327.709 321.728C326.224 320.954 325.062 319.87 324.221 318.478C323.378 317.085 322.957 315.507 322.957 313.738C322.957 311.97 323.378 310.392 324.221 308.999C325.062 307.607 326.226 306.523 327.709 305.747C329.192 304.973 330.861 304.585 332.71 304.585C334.412 304.585 335.928 304.885 337.263 305.484C338.598 306.085 339.696 306.952 340.564 308.085L336.838 311.412C335.755 310.044 334.479 309.36 333.012 309.36C331.779 309.36 330.788 309.756 330.037 310.547C329.286 311.339 328.911 312.403 328.911 313.736C328.911 315.07 329.286 316.133 330.037 316.924C330.788 317.715 331.779 318.111 333.012 318.111C334.479 318.111 335.755 317.429 336.838 316.062L340.564 319.388C339.698 320.522 338.598 321.39 337.263 321.989C335.93 322.59 334.412 322.89 332.71 322.89C330.861 322.89 329.194 322.504 327.709 321.728Z" fill="white"/>
<path d="M349.392 316.688L348.066 318.163V322.49H342.266V304.985H348.066V311.337L353.819 304.985H360.246L353.243 312.687L360.595 322.49H353.769L349.392 316.688Z" fill="white"/>
<path d="M364.872 321.714C363.372 320.931 362.197 319.843 361.346 318.451C360.495 317.058 360.07 315.487 360.07 313.736C360.07 311.986 360.495 310.415 361.346 309.022C362.197 307.63 363.372 306.542 364.872 305.759C366.372 304.975 368.064 304.583 369.949 304.583C371.833 304.583 373.525 304.975 375.025 305.759C376.525 306.542 377.701 307.63 378.552 309.022C379.402 310.415 379.827 311.986 379.827 313.736C379.827 315.487 379.402 317.058 378.552 318.451C377.703 319.843 376.527 320.931 375.025 321.714C373.525 322.498 371.831 322.89 369.949 322.89C368.064 322.89 366.372 322.498 364.872 321.714ZM371.937 317.577C372.528 317.218 372.999 316.711 373.35 316.052C373.7 315.393 373.875 314.623 373.875 313.738C373.875 312.854 373.7 312.084 373.35 311.425C372.999 310.766 372.528 310.257 371.937 309.9C371.345 309.541 370.682 309.362 369.949 309.362C369.215 309.362 368.552 309.541 367.961 309.9C367.369 310.257 366.898 310.766 366.547 311.425C366.197 312.084 366.023 312.854 366.023 313.738C366.023 314.621 366.197 315.393 366.547 316.052C366.897 316.711 367.369 317.22 367.961 317.577C368.552 317.934 369.215 318.115 369.949 318.115C370.682 318.113 371.345 317.934 371.937 317.577Z" fill="white"/>
<path d="M384.075 320.715C382.575 319.265 381.824 317.231 381.824 314.613V304.985H387.727V314.439C387.727 315.722 387.955 316.655 388.414 317.239C388.873 317.823 389.536 318.115 390.402 318.115C391.268 318.115 391.931 317.825 392.39 317.239C392.847 316.655 393.078 315.722 393.078 314.439V304.985H398.88V314.613C398.88 317.231 398.129 319.265 396.629 320.715C395.129 322.168 393.036 322.892 390.352 322.892C387.669 322.89 385.577 322.166 384.075 320.715Z" fill="white"/>
<path d="M405.134 309.562H400.008V304.987H416.163V309.562H411.037V322.492H405.134V309.562Z" fill="white"/>
<path d="M280.264 133.114H272.512V126.194H296.941V133.114H289.189V152.667H280.264V133.114Z" fill="#BAB2DC"/>
<path d="M301.651 151.665C299.823 150.745 298.392 149.469 297.361 147.846C296.327 146.219 295.809 144.374 295.809 142.305C295.809 140.238 296.325 138.393 297.361 136.766C298.392 135.139 299.825 133.873 301.651 132.965C303.478 132.058 305.541 131.603 307.834 131.603C310.153 131.603 312.229 132.056 314.055 132.965C315.884 133.873 317.309 135.139 318.329 136.766C319.351 138.393 319.86 140.238 319.86 142.305C319.86 144.374 319.351 146.219 318.329 147.846C317.309 149.471 315.884 150.745 314.055 151.665C312.227 152.585 310.153 153.046 307.834 153.046C305.541 153.044 303.48 152.585 301.651 151.665ZM310.256 145.311C310.886 144.593 311.203 143.59 311.203 142.305C311.203 141.02 310.886 140.025 310.256 139.318C309.624 138.611 308.82 138.26 307.836 138.26C306.853 138.26 306.046 138.611 305.416 139.318C304.788 140.025 304.471 141.02 304.471 142.305C304.471 143.592 304.786 144.593 305.416 145.311C306.046 146.029 306.853 146.389 307.836 146.389C308.818 146.387 309.624 146.029 310.256 145.311Z" fill="#BAB2DC"/>
<path d="M337.785 151.947C336.498 152.677 334.745 153.044 332.528 153.044C329.63 153.044 327.398 152.343 325.834 150.944C324.271 149.544 323.489 147.447 323.489 144.648V139.353H320.652V133.112H323.489V127.327H332.035V133.112H336.272V139.353H332.035V144.573C332.035 145.203 332.2 145.695 332.526 146.047C332.855 146.4 333.281 146.577 333.811 146.577C334.543 146.577 335.185 146.387 335.742 146.01L337.785 151.947Z" fill="#BAB2DC"/>
<path d="M357.526 134.04C359.441 135.667 360.399 138.168 360.399 141.548V152.665H352.457V149.944C351.474 152.01 349.52 153.044 346.595 153.044C344.957 153.044 343.564 152.76 342.418 152.193C341.269 151.624 340.401 150.858 339.807 149.886C339.216 148.916 338.918 147.823 338.918 146.615C338.918 144.573 339.7 143.023 341.263 141.963C342.827 140.905 345.197 140.375 348.374 140.375H351.816C351.537 138.761 350.241 137.955 347.919 137.955C346.985 137.955 346.042 138.099 345.082 138.391C344.123 138.681 343.305 139.076 342.625 139.581L339.901 133.946C341.086 133.214 342.517 132.642 344.194 132.225C345.869 131.808 347.542 131.601 349.203 131.601C352.836 131.601 355.607 132.415 357.526 134.04ZM350.794 147.408C351.272 147.08 351.625 146.59 351.852 145.933V144.499H349.736C347.995 144.499 347.125 145.079 347.125 146.237C347.125 146.717 347.31 147.115 347.675 147.428C348.04 147.743 348.537 147.9 349.167 147.9C349.774 147.9 350.316 147.737 350.794 147.408Z" fill="#BAB2DC"/>
<path d="M364.105 124.606H372.653V152.665H364.105V124.606Z" fill="#BAB2DC"/>
<path d="M323.041 191.942H262.93V198.559H323.041V191.942Z" fill="#BAB2DC"/>
<path d="M306.586 175.697H262.93V182.314H306.586V175.697Z" fill="#263238"/>
<path d="M334.356 209.586H262.93V216.203H334.356V209.586Z" fill="#BAB2DC"/>
<path d="M414.899 209.586H381.828V216.203H414.899V209.586Z" fill="#BAB2DC"/>
<path d="M313.643 236.244H262.93V242.861H313.643V236.244Z" fill="#BAB2DC"/>
<path d="M90.5261 269.619C84.3664 269.619 78.4832 275.169 74.8588 285.488C71.2344 295.806 73.8504 310.787 74.3556 317.852C74.8588 324.914 71.2344 335.202 71.2344 335.202C79.5991 328.374 85.2826 319.775 86.2429 308.052C87.2744 312.762 86.6655 317.485 85.3997 322.214C85.3997 322.214 92.1684 316.941 96.7762 306.374C101.384 295.806 100.865 280.803 100.865 280.803C100.865 280.803 96.6859 269.619 90.5261 269.619Z" fill="#263238"/>
<path d="M86.0755 282.182C85.8373 287.589 87.9828 297.527 101.261 288.622C114.539 279.718 98.9559 274.311 92.5944 275.584C86.233 276.856 86.0755 282.182 86.0755 282.182Z" fill="#407BFF"/>
<path d="M92.469 282.753C90.7595 293.785 96.0435 303.919 99.2645 317.095C102.486 330.271 99.7658 333.214 99.7658 333.214C99.7658 333.214 127.881 328.802 142.508 302.83C157.134 276.858 130.728 259.781 114.471 264.836C106.46 260.827 94.1343 271.996 92.469 282.753Z" fill="#263238"/>
<path d="M160.779 346.108C160.934 347.589 161.165 349.394 161.382 351.067C161.606 352.771 161.868 354.478 162.15 356.184C162.718 359.593 163.356 362.993 164.076 366.369C164.801 369.744 165.655 373.075 166.562 376.38C167.532 379.657 168.544 382.924 169.752 386.076L170.198 387.263L170.421 387.858L170.595 388.279C170.691 388.538 170.816 388.815 170.974 389.107C171.104 389.391 171.266 389.687 171.448 389.991C172.134 391.199 172.998 392.487 173.966 393.755C175.935 396.29 178.201 398.855 180.623 401.319C185.441 406.271 190.755 411.14 196.037 415.807L191.881 422.047C185.201 418.54 178.966 414.599 172.941 409.931C169.956 407.575 167.009 405.08 164.232 402.135C162.843 400.654 161.472 399.081 160.189 397.247C159.868 396.796 159.553 396.321 159.248 395.81C158.938 395.324 158.637 394.802 158.351 394.239L157.936 393.436L157.629 392.779L157.016 391.464C153.722 384.449 151.327 377.168 149.439 369.813C148.52 366.129 147.719 362.424 147.097 358.685C146.792 356.814 146.508 354.939 146.264 353.049C146.002 351.13 145.826 349.333 145.68 347.204L160.779 346.108Z" fill="#FFB7D6"/>
<path d="M155.532 331.948C160.639 333.248 164.213 354.267 164.213 354.267L150.138 363.838C150.138 363.838 136.643 342.633 140.573 337.019C144.664 331.172 148.079 330.05 155.532 331.948Z" fill="#B5A7E9"/>
<g opacity="0.5">
<path d="M155.532 331.948C160.639 333.248 164.213 354.267 164.213 354.267L150.138 363.838C150.138 363.838 136.643 342.633 140.573 337.019C144.664 331.172 148.079 330.05 155.532 331.948Z" fill="white"/>
</g>
<path opacity="0.2" d="M155.075 336.642L158.999 357.828L157.009 359.188V360.523C156.869 368.338 155.578 376.29 153.98 384.278L150.769 375.735L147.93 364.61L151.087 363.192L155.075 336.642Z" fill="black"/>
<path d="M198.388 416.101L207.946 419.821L197.157 426.334C197.157 426.334 190.269 422.351 190.437 417.201L191.501 416.598C193.606 415.406 196.135 415.223 198.388 416.101Z" fill="#FFB7D6"/>
<path d="M213.888 426.868L205.769 433.631L197.16 426.334L207.947 419.819L213.888 426.868Z" fill="#FFB7D6"/>
<path d="M155.528 331.948C155.528 331.948 161.433 334.028 149.607 406.743C129.635 406.743 108.993 406.743 99.276 406.743C100.121 386.259 100.302 373.611 90.5117 331.572C90.5117 331.572 100.899 329.294 111.726 328.773C120.197 328.366 127.134 328.095 134.581 328.773C144.396 329.67 155.528 331.948 155.528 331.948Z" fill="#B5A7E9"/>
<g opacity="0.4">
<path d="M155.528 331.948C155.528 331.948 161.433 334.028 149.607 406.743C129.635 406.743 108.993 406.743 99.276 406.743C100.121 386.259 100.302 373.611 90.5117 331.572C90.5117 331.572 100.899 329.294 111.726 328.773C120.197 328.366 127.134 328.095 134.581 328.773C144.396 329.67 155.528 331.948 155.528 331.948Z" fill="white"/>
</g>
<path opacity="0.2" d="M96.0771 357.398L100.748 358.777L102.364 355.344C102.364 355.344 128.484 364.383 139.852 360.041C147.192 357.238 149.784 354.401 149.784 354.401L94.6289 350.36L96.0771 357.398Z" fill="black"/>
<path d="M115.73 685.723H128.123L133.196 657.023H120.803L115.73 685.723Z" fill="#FFB573"/>
<path d="M129.08 684.288H115.156C114.649 684.288 114.238 684.64 114.167 685.135L112.581 696.15C112.416 697.293 113.399 698.375 114.567 698.354C119.42 698.269 121.76 697.985 127.883 697.985C131.65 697.985 142.469 698.377 147.67 698.377C152.758 698.377 153.15 693.233 150.984 692.768C141.272 690.68 134.421 687.799 131.15 685.051C130.561 684.555 129.821 684.288 129.08 684.288Z" fill="#263238"/>
<g opacity="0.2">
<path d="M133.19 657.031L130.578 671.824H118.18L120.794 657.031H133.19Z" fill="black"/>
</g>
<path d="M111.738 328.781C120.209 328.364 127.142 328.093 134.589 328.781C135.087 328.829 135.582 328.877 136.078 328.925C137.902 332.384 138.367 337.701 133.996 345.499C133.996 345.499 113.947 337.428 108.727 328.973C109.721 328.892 110.73 328.829 111.738 328.781Z" fill="#FFB7D6"/>
<path d="M149.613 406.745C149.613 406.745 159.387 502.209 158.575 539.999C157.73 579.309 133.279 668.961 133.279 668.961H116.52C116.52 668.961 129.218 581.606 127.737 542.999C126.122 500.912 112.754 406.743 112.754 406.743H149.613V406.745Z" fill="#263238"/>
<path opacity="0.3" d="M149.613 406.745C149.613 406.745 159.387 502.209 158.575 539.999C157.73 579.309 133.279 668.961 133.279 668.961H116.52C116.52 668.961 129.218 581.606 127.737 542.999C126.122 500.912 112.754 406.743 112.754 406.743H149.613V406.745Z" fill="#263238"/>
<path d="M115.067 669.562H134.727L136.17 663.289L114.152 662.522L115.067 669.562Z" fill="#263238"/>
<path opacity="0.2" d="M127.901 430.497C140.263 455.364 130.382 500.73 126.011 517.609C123.769 492.26 119.989 461.274 117.043 438.52C118.918 425.645 122.202 419.03 127.901 430.497Z" fill="black"/>
<path d="M7.73828 574.883L11.9159 586.55L40.4694 581.16L36.2918 569.494L7.73828 574.883Z" fill="#FFB573"/>
<path d="M15.2882 586.924L14.3143 573.036C14.2798 572.531 13.8956 572.1 13.3924 571.999L2.19264 569.759C1.0306 569.527 0.0106935 570.443 0.112492 571.61C0.535052 576.458 0.986425 578.807 1.41475 584.915C1.67789 588.672 2.0409 599.442 2.40392 604.632C2.75925 609.706 7.96442 610.403 8.28134 608.271C9.7046 598.708 12.1266 592.047 14.6639 588.947C15.123 588.386 15.34 587.664 15.2882 586.924Z" fill="#263238"/>
<g opacity="0.2">
<path d="M40.4644 581.16L25.7459 583.94L21.5664 572.267L36.2849 569.488L40.4644 581.16Z" fill="black"/>
</g>
<path d="M135.688 406.745C135.688 406.745 121.953 505.257 112.626 542.323C102.924 580.878 30.6493 584.166 30.6493 584.166L23.293 569.11C23.293 569.11 65.4875 557.883 83.7094 532.506C91.5882 490.986 98.8313 406.743 98.8313 406.743H135.688V406.745Z" fill="#263238"/>
<path opacity="0.3" d="M135.688 406.745C135.688 406.745 121.953 505.257 112.626 542.323C102.924 580.878 30.6493 584.166 30.6493 584.166L23.293 569.11C23.293 569.11 65.4875 557.883 83.7094 532.506C91.5882 490.986 98.8313 406.743 98.8313 406.743H135.688V406.745Z" fill="#263238"/>
<path d="M22.4414 567.708L28.9008 586.279L35.5657 586.35L29.089 565.395L22.4414 567.708Z" fill="#263238"/>
<path d="M13.4312 591.436C13.5177 592.666 13.7885 593.81 14.4089 594.481C14.8026 594.905 15.3001 595.113 15.884 595.095C16.2336 595.084 16.4929 594.928 16.635 594.644C17.3668 593.18 14.4819 588.1 14.1496 587.528C14.0843 587.414 13.9575 587.345 13.8346 587.355C13.7116 587.364 13.6194 587.453 13.6022 587.574C13.4677 588.609 13.3352 590.074 13.4312 591.436ZM16.1663 593.793C16.1817 594.02 16.1625 594.204 16.0972 594.333C16.0396 594.45 15.9454 594.504 15.7899 594.507C15.3942 594.521 15.0773 594.39 14.8199 594.116C14.0862 593.326 13.825 591.285 14.0919 588.571C15.0331 590.315 16.0837 592.621 16.1663 593.793Z" fill="#407BFF"/>
<path d="M13.6022 587.627C13.6041 587.67 13.6157 587.71 13.6368 587.748C14.4108 589.262 17.3073 592.337 18.7037 592.191C19.034 592.157 19.4355 591.947 19.4604 591.14C19.4796 590.545 19.2703 589.988 18.8362 589.489C17.4206 587.858 14.044 587.374 13.8999 587.353C13.7943 587.339 13.6982 587.38 13.6425 587.46C13.6118 587.51 13.5984 587.568 13.6022 587.627ZM18.865 590.873C18.8688 590.931 18.8708 590.991 18.8688 591.048C18.8515 591.58 18.6384 591.601 18.5692 591.609C17.7298 591.696 15.4749 589.592 14.4512 588.035C15.4384 588.236 17.4821 588.768 18.4098 589.838C18.6902 590.163 18.84 590.501 18.865 590.873Z" fill="#407BFF"/>
<path d="M133.734 686.455C134.967 686.455 136.102 686.264 136.74 685.692C137.145 685.329 137.322 684.847 137.27 684.263C137.237 683.913 137.066 683.643 136.773 683.483C135.255 682.652 130.313 685.173 129.756 685.463C129.645 685.521 129.583 685.642 129.601 685.765C129.618 685.888 129.712 685.988 129.835 686.011C130.887 686.22 132.37 686.455 133.734 686.455ZM135.943 683.89C136.171 683.89 136.356 683.923 136.49 683.996C136.611 684.061 136.671 684.159 136.684 684.315C136.721 684.711 136.609 685.018 136.348 685.254C135.597 685.93 133.557 686.047 130.811 685.592C132.51 684.776 134.769 683.89 135.943 683.89Z" fill="#407BFF"/>
<path d="M129.89 686.017C129.933 686.017 129.973 686.009 130.011 685.99C131.488 685.323 134.412 682.65 134.181 681.246C134.128 680.913 133.891 680.498 133.079 680.418C132.48 680.356 131.93 680.527 131.454 680.925C129.896 682.223 129.61 685.558 129.598 685.7C129.591 685.803 129.637 685.903 129.721 685.963C129.771 685.997 129.831 686.017 129.89 686.017ZM132.845 680.992C132.902 680.992 132.962 680.994 133.021 681.002C133.557 681.055 133.592 681.271 133.603 681.34C133.741 682.183 131.757 684.284 130.252 685.197C130.396 684.225 130.809 682.225 131.83 681.372C132.138 681.119 132.472 680.992 132.845 680.992Z" fill="#407BFF"/>
<path d="M113.995 303.039C115.437 310.394 116.876 323.868 111.73 328.773C111.73 328.773 113.741 336.233 127.406 336.233C142.429 336.233 134.585 328.775 134.585 328.775C126.386 326.816 126.597 320.733 128.026 315.019L113.995 303.039Z" fill="#FFB7D6"/>
<path opacity="0.2" d="M119.713 307.927L128.016 315.013C127.674 316.365 127.407 317.737 127.311 319.07C124.179 318.616 119.876 315.178 119.542 311.898C119.377 310.261 119.446 308.688 119.713 307.927Z" fill="black"/>
<path d="M106.066 290.297C108.87 302.273 109.799 307.401 116.97 312.572C127.754 320.351 141.851 314.287 142.68 301.716C143.428 290.401 138.718 272.717 126.053 269.918C113.574 267.16 103.261 278.321 106.066 290.297Z" fill="#FFB7D6"/>
<path d="M111.016 279.493C115.355 282.818 113.455 294.882 108.073 298.581C99.6645 296.563 98.0665 269.569 111.016 279.493Z" fill="#263238"/>
<path d="M126.161 267.552C131.03 268.393 137.197 275.619 138.5 278.567C131.197 277.221 111.099 283.442 111.099 283.442C111.099 283.442 102.1 282.434 107.146 275.496C112.191 268.558 126.161 267.552 126.161 267.552Z" fill="#263238"/>
<path d="M104.674 301.952C105.936 304.167 108.104 305.592 110.135 306.114C113.189 306.898 114.648 304.151 113.744 301.305C112.929 298.743 110.361 295.249 107.323 295.727C104.328 296.196 103.23 299.419 104.674 301.952Z" fill="#FFB7D6"/>
<path d="M98.5272 403.791L97.2403 408.297C97.0636 408.647 97.4785 409.004 98.0605 409.004H149.861C150.314 409.004 150.69 408.781 150.719 408.497L151.172 403.991C151.203 403.678 150.811 403.414 150.314 403.414H99.3455C98.9728 403.413 98.6406 403.566 98.5272 403.791Z" fill="#FAFAFA"/>
<path d="M105.374 409.49H104.009C103.738 409.49 103.531 409.349 103.548 409.179L104.187 403.326C104.207 403.155 104.443 403.015 104.716 403.015H106.081C106.354 403.015 106.56 403.155 106.542 403.326L105.903 409.179C105.883 409.349 105.645 409.49 105.374 409.49Z" fill="#407BFF"/>
<g opacity="0.3">
<path d="M105.374 409.49H104.009C103.738 409.49 103.531 409.349 103.548 409.179L104.187 403.326C104.207 403.155 104.443 403.015 104.716 403.015H106.081C106.354 403.015 106.56 403.155 106.542 403.326L105.903 409.179C105.883 409.349 105.645 409.49 105.374 409.49Z" fill="black"/>
</g>
<path d="M146.027 409.49H144.661C144.388 409.49 144.183 409.349 144.2 409.179L144.84 403.326C144.859 403.155 145.097 403.015 145.368 403.015H146.734C147.006 403.015 147.212 403.155 147.195 403.326L146.555 409.179C146.536 409.349 146.3 409.49 146.027 409.49Z" fill="#407BFF"/>
<path opacity="0.3" d="M146.027 409.49H144.661C144.388 409.49 144.183 409.349 144.2 409.179L144.84 403.326C144.859 403.155 145.097 403.015 145.368 403.015H146.734C147.006 403.015 147.212 403.155 147.195 403.326L146.555 409.179C146.536 409.349 146.3 409.49 146.027 409.49Z" fill="black"/>
<path d="M125.699 409.49H124.333C124.06 409.49 123.855 409.349 123.872 409.179L124.512 403.326C124.531 403.155 124.767 403.015 125.04 403.015H126.406C126.678 403.015 126.884 403.155 126.867 403.326L126.227 409.179C126.21 409.349 125.971 409.49 125.699 409.49Z" fill="#407BFF"/>
<path opacity="0.3" d="M125.699 409.49H124.333C124.06 409.49 123.855 409.349 123.872 409.179L124.512 403.326C124.531 403.155 124.767 403.015 125.04 403.015H126.406C126.678 403.015 126.884 403.155 126.867 403.326L126.227 409.179C126.21 409.349 125.971 409.49 125.699 409.49Z" fill="black"/>
<path d="M198.849 312.387L189.284 321.824C187.909 323.18 185.694 323.165 184.338 321.789L180.456 317.856C179.1 316.48 179.116 314.266 180.491 312.91L190.056 303.473C191.431 302.117 193.646 302.133 195.002 303.508L198.884 307.442C200.24 308.817 200.224 311.031 198.849 312.387Z" fill="#B5A7E9"/>
<path opacity="0.4" d="M185.986 314.483L182.784 317.642C182.671 317.756 182.486 317.754 182.373 317.639C182.26 317.525 182.262 317.341 182.375 317.228L185.577 314.068C185.692 313.955 185.875 313.957 185.988 314.07C186.101 314.187 186.099 314.371 185.986 314.483Z" fill="white"/>
<path opacity="0.4" d="M192.896 303.35L189.694 306.51C189.579 306.623 189.397 306.621 189.283 306.508C189.17 306.395 189.172 306.21 189.285 306.097L192.487 302.937C192.6 302.824 192.785 302.826 192.898 302.939C193.011 303.053 193.011 303.237 192.896 303.35Z" fill="white"/>
<path opacity="0.4" d="M190.291 318.847L187.089 322.006C186.976 322.12 186.791 322.118 186.678 322.004C186.564 321.889 186.566 321.707 186.68 321.593L189.882 318.434C189.997 318.321 190.179 318.322 190.293 318.436C190.406 318.549 190.404 318.733 190.291 318.847Z" fill="white"/>
<path opacity="0.4" d="M184.633 317.835L183.792 318.666C183.677 318.78 183.494 318.778 183.381 318.662C183.268 318.549 183.27 318.365 183.383 318.251L184.224 317.42C184.339 317.306 184.524 317.308 184.635 317.423C184.748 317.537 184.747 317.721 184.633 317.835Z" fill="white"/>
<path opacity="0.2" d="M198.63 311.371L197.631 312.357C196.936 313.042 195.818 313.035 195.134 312.339C194.449 311.644 194.456 310.526 195.152 309.842L196.15 308.857C196.844 308.171 197.963 308.179 198.647 308.874C199.333 309.568 199.325 310.686 198.63 311.371Z" fill="black"/>
<path d="M95.974 334.704C98.9665 335.863 102.247 337.138 105.432 338.244C108.643 339.368 111.86 340.486 115.089 341.486C121.529 343.486 128.054 345.257 134.367 346.171L135.553 346.344L135.848 346.388C135.998 346.409 135.862 346.394 135.885 346.403C135.835 346.421 135.873 346.415 135.877 346.434C136.006 346.461 136.45 346.427 136.974 346.304C138.053 346.067 139.446 345.562 140.831 344.944C143.625 343.678 146.579 342.072 149.466 340.33C155.269 336.857 161.127 332.958 166.855 329.086L171.854 334.674C166.968 340.113 161.818 345.097 156.076 349.761C153.173 352.056 150.2 354.317 146.729 356.318C144.981 357.319 143.151 358.295 140.852 359.094C139.686 359.478 138.397 359.833 136.765 359.991C136.325 360.018 135.925 360.052 135.433 360.037L134.807 360.018L134.446 359.995L132.996 359.9C131.043 359.804 129.168 359.56 127.267 359.347C125.407 359.051 123.521 358.798 121.698 358.421C118.007 357.763 114.426 356.858 110.867 355.905C107.312 354.945 103.824 353.837 100.369 352.634C96.896 351.39 93.5597 350.187 90.0352 348.626L95.974 334.704Z" fill="#FFB7D6"/>
<path d="M166.422 329.699L173.974 318.643L177.349 330.786C177.349 330.786 171.66 336.35 166.746 334.804L166.422 329.699Z" fill="#FFB7D6"/>
<path d="M183.903 315.491L186.179 325.809L177.347 330.786L173.973 318.645L183.903 315.491Z" fill="#FFB7D6"/>
<path d="M79.9245 350.802C83.5835 354.595 99.512 356.946 99.512 356.946L109.582 335.108C109.582 335.108 94.9234 328.877 88.9192 332.18C82.6654 335.619 75.7488 346.473 79.9245 350.802Z" fill="#B5A7E9"/>
<g opacity="0.5">
<path d="M79.9245 350.802C83.5835 354.595 99.512 356.946 99.512 356.946L109.582 335.108C109.582 335.108 94.9234 328.877 88.9192 332.18C82.6654 335.619 75.7488 346.473 79.9245 350.802Z" fill="white"/>
</g>
<path d="M284.954 460.975L279.328 461.486C271.651 486.259 261.156 486.478 258.037 485.925C252.257 484.899 248.923 478.624 250.603 471.938C252.897 462.717 263.343 458.945 269.905 457.346C265.839 451.204 264.327 441.016 266.76 434.282C266.76 434.282 266.762 434.279 266.762 434.275C268.625 429.12 272.453 426.123 277.958 426.24C282.38 426.334 284.393 428.399 285.47 430.159C290.03 437.603 282.82 453.67 280.509 458.464L284.954 460.975ZM275.943 455.41C279.305 448.156 282.704 437.221 280.269 433.243C279.881 432.609 279.483 431.956 277.517 431.914C274.726 431.855 273.35 433.099 272.386 435.767L272.384 435.773C270.233 441.729 272.438 451.504 275.943 455.41ZM256.656 472.021C256.554 472.299 256.467 472.586 256.394 472.877C255.442 476.677 257.261 479.965 259.525 480.366C262.076 480.82 267.922 477.43 272.995 462.204C268.437 463.038 259.005 465.517 256.656 472.021Z" fill="#514E84"/>
<path d="M486.108 474.61L447.739 580.792L257.789 512.154L296.033 406.315L486.108 474.61Z" fill="#407BFF"/>
<path opacity="0.6" d="M486.108 474.61L447.739 580.792L257.789 512.154L296.033 406.315L486.108 474.61Z" fill="white"/>
<path d="M286.352 433.107L283.234 441.735L473.308 510.03L476.425 501.402L286.352 433.107Z" fill="#514E84"/>
<path d="M455.415 559.546L453.124 565.883L263.051 497.588L265.34 491.251L455.415 559.546Z" fill="#514E84"/>
<path opacity="0.2" d="M462.984 538.601L447.739 580.792L257.789 512.154L272.909 470.306L462.984 538.601Z" fill="black"/>
<path d="M334.064 488.512L332.047 484.198C310.204 485.209 307.022 476.949 306.568 474.318C305.727 469.441 309.747 465.001 315.528 464.417C323.498 463.593 329.483 470.797 332.629 475.541C336.334 470.557 343.98 466.439 350.017 466.439H350.023C354.644 466.439 358.117 468.615 359.602 473.014C360.794 476.548 359.732 478.734 358.647 480.094C354.051 485.842 339.244 484.728 334.78 484.269L334.064 488.512ZM335.894 479.773C342.609 480.359 352.255 479.923 354.709 476.851C355.101 476.362 355.505 475.858 354.974 474.287C354.222 472.057 352.842 471.324 350.449 471.324H350.443C345.106 471.324 337.988 475.874 335.894 479.773ZM317.196 469.238C316.946 469.238 316.694 469.251 316.441 469.276C313.154 469.608 311.069 471.994 311.399 473.905C311.772 476.058 316.134 479.721 329.661 479.381C327.694 476.006 323.027 469.238 317.196 469.238Z" fill="#514E84"/>
<path d="M380.885 547.027H285.695V481.636H380.577L380.885 547.027Z" fill="#407BFF"/>
<path opacity="0.4" d="M380.885 547.027H285.695V481.636H380.577L380.885 547.027Z" fill="white"/>
<path d="M356.563 481.636H348.828L349.134 547.027H356.868L356.563 481.636Z" fill="#514E84"/>
<path d="M304.741 547.027H299.059L298.754 481.636H304.433L304.741 547.027Z" fill="#514E84"/>
<path opacity="0.2" d="M323.518 547.027H285.695V481.636H323.211L323.518 547.027Z" fill="black"/>
<path d="M357.304 558.006C351.313 559.464 331.261 563.739 322.418 556.815C320.328 555.177 317.914 552.401 318.048 547.394C318.217 541.161 322.091 537.55 328.501 536.686C328.505 536.686 328.507 536.686 328.511 536.684C336.881 535.554 349.256 539.715 356.534 545.769C358.858 538.756 364.063 527.893 375.467 527.518C383.735 527.226 391.218 532.491 392.146 539.252C392.647 542.899 391.785 554.677 361.065 557.393L360.122 563.613L357.304 558.006ZM329.995 543.284L329.989 543.285C326.672 543.733 325.088 545.049 325.001 548.208C324.942 550.434 325.725 551.07 326.478 551.66C331.201 555.357 344.752 554.097 353.81 552.048C349.233 547.16 337.398 542.285 329.995 543.284ZM362.302 550.432C381.206 548.364 385.679 542.588 385.27 539.603C384.907 536.955 380.991 534.114 376.291 534.279C375.928 534.293 375.574 534.321 375.228 534.369C367.144 535.458 363.577 545.494 362.302 550.432Z" fill="#514E84"/>
<path d="M417.018 542.403L297.094 558.582L303.008 602.422L422.933 586.243L417.018 542.403Z" fill="#407BFF"/>
<path opacity="0.4" d="M417.018 542.403L297.094 558.582L303.008 602.422L422.933 586.243L417.018 542.403Z" fill="white"/>
<path opacity="0.2" d="M417.018 542.401L369.367 548.83L375.282 592.67L422.933 586.241L417.018 542.401Z" fill="white"/>
<path d="M337.103 553.178L327.359 554.492L333.274 598.332L343.018 597.018L337.103 553.178Z" fill="#514E84"/>
<path d="M400.18 544.675L393.023 545.641L398.938 589.481L406.095 588.515L400.18 544.675Z" fill="#514E84"/>
<path d="M255.739 475.459L252.989 477.823C244.633 457.383 234.052 441.347 217.688 436.756L220.438 434.392C236.042 438.468 246.925 454.373 255.739 475.459Z" fill="#514E84"/>
<path opacity="0.5" d="M255.739 475.459L252.989 477.823C244.633 457.383 234.052 441.347 217.688 436.756L220.438 434.392C236.042 438.468 246.925 454.373 255.739 475.459Z" fill="white"/>
<path d="M245.036 475.649L241.289 478.38C233.385 462.394 234.336 454.195 214.641 441.816L218.388 439.086C237.987 452.378 237.987 460.575 245.036 475.649Z" fill="#514E84"/>
<path opacity="0.5" d="M245.036 475.649L241.289 478.38C233.385 462.394 234.336 454.195 214.641 441.816L218.388 439.086C237.987 452.378 237.987 460.575 245.036 475.649Z" fill="white"/>
<path d="M485.076 475.561H241.431C238.003 475.561 235.723 479.104 237.144 482.224L293.685 606.343C294.557 608.256 296.589 609.359 298.667 609.049L476.83 582.459C478.977 582.138 480.627 580.392 480.825 578.229L489.766 480.703C490.019 477.942 487.847 475.561 485.076 475.561ZM484.428 483.303L475.866 576.716C475.676 578.786 474.095 580.459 472.038 580.767L301.393 606.235C299.403 606.533 297.455 605.475 296.622 603.644L242.467 484.763C241.105 481.776 243.289 478.38 246.573 478.38H479.936C482.59 478.378 484.67 480.66 484.428 483.303Z" fill="#514E84"/>
<path d="M312.69 606.285H309.144L251.242 475.561H254.788L312.69 606.285Z" fill="#514E84"/>
<path d="M328.643 603.773H325.097L269.73 475.561H273.276L328.643 603.773Z" fill="#514E84"/>
<path d="M343.413 601.263H339.869L292.051 475.561H295.595L343.413 601.263Z" fill="#514E84"/>
<path d="M359.219 598.604H355.673L312.691 475.561H316.235L359.219 598.604Z" fill="#514E84"/>
<path d="M373.546 596.684H370.001L334.254 475.561H337.8L373.546 596.684Z" fill="#514E84"/>
<path d="M389.726 594.321H386.18L354.496 475.561H358.042L389.726 594.321Z" fill="#514E84"/>
<path d="M404.974 591.513H401.429L375.32 475.561H378.866L404.974 591.513Z" fill="#514E84"/>
<path d="M420.959 589.74H417.416L396.441 475.561H399.985L420.959 589.74Z" fill="#514E84"/>
<path d="M436.178 587.821H432.633L418.156 475.561H421.702L436.178 587.821Z" fill="#514E84"/>
<path d="M451.391 585.015H447.847L439.352 475.561H442.895L451.391 585.015Z" fill="#514E84"/>
<path d="M467.045 583.538H463.5L461.281 475.561H464.825L467.045 583.538Z" fill="#514E84"/>
<path d="M484.445 512.784V516.33L258.184 526.521V522.976L484.445 512.784Z" fill="#514E84"/>
<path d="M481.596 549.908V553.454L279.898 575.487V571.943L481.596 549.908Z" fill="#514E84"/>
<path d="M312.693 685.494C312.693 692.511 307.005 698.198 299.989 698.198C292.972 698.198 287.285 692.511 287.285 685.494C287.285 678.478 292.972 672.791 299.989 672.791C307.005 672.791 312.693 678.478 312.693 685.494Z" fill="#407BFF"/>
<path d="M309.662 685.419C309.662 685.419 307.889 691.623 301.244 691.623C294.596 691.623 293.711 685.419 293.711 685.419L289.754 661.268H322.07L318.146 674.694C317.873 675.629 317.401 676.494 316.763 677.229L309.662 685.419Z" fill="#514E84"/>
<path opacity="0.3" d="M309.662 685.419C309.662 685.419 307.889 691.623 301.244 691.623C294.596 691.623 293.711 685.419 293.711 685.419L289.754 661.268H322.07L318.146 674.694C317.873 675.629 317.401 676.494 316.763 677.229L309.662 685.419Z" fill="white"/>
<path d="M434.289 685.494C434.289 692.511 439.976 698.198 446.993 698.198C454.009 698.198 459.696 692.511 459.696 685.494C459.696 678.478 454.009 672.791 446.993 672.791C439.976 672.791 434.289 678.478 434.289 685.494Z" fill="#407BFF"/>
<path d="M437.316 685.419C437.316 685.419 439.089 691.623 445.737 691.623C452.384 691.623 453.27 685.419 453.27 685.419L457.226 661.268H424.91L428.834 674.694C429.107 675.629 429.579 676.494 430.217 677.229L437.316 685.419Z" fill="#514E84"/>
<path opacity="0.3" d="M437.316 685.419C437.316 685.419 439.089 691.623 445.737 691.623C452.384 691.623 453.27 685.419 453.27 685.419L457.226 661.268H424.91L428.834 674.694C429.107 675.629 429.579 676.494 430.217 677.229L437.316 685.419Z" fill="white"/>
<path opacity="0.6" d="M485.074 475.561H464.825H461.28H442.892H439.347H421.697H418.152H399.983H396.438H378.861H375.316H358.033H354.487H337.796H334.25H316.23H312.684H295.59H292.044H273.271H269.726H254.782H251.237H241.424C237.995 475.561 235.715 479.104 237.137 482.224L293.677 606.343C294.549 608.256 296.581 609.359 298.659 609.049L476.822 582.459C478.969 582.138 480.619 580.392 480.817 578.229L489.758 480.703C490.017 477.942 487.845 475.561 485.074 475.561ZM479.934 478.378C482.588 478.378 484.668 480.658 484.426 483.301L481.712 512.905L465.609 513.631L464.885 478.378H479.934ZM261.422 526.375L273.509 525.83L293.285 570.479L282.07 571.705L261.422 526.375ZM276.984 525.674L291.096 525.039L309.934 568.66L296.666 570.11L276.984 525.674ZM428.489 555.711L414.98 557.186L408.106 519.768L423.764 519.063L428.489 555.711ZM427.288 518.904L442.66 518.21L445.428 553.859L431.987 555.327L427.288 518.904ZM411.506 557.566L397.669 559.078L389.012 520.629L404.593 519.928L411.506 557.566ZM394.208 559.454L380.809 560.918L370.285 521.472L385.501 520.786L394.208 559.454ZM377.365 561.294L363.549 562.804L351.6 522.313L366.786 521.629L377.365 561.294ZM360.113 563.179L347.331 564.575L332.862 523.156L348.099 522.471L360.113 563.179ZM343.915 564.949L330.169 566.451L314.023 524.007L329.372 523.316L343.915 564.949ZM326.767 566.822L313.32 568.291L294.574 524.883L310.537 524.165L326.767 566.822ZM311.396 572.047L324.66 602.763L311.968 604.657L298.164 573.493L311.396 572.047ZM314.782 571.676L328.062 570.226L339.592 600.533L327.993 602.263L314.782 571.676ZM331.465 569.853L345.11 568.363L355.519 598.155L342.947 600.032L331.465 569.853ZM348.523 567.99L361.127 566.613L369.807 596.023L358.888 597.654L348.523 567.99ZM364.561 566.238L378.283 564.74L385.985 593.609L373.201 595.516L364.561 566.238ZM381.727 564.364L394.986 562.915L401.38 591.311L389.394 593.1L381.727 564.364ZM398.447 562.537L412.144 561.041L417.268 588.939L404.81 590.799L398.447 562.537ZM415.618 560.66L428.94 559.205L432.482 586.667L420.72 588.423L415.618 560.66ZM432.436 558.824L445.699 557.376L447.794 584.385L435.959 586.152L432.436 558.824ZM449.214 556.992L462.924 555.494L463.469 582.044L451.298 583.861L449.214 556.992ZM448.941 553.475L446.192 518.051L462.14 517.333L462.853 551.954L448.941 553.475ZM465.682 517.175L481.388 516.468L478.29 550.271L466.391 551.572L465.682 517.175ZM461.339 478.378L462.067 513.793L445.918 514.521L443.111 478.38H461.339V478.378ZM439.568 478.378L442.385 514.678L426.835 515.379L422.064 478.378H439.568ZM418.517 478.378L423.309 515.537L407.461 516.251L400.504 478.378H418.517ZM396.958 478.378L403.944 516.411L388.219 517.119L379.497 478.38H396.958V478.378ZM375.953 478.378L384.712 517.277L369.352 517.968L358.79 478.378H375.953ZM355.244 478.378L365.848 518.126L350.567 518.814L338.633 478.378H355.244ZM335.086 478.378L347.065 518.973L331.642 519.668L317.219 478.38H335.086V478.378ZM313.674 478.378L328.152 519.824L312.698 520.519L296.666 478.377H313.674V478.378ZM293.122 478.378L309.214 520.677L293.074 521.405L274.495 478.378H293.122ZM270.947 478.378L289.595 521.56L275.445 522.198L256.036 478.378H270.947ZM246.571 478.378H252.491L271.969 522.355L259.84 522.903L242.465 484.763C241.103 481.774 243.287 478.378 246.571 478.378ZM296.62 603.642L283.609 575.081L294.783 573.862L308.643 605.152L301.391 606.233C299.401 606.531 297.453 605.475 296.62 603.642ZM475.864 576.714C475.673 578.784 474.093 580.457 472.036 580.765L467.003 581.516L466.46 555.106L477.957 553.85L475.864 576.714Z" fill="white"/>
<path d="M203.36 436.332L217.892 444.722L224.28 433.656L209.748 425.267C206.692 423.503 202.786 424.55 201.02 427.604C199.257 430.66 200.304 434.567 203.36 436.332Z" fill="#407BFF"/>
<path d="M279.898 656.137V663.005H468.967V656.137H279.898Z" fill="#514E84"/>
<path d="M312.104 607.172L313.156 613.959L346.932 608.723L345.88 601.936L312.104 607.172Z" fill="#514E84"/>
<path d="M275.34 652.425C273.99 654.142 276.059 656.728 279.898 656.136V663.004C267.022 663.448 264.463 654.363 270.218 647.85L275.34 652.425Z" fill="#514E84"/>
<path d="M306.802 617.203C308.556 615.32 310.705 614.306 313.158 613.97L312.105 607.182C307.048 608.26 303.89 610.223 301.68 612.628L306.802 617.203Z" fill="#514E84"/>
<path d="M279.898 656.137V663.005H468.967V656.137H279.898Z" fill="#514E84"/>
<path d="M312.104 607.172L313.156 613.959L346.932 608.723L345.88 601.936L312.104 607.172Z" fill="#514E84"/>
<path d="M275.34 652.425C273.99 654.142 276.059 656.728 279.898 656.136V663.004C267.022 663.448 264.463 654.363 270.218 647.85L275.34 652.425Z" fill="#514E84"/>
<path d="M306.802 617.203C308.556 615.32 310.705 614.306 313.158 613.97L312.105 607.182C307.048 608.26 303.89 610.223 301.68 612.628L306.802 617.203Z" fill="#514E84"/>
<path d="M270.213 647.833L275.336 652.409L306.801 617.184L301.678 612.609L270.213 647.833Z" fill="#514E84"/>
<path d="M270.213 647.833L275.336 652.409L306.801 617.184L301.678 612.609L270.213 647.833Z" fill="#514E84"/>
<path opacity="0.4" d="M279.898 656.136C276.059 656.728 273.99 654.142 275.34 652.425L306.804 617.201C308.557 615.319 310.707 614.304 313.16 613.968L346.936 608.732L345.883 601.945L312.107 607.181C307.048 608.258 303.892 610.221 301.681 612.626L270.218 647.85C264.463 654.363 267.022 663.448 279.898 663.004H468.967V656.136H279.898Z" fill="white"/>
<path d="M1119.11 292.585C1131.06 286.868 1142.95 324.913 1142.95 324.913C1163.26 351.753 1191.65 316.047 1188.87 356.168C1184.02 426.374 1269.69 378.245 1230.16 451.542C1190.64 524.842 1265.06 492.989 1240.5 552.091C1215.94 611.195 1247.77 681.685 1210.82 652.719C1210.82 652.719 1178.28 581.359 1144.72 559.283C1111.16 537.206 1164.82 511.013 1154.32 481.025C1139.07 437.471 1102.33 439.18 1128.82 392.377C1155.32 345.572 1078.49 312.012 1119.11 292.585Z" fill="url(#paint2_linear_651_774)"/>
<path d="M1222.52 625.863C1206.51 614.599 1187.76 536.089 1186.64 489.329C1186.07 465.374 1178.99 455.396 1172.74 446.591C1166.77 438.176 1161.61 430.907 1164.61 414.216C1170.36 382.326 1155.26 368.556 1155.11 368.42L1156.86 366.428C1157.53 367.016 1173.25 381.214 1167.22 414.684C1164.42 430.277 1169.04 436.799 1174.9 445.053C1181.05 453.719 1188.7 464.497 1189.29 489.26C1190.49 539.447 1209.66 613.572 1224.05 623.693L1222.52 625.863Z" fill="white"/>
<path d="M1228.52 631.679C1226.45 631.679 1224.2 631.444 1221.74 630.943C1215.57 629.697 1211.52 626.439 1209.71 621.264C1205.39 608.914 1215.4 588.852 1223.52 579.184C1223.65 579.022 1237.24 562.409 1235.79 539.385C1235.55 535.525 1235.15 531.954 1234.8 528.801C1233.77 519.688 1233.04 513.105 1236.95 508.708C1240.4 504.831 1247.06 503.155 1259.21 503.096C1280.53 502.995 1288.96 494.172 1295.74 487.076C1298.61 484.064 1301.33 481.22 1304.63 479.416C1315.26 473.616 1326.51 472.765 1331.39 477.392C1333.71 479.588 1335.67 483.893 1331.82 491.919C1328.32 499.252 1323.76 503.9 1320.11 507.629C1315.19 512.651 1311.94 515.969 1313.63 522.577C1314.03 524.132 1314.48 525.697 1314.94 527.27C1318.23 538.511 1321.95 551.251 1302.72 559.899C1298.64 561.732 1294.91 563.192 1291.63 564.481C1278.2 569.75 1270.1 572.933 1260.95 592.247C1259.17 595.988 1257.61 599.533 1256.1 602.959C1248.88 619.315 1243.42 631.679 1228.52 631.679ZM1305.9 481.746C1302.96 483.352 1300.5 485.926 1297.65 488.91C1290.53 496.365 1281.68 505.643 1259.23 505.748C1248.05 505.8 1241.79 507.26 1238.93 510.472C1235.8 513.987 1236.49 520.078 1237.43 528.507C1237.79 531.69 1238.19 535.297 1238.44 539.218C1239.96 563.333 1226.14 580.181 1225.55 580.887C1217.51 590.458 1208.41 609.511 1212.21 620.394C1213.69 624.626 1217.07 627.304 1222.27 628.353C1240.39 632.016 1245.39 620.679 1253.68 601.896C1255.2 598.454 1256.77 594.892 1258.55 591.121C1268.15 570.855 1277.11 567.342 1290.67 562.022C1293.92 560.743 1297.61 559.297 1301.63 557.486C1318.77 549.787 1315.68 539.214 1312.4 528.02C1311.93 526.417 1311.47 524.823 1311.06 523.243C1309 515.186 1313.07 511.036 1318.22 505.781C1321.92 502.001 1326.12 497.719 1329.44 490.781C1331.18 487.144 1332.61 482.205 1329.57 479.32C1325.56 475.523 1315.39 476.567 1305.9 481.746Z" fill="url(#paint3_linear_651_774)"/>
<path d="M1222.02 646.976L1219.38 646.834C1219.51 644.349 1222.85 585.76 1246.37 568.614C1272.18 549.803 1280.31 529.586 1284.19 516.018C1288.75 500.028 1312 495.754 1312.98 495.58L1313.45 498.187C1313.22 498.23 1290.85 502.351 1286.74 516.744C1282.75 530.691 1274.4 551.465 1247.93 570.758C1225.42 587.166 1222.05 646.378 1222.02 646.976Z" fill="url(#paint4_linear_651_774)"/>
<path d="M1275.81 351.71C1259.1 345.976 1262.57 378.202 1255.5 402.047C1248.44 425.892 1176.91 412.448 1206.93 472.154C1236.96 531.864 1168.96 492.122 1189.27 544.224C1209.58 596.329 1191.03 652.052 1213.11 637.877C1235.19 623.705 1225.52 558.091 1248.48 550.297C1271.44 542.501 1275.19 533.404 1252.45 512.212C1229.72 491.017 1312.02 469.977 1291.71 427.18C1271.4 384.386 1295.13 358.333 1275.81 351.71Z" fill="url(#paint5_linear_651_774)"/>
<path d="M1223.35 635.385C1221.25 626.465 1203.3 547.969 1220.05 538.48C1234.82 530.117 1234.45 497.59 1232.15 466.876C1230.11 439.686 1265.03 426.978 1266.52 426.451L1267.4 428.951C1267.06 429.073 1232.9 441.512 1234.79 466.681C1237.16 498.223 1237.41 531.695 1221.35 540.789C1208.63 547.995 1220.34 611.079 1225.93 634.781L1223.35 635.385Z" fill="white"/>
<path d="M1261.37 607.433L1237.49 697.999H1184.14L1160.27 607.433H1261.37Z" fill="#3B4971"/>
<defs>
<linearGradient id="paint0_linear_651_774" x1="507.531" y1="109.919" x2="653.902" y2="109.919" gradientUnits="userSpaceOnUse">
<stop stop-color="#FB9004"/>
<stop offset="1" stop-color="#FC067D"/>
</linearGradient>
<linearGradient id="paint1_linear_651_774" x1="254.395" y1="314.033" x2="429.048" y2="314.033" gradientUnits="userSpaceOnUse">
<stop stop-color="#9942FF"/>
<stop offset="1" stop-color="#4D6DFF"/>
</linearGradient>
<linearGradient id="paint2_linear_651_774" x1="1107" y1="475.719" x2="1245.59" y2="475.719" gradientUnits="userSpaceOnUse">
<stop stop-color="#9942FF"/>
<stop offset="1" stop-color="#4D6DFF"/>
</linearGradient>
<linearGradient id="paint3_linear_651_774" x1="1208.67" y1="553.05" x2="1334" y2="553.05" gradientUnits="userSpaceOnUse">
<stop stop-color="#9942FF"/>
<stop offset="1" stop-color="#4D6DFF"/>
</linearGradient>
<linearGradient id="paint4_linear_651_774" x1="1219.38" y1="571.278" x2="1313.45" y2="571.278" gradientUnits="userSpaceOnUse">
<stop stop-color="#9942FF"/>
<stop offset="1" stop-color="#4D6DFF"/>
</linearGradient>
<linearGradient id="paint5_linear_651_774" x1="1185.41" y1="495.578" x2="1294.96" y2="495.578" gradientUnits="userSpaceOnUse">
<stop stop-color="#9942FF"/>
<stop offset="1" stop-color="#4D6DFF"/>
</linearGradient>
</defs>
</svg>
