<svg width="34" height="45" viewBox="0 0 34 45" fill="none" xmlns="http://www.w3.org/2000/svg">
<path d="M14.8028 42.8078C6.36588 38.1144 5.1355 20.3941 5.57492 12.1206L3.3778 13.9257L1.62012 39.6488L2.49896 42.8078H14.8028Z" fill="#DDDFE8"/>
<path d="M17.0001 25.1692C15.0183 25.1717 13.0969 24.4685 11.5632 23.1796C10.0294 21.8906 8.97819 20.0955 8.58844 18.0999C8.55737 17.8897 8.57118 17.6751 8.6289 17.4709C8.68662 17.2667 8.78687 17.0779 8.92272 16.9174C9.05856 16.757 9.22675 16.6288 9.41562 16.5417C9.6045 16.4547 9.80955 16.4108 10.0166 16.4132C10.3568 16.4082 10.6876 16.528 10.9494 16.7512C11.2112 16.9744 11.3869 17.2862 11.4447 17.6306C11.7136 18.949 12.4162 20.1322 13.4343 20.9814C14.4524 21.8307 15.7241 22.2942 17.0358 22.2942C18.3474 22.2942 19.6191 21.8307 20.6372 20.9814C21.6554 20.1322 22.3579 18.949 22.6269 17.6306C22.6847 17.2862 22.8603 16.9744 23.1221 16.7512C23.384 16.528 23.7148 16.4082 24.055 16.4132C24.262 16.4108 24.467 16.4547 24.6559 16.5417C24.8448 16.6288 25.013 16.757 25.1488 16.9174C25.2847 17.0779 25.3849 17.2667 25.4427 17.4709C25.5004 17.6751 25.5142 17.8897 25.4831 18.0999C25.091 20.1079 24.0293 21.9125 22.4808 23.203C20.9323 24.4934 18.9941 25.1887 17.0001 25.1692Z" fill="url(#paint0_linear_218_691)"/>
<path fill-rule="evenodd" clip-rule="evenodd" d="M22.7125 10.3853V9.3C22.7125 7.74406 22.1106 6.25185 21.0393 5.15164C19.968 4.05143 18.515 3.43333 17 3.43333C15.485 3.43333 14.032 4.05143 12.9607 5.15164C11.8894 6.25185 11.2875 7.74406 11.2875 9.3V10.3853H22.7125ZM8.43128 10.3853V9.3C8.43128 6.96609 9.33405 4.72778 10.941 3.07746C12.5479 1.42714 14.7274 0.5 17 0.5C19.2726 0.5 21.4521 1.42714 23.059 3.07746C24.666 4.72778 25.5687 6.96609 25.5687 9.3V10.3853H28.5535C29.6583 10.3842 30.7209 10.8216 31.5192 11.6059C32.3176 12.3903 32.79 13.4611 32.8379 14.5946L33.9946 39.88C34.0237 40.476 33.9344 41.0719 33.7321 41.6314C33.5299 42.1909 33.2189 42.7023 32.8181 43.1345C32.4173 43.5666 31.9351 43.9105 31.4009 44.1453C30.8666 44.3801 30.2914 44.5007 29.7103 44.5H4.28972C3.7086 44.5007 3.13341 44.3801 2.59913 44.1453C2.06486 43.9105 1.58267 43.5666 1.18189 43.1345C0.781122 42.7023 0.470146 42.1909 0.267884 41.6314C0.0656226 41.0719 -0.0236972 40.476 0.0053592 39.88L1.16214 14.5946C1.21001 13.4611 1.68245 12.3903 2.48079 11.6059C3.27914 10.8216 4.34166 10.3842 5.4465 10.3853H8.43128ZM4.43667 13.7629C4.70449 13.4878 5.06774 13.3333 5.4465 13.3333L28.5535 13.2746C28.9323 13.2746 29.2955 13.4292 29.5633 13.7042C29.8312 13.9793 29.9816 14.3523 29.9816 14.7413L31.1384 40.0266C31.1481 40.2253 31.1183 40.424 31.0509 40.6105C30.9835 40.797 30.8798 40.9674 30.7462 41.1115C30.6126 41.2555 30.4519 41.3702 30.2738 41.4484C30.0957 41.5267 29.904 41.5669 29.7103 41.5666H4.28972C4.09602 41.5669 3.90429 41.5267 3.72619 41.4484C3.5481 41.3702 3.38737 41.2555 3.25378 41.1115C3.12019 40.9674 3.01653 40.797 2.94911 40.6105C2.88169 40.424 2.85192 40.2253 2.8616 40.0266L4.01838 14.8C4.01838 14.411 4.16884 14.0379 4.43667 13.7629Z" fill="url(#paint1_linear_218_691)"/>
<defs>
<linearGradient id="paint0_linear_218_691" x1="8.57227" y1="20.7914" x2="25.4993" y2="20.7914" gradientUnits="userSpaceOnUse">
<stop stop-color="#FB9004"/>
<stop offset="1" stop-color="#FC067D"/>
</linearGradient>
<linearGradient id="paint1_linear_218_691" x1="0" y1="22.5" x2="34" y2="22.5" gradientUnits="userSpaceOnUse">
<stop stop-color="#9942FF"/>
<stop offset="1" stop-color="#FC067D"/>
</linearGradient>
</defs>
</svg>
