<svg width="54" height="54" viewBox="0 0 54 54" fill="none" xmlns="http://www.w3.org/2000/svg">
<path d="M53.2919 33.3934L33.398 42.6299L32.6875 50.4454L35.5295 53.2874L49.7395 49.0244L53.2919 45.4719V33.3934Z" fill="#DDDFE8"/>
<path fill-rule="evenodd" clip-rule="evenodd" d="M35.998 53.998C33.5163 53.998 31.4982 51.9798 31.4982 49.4982V47.2486H23.6248C20.5244 47.2486 18 44.7242 18 41.6238V37.124C18 36.503 18.504 35.999 19.125 35.999C19.7459 35.999 20.2499 36.503 20.2499 37.124V41.6238C20.2499 43.4845 21.7641 44.9986 23.6248 44.9986H31.4982V8.99976C31.4982 7.06484 32.7401 5.35266 34.5873 4.73618L42.0457 2.25003H23.6248C21.7641 2.25003 20.2499 3.76422 20.2499 5.6249V10.1247C20.2499 10.7457 19.7459 11.2497 19.125 11.2497C18.504 11.2497 18 10.7457 18 10.1247V5.6249C18 2.52452 20.5244 0.000122125 23.6248 0.000122125H49.4974H49.4988C49.4997 0.000122125 49.5007 0.000121549 49.5017 0.000124134C51.9814 0.00244718 53.9973 2.01972 53.9973 4.49994V44.9983C53.9973 46.931 52.7576 48.6454 50.9104 49.2597L37.4109 53.7595C36.9767 53.9147 36.493 53.998 35.998 53.998ZM49.4985 2.25003C49.4981 2.25003 49.4978 2.25003 49.4974 2.25003C49.4971 2.25003 49.4968 2.25003 49.4965 2.25003C49.2628 2.25015 49.0292 2.29063 48.8225 2.36253L35.2983 6.87135C34.369 7.17959 33.7481 8.03455 33.7481 8.99976V46.069C33.7489 46.0871 33.7494 46.1053 33.7494 46.1236C33.7494 46.1419 33.7489 46.1601 33.7481 46.1782V49.4982C33.7481 50.7379 34.7583 51.7481 35.998 51.7481C36.232 51.7481 36.466 51.7076 36.6775 51.6333L50.1994 47.1267C51.1241 46.8163 51.7474 45.9613 51.7474 44.9983V4.49994C51.7474 3.26059 50.7377 2.2506 49.4985 2.25003Z" fill="url(#paint0_linear_497_903)"/>
<path fill-rule="evenodd" clip-rule="evenodd" d="M13.829 33.4204C14.0495 33.6386 14.3375 33.7489 14.6255 33.7489C14.9135 33.7489 15.2015 33.6386 15.4197 33.4204L24.4194 24.4207C24.5344 24.3057 24.6192 24.1718 24.6739 24.029C24.7224 23.9034 24.749 23.767 24.749 23.6243C24.749 23.2988 24.6105 23.0055 24.3893 22.8L15.4197 13.8304C14.981 13.3917 14.2678 13.3917 13.829 13.8304C13.3903 14.2691 13.3903 14.9823 13.829 15.4211L20.9093 22.4994H1.12496C0.50398 22.4994 0 23.0034 0 23.6243C0 24.2453 0.50398 24.7493 1.12496 24.7493H20.9094L13.829 31.8297C13.3903 32.2684 13.3903 32.9816 13.829 33.4204Z" fill="url(#paint1_linear_497_903)"/>
<defs>
<linearGradient id="paint0_linear_497_903" x1="18" y1="26.9991" x2="53.9971" y2="26.9991" gradientUnits="userSpaceOnUse">
<stop stop-color="#9942FF"/>
<stop offset="1" stop-color="#FC067D"/>
</linearGradient>
<linearGradient id="paint1_linear_497_903" x1="0" y1="23.6251" x2="24.749" y2="23.6251" gradientUnits="userSpaceOnUse">
<stop stop-color="#FB9004"/>
<stop offset="1" stop-color="#FC067D"/>
</linearGradient>
</defs>
</svg>
