<svg width="45" height="39" viewBox="0 0 45 39" fill="none" xmlns="http://www.w3.org/2000/svg">
<path d="M33.861 27.8025L13.3232 32.1722L12.4492 36.542L13.7601 38.2899L29.9282 37.8529L32.987 31.2983L33.861 27.8025Z" fill="#DDDFE8"/>
<path d="M36.2221 10.2468C35.3854 6.47214 32.011 3.71429 28.072 3.71429C27.1481 3.71429 26.2436 3.86657 25.3754 4.16557C23.5582 1.57764 20.5691 0 17.3934 0C12.017 0 7.64342 4.37357 7.64342 9.75C7.64342 9.96636 7.65177 10.1799 7.66663 10.3944C3.35806 11.2534 0.214844 15.0131 0.214844 19.5C0.214844 24.2469 3.76384 28.2119 8.4717 28.7244C8.50606 28.7281 8.53949 28.73 8.57292 28.73C9.04092 28.73 9.44392 28.3781 9.49499 27.9017C9.5507 27.3919 9.18206 26.9332 8.67227 26.8775C4.90877 26.468 2.07199 23.296 2.07199 19.4991C2.07199 15.6511 4.95984 12.4726 8.7902 12.1039C9.04834 12.0789 9.2842 11.947 9.44113 11.7399C9.59806 11.5329 9.66027 11.2701 9.6157 11.0147C9.5377 10.5839 9.50056 10.1697 9.50056 9.74907C9.50056 5.39686 13.0412 1.85621 17.3934 1.85621C20.1801 1.85621 22.7903 3.35957 24.2063 5.77943C24.4468 6.18986 24.9594 6.35421 25.3931 6.1555C26.2446 5.76736 27.1462 5.5705 28.072 5.5705C31.3424 5.5705 34.1123 8.0145 34.5144 11.2561C34.572 11.7214 35.0326 12.0705 35.5006 12.0705C39.5965 12.0705 42.9291 15.4031 42.9291 19.4991C42.9291 22.9886 40.4582 26.0427 37.0541 26.7614C36.5526 26.8673 36.2313 27.3604 36.3381 27.8618C36.444 28.3641 36.9324 28.6854 37.4394 28.5786C41.6969 27.6789 44.7872 23.8606 44.7872 19.4991C44.7872 14.6408 41.0367 10.6414 36.223 10.2459L36.2221 10.2468Z" fill="url(#paint0_linear_601_1767)"/>
<path d="M31.786 26V25.0714C31.786 23.5356 30.5361 22.2857 29.0003 22.2857H21.412C21.1678 22.2857 20.9282 22.1864 20.7555 22.0137L19.9866 21.2448C19.4611 20.7183 18.7609 20.4286 18.0171 20.4286H14.1431C12.6073 20.4286 11.3574 21.6784 11.3574 23.2143V36.1493L11.3714 36.14C11.3528 36.7417 11.5181 37.336 11.8849 37.843C12.4141 38.5784 13.2387 39 14.145 39H29.3086C30.5092 39 31.5715 38.2349 31.9513 37.0946L34.4269 29.666C34.7138 28.8062 34.5745 27.8915 34.0443 27.1561C33.515 26.4216 32.6913 26.0009 31.786 26ZM14.1431 22.2857H18.0171C18.2614 22.2857 18.5009 22.3851 18.6736 22.5578L19.4425 23.3267C19.9681 23.8532 20.6682 24.1429 21.412 24.1429H29.0003C29.5128 24.1429 29.9289 24.5598 29.9289 25.0714V26H16.6206C15.4199 26 14.3576 26.7652 13.9778 27.9054L13.2146 30.1962V23.2143C13.2146 22.7027 13.6306 22.2857 14.1431 22.2857ZM32.6653 29.0792L30.1898 36.5077C30.0626 36.8875 29.7079 37.1429 29.3086 37.1429H14.145C13.8432 37.1429 13.5684 37.0027 13.391 36.7566C13.2146 36.5114 13.1681 36.2069 13.2629 35.9199L15.7384 28.4914C15.8656 28.1116 16.2204 27.8562 16.6196 27.8562H31.7832C32.085 27.8562 32.3598 27.9964 32.5372 28.2425C32.7136 28.4877 32.7601 28.7922 32.6653 29.0792Z" fill="url(#paint1_linear_601_1767)"/>
<defs>
<linearGradient id="paint0_linear_601_1767" x1="0.214844" y1="14.365" x2="44.7872" y2="14.365" gradientUnits="userSpaceOnUse">
<stop stop-color="#9942FF"/>
<stop offset="1" stop-color="#FC067D"/>
</linearGradient>
<linearGradient id="paint1_linear_601_1767" x1="11.3574" y1="29.7143" x2="34.5731" y2="29.7143" gradientUnits="userSpaceOnUse">
<stop stop-color="#FB9004"/>
<stop offset="1" stop-color="#FC067D"/>
</linearGradient>
</defs>
</svg>
