<svg width="72" height="72" viewBox="0 0 72 72" fill="none" xmlns="http://www.w3.org/2000/svg">
<path d="M13.2332 19.8751C14.8902 18.6921 16.9161 17.9986 19.1241 17.9986C24.7528 17.9986 29.2491 22.495 29.2491 28.1237V49.503H8.99467V48.3736C9.13197 46.7473 6.61618 46.7473 6.75347 48.3736V50.6236C6.75572 51.2419 7.25581 51.7421 7.87407 51.7442H41.6241V67.4986H37.1219V55.1258C37.1219 53.6254 34.8719 53.6254 34.8719 55.1258V68.6192C34.8696 69.244 35.3765 69.751 36.0013 69.7487H42.7447C43.3694 69.751 43.8765 69.244 43.8741 68.6192V51.7442H68.6219C69.2434 51.7466 69.7491 51.2451 69.7513 50.6236V28.1259C69.7513 21.2896 64.2147 15.753 57.3785 15.753H48.3763V4.50077H56.2491V9.00084H51.7469C50.2465 9.00084 50.2465 11.2509 51.7469 11.2509H57.3785C58 11.2487 58.5015 10.743 58.4991 10.1214V3.36926C58.4969 2.75098 57.9967 2.25083 57.3785 2.24866H47.2469C46.6286 2.25083 46.1285 2.75098 46.1263 3.36926V27.1568C44.1934 27.6615 42.7447 29.4153 42.7447 31.4986C42.7447 33.9706 44.7749 35.9987 47.2469 35.9987C49.7188 35.9987 51.7469 33.9706 51.7469 31.4986C51.7469 29.4187 50.3044 27.667 48.3763 27.159V17.9942H57.3785C63.0072 17.9942 67.5013 22.4972 67.5013 28.1259V49.503H31.4991V28.1237C31.4991 23.9299 29.4087 20.2323 26.219 17.9942H42.7447C44.371 18.1316 44.371 15.6157 42.7447 15.753L19.168 15.7508C16.4424 15.7486 13.9516 16.5984 11.9258 18.0447C10.644 18.9056 12.0031 20.8084 13.2332 19.8751ZM49.4969 31.4986C49.4969 32.7546 48.5029 33.7486 47.2469 33.7486C45.9909 33.7486 44.9947 32.7546 44.9947 31.4986C44.9947 30.2472 45.9841 29.2559 47.2502 29.2487C48.513 29.2614 49.4969 30.2494 49.4969 31.4986Z" fill="url(#paint0_linear_602_1990)"/>
<path d="M0.25 24.9665C0.25 23.2828 1.72804 22.0002 3.39868 22.0002H21.8513C23.3727 21.9786 23.3727 24.2714 21.8513 24.2502H4.44678L16 34.0259L23.1477 27.9768C24.2932 27.007 25.7478 28.7253 24.6023 29.695L20.4011 33.2502L24.6023 36.8054C25.7478 37.7751 24.2932 39.4934 23.1477 38.5236L18.6587 34.7245L16.7273 36.3594C16.3076 36.7148 15.6924 36.7148 15.2727 36.3594L13.3391 34.7245L4.45118 42.2502H24.1013C25.6227 42.2287 25.6227 44.5215 24.1013 44.5002H3.39868C1.72804 44.5002 0.25 43.2175 0.25 41.5339V24.9665Z" fill="url(#paint1_linear_602_1990)"/>
<path d="M2 41V25L12 33.5333L2 41Z" fill="url(#paint2_linear_602_1990)"/>
<defs>
<linearGradient id="paint0_linear_602_1990" x1="6.74805" y1="35.9987" x2="69.7513" y2="35.9987" gradientUnits="userSpaceOnUse">
<stop stop-color="#9942FF"/>
<stop offset="1" stop-color="#FC067D"/>
</linearGradient>
<linearGradient id="paint1_linear_602_1990" x1="0.25" y1="33.2502" x2="25.2423" y2="33.2502" gradientUnits="userSpaceOnUse">
<stop stop-color="#FB9004"/>
<stop offset="1" stop-color="#FC067D"/>
</linearGradient>
<linearGradient id="paint2_linear_602_1990" x1="41.6129" y1="-45.5118" x2="-21.0873" y2="23.4075" gradientUnits="userSpaceOnUse">
<stop stop-color="#A2A2A2"/>
<stop offset="1" stop-color="white"/>
</linearGradient>
</defs>
</svg>
