<svg width="34" height="34" viewBox="0 0 34 34" fill="none" xmlns="http://www.w3.org/2000/svg">
<path d="M33.7431 18.0749L29.3335 13.6654C29.2531 13.584 29.1574 13.5193 29.0518 13.4752C28.9462 13.4311 28.8329 13.4084 28.7185 13.4084C28.6041 13.4084 28.4908 13.4311 28.3853 13.4752C28.2797 13.5193 28.1839 13.584 28.1035 13.6654L17.1842 24.5905C16.6798 25.1279 16.0726 25.5585 15.3986 25.8566C14.7246 26.1548 13.9976 26.3144 13.2607 26.3261C12.5238 26.3378 11.7921 26.2013 11.109 25.9247C10.4259 25.648 9.80531 25.237 9.28417 24.7158C8.76304 24.1947 8.35196 23.5741 8.07533 22.891C7.7987 22.2079 7.66218 21.4762 7.67387 20.7393C7.68556 20.0024 7.84522 19.2754 8.14337 18.6014C8.44152 17.9274 8.87209 17.3202 9.40948 16.8158L20.3346 5.88488C20.416 5.80447 20.4807 5.70871 20.5248 5.60314C20.5689 5.49756 20.5916 5.38429 20.5916 5.26987C20.5916 5.15546 20.5689 5.04218 20.5248 4.93661C20.4807 4.83104 20.416 4.73527 20.3346 4.65486L15.9251 0.256948C15.8447 0.175552 15.749 0.110926 15.6434 0.0668192C15.5378 0.022712 15.4245 0 15.3101 0C15.1957 0 15.0824 0.022712 14.9768 0.0668192C14.8713 0.110926 14.7755 0.175552 14.6951 0.256948L3.76414 11.1705C1.31727 13.7153 -0.0339759 17.1182 0.000649389 20.6484C0.0352746 24.1786 1.453 27.5544 3.94933 30.0507C6.44565 32.547 9.82143 33.9647 13.3516 33.9993C16.8818 34.034 20.2847 32.6827 22.8295 30.2359L33.7431 19.3049C33.8245 19.2245 33.8891 19.1287 33.9332 19.0232C33.9773 18.9176 34 18.8043 34 18.6899C34 18.5755 33.9773 18.4622 33.9332 18.3566C33.8891 18.2511 33.8245 18.1553 33.7431 18.0749ZM15.3101 2.09038L18.4896 5.26987L15.0084 8.75107L11.8289 5.57158L15.3101 2.09038ZM21.5937 29.0058C20.5037 30.0958 19.2098 30.9604 17.7857 31.5502C16.3616 32.1401 14.8353 32.4437 13.2939 32.4437C10.1809 32.4437 7.1954 31.2071 4.99416 29.0058C2.79293 26.8046 1.55629 23.8191 1.55629 20.7061C1.55629 17.5931 2.79293 14.6076 4.99416 12.4063L10.5989 6.8016L13.7784 9.98109L8.17946 15.5858C7.16541 16.597 6.47426 17.8864 6.19353 19.2907C5.91281 20.695 6.05513 22.151 6.60248 23.4743C7.14984 24.7976 8.07759 25.9288 9.26826 26.7245C10.4589 27.5202 11.859 27.9446 13.291 27.9441C14.2422 27.9469 15.1844 27.7606 16.0629 27.396C16.9414 27.0315 17.7387 26.4959 18.4084 25.8205L24.0131 20.2216L27.1926 23.4011L21.5937 29.0058ZM28.4284 22.1711L25.2489 18.9916L28.7301 15.5104L31.9096 18.6899L28.4284 22.1711Z" fill="url(#paint0_linear_158_3042)"/>
<defs>
<linearGradient id="paint0_linear_158_3042" x1="0" y1="17" x2="34" y2="17" gradientUnits="userSpaceOnUse">
<stop stop-color="#9942FF"/>
<stop offset="1" stop-color="#FC067D"/>
</linearGradient>
</defs>
</svg>
