<svg width="63" height="64" viewBox="0 0 63 64" fill="none" xmlns="http://www.w3.org/2000/svg">
<g clip-path="url(#clip0_613_998)">
<path d="M52.9262 25.0126L49.7506 21.1191L51.572 16.4241C51.9005 15.5793 51.9005 14.6488 51.5721 13.8041C51.0275 12.4029 49.7044 11.4977 48.2012 11.4977C47.753 11.4977 47.3123 11.5805 46.8927 11.7436L42.1968 13.5652L38.3034 10.3896C38.2783 10.3692 38.2526 10.3498 38.2264 10.3317C37.5426 9.8016 36.6857 9.53163 35.8147 9.58023C34.8522 9.63376 33.9681 10.0588 33.3253 10.7772C32.6824 11.4957 32.3579 12.4215 32.4115 13.3844L32.6922 18.4065L28.4536 21.138C28.4212 21.159 28.39 21.1812 28.3602 21.2046C27.6527 21.6926 27.1438 22.4139 26.9218 23.2476C26.4088 25.1728 27.5577 27.1564 29.4855 27.6701L29.7522 27.7406L0.933046 56.5595C0.238199 57.2543 -0.0935363 58.2609 0.0228662 59.321C0.129794 60.2956 0.596512 61.2402 1.33726 61.9808C2.21877 62.8623 3.34895 63.3145 4.41811 63.3145C5.29679 63.3145 6.13437 63.0089 6.75847 62.3849L35.5765 33.5669L35.6053 33.6761C35.8109 34.6164 36.3684 35.4201 37.1783 35.9425C37.7641 36.3202 38.4411 36.5198 39.1359 36.5198C40.3716 36.5197 41.5087 35.9003 42.1779 34.8625L44.9093 30.6239L49.798 30.8972C50.7402 30.9846 51.6932 30.6922 52.4236 30.0926C53.9629 28.8289 54.1874 26.5487 52.9262 25.0126ZM5.01833 60.6447C4.65485 61.0081 3.76842 60.9315 3.07739 60.2406C2.7363 59.8995 2.51469 59.4665 2.46917 59.0526C2.44899 58.8679 2.44849 58.5244 2.6733 58.2998L32.5052 28.4677L34.3587 28.9573L34.8491 30.8139L5.01833 60.6447ZM51.2777 27.4136C51.2475 27.7195 51.1001 27.9953 50.8625 28.1904C50.5994 28.4062 50.3211 28.4516 50.1339 28.4516C50.0948 28.4516 50.0551 28.4495 50.0162 28.4457C49.9977 28.4437 49.9791 28.4424 49.9607 28.4413L44.3319 28.1266C43.8909 28.1023 43.4687 28.3165 43.2288 28.6886L40.1095 33.529C39.8957 33.8606 39.5317 34.0587 39.1359 34.0587C38.9151 34.0587 38.6993 33.9949 38.512 33.874C38.25 33.7051 38.0708 33.4439 38.007 33.1385C38.0026 33.1174 37.9977 33.0964 37.9921 33.0756L36.5549 27.6363C36.4419 27.2082 36.1075 26.874 35.6796 26.7609L30.1166 25.2914C29.8192 25.212 29.5704 25.0218 29.4162 24.7554C29.2619 24.489 29.2206 24.1785 29.3 23.8811C29.3739 23.6035 29.5474 23.3651 29.7886 23.2097C29.815 23.1927 29.8405 23.1748 29.8651 23.1561L34.6275 20.0871C34.9996 19.8473 35.2142 19.4261 35.1895 18.9841L34.8687 13.2474C34.8517 12.9413 34.955 12.6468 35.1595 12.4182C35.3638 12.1897 35.6451 12.0545 35.9515 12.0374C36.3172 12.0174 36.5893 12.1696 36.7433 12.2963C36.7655 12.3143 36.788 12.3317 36.811 12.3481L41.1965 15.9249C41.5395 16.2047 42.0065 16.2787 42.4192 16.1186L47.7839 14.0376C47.9188 13.9852 48.0594 13.9585 48.2016 13.9585C48.6819 13.9585 49.1046 14.2478 49.2786 14.6957C49.3836 14.9654 49.3836 15.2624 49.2783 15.533L47.1977 20.8968C47.0376 21.3096 47.1115 21.7764 47.3913 22.1195L51.022 26.5709C51.217 26.8084 51.3077 27.1077 51.2777 27.4136Z" fill="url(#paint0_linear_613_998)"/>
<path d="M40.2715 0.317993C39.592 0.317993 39.041 0.868875 39.041 1.54846V5.09333C39.041 5.7728 39.5919 6.32368 40.2715 6.32368C40.951 6.32368 41.502 5.7728 41.502 5.09321V1.54846C41.502 0.868875 40.951 0.317993 40.2715 0.317993Z" fill="url(#paint1_linear_613_998)"/>
<path d="M30.6976 4.00314L28.9252 0.933234C28.5853 0.344823 27.8329 0.143026 27.2444 0.482882C26.6558 0.822615 26.4541 1.57517 26.794 2.16371L28.5664 5.23361C28.7944 5.62834 29.2078 5.84909 29.6332 5.84909C29.8419 5.84909 30.0535 5.79581 30.2472 5.68396C30.8357 5.34423 31.0374 4.59167 30.6976 4.00314Z" fill="url(#paint2_linear_613_998)"/>
<path d="M18.9921 21.8167H15.4473C14.7678 21.8167 14.2168 22.3675 14.2168 23.0471C14.2168 23.7267 14.7677 24.2776 15.4473 24.2776H18.9921C19.6716 24.2776 20.2226 23.7267 20.2226 23.0471C20.2226 22.3675 19.6716 21.8167 18.9921 21.8167Z" fill="url(#paint3_linear_613_998)"/>
<path d="M53.7503 43.9307L51.9779 40.8607C51.6383 40.2724 50.886 40.0706 50.2971 40.4102C49.7086 40.7501 49.5069 41.5026 49.8467 42.0912L51.6191 45.1612C51.847 45.5559 52.2606 45.7767 52.6859 45.7767C52.8946 45.7767 53.1061 45.7234 53.2999 45.6117C53.8885 45.2718 54.0901 44.5194 53.7503 43.9307Z" fill="url(#paint4_linear_613_998)"/>
<path d="M61.7694 21.8167H58.1289C57.4493 21.8167 56.8984 22.3675 56.8984 23.0471C56.8984 23.7267 57.4493 24.2776 58.1289 24.2776H61.7694C62.449 24.2776 62.9999 23.7267 62.9999 23.0471C62.9999 22.3675 62.449 21.8167 61.7694 21.8167Z" fill="url(#paint5_linear_613_998)"/>
<path d="M53.2999 0.482902C52.7113 0.142923 51.9587 0.344721 51.6191 0.933255L49.8467 4.00316C49.5069 4.59169 49.7086 5.34425 50.2971 5.68398C50.4909 5.79595 50.7024 5.84911 50.9111 5.84911C51.3363 5.84911 51.75 5.62836 51.9779 5.23363L53.7503 2.16373C54.09 1.57519 53.8885 0.822636 53.2999 0.482902Z" fill="url(#paint6_linear_613_998)"/>
<path d="M25.3382 13.0047L23.133 11.7315C22.5443 11.3915 21.7918 11.5933 21.4522 12.1819C21.1124 12.7704 21.314 13.5229 21.9026 13.8627L24.1077 15.1358C24.3015 15.2478 24.513 15.301 24.7217 15.301C25.1469 15.301 25.5606 15.0802 25.7885 14.6855C26.1284 14.097 25.9267 13.3444 25.3382 13.0047Z" fill="url(#paint7_linear_613_998)"/>
<path d="M40.2715 39.7706C39.592 39.7706 39.041 40.3215 39.041 41.0011V44.5461C39.041 45.2257 39.592 45.7766 40.2715 45.7766C40.951 45.7766 41.502 45.2257 41.502 44.5461V41.0011C41.502 40.3215 40.951 39.7706 40.2715 39.7706Z" fill="url(#paint8_linear_613_998)"/>
<path d="M58.3141 32.0429L56.4358 30.9586C55.8471 30.6189 55.0947 30.8205 54.7549 31.4091C54.4151 31.9976 54.6168 32.7502 55.2053 33.09L57.0836 34.1744C57.2774 34.2863 57.4889 34.3394 57.6976 34.3394C58.1229 34.3394 58.5365 34.1187 58.7644 33.724C59.1042 33.1352 58.9026 32.3826 58.3141 32.0429Z" fill="url(#paint9_linear_613_998)"/>
<path d="M60.5751 11.3251C60.2356 10.7367 59.483 10.535 58.8942 10.8747L55.2053 13.0046C54.6168 13.3443 54.4151 14.0968 54.7549 14.6854C54.9827 15.0802 55.3964 15.3009 55.8218 15.3009C56.0304 15.3009 56.242 15.2476 56.4358 15.1357L60.1247 13.0059C60.7133 12.6662 60.9149 11.9136 60.5751 11.3251Z" fill="url(#paint10_linear_613_998)"/>
<path d="M40.2715 46.9375C39.592 46.9375 39.041 47.4884 39.041 48.168V48.2236C39.041 48.9032 39.592 49.4541 40.2715 49.4541C40.951 49.4541 41.502 48.9032 41.502 48.2236V48.168C41.502 47.4884 40.951 46.9375 40.2715 46.9375Z" fill="url(#paint11_linear_613_998)"/>
<path d="M49.0859 6.41266C48.4065 6.41266 47.8555 6.96354 47.8555 7.64313V7.69887C47.8555 8.37846 48.4065 8.92934 49.0859 8.92934C49.7654 8.92934 50.3164 8.37846 50.3164 7.69887V7.64313C50.3164 6.96354 49.7654 6.41266 49.0859 6.41266Z" fill="url(#paint12_linear_613_998)"/>
</g>
<defs>
<linearGradient id="paint0_linear_613_998" x1="0" y1="36.4446" x2="53.7427" y2="36.4446" gradientUnits="userSpaceOnUse">
<stop stop-color="#9942FF"/>
<stop offset="1" stop-color="#FC067D"/>
</linearGradient>
<linearGradient id="paint1_linear_613_998" x1="39.041" y1="3.32084" x2="41.502" y2="3.32084" gradientUnits="userSpaceOnUse">
<stop stop-color="#FB9004"/>
<stop offset="1" stop-color="#FC067D"/>
</linearGradient>
<linearGradient id="paint2_linear_613_998" x1="26.6289" y1="3.08345" x2="30.8627" y2="3.08345" gradientUnits="userSpaceOnUse">
<stop stop-color="#FB9004"/>
<stop offset="1" stop-color="#FC067D"/>
</linearGradient>
<linearGradient id="paint3_linear_613_998" x1="14.2168" y1="23.0471" x2="20.2226" y2="23.0471" gradientUnits="userSpaceOnUse">
<stop stop-color="#FB9004"/>
<stop offset="1" stop-color="#FC067D"/>
</linearGradient>
<linearGradient id="paint4_linear_613_998" x1="49.6816" y1="43.011" x2="53.9154" y2="43.011" gradientUnits="userSpaceOnUse">
<stop stop-color="#FB9004"/>
<stop offset="1" stop-color="#FC067D"/>
</linearGradient>
<linearGradient id="paint5_linear_613_998" x1="56.8984" y1="23.0471" x2="62.9999" y2="23.0471" gradientUnits="userSpaceOnUse">
<stop stop-color="#FB9004"/>
<stop offset="1" stop-color="#FC067D"/>
</linearGradient>
<linearGradient id="paint6_linear_613_998" x1="49.6816" y1="3.08343" x2="53.9153" y2="3.08343" gradientUnits="userSpaceOnUse">
<stop stop-color="#FB9004"/>
<stop offset="1" stop-color="#FC067D"/>
</linearGradient>
<linearGradient id="paint7_linear_613_998" x1="21.2871" y1="13.4337" x2="25.9536" y2="13.4337" gradientUnits="userSpaceOnUse">
<stop stop-color="#FB9004"/>
<stop offset="1" stop-color="#FC067D"/>
</linearGradient>
<linearGradient id="paint8_linear_613_998" x1="39.041" y1="42.7736" x2="41.502" y2="42.7736" gradientUnits="userSpaceOnUse">
<stop stop-color="#FB9004"/>
<stop offset="1" stop-color="#FC067D"/>
</linearGradient>
<linearGradient id="paint9_linear_613_998" x1="54.5898" y1="32.5665" x2="58.9295" y2="32.5665" gradientUnits="userSpaceOnUse">
<stop stop-color="#FB9004"/>
<stop offset="1" stop-color="#FC067D"/>
</linearGradient>
<linearGradient id="paint10_linear_613_998" x1="54.5898" y1="13.0053" x2="60.7402" y2="13.0053" gradientUnits="userSpaceOnUse">
<stop stop-color="#FB9004"/>
<stop offset="1" stop-color="#FC067D"/>
</linearGradient>
<linearGradient id="paint11_linear_613_998" x1="39.041" y1="48.1958" x2="41.502" y2="48.1958" gradientUnits="userSpaceOnUse">
<stop stop-color="#FB9004"/>
<stop offset="1" stop-color="#FC067D"/>
</linearGradient>
<linearGradient id="paint12_linear_613_998" x1="47.8555" y1="7.671" x2="50.3164" y2="7.671" gradientUnits="userSpaceOnUse">
<stop stop-color="#FB9004"/>
<stop offset="1" stop-color="#FC067D"/>
</linearGradient>
<clipPath id="clip0_613_998">
<rect width="63" height="63" fill="white" transform="translate(0 0.316162)"/>
</clipPath>
</defs>
</svg>
