<svg width="38" height="38" viewBox="0 0 38 38" fill="none" xmlns="http://www.w3.org/2000/svg">
<path d="M1.12598 29.8378L5.06682 25.897L12.9485 31.5267L7.31873 36.5935L5.62979 31.5267L1.12598 29.8378Z" fill="#DDDFE8"/>
<path d="M36.5938 30.9638L32.6529 27.0229L24.7712 32.6527L30.401 37.7195L32.0899 32.6527L36.5938 30.9638Z" fill="#DDDFE8"/>
<path d="M19 0C9.68481 0 2.11068 7.57413 2.11068 16.8893C2.11068 20.0841 3.00107 23.0768 4.54759 25.6267L0.308772 29.8656C0.173756 30.0007 0.077953 30.17 0.0315759 30.3553C-0.0148012 30.5407 -0.0100138 30.7351 0.0454278 30.918C0.100869 31.1008 0.204887 31.2651 0.346391 31.3935C0.487895 31.5219 0.661581 31.6094 0.848933 31.6468L5.43412 32.5664L6.35363 37.1515C6.39105 37.3389 6.4786 37.5126 6.60697 37.6541C6.73533 37.7956 6.89969 37.8996 7.08252 37.955C7.26535 38.0105 7.4598 38.0153 7.64514 37.9689C7.83047 37.9225 7.99975 37.8267 8.13492 37.6917L13.1077 32.7189C14.9431 33.4041 16.9282 33.7786 19 33.7786C21.0718 33.7786 23.0569 33.4041 24.8923 32.7189L29.8651 37.6917C30.0002 37.8267 30.1695 37.9225 30.3549 37.9689C30.5402 38.0153 30.7346 38.0105 30.9175 37.955C31.1003 37.8996 31.2647 37.7956 31.393 37.6541C31.5214 37.5126 31.609 37.3389 31.6464 37.1515L32.5659 32.5664L37.1511 31.6468C37.3384 31.6094 37.5121 31.5219 37.6536 31.3935C37.7951 31.2651 37.8991 31.1008 37.9546 30.918C38.01 30.7351 38.0148 30.5407 37.9684 30.3553C37.9221 30.17 37.8262 30.0007 37.6912 29.8656L33.4524 25.6267C34.9989 23.0768 35.8893 20.0841 35.8893 16.8893C35.8893 7.57413 28.3152 0 19 0ZM19 2.11116C27.1742 2.11116 33.7782 8.71508 33.7782 16.8893C33.7782 25.0635 27.1742 31.6675 19 31.6675C10.8258 31.6675 4.22185 25.0635 4.22185 16.8893C4.22185 8.71508 10.8258 2.11116 19 2.11116ZM5.78048 27.3792C7.21527 29.1835 9.0077 30.6913 11.0543 31.787L8.03596 34.8053L7.36798 31.4613C7.32717 31.2567 7.22667 31.0688 7.07917 30.9213C6.93166 30.7738 6.74376 30.6733 6.53918 30.6325L3.19513 29.9645L5.78048 27.3792ZM32.2195 27.3792L34.8049 29.9645L31.4608 30.6325C31.2562 30.6733 31.0683 30.7738 30.9208 30.9213C30.7733 31.0688 30.6728 31.2567 30.632 31.4613L29.964 34.8053L26.9457 31.787C28.9923 30.6913 30.7847 29.1835 32.2195 27.3792Z" fill="url(#paint0_linear_441_2592)"/>
<path d="M19.0005 6.3335C18.5925 6.3335 18.3483 6.50879 18.1965 6.6345C18.0446 6.76021 17.9559 6.87711 17.8707 6.99323C17.7004 7.22549 17.5651 7.46916 17.4254 7.74781C17.1459 8.30512 16.8606 8.99075 16.5801 9.68167C16.2996 10.3726 16.0259 11.065 15.8008 11.5867C15.701 11.8178 15.6187 11.9986 15.5493 12.1351C15.3978 12.1591 15.2006 12.1856 14.9472 12.2093C14.3816 12.2622 13.6376 12.3086 12.8938 12.3619C12.15 12.4151 11.4073 12.4744 10.7909 12.568C10.4827 12.6148 10.2109 12.6634 9.93735 12.7536C9.80059 12.7987 9.66262 12.8501 9.49615 12.9556C9.32968 13.0612 9.08619 13.2397 8.96011 13.6277C8.83404 14.0158 8.9287 14.3022 9.00134 14.4854C9.07399 14.6686 9.15637 14.7891 9.2405 14.906C9.40877 15.1397 9.60006 15.3426 9.82189 15.5616C10.2656 15.9996 10.8266 16.4833 11.397 16.9635C11.9674 17.4438 12.5415 17.916 12.968 18.2913C13.1585 18.4589 13.3049 18.5993 13.4133 18.7077C13.3893 18.859 13.3532 19.051 13.2979 19.2974C13.1734 19.8517 12.9864 20.5734 12.8072 21.2972C12.628 22.021 12.4551 22.7437 12.3536 23.3589C12.3029 23.6665 12.2658 23.9409 12.2671 24.2289C12.2677 24.3729 12.2759 24.5204 12.3248 24.7113C12.3737 24.9023 12.4648 25.189 12.7948 25.4288C13.1249 25.6686 13.4269 25.6681 13.6236 25.6556C13.8204 25.6431 13.9607 25.6047 14.0978 25.5608C14.3721 25.473 14.625 25.3536 14.9019 25.2103C15.4556 24.9237 16.0873 24.5364 16.7203 24.1423C17.3533 23.7482 17.984 23.3476 18.4727 23.0579C18.6899 22.9292 18.8641 22.8348 19.0005 22.7651C19.137 22.8348 19.3112 22.9292 19.5283 23.0579C20.017 23.3476 20.6477 23.7482 21.2807 24.1423C21.9138 24.5364 22.5455 24.9237 23.0991 25.2103C23.376 25.3536 23.6289 25.473 23.9032 25.5608C24.0403 25.6047 24.1807 25.6431 24.3774 25.6556C24.5741 25.6681 24.8761 25.6687 25.2062 25.4288C25.5363 25.189 25.6273 24.9023 25.6762 24.7113C25.7252 24.5204 25.7334 24.3729 25.734 24.2289C25.7352 23.9409 25.6981 23.6665 25.6474 23.3589C25.5459 22.7437 25.373 22.021 25.1938 21.2972C25.0146 20.5734 24.8276 19.8517 24.7031 19.2974C24.6478 19.051 24.6117 18.859 24.5877 18.7077C24.6961 18.5993 24.8425 18.4589 25.033 18.2913C25.4595 17.916 26.0336 17.4438 26.604 16.9635C27.1744 16.4833 27.7355 15.9996 28.1791 15.5616C28.401 15.3426 28.5923 15.1397 28.7605 14.906C28.8447 14.7891 28.927 14.6686 28.9997 14.4854C29.0723 14.3022 29.167 14.0158 29.0409 13.6277C28.9148 13.2397 28.6714 13.0612 28.5049 12.9556C28.3384 12.8501 28.2004 12.7987 28.0637 12.7536C27.7902 12.6634 27.5183 12.6148 27.2101 12.568C26.5937 12.4744 25.851 12.4151 25.1072 12.3619C24.3634 12.3086 23.6194 12.2622 23.0538 12.2093C22.8004 12.1856 22.6032 12.1591 22.4518 12.1351C22.3824 11.9986 22.3 11.8178 22.2002 11.5867C21.9751 11.065 21.7014 10.3726 21.4209 9.68167C21.1404 8.99075 20.8551 8.30512 20.5756 7.74781C20.4359 7.46916 20.3006 7.22549 20.1303 6.99323C20.0452 6.87711 19.9564 6.76021 19.8046 6.6345C19.6528 6.50879 19.4085 6.3335 19.0005 6.3335ZM19.0005 9.41365C19.1542 9.76293 19.2986 10.0741 19.4623 10.4775C19.7372 11.1545 20.0146 11.8498 20.2623 12.4237C20.3861 12.7107 20.4981 12.9661 20.6169 13.1907C20.7356 13.4152 20.7367 13.5825 21.1735 13.8999C21.6103 14.2172 21.7686 14.1656 22.0188 14.2091C22.2691 14.2527 22.5447 14.2831 22.8559 14.3122C23.4782 14.3704 24.2299 14.4167 24.9588 14.4689C25.3939 14.5001 25.7331 14.5419 26.1133 14.5802C25.8282 14.8348 25.577 15.0662 25.2433 15.3472C24.6843 15.8178 24.1044 16.295 23.6352 16.7079C23.4006 16.9143 23.1935 17.1028 23.0167 17.2852C22.8398 17.4675 22.6805 17.518 22.5136 18.0315C22.3468 18.545 22.4489 18.6789 22.4848 18.9304C22.5207 19.1818 22.5771 19.4543 22.6456 19.7592C22.7825 20.369 22.9689 21.0951 23.1445 21.8044C23.2493 22.2275 23.315 22.565 23.396 22.9383C23.0657 22.7458 22.7646 22.5794 22.394 22.3487C21.7737 21.9625 21.1422 21.5623 20.6045 21.2436C20.3357 21.0842 20.0945 20.9431 19.8664 20.8313C19.6384 20.7194 19.5404 20.5839 19.0005 20.5839C18.4606 20.5839 18.3627 20.7194 18.1346 20.8313C17.9065 20.9431 17.6654 21.0842 17.3965 21.2436C16.8588 21.5623 16.2273 21.9625 15.607 22.3487C15.2364 22.5794 14.9353 22.7458 14.605 22.9383C14.686 22.565 14.7518 22.2275 14.8565 21.8044C15.0321 21.0951 15.2185 20.369 15.3555 19.7592C15.4239 19.4543 15.4804 19.1818 15.5163 18.9304C15.5522 18.6789 15.6543 18.545 15.4874 18.0315C15.3206 17.518 15.1612 17.4675 14.9844 17.2852C14.8075 17.1028 14.6005 16.9143 14.3658 16.7079C13.8966 16.295 13.3167 15.8178 12.7577 15.3472C12.424 15.0662 12.1728 14.8348 11.8877 14.5802C12.268 14.5419 12.6071 14.5001 13.0422 14.4689C13.7711 14.4167 14.5228 14.3704 15.1452 14.3122C15.4563 14.2831 15.732 14.2527 15.9822 14.2091C16.2325 14.1656 16.3907 14.2172 16.8275 13.8999C17.2643 13.5825 17.2654 13.4152 17.3842 13.1907C17.5029 12.9661 17.6149 12.7107 17.7388 12.4237C17.9864 11.8498 18.2638 11.1545 18.5387 10.4775C18.7025 10.0741 18.8468 9.76293 19.0005 9.41365Z" fill="url(#paint1_linear_441_2592)"/>
<defs>
<linearGradient id="paint0_linear_441_2592" x1="0" y1="19.0002" x2="38" y2="19.0002" gradientUnits="userSpaceOnUse">
<stop stop-color="#9942FF"/>
<stop offset="1" stop-color="#FC067D"/>
</linearGradient>
<linearGradient id="paint1_linear_441_2592" x1="8.89844" y1="15.9967" x2="29.1026" y2="15.9967" gradientUnits="userSpaceOnUse">
<stop stop-color="#FB9004"/>
<stop offset="1" stop-color="#FC067D"/>
</linearGradient>
</defs>
</svg>
