<svg width="37" height="25" viewBox="0 0 37 25" fill="none" xmlns="http://www.w3.org/2000/svg">
<path d="M16.314 12.4096H20.6858C21.095 12.4096 21.4258 12.0789 21.4258 11.6697C21.4258 11.2605 21.095 10.9297 20.6858 10.9297H16.314C15.9048 10.9297 15.574 11.2605 15.574 11.6697C15.574 12.0789 15.9048 12.4096 16.314 12.4096Z" fill="url(#paint0_linear_158_2495)"/>
<path fill-rule="evenodd" clip-rule="evenodd" d="M18.5 12.4094C19.0677 12.4094 19.6206 12.3285 20.1474 12.1777C20.2822 12.3206 20.4735 12.4097 20.6858 12.4097C23.8936 12.4097 26.5028 15.0189 26.5028 18.2267L26.5028 18.2271V21.0547C21.4593 23.5881 15.54 23.5882 10.4971 21.0551V18.236L10.4972 18.2267C10.4972 15.0189 13.1063 12.4097 16.3142 12.4097C16.5265 12.4097 16.7178 12.3206 16.8526 12.1777C17.3794 12.3285 17.9323 12.4094 18.5 12.4094ZM9.01717 21.4608V18.2265L9.01723 18.2167C9.02047 15.8181 10.187 13.6868 11.9819 12.3582C11.2004 11.5242 10.1064 11.0428 8.93804 11.0428C8.7673 11.0428 8.61022 10.9852 8.48512 10.8884C8.10361 10.9888 7.70543 11.0424 7.29738 11.0424C6.88997 11.0424 6.49238 10.9889 6.11139 10.8888C5.98628 10.9856 5.82917 11.0433 5.65839 11.0433C3.35484 11.0433 1.48047 12.9176 1.48047 15.2212C1.48047 15.231 1.48028 15.2409 1.4799 15.2506V17.2273C2.72226 17.8385 4.04624 18.2472 5.42228 18.4453C5.82705 18.5038 6.1075 18.879 6.04978 19.2837C5.9965 19.6522 5.67979 19.9179 5.31794 19.9179C5.28316 19.9179 5.24764 19.9157 5.21139 19.9112C3.52053 19.667 1.8985 19.1365 0.391907 18.3336C0.139423 18.1988 -0.00336456 17.938 -6.10352e-05 17.6699V17.6697V15.2107L-3.8147e-06 15.2014C9.53674e-05 15.1933 0.000328064 15.1853 0.000682831 15.1772C0.0202065 12.6234 1.74117 10.4661 4.08389 9.78622C3.09312 8.89314 2.45941 7.60699 2.45941 6.20442C2.45941 3.58193 4.6749 1.36644 7.29738 1.36644C9.92061 1.36644 12.1361 3.58193 12.1361 6.20442C12.1361 7.60624 11.5031 8.89178 10.5131 9.7848C11.5883 10.095 12.5516 10.7198 13.2786 11.5914C13.7418 11.3787 14.231 11.213 14.7399 11.1007C13.2641 9.95448 12.2953 8.16853 12.2953 6.20472C12.2953 2.84152 15.1368 0 18.5 0C21.8632 0 24.7047 2.84152 24.7047 6.20472C24.7047 8.16854 23.7359 9.95449 22.2601 11.1007C22.7691 11.2131 23.2583 11.3787 23.7216 11.5915C24.4487 10.7198 25.4121 10.095 26.4877 9.78484C25.4977 8.89181 24.8646 7.60621 24.8646 6.2043C24.8646 3.58181 27.0801 1.36632 29.7026 1.36632C32.325 1.36632 34.5405 3.58181 34.5405 6.2043C34.5405 7.60688 33.9068 8.89304 32.916 9.78612C35.2718 10.4698 36.9994 12.6475 36.9994 15.2211V15.2212V17.6503C37.0022 17.7226 36.9944 17.7946 36.9765 17.8639C36.9507 17.9654 36.9039 18.0584 36.8411 18.1381C36.8163 18.1696 36.7888 18.1993 36.7587 18.2267C36.7085 18.2726 36.6521 18.3115 36.5907 18.3422C35.089 19.14 33.4729 19.6674 31.7885 19.9107C31.7522 19.9159 31.7167 19.9181 31.6819 19.9181C31.3201 19.9181 31.0034 19.6524 30.9501 19.2832C30.8924 18.8784 31.1728 18.5032 31.5776 18.4448C32.9528 18.2467 34.2772 17.838 35.5195 17.2269V15.2212V15.2211C35.5195 12.9168 33.6451 11.0424 31.3416 11.0431C31.1708 11.0431 31.0137 10.9855 30.8886 10.8886C30.5076 10.9888 30.11 11.0423 29.7026 11.0423C29.2948 11.0423 28.8968 10.9887 28.5154 10.8884C28.3903 10.9854 28.233 11.0431 28.0621 11.0431C26.8938 11.0431 25.8004 11.525 25.0186 12.3587C26.8155 13.6889 27.9827 15.8238 27.9828 18.2264V18.2265V18.2267V21.4732C27.9944 21.7488 27.8508 22.0198 27.5914 22.1588C24.7447 23.6765 21.6227 24.4358 18.5 24.4358C15.3773 24.4358 12.2554 23.6758 9.40792 22.1588C9.14468 22.0178 9.00068 21.7405 9.01717 21.4608ZM18.5 1.47996C21.0611 1.47996 23.2247 3.64365 23.2247 6.20472C23.2247 8.76579 21.0611 10.9295 18.5 10.9295C15.9389 10.9295 13.7752 8.76579 13.7752 6.20472C13.7752 3.64365 15.9389 1.47996 18.5 1.47996ZM10.6561 6.20442C10.6561 4.38407 9.11773 2.84639 7.29738 2.84639C5.47704 2.84639 3.93937 4.38407 3.93937 6.20442C3.93937 8.02476 5.47704 9.56244 7.29738 9.56244C9.11773 9.56244 10.6561 8.02476 10.6561 6.20442ZM29.7026 2.84628C31.5229 2.84628 33.0606 4.38395 33.0606 6.2043C33.0606 8.02465 31.5229 9.56232 29.7026 9.56232C27.8822 9.56232 26.3445 8.02465 26.3445 6.2043C26.3445 4.38395 27.8822 2.84628 29.7026 2.84628Z" fill="url(#paint1_linear_158_2495)"/>
<defs>
<linearGradient id="paint0_linear_158_2495" x1="21.4258" y1="11.6697" x2="15.574" y2="11.6697" gradientUnits="userSpaceOnUse">
<stop stop-color="#9942FF"/>
<stop offset="1" stop-color="#FC067D"/>
</linearGradient>
<linearGradient id="paint1_linear_158_2495" x1="37" y1="12.2179" x2="-9.91821e-05" y2="12.2179" gradientUnits="userSpaceOnUse">
<stop stop-color="#9942FF"/>
<stop offset="1" stop-color="#FC067D"/>
</linearGradient>
</defs>
</svg>
