<svg width="51" height="42" viewBox="0 0 51 42" fill="none" xmlns="http://www.w3.org/2000/svg">
<path d="M48.501 20.4999C44.101 26.8999 26.3343 32.4999 18.001 34.4999L21.001 36.9999L29.501 38.9999L37.501 37.4999L44.501 33.4999L48.001 25.9999L48.501 20.4999Z" fill="#DDDFE8"/>
<path fill-rule="evenodd" clip-rule="evenodd" d="M30.0724 3.53779C25.7398 3.53779 21.7822 5.15338 18.768 7.81144C18.0368 8.45768 16.9165 8.38928 16.2703 7.65578C15.6241 6.92464 15.6948 5.80669 16.426 5.16046C20.0652 1.94814 24.8435 0 30.0724 0C41.4617 0 50.7095 9.24779 50.7095 20.6371C50.7095 32.0264 41.4617 41.2742 30.0724 41.2742C24.8435 41.2742 20.0652 39.3261 16.426 36.1138C15.6948 35.4675 15.6241 34.3496 16.2703 33.6184C16.9165 32.8849 18.0368 32.8165 18.768 33.4628C21.7822 36.1208 25.7398 37.7364 30.0724 37.7364C39.5089 37.7364 47.1717 30.0736 47.1717 20.6371C47.1717 11.2006 39.5089 3.53779 30.0724 3.53779ZM27.3611 19.6937V10.2596C27.3611 9.28313 28.1536 8.49066 29.13 8.49066C30.1065 8.49066 30.8989 9.28313 30.8989 10.2596V18.9602L37.9273 25.9909C38.6184 26.6796 38.6184 27.8023 37.9273 28.491C37.2387 29.182 36.116 29.182 35.4273 28.491L27.88 20.9437C27.5475 20.6135 27.3611 20.163 27.3611 19.6937Z" fill="url(#paint0_linear_497_889)"/>
<path fill-rule="evenodd" clip-rule="evenodd" d="M1.7689 14.1511H15.9201C16.8965 14.1511 17.689 13.3586 17.689 12.3822C17.689 11.4057 16.8965 10.6133 15.9201 10.6133H1.7689C0.792465 10.6133 0 11.4057 0 12.3822C0 13.3586 0.792465 14.1511 1.7689 14.1511ZM4.12875 22.4058H18.2799C19.2563 22.4058 20.0488 21.6133 20.0488 20.6369C20.0488 19.6605 19.2563 18.868 18.2799 18.868H4.12875C3.15232 18.868 2.35985 19.6605 2.35985 20.6369C2.35985 21.6133 3.15232 22.4058 4.12875 22.4058ZM20.6373 30.6608H6.48613C5.5097 30.6608 4.71724 29.8683 4.71724 28.8919C4.71724 27.9155 5.5097 27.123 6.48613 27.123H20.6373C21.6137 27.123 22.4062 27.9155 22.4062 28.8919C22.4062 29.8683 21.6137 30.6608 20.6373 30.6608Z" fill="url(#paint1_linear_497_889)"/>
<defs>
<linearGradient id="paint0_linear_497_889" x1="15.8281" y1="20.6371" x2="50.7095" y2="20.6371" gradientUnits="userSpaceOnUse">
<stop stop-color="#9942FF"/>
<stop offset="1" stop-color="#FC067D"/>
</linearGradient>
<linearGradient id="paint1_linear_497_889" x1="0" y1="20.637" x2="22.4062" y2="20.637" gradientUnits="userSpaceOnUse">
<stop stop-color="#FB9004"/>
<stop offset="1" stop-color="#FC067D"/>
</linearGradient>
</defs>
</svg>
