<svg width="33" height="43" viewBox="0 0 33 43" fill="none" xmlns="http://www.w3.org/2000/svg">
<path d="M13.8237 40.9873C7.09563 37.6233 8.21698 23.2751 9.61867 16.5215C7.96213 18.3055 4.5726 21.9498 4.26677 22.2557C3.96095 22.5615 2.35538 28.4996 1.59082 31.4304V37.1646L4.64905 40.6051L9.61867 40.9873H13.8237Z" fill="#DDDFE8"/>
<path d="M28.9613 20.4802C27.5622 18.2954 25.954 16.6155 24.2708 15.5319C24.9666 14.9877 25.4151 14.1415 25.4151 13.1921C25.4151 12.0894 24.8104 11.1259 23.9152 10.6133L27.7092 3.2514L27.3025 2.73542C24.2953 -1.08062 21.6246 -0.0461087 19.4784 0.785313C18.481 1.17166 17.5388 1.53664 16.5864 1.45484L16.4991 1.44735L16.4117 1.45484C15.4562 1.53689 14.5534 1.1691 13.5971 0.77978C11.5664 -0.0467896 9.03933 -1.0756 6.03615 2.73542L5.64487 3.23191L9.11968 10.5921C8.20425 11.0992 7.58289 12.0744 7.58289 13.1921C7.58289 14.1415 8.03146 14.9877 8.72729 15.5319C7.04436 16.6154 5.43641 18.2951 4.03777 20.4796C1.67425 24.1709 0.263184 28.7068 0.263184 32.6131C0.263184 35.3605 0.973484 37.6823 2.31722 39.3273C3.88405 41.2453 6.20655 42.2179 9.22028 42.2179H23.7802C26.7936 42.2179 29.1159 41.2455 30.6826 39.3278C32.0263 37.683 32.7365 35.3616 32.7365 32.6145C32.7365 28.7081 31.3251 24.1719 28.9613 20.4802ZM12.8268 2.67176C13.89 3.10449 15.0919 3.594 16.4991 3.49679C17.888 3.5923 19.1234 3.11351 20.2164 2.69006C22.1285 1.94929 23.4363 1.44293 25.2817 3.50258L21.8192 10.2213H11.2035L8.03963 3.51952C9.85296 1.46148 11.0026 1.92911 12.8268 2.67176ZM10.5562 14.1202C10.043 14.1202 9.62553 13.7039 9.62553 13.1921C9.62553 12.6891 10.0517 12.264 10.5562 12.264H22.4418C22.9462 12.264 23.3724 12.6891 23.3724 13.1921C23.3724 13.7039 22.955 14.1202 22.4418 14.1202H19.8979H13.1H10.5562ZM29.1006 38.0354C27.9407 39.4552 26.1507 40.1751 23.7802 40.1751H9.22028C3.50554 40.1751 2.30599 36.0628 2.30599 32.613C2.30599 29.1338 3.62879 24.9067 5.75807 21.5811C7.96285 18.1377 10.6388 16.1629 13.1001 16.1629H19.898C25.3563 16.1629 30.6937 25.5832 30.6937 32.6144C30.6937 34.8852 30.1428 36.7597 29.1006 38.0354Z" fill="url(#paint0_linear_158_2612)"/>
<path d="M16.5188 27.7772C14.7762 27.411 14.3376 27.1795 14.3376 26.1359C14.3376 25.2424 15.2223 24.5154 16.3095 24.5153C17.3967 24.5153 18.2814 25.2423 18.2814 26.1358H20.3241C20.3241 24.4379 19.0514 23.0064 17.3309 22.5931V20.7266H15.2882V22.5931C13.5677 23.0064 12.295 24.4379 12.295 26.1358C12.295 28.9768 14.5841 29.4579 16.0988 29.7763C17.8426 30.1428 18.2814 30.3745 18.2814 31.4197C18.2814 32.3133 17.3967 33.0403 16.3095 33.0403C15.2223 33.0403 14.3376 32.3133 14.3376 31.4197H12.2949C12.2949 33.1177 13.5676 34.5492 15.2881 34.9625V36.8291H17.3309V34.9625C19.0513 34.5491 20.324 33.1177 20.324 31.4197C20.324 28.5771 18.0342 28.0958 16.519 27.7772L16.5188 27.7772Z" fill="url(#paint1_linear_158_2612)"/>
<defs>
<linearGradient id="paint0_linear_158_2612" x1="0.263184" y1="21.1089" x2="32.7365" y2="21.1089" gradientUnits="userSpaceOnUse">
<stop stop-color="#9942FF"/>
<stop offset="1" stop-color="#FC067D"/>
</linearGradient>
<linearGradient id="paint1_linear_158_2612" x1="12.2949" y1="28.7778" x2="20.3241" y2="28.7778" gradientUnits="userSpaceOnUse">
<stop stop-color="#FB9004"/>
<stop offset="1" stop-color="#FC067D"/>
</linearGradient>
</defs>
</svg>
