<svg width="18" height="19" viewBox="0 0 18 19" fill="none" xmlns="http://www.w3.org/2000/svg">
<path d="M1.61283 17.089C1.13687 16.6008 1.13687 15.8094 1.61283 15.3212L15.4254 1.1545C15.9013 0.666335 16.6729 0.666335 17.1488 1.1545C17.6248 1.64267 17.6248 2.43417 17.1488 2.92233L3.3364 17.089C2.86044 17.5771 2.08878 17.5771 1.61283 17.089Z" fill="url(#paint0_linear_158_2754)" stroke="url(#paint1_linear_158_2754)" stroke-width="0.5"/>
<path d="M0.443359 2.03851C0.443359 1.34818 0.989001 0.788507 1.66211 0.788507L16.2872 0.788507C16.9602 0.788507 17.5059 1.34817 17.5059 2.03851L17.5059 17.0386C17.5059 17.7289 16.9602 18.2886 16.2872 18.2886C15.6139 18.2886 15.0684 17.7289 15.0684 17.0386L15.0684 3.28851L1.66211 3.28851C0.989001 3.28851 0.443359 2.72901 0.443359 2.03851Z" fill="url(#paint2_linear_158_2754)" stroke="url(#paint3_linear_158_2754)" stroke-width="0.5"/>
<defs>
<linearGradient id="paint0_linear_158_2754" x1="9.38083" y1="17.4551" x2="9.38083" y2="0.788377" gradientUnits="userSpaceOnUse">
<stop stop-color="#FB9004"/>
<stop offset="1" stop-color="#FC067D"/>
</linearGradient>
<linearGradient id="paint1_linear_158_2754" x1="9.38083" y1="17.4551" x2="9.38083" y2="0.788377" gradientUnits="userSpaceOnUse">
<stop stop-color="#FB9004"/>
<stop offset="1" stop-color="#FC067D"/>
</linearGradient>
<linearGradient id="paint2_linear_158_2754" x1="8.97464" y1="18.2886" x2="8.97464" y2="0.788507" gradientUnits="userSpaceOnUse">
<stop stop-color="#FB9004"/>
<stop offset="1" stop-color="#FC067D"/>
</linearGradient>
<linearGradient id="paint3_linear_158_2754" x1="8.97464" y1="18.2886" x2="8.97464" y2="0.788507" gradientUnits="userSpaceOnUse">
<stop stop-color="#FB9004"/>
<stop offset="1" stop-color="#FC067D"/>
</linearGradient>
</defs>
</svg>
