<svg width="42" height="42" viewBox="0 0 42 42" fill="none" xmlns="http://www.w3.org/2000/svg">
<g clip-path="url(#clip0_216_484)">
<path d="M30 48C24.8 46.752 22.5 39.16 22 35.52L18.5 35L16 37.08L18 39.68V48H30Z" fill="#DDDFE8"/>
<path d="M36.3014 6.52341H41.1797C41.6328 6.52341 42 6.15619 42 5.70309V0.820312C42 0.367218 41.6328 0 41.1797 0H36.3014C35.8483 0 35.4811 0.367218 35.4811 0.820312V2.44139H24.2595V0.820312C24.2595 0.367218 23.8922 0 23.4391 0H18.5609C18.1078 0 17.7405 0.367218 17.7405 0.820312V2.44139H6.51892V0.820312C6.51892 0.367218 6.1517 0 5.69861 0H0.820312C0.367218 0 0 0.367218 0 0.820312V5.70309C0 6.15619 0.367218 6.52341 0.820312 6.52341H5.69861C6.1517 6.52341 6.51892 6.15619 6.51892 5.70309V4.08202H13.3429C10.94 5.17149 8.7735 6.77174 7.00822 8.79529C4.24031 11.9682 2.64006 15.9833 2.45517 20.1797H0.820312C0.367218 20.1797 0 20.5469 0 21V25.8828C0 26.3359 0.367218 26.7031 0.820312 26.7031H5.69861C6.1517 26.7031 6.51892 26.3359 6.51892 25.8828V21C6.51892 20.5469 6.1517 20.1797 5.69861 20.1797H4.09772C4.47583 12.4492 10.1626 5.86652 17.7405 4.38675V5.70341C17.7405 6.15651 18.1078 6.52373 18.5609 6.52373H23.4391C23.8922 6.52373 24.2595 6.15651 24.2595 5.70341V4.38675C31.8374 5.86652 37.5242 12.4492 37.9023 20.1797H36.3014C35.8483 20.1797 35.4811 20.5469 35.4811 21V25.8828C35.4811 26.3359 35.8483 26.7031 36.3014 26.7031H41.1797C41.6328 26.7031 42 26.3359 42 25.8828V21C42 20.5469 41.6328 20.1797 41.1797 20.1797H39.5448C39.3599 15.9833 37.7597 11.9682 34.9918 8.79529C33.2265 6.77174 31.06 5.17149 28.6571 4.08202H35.4811V5.70341C35.4811 6.15619 35.8483 6.52341 36.3014 6.52341ZM4.8783 4.88278H1.64062V1.64062H4.8783V4.88278ZM4.8783 25.0625H1.64062V21.8203H4.8783V25.0625ZM40.3594 25.0625H37.1217V21.8203H40.3594V25.0625ZM22.6188 4.88278H19.3812V1.64062H22.6188V4.88278ZM37.1217 1.64062H40.3594V4.88278H37.1217V1.64062Z" fill="url(#paint0_linear_216_484)"/>
<path fill-rule="evenodd" clip-rule="evenodd" d="M21.0002 8.61328C21.2992 8.61328 21.5744 8.77606 21.7186 9.03786L29.1886 22.6003C29.3712 22.9319 29.3033 23.3453 29.0242 23.601C27.2576 25.2192 26.031 27.3619 25.5234 29.6953H26.2874C27.6444 29.6953 28.7483 30.7992 28.7483 32.1562C28.7483 33.1134 28.1988 33.9443 27.3986 34.3509V41.1797C27.3986 41.6328 27.0314 42 26.5783 42C26.1252 42 25.758 41.6328 25.758 41.1797V34.6172H16.2424V41.1797C16.2424 41.6328 15.8752 42 15.4221 42C14.969 42 14.6018 41.6328 14.6018 41.1797V34.3509C13.8016 33.9443 13.2521 33.1137 13.2521 32.1562C13.2521 30.7995 14.356 29.6953 15.713 29.6953H16.4769C15.9694 27.3622 14.7427 25.2192 12.9762 23.6013C12.6971 23.3456 12.6292 22.9319 12.8118 22.6006L14.0551 20.3428C14.2736 19.9458 14.7729 19.8016 15.1696 20.0201C15.5663 20.2386 15.7108 20.7376 15.4922 21.1343L14.5521 22.8412C16.4007 24.7113 17.6609 27.11 18.1509 29.6953H23.8495C24.3391 27.11 25.5994 24.7113 27.4483 22.8412L21.8205 12.6232V18.6727C22.9593 19.0239 23.7893 20.0861 23.7893 21.3387C23.7893 22.8765 22.538 24.1278 21.0002 24.1278C19.4624 24.1278 18.2111 22.8765 18.2111 21.3387C18.2111 20.0861 19.0411 19.0239 20.1799 18.6727V12.6232L18.3117 16.015C18.0932 16.412 17.594 16.5562 17.1976 16.3377C16.8006 16.1195 16.6561 15.6205 16.8746 15.2235L20.2818 9.03786C20.426 8.77606 20.7012 8.61328 21.0002 8.61328ZM19.8518 21.3387C19.8518 21.9719 20.367 22.4871 21.0002 22.4871C21.6334 22.4871 22.1486 21.9719 22.1486 21.3387C22.1486 20.7052 21.6334 20.1903 21.0002 20.1903C20.367 20.1903 19.8518 20.7052 19.8518 21.3387ZM26.2874 32.9766C26.7398 32.9766 27.1077 32.6087 27.1077 32.1562C27.1077 31.7038 26.7398 31.3359 26.2874 31.3359H15.713C15.2606 31.3359 14.8927 31.7038 14.8927 32.1562C14.8927 32.6087 15.2606 32.9766 15.713 32.9766H26.2874ZM16.7099 18.8014C16.5574 18.9539 16.3459 19.0411 16.1299 19.0411C15.9133 19.0411 15.7018 18.9539 15.5493 18.8014C15.3968 18.6479 15.3096 18.4374 15.3096 18.2208C15.3096 18.0048 15.3968 17.7943 15.5493 17.6408C15.7018 17.4883 15.9133 17.4005 16.1299 17.4005C16.3459 17.4005 16.5574 17.4883 16.7099 17.6408C16.8624 17.7943 16.9502 18.0048 16.9502 18.2208C16.9502 18.4374 16.8624 18.6479 16.7099 18.8014Z" fill="url(#paint1_linear_216_484)"/>
</g>
<defs>
<linearGradient id="paint0_linear_216_484" x1="0" y1="13.3515" x2="42" y2="13.3515" gradientUnits="userSpaceOnUse">
<stop stop-color="#FB9004"/>
<stop offset="1" stop-color="#FC067D"/>
</linearGradient>
<linearGradient id="paint1_linear_216_484" x1="12.71" y1="25.3066" x2="29.2904" y2="25.3066" gradientUnits="userSpaceOnUse">
<stop stop-color="#9942FF"/>
<stop offset="1" stop-color="#FC067D"/>
</linearGradient>
<clipPath id="clip0_216_484">
<rect width="42" height="42" fill="white"/>
</clipPath>
</defs>
</svg>
