<svg width="66" height="67" viewBox="0 0 66 67" fill="none" xmlns="http://www.w3.org/2000/svg">
<g clip-path="url(#clip0_613_1075)">
<path fill-rule="evenodd" clip-rule="evenodd" d="M38.4998 26.1477C36.8717 27.2356 34.9576 27.8162 32.9996 27.8162C30.3749 27.8133 27.8584 26.7693 26.0025 24.9133C24.1465 23.0573 23.1025 20.5409 23.0996 17.9162C23.0996 15.9581 23.6802 14.0441 24.7681 12.416C25.8559 10.788 27.4021 9.51908 29.211 8.76977C31.02 8.02046 33.0106 7.82441 34.931 8.2064C36.8514 8.5884 38.6154 9.53128 40 10.9158C41.3845 12.3004 42.3274 14.0644 42.7094 15.9848C43.0914 17.9052 42.8953 19.8958 42.146 21.7047C41.3967 23.5137 40.1278 25.0599 38.4998 26.1477ZM37.2775 11.5139C36.0112 10.6678 34.5225 10.2162 32.9996 10.2162C30.9582 10.2185 29.001 11.0305 27.5575 12.474C26.1139 13.9176 25.3019 15.8747 25.2996 17.9162C25.2996 19.4391 25.7512 20.9278 26.5973 22.1941C27.4434 23.4603 28.646 24.4473 30.0529 25.0301C31.4599 25.6128 33.0082 25.7653 34.5018 25.4682C35.9955 25.1711 37.3675 24.4378 38.4443 23.3609C39.5212 22.284 40.2546 20.912 40.5517 19.4184C40.8488 17.9247 40.6963 16.3765 40.1135 14.9695C39.5307 13.5625 38.5438 12.3599 37.2775 11.5139ZM36.0556 22.4892C35.1512 23.0936 34.0878 23.4161 33 23.4161C31.5418 23.4144 30.1439 22.8344 29.1128 21.8033C28.0818 20.7722 27.5017 19.3743 27.5 17.9161C27.5 16.8283 27.8226 15.765 28.4269 14.8605C29.0313 13.956 29.8902 13.2511 30.8952 12.8348C31.9002 12.4185 33.0061 12.3096 34.073 12.5218C35.1399 12.734 36.1199 13.2579 36.8891 14.0271C37.6583 14.7962 38.1821 15.7762 38.3943 16.8431C38.6065 17.91 38.4976 19.0159 38.0813 20.0209C37.6651 21.0259 36.9601 21.8849 36.0556 22.4892ZM34.8334 15.1723C34.2907 14.8097 33.6527 14.6161 33 14.6161C32.1248 14.6161 31.2854 14.9638 30.6665 15.5827C30.0477 16.2016 29.7 17.0409 29.7 17.9161C29.7 18.5688 29.8935 19.2068 30.2561 19.7495C30.6188 20.2922 31.1341 20.7152 31.7371 20.9649C32.3401 21.2147 33.0037 21.2801 33.6438 21.1527C34.2839 21.0254 34.8719 20.7111 35.3335 20.2496C35.795 19.7881 36.1093 19.2001 36.2366 18.5599C36.3639 17.9198 36.2986 17.2563 36.0488 16.6533C35.799 16.0503 35.3761 15.5349 34.8334 15.1723Z" fill="url(#paint0_linear_613_1075)"/>
<path d="M65.999 42.1162C65.9977 41.6589 65.8534 41.2134 65.5863 40.8422C65.3193 40.471 64.9428 40.1926 64.5096 40.046L53.3809 36.0662L64.5107 32.0853C64.9443 31.9398 65.3213 31.6619 65.5883 31.2906C65.8554 30.9193 65.9991 30.4735 65.9991 30.0162C65.9991 29.5588 65.8554 29.1131 65.5883 28.7418C65.3213 28.3705 64.9443 28.0925 64.5107 27.9471L47.2407 21.7651C47.2704 21.6551 47.3078 21.5451 47.3342 21.4351L49.3659 20.8136C49.6831 20.7186 49.9646 20.5308 50.174 20.2743C50.3834 20.0179 50.5111 19.7045 50.5407 19.3748C50.5847 18.8941 50.6056 18.4068 50.6056 17.9162C50.6056 17.4256 50.5847 16.9383 50.5407 16.4576C50.5109 16.1276 50.383 15.8141 50.1734 15.5574C49.9639 15.3008 49.6822 15.1128 49.3648 15.0177L47.3276 14.3962C46.9729 12.9425 46.396 11.5522 45.6171 10.2745L46.6148 8.40448C46.773 8.1127 46.84 7.78015 46.807 7.44989C46.7741 7.11963 46.6427 6.80686 46.43 6.55208C46.1206 6.18175 45.7906 5.82315 45.44 5.47628C45.0895 5.12941 44.7305 4.79941 44.3631 4.48628C44.1085 4.27454 43.7964 4.1438 43.4669 4.11087C43.1373 4.07794 42.8055 4.14432 42.514 4.30148L40.6352 5.30028C39.3591 4.52139 37.9708 3.94337 36.519 3.58648L35.8986 1.55478C35.8023 1.23795 35.6138 0.956996 35.3572 0.747755C35.1005 0.538515 34.7874 0.410478 34.4576 0.379981C33.4872 0.292529 32.5109 0.292529 31.5404 0.379981C31.2106 0.410193 30.8973 0.538276 30.6407 0.747795C30.3841 0.957313 30.196 1.23871 30.1005 1.55588L29.479 3.58648C28.0258 3.94226 26.636 4.51955 25.3584 5.29808L23.4818 4.30038C23.1896 4.14285 22.8569 4.07637 22.5266 4.1095C22.1963 4.14263 21.8834 4.27385 21.6283 4.48628C21.2587 4.79428 20.9001 5.12428 20.5536 5.47628C20.2071 5.82828 19.876 6.18138 19.5636 6.55098C19.3508 6.80543 19.2192 7.11788 19.1859 7.44792C19.1525 7.77796 19.219 8.11041 19.3766 8.40228L20.3754 10.28C19.5998 11.5567 19.0248 12.9449 18.6704 14.3962L16.6387 15.0177C16.3215 15.1126 16.0401 15.3005 15.8307 15.5569C15.6213 15.8134 15.4935 16.1267 15.4639 16.4565C15.4199 16.9372 15.399 17.4245 15.399 17.9151C15.399 18.4057 15.4199 18.893 15.4639 19.3715C15.4934 19.7018 15.6212 20.0158 15.8308 20.2728C16.0404 20.5298 16.3222 20.7182 16.6398 20.8136L18.6704 21.434C18.6968 21.544 18.7342 21.654 18.7639 21.764L1.48732 27.9471C1.05372 28.0925 0.676772 28.3705 0.409709 28.7418C0.142645 29.1131 -0.00103267 29.5588 -0.00103267 30.0162C-0.00103267 30.4735 0.142645 30.9193 0.409709 31.2906C0.676772 31.6619 1.05372 31.9398 1.48732 32.0853L12.6171 36.0662L1.48732 40.046C1.05346 40.1915 0.676279 40.4696 0.409048 40.8411C0.141817 41.2125 -0.00195313 41.6586 -0.00195312 42.1162C-0.00195312 42.5738 0.141817 43.0198 0.409048 43.3913C0.676279 43.7628 1.05346 44.0409 1.48732 44.1864L11.0782 47.6162L1.48732 51.0471C1.05346 51.1926 0.676279 51.4707 0.409048 51.8422C0.141817 52.2136 -0.00195312 52.6597 -0.00195312 53.1173C-0.00195313 53.5749 0.141817 54.0209 0.409048 54.3924C0.676279 54.7639 1.05346 55.042 1.48732 55.1875L32.2081 66.1776C32.7181 66.3624 33.2767 66.3624 33.7866 66.1776L64.5096 55.1875C64.9435 55.042 65.3207 54.7639 65.5879 54.3924C65.8551 54.0209 65.9989 53.5749 65.9989 53.1173C65.9989 52.6597 65.8551 52.2136 65.5879 51.8422C65.3207 51.4707 64.9435 51.1926 64.5096 51.0471L54.9209 47.6162L64.5107 44.1864C64.9437 44.0396 65.3199 43.7611 65.5868 43.3899C65.8536 43.0187 65.9978 42.5734 65.999 42.1162ZM17.6265 18.8149C17.6078 18.5179 17.599 18.2176 17.599 17.9162C17.599 17.6148 17.6078 17.3156 17.6265 17.0175L19.9255 16.3146C20.1161 16.2567 20.2873 16.1481 20.421 16.0005C20.5546 15.8529 20.6457 15.6717 20.6845 15.4764C21.0041 13.8537 21.6444 12.311 22.5677 10.9389C22.6787 10.7734 22.7426 10.5809 22.7527 10.3819C22.7627 10.183 22.7186 9.98501 22.6249 9.80918L21.493 7.68618C21.691 7.46618 21.8956 7.24618 22.1101 7.03168C22.3246 6.81718 22.5413 6.61148 22.7701 6.41458L24.8986 7.54648C25.0746 7.63998 25.2726 7.68394 25.4715 7.67368C25.6705 7.66341 25.863 7.59929 26.0283 7.48818C27.3977 6.56313 28.9376 5.91996 30.5581 5.59618C30.7532 5.55758 30.9342 5.46682 31.0818 5.33356C31.2294 5.20029 31.3381 5.02951 31.3963 4.83938L32.1003 2.53928C32.6989 2.50188 33.2992 2.50188 33.8977 2.53928L34.6017 4.83938C34.66 5.02951 34.7687 5.20029 34.9163 5.33356C35.0639 5.46682 35.2449 5.55758 35.4399 5.59618C37.062 5.91581 38.6039 6.55606 39.9752 7.47938C40.1406 7.59049 40.333 7.65461 40.532 7.66488C40.731 7.67514 40.929 7.63118 41.1049 7.53768L43.229 6.41018C43.449 6.60708 43.669 6.81388 43.8835 7.02728C44.098 7.24068 44.3026 7.45848 44.5006 7.68178L43.3731 9.80918C43.2793 9.98515 43.235 10.1833 43.2451 10.3825C43.2551 10.5817 43.3192 10.7744 43.4303 10.94C44.356 12.3111 44.9981 13.8535 45.319 15.4764C45.3578 15.6717 45.4489 15.8529 45.5826 16.0005C45.7162 16.1481 45.8875 16.2567 46.078 16.3146L48.377 17.0175C48.3957 17.3145 48.4045 17.6148 48.4045 17.9162C48.4045 18.2176 48.3957 18.5168 48.377 18.8149L46.078 19.5178C45.8875 19.5757 45.7162 19.6843 45.5826 19.8319C45.4489 19.9795 45.3578 20.1607 45.319 20.356C44.9994 21.9787 44.3592 23.5213 43.4358 24.8935C43.3249 25.059 43.261 25.2515 43.2509 25.4504C43.2408 25.6494 43.285 25.8474 43.3786 26.0232L44.505 28.1462C44.307 28.3662 44.1024 28.5862 43.8879 28.8062C43.6734 29.0262 43.4567 29.2264 43.2334 29.4233L41.1049 28.2914C40.929 28.1979 40.731 28.1539 40.532 28.1642C40.333 28.1745 40.1406 28.2386 39.9752 28.3497C38.6041 29.2742 37.0622 29.9155 35.4399 30.2362C35.2449 30.2748 35.0639 30.3655 34.9163 30.4988C34.7687 30.6321 34.66 30.8029 34.6017 30.993L33.8977 33.2931C33.2992 33.3305 32.6989 33.3305 32.1003 33.2931L31.3963 30.993C31.3381 30.8029 31.2294 30.6321 31.0818 30.4988C30.9342 30.3655 30.7532 30.2748 30.5581 30.2362C28.9356 29.9164 27.3933 29.2758 26.0217 28.3519C25.8563 28.2409 25.6638 28.177 25.4648 28.167C25.2658 28.1569 25.0679 28.201 24.892 28.2947L22.769 29.4211C22.549 29.2253 22.329 29.0185 22.109 28.8051C21.889 28.5917 21.6899 28.3739 21.4919 28.1451L22.6238 26.0177C22.7177 25.8417 22.762 25.6435 22.7519 25.4444C22.7418 25.2452 22.6778 25.0525 22.5666 24.8869C21.6429 23.5153 21.0026 21.973 20.6834 20.3505C20.6446 20.1551 20.5535 19.974 20.4199 19.8264C20.2862 19.6788 20.115 19.5702 19.9244 19.5123L17.6265 18.8149ZM19.4965 23.8397C19.7542 24.4308 20.0504 25.0044 20.3831 25.5568L19.3854 27.4268C19.2272 27.7186 19.1603 28.0511 19.1932 28.3814C19.2262 28.7116 19.3575 29.0244 19.5702 29.2792C19.8797 29.6495 20.2097 30.0081 20.5602 30.355C20.9108 30.7019 21.2697 31.0319 21.6371 31.345C21.8919 31.5563 22.204 31.6868 22.5335 31.7197C22.8629 31.7526 23.1946 31.6865 23.4862 31.5298L25.3639 30.531C26.6398 31.3099 28.0276 31.8882 29.479 32.2459L30.0994 34.2776C30.1953 34.5943 30.3836 34.8753 30.6401 35.0844C30.8966 35.2935 31.2097 35.4212 31.5393 35.4513C32.02 35.4953 32.5073 35.5162 32.9979 35.5162C33.4885 35.5162 33.9758 35.4953 34.4565 35.4513C34.7864 35.4212 35.0998 35.2932 35.3564 35.0836C35.613 34.8741 35.801 34.5926 35.8964 34.2754L36.5168 32.2459C37.97 31.8901 39.3598 31.3128 40.6374 30.5343L42.514 31.532C42.8062 31.6898 43.1389 31.7565 43.4693 31.7233C43.7997 31.6902 44.1125 31.5588 44.3675 31.3461C44.7371 31.0381 45.0957 30.7081 45.4422 30.3561C45.7887 30.0041 46.1198 29.651 46.4322 29.2814C46.6451 29.0269 46.7766 28.7145 46.81 28.3844C46.8433 28.0544 46.7769 27.722 46.6192 27.4301L45.6204 25.5524C45.9528 25 46.2486 24.4264 46.5059 23.8353L63.7693 30.0162L32.9517 41.003L2.22872 30.0162L19.4965 23.8397ZM63.7693 53.1162L32.9517 64.1063L2.22872 53.1162L14.343 48.7822L32.2092 55.1721C32.7192 55.3569 33.2778 55.3569 33.7877 55.1721L51.655 48.7844L63.7693 53.1162ZM32.9517 53.103L2.22872 42.1162L15.883 37.2344L32.2092 43.0743C32.7192 43.2591 33.2778 43.2591 33.7877 43.0743L50.115 37.2344L63.7693 42.1162L32.9517 53.103Z" fill="url(#paint1_linear_613_1075)"/>
</g>
<defs>
<linearGradient id="paint0_linear_613_1075" x1="23.0996" y1="17.9162" x2="42.8996" y2="17.9162" gradientUnits="userSpaceOnUse">
<stop stop-color="#FB9004"/>
<stop offset="1" stop-color="#FC067D"/>
</linearGradient>
<linearGradient id="paint1_linear_613_1075" x1="-0.00195312" y1="33.3153" x2="65.9991" y2="33.3153" gradientUnits="userSpaceOnUse">
<stop stop-color="#9942FF"/>
<stop offset="1" stop-color="#FC067D"/>
</linearGradient>
<clipPath id="clip0_613_1075">
<rect width="66" height="66" fill="white" transform="translate(0 0.316162)"/>
</clipPath>
</defs>
</svg>
