<svg width="39" height="35" viewBox="0 0 39 35" fill="none" xmlns="http://www.w3.org/2000/svg">
<path d="M36.1545 3.65733C34.231 1.4747 31.5624 0.272705 28.6406 0.272705C24.5313 0.272705 21.9297 2.72696 20.4708 4.78589C20.0923 5.32016 19.7703 5.85587 19.5 6.35998C19.2297 5.85587 18.9078 5.32016 18.5292 4.78589C17.0703 2.72696 14.4687 0.272705 10.3594 0.272705C7.43757 0.272705 4.76904 1.47477 2.8454 3.6574C1.01057 5.73948 0 8.52798 0 11.5092C0 14.7543 1.26697 17.7727 3.98722 21.0078C6.41839 23.8993 9.91598 26.8798 13.9661 30.331C15.4753 31.6171 17.036 32.9471 18.6975 34.4008L18.7474 34.4445C18.9628 34.6331 19.2314 34.7274 19.5 34.7274C19.7686 34.7274 20.0372 34.6331 20.2526 34.4445L20.3025 34.4008C21.964 32.9471 23.5247 31.6172 25.0341 30.3309C29.084 26.8798 32.5816 23.8994 35.0128 21.0078C37.733 17.7726 39 14.7543 39 11.5092C39 8.52798 37.9894 5.73948 36.1545 3.65733ZM23.5518 28.5917C22.2508 29.7003 20.9118 30.8413 19.5 32.0687C18.0882 30.8415 16.7492 29.7004 15.448 28.5916C7.52159 21.8372 2.28516 17.375 2.28516 11.5092C2.28516 9.08465 3.09296 6.8327 4.5598 5.16827C6.04348 3.48495 8.10309 2.55786 10.3594 2.55786C13.4922 2.55786 15.5174 4.4879 16.6646 6.10701C17.6936 7.55915 18.2305 9.02302 18.4136 9.58494C18.5668 10.0553 19.0053 10.3736 19.5 10.3736C19.9947 10.3736 20.4332 10.0553 20.5864 9.58494C20.7695 9.02302 21.3064 7.55915 22.3354 6.10694C23.4826 4.4879 25.5078 2.55786 28.6406 2.55786C30.8969 2.55786 32.9565 3.48495 34.4401 5.16827C35.907 6.8327 36.7148 9.08465 36.7148 11.5092C36.7148 17.375 31.4784 21.8372 23.5518 28.5917Z" fill="url(#paint0_linear_158_3035)"/>
<defs>
<linearGradient id="paint0_linear_158_3035" x1="0" y1="17.5" x2="39" y2="17.5" gradientUnits="userSpaceOnUse">
<stop stop-color="#9942FF"/>
<stop offset="1" stop-color="#FC067D"/>
</linearGradient>
</defs>
</svg>
