<svg width="35" height="36" viewBox="0 0 35 36" fill="none" xmlns="http://www.w3.org/2000/svg">
<rect x="21.25" y="12.9805" width="9.99999" height="21.25" fill="#DDDFE8"/>
<path d="M35 34.2301C35 34.9201 34.4412 35.4801 33.75 35.4801H1.25C0.55875 35.4801 0 34.9201 0 34.2301C0 33.5401 0.55875 32.9801 1.25 32.9801H2.5V10.0026C2.5 9.04884 3.03 8.19259 3.88125 7.76635L18.8812 0.266349C19.6637 -0.123651 20.5712 -0.0836506 21.3137 0.375099C22.0562 0.833849 22.4987 1.62885 22.4987 2.5026V11.7301H29.9987C31.3775 11.7301 32.4987 12.8513 32.4987 14.2301V32.9801H33.7487C34.44 32.9801 35 33.5401 35 34.2301ZM22.5 14.2301V32.9801H30V14.2301H22.5ZM5 32.9801H20V2.5026L5 10.0026V32.9801Z" fill="url(#paint0_linear_158_2629)"/>
<path d="M8.75 12.9805C8.05875 12.9805 7.5 13.5405 7.5 14.2305C7.5 14.9205 8.05875 15.4805 8.75 15.4805H16.25C16.9412 15.4805 17.5 14.9205 17.5 14.2305C17.5 13.5405 16.9412 12.9805 16.25 12.9805H8.75Z" fill="url(#paint1_linear_158_2629)"/>
<path d="M8.75 17.9805H16.25C16.9412 17.9805 17.5 18.5405 17.5 19.2305C17.5 19.9205 16.9412 20.4805 16.25 20.4805H8.75C8.05875 20.4805 7.5 19.9205 7.5 19.2305C7.5 18.5405 8.05875 17.9805 8.75 17.9805Z" fill="url(#paint2_linear_158_2629)"/>
<path d="M8.75 22.9805H16.25C16.9412 22.9805 17.5 23.5405 17.5 24.2305C17.5 24.9205 16.9412 25.4805 16.25 25.4805H8.75C8.05875 25.4805 7.5 24.9205 7.5 24.2305C7.5 23.5405 8.05875 22.9805 8.75 22.9805Z" fill="url(#paint3_linear_158_2629)"/>
<path d="M8.75 27.9805H16.25C16.9412 27.9805 17.5 28.5405 17.5 29.2305C17.5 29.9205 16.9412 30.4805 16.25 30.4805H8.75C8.05875 30.4805 7.5 29.9205 7.5 29.2305C7.5 28.5405 8.05875 27.9805 8.75 27.9805Z" fill="url(#paint4_linear_158_2629)"/>
<defs>
<linearGradient id="paint0_linear_158_2629" x1="0" y1="17.74" x2="35" y2="17.74" gradientUnits="userSpaceOnUse">
<stop stop-color="#9942FF"/>
<stop offset="1" stop-color="#FC067D"/>
</linearGradient>
<linearGradient id="paint1_linear_158_2629" x1="7.5" y1="21.7305" x2="17.5" y2="21.7305" gradientUnits="userSpaceOnUse">
<stop stop-color="#FB9004"/>
<stop offset="1" stop-color="#FC067D"/>
</linearGradient>
<linearGradient id="paint2_linear_158_2629" x1="7.5" y1="21.7305" x2="17.5" y2="21.7305" gradientUnits="userSpaceOnUse">
<stop stop-color="#FB9004"/>
<stop offset="1" stop-color="#FC067D"/>
</linearGradient>
<linearGradient id="paint3_linear_158_2629" x1="7.5" y1="21.7305" x2="17.5" y2="21.7305" gradientUnits="userSpaceOnUse">
<stop stop-color="#FB9004"/>
<stop offset="1" stop-color="#FC067D"/>
</linearGradient>
<linearGradient id="paint4_linear_158_2629" x1="7.5" y1="21.7305" x2="17.5" y2="21.7305" gradientUnits="userSpaceOnUse">
<stop stop-color="#FB9004"/>
<stop offset="1" stop-color="#FC067D"/>
</linearGradient>
</defs>
</svg>
