<svg width="1351" height="602" viewBox="0 0 1351 602" fill="none" xmlns="http://www.w3.org/2000/svg">
<path opacity="0.16" d="M1324.08 579.024C1347.1 490.031 1430.58 172.737 1095.45 94.9378C815.437 29.9321 667.509 -92.8883 381.933 118.655C207.443 247.911 -107.484 77.3693 36.7654 579.024C154.892 579.024 1103.13 579.024 1324.08 579.024Z" fill="#B5A7E9"/>
<path d="M974.445 253.937C924.849 253.937 877.854 265.057 835.8 284.914C840.135 292.247 842.632 300.793 842.632 309.933C842.632 337.118 820.597 359.151 793.412 359.151C777.461 359.151 763.296 351.561 754.299 339.803C728.011 363.999 705.722 392.469 688.525 424.115C705.966 431.684 718.166 449.052 718.166 469.276C718.166 496.466 696.13 518.499 668.944 518.499C664.202 518.499 659.623 517.814 655.288 516.565C651.34 536.808 649.254 557.718 649.254 579.12H770.853C770.853 466.677 862 375.527 974.443 375.527C1086.88 375.527 1178.03 466.677 1178.03 579.12H1299.63C1299.63 399.529 1154.04 253.937 974.445 253.937Z" fill="#D4CCF3"/>
<path d="M228.542 420.685C250.791 454.055 273.31 494.992 286.697 508.376C330.344 522.955 392.604 539.644 412.668 544.202C441.82 537.297 471.741 539.598 508.565 562.614C461.6 570.286 308.556 565.682 263.948 532.693C219.336 499.707 228.542 437.144 228.542 420.685Z" fill="#FFB7D6"/>
<path d="M559.628 577.959H546.156L644.355 332.458L656.177 336.594L559.628 577.959Z" fill="#4359B7"/>
<path d="M559.628 562.618H363.566V577.961H559.628V562.618Z" fill="#4359B7"/>
<path d="M134.188 237.793C124.138 200.526 119.029 197.95 115.767 158.96C112.502 119.969 121.725 95.6481 162.357 84.4C202.987 73.154 214.275 90.1859 243.762 80.3556C274.606 70.0721 316.176 87.5341 311.398 108.742C305.423 135.278 343.192 131.662 294.795 156.091C235.28 190.067 184.362 243.986 134.188 237.793Z" fill="#1C056D"/>
<path d="M300.09 145.753C284.766 132.797 232.234 135.274 221.727 147.703C211.22 160.131 203.582 179.247 189.376 184.285C191.247 165.27 170.442 151.228 161.008 167.291C152.581 181.64 157.081 203.157 171.862 204.998C158.202 221.155 147.885 231.257 134.19 237.792C126.297 258.47 119.106 282.935 98.7949 306.964C128.742 324.476 162.426 354.372 176.096 365.933C175.825 325.918 190.718 283.102 202.501 276.725C222.665 281.244 244.685 297.831 269.835 243.791C274.656 245.881 285.121 247.483 287.574 244.582C291.861 239.513 281.463 217.572 282.63 209.83C288.286 192.43 294.101 171.338 300.09 145.753Z" fill="#FFB7D6"/>
<path d="M104.257 290.269C93.6816 296.685 51.3224 333.233 62.8293 577.962C130.343 577.962 206.807 577.962 243.759 577.962C228.541 498.173 226.142 446.482 229.02 418.866C215.727 392.946 197.852 349.184 181.112 323.125C162.786 294.589 126.791 276.596 104.257 290.269Z" fill="#B5A7E9"/>
<path d="M152.313 466.721C142.479 476.553 143.769 477.075 138.783 482.063C154.126 504.313 196.059 557.154 216.862 577.961C232.38 577.961 256.929 577.961 256.929 577.961C256.929 577.961 178.887 477.463 152.313 466.721Z" fill="#B5A7E9"/>
<path d="M229.021 418.864C207.828 427.596 169.434 449.597 152.312 466.721C178.676 504.314 211.662 557.242 232.377 577.959C259.995 577.959 468.67 577.959 531.579 577.959C520.456 566.839 508.755 564.918 492.646 561.464C476.535 558.015 458.123 540.751 412.667 552.26C363.758 542.476 301.041 531.547 272.272 518.314C253.858 482.638 242.984 446.148 229.021 418.864Z" fill="#FFB7D6"/>
<path d="M467.904 570.29C476.584 569.037 485.634 569.148 494.349 569.914C499.462 570.403 504.593 571.13 509.522 572.61C510.335 572.858 520.182 576.815 519.305 577.961C516.179 575.629 512.155 574.761 508.393 574.038C503.104 573.027 497.727 572.514 492.363 572.052C484.22 571.353 476.056 570.881 467.904 570.29Z" fill="#FFB7D6"/>
<path d="M138.784 483.788C138.748 483.788 138.715 483.788 138.681 483.788C138.065 483.747 137.514 483.385 137.241 482.834C132.432 473.221 126.844 463.451 120.929 453.101C111.295 436.255 101.333 418.833 93.4604 399.87C93.095 398.988 93.5126 397.978 94.3917 397.615C95.2749 397.247 96.2815 397.667 96.649 398.548C104.436 417.311 114.346 434.635 123.925 451.389C129.335 460.85 134.474 469.838 139.011 478.692C163.539 444.561 224.799 418.764 227.453 417.659C228.336 417.296 229.342 417.712 229.71 418.589C230.077 419.47 229.662 420.48 228.783 420.844C228.127 421.121 162.921 448.57 140.226 483.014C139.903 483.498 139.362 483.788 138.784 483.788Z" fill="#B5A7E9"/>
<path d="M1305.67 579.024C1214.76 579.024 992.08 579.024 895.992 579.024V100.386C895.992 94.03 901.143 88.8789 907.499 88.8789H1294.16C1300.52 88.8789 1305.67 94.0321 1305.67 100.386L1305.67 579.024Z" fill="url(#paint0_linear_669_1254)"/>
<path d="M1290.71 141.92H910.953V192.554H1290.71V141.92Z" fill="#EEEEFD"/>
<path d="M933.972 150.359H919.777V164.554H933.972V150.359Z" fill="#DFDEFF"/>
<path d="M955.063 150.359H940.869V164.554H955.063V150.359Z" fill="#DFDEFF"/>
<path d="M976.163 150.359H961.969V164.554H976.163V150.359Z" fill="#DFDEFF"/>
<path d="M997.257 150.359H983.062V164.554H997.257V150.359Z" fill="#DFDEFF"/>
<path d="M1290.71 209.815H910.953V260.449H1290.71V209.815Z" fill="#EEEEFD"/>
<path d="M933.972 218.255H919.777V232.449H933.972V218.255Z" fill="#DFDEFF"/>
<path d="M955.063 218.255H940.869V232.449H955.063V218.255Z" fill="#DFDEFF"/>
<path d="M976.163 218.255H961.969V232.449H976.163V218.255Z" fill="#DFDEFF"/>
<path d="M997.257 218.255H983.062V232.449H997.257V218.255Z" fill="#DFDEFF"/>
<path d="M1290.71 277.711H910.953V328.345H1290.71V277.711Z" fill="#EEEEFD"/>
<path d="M933.972 286.146H919.777V300.343H933.972V286.146Z" fill="#DFDEFF"/>
<path d="M955.063 286.146H940.869V300.343H955.063V286.146Z" fill="#DFDEFF"/>
<path d="M976.163 286.146H961.969V300.343H976.163V286.146Z" fill="#DFDEFF"/>
<path d="M997.257 286.146H983.062V300.343H997.257V286.146Z" fill="#DFDEFF"/>
<path d="M1290.71 345.604H910.953V396.238H1290.71V345.604Z" fill="#EEEEFD"/>
<path d="M933.972 354.042H919.777V368.238H933.972V354.042Z" fill="#DFDEFF"/>
<path d="M955.063 354.042H940.869V368.238H955.063V354.042Z" fill="#DFDEFF"/>
<path d="M976.163 354.042H961.969V368.238H976.163V354.042Z" fill="#DFDEFF"/>
<path d="M997.257 354.042H983.062V368.238H997.257V354.042Z" fill="#DFDEFF"/>
<path d="M1024.2 114.02C1024.2 115.768 1022.79 117.185 1021.04 117.185H998.406C996.656 117.185 995.24 115.768 995.24 114.02C995.24 112.272 996.656 110.854 998.406 110.854H1021.04C1022.79 110.854 1024.2 112.27 1024.2 114.02Z" fill="white"/>
<path d="M1069.76 114.02C1069.76 115.768 1068.34 117.185 1066.6 117.185H1043.96C1042.21 117.185 1040.8 115.768 1040.8 114.02C1040.8 112.272 1042.21 110.854 1043.96 110.854H1066.6C1068.34 110.854 1069.76 112.27 1069.76 114.02Z" fill="white"/>
<path d="M1115.31 114.02C1115.31 115.768 1113.89 117.185 1112.15 117.185H1089.51C1087.76 117.185 1086.35 115.768 1086.35 114.02C1086.35 112.272 1087.76 110.854 1089.51 110.854H1112.15C1113.89 110.854 1115.31 112.27 1115.31 114.02Z" fill="white"/>
<path d="M1160.87 114.02C1160.87 115.768 1159.45 117.185 1157.7 117.185H1135.07C1133.32 117.185 1131.9 115.768 1131.9 114.02C1131.9 112.272 1133.32 110.854 1135.07 110.854H1157.7C1159.45 110.854 1160.87 112.27 1160.87 114.02Z" fill="white"/>
<path d="M1206.42 114.02C1206.42 115.768 1205 117.185 1203.25 117.185H1180.62C1178.87 117.185 1177.45 115.768 1177.45 114.02C1177.45 112.272 1178.87 110.854 1180.62 110.854H1203.25C1205 110.854 1206.42 112.27 1206.42 114.02Z" fill="white"/>
<path d="M13.0468 578.112C13.0468 578.112 96.1387 577.632 220.773 576.905C283.089 576.725 355.793 576.516 433.69 576.289C511.589 576.224 594.677 576.155 677.769 576.08C760.859 576.218 843.949 576.358 921.846 576.483C999.745 576.773 1072.45 577.041 1134.77 577.27C1259.4 578.099 1342.49 578.648 1342.49 578.648C1342.7 578.653 1342.86 578.82 1342.86 579.024C1342.86 579.233 1342.69 579.396 1342.49 579.396C1342.49 579.396 1259.4 579.951 1134.77 580.778C1072.45 581.006 999.745 581.275 921.846 581.565C843.949 581.693 760.859 581.83 677.769 581.964C594.677 581.895 511.587 581.826 433.69 581.759C355.793 581.532 283.089 581.323 220.773 581.144C96.1387 580.417 13.0468 579.937 13.0468 579.937C12.5456 579.932 12.1364 579.521 12.1426 579.02C12.1426 578.519 12.5498 578.116 13.0468 578.112Z" fill="#D4CCF3"/>
<path d="M567.365 465.078C567.365 466.349 566.333 467.381 565.062 467.381H333.92C332.651 467.381 331.619 466.349 331.619 465.078V335.463C331.619 334.196 332.649 333.162 333.92 333.162H565.064C566.333 333.162 567.367 334.194 567.367 335.463V465.078H567.365Z" fill="#6880E4"/>
<path d="M554.791 401.496C554.791 410.395 547.577 417.604 538.678 417.604H360.308C351.409 417.604 344.197 410.395 344.197 401.496V399.048C344.197 390.149 351.409 382.939 360.308 382.939H538.678C547.577 382.939 554.791 390.149 554.791 399.048V401.496Z" fill="white"/>
<path d="M372.103 387.082C367.059 387.082 362.952 391.189 362.952 396.234C362.952 398.297 363.666 400.186 364.823 401.719L357.934 410.875C357.362 411.633 357.515 412.719 358.275 413.293C358.586 413.524 358.951 413.635 359.312 413.635C359.836 413.635 360.354 413.399 360.693 412.95L367.397 404.043C368.775 404.878 370.375 405.385 372.101 405.385C377.148 405.385 381.255 401.278 381.255 396.234C381.257 391.187 377.15 387.082 372.103 387.082ZM372.103 401.934C370.546 401.934 369.132 401.301 368.103 400.282C368.094 400.274 368.092 400.266 368.082 400.262C368.078 400.257 368.074 400.257 368.069 400.253C367.042 399.222 366.403 397.802 366.403 396.232C366.403 393.087 368.961 390.534 372.103 390.534C375.248 390.534 377.802 393.087 377.802 396.232C377.802 399.372 375.248 401.934 372.103 401.934Z" fill="url(#paint1_linear_669_1254)"/>
<path d="M409.165 410.995H393.457C392.505 410.995 391.732 410.22 391.732 409.27C391.732 408.316 392.505 407.541 393.457 407.541H409.165C410.117 407.541 410.89 408.316 410.89 409.27C410.89 410.22 410.117 410.995 409.165 410.995Z" fill="#DFDEFF"/>
<path d="M431.605 410.995H415.895C414.942 410.995 414.17 410.22 414.17 409.27C414.17 408.316 414.942 407.541 415.895 407.541H431.605C432.557 407.541 433.329 408.316 433.329 409.27C433.329 410.22 432.557 410.995 431.605 410.995Z" fill="#DFDEFF"/>
<path d="M454.044 410.995H438.338C437.384 410.995 436.611 410.22 436.611 409.27C436.611 408.316 437.384 407.541 438.338 407.541H454.044C454.996 407.541 455.769 408.316 455.769 409.27C455.769 410.22 454.996 410.995 454.044 410.995Z" fill="#DFDEFF"/>
<path d="M393.453 353.259C393.453 355.959 391.265 358.141 388.568 358.141C385.87 358.141 383.682 355.959 383.682 353.259C383.682 350.559 385.87 348.373 388.568 348.373C391.267 348.373 393.453 350.559 393.453 353.259Z" fill="white"/>
<path d="M374.348 353.259C374.348 355.959 372.16 358.141 369.462 358.141C366.764 358.141 364.576 355.959 364.576 353.259C364.576 350.559 366.764 348.373 369.462 348.373C372.16 348.373 374.348 350.559 374.348 353.259Z" fill="white"/>
<path d="M355.241 353.259C355.241 355.959 353.052 358.141 350.355 358.141C347.657 358.141 345.469 355.959 345.469 353.259C345.469 350.559 347.657 348.373 350.355 348.373C353.052 348.373 355.241 350.559 355.241 353.259Z" fill="white"/>
<path d="M756.371 546.804C743.327 519.378 769.795 450.332 846.322 457.811C879.693 400.272 990.169 389.339 1016.64 483.702C1059.79 472.769 1097.76 514.197 1083.19 546.804C1040.23 546.804 857.639 546.804 756.371 546.804Z" fill="#6880E4"/>
<path d="M972.336 462.415H876.82V468.17H972.336V462.415Z" fill="#DDDFE8"/>
<path d="M972.336 480.232H876.82V485.987H972.336V480.232Z" fill="#DDDFE8"/>
<path d="M972.336 498.045H876.82V503.799H972.336V498.045Z" fill="#DDDFE8"/>
<path d="M972.336 515.859H876.82V521.614H972.336V515.859Z" fill="#DDDFE8"/>
<path d="M882.846 212.195C890.189 196.755 875.291 157.893 832.216 162.104C813.432 129.715 751.249 123.564 736.352 176.676C712.062 170.523 690.687 193.842 698.891 212.195C723.072 212.195 825.845 212.195 882.846 212.195Z" fill="#6880E4"/>
<path d="M785.826 185.605L771.16 179.618V175.351L785.826 169.364V172.908L773.818 177.702V177.267L785.826 182.059V185.605Z" fill="#DDDFE8"/>
<path d="M788.713 196.21L795.296 162.644H799.527L792.945 196.21H788.713Z" fill="#DDDFE8"/>
<path d="M801.48 186.248V182.703L813.491 177.911V178.345L801.48 173.551V170.008L816.149 175.994V180.262L801.48 186.248Z" fill="#DDDFE8"/>
<path d="M546.565 228.192C546.565 229.464 545.533 230.495 544.262 230.495H391.543C390.274 230.495 389.242 229.464 389.242 228.192V51.3156C389.242 50.0461 390.272 49.0146 391.543 49.0146H544.262C545.531 49.0146 546.565 50.0461 546.565 51.3156V228.192Z" fill="#6880E4"/>
<path d="M539.995 75.7197H397.299V223.548H539.995V75.7197Z" fill="white"/>
<path d="M445.29 62.0186C445.29 64.7163 443.101 66.9045 440.404 66.9045C437.704 66.9045 435.516 64.7184 435.516 62.0186C435.516 59.3209 437.704 57.1348 440.404 57.1348C443.101 57.1348 445.29 59.3209 445.29 62.0186Z" fill="white"/>
<path d="M426.182 62.0186C426.182 64.7163 423.994 66.9045 421.296 66.9045C418.596 66.9045 416.408 64.7184 416.408 62.0186C416.408 59.3209 418.596 57.1348 421.296 57.1348C423.994 57.1348 426.182 59.3209 426.182 62.0186Z" fill="white"/>
<path d="M407.073 62.0186C407.073 64.7163 404.885 66.9045 402.187 66.9045C399.487 66.9045 397.299 64.7184 397.299 62.0186C397.299 59.3209 399.487 57.1348 402.187 57.1348C404.885 57.1348 407.073 59.3209 407.073 62.0186Z" fill="white"/>
<path d="M528.206 96.8147H432.592C431.955 96.8147 431.441 96.2989 431.441 95.6642C431.441 95.0273 431.955 94.5137 432.592 94.5137H528.206C528.842 94.5137 529.356 95.0273 529.356 95.6642C529.354 96.2989 528.84 96.8147 528.206 96.8147Z" fill="#DFDEFF"/>
<path d="M528.205 106.791H410.344C409.707 106.791 409.191 106.275 409.191 105.641C409.191 105.004 409.707 104.49 410.344 104.49H528.205C528.842 104.49 529.356 105.006 529.356 105.641C529.354 106.275 528.84 106.791 528.205 106.791Z" fill="#DFDEFF"/>
<path d="M528.205 116.762H410.344C409.707 116.762 409.191 116.248 409.191 115.611C409.191 114.975 409.707 114.461 410.344 114.461H528.205C528.842 114.461 529.356 114.977 529.356 115.611C529.354 116.248 528.84 116.762 528.205 116.762Z" fill="#DFDEFF"/>
<path d="M528.205 126.736H410.344C409.707 126.736 409.191 126.22 409.191 125.585C409.191 124.95 409.707 124.435 410.344 124.435H528.205C528.842 124.435 529.356 124.948 529.356 125.585C529.356 126.222 528.84 126.736 528.205 126.736Z" fill="#DFDEFF"/>
<path d="M528.205 136.712H410.344C409.707 136.712 409.191 136.198 409.191 135.562C409.191 134.925 409.707 134.411 410.344 134.411H528.205C528.842 134.411 529.356 134.927 529.356 135.562C529.356 136.196 528.84 136.712 528.205 136.712Z" fill="#DFDEFF"/>
<path d="M472.483 146.683H410.342C409.705 146.683 409.189 146.169 409.189 145.532C409.189 144.895 409.705 144.382 410.342 144.382H472.483C473.12 144.382 473.636 144.895 473.636 145.532C473.636 146.169 473.12 146.683 472.483 146.683Z" fill="#DFDEFF"/>
<path d="M528.203 156.66H489.986C489.35 156.66 488.836 156.144 488.836 155.509C488.836 154.872 489.35 154.356 489.986 154.356H528.203C528.84 154.356 529.354 154.872 529.354 155.509C529.351 156.144 528.838 156.66 528.203 156.66Z" fill="#DFDEFF"/>
<path d="M528.203 166.633H472.483C471.846 166.633 471.332 166.117 471.332 165.483C471.332 164.846 471.846 164.332 472.483 164.332H528.203C528.84 164.332 529.353 164.848 529.353 165.483C529.351 166.117 528.838 166.633 528.203 166.633Z" fill="#DFDEFF"/>
<path d="M528.203 176.604H472.483C471.846 176.604 471.332 176.09 471.332 175.453C471.332 174.816 471.846 174.303 472.483 174.303H528.203C528.84 174.303 529.353 174.818 529.353 175.453C529.353 176.088 528.838 176.604 528.203 176.604Z" fill="#DFDEFF"/>
<path d="M528.203 186.58H472.483C471.846 186.58 471.332 186.067 471.332 185.43C471.332 184.793 471.846 184.279 472.483 184.279H528.203C528.84 184.279 529.353 184.793 529.353 185.43C529.353 186.067 528.838 186.58 528.203 186.58Z" fill="#DFDEFF"/>
<path d="M528.203 196.552H472.483C471.846 196.552 471.332 196.036 471.332 195.401C471.332 194.767 471.846 194.251 472.483 194.251H528.203C528.84 194.251 529.353 194.765 529.353 195.401C529.353 196.038 528.838 196.552 528.203 196.552Z" fill="#DFDEFF"/>
<path d="M503.619 206.525H472.481C471.844 206.525 471.33 206.011 471.33 205.374C471.33 204.737 471.844 204.224 472.481 204.224H503.619C504.256 204.224 504.771 204.739 504.771 205.374C504.771 206.009 504.256 206.525 503.619 206.525Z" fill="#DFDEFF"/>
<path d="M462.506 160.112H410.34V209.98H462.506V160.112Z" fill="#DFDEFF"/>
<path d="M1338.52 363.373C1349.51 340.274 1327.22 282.123 1262.76 288.422C1234.66 239.968 1141.61 230.76 1119.33 310.227C1082.98 301.021 1051 335.916 1063.27 363.373C1099.45 363.373 1253.23 363.373 1338.52 363.373Z" fill="#6880E4"/>
<path d="M1189.89 326.829L1167.94 317.873V311.486L1189.89 302.526V307.832L1171.92 315.006V314.353L1189.89 321.525V326.829Z" fill="#DDDFE8"/>
<path d="M1192.81 341.743L1202.66 291.517H1208.99L1199.14 341.743H1192.81Z" fill="#DDDFE8"/>
<path d="M1211.91 326.829V321.528L1229.88 314.356V315.009L1211.91 307.835V302.529L1233.86 311.489V317.876L1211.91 326.829Z" fill="#DDDFE8"/>
<path d="M829.826 128.949C829.256 128.949 828.682 128.738 828.235 128.312C828.22 128.3 826.78 126.926 824.028 124.646C823.046 123.834 822.913 122.385 823.723 121.405C824.531 120.426 825.982 120.286 826.963 121.103C829.857 123.5 831.35 124.926 831.413 124.986C832.329 125.863 832.363 127.321 831.486 128.241C831.035 128.711 830.432 128.949 829.826 128.949Z" fill="#6880E4"/>
<path d="M816.206 117.994C815.738 117.994 815.264 117.852 814.857 117.555C811.79 115.331 808.562 113.12 805.261 110.98C804.194 110.287 803.891 108.863 804.582 107.796C805.275 106.729 806.701 106.426 807.764 107.117C811.132 109.301 814.427 111.558 817.557 113.828C818.586 114.574 818.816 116.014 818.068 117.044C817.624 117.666 816.92 117.994 816.206 117.994ZM796.503 105.196C796.111 105.196 795.712 105.096 795.347 104.883C792.031 102.952 788.602 101.056 785.151 99.2518C784.026 98.663 783.591 97.2703 784.18 96.1448C784.769 95.0194 786.155 94.583 787.285 95.1739C790.797 97.0093 794.288 98.9386 797.662 100.905C798.758 101.547 799.13 102.956 798.491 104.054C798.067 104.787 797.295 105.196 796.503 105.196ZM775.688 94.3012C775.365 94.3012 775.03 94.2322 774.715 94.084C771.218 92.4491 767.633 90.8685 764.06 89.3839C762.887 88.8974 762.329 87.5507 762.818 86.3772C763.304 85.2017 764.649 84.6442 765.827 85.1348C769.46 86.6445 773.107 88.2543 776.665 89.9163C777.816 90.455 778.313 91.8248 777.772 92.9753C777.384 93.8105 776.555 94.3012 775.688 94.3012ZM753.996 85.2935C753.733 85.2935 753.468 85.2497 753.209 85.1536C749.576 83.8278 745.865 82.5666 742.182 81.4015C740.971 81.0173 740.299 79.7248 740.681 78.5117C741.065 77.3007 742.353 76.6283 743.571 77.0125C747.316 78.1985 751.092 79.4826 754.785 80.8294C755.98 81.2658 756.596 82.5854 756.159 83.7797C755.817 84.7131 754.936 85.2935 753.996 85.2935ZM731.604 78.211C731.406 78.211 731.205 78.186 731.005 78.1317C727.28 77.1294 723.474 76.1919 719.696 75.3505C718.454 75.0728 717.671 73.8429 717.951 72.6027C718.228 71.3603 719.467 70.5856 720.697 70.8592C724.541 71.7173 728.408 72.6674 732.199 73.6884C733.427 74.0183 734.158 75.2816 733.826 76.5093C733.548 77.5345 732.619 78.211 731.604 78.211ZM603.566 74.273C602.48 74.273 601.518 73.5067 601.307 72.4022C601.069 71.1536 601.887 69.9488 603.136 69.7108C607.015 68.9695 610.939 68.2972 614.797 67.7063C616.056 67.5205 617.228 68.3786 617.42 69.6335C617.612 70.8905 616.748 72.066 615.491 72.2561C611.69 72.8365 607.823 73.5005 603.998 74.2313C603.854 74.2584 603.71 74.273 603.566 74.273ZM708.68 73.0975C708.546 73.0975 708.411 73.0871 708.277 73.0599C704.477 72.3855 700.606 71.7821 696.768 71.2663C695.507 71.0972 694.626 69.9384 694.793 68.6793C694.962 67.4182 696.108 66.5391 697.38 66.704C701.282 67.2281 705.218 67.8399 709.081 68.529C710.332 68.7524 711.165 69.9467 710.943 71.1974C710.745 72.3145 709.776 73.0975 708.68 73.0975ZM626.782 70.7318C625.628 70.7318 624.634 69.8653 624.5 68.6918C624.356 67.4286 625.262 66.2885 626.526 66.1445C630.447 65.6976 634.412 65.3239 638.31 65.0357C639.574 64.9355 640.684 65.8918 640.778 67.1592C640.872 68.4266 639.92 69.5312 638.653 69.6252C634.813 69.9112 630.91 70.2787 627.048 70.7172C626.956 70.7276 626.87 70.7318 626.782 70.7318ZM685.405 69.9759C685.336 69.9759 685.267 69.9739 685.194 69.9676C681.352 69.6189 677.444 69.3454 673.575 69.1574C672.305 69.0948 671.328 68.0153 671.386 66.7458C671.449 65.4763 672.528 64.497 673.798 64.5597C677.732 64.7518 681.705 65.0274 685.612 65.3823C686.875 65.4993 687.811 66.6184 687.694 67.8838C687.589 69.0781 686.583 69.9759 685.405 69.9759ZM650.206 68.9967C648.97 68.9967 647.949 68.0174 647.905 66.7729C647.861 65.5034 648.859 64.4365 650.126 64.3947C653.425 64.282 656.743 64.2256 659.988 64.2256L661.961 64.2319C663.233 64.2402 664.258 65.278 664.25 66.5495C664.239 67.819 663.241 68.9132 661.932 68.8359L659.988 68.8296C656.797 68.8296 653.532 68.8839 650.283 68.9946C650.26 68.9967 650.231 68.9967 650.206 68.9967Z" fill="#6880E4"/>
<path d="M586.43 78.023C585.397 78.023 584.459 77.3193 584.2 76.2711C583.896 75.0371 584.649 73.7906 585.883 73.4857C587.771 73.018 589.65 72.5733 591.519 72.1452C592.77 71.8529 593.991 72.6359 594.275 73.8741C594.561 75.1144 593.786 76.3505 592.546 76.6324C590.7 77.0562 588.846 77.4926 586.986 77.952C586.8 78 586.614 78.023 586.43 78.023Z" fill="#6880E4"/>
<path d="M581.449 80.3573C581.449 84.2472 578.296 87.398 574.406 87.398C570.518 87.398 567.365 84.2451 567.365 80.3573C567.365 76.4673 570.518 73.3145 574.406 73.3145C578.296 73.3145 581.449 76.4673 581.449 80.3573Z" fill="#6880E4"/>
<path d="M847.796 137.249C847.796 141.139 844.641 144.292 840.754 144.292C836.866 144.292 833.713 141.139 833.713 137.249C833.713 133.359 836.866 130.208 840.754 130.208C844.641 130.208 847.796 133.359 847.796 137.249Z" fill="#6880E4"/>
<path d="M764.901 247.207C763.659 247.207 762.636 246.218 762.6 244.969C762.498 241.25 762.661 239.079 762.667 238.989C762.763 237.722 763.872 236.761 765.135 236.87C766.4 236.964 767.35 238.068 767.258 239.336C767.256 239.357 767.11 241.388 767.204 244.844C767.24 246.113 766.235 247.174 764.968 247.207C764.943 247.207 764.924 247.207 764.901 247.207Z" fill="#6880E4"/>
<path d="M849.484 352.031C849.264 352.031 849.039 352.002 848.818 351.933C844.855 350.735 840.967 349.392 837.271 347.954C836.087 347.492 835.5 346.16 835.962 344.972C836.425 343.786 837.76 343.201 838.943 343.667C842.531 345.062 846.302 346.362 850.154 347.53C851.369 347.897 852.058 349.185 851.689 350.401C851.386 351.392 850.473 352.031 849.484 352.031ZM827.079 343.276C826.739 343.276 826.392 343.199 826.067 343.04C822.358 341.213 818.748 339.219 815.339 337.111C814.257 336.447 813.921 335.027 814.591 333.945C815.257 332.859 816.677 332.53 817.759 333.196C821.043 335.223 824.524 337.148 828.098 338.908C829.241 339.472 829.708 340.85 829.149 341.988C828.746 342.805 827.929 343.276 827.079 343.276ZM806.646 330.615C806.158 330.615 805.659 330.456 805.241 330.135C801.977 327.61 798.848 324.906 795.943 322.092C795.029 321.21 795.008 319.751 795.891 318.836C796.776 317.922 798.232 317.903 799.146 318.784C801.932 321.48 804.93 324.073 808.058 326.493C809.064 327.268 809.25 328.715 808.471 329.719C808.016 330.304 807.335 330.615 806.646 330.615ZM789.389 313.882C788.723 313.882 788.061 313.596 787.608 313.042C785.019 309.881 782.584 306.534 780.375 303.087C779.69 302.015 779.999 300.591 781.068 299.904C782.137 299.215 783.559 299.529 784.248 300.6C786.361 303.895 788.689 307.1 791.166 310.121C791.974 311.109 791.826 312.556 790.844 313.364C790.42 313.715 789.903 313.882 789.389 313.882ZM776.404 293.653C775.552 293.653 774.735 293.179 774.337 292.365C772.549 288.721 770.931 284.915 769.532 281.046C769.102 279.851 769.72 278.53 770.914 278.1C772.104 277.669 773.428 278.285 773.86 279.482C775.201 283.192 776.754 286.844 778.467 290.337C779.026 291.479 778.556 292.857 777.414 293.417C777.089 293.576 776.742 293.653 776.404 293.653ZM768.202 271.034C767.168 271.034 766.229 270.332 765.97 269.284C764.993 265.319 764.21 261.26 763.644 257.217C763.466 255.958 764.345 254.795 765.607 254.618C766.861 254.43 768.027 255.319 768.204 256.578C768.749 260.464 769.501 264.369 770.44 268.182C770.743 269.416 769.989 270.662 768.755 270.965C768.572 271.013 768.384 271.034 768.202 271.034Z" fill="#6880E4"/>
<path d="M866.839 356.343C866.693 356.343 866.543 356.33 866.39 356.299C864.453 355.915 862.557 355.507 860.696 355.084C859.456 354.797 858.682 353.561 858.968 352.327C859.254 351.087 860.492 350.312 861.726 350.598C863.542 351.014 865.399 351.411 867.284 351.784C868.533 352.033 869.343 353.244 869.094 354.488C868.879 355.583 867.917 356.343 866.839 356.343Z" fill="#6880E4"/>
<path d="M772.005 225.352C772.005 229.242 768.851 232.393 764.965 232.393C761.077 232.393 757.922 229.24 757.922 225.352C757.922 221.462 761.077 218.31 764.965 218.31C768.853 218.31 772.005 221.462 772.005 225.352Z" fill="#6880E4"/>
<path d="M886.548 354.042C886.548 357.932 883.393 361.08 879.506 361.08C875.62 361.08 872.465 357.932 872.465 354.042C872.465 350.152 875.62 346.999 879.506 346.999C883.393 346.999 886.548 350.152 886.548 354.042Z" fill="#6880E4"/>
<path d="M612.403 521.374C611.705 521.374 611.018 521.061 610.565 520.46C608.293 517.465 607.17 515.701 607.124 515.628C606.443 514.555 606.761 513.137 607.834 512.454C608.909 511.769 610.327 512.087 611.01 513.16C611.02 513.177 612.091 514.858 614.234 517.683C615 518.693 614.802 520.142 613.789 520.909C613.373 521.224 612.885 521.374 612.403 521.374Z" fill="#6880E4"/>
<path d="M790.044 601.819C788.95 601.819 787.86 601.81 786.777 601.802C785.507 601.785 784.486 600.745 784.499 599.474C784.513 598.211 785.54 597.198 786.799 597.198C786.806 597.198 786.816 597.198 786.825 597.198C790.621 597.24 794.488 597.206 798.419 597.091C798.442 597.091 798.463 597.091 798.488 597.091C799.726 597.091 800.749 598.079 800.789 599.326C800.825 600.593 799.824 601.654 798.555 601.695C795.682 601.779 792.846 601.819 790.044 601.819ZM775.128 601.42C775.084 601.42 775.042 601.42 775 601.416C771.043 601.203 767.091 600.902 763.253 600.522C761.99 600.399 761.063 599.269 761.19 598.006C761.313 596.743 762.382 595.82 763.706 595.943C767.479 596.315 771.363 596.607 775.253 596.824C776.518 596.889 777.493 597.975 777.422 599.246C777.358 600.47 776.341 601.42 775.128 601.42ZM810.156 601.125C808.955 601.125 807.943 600.192 807.859 598.981C807.773 597.709 808.732 596.611 809.999 596.526C813.791 596.269 817.681 595.93 821.556 595.523C822.792 595.377 823.951 596.302 824.085 597.57C824.219 598.831 823.302 599.965 822.039 600.098C818.107 600.514 814.163 600.856 810.315 601.121C810.262 601.121 810.206 601.125 810.156 601.125ZM751.886 599.123C751.775 599.123 751.667 599.115 751.554 599.098C747.672 598.532 743.762 597.87 739.93 597.125C738.684 596.885 737.867 595.678 738.109 594.429C738.352 593.181 739.565 592.362 740.807 592.606C744.568 593.337 748.407 593.989 752.216 594.544C753.477 594.728 754.348 595.893 754.164 597.15C753.993 598.296 753.014 599.123 751.886 599.123ZM833.393 598.678C832.266 598.678 831.28 597.849 831.117 596.701C830.94 595.44 831.813 594.275 833.074 594.099C836.87 593.561 840.73 592.949 844.539 592.277C845.786 592.068 846.984 592.897 847.205 594.149C847.423 595.402 846.587 596.597 845.334 596.816C841.474 597.488 837.565 598.112 833.719 598.655C833.608 598.67 833.498 598.678 833.393 598.678ZM728.96 594.661C728.778 594.661 728.592 594.64 728.409 594.596C724.606 593.663 720.777 592.623 717.025 591.498C715.808 591.13 715.116 589.85 715.482 588.631C715.845 587.411 717.125 586.718 718.347 587.086C722.026 588.19 725.78 589.215 729.507 590.124C730.741 590.431 731.497 591.677 731.196 592.909C730.935 593.961 729.993 594.661 728.96 594.661ZM856.411 594.642C855.342 594.642 854.388 593.897 854.16 592.807C853.899 591.567 854.699 590.343 855.942 590.086C859.725 589.295 863.54 588.439 867.275 587.537C868.528 587.242 869.756 588.002 870.052 589.236C870.351 590.472 869.587 591.717 868.355 592.013C864.571 592.922 860.713 593.788 856.883 594.586C856.725 594.625 856.566 594.642 856.411 594.642ZM879.133 589.18C878.118 589.18 877.189 588.508 876.913 587.48C876.579 586.257 877.306 584.994 878.53 584.662C882.19 583.67 885.95 582.594 889.707 581.465C890.939 581.102 892.206 581.791 892.573 583.006C892.939 584.225 892.248 585.509 891.032 585.877C887.234 587.015 883.432 588.1 879.736 589.103C879.534 589.157 879.333 589.18 879.133 589.18ZM706.585 587.954C706.328 587.954 706.065 587.913 705.81 587.821C702.098 586.495 698.392 585.065 694.802 583.567C693.627 583.079 693.073 581.728 693.562 580.559C694.053 579.383 695.402 578.83 696.571 579.318C700.091 580.782 703.722 582.185 707.359 583.486C708.556 583.914 709.18 585.232 708.752 586.43C708.416 587.365 707.529 587.954 706.585 587.954ZM901.518 582.469C900.55 582.469 899.65 581.853 899.332 580.886C898.936 579.675 899.593 578.379 900.798 577.978C904.431 576.788 908.096 575.531 911.802 574.209C913.004 573.785 914.314 574.409 914.744 575.608C915.168 576.802 914.543 578.12 913.347 578.548C909.607 579.882 905.903 581.145 902.239 582.352C901.997 582.432 901.756 582.469 901.518 582.469ZM685.022 578.961C684.69 578.961 684.348 578.888 684.026 578.734C680.497 577.04 676.964 575.222 673.526 573.334C672.411 572.722 672.001 571.328 672.611 570.211C673.221 569.098 674.622 568.686 675.735 569.3C679.107 571.148 682.564 572.925 686.02 574.585C687.164 575.136 687.647 576.51 687.098 577.656C686.703 578.479 685.88 578.961 685.022 578.961ZM664.539 567.726C664.125 567.726 663.706 567.611 663.328 567.379C659.997 565.312 656.68 563.126 653.464 560.875C652.422 560.144 652.169 558.71 652.898 557.67C653.629 556.63 655.063 556.373 656.103 557.102C659.25 559.305 662.499 561.445 665.754 563.468C666.836 564.137 667.165 565.556 666.495 566.638C666.061 567.34 665.309 567.726 664.539 567.726ZM645.396 554.325C644.899 554.325 644.4 554.166 643.976 553.836C640.873 551.398 637.817 548.857 634.889 546.276C633.937 545.436 633.845 543.983 634.685 543.029C635.524 542.075 636.979 541.981 637.933 542.824C640.794 545.344 643.784 547.831 646.818 550.214C647.818 551.001 647.993 552.448 647.208 553.444C646.753 554.029 646.079 554.325 645.396 554.325ZM627.871 538.87C627.285 538.87 626.698 538.65 626.251 538.206C623.414 535.391 620.672 532.501 618.108 529.614C617.264 528.659 617.35 527.208 618.3 526.363C619.25 525.515 620.705 525.605 621.549 526.555C624.05 529.373 626.723 532.19 629.494 534.936C630.398 535.834 630.404 537.289 629.508 538.191C629.053 538.644 628.462 538.87 627.871 538.87Z" fill="#6880E4"/>
<path d="M923.603 574.606C922.678 574.606 921.806 574.046 921.455 573.13C921.002 571.944 921.595 570.61 922.783 570.157C924.556 569.48 926.332 568.787 928.122 568.081C929.302 567.611 930.64 568.192 931.108 569.374C931.577 570.555 930.997 571.894 929.817 572.359C928.013 573.073 926.215 573.771 924.428 574.456C924.155 574.558 923.879 574.606 923.603 574.606Z" fill="#6880E4"/>
<path d="M947.914 562.621C947.914 566.511 944.761 569.66 940.873 569.66C936.985 569.66 933.832 566.511 933.832 562.621C933.832 558.731 936.985 555.578 940.873 555.578C944.763 555.578 947.914 558.731 947.914 562.621Z" fill="#6880E4"/>
<path d="M608.21 503.801C608.21 507.691 605.058 510.844 601.17 510.844C597.282 510.844 594.129 507.691 594.129 503.801C594.129 499.911 597.282 496.763 601.17 496.763C605.058 496.763 608.21 499.911 608.21 503.801Z" fill="#6880E4"/>
<path d="M1118.01 514.737C1117.91 514.737 1117.8 514.732 1117.7 514.716C1114.02 514.21 1111.98 513.801 1111.89 513.787C1110.64 513.538 1109.83 512.323 1110.08 511.078C1110.33 509.834 1111.55 509.007 1112.79 509.272C1112.81 509.272 1114.81 509.669 1118.33 510.158C1119.59 510.329 1120.47 511.492 1120.29 512.751C1120.13 513.906 1119.15 514.737 1118.01 514.737Z" fill="#6880E4"/>
<path d="M1151.61 516.668C1150.35 516.668 1149.33 515.661 1149.3 514.404C1149.28 513.133 1150.3 512.084 1151.57 512.063C1155.27 512.003 1159.01 511.846 1162.68 511.606C1163.94 511.537 1165.05 512.483 1165.13 513.751C1165.21 515.02 1164.25 516.116 1162.98 516.198C1159.23 516.446 1155.42 516.605 1151.64 516.668C1151.63 516.668 1151.62 516.668 1151.61 516.668ZM1140.38 516.578C1140.35 516.578 1140.33 516.578 1140.31 516.578C1136.53 516.459 1132.72 516.244 1128.98 515.941C1127.71 515.839 1126.77 514.726 1126.87 513.46C1126.98 512.193 1128.1 511.27 1129.35 511.351C1133.01 511.65 1136.75 511.857 1140.45 511.972C1141.72 512.011 1142.71 513.076 1142.68 514.346C1142.64 515.594 1141.61 516.578 1140.38 516.578ZM1174.02 515.175C1172.87 515.175 1171.87 514.314 1171.73 513.143C1171.58 511.882 1172.49 510.738 1173.75 510.585C1177.44 510.149 1181.14 509.606 1184.74 508.977C1185.99 508.764 1187.18 509.598 1187.4 510.85C1187.62 512.103 1186.78 513.293 1185.53 513.513C1181.85 514.154 1178.07 514.707 1174.29 515.156C1174.2 515.17 1174.11 515.175 1174.02 515.175ZM1196.13 511.293C1195.09 511.293 1194.15 510.579 1193.9 509.518C1193.6 508.282 1194.37 507.042 1195.6 506.75C1199.24 505.889 1202.84 504.918 1206.3 503.862C1207.52 503.478 1208.81 504.171 1209.18 505.39C1209.55 506.605 1208.86 507.89 1207.65 508.261C1204.09 509.349 1200.39 510.345 1196.66 511.226C1196.49 511.272 1196.31 511.293 1196.13 511.293ZM1217.6 504.726C1216.67 504.726 1215.8 504.162 1215.45 503.246C1214.99 502.06 1215.59 500.73 1216.78 500.277C1220.25 498.955 1223.67 497.504 1226.97 495.967C1228.12 495.437 1229.49 495.925 1230.02 497.08C1230.56 498.23 1230.07 499.6 1228.91 500.139C1225.52 501.722 1221.99 503.219 1218.42 504.58C1218.15 504.682 1217.87 504.726 1217.6 504.726ZM1237.92 495.22C1237.12 495.22 1236.34 494.8 1235.91 494.05C1235.29 492.946 1235.68 491.538 1236.79 490.914C1239.99 489.1 1243.15 487.141 1246.17 485.103C1247.22 484.393 1248.65 484.663 1249.36 485.719C1250.08 486.772 1249.8 488.202 1248.75 488.916C1245.63 491.025 1242.37 493.048 1239.05 494.919C1238.69 495.124 1238.31 495.22 1237.92 495.22ZM1256.48 482.635C1255.8 482.635 1255.14 482.345 1254.68 481.779C1253.89 480.791 1254.04 479.34 1255.03 478.545C1257.89 476.238 1260.68 473.786 1263.3 471.266C1264.22 470.389 1265.68 470.414 1266.56 471.335C1267.44 472.252 1267.41 473.709 1266.49 474.59C1263.77 477.2 1260.89 479.737 1257.92 482.126C1257.49 482.472 1256.98 482.635 1256.48 482.635ZM1272.65 467.13C1272.11 467.13 1271.57 466.942 1271.13 466.56C1270.18 465.716 1270.09 464.263 1270.93 463.309C1273.33 460.576 1275.66 457.694 1277.86 454.737C1278.62 453.718 1280.05 453.51 1281.08 454.263C1282.1 455.021 1282.31 456.462 1281.55 457.485C1279.28 460.544 1276.87 463.526 1274.38 466.351C1273.93 466.865 1273.29 467.13 1272.65 467.13ZM1286.02 449.146C1285.6 449.146 1285.18 449.035 1284.8 448.795C1283.72 448.123 1283.4 446.703 1284.07 445.625C1285.99 442.554 1287.83 439.332 1289.56 436.046C1290.15 434.92 1291.53 434.492 1292.67 435.079C1293.79 435.67 1294.23 437.06 1293.64 438.186C1291.86 441.575 1289.95 444.899 1287.97 448.062C1287.54 448.768 1286.78 449.146 1286.02 449.146ZM1296.45 429.31C1296.14 429.31 1295.82 429.249 1295.53 429.118C1294.36 428.608 1293.83 427.249 1294.34 426.088C1295.8 422.751 1297.17 419.298 1298.44 415.811C1298.87 414.617 1300.19 413.996 1301.38 414.429C1302.58 414.861 1303.2 416.178 1302.76 417.377C1301.47 420.954 1300.05 424.505 1298.56 427.932C1298.18 428.796 1297.33 429.31 1296.45 429.31Z" fill="#6880E4"/>
<path d="M1304.12 408.115C1303.91 408.115 1303.69 408.086 1303.47 408.021C1302.25 407.662 1301.55 406.382 1301.92 405.163C1302.45 403.365 1302.95 401.542 1303.44 399.686C1303.77 398.458 1305.03 397.727 1306.25 398.047C1307.48 398.372 1308.22 399.629 1307.89 400.861C1307.39 402.757 1306.87 404.63 1306.33 406.47C1306.03 407.47 1305.12 408.115 1304.12 408.115Z" fill="#6880E4"/>
<path d="M1105.96 507.353C1105.96 511.243 1102.8 514.396 1098.91 514.396C1095.03 514.396 1091.87 511.243 1091.87 507.353C1091.87 503.463 1095.03 500.311 1098.91 500.311C1102.8 500.311 1105.96 503.463 1105.96 507.353Z" fill="#6880E4"/>
<path d="M1316.17 385.757C1316.17 389.647 1313.01 392.8 1309.13 392.8C1305.24 392.8 1302.08 389.647 1302.08 385.757C1302.08 381.867 1305.24 378.714 1309.13 378.714C1313.01 378.714 1316.17 381.867 1316.17 385.757Z" fill="#6880E4"/>
<defs>
<linearGradient id="paint0_linear_669_1254" x1="895.992" y1="333.954" x2="1305.67" y2="333.954" gradientUnits="userSpaceOnUse">
<stop stop-color="#9942FF"/>
<stop offset="1" stop-color="#4D6DFF"/>
</linearGradient>
<linearGradient id="paint1_linear_669_1254" x1="357.588" y1="400.358" x2="381.255" y2="400.358" gradientUnits="userSpaceOnUse">
<stop stop-color="#FB9004"/>
<stop offset="1" stop-color="#FC067D"/>
</linearGradient>
</defs>
</svg>
