<svg width="1025" height="593" viewBox="0 0 1025 593" fill="none" xmlns="http://www.w3.org/2000/svg">
<path opacity="0.16" d="M137.536 592.039H983.143C961.699 551.305 958.616 501.205 975.308 458.26C985.558 431.89 1002.89 407.698 1006.21 379.603C1011.82 332.151 974.001 288.138 929.469 270.731C884.937 253.325 835.348 256.449 787.711 260.594C740.074 264.739 690.927 269.488 645.379 254.946C593.121 238.263 552.237 198.437 509.957 163.506C467.677 128.573 417.577 96.0884 362.799 99.0955C310.037 101.991 261.369 141.76 248.057 192.859C237.49 233.42 246.122 281.422 218.96 313.36C187.186 350.723 125.717 343.206 86.1907 372.262C44.22 403.116 40.6449 467.904 64.8894 513.992C81.6421 545.84 108.182 570.619 137.536 592.039Z" fill="#B5A7E9"/>
<path d="M808.966 239.42C807.668 239.33 806.487 238.596 805.831 237.475C789.733 209.955 789.167 173.94 804.551 145.986C818.496 120.647 843.19 103.455 864.53 83.9201C881.85 68.0643 898.06 48.1139 902.538 25.7317C903.301 21.9184 908.613 21.4559 910.107 25.0477C921.011 51.2959 930.699 78.6892 931.307 106.74C932.034 140.277 923.167 174.716 902.378 201.055C882.015 226.851 842.011 241.722 808.966 239.42Z" fill="url(#paint0_linear_671_1723)"/>
<path d="M810.34 236.916C810.34 236.916 946 133.844 907.347 30.042" stroke="white" stroke-width="0.5" stroke-miterlimit="10" stroke-linecap="round" stroke-linejoin="round"/>
<path d="M890.582 56.3936C890.582 56.3936 905.434 93.827 905.212 115.756" stroke="white" stroke-width="0.5" stroke-miterlimit="10" stroke-linecap="round" stroke-linejoin="round"/>
<path d="M856.887 95.1562C856.887 95.8208 877.003 150.2 873.235 172.571" stroke="white" stroke-width="0.5" stroke-miterlimit="10" stroke-linecap="round" stroke-linejoin="round"/>
<path d="M824.746 126.166C824.746 126.831 848.908 196.603 839.598 210.779" stroke="white" stroke-width="0.5" stroke-miterlimit="10" stroke-linecap="round" stroke-linejoin="round"/>
<path d="M831.895 218.255C831.895 218.255 891.025 192.838 902.773 192.838" stroke="white" stroke-width="0.5" stroke-miterlimit="10" stroke-linecap="round" stroke-linejoin="round"/>
<path d="M881.715 160.942C881.715 160.942 910.975 137.684 925.162 136.798" stroke="white" stroke-width="0.5" stroke-miterlimit="10" stroke-linecap="round" stroke-linejoin="round"/>
<path d="M910.254 100.029C910.254 100.029 920.727 75.8856 926.047 73.8921" stroke="white" stroke-width="0.5" stroke-miterlimit="10" stroke-linecap="round" stroke-linejoin="round"/>
<path d="M820.072 217.022C833.657 193.415 874.3 107.162 814.603 3.05604C812.737 -0.199129 808.091 -0.351519 806.023 2.78138C789.81 27.3537 739.811 118.382 811.643 217.46C813.78 220.405 818.256 220.176 820.072 217.022Z" fill="url(#paint1_linear_671_1723)"/>
<path d="M807.594 131.934L810.254 5.67871" stroke="white" stroke-width="0.5" stroke-miterlimit="10" stroke-linecap="round" stroke-linejoin="round"/>
<path d="M818.328 258.694C818.328 258.694 844.283 122.542 883.754 131.835C923.223 141.125 818.328 258.694 818.328 258.694Z" fill="url(#paint2_linear_671_1723)"/>
<path d="M818.184 257.918C818.184 257.918 900.738 146.541 932.253 172.04C963.769 197.539 818.184 257.918 818.184 257.918Z" fill="url(#paint3_linear_671_1723)"/>
<path d="M818.391 257.156C818.391 257.156 941.16 192.657 958.466 229.302C975.77 265.947 818.391 257.156 818.391 257.156Z" fill="url(#paint4_linear_671_1723)"/>
<path d="M854.145 231.609L929.955 175.791" stroke="white" stroke-width="0.5" stroke-miterlimit="10" stroke-linecap="round" stroke-linejoin="round"/>
<path d="M855.477 249.329L952.567 230.723" stroke="white" stroke-width="0.5" stroke-miterlimit="10" stroke-linecap="round" stroke-linejoin="round"/>
<path d="M882.52 138.579L854.59 196.612" stroke="white" stroke-width="0.5" stroke-miterlimit="10" stroke-linecap="round" stroke-linejoin="round"/>
<path d="M214.106 558.421C215.055 557.532 215.507 556.218 215.307 554.934C210.389 523.438 188.061 495.161 158.466 483.201C131.637 472.36 101.625 474.618 72.7343 472.945C49.2828 471.586 24.105 466.351 6.48342 451.825C3.48116 449.349 -0.930894 452.344 0.184533 456.072C8.32413 483.302 18.1307 510.655 35.3905 532.784C56.0268 559.242 84.6723 580.344 117.438 587.64C149.532 594.784 189.945 581.064 214.106 558.421Z" fill="url(#paint5_linear_671_1723)"/>
<path d="M6.04688 455.766C6.04688 455.766 78.5406 571.234 211.837 555.581" stroke="white" stroke-width="0.5" stroke-miterlimit="10" stroke-linecap="round" stroke-linejoin="round"/>
<path d="M21.2031 499.762C21.2031 499.762 47.9698 514.658 63.0432 514.954" stroke="white" stroke-width="0.5" stroke-miterlimit="10" stroke-linecap="round" stroke-linejoin="round"/>
<path d="M73.8125 480.566L83.2697 527.82" stroke="white" stroke-width="0.5" stroke-miterlimit="10" stroke-linecap="round" stroke-linejoin="round"/>
<path d="M64.9453 558.535C64.9453 558.535 103.219 562.484 132.185 549.49" stroke="white" stroke-width="0.5" stroke-miterlimit="10" stroke-linecap="round" stroke-linejoin="round"/>
<path d="M135.285 498.876C135.876 499.762 145.851 549.341 166.244 555.839" stroke="white" stroke-width="0.5" stroke-miterlimit="10" stroke-linecap="round" stroke-linejoin="round"/>
<path d="M259.808 508.241C259.808 508.241 63.3142 530.221 59.365 472.594C55.4179 414.968 259.808 508.241 259.808 508.241Z" fill="url(#paint6_linear_671_1723)"/>
<path d="M258.811 508.766C258.811 508.766 72.2617 443.29 93.7509 389.67C115.242 336.049 258.811 508.766 258.811 508.766Z" fill="url(#paint7_linear_671_1723)"/>
<path d="M257.683 508.805C257.683 508.805 118.102 368.87 160.765 329.895C203.428 290.922 257.683 508.805 257.683 508.805Z" fill="url(#paint8_linear_671_1723)"/>
<path d="M66.3398 468.169L160.77 491.205" stroke="white" stroke-width="0.5" stroke-miterlimit="10" stroke-linecap="round" stroke-linejoin="round"/>
<path d="M103.137 391.087L175.4 452.221" stroke="white" stroke-width="0.5" stroke-miterlimit="10" stroke-linecap="round" stroke-linejoin="round"/>
<path d="M166.977 330.839L193.133 396.846" stroke="white" stroke-width="0.5" stroke-miterlimit="10" stroke-linecap="round" stroke-linejoin="round"/>
<path d="M835.076 521.601H221.503C212.688 521.601 205.543 514.461 205.543 505.653V151.253C205.543 142.444 212.688 135.305 221.503 135.305H835.076C843.892 135.305 851.036 142.444 851.036 151.253V505.653C851.036 514.461 843.89 521.601 835.076 521.601Z" fill="#6880E4"/>
<path d="M851.04 160.993H205.547V483.497H851.04V160.993Z" fill="#EEEEFD"/>
<path d="M608.092 581.848H448.492L461.349 505.652H595.236L608.092 581.848Z" fill="#6880E4"/>
<path d="M616.513 572.103H440.066V592.038H616.513V572.103Z" fill="#6880E4"/>
<path d="M599.954 533.556H456.633L458.654 521.595H597.932L599.954 533.556Z" fill="#6880E4"/>
<path d="M331.836 460.87H280.748C279.567 460.87 278.609 459.913 278.609 458.733V395.099C278.609 393.919 279.567 392.962 280.748 392.962H325.679L333.975 407.308V458.735C333.975 459.913 333.017 460.87 331.836 460.87Z" fill="white"/>
<path d="M325.679 392.946L319.569 403.523C318.597 405.205 319.812 407.307 321.755 407.307H333.977L325.679 392.946Z" fill="white"/>
<path d="M325.958 414.212H286.633V442.022H325.958V414.212Z" fill="#EEEEFD"/>
<path d="M323.232 436.31C320.001 434.157 314.206 430.38 309.262 427.587C312.214 426.083 315.36 424.709 317.254 424.486C320.631 424.093 322.542 432.538 323.232 436.31Z" fill="#D4CCF3"/>
<path d="M323.522 438.09C319.613 435.453 303.973 425.053 300.011 424.789C296.163 424.532 290.65 434.923 289.062 438.09H323.522Z" fill="#D4CCF3"/>
<path d="M312.212 421.013C312.212 422.599 310.927 423.885 309.339 423.885C307.752 423.885 306.465 422.599 306.465 421.013C306.465 419.427 307.752 418.142 309.339 418.142C310.927 418.142 312.212 419.427 312.212 421.013Z" fill="url(#paint9_linear_671_1723)"/>
<path d="M351.169 472.084H348.177C347.994 472.084 347.844 471.935 347.844 471.751C347.844 471.568 347.993 471.417 348.177 471.417H350.837V468.759C350.837 468.577 350.986 468.426 351.17 468.426C351.353 468.426 351.504 468.575 351.504 468.759V471.751C351.5 471.935 351.351 472.084 351.169 472.084Z" fill="url(#paint10_linear_671_1723)"/>
<path d="M342.592 472.086H337.007C336.823 472.086 336.674 471.937 336.674 471.753C336.674 471.57 336.823 471.419 337.007 471.419H342.592C342.774 471.419 342.925 471.568 342.925 471.753C342.925 471.937 342.776 472.086 342.592 472.086ZM331.421 472.086H325.837C325.653 472.086 325.504 471.937 325.504 471.753C325.504 471.57 325.653 471.419 325.837 471.419H331.421C331.606 471.419 331.755 471.568 331.755 471.753C331.755 471.937 331.606 472.086 331.421 472.086ZM320.253 472.086H314.669C314.486 472.086 314.335 471.937 314.335 471.753C314.335 471.57 314.484 471.419 314.669 471.419H320.253C320.437 471.419 320.586 471.568 320.586 471.753C320.586 471.937 320.437 472.086 320.253 472.086ZM309.083 472.086H303.499C303.314 472.086 303.165 471.937 303.165 471.753C303.165 471.57 303.314 471.419 303.499 471.419H309.083C309.267 471.419 309.416 471.568 309.416 471.753C309.416 471.937 309.267 472.086 309.083 472.086ZM297.913 472.086H292.328C292.144 472.086 291.995 471.937 291.995 471.753C291.995 471.57 292.144 471.419 292.328 471.419H297.913C298.097 471.419 298.246 471.568 298.246 471.753C298.246 471.937 298.097 472.086 297.913 472.086ZM286.744 472.086H281.16C280.975 472.086 280.826 471.937 280.826 471.753C280.826 471.57 280.975 471.419 281.16 471.419H286.744C286.927 471.419 287.076 471.568 287.076 471.753C287.076 471.937 286.927 472.086 286.744 472.086ZM275.574 472.086H269.99C269.805 472.086 269.656 471.937 269.656 471.753C269.656 471.57 269.805 471.419 269.99 471.419H275.574C275.758 471.419 275.907 471.568 275.907 471.753C275.907 471.937 275.758 472.086 275.574 472.086Z" fill="url(#paint11_linear_671_1723)"/>
<path d="M264.407 472.084H261.415C261.231 472.084 261.082 471.935 261.082 471.751V468.759C261.082 468.577 261.231 468.426 261.415 468.426C261.6 468.426 261.749 468.575 261.749 468.759V471.417H264.407C264.591 471.417 264.74 471.566 264.74 471.751C264.74 471.935 264.591 472.084 264.407 472.084Z" fill="url(#paint12_linear_671_1723)"/>
<path d="M261.415 463.515C261.231 463.515 261.082 463.366 261.082 463.181V457.6C261.082 457.415 261.231 457.266 261.415 457.266C261.6 457.266 261.749 457.415 261.749 457.6V463.181C261.749 463.366 261.6 463.515 261.415 463.515ZM261.415 452.353C261.231 452.353 261.082 452.204 261.082 452.02V446.44C261.082 446.255 261.231 446.106 261.415 446.106C261.6 446.106 261.749 446.255 261.749 446.44V452.02C261.749 452.204 261.6 452.353 261.415 452.353ZM261.415 441.191C261.231 441.191 261.082 441.042 261.082 440.858V435.278C261.082 435.093 261.231 434.945 261.415 434.945C261.6 434.945 261.749 435.093 261.749 435.278V440.858C261.749 441.042 261.6 441.191 261.415 441.191ZM261.415 430.029C261.231 430.029 261.082 429.88 261.082 429.696V424.118C261.082 423.935 261.231 423.784 261.415 423.784C261.6 423.784 261.749 423.933 261.749 424.118V429.696C261.749 429.88 261.6 430.029 261.415 430.029ZM261.415 418.869C261.231 418.869 261.082 418.72 261.082 418.536V412.956C261.082 412.773 261.231 412.623 261.415 412.623C261.6 412.623 261.749 412.772 261.749 412.956V418.536C261.749 418.72 261.6 418.869 261.415 418.869ZM261.415 407.709C261.231 407.709 261.082 407.56 261.082 407.376V401.796C261.082 401.613 261.231 401.463 261.415 401.463C261.6 401.463 261.749 401.611 261.749 401.796V407.376C261.749 407.558 261.6 407.709 261.415 407.709ZM261.415 396.547C261.231 396.547 261.082 396.398 261.082 396.214V390.634C261.082 390.45 261.231 390.301 261.415 390.301C261.6 390.301 261.749 390.45 261.749 390.634V396.214C261.749 396.398 261.6 396.547 261.415 396.547Z" fill="url(#paint13_linear_671_1723)"/>
<path d="M261.415 385.387C261.231 385.387 261.082 385.238 261.082 385.054V382.063C261.082 381.878 261.231 381.729 261.415 381.729H264.407C264.591 381.729 264.74 381.878 264.74 382.063C264.74 382.245 264.591 382.396 264.407 382.396H261.749V385.054C261.749 385.238 261.6 385.387 261.415 385.387Z" fill="url(#paint14_linear_671_1723)"/>
<path d="M342.592 382.396H337.007C336.823 382.396 336.674 382.247 336.674 382.063C336.674 381.878 336.823 381.729 337.007 381.729H342.592C342.774 381.729 342.925 381.878 342.925 382.063C342.925 382.247 342.776 382.396 342.592 382.396ZM331.421 382.396H325.837C325.653 382.396 325.504 382.247 325.504 382.063C325.504 381.878 325.653 381.729 325.837 381.729H331.421C331.606 381.729 331.755 381.878 331.755 382.063C331.755 382.247 331.606 382.396 331.421 382.396ZM320.253 382.396H314.669C314.486 382.396 314.335 382.247 314.335 382.063C314.335 381.878 314.484 381.729 314.669 381.729H320.253C320.437 381.729 320.586 381.878 320.586 382.063C320.586 382.247 320.437 382.396 320.253 382.396ZM309.083 382.396H303.499C303.314 382.396 303.165 382.247 303.165 382.063C303.165 381.878 303.314 381.729 303.499 381.729H309.083C309.267 381.729 309.416 381.878 309.416 382.063C309.416 382.247 309.267 382.396 309.083 382.396ZM297.913 382.396H292.328C292.144 382.396 291.995 382.247 291.995 382.063C291.995 381.878 292.144 381.729 292.328 381.729H297.913C298.097 381.729 298.246 381.878 298.246 382.063C298.246 382.247 298.097 382.396 297.913 382.396ZM286.744 382.396H281.16C280.975 382.396 280.826 382.247 280.826 382.063C280.826 381.878 280.975 381.729 281.16 381.729H286.744C286.927 381.729 287.076 381.878 287.076 382.063C287.076 382.247 286.927 382.396 286.744 382.396ZM275.574 382.396H269.99C269.805 382.396 269.656 382.247 269.656 382.063C269.656 381.878 269.805 381.729 269.99 381.729H275.574C275.758 381.729 275.907 381.878 275.907 382.063C275.907 382.247 275.758 382.396 275.574 382.396Z" fill="url(#paint15_linear_671_1723)"/>
<path d="M351.171 385.387C350.986 385.387 350.837 385.238 350.837 385.054V382.396H348.177C347.994 382.396 347.844 382.247 347.844 382.063C347.844 381.878 347.993 381.729 348.177 381.729H351.169C351.351 381.729 351.502 381.878 351.502 382.063V385.054C351.502 385.238 351.353 385.387 351.171 385.387Z" fill="url(#paint16_linear_671_1723)"/>
<path d="M351.173 463.515C350.989 463.515 350.84 463.366 350.84 463.181V457.6C350.84 457.415 350.989 457.266 351.173 457.266C351.356 457.266 351.507 457.415 351.507 457.6V463.181C351.505 463.366 351.356 463.515 351.173 463.515ZM351.173 452.353C350.989 452.353 350.84 452.204 350.84 452.02V446.44C350.84 446.255 350.989 446.106 351.173 446.106C351.356 446.106 351.507 446.255 351.507 446.44V452.02C351.505 452.204 351.356 452.353 351.173 452.353ZM351.173 441.191C350.989 441.191 350.84 441.042 350.84 440.858V435.278C350.84 435.093 350.989 434.945 351.173 434.945C351.356 434.945 351.507 435.093 351.507 435.278V440.858C351.505 441.042 351.356 441.191 351.173 441.191ZM351.173 430.029C350.989 430.029 350.84 429.88 350.84 429.696V424.118C350.84 423.935 350.989 423.784 351.173 423.784C351.356 423.784 351.507 423.933 351.507 424.118V429.696C351.505 429.88 351.356 430.029 351.173 430.029ZM351.173 418.869C350.989 418.869 350.84 418.72 350.84 418.536V412.956C350.84 412.773 350.989 412.623 351.173 412.623C351.356 412.623 351.507 412.772 351.507 412.956V418.536C351.505 418.72 351.356 418.869 351.173 418.869ZM351.173 407.709C350.989 407.709 350.84 407.56 350.84 407.376V401.796C350.84 401.613 350.989 401.463 351.173 401.463C351.356 401.463 351.507 401.611 351.507 401.796V407.376C351.505 407.558 351.356 407.709 351.173 407.709ZM351.173 396.547C350.989 396.547 350.84 396.398 350.84 396.214V390.634C350.84 390.45 350.989 390.301 351.173 390.301C351.356 390.301 351.507 390.45 351.507 390.634V396.214C351.505 396.398 351.356 396.547 351.173 396.547Z" fill="url(#paint17_linear_671_1723)"/>
<path d="M331.836 357.047H280.748C279.567 357.047 278.609 356.09 278.609 354.91V291.276C278.609 290.096 279.567 289.139 280.748 289.139H325.679L333.975 303.485V354.912C333.975 356.09 333.017 357.047 331.836 357.047Z" fill="white"/>
<path d="M325.679 289.123L319.569 299.7C318.597 301.382 319.812 303.483 321.755 303.483H333.977L325.679 289.123Z" fill="white"/>
<path d="M325.958 310.389H286.633V338.198H325.958V310.389Z" fill="#EEEEFD"/>
<path d="M323.232 332.487C320.001 330.334 314.206 326.556 309.262 323.764C312.214 322.257 315.36 320.886 317.254 320.663C320.631 320.269 322.542 328.715 323.232 332.487Z" fill="#D4CCF3"/>
<path d="M323.522 334.266C319.613 331.63 303.973 321.23 300.011 320.966C296.163 320.709 290.65 331.1 289.062 334.266H323.522Z" fill="#D4CCF3"/>
<path d="M312.212 317.19C312.212 318.776 310.927 320.06 309.339 320.06C307.752 320.06 306.465 318.776 306.465 317.19C306.465 315.604 307.752 314.317 309.339 314.317C310.927 314.317 312.212 315.604 312.212 317.19Z" fill="url(#paint18_linear_671_1723)"/>
<path d="M351.169 368.262H348.177C347.994 368.262 347.844 368.113 347.844 367.929C347.844 367.745 347.993 367.596 348.177 367.596H350.837V364.938C350.837 364.754 350.986 364.605 351.17 364.605C351.353 364.605 351.504 364.754 351.504 364.938V367.929C351.5 368.113 351.351 368.262 351.169 368.262Z" fill="url(#paint19_linear_671_1723)"/>
<path d="M342.592 368.262H337.007C336.823 368.262 336.674 368.113 336.674 367.929C336.674 367.745 336.823 367.596 337.007 367.596H342.592C342.774 367.596 342.925 367.745 342.925 367.929C342.925 368.113 342.776 368.262 342.592 368.262ZM331.421 368.262H325.837C325.653 368.262 325.504 368.113 325.504 367.929C325.504 367.745 325.653 367.596 325.837 367.596H331.421C331.606 367.596 331.755 367.745 331.755 367.929C331.755 368.113 331.606 368.262 331.421 368.262ZM320.253 368.262H314.669C314.486 368.262 314.335 368.113 314.335 367.929C314.335 367.745 314.484 367.596 314.669 367.596H320.253C320.437 367.596 320.586 367.745 320.586 367.929C320.586 368.113 320.437 368.262 320.253 368.262ZM309.083 368.262H303.499C303.314 368.262 303.165 368.113 303.165 367.929C303.165 367.745 303.314 367.596 303.499 367.596H309.083C309.267 367.596 309.416 367.745 309.416 367.929C309.416 368.113 309.267 368.262 309.083 368.262ZM297.913 368.262H292.328C292.144 368.262 291.995 368.113 291.995 367.929C291.995 367.745 292.144 367.596 292.328 367.596H297.913C298.097 367.596 298.246 367.745 298.246 367.929C298.246 368.113 298.097 368.262 297.913 368.262ZM286.744 368.262H281.16C280.975 368.262 280.826 368.113 280.826 367.929C280.826 367.745 280.975 367.596 281.16 367.596H286.744C286.927 367.596 287.076 367.745 287.076 367.929C287.076 368.113 286.927 368.262 286.744 368.262ZM275.574 368.262H269.99C269.805 368.262 269.656 368.113 269.656 367.929C269.656 367.745 269.805 367.596 269.99 367.596H275.574C275.758 367.596 275.907 367.745 275.907 367.929C275.907 368.113 275.758 368.262 275.574 368.262Z" fill="url(#paint20_linear_671_1723)"/>
<path d="M264.407 368.262H261.415C261.231 368.262 261.082 368.113 261.082 367.929V364.938C261.082 364.754 261.231 364.605 261.415 364.605C261.6 364.605 261.749 364.754 261.749 364.938V367.596H264.407C264.591 367.596 264.74 367.745 264.74 367.929C264.74 368.113 264.591 368.262 264.407 368.262Z" fill="url(#paint21_linear_671_1723)"/>
<path d="M261.415 359.691C261.231 359.691 261.082 359.542 261.082 359.358V353.778C261.082 353.594 261.231 353.445 261.415 353.445C261.6 353.445 261.749 353.594 261.749 353.778V359.358C261.749 359.542 261.6 359.691 261.415 359.691ZM261.415 348.529C261.231 348.529 261.082 348.381 261.082 348.196V342.616C261.082 342.434 261.231 342.283 261.415 342.283C261.6 342.283 261.749 342.432 261.749 342.616V348.196C261.749 348.381 261.6 348.529 261.415 348.529ZM261.415 337.368C261.231 337.368 261.082 337.221 261.082 337.036V331.456C261.082 331.272 261.231 331.123 261.415 331.123C261.6 331.123 261.749 331.272 261.749 331.456V337.036C261.749 337.221 261.6 337.368 261.415 337.368ZM261.415 326.208C261.231 326.208 261.082 326.059 261.082 325.874V320.294C261.082 320.11 261.231 319.961 261.415 319.961C261.6 319.961 261.749 320.11 261.749 320.294V325.874C261.749 326.059 261.6 326.208 261.415 326.208ZM261.415 315.046C261.231 315.046 261.082 314.897 261.082 314.713V309.133C261.082 308.948 261.231 308.799 261.415 308.799C261.6 308.799 261.749 308.948 261.749 309.133V314.713C261.749 314.897 261.6 315.046 261.415 315.046ZM261.415 303.886C261.231 303.886 261.082 303.737 261.082 303.553V297.973C261.082 297.788 261.231 297.639 261.415 297.639C261.6 297.639 261.749 297.788 261.749 297.973V303.553C261.749 303.737 261.6 303.886 261.415 303.886ZM261.415 292.724C261.231 292.724 261.082 292.575 261.082 292.391V286.811C261.082 286.626 261.231 286.478 261.415 286.478C261.6 286.478 261.749 286.626 261.749 286.811V292.391C261.749 292.575 261.6 292.724 261.415 292.724Z" fill="url(#paint22_linear_671_1723)"/>
<path d="M261.415 281.562C261.231 281.562 261.082 281.413 261.082 281.229V278.237C261.082 278.053 261.231 277.904 261.415 277.904H264.407C264.591 277.904 264.74 278.053 264.74 278.237C264.74 278.422 264.591 278.571 264.407 278.571H261.749V281.229C261.749 281.413 261.6 281.562 261.415 281.562Z" fill="url(#paint23_linear_671_1723)"/>
<path d="M342.592 278.573H337.007C336.823 278.573 336.674 278.424 336.674 278.239C336.674 278.055 336.823 277.906 337.007 277.906H342.592C342.774 277.906 342.925 278.055 342.925 278.239C342.925 278.424 342.776 278.573 342.592 278.573ZM331.421 278.573H325.837C325.653 278.573 325.504 278.424 325.504 278.239C325.504 278.055 325.653 277.906 325.837 277.906H331.421C331.606 277.906 331.755 278.055 331.755 278.239C331.755 278.424 331.606 278.573 331.421 278.573ZM320.253 278.573H314.669C314.486 278.573 314.335 278.424 314.335 278.239C314.335 278.055 314.484 277.906 314.669 277.906H320.253C320.437 277.906 320.586 278.055 320.586 278.239C320.586 278.424 320.437 278.573 320.253 278.573ZM309.083 278.573H303.499C303.314 278.573 303.165 278.424 303.165 278.239C303.165 278.055 303.314 277.906 303.499 277.906H309.083C309.267 277.906 309.416 278.055 309.416 278.239C309.416 278.424 309.267 278.573 309.083 278.573ZM297.913 278.573H292.328C292.144 278.573 291.995 278.424 291.995 278.239C291.995 278.055 292.144 277.906 292.328 277.906H297.913C298.097 277.906 298.246 278.055 298.246 278.239C298.246 278.424 298.097 278.573 297.913 278.573ZM286.744 278.573H281.16C280.975 278.573 280.826 278.424 280.826 278.239C280.826 278.055 280.975 277.906 281.16 277.906H286.744C286.927 277.906 287.076 278.055 287.076 278.239C287.076 278.424 286.927 278.573 286.744 278.573ZM275.574 278.573H269.99C269.805 278.573 269.656 278.424 269.656 278.239C269.656 278.055 269.805 277.906 269.99 277.906H275.574C275.758 277.906 275.907 278.055 275.907 278.239C275.907 278.424 275.758 278.573 275.574 278.573Z" fill="url(#paint24_linear_671_1723)"/>
<path d="M351.171 281.562C350.986 281.562 350.837 281.413 350.837 281.229V278.571H348.177C347.994 278.571 347.844 278.422 347.844 278.237C347.844 278.053 347.993 277.904 348.177 277.904H351.169C351.351 277.904 351.502 278.053 351.502 278.237V281.229C351.502 281.413 351.353 281.562 351.171 281.562Z" fill="url(#paint25_linear_671_1723)"/>
<path d="M351.173 359.691C350.989 359.691 350.84 359.542 350.84 359.358V353.778C350.84 353.594 350.989 353.445 351.173 353.445C351.356 353.445 351.507 353.594 351.507 353.778V359.358C351.505 359.542 351.356 359.691 351.173 359.691ZM351.173 348.529C350.989 348.529 350.84 348.381 350.84 348.196V342.616C350.84 342.434 350.989 342.283 351.173 342.283C351.356 342.283 351.507 342.432 351.507 342.616V348.196C351.505 348.381 351.356 348.529 351.173 348.529ZM351.173 337.368C350.989 337.368 350.84 337.221 350.84 337.036V331.456C350.84 331.272 350.989 331.123 351.173 331.123C351.356 331.123 351.507 331.272 351.507 331.456V337.036C351.505 337.221 351.356 337.368 351.173 337.368ZM351.173 326.208C350.989 326.208 350.84 326.059 350.84 325.874V320.294C350.84 320.11 350.989 319.961 351.173 319.961C351.356 319.961 351.507 320.11 351.507 320.294V325.874C351.505 326.059 351.356 326.208 351.173 326.208ZM351.173 315.046C350.989 315.046 350.84 314.897 350.84 314.713V309.133C350.84 308.948 350.989 308.799 351.173 308.799C351.356 308.799 351.507 308.948 351.507 309.133V314.713C351.505 314.897 351.356 315.046 351.173 315.046ZM351.173 303.886C350.989 303.886 350.84 303.737 350.84 303.553V297.973C350.84 297.788 350.989 297.639 351.173 297.639C351.356 297.639 351.507 297.788 351.507 297.973V303.553C351.505 303.737 351.356 303.886 351.173 303.886ZM351.173 292.724C350.989 292.724 350.84 292.575 350.84 292.391V286.811C350.84 286.626 350.989 286.478 351.173 286.478C351.356 286.478 351.507 286.626 351.507 286.811V292.391C351.505 292.575 351.356 292.724 351.173 292.724Z" fill="url(#paint26_linear_671_1723)"/>
<path d="M331.836 253.224H280.748C279.567 253.224 278.609 252.267 278.609 251.087V187.452C278.609 186.272 279.567 185.315 280.748 185.315H325.679L333.975 199.662V251.089C333.975 252.267 333.017 253.224 331.836 253.224Z" fill="white"/>
<path d="M325.679 185.3L319.569 195.877C318.597 197.559 319.812 199.66 321.755 199.66H333.977L325.679 185.3Z" fill="white"/>
<path d="M325.958 206.565H286.633V234.375H325.958V206.565Z" fill="#EEEEFD"/>
<path d="M323.232 228.666C320.001 226.513 314.206 222.735 309.262 219.942C312.214 218.436 315.36 217.065 317.254 216.841C320.631 216.448 322.542 224.893 323.232 228.666Z" fill="#D4CCF3"/>
<path d="M323.522 230.445C319.613 227.808 303.973 217.408 300.011 217.144C296.163 216.887 290.65 227.278 289.062 230.445H323.522Z" fill="#D4CCF3"/>
<path d="M312.212 213.366C312.212 214.952 310.927 216.239 309.339 216.239C307.752 216.239 306.465 214.952 306.465 213.366C306.465 211.78 307.752 210.496 309.339 210.496C310.927 210.496 312.212 211.78 312.212 213.366Z" fill="url(#paint27_linear_671_1723)"/>
<path d="M351.169 264.437H348.177C347.994 264.437 347.844 264.289 347.844 264.104C347.844 263.92 347.993 263.771 348.177 263.771H350.837V261.115C350.837 260.931 350.986 260.782 351.17 260.782C351.353 260.782 351.504 260.931 351.504 261.115V264.104C351.5 264.289 351.351 264.437 351.169 264.437Z" fill="url(#paint28_linear_671_1723)"/>
<path d="M342.592 264.437H337.007C336.823 264.437 336.674 264.288 336.674 264.104C336.674 263.92 336.823 263.771 337.007 263.771H342.592C342.774 263.771 342.925 263.92 342.925 264.104C342.925 264.288 342.776 264.437 342.592 264.437ZM331.421 264.437H325.837C325.653 264.437 325.504 264.288 325.504 264.104C325.504 263.92 325.653 263.771 325.837 263.771H331.421C331.606 263.771 331.755 263.92 331.755 264.104C331.755 264.288 331.606 264.437 331.421 264.437ZM320.253 264.437H314.669C314.486 264.437 314.335 264.288 314.335 264.104C314.335 263.92 314.484 263.771 314.669 263.771H320.253C320.437 263.771 320.586 263.92 320.586 264.104C320.586 264.288 320.437 264.437 320.253 264.437ZM309.083 264.437H303.499C303.314 264.437 303.165 264.288 303.165 264.104C303.165 263.92 303.314 263.771 303.499 263.771H309.083C309.267 263.771 309.416 263.92 309.416 264.104C309.416 264.288 309.267 264.437 309.083 264.437ZM297.913 264.437H292.328C292.144 264.437 291.995 264.288 291.995 264.104C291.995 263.92 292.144 263.771 292.328 263.771H297.913C298.097 263.771 298.246 263.92 298.246 264.104C298.246 264.288 298.097 264.437 297.913 264.437ZM286.744 264.437H281.16C280.975 264.437 280.826 264.288 280.826 264.104C280.826 263.92 280.975 263.771 281.16 263.771H286.744C286.927 263.771 287.076 263.92 287.076 264.104C287.076 264.288 286.927 264.437 286.744 264.437ZM275.574 264.437H269.99C269.805 264.437 269.656 264.288 269.656 264.104C269.656 263.92 269.805 263.771 269.99 263.771H275.574C275.758 263.771 275.907 263.92 275.907 264.104C275.907 264.288 275.758 264.437 275.574 264.437Z" fill="url(#paint29_linear_671_1723)"/>
<path d="M264.407 264.437H261.415C261.231 264.437 261.082 264.289 261.082 264.104V261.115C261.082 260.931 261.231 260.782 261.415 260.782C261.6 260.782 261.749 260.931 261.749 261.115V263.771H264.407C264.591 263.771 264.74 263.92 264.74 264.104C264.74 264.289 264.591 264.437 264.407 264.437Z" fill="url(#paint30_linear_671_1723)"/>
<path d="M261.415 255.868C261.231 255.868 261.082 255.719 261.082 255.535V249.955C261.082 249.771 261.231 249.622 261.415 249.622C261.6 249.622 261.749 249.771 261.749 249.955V255.535C261.749 255.719 261.6 255.868 261.415 255.868ZM261.415 244.706C261.231 244.706 261.082 244.557 261.082 244.373V238.793C261.082 238.609 261.231 238.46 261.415 238.46C261.6 238.46 261.749 238.609 261.749 238.793V244.373C261.749 244.557 261.6 244.706 261.415 244.706ZM261.415 233.546C261.231 233.546 261.082 233.397 261.082 233.213V227.633C261.082 227.449 261.231 227.3 261.415 227.3C261.6 227.3 261.749 227.449 261.749 227.633V233.213C261.749 233.397 261.6 233.546 261.415 233.546ZM261.415 222.384C261.231 222.384 261.082 222.235 261.082 222.051V216.471C261.082 216.287 261.231 216.138 261.415 216.138C261.6 216.138 261.749 216.287 261.749 216.471V222.051C261.749 222.235 261.6 222.384 261.415 222.384ZM261.415 211.222C261.231 211.222 261.082 211.074 261.082 210.889V205.309C261.082 205.125 261.231 204.976 261.415 204.976C261.6 204.976 261.749 205.125 261.749 205.309V210.889C261.749 211.074 261.6 211.222 261.415 211.222ZM261.415 200.062C261.231 200.062 261.082 199.914 261.082 199.729V194.148C261.082 193.963 261.231 193.814 261.415 193.814C261.6 193.814 261.749 193.963 261.749 194.148V199.729C261.749 199.914 261.6 200.062 261.415 200.062ZM261.415 188.901C261.231 188.901 261.082 188.752 261.082 188.567V182.987C261.082 182.803 261.231 182.654 261.415 182.654C261.6 182.654 261.749 182.803 261.749 182.987V188.567C261.749 188.752 261.6 188.901 261.415 188.901Z" fill="url(#paint31_linear_671_1723)"/>
<path d="M261.415 177.739C261.231 177.739 261.082 177.59 261.082 177.406V174.416C261.082 174.232 261.231 174.083 261.415 174.083H264.407C264.591 174.083 264.74 174.232 264.74 174.416C264.74 174.6 264.591 174.749 264.407 174.749H261.749V177.406C261.749 177.59 261.6 177.739 261.415 177.739Z" fill="url(#paint32_linear_671_1723)"/>
<path d="M342.592 174.749H337.007C336.823 174.749 336.674 174.6 336.674 174.416C336.674 174.232 336.823 174.083 337.007 174.083H342.592C342.774 174.083 342.925 174.232 342.925 174.416C342.925 174.6 342.776 174.749 342.592 174.749ZM331.421 174.749H325.837C325.653 174.749 325.504 174.6 325.504 174.416C325.504 174.232 325.653 174.083 325.837 174.083H331.421C331.606 174.083 331.755 174.232 331.755 174.416C331.755 174.6 331.606 174.749 331.421 174.749ZM320.253 174.749H314.669C314.486 174.749 314.335 174.6 314.335 174.416C314.335 174.232 314.484 174.083 314.669 174.083H320.253C320.437 174.083 320.586 174.232 320.586 174.416C320.586 174.6 320.437 174.749 320.253 174.749ZM309.083 174.749H303.499C303.314 174.749 303.165 174.6 303.165 174.416C303.165 174.232 303.314 174.083 303.499 174.083H309.083C309.267 174.083 309.416 174.232 309.416 174.416C309.416 174.6 309.267 174.749 309.083 174.749ZM297.913 174.749H292.328C292.144 174.749 291.995 174.6 291.995 174.416C291.995 174.232 292.144 174.083 292.328 174.083H297.913C298.097 174.083 298.246 174.232 298.246 174.416C298.246 174.6 298.097 174.749 297.913 174.749ZM286.744 174.749H281.16C280.975 174.749 280.826 174.6 280.826 174.416C280.826 174.232 280.975 174.083 281.16 174.083H286.744C286.927 174.083 287.076 174.232 287.076 174.416C287.076 174.6 286.927 174.749 286.744 174.749ZM275.574 174.749H269.99C269.805 174.749 269.656 174.6 269.656 174.416C269.656 174.232 269.805 174.083 269.99 174.083H275.574C275.758 174.083 275.907 174.232 275.907 174.416C275.907 174.6 275.758 174.749 275.574 174.749Z" fill="url(#paint33_linear_671_1723)"/>
<path d="M351.171 177.739C350.986 177.739 350.837 177.59 350.837 177.406V174.749H348.177C347.994 174.749 347.844 174.6 347.844 174.416C347.844 174.232 347.993 174.083 348.177 174.083H351.169C351.351 174.083 351.502 174.232 351.502 174.416V177.406C351.502 177.59 351.353 177.739 351.171 177.739Z" fill="url(#paint34_linear_671_1723)"/>
<path d="M351.173 255.868C350.989 255.868 350.84 255.719 350.84 255.535V249.955C350.84 249.771 350.989 249.622 351.173 249.622C351.356 249.622 351.507 249.771 351.507 249.955V255.535C351.505 255.719 351.356 255.868 351.173 255.868ZM351.173 244.706C350.989 244.706 350.84 244.557 350.84 244.373V238.793C350.84 238.609 350.989 238.46 351.173 238.46C351.356 238.46 351.507 238.609 351.507 238.793V244.373C351.505 244.557 351.356 244.706 351.173 244.706ZM351.173 233.546C350.989 233.546 350.84 233.397 350.84 233.213V227.633C350.84 227.449 350.989 227.3 351.173 227.3C351.356 227.3 351.507 227.449 351.507 227.633V233.213C351.505 233.397 351.356 233.546 351.173 233.546ZM351.173 222.384C350.989 222.384 350.84 222.235 350.84 222.051V216.471C350.84 216.287 350.989 216.138 351.173 216.138C351.356 216.138 351.507 216.287 351.507 216.471V222.051C351.505 222.235 351.356 222.384 351.173 222.384ZM351.173 211.222C350.989 211.222 350.84 211.074 350.84 210.889V205.309C350.84 205.125 350.989 204.976 351.173 204.976C351.356 204.976 351.507 205.125 351.507 205.309V210.889C351.505 211.074 351.356 211.222 351.173 211.222ZM351.173 200.062C350.989 200.062 350.84 199.914 350.84 199.729V194.148C350.84 193.963 350.989 193.814 351.173 193.814C351.356 193.814 351.507 193.963 351.507 194.148V199.729C351.505 199.914 351.356 200.062 351.173 200.062ZM351.173 188.901C350.989 188.901 350.84 188.752 350.84 188.567V182.987C350.84 182.803 350.989 182.654 351.173 182.654C351.356 182.654 351.507 182.803 351.507 182.987V188.567C351.505 188.752 351.356 188.901 351.173 188.901Z" fill="url(#paint35_linear_671_1723)"/>
<path d="M616.566 426.065H461.657C458.075 426.065 455.172 423.164 455.172 419.585V226.634C455.172 223.054 458.075 220.153 461.657 220.153H597.899L623.052 263.651V419.585C623.052 423.164 620.147 426.065 616.566 426.065Z" fill="white"/>
<path d="M597.898 220.109L579.369 252.179C576.423 257.277 580.105 263.65 585.997 263.65H623.057L597.898 220.109Z" fill="white"/>
<path d="M598.737 284.59H479.496V368.913H598.737V284.59Z" fill="#EEEEFD"/>
<path d="M590.479 351.602C580.683 345.076 563.109 333.62 548.121 325.151C557.073 320.587 566.612 316.426 572.354 315.747C582.589 314.555 588.386 340.164 590.479 351.602Z" fill="#D4CCF3"/>
<path d="M591.36 356.998C579.509 349.002 532.084 317.47 520.074 316.67C508.407 315.892 491.691 347.397 486.875 356.998H591.36Z" fill="#D4CCF3"/>
<path d="M557.065 305.212C557.065 310.022 553.164 313.92 548.351 313.92C543.538 313.92 539.637 310.022 539.637 305.212C539.637 300.403 543.538 296.505 548.351 296.505C553.164 296.505 557.065 300.403 557.065 305.212Z" fill="url(#paint36_linear_671_1723)"/>
<path d="M675.191 460.068H666.121C665.564 460.068 665.113 459.616 665.113 459.062C665.113 458.507 665.565 458.055 666.121 458.055H674.184V449.998C674.184 449.441 674.636 448.991 675.191 448.991C675.746 448.991 676.198 449.443 676.198 449.998V459.062C676.198 459.618 675.746 460.068 675.191 460.068Z" fill="url(#paint37_linear_671_1723)"/>
<path d="M649.186 460.066H632.252C631.695 460.066 631.245 459.614 631.245 459.06C631.245 458.505 631.697 458.053 632.252 458.053H649.186C649.743 458.053 650.193 458.505 650.193 459.06C650.193 459.614 649.741 460.066 649.186 460.066ZM615.317 460.066H598.383C597.827 460.066 597.376 459.614 597.376 459.06C597.376 458.505 597.828 458.053 598.383 458.053H615.317C615.874 458.053 616.324 458.505 616.324 459.06C616.324 459.614 615.874 460.066 615.317 460.066ZM581.448 460.066H564.514C563.958 460.066 563.507 459.614 563.507 459.06C563.507 458.505 563.959 458.053 564.514 458.053H581.448C582.005 458.053 582.455 458.505 582.455 459.06C582.455 459.614 582.005 460.066 581.448 460.066ZM547.581 460.066H530.647C530.091 460.066 529.64 459.614 529.64 459.06C529.64 458.505 530.092 458.053 530.647 458.053H547.581C548.138 458.053 548.588 458.505 548.588 459.06C548.588 459.614 548.136 460.066 547.581 460.066ZM513.712 460.066H496.778C496.222 460.066 495.771 459.614 495.771 459.06C495.771 458.505 496.222 458.053 496.778 458.053H513.712C514.269 458.053 514.719 458.505 514.719 459.06C514.719 459.614 514.269 460.066 513.712 460.066ZM479.845 460.066H462.911C462.355 460.066 461.904 459.614 461.904 459.06C461.904 458.505 462.355 458.053 462.911 458.053H479.845C480.402 458.053 480.852 458.505 480.852 459.06C480.852 459.614 480.402 460.066 479.845 460.066ZM445.976 460.066H429.042C428.486 460.066 428.035 459.614 428.035 459.06C428.035 458.505 428.486 458.053 429.042 458.053H445.976C446.533 458.053 446.983 458.505 446.983 459.06C446.983 459.614 446.533 460.066 445.976 460.066Z" fill="url(#paint38_linear_671_1723)"/>
<path d="M412.111 460.068H403.038C402.482 460.068 402.031 459.616 402.031 459.062V449.998C402.031 449.441 402.482 448.991 403.038 448.991C403.595 448.991 404.046 449.443 404.046 449.998V458.055H412.109C412.666 458.055 413.116 458.507 413.116 459.062C413.116 459.616 412.668 460.068 412.111 460.068Z" fill="url(#paint39_linear_671_1723)"/>
<path d="M403.038 434.08C402.482 434.08 402.031 433.628 402.031 433.073V416.152C402.031 415.596 402.482 415.146 403.038 415.146C403.595 415.146 404.046 415.598 404.046 416.152V433.073C404.046 433.628 403.595 434.08 403.038 434.08ZM403.038 400.238C402.482 400.238 402.031 399.786 402.031 399.232V382.311C402.031 381.754 402.482 381.304 403.038 381.304C403.595 381.304 404.046 381.756 404.046 382.311V399.232C404.046 399.786 403.595 400.238 403.038 400.238ZM403.038 366.395C402.482 366.395 402.031 365.943 402.031 365.388V348.467C402.031 347.911 402.482 347.461 403.038 347.461C403.595 347.461 404.046 347.913 404.046 348.467V365.388C404.046 365.943 403.595 366.395 403.038 366.395ZM403.038 332.551C402.482 332.551 402.031 332.101 402.031 331.545V314.624C402.031 314.067 402.482 313.617 403.038 313.617C403.595 313.617 404.046 314.067 404.046 314.624V331.545C404.046 332.101 403.595 332.551 403.038 332.551ZM403.038 298.71C402.482 298.71 402.031 298.259 402.031 297.703V280.782C402.031 280.226 402.482 279.776 403.038 279.776C403.595 279.776 404.046 280.226 404.046 280.782V297.703C404.046 298.258 403.595 298.71 403.038 298.71ZM403.038 264.866C402.482 264.866 402.031 264.416 402.031 263.86V246.939C402.031 246.382 402.482 245.932 403.038 245.932C403.595 245.932 404.046 246.382 404.046 246.939V263.86C404.046 264.416 403.595 264.866 403.038 264.866ZM403.038 231.023C402.482 231.023 402.031 230.573 402.031 230.016V213.095C402.031 212.539 402.482 212.089 403.038 212.089C403.595 212.089 404.046 212.539 404.046 213.095V230.016C404.046 230.573 403.595 231.023 403.038 231.023Z" fill="url(#paint40_linear_671_1723)"/>
<path d="M403.038 197.181C402.482 197.181 402.031 196.731 402.031 196.175V187.109C402.031 186.553 402.482 186.103 403.038 186.103H412.111C412.668 186.103 413.118 186.553 413.118 187.109C413.118 187.665 412.668 188.116 412.111 188.116H404.048V196.173C404.046 196.731 403.595 197.181 403.038 197.181Z" fill="url(#paint41_linear_671_1723)"/>
<path d="M649.186 188.117H632.252C631.695 188.117 631.245 187.667 631.245 187.11C631.245 186.554 631.697 186.104 632.252 186.104H649.186C649.743 186.104 650.193 186.554 650.193 187.11C650.193 187.665 649.741 188.117 649.186 188.117ZM615.317 188.117H598.383C597.827 188.117 597.376 187.667 597.376 187.11C597.376 186.554 597.828 186.104 598.383 186.104H615.317C615.874 186.104 616.324 186.554 616.324 187.11C616.324 187.665 615.874 188.117 615.317 188.117ZM581.448 188.117H564.514C563.958 188.117 563.507 187.667 563.507 187.11C563.507 186.554 563.959 186.104 564.514 186.104H581.448C582.005 186.104 582.455 186.554 582.455 187.11C582.457 187.665 582.005 188.117 581.448 188.117ZM547.581 188.117H530.647C530.091 188.117 529.64 187.667 529.64 187.11C529.64 186.554 530.092 186.104 530.647 186.104H547.581C548.138 186.104 548.588 186.554 548.588 187.11C548.588 187.665 548.136 188.117 547.581 188.117ZM513.714 188.117H496.78C496.223 188.117 495.773 187.667 495.773 187.11C495.773 186.554 496.223 186.104 496.78 186.104H513.714C514.271 186.104 514.721 186.554 514.721 187.11C514.721 187.665 514.271 188.117 513.714 188.117ZM479.845 188.117H462.911C462.355 188.117 461.904 187.667 461.904 187.11C461.904 186.554 462.355 186.104 462.911 186.104H479.845C480.402 186.104 480.852 186.554 480.852 187.11C480.854 187.665 480.402 188.117 479.845 188.117ZM445.976 188.117H429.042C428.486 188.117 428.035 187.667 428.035 187.11C428.035 186.554 428.486 186.104 429.042 186.104H445.976C446.533 186.104 446.983 186.554 446.983 187.11C446.985 187.665 446.535 188.117 445.976 188.117Z" fill="url(#paint42_linear_671_1723)"/>
<path d="M675.191 197.181C674.634 197.181 674.184 196.731 674.184 196.174V188.117H666.121C665.564 188.117 665.113 187.667 665.113 187.11C665.113 186.554 665.565 186.104 666.121 186.104H675.191C675.746 186.104 676.198 186.554 676.198 187.11V196.176C676.198 196.731 675.746 197.181 675.191 197.181Z" fill="url(#paint43_linear_671_1723)"/>
<path d="M675.191 434.079C674.634 434.079 674.184 433.628 674.184 433.073V416.152C674.184 415.596 674.636 415.146 675.191 415.146C675.746 415.146 676.198 415.597 676.198 416.152V433.073C676.198 433.628 675.746 434.079 675.191 434.079ZM675.191 400.238C674.634 400.238 674.184 399.786 674.184 399.231V382.31C674.184 381.754 674.636 381.304 675.191 381.304C675.746 381.304 676.198 381.756 676.198 382.31V399.231C676.198 399.786 675.746 400.238 675.191 400.238ZM675.191 366.394C674.634 366.394 674.184 365.942 674.184 365.388V348.467C674.184 347.911 674.636 347.46 675.191 347.46C675.746 347.46 676.198 347.912 676.198 348.467V365.388C676.198 365.942 675.746 366.394 675.191 366.394ZM675.191 332.553C674.634 332.553 674.184 332.103 674.184 331.546V314.625C674.184 314.069 674.636 313.619 675.191 313.619C675.746 313.619 676.198 314.069 676.198 314.625V331.546C676.198 332.101 675.746 332.553 675.191 332.553ZM675.191 298.709C674.634 298.709 674.184 298.259 674.184 297.703V280.782C674.184 280.226 674.636 279.775 675.191 279.775C675.746 279.775 676.198 280.226 676.198 280.782V297.703C676.198 298.259 675.746 298.709 675.191 298.709ZM675.191 264.868C674.634 264.868 674.184 264.417 674.184 263.861V246.94C674.184 246.384 674.636 245.934 675.191 245.934C675.746 245.934 676.198 246.384 676.198 246.94V263.861C676.198 264.416 675.746 264.868 675.191 264.868ZM675.191 231.024C674.634 231.024 674.184 230.574 674.184 230.018V213.097C674.184 212.54 674.636 212.09 675.191 212.09C675.746 212.09 676.198 212.54 676.198 213.097V230.018C676.198 230.574 675.746 231.024 675.191 231.024Z" fill="url(#paint44_linear_671_1723)"/>
<path d="M787.087 326.186H726.35C724.268 326.186 722.582 324.501 722.582 322.421C722.582 320.34 724.268 318.655 726.35 318.655H787.087C789.169 318.655 790.855 320.34 790.855 322.421C790.855 324.499 789.169 326.186 787.087 326.186Z" fill="#9391EC"/>
<path d="M808.81 339.919H726.35C724.268 339.919 722.582 338.234 722.582 336.154C722.582 334.073 724.268 332.388 726.35 332.388H808.81C810.892 332.388 812.579 334.073 812.579 336.154C812.579 338.232 810.892 339.919 808.81 339.919Z" fill="#9391EC"/>
<path d="M808.81 353.652H726.35C724.268 353.652 722.582 351.967 722.582 349.887C722.582 347.806 724.268 346.121 726.35 346.121H808.81C810.892 346.121 812.579 347.806 812.579 349.887C812.579 351.965 810.892 353.652 808.81 353.652Z" fill="#9391EC"/>
<path d="M808.81 367.385H726.35C724.268 367.385 722.582 365.7 722.582 363.62C722.582 361.539 724.268 359.854 726.35 359.854H808.81C810.892 359.854 812.579 361.539 812.579 363.62C812.579 365.698 810.892 367.385 808.81 367.385Z" fill="#9391EC"/>
<path d="M808.81 381.118H726.35C724.268 381.118 722.582 379.433 722.582 377.352C722.582 375.272 724.268 373.587 726.35 373.587H808.81C810.892 373.587 812.579 375.272 812.579 377.352C812.579 379.431 810.892 381.118 808.81 381.118Z" fill="#9391EC"/>
<path d="M756.497 394.851H726.35C724.268 394.851 722.582 393.166 722.582 391.086C722.582 389.005 724.268 387.32 726.35 387.32H756.497C758.579 387.32 760.265 389.005 760.265 391.086C760.265 393.164 758.579 394.851 756.497 394.851Z" fill="#9391EC"/>
<path d="M821.238 297.465C819.243 287.675 811.882 279.843 802.357 277.137C801.88 262.801 790.128 251.319 775.667 251.319C762.005 251.319 750.757 261.565 749.148 274.782C748.123 274.645 747.086 274.55 746.025 274.55C733.078 274.55 722.582 285.038 722.582 297.974C722.582 297.983 722.582 297.992 722.582 297.999C722.584 299.386 723.76 300.49 725.15 300.49H818.706C820.307 300.492 821.559 299.034 821.238 297.465Z" fill="#9391EC"/>
<path d="M771.936 260.769L761.715 278.461H782.158L771.936 260.769Z" fill="white"/>
<path d="M776.398 276.088H767.473V296.207H776.398V276.088Z" fill="white"/>
<path d="M759.956 535.472C751.971 534.719 743.98 534.04 735.982 533.439C736.365 555.644 736.828 572.93 736.951 577.293C735.268 578.33 726.061 583.812 717.487 585.123C717.494 585.357 717.524 585.584 717.524 585.818C717.524 587.053 717.4 588.263 717.219 589.458H753.563C755.149 589.458 756.619 588.301 757.012 586.732C757.488 584.843 756.209 580.256 755.232 576.269L759.956 535.472Z" fill="#FFB7D6"/>
<path d="M728.266 581.785C728.266 581.785 706.683 584.776 710.389 590.944C710.579 591.26 710.948 591.428 711.315 591.426L755.636 591.21C756.035 591.208 756.4 591.003 756.593 590.655C757.295 589.403 758.664 586.08 756.944 581.313C756.944 581.313 751.587 585.743 746.045 585.965C740.504 586.186 716.897 586.435 718.651 585.63C722.946 583.665 725.329 583.197 728.266 581.785Z" fill="#517FC4"/>
<path d="M725.381 564.008C724.998 562.172 722.398 549.75 718.678 532.312C710.061 531.841 701.439 531.449 692.812 531.123L705.986 571.131L705.878 571.206C705.878 571.206 698.966 580.28 690.496 584.349C690.868 585.266 691.209 586.206 691.484 587.182C691.541 587.607 691.597 588.033 691.656 588.46L726.995 576.853C728.5 576.359 729.417 574.84 729.144 573.279C728.821 571.433 727.653 567.366 725.381 564.008Z" fill="#FFB7D6"/>
<path d="M700.354 577.224C700.354 577.224 681.011 587.246 686.565 591.825C686.848 592.059 687.253 592.094 687.598 591.97L729.302 576.976C729.676 576.841 729.953 576.526 730.02 576.134C730.263 574.72 730.442 571.13 727.229 567.212C727.229 567.212 723.661 573.175 718.511 575.234C713.361 577.293 691.193 585.407 692.58 584.064C695.969 580.773 698.058 579.534 700.354 577.224Z" fill="#517FC4"/>
<path d="M771.83 371.627H709.764C709.764 371.627 669.864 453.139 671.933 472.631C674.003 492.123 663.363 544.693 703.853 564.775L724.837 559.459C724.837 559.459 729.32 524.693 719.237 492.68C715.415 480.545 716.008 467.452 720.844 455.684L737.545 415.041L731.042 478.833C731.042 478.833 723.358 527.563 735.179 568.91H757.642C757.642 568.91 775.099 543.146 769.307 493.158C768.704 487.95 768.924 482.684 769.89 477.531C773.866 456.345 783.031 399.01 771.83 371.627Z" fill="#3A376B"/>
<path d="M633.695 284.284C634.951 289.194 636.526 293.994 638.308 298.694C641.794 295.295 645.247 291.847 648.604 288.31C646.701 285.96 645.114 283.995 643.935 282.535C643.922 282.519 643.913 282.508 643.901 282.492C644.711 279.583 644.454 273.389 643.858 272.319C643.119 270.99 638.17 271.951 638.17 271.951C638.17 271.951 632.85 262.058 631.52 262.573C630.19 263.091 634.032 271.729 634.032 271.729C634.032 271.729 631.225 271.065 630.929 273.501C630.929 273.501 628.191 273.292 628.489 275.759C628.505 275.892 628.519 276.005 628.532 276.111C628.354 276.248 626.521 277.671 627.014 278.374C627.466 279.024 632.493 283.272 633.695 284.284Z" fill="#FFB7D6"/>
<path d="M634.027 287.161C634.027 287.161 638.461 331.24 658.854 342.093C679.247 352.947 725.797 315.292 728.014 312.855C730.231 310.419 722.694 288.49 722.694 289.155C722.694 289.819 672.819 316.399 672.819 316.399L645.111 282.067L634.027 287.161Z" fill="#8F80C7"/>
<path d="M765.968 291.056C763.774 288.997 760.827 287.925 757.819 287.82C755.039 287.723 752.797 287.129 750.971 286.295C747.942 276.903 750.868 259.162 751.254 256.901C751.272 256.819 751.281 256.747 751.301 256.665L726.954 270.345C727.364 271.025 727.591 271.952 727.69 273.022V273.031C727.909 275.2 727.6 277.961 727.164 280.475C726.669 283.3 726.011 285.791 725.731 286.803C723.183 289.888 719.595 291.038 714.38 294.169C706.435 298.94 711.362 312.162 712.747 325.568C714.266 340.266 714.791 360.143 714.791 360.143H764.68C763.356 347.859 766.484 329.569 769.938 309.409C771.662 299.328 769.032 293.932 765.968 291.056Z" fill="#FFB7D6"/>
<path d="M724.987 287.012C724.987 287.012 727.944 305.914 733.854 307.833C739.765 309.752 751.144 285.538 751.144 285.538C751.144 285.538 758.681 287.31 763.705 288.196C768.728 289.082 771.537 295.578 771.981 305.618C772.406 315.249 763.588 352.179 771.47 369.517C772.006 370.695 771.422 372.068 770.193 372.478C762.575 375.017 737.587 381.958 708.632 375.136C708.018 374.99 707.6 374.414 707.667 373.787C708.419 366.666 712.498 326.613 710.212 316.399C707.699 305.177 707.552 298.087 712.281 294.395C717.011 290.702 724.987 287.012 724.987 287.012Z" fill="#B5A7E9"/>
<path d="M740.064 316.513L697.695 364.086L670.563 344.36C669.934 343.903 669.842 343.063 670.356 342.485L711.79 295.959L740.064 316.513Z" fill="url(#paint45_linear_671_1723)"/>
<path d="M698.225 301.226L700.41 303.49L671.806 335.578C671.352 336.086 671.363 336.811 671.831 337.295L697.697 364.087L740.088 316.534L715.184 290.737L713.414 288.905L711.563 286.988C710.965 286.369 709.888 286.398 709.31 287.048L698.2 299.512C697.746 300.017 697.757 300.742 698.225 301.226Z" fill="url(#paint46_linear_671_1723)"/>
<path d="M755.468 355.348C754.704 352.922 753.881 350.491 753.041 348.056C739.443 344.158 729.555 341.262 728.468 340.943C728.397 340.925 728.361 340.908 728.361 340.908L723.999 348.527L723.91 348.669C734.798 358.202 747.229 365.733 759.856 371.687C759.93 371.723 760.003 371.758 760.077 371.792C760.304 371.9 760.535 371.967 760.764 372.061C759.015 366.485 757.224 360.919 755.468 355.348Z" fill="#D88567"/>
<path d="M725.772 348.573C725.772 348.573 711.346 348.421 706.615 345.91C706.314 345.751 706.324 345.363 706.633 345.21C707.284 344.891 708.812 344.586 712.373 345.081C712.373 345.081 705.298 342.182 704.76 340.897C704.223 339.612 713.728 342.005 713.728 342.005C713.728 342.005 706.117 337.888 706.119 336.612C706.12 335.337 715.223 338.829 715.223 338.829C715.223 338.829 707.622 334.13 708.092 333.566C709.263 332.163 720.112 338.469 720.644 337.247C721.116 336.162 719.236 333.68 718.06 332.583C717.814 332.353 717.814 331.982 718.078 331.764C718.596 331.337 719.562 330.919 720.871 331.989C722.894 333.643 727.193 337.273 729.746 343.649L725.772 348.573Z" fill="#FFB7D6"/>
<path d="M724.395 349.477C724.395 349.477 753.951 383.588 774.344 379.158C794.737 374.728 777.891 300.009 773.014 295.579C768.137 291.149 765.477 287.309 758.384 288.786C751.291 290.262 746.414 314.923 756.907 346.523L728.977 340.026L724.543 349.033" fill="#8F80C7"/>
<path d="M758.051 249.334C757.415 247.335 755.278 245.734 753.152 246.265C753.004 246.302 752.777 246.398 752.524 246.522C752.813 239.542 751.793 231.896 746.938 227.679C736.491 218.601 721.501 221.778 718.322 229.949C714.686 239.289 714.502 250.851 714.622 260.737C714.638 262.032 714.677 263.351 715.11 264.572C716.772 269.264 723.466 272.159 727.99 273.099C733.806 274.305 739.653 272.785 744.218 268.995C747.839 265.989 750.181 261.749 751.178 257.158C752.215 257.246 753.682 257.005 754.012 256.879C755.322 256.38 756.549 255.293 757.307 254.129C758.216 252.724 758.559 250.926 758.051 249.334Z" fill="#FFB7D6"/>
<path d="M730.047 236.824C730.673 236.269 731.381 236.089 732.125 236.055C732.863 236.037 733.622 236.124 734.338 236.369C735.062 236.59 735.73 236.996 736.287 237.485C736.869 237.955 737.277 238.577 737.617 239.19C737.789 239.5 737.678 239.89 737.367 240.061C737.119 240.2 736.819 240.155 736.621 239.973L736.566 239.923C736.13 239.521 735.709 239.145 735.241 238.872C734.791 238.569 734.283 238.403 733.778 238.272C733.267 238.153 732.735 238.089 732.193 238.118C731.657 238.135 731.088 238.164 730.499 238.02L730.329 237.979C729.969 237.891 729.747 237.527 729.836 237.168C729.875 237.03 729.949 236.913 730.047 236.824Z" fill="#0E293A"/>
<path d="M756.733 233.557C756.804 229.375 754.109 225.529 750.615 223.243C747.122 220.975 742.937 220.036 738.805 219.505C735.435 219.079 732.031 218.884 728.679 219.416C725.345 219.948 722.064 221.259 719.564 223.527C716.762 226.079 715.113 229.658 714.013 233.273C712.222 239.191 711.726 245.429 711.85 251.613C711.956 256.185 712.417 260.863 714.439 264.974C716.993 270.148 722.064 274.011 727.739 275.128C727.775 274.383 727.757 273.692 727.686 273.037V273.019C723.182 272.027 716.727 269.156 715.113 264.567C714.67 263.344 714.634 262.033 714.616 260.739C714.554 255.846 714.576 250.541 715.047 245.298C718.578 241.422 721.123 236.48 722.435 231.421C723.242 235.38 726.28 238.596 729.798 240.584C733.316 242.574 743.571 246.898 745.091 249.194C745.485 249.79 745.957 250.438 746.659 250.564C747.379 250.694 748.06 250.226 748.611 249.747C749.902 248.627 751.308 247.538 752.53 246.341C752.529 246.396 752.53 246.455 752.529 246.51C752.795 246.386 753.007 246.297 753.149 246.262C755.277 245.73 757.405 247.343 758.044 249.327C758.558 250.922 758.221 252.73 757.299 254.129C756.554 255.299 755.313 256.38 754.018 256.876C753.681 257 752.227 257.248 751.199 257.142C750.95 258.63 750.188 263.432 749.815 268.997C749.975 268.926 750.117 268.855 750.259 268.766C756.093 265.346 760.367 259.339 761.643 252.712C762.922 246.067 760.883 238.89 756.733 233.557Z" fill="#1C056D"/>
<path d="M311.517 529.523C311.517 529.523 311.499 529.523 311.464 529.523C310.187 529.399 287.541 527.148 262.271 524.384C251.88 509.375 242.304 495.252 237.64 487.509C235.423 483.823 233.313 481.13 231.38 479.163C224.907 472.571 214.675 476.629 214.533 485.985C214.48 489.635 215.544 494.26 218.736 499.93C221.591 504.998 225.758 512.352 231.202 520.84C233.745 524.806 236.565 529.014 239.658 533.35C245.705 541.828 255.666 546.594 266.079 546.265C269.719 546.15 273.399 545.937 277.098 545.613C289.068 544.549 301.215 542.299 312.831 538.277V538.241L311.517 529.523Z" fill="#FFB7D6"/>
<path d="M339.474 557.441L304.814 515.219L301.578 511.278C293.16 501.029 278.37 498.754 267.258 505.999L260.374 510.488L221.542 535.815C221.443 543.844 220.966 551.923 221.225 559.796C221.434 566.127 221.46 573.495 221.696 580.735C221.778 580.68 221.856 580.633 221.937 580.578C232.505 573.39 257.459 553.615 283.078 532.884C301.166 550.654 317.352 566.375 325.103 573.881C329.708 568.25 334.542 562.804 339.474 557.441Z" fill="#FFB7D6"/>
<path d="M311.545 523.412C311.545 523.412 305.564 524.627 306.195 526.204C306.826 527.781 311.785 527.041 311.785 527.041C311.785 527.041 307.227 534.804 307.933 535.656C308.641 536.508 312.895 531.587 312.895 531.587C312.895 531.587 309.274 538.085 310.366 538.863C311.458 539.641 315.119 532.81 315.119 532.81C315.119 532.81 312.826 539.243 313.789 539.639C314.751 540.036 318.059 533.942 318.059 533.942C318.059 533.942 316.495 539.397 317.562 539.677C318.63 539.957 322.425 533.212 322.017 531.68C321.609 530.147 316.431 522.97 314.329 521.966C312.228 520.959 309.901 521.423 309.901 521.423L311.545 523.412Z" fill="#FFB7D6"/>
<path d="M311.324 561.141L332.973 583.296C332.973 583.296 336.929 588.573 338.281 588.95C339.632 589.328 342.306 586.537 342.306 586.537L338.165 580.53L344.581 584.652L374.233 558.662L370.575 556.475L346.876 565.023L331.34 546.858L311.324 561.141Z" fill="#517FC4"/>
<path d="M383.715 569.898C353.167 565.881 263.596 554.45 228.676 553.768C228.075 559.052 227.63 564.424 227.367 570.183C227.043 577.286 227.266 584.265 227.392 591.228L385.942 589.371C385.141 582.883 384.352 576.398 383.715 569.898Z" fill="#FFB7D6"/>
<path d="M366.281 591.663L397.268 591.615C397.268 591.615 403.812 592.462 405.025 591.759C406.238 591.056 406.101 587.194 406.101 587.194L398.905 585.968L406.336 584.249L408.38 544.89L404.261 545.983L393.862 568.914L370 567.367L366.281 591.663Z" fill="#517FC4"/>
<path d="M183.01 542.051C183.01 542.051 176.286 557.476 180.983 578.182C182.74 585.927 189.619 591.445 197.567 591.445H276.763C276.77 591.445 276.775 591.451 276.775 591.444C276.773 591.151 276.537 562.174 273.45 555.562C270.347 548.917 268.499 501.959 268.499 501.959C268.499 501.959 220.693 540.5 183.01 542.051Z" fill="#3A376B"/>
<path d="M191.126 487.296C191.137 487.298 191.147 487.298 191.158 487.3C191.357 486.403 191.399 486.588 191.357 487.321C198.858 488.083 206.512 488.682 213.674 489.529C218.044 490.045 222.406 490.481 226.768 490.821C227.995 486.685 229.152 482.131 229.996 478.121C229.116 477.026 228.093 476.092 226.898 475.374C221.166 471.933 217.398 470.886 214.82 467.028C214.804 466.499 214.793 465.956 214.791 465.396C214.791 462.845 214.958 460.073 215.545 457.972L215.547 457.963C215.829 456.924 216.21 456.051 216.729 455.45L195.079 437.817C195.082 437.9 195.079 437.973 195.082 438.058C195.075 440.434 194.932 459.664 189.844 467.996L190.317 468.077C189.762 468.419 189.188 468.717 188.613 469.011C191.362 474.446 192.256 480.908 191.126 487.296Z" fill="#FFB7D6"/>
<path d="M214.412 535.847C214.412 535.847 186.335 544.707 181.015 544.264C181.015 544.264 179.242 541.902 180.129 535.7C181.015 529.498 177.747 499.172 177.321 490.661C176.804 480.325 181.311 467.773 190.474 468.216C199.637 468.659 211.015 487.117 216.484 483.868C221.951 480.62 215.781 468.251 215.781 468.251C215.781 468.251 231.261 476.041 232.74 481.504C234.217 486.967 235.696 500.849 234.66 504.687C233.626 508.527 226.827 523.736 227.271 529.348L214.412 535.847Z" fill="#B5A7E9"/>
<path d="M259.627 482.29C258.728 481.709 258.467 480.51 259.048 479.611L269.924 462.767C270.504 461.866 271.707 461.608 272.606 462.189C273.506 462.768 273.765 463.968 273.184 464.868L262.308 481.713C261.726 482.611 260.526 482.87 259.627 482.29Z" fill="#0E293A"/>
<path d="M272.844 480.807C273.399 478.371 271.402 477.43 271.402 477.43C272.899 474.827 270.737 473.443 270.737 473.443C271.623 470.84 270.363 469.229 270.363 469.229C270.363 469.229 264.752 477.541 263.2 477.43C261.648 477.318 263.977 472.445 263.422 471.394C262.867 470.342 261.205 471.616 261.205 471.616C258.589 474.65 257.552 481.676 257.29 483.816C252.092 488.434 239.874 499.271 226.077 511.362C216.679 499.029 208.362 487.847 203.981 481.326C201.587 477.747 199.353 475.142 197.331 473.282C190.557 467.009 180.52 471.563 180.839 480.901C180.946 484.569 182.223 489.123 185.698 494.616C190.238 501.828 197.828 513.843 208.149 526.955C208.812 527.797 209.486 528.644 210.172 529.493C217.182 538.183 230.294 538.635 237.802 530.37C238.317 529.803 238.831 529.231 239.342 528.657C249.923 516.775 259.762 503.046 266.623 487.803C268.969 486.951 272.274 485.547 273.008 484.185C274.174 482.025 272.844 480.807 272.844 480.807Z" fill="#FFB7D6"/>
<path d="M202.002 492.655C202.002 504.767 197.304 514.584 191.509 514.584C185.713 514.584 181.016 504.767 181.016 492.655C181.016 486.932 180.037 479.505 181.755 475.6C183.672 471.242 188.453 470.727 191.509 470.727C197.304 470.727 202.002 480.545 202.002 492.655Z" fill="#FFB7D6"/>
<path d="M234.497 438.531C233.97 435.753 233.444 432.974 232.917 430.196C233.144 425.72 232.977 421.275 232.14 417.122C230.408 408.531 216.189 402.831 204.327 410.004C198.837 413.333 196.517 420.682 195.604 427.61C195.381 427.446 194.086 438.228 195.115 438.317C195.326 443.011 196.909 447.584 199.958 451.169C203.801 455.682 209.307 458.183 215.244 457.988C219.86 457.834 226.962 456.115 229.386 451.786C230.032 450.657 230.294 449.353 230.532 448.082L230.722 446.982C230.835 446.425 230.936 445.85 231.035 445.274L231.176 444.471C231.392 443.218 231.599 441.941 231.796 440.652C232.186 440.773 232.582 440.87 232.99 440.856C233.593 440.837 234.226 440.542 234.474 439.993C234.678 439.539 234.589 439.017 234.497 438.531Z" fill="#FFB7D6"/>
<path d="M232.99 406.598C211.054 390.774 197.524 412.463 197.524 412.463L197.531 412.468L197.529 412.472C184.229 417.457 194.193 445.741 194.193 445.741C198.377 445.082 202.379 442.874 205.397 439.906C203.58 439.821 201.826 438.831 200.815 437.319C199.804 435.806 199.561 433.809 200.178 432.099C200.544 431.09 201.227 430.157 202.197 429.696C203.847 428.913 205.793 429.659 207.421 430.488C208.542 431.059 209.893 431.688 209.838 432.944C212.915 429.115 215.225 424.674 216.598 419.957C220.707 423.735 227.236 428.066 232.957 428.764C232.943 429.242 232.943 429.719 232.92 430.199C233.31 432.272 233.7 434.381 234.108 436.472C239.233 432.026 250.671 419.356 232.99 406.598Z" fill="#1C056D"/>
<path d="M996.555 591.943L799.531 591.832L789.419 488.671C789.185 486.279 790.936 484.342 793.33 484.342L986.02 484.45L996.555 591.943Z" fill="url(#paint47_linear_671_1723)"/>
<path d="M945.975 463.94L945.228 473.636L812.28 473.496C810.173 473.494 808.519 475.006 808.361 477.079L799.531 591.832L996.565 592.039L1005.07 481.55L1005.67 473.702L1006.3 465.492C1006.51 462.843 1004.23 460.415 1001.54 460.413L949.898 460.358C947.789 460.357 946.134 461.866 945.975 463.94Z" fill="url(#paint48_linear_671_1723)"/>
<path d="M1023.05 592.038H33.5351C32.5562 592.038 31.7617 591.246 31.7617 590.266C31.7617 589.286 32.5562 588.494 33.5351 588.494H1023.05C1024.04 588.494 1024.83 589.286 1024.83 590.266C1024.83 591.246 1024.04 592.038 1023.05 592.038Z" fill="#D4CCF3"/>
<defs>
<linearGradient id="paint0_linear_671_1723" x1="793.375" y1="131.126" x2="931.348" y2="131.126" gradientUnits="userSpaceOnUse">
<stop stop-color="#9942FF"/>
<stop offset="1" stop-color="#4D6DFF"/>
</linearGradient>
<linearGradient id="paint1_linear_671_1723" x1="773.956" y1="110.029" x2="846.23" y2="110.029" gradientUnits="userSpaceOnUse">
<stop stop-color="#9942FF"/>
<stop offset="1" stop-color="#4D6DFF"/>
</linearGradient>
<linearGradient id="paint2_linear_671_1723" x1="818.328" y1="195.037" x2="892.633" y2="195.037" gradientUnits="userSpaceOnUse">
<stop stop-color="#9942FF"/>
<stop offset="1" stop-color="#4D6DFF"/>
</linearGradient>
<linearGradient id="paint3_linear_671_1723" x1="818.184" y1="213.083" x2="936.72" y2="213.083" gradientUnits="userSpaceOnUse">
<stop stop-color="#9942FF"/>
<stop offset="1" stop-color="#4D6DFF"/>
</linearGradient>
<linearGradient id="paint4_linear_671_1723" x1="818.391" y1="238.059" x2="959.796" y2="238.059" gradientUnits="userSpaceOnUse">
<stop stop-color="#9942FF"/>
<stop offset="1" stop-color="#4D6DFF"/>
</linearGradient>
<linearGradient id="paint5_linear_671_1723" x1="0.00790904" y1="520.231" x2="215.353" y2="520.231" gradientUnits="userSpaceOnUse">
<stop stop-color="#9942FF"/>
<stop offset="1" stop-color="#4D6DFF"/>
</linearGradient>
<linearGradient id="paint6_linear_671_1723" x1="59.3088" y1="483.079" x2="259.808" y2="483.079" gradientUnits="userSpaceOnUse">
<stop stop-color="#9942FF"/>
<stop offset="1" stop-color="#4D6DFF"/>
</linearGradient>
<linearGradient id="paint7_linear_671_1723" x1="92.029" y1="444.056" x2="258.811" y2="444.056" gradientUnits="userSpaceOnUse">
<stop stop-color="#9942FF"/>
<stop offset="1" stop-color="#4D6DFF"/>
</linearGradient>
<linearGradient id="paint8_linear_671_1723" x1="152.657" y1="417.017" x2="257.683" y2="417.017" gradientUnits="userSpaceOnUse">
<stop stop-color="#9942FF"/>
<stop offset="1" stop-color="#4D6DFF"/>
</linearGradient>
<linearGradient id="paint9_linear_671_1723" x1="306.465" y1="421.013" x2="312.212" y2="421.013" gradientUnits="userSpaceOnUse">
<stop stop-color="#9942FF"/>
<stop offset="1" stop-color="#FC067D"/>
</linearGradient>
<linearGradient id="paint10_linear_671_1723" x1="347.844" y1="470.255" x2="351.504" y2="470.255" gradientUnits="userSpaceOnUse">
<stop stop-color="#9942FF"/>
<stop offset="1" stop-color="#4D6DFF"/>
</linearGradient>
<linearGradient id="paint11_linear_671_1723" x1="269.656" y1="471.753" x2="342.925" y2="471.753" gradientUnits="userSpaceOnUse">
<stop stop-color="#9942FF"/>
<stop offset="1" stop-color="#4D6DFF"/>
</linearGradient>
<linearGradient id="paint12_linear_671_1723" x1="261.082" y1="470.255" x2="264.74" y2="470.255" gradientUnits="userSpaceOnUse">
<stop stop-color="#9942FF"/>
<stop offset="1" stop-color="#4D6DFF"/>
</linearGradient>
<linearGradient id="paint13_linear_671_1723" x1="261.082" y1="426.907" x2="261.749" y2="426.907" gradientUnits="userSpaceOnUse">
<stop stop-color="#9942FF"/>
<stop offset="1" stop-color="#4D6DFF"/>
</linearGradient>
<linearGradient id="paint14_linear_671_1723" x1="261.082" y1="383.558" x2="264.74" y2="383.558" gradientUnits="userSpaceOnUse">
<stop stop-color="#9942FF"/>
<stop offset="1" stop-color="#4D6DFF"/>
</linearGradient>
<linearGradient id="paint15_linear_671_1723" x1="269.656" y1="382.063" x2="342.925" y2="382.063" gradientUnits="userSpaceOnUse">
<stop stop-color="#9942FF"/>
<stop offset="1" stop-color="#4D6DFF"/>
</linearGradient>
<linearGradient id="paint16_linear_671_1723" x1="347.844" y1="383.558" x2="351.502" y2="383.558" gradientUnits="userSpaceOnUse">
<stop stop-color="#9942FF"/>
<stop offset="1" stop-color="#4D6DFF"/>
</linearGradient>
<linearGradient id="paint17_linear_671_1723" x1="350.84" y1="426.907" x2="351.507" y2="426.907" gradientUnits="userSpaceOnUse">
<stop stop-color="#9942FF"/>
<stop offset="1" stop-color="#4D6DFF"/>
</linearGradient>
<linearGradient id="paint18_linear_671_1723" x1="306.465" y1="317.188" x2="312.212" y2="317.188" gradientUnits="userSpaceOnUse">
<stop stop-color="#9942FF"/>
<stop offset="1" stop-color="#FC067D"/>
</linearGradient>
<linearGradient id="paint19_linear_671_1723" x1="347.844" y1="366.434" x2="351.504" y2="366.434" gradientUnits="userSpaceOnUse">
<stop stop-color="#9942FF"/>
<stop offset="1" stop-color="#4D6DFF"/>
</linearGradient>
<linearGradient id="paint20_linear_671_1723" x1="269.656" y1="367.929" x2="342.925" y2="367.929" gradientUnits="userSpaceOnUse">
<stop stop-color="#9942FF"/>
<stop offset="1" stop-color="#4D6DFF"/>
</linearGradient>
<linearGradient id="paint21_linear_671_1723" x1="261.082" y1="366.434" x2="264.74" y2="366.434" gradientUnits="userSpaceOnUse">
<stop stop-color="#9942FF"/>
<stop offset="1" stop-color="#4D6DFF"/>
</linearGradient>
<linearGradient id="paint22_linear_671_1723" x1="261.082" y1="323.084" x2="261.749" y2="323.084" gradientUnits="userSpaceOnUse">
<stop stop-color="#9942FF"/>
<stop offset="1" stop-color="#4D6DFF"/>
</linearGradient>
<linearGradient id="paint23_linear_671_1723" x1="261.082" y1="279.733" x2="264.74" y2="279.733" gradientUnits="userSpaceOnUse">
<stop stop-color="#9942FF"/>
<stop offset="1" stop-color="#4D6DFF"/>
</linearGradient>
<linearGradient id="paint24_linear_671_1723" x1="269.656" y1="278.239" x2="342.925" y2="278.239" gradientUnits="userSpaceOnUse">
<stop stop-color="#9942FF"/>
<stop offset="1" stop-color="#4D6DFF"/>
</linearGradient>
<linearGradient id="paint25_linear_671_1723" x1="347.844" y1="279.733" x2="351.502" y2="279.733" gradientUnits="userSpaceOnUse">
<stop stop-color="#9942FF"/>
<stop offset="1" stop-color="#4D6DFF"/>
</linearGradient>
<linearGradient id="paint26_linear_671_1723" x1="350.84" y1="323.084" x2="351.507" y2="323.084" gradientUnits="userSpaceOnUse">
<stop stop-color="#9942FF"/>
<stop offset="1" stop-color="#4D6DFF"/>
</linearGradient>
<linearGradient id="paint27_linear_671_1723" x1="306.465" y1="213.366" x2="312.212" y2="213.366" gradientUnits="userSpaceOnUse">
<stop stop-color="#9942FF"/>
<stop offset="1" stop-color="#FC067D"/>
</linearGradient>
<linearGradient id="paint28_linear_671_1723" x1="347.844" y1="262.609" x2="351.504" y2="262.609" gradientUnits="userSpaceOnUse">
<stop stop-color="#9942FF"/>
<stop offset="1" stop-color="#4D6DFF"/>
</linearGradient>
<linearGradient id="paint29_linear_671_1723" x1="269.656" y1="264.104" x2="342.925" y2="264.104" gradientUnits="userSpaceOnUse">
<stop stop-color="#9942FF"/>
<stop offset="1" stop-color="#4D6DFF"/>
</linearGradient>
<linearGradient id="paint30_linear_671_1723" x1="261.082" y1="262.609" x2="264.74" y2="262.609" gradientUnits="userSpaceOnUse">
<stop stop-color="#9942FF"/>
<stop offset="1" stop-color="#4D6DFF"/>
</linearGradient>
<linearGradient id="paint31_linear_671_1723" x1="261.082" y1="219.262" x2="261.749" y2="219.262" gradientUnits="userSpaceOnUse">
<stop stop-color="#9942FF"/>
<stop offset="1" stop-color="#4D6DFF"/>
</linearGradient>
<linearGradient id="paint32_linear_671_1723" x1="261.082" y1="175.912" x2="264.74" y2="175.912" gradientUnits="userSpaceOnUse">
<stop stop-color="#9942FF"/>
<stop offset="1" stop-color="#4D6DFF"/>
</linearGradient>
<linearGradient id="paint33_linear_671_1723" x1="269.656" y1="174.416" x2="342.925" y2="174.416" gradientUnits="userSpaceOnUse">
<stop stop-color="#9942FF"/>
<stop offset="1" stop-color="#4D6DFF"/>
</linearGradient>
<linearGradient id="paint34_linear_671_1723" x1="347.844" y1="175.912" x2="351.502" y2="175.912" gradientUnits="userSpaceOnUse">
<stop stop-color="#9942FF"/>
<stop offset="1" stop-color="#4D6DFF"/>
</linearGradient>
<linearGradient id="paint35_linear_671_1723" x1="350.84" y1="219.262" x2="351.507" y2="219.262" gradientUnits="userSpaceOnUse">
<stop stop-color="#9942FF"/>
<stop offset="1" stop-color="#4D6DFF"/>
</linearGradient>
<linearGradient id="paint36_linear_671_1723" x1="539.637" y1="305.212" x2="557.065" y2="305.212" gradientUnits="userSpaceOnUse">
<stop stop-color="#9942FF"/>
<stop offset="1" stop-color="#FC067D"/>
</linearGradient>
<linearGradient id="paint37_linear_671_1723" x1="665.113" y1="454.529" x2="676.198" y2="454.529" gradientUnits="userSpaceOnUse">
<stop stop-color="#9942FF"/>
<stop offset="1" stop-color="#4D6DFF"/>
</linearGradient>
<linearGradient id="paint38_linear_671_1723" x1="428.035" y1="459.06" x2="650.193" y2="459.06" gradientUnits="userSpaceOnUse">
<stop stop-color="#9942FF"/>
<stop offset="1" stop-color="#4D6DFF"/>
</linearGradient>
<linearGradient id="paint39_linear_671_1723" x1="402.031" y1="454.529" x2="413.116" y2="454.529" gradientUnits="userSpaceOnUse">
<stop stop-color="#9942FF"/>
<stop offset="1" stop-color="#4D6DFF"/>
</linearGradient>
<linearGradient id="paint40_linear_671_1723" x1="402.031" y1="323.085" x2="404.046" y2="323.085" gradientUnits="userSpaceOnUse">
<stop stop-color="#9942FF"/>
<stop offset="1" stop-color="#4D6DFF"/>
</linearGradient>
<linearGradient id="paint41_linear_671_1723" x1="402.031" y1="191.642" x2="413.118" y2="191.642" gradientUnits="userSpaceOnUse">
<stop stop-color="#9942FF"/>
<stop offset="1" stop-color="#4D6DFF"/>
</linearGradient>
<linearGradient id="paint42_linear_671_1723" x1="428.035" y1="187.11" x2="650.193" y2="187.11" gradientUnits="userSpaceOnUse">
<stop stop-color="#9942FF"/>
<stop offset="1" stop-color="#4D6DFF"/>
</linearGradient>
<linearGradient id="paint43_linear_671_1723" x1="665.113" y1="191.643" x2="676.198" y2="191.643" gradientUnits="userSpaceOnUse">
<stop stop-color="#9942FF"/>
<stop offset="1" stop-color="#4D6DFF"/>
</linearGradient>
<linearGradient id="paint44_linear_671_1723" x1="674.184" y1="323.087" x2="676.198" y2="323.087" gradientUnits="userSpaceOnUse">
<stop stop-color="#9942FF"/>
<stop offset="1" stop-color="#4D6DFF"/>
</linearGradient>
<linearGradient id="paint45_linear_671_1723" x1="670.024" y1="330.023" x2="740.064" y2="330.023" gradientUnits="userSpaceOnUse">
<stop stop-color="#FB9004"/>
<stop offset="1" stop-color="#FC067D"/>
</linearGradient>
<linearGradient id="paint46_linear_671_1723" x1="671.473" y1="325.314" x2="740.088" y2="325.314" gradientUnits="userSpaceOnUse">
<stop stop-color="#FB9004"/>
<stop offset="1" stop-color="#FC067D"/>
</linearGradient>
<linearGradient id="paint47_linear_671_1723" x1="789.398" y1="538.142" x2="996.555" y2="538.142" gradientUnits="userSpaceOnUse">
<stop stop-color="#FB9004"/>
<stop offset="1" stop-color="#FC067D"/>
</linearGradient>
<linearGradient id="paint48_linear_671_1723" x1="799.531" y1="526.199" x2="1006.31" y2="526.199" gradientUnits="userSpaceOnUse">
<stop stop-color="#FB9004"/>
<stop offset="1" stop-color="#FC067D"/>
</linearGradient>
</defs>
</svg>
