<svg width="48" height="45" viewBox="0 0 48 45" fill="none" xmlns="http://www.w3.org/2000/svg">
<path d="M20.1297 18.9213C16.6458 22.1471 9.60069 28.6761 9.29102 28.9857L12.0007 30.147L38.7102 30.5341L46.065 29.7599V23.5664L35.2264 11.9536L24.3877 22.018L20.1297 18.9213Z" fill="#DDDFE8"/>
<path d="M35.4056 44.0805C35.0277 44.0805 34.6417 44.0325 34.2593 43.9325L3.33074 35.6502C0.944825 34.9921 -0.4772 32.5241 0.146836 30.14L3.54681 17.1019C3.75482 16.3017 4.57295 15.8158 5.3768 16.03C6.17699 16.238 6.65893 17.058 6.44908 17.86L3.04875 30.9003C2.83891 31.7042 3.31682 32.534 4.11701 32.7541L35.0277 41.0325C35.8216 41.2423 36.6416 40.7702 36.8496 39.9803L37.9054 35.7201C38.1057 34.9163 38.9176 34.4281 39.7215 34.6244C40.5257 34.8243 41.0157 35.6362 40.8176 36.4401L39.7577 40.7204C39.2234 42.7464 37.3997 44.0805 35.4056 44.0805Z" fill="url(#paint0_linear_602_1975)"/>
<path fill-rule="evenodd" clip-rule="evenodd" d="M43.4989 32.0802H12.4981C10.0163 32.0802 7.99805 30.062 7.99805 27.5801V4.57943C7.99805 2.09757 10.0163 0.0793457 12.4981 0.0793457H43.4989C45.9807 0.0793457 47.999 2.09757 47.999 4.57943V27.5801C47.999 30.062 45.9807 32.0802 43.4989 32.0802ZM12.4981 3.07941C11.6701 3.07941 10.9981 3.75142 10.9981 4.57943V25.1276L17.8823 18.1654C19.2343 16.7981 21.4338 16.7981 22.7836 18.1654L25.173 20.5819L32.5129 11.6714C33.169 10.8758 34.1316 10.4161 35.1535 10.4103C36.2522 10.3484 37.1417 10.8538 37.8035 11.6396L44.9989 20.1296V4.57943C44.9989 3.75142 44.3269 3.07941 43.4989 3.07941H12.4981ZM44.9989 24.7387V27.5801C44.9989 28.4082 44.3269 29.0802 43.4989 29.0802H12.4981C12.1556 29.0802 11.8397 28.9651 11.5871 28.7716L19.9772 20.288C20.2284 20.034 20.4357 20.034 20.6869 20.288L24.2242 23.8658C24.5169 24.1634 24.9161 24.3273 25.3391 24.3035C25.7542 24.2856 26.1432 24.0894 26.4103 23.7659L34.7899 13.5921C34.9201 13.4362 35.0844 13.4102 35.1691 13.4102C35.1891 13.4165 35.2127 13.421 35.2387 13.426C35.3285 13.4431 35.4474 13.4659 35.5487 13.5884L44.9989 24.7387ZM17.9982 14.0799C15.7921 14.0799 13.998 12.2858 13.998 10.0797C13.998 7.87356 15.7921 6.07946 17.9982 6.07946C20.2043 6.07946 21.9981 7.87356 21.9981 10.0797C21.9981 12.2858 20.2043 14.0799 17.9982 14.0799ZM17.9982 9.07952C17.446 9.07952 16.9981 9.52777 16.9981 10.0797C16.9981 10.6316 17.446 11.0798 17.9982 11.0798C18.5501 11.0798 18.998 10.6316 18.998 10.0797C18.998 9.52777 18.5501 9.07952 17.9982 9.07952Z" fill="url(#paint1_linear_602_1975)"/>
<defs>
<linearGradient id="paint0_linear_602_1975" x1="0" y1="30.0299" x2="40.8615" y2="30.0299" gradientUnits="userSpaceOnUse">
<stop stop-color="#FB9004"/>
<stop offset="1" stop-color="#FC067D"/>
</linearGradient>
<linearGradient id="paint1_linear_602_1975" x1="7.99805" y1="16.0798" x2="47.999" y2="16.0798" gradientUnits="userSpaceOnUse">
<stop stop-color="#9942FF"/>
<stop offset="1" stop-color="#FC067D"/>
</linearGradient>
</defs>
</svg>
