<svg width="48" height="48" viewBox="0 0 48 48" fill="none" xmlns="http://www.w3.org/2000/svg">
<g clip-path="url(#clip0_613_786)">
<path d="M1 38.5L11.5 28.5L12.5 28L28 43L28.5 44.5L26.5 47H2.5L1 46V38.5Z" fill="#DDDFE8"/>
<path fill-rule="evenodd" clip-rule="evenodd" d="M29 22C29 21.2045 28.685 20.4415 28.12 19.8785C27.56 19.316 26.795 19 26 19H3C2.205 19 1.44 19.316 0.880005 19.8785C0.315005 20.4415 0 21.2045 0 22V45C0 45.7955 0.315005 46.5585 0.880005 47.1215C1.44 47.684 2.205 48 3 48H26C26.795 48 27.56 47.684 28.12 47.1215C28.685 46.5585 29 45.7955 29 45V22ZM27 43.914L13 29.914C12.735 29.649 12.375 29.5 12 29.5C11.625 29.5 11.265 29.649 11 29.914L2 38.914V45C2 45.265 2.10504 45.5195 2.29504 45.707C2.48004 45.8945 2.735 46 3 46H26C26.265 46 26.52 45.8945 26.705 45.707C26.895 45.5195 27 45.265 27 45V43.914ZM22.915 37L27 41.086V32.914L22.915 37ZM27 30.086V22C27 21.735 26.895 21.4805 26.705 21.293C26.52 21.1055 26.265 21 26 21H3C2.735 21 2.48004 21.1055 2.29504 21.293C2.10504 21.4805 2 21.735 2 22V36.086L9.58496 28.5C10.225 27.8595 11.095 27.5 12 27.5C12.905 27.5 13.775 27.8595 14.415 28.5L21.5 35.586L27 30.086ZM21 22C18.795 22 17 23.7925 17 26C17 28.2075 18.795 30 21 30C23.205 30 25 28.2075 25 26C25 23.7925 23.205 22 21 22ZM46 11.086L40.5 16.586L33.415 9.5C32.775 8.8595 31.905 8.5 31 8.5C30.095 8.5 29.225 8.8595 28.585 9.5C26.305 11.78 21.795 16.293 21.795 16.293C21.405 16.683 21.405 17.317 21.795 17.707C22.185 18.0975 22.815 18.0975 23.205 17.707C23.205 17.707 27.72 13.1945 30 10.914C30.265 10.649 30.625 10.5 31 10.5C31.375 10.5 31.735 10.649 32 10.914L46 24.914V26C46 26.265 45.895 26.5195 45.705 26.707C45.52 26.8945 45.265 27 45 27C40 27 36 27 31 27C30.45 27 30 27.448 30 28C30 28.552 30.45 29 31 29H45C45.795 29 46.56 28.684 47.12 28.1215C47.685 27.5585 48 26.7955 48 26C48 21 48 8 48 3C48 2.2045 47.685 1.4415 47.12 0.8785C46.56 0.316 45.795 0 45 0C40 0 27 0 22 0C21.205 0 20.44 0.316 19.88 0.8785C19.315 1.4415 19 2.2045 19 3V17C19 17.552 19.45 18 20 18C20.55 18 21 17.552 21 17V3C21 2.735 21.105 2.4805 21.295 2.293C21.48 2.1055 21.735 2 22 2H45C45.265 2 45.52 2.1055 45.705 2.293C45.895 2.4805 46 2.735 46 3V11.086ZM21 24C22.105 24 23 24.896 23 26C23 27.104 22.105 28 21 28C19.895 28 19 27.104 19 26C19 24.896 19.895 24 21 24ZM41.915 18L46 22.086V13.914L41.915 18ZM40 3C37.795 3 36 4.7925 36 7C36 9.2075 37.795 11 40 11C42.205 11 44 9.2075 44 7C44 4.7925 42.205 3 40 3ZM40 5C41.105 5 42 5.896 42 7C42 8.104 41.105 9 40 9C38.895 9 38 8.104 38 7C38 5.896 38.895 5 40 5Z" fill="url(#paint0_linear_613_786)"/>
<path d="M35.705 40.707L33.92 42.492C39.8 42.2695 44.5 37.4295 44.5 31.5C44.5 30.948 44.95 30.5 45.5 30.5C46.05 30.5 46.5 30.948 46.5 31.5C46.5 38.5385 40.895 44.278 33.91 44.4935L35.705 46.293C36.1 46.683 36.1 47.317 35.705 47.707C35.315 48.0975 34.685 48.0975 34.295 47.707L30.795 44.207C30.405 43.8165 30.405 43.1835 30.795 42.793L34.295 39.293C34.685 38.9025 35.315 38.9025 35.705 39.293C36.1 39.683 36.1 40.317 35.705 40.707Z" fill="url(#paint1_linear_613_786)"/>
<path d="M1.5 16.5C1.5 9.4615 7.10497 3.722 14.09 3.5065L12.295 1.707C11.905 1.317 11.905 0.682997 12.295 0.292997C12.685 -0.0975029 13.315 -0.0975029 13.705 0.292997L17.205 3.793C17.6 4.1835 17.6 4.8165 17.205 5.207L13.705 8.707C13.315 9.0975 12.685 9.0975 12.295 8.707C11.905 8.317 11.905 7.683 12.295 7.293L14.08 5.508C8.19996 5.7305 3.5 10.5705 3.5 16.5C3.5 17.052 3.05 17.5 2.5 17.5C1.95 17.5 1.5 17.052 1.5 16.5Z" fill="url(#paint2_linear_613_786)"/>
</g>
<defs>
<linearGradient id="paint0_linear_613_786" x1="0" y1="24" x2="48" y2="24" gradientUnits="userSpaceOnUse">
<stop stop-color="#9942FF"/>
<stop offset="1" stop-color="#FC067D"/>
</linearGradient>
<linearGradient id="paint1_linear_613_786" x1="1.5" y1="24" x2="46.5" y2="24" gradientUnits="userSpaceOnUse">
<stop stop-color="#FB9004"/>
<stop offset="1" stop-color="#FC067D"/>
</linearGradient>
<linearGradient id="paint2_linear_613_786" x1="1.5" y1="24" x2="46.5" y2="24" gradientUnits="userSpaceOnUse">
<stop stop-color="#FB9004"/>
<stop offset="1" stop-color="#FC067D"/>
</linearGradient>
<clipPath id="clip0_613_786">
<rect width="48" height="48" fill="white"/>
</clipPath>
</defs>
</svg>
