<svg width="54" height="54" viewBox="0 0 54 54" fill="none" xmlns="http://www.w3.org/2000/svg">
<g clip-path="url(#clip0_663_4330)">
<path d="M15.2996 36.9003C19.2596 32.2203 25.6496 31.9503 28.3496 32.4003L32.8496 33.7499L40.4996 39.1499L44.5496 47.6999L44.0996 50.8499L40.4996 52.6499L15.2996 53.0999L10.3496 51.2999C10.3496 48.45 11.3396 41.5803 15.2996 36.9003Z" fill="#DDDFE8"/>
<path d="M33.1558 31.5552C40.6433 25.7896 36.5729 13.573 26.9992 13.5576C17.4255 13.5732 13.3554 25.7914 20.8429 31.5552C13.6447 34.0988 8.47266 40.9707 8.47266 49.029C8.47266 51.8316 10.7559 53.9999 13.4436 53.9999H40.5551C43.2425 53.9999 45.5261 51.8319 45.5261 49.029C45.5261 40.9707 40.3541 34.0988 33.1558 31.5552ZM20.109 23.6119C20.109 19.8125 23.2001 16.7216 26.9994 16.7216C36.1278 17.068 36.1253 30.1573 26.9993 30.5024C23.2001 30.5023 20.109 27.4113 20.109 23.6119ZM40.5551 50.8359H13.4436C12.4509 50.8359 11.6366 50.0313 11.6366 49.029C11.6366 40.5579 18.5283 33.6662 26.9994 33.6662C35.4704 33.6662 42.3622 40.5579 42.3622 49.029C42.3622 50.0296 41.5494 50.8359 40.5551 50.8359Z" fill="url(#paint0_linear_663_4330)"/>
<path d="M40.284 31.2699C41.3707 31.7547 42.1702 30.9251 42.3734 30.4699C47.419 19.6227 38.9755 6.59394 27 6.7803C17.7188 6.78009 10.168 14.3311 10.168 23.6124C10.168 25.9931 10.6588 28.3002 11.627 30.4699C11.9831 31.2677 12.9185 31.6258 13.7163 31.2699C14.5142 30.9139 14.8724 29.9785 14.5164 29.1805C10.4199 20.3726 17.276 9.7928 27.0004 9.94425C36.723 9.79322 43.5822 20.3729 39.4839 29.1807C39.1279 29.9785 39.4862 30.9139 40.284 31.2699Z" fill="url(#paint1_linear_663_4330)"/>
<path d="M26.9996 0.00192184C9.00111 -0.226832 -2.68189 20.2379 6.66021 35.5995C7.10474 36.3515 8.07534 36.6003 8.82688 36.1554C9.57895 35.7106 9.82785 34.7404 9.383 33.9885C1.2991 20.6871 11.414 2.96602 26.9999 3.16608C42.5835 2.96718 52.7022 20.6873 44.6159 33.9886C44.1714 34.7404 44.4203 35.7106 45.1723 36.1554C46.0337 36.6651 46.9664 36.2297 47.3393 35.5993C56.6786 20.2376 44.9999 -0.228097 26.9996 0.00192184Z" fill="url(#paint2_linear_663_4330)"/>
</g>
<defs>
<linearGradient id="paint0_linear_663_4330" x1="8.47266" y1="33.7787" x2="45.5261" y2="33.7787" gradientUnits="userSpaceOnUse">
<stop stop-color="#9942FF"/>
<stop offset="1" stop-color="#FC067D"/>
</linearGradient>
<linearGradient id="paint1_linear_663_4330" x1="10.168" y1="19.0977" x2="43.8619" y2="19.0977" gradientUnits="userSpaceOnUse">
<stop stop-color="#FB9004"/>
<stop offset="1" stop-color="#FC067D"/>
</linearGradient>
<linearGradient id="paint2_linear_663_4330" x1="3.36328" y1="18.1897" x2="50.6353" y2="18.1897" gradientUnits="userSpaceOnUse">
<stop stop-color="#FB9004"/>
<stop offset="1" stop-color="#FC067D"/>
</linearGradient>
<clipPath id="clip0_663_4330">
<rect width="54" height="54" fill="white"/>
</clipPath>
</defs>
</svg>
