<svg width="27" height="39" viewBox="0 0 27 39" fill="none" xmlns="http://www.w3.org/2000/svg">
<path d="M22.9757 4.47938C20.5051 2.07084 17.1398 0.744385 13.5 0.744385C9.86015 0.744385 6.49485 2.07084 4.02422 4.47938C1.55412 6.88739 0.193848 10.1615 0.193848 13.6986C0.193848 17.4737 1.87231 21.0758 4.7989 23.5815C6.33246 24.8944 7.30042 26.7101 7.62363 28.8577C6.83701 29.3193 6.30806 30.1689 6.30806 31.139V31.933C6.30806 33.1395 7.12599 34.1596 8.24063 34.4785C8.09185 34.8082 8.00841 35.1729 8.00841 35.5568V36.3507C8.00841 37.8116 9.20713 39.0002 10.6805 39.0002H16.3196C17.7929 39.0002 18.9916 37.8116 18.9916 36.3507V35.5568C18.9916 35.1729 18.9082 34.8081 18.7594 34.4785C19.8741 34.1596 20.692 33.1396 20.692 31.933V31.139C20.692 30.1689 20.163 29.3193 19.3764 28.8577C19.6997 26.7101 20.6677 24.8944 22.2011 23.5815C25.1277 21.0759 26.8062 17.4738 26.8062 13.6986C26.8062 10.1615 25.4458 6.88739 22.9757 4.47938ZM17.3164 36.3506C17.3164 36.8878 16.8692 37.3249 16.3196 37.3249H10.6804C10.1307 37.3249 9.68351 36.8878 9.68351 36.3506V35.5567C9.68351 35.0195 10.1307 34.5823 10.6804 34.5823H16.3195C16.8691 34.5823 17.3163 35.0194 17.3163 35.5567L17.3164 36.3506ZM19.0167 31.9329C19.0167 32.4701 18.5695 32.9071 18.0198 32.9071H16.3195H10.6804H8.98003C8.43035 32.9071 7.98317 32.4701 7.98317 31.9329V31.1389C7.98317 30.6017 8.43035 30.1647 8.98003 30.1647H18.0198C18.5695 30.1647 19.0167 30.6017 19.0167 31.1389V31.9329ZM10.9022 17.9811H9.24084C8.56897 17.9811 8.02244 17.4457 8.02244 16.7878C8.02244 16.1299 8.56897 15.5944 9.24084 15.5944H9.68383C10.3557 15.5944 10.9022 16.1298 10.9022 16.7878V17.9811ZM14.4825 28.4895H12.5774V19.6563H14.4825V28.4895ZM21.1116 22.3089C19.2939 23.8651 18.1395 25.9904 17.7387 28.4895H16.1576V19.6563H17.8463C19.4418 19.6563 20.7399 18.3694 20.7399 16.7878C20.7399 15.2061 19.4418 13.9192 17.8463 13.9192H17.376C15.7805 13.9192 14.4824 15.2061 14.4824 16.7878V17.9811H12.5773V16.7878C12.5773 15.2061 11.2793 13.9192 9.68372 13.9192H9.24074C7.6452 13.9192 6.34712 15.2061 6.34712 16.7878C6.34712 18.3695 7.6452 19.6563 9.24074 19.6563H10.9021V28.4895H9.26105C8.86025 25.9904 7.70582 23.8651 5.88811 22.3089C3.33383 20.122 1.86875 16.9836 1.86875 13.6986C1.86875 7.2685 6.86895 2.4196 13.4998 2.4196C20.1306 2.4196 25.1308 7.2685 25.1308 13.6986C25.131 16.9836 23.666 20.1219 21.1116 22.3089ZM16.1577 17.9811V16.7878C16.1577 16.1298 16.7042 15.5944 17.3761 15.5944H17.8464C18.5183 15.5944 19.0648 16.1298 19.0648 16.7878C19.0648 17.4458 18.5183 17.9811 17.8464 17.9811H16.1577Z" fill="url(#paint0_linear_158_2578)"/>
<defs>
<linearGradient id="paint0_linear_158_2578" x1="0.193848" y1="19.8723" x2="26.8062" y2="19.8723" gradientUnits="userSpaceOnUse">
<stop stop-color="#9942FF"/>
<stop offset="1" stop-color="#FC067D"/>
</linearGradient>
</defs>
</svg>
