<svg width="46" height="52" viewBox="0 0 46 52" fill="none" xmlns="http://www.w3.org/2000/svg">
<rect x="16.1973" y="39.5212" width="13.6056" height="7.12676" fill="#DDDFE8"/>
<path d="M33.4281 11.3436C31.7866 9.86362 29.8478 8.75137 27.7416 8.08138C25.6354 7.41138 23.4104 7.19911 21.2155 7.45876C17.9026 7.83713 14.7976 9.26501 12.354 11.5338C9.91037 13.8025 8.25633 16.7932 7.63351 20.069C7.01068 23.3447 7.45172 26.7338 8.89217 29.741C10.3326 32.7483 12.697 35.2161 15.6399 36.7838V46C15.6404 46.4879 15.8344 46.9556 16.1793 47.3006C16.5243 47.6455 16.992 47.8396 17.4799 47.84H19.3199V49.68C19.3204 50.1679 19.5144 50.6356 19.8593 50.9806C20.2043 51.3255 20.672 51.5196 21.1599 51.52H24.8399C25.3277 51.5196 25.7954 51.3255 26.1404 50.9806C26.4854 50.6356 26.6794 50.1679 26.6799 49.68V47.84H28.5199C29.0077 47.8396 29.4754 47.6455 29.8204 47.3006C30.1654 46.9556 30.3594 46.4879 30.3599 46V36.7843C32.5803 35.6017 34.4824 33.9004 35.9044 31.825C37.3264 29.7497 38.2263 27.3617 38.5275 24.864C38.8287 22.3663 38.5224 19.8328 37.6346 17.4789C36.7468 15.125 35.3037 13.0203 33.4281 11.3436ZM28.5199 40.48V42.32H17.4799V40.48H28.5199ZM24.8412 49.68H21.1599V47.84H24.8403L24.8412 49.68ZM25.7599 46H17.4799V44.16H28.5199V46H25.7599ZM29.0364 35.3945C28.8815 35.4699 28.7509 35.5875 28.6596 35.7336C28.5682 35.8798 28.5198 36.0486 28.5199 36.221V38.64H23.9199V34.421L26.4103 31.9305C26.5779 31.757 26.6706 31.5246 26.6685 31.2834C26.6664 31.0421 26.5697 30.8114 26.3991 30.6408C26.2285 30.4702 25.9978 30.3735 25.7566 30.3714C25.5153 30.3693 25.2829 30.462 25.1094 30.6296L22.9999 32.7391L20.8903 30.6296C20.7168 30.462 20.4844 30.3693 20.2432 30.3714C20.002 30.3735 19.7712 30.4702 19.6006 30.6408C19.4301 30.8114 19.3333 31.0421 19.3312 31.2834C19.3291 31.5246 19.4218 31.757 19.5894 31.9305L22.0799 34.421V38.64H17.4799V36.221C17.4799 36.0486 17.4315 35.8798 17.3402 35.7336C17.2488 35.5875 17.1182 35.4699 16.9633 35.3945C14.2777 34.0901 12.0879 31.9495 10.7229 29.2942C9.35793 26.6389 8.89154 23.6123 9.39381 20.6693C9.89608 17.7262 11.3399 15.0257 13.5082 12.9733C15.6766 10.921 18.4525 9.62785 21.4187 9.28809C21.95 9.22874 22.4841 9.19889 23.0187 9.19867C26.41 9.18854 29.6835 10.4419 32.2008 12.7144C33.8882 14.2226 35.1784 16.123 35.9574 18.2479C36.7364 20.3728 36.9804 22.6568 36.6676 24.8983C36.3549 27.1398 35.4951 29.2698 34.1642 31.1003C32.8333 32.9308 31.0722 34.4058 29.0364 35.3945Z" fill="url(#paint0_linear_441_2568)"/>
<path fill-rule="evenodd" clip-rule="evenodd" d="M23 5.51999C23.244 5.51999 23.478 5.42306 23.6506 5.25053C23.8231 5.07799 23.92 4.84399 23.92 4.59999V0.919989C23.92 0.67599 23.8231 0.441985 23.6506 0.269451C23.478 0.0969176 23.244 -1.08522e-05 23 -1.08522e-05C22.756 -1.08522e-05 22.522 0.0969176 22.3495 0.269451C22.1769 0.441985 22.08 0.67599 22.08 0.919989V4.59999C22.08 4.84399 22.1769 5.07799 22.3495 5.25053C22.522 5.42306 22.756 5.51999 23 5.51999ZM9.33886 10.6397C9.42372 10.7275 9.52524 10.7976 9.63749 10.8459C9.74973 10.8941 9.87045 10.9194 9.99261 10.9205C10.1148 10.9216 10.2359 10.8983 10.349 10.852C10.462 10.8058 10.5648 10.7375 10.6511 10.6511C10.7375 10.5647 10.8058 10.462 10.8521 10.3489C10.8984 10.2359 10.9216 10.1147 10.9206 9.99255C10.9195 9.87039 10.8941 9.74967 10.8459 9.63743C10.7977 9.52518 10.7276 9.42366 10.6397 9.3388L8.03743 6.73649C7.95256 6.64862 7.85104 6.57853 7.7388 6.53031C7.62655 6.4821 7.50583 6.45672 7.38367 6.45566C7.26152 6.45459 7.14037 6.47787 7.02731 6.52413C6.91424 6.57039 6.81152 6.6387 6.72514 6.72508C6.63876 6.81146 6.57045 6.91418 6.52419 7.02725C6.47793 7.14031 6.45465 7.26146 6.45571 7.38362C6.45678 7.50577 6.48216 7.62649 6.53037 7.73874C6.57859 7.85098 6.64868 7.9525 6.73654 8.03737L9.33886 10.6397ZM0.92 22.08H4.6C4.844 22.08 5.078 22.1769 5.25054 22.3494C5.42307 22.522 5.52 22.756 5.52 23C5.52 23.244 5.42307 23.478 5.25054 23.6505C5.078 23.823 4.844 23.92 4.6 23.92H0.92C0.676001 23.92 0.441995 23.823 0.269462 23.6505C0.0969285 23.478 0 23.244 0 23C0 22.756 0.0969285 22.522 0.269462 22.3494C0.441995 22.1769 0.676001 22.08 0.92 22.08ZM9.33886 35.3603L6.73654 37.9626C6.64868 38.0475 6.57859 38.149 6.53037 38.2612C6.48216 38.3735 6.45678 38.4942 6.45571 38.6163C6.45465 38.7385 6.47793 38.8596 6.52419 38.9727C6.57045 39.0858 6.63876 39.1885 6.72514 39.2749C6.81152 39.3613 6.91424 39.4296 7.02731 39.4758C7.14037 39.5221 7.26152 39.5454 7.38367 39.5443C7.50583 39.5432 7.62655 39.5179 7.7388 39.4696C7.85104 39.4214 7.95256 39.3513 8.03743 39.2635L10.6397 36.6612C10.8073 36.4876 10.9001 36.2553 10.898 36.014C10.8959 35.7728 10.7991 35.5421 10.6285 35.3715C10.458 35.2009 10.2272 35.1042 9.98599 35.1021C9.74477 35.1 9.51237 35.1927 9.33886 35.3603ZM35.3603 9.3388L37.9626 6.73649C38.0475 6.64862 38.149 6.57853 38.2612 6.53031C38.3735 6.4821 38.4942 6.45672 38.6164 6.45566C38.7385 6.45459 38.8597 6.47787 38.9727 6.52413C39.0858 6.57039 39.1885 6.6387 39.2749 6.72508C39.3613 6.81146 39.4296 6.91418 39.4758 7.02725C39.5221 7.14031 39.5454 7.26146 39.5443 7.38362C39.5433 7.50577 39.5179 7.62649 39.4697 7.73874C39.4214 7.85098 39.3514 7.9525 39.2635 8.03737L36.6612 10.6397C36.5763 10.7275 36.4748 10.7976 36.3626 10.8459C36.2503 10.8941 36.1296 10.9194 36.0074 10.9205C35.8853 10.9216 35.7641 10.8983 35.6511 10.852C35.538 10.8058 35.4353 10.7375 35.3489 10.6511C35.2625 10.5647 35.1942 10.462 35.1479 10.3489C35.1017 10.2359 35.0784 10.1147 35.0795 9.99255C35.0805 9.87039 35.1059 9.74967 35.1541 9.63743C35.2023 9.52518 35.2724 9.42366 35.3603 9.3388ZM36.6612 35.3603C36.4877 35.1927 36.2553 35.1 36.014 35.1021C35.7728 35.1042 35.5421 35.2009 35.3715 35.3715C35.2009 35.5421 35.1042 35.7728 35.1021 36.014C35.1 36.2553 35.1927 36.4876 35.3603 36.6612L37.9626 39.2635C38.1361 39.4311 38.3685 39.5238 38.6097 39.5217C38.851 39.5196 39.0817 39.4228 39.2523 39.2523C39.4229 39.0817 39.5196 38.8509 39.5217 38.6097C39.5238 38.3685 39.4311 38.1361 39.2635 37.9626L36.6612 35.3603ZM41.4 22.08H45.08C45.324 22.08 45.558 22.1769 45.7305 22.3494C45.9031 22.522 46 22.756 46 23C46 23.244 45.9031 23.478 45.7305 23.6505C45.558 23.823 45.324 23.92 45.08 23.92H41.4C41.156 23.92 40.922 23.823 40.7494 23.6505C40.5769 23.478 40.48 23.244 40.48 23C40.48 22.756 40.5769 22.522 40.7494 22.3494C40.922 22.1769 41.156 22.08 41.4 22.08Z" fill="url(#paint1_linear_441_2568)"/>
<defs>
<linearGradient id="paint0_linear_441_2568" x1="7.3584" y1="29.4357" x2="38.6399" y2="29.4357" gradientUnits="userSpaceOnUse">
<stop stop-color="#9942FF"/>
<stop offset="1" stop-color="#FC067D"/>
</linearGradient>
<linearGradient id="paint1_linear_441_2568" x1="0" y1="19.7722" x2="46" y2="19.7722" gradientUnits="userSpaceOnUse">
<stop stop-color="#FB9004"/>
<stop offset="1" stop-color="#FC067D"/>
</linearGradient>
</defs>
</svg>
