<svg width="44" height="41" viewBox="0 0 44 41" fill="none" xmlns="http://www.w3.org/2000/svg">
<path d="M12.2682 16.7459C12.2682 16.8457 12.2879 16.9445 12.326 17.0367C12.3642 17.1289 12.4201 17.2126 12.4907 17.2832C12.5612 17.3537 12.645 17.4097 12.7372 17.4479C12.8294 17.486 12.9282 17.5057 13.0279 17.5056H17.4741C17.5739 17.5057 17.6727 17.486 17.7648 17.4479C17.857 17.4097 17.9408 17.3537 18.0113 17.2832C18.0819 17.2126 18.1378 17.1289 18.176 17.0367C18.2142 16.9445 18.2338 16.8457 18.2338 16.7459V12.992C19.2284 12.8136 20.1287 12.2913 20.7771 11.5163C21.4255 10.7412 21.7808 9.76293 21.7808 8.75244C21.7808 7.74196 21.4255 6.76364 20.7771 5.98863C20.1287 5.21362 19.2284 4.69125 18.2338 4.51291V0.759695C18.2338 0.659923 18.2142 0.561123 18.176 0.468941C18.1378 0.376758 18.0819 0.292999 18.0113 0.22245C17.9408 0.1519 17.857 0.0959423 17.7648 0.0577736C17.6727 0.0196049 17.5739 -2.69217e-05 17.4741 2.77082e-08H4.07184C3.18548 0.000890804 2.33567 0.353366 1.70887 0.980085C1.08208 1.6068 0.729509 2.45658 0.728516 3.34294V16.7459C0.728489 16.8457 0.748121 16.9445 0.786289 17.0367C0.824458 17.1289 0.880416 17.2126 0.950965 17.2832C1.02151 17.3537 1.10527 17.4097 1.19746 17.4479C1.28964 17.486 1.38844 17.5057 1.48821 17.5056H5.93436C6.03413 17.5057 6.13293 17.486 6.22511 17.4479C6.3173 17.4097 6.40106 17.3537 6.47161 17.2832C6.54216 17.2126 6.59811 17.1289 6.63628 17.0367C6.67445 16.9445 6.69408 16.8457 6.69406 16.7459C6.70209 16.012 6.99927 15.3109 7.52108 14.7948C8.04289 14.2787 8.74721 13.9892 9.48115 13.9892C10.2151 13.9892 10.9194 14.2787 11.4412 14.7948C11.963 15.3109 12.2602 16.012 12.2682 16.7459ZM5.24182 15.9862H2.24791V3.34294C2.24856 2.85944 2.44095 2.39594 2.78288 2.05409C3.1248 1.71223 3.58834 1.51995 4.07184 1.51939H16.7144V5.20584C16.7144 5.30561 16.734 5.40441 16.7722 5.49659C16.8103 5.58877 16.8663 5.67253 16.9368 5.74308C17.0074 5.81363 17.0912 5.86959 17.1833 5.90776C17.2755 5.94593 17.3743 5.96556 17.4741 5.96553C18.2078 5.97376 18.9087 6.27101 19.4246 6.79277C19.9406 7.31453 20.2299 8.01871 20.2299 8.75249C20.2299 9.48626 19.9405 10.1904 19.4246 10.7122C18.9086 11.2339 18.2077 11.5311 17.474 11.5394C17.3742 11.5393 17.2754 11.559 17.1833 11.5971C17.0911 11.6353 17.0074 11.6913 16.9368 11.7618C16.8663 11.8324 16.8103 11.9161 16.7722 12.0083C16.734 12.1005 16.7144 12.1993 16.7144 12.2991V15.9862H13.7205C13.5351 14.9975 13.0098 14.1046 12.2357 13.4622C11.4615 12.8197 10.4872 12.4681 9.48115 12.4681C8.47514 12.4681 7.50077 12.8197 6.72662 13.4622C5.95247 14.1046 5.42726 14.9975 5.24182 15.9862Z" fill="url(#paint0_linear_441_2584)"/>
<path d="M26.389 40.0831C24.2281 39.2727 18.0605 29.6161 15.2468 24.8892L10.8574 24.2139V38.7325L12.208 40.0831H14.2338H26.389Z" fill="#DDDFE8"/>
<path d="M39.9285 7.99341H26.5262C26.4264 7.99338 26.3276 8.01301 26.2355 8.05118C26.1433 8.08935 26.0595 8.14531 25.989 8.21586C25.9184 8.28641 25.8625 8.37017 25.8243 8.46235C25.7861 8.55453 25.7665 8.65333 25.7665 8.7531V13.1993C25.7665 13.299 25.7861 13.3978 25.8243 13.49C25.8625 13.5822 25.9184 13.6659 25.989 13.7365C26.0595 13.807 26.1433 13.863 26.2355 13.9012C26.3276 13.9393 26.4264 13.959 26.5262 13.9589C27.26 13.9671 27.961 14.2643 28.477 14.7861C28.993 15.3078 29.2824 16.0121 29.2824 16.7459C29.2824 17.4797 28.993 18.1839 28.4769 18.7057C27.9609 19.2275 27.2599 19.5246 26.5261 19.5328C26.4264 19.5327 26.3276 19.5524 26.2354 19.5906C26.1432 19.6287 26.0595 19.6847 25.9889 19.7552C25.9184 19.8258 25.8624 19.9095 25.8243 20.0017C25.7861 20.0939 25.7665 20.1927 25.7665 20.2925V23.4945H22.7723C22.5938 22.5 22.0715 21.6 21.2965 20.9517C20.5216 20.3034 19.5434 19.9482 18.5331 19.9482C17.5228 19.9482 16.5446 20.3034 15.7697 20.9517C14.9947 21.6 14.4724 22.5 14.2939 23.4945H10.54C10.4402 23.4944 10.3414 23.5141 10.2492 23.5522C10.157 23.5904 10.0733 23.6464 10.0027 23.7169C9.93217 23.7875 9.87622 23.8712 9.83805 23.9634C9.79988 24.0556 9.78025 24.1544 9.78027 24.2542V37.6572C9.78126 38.5435 10.1338 39.3933 10.7606 40.02C11.3874 40.6467 12.2372 40.9992 13.1236 41.0001H39.9285C40.8148 40.9992 41.6646 40.6467 42.2914 40.02C42.9182 39.3933 43.2708 38.5435 43.2718 37.6572V11.3364C43.2708 10.45 42.9182 9.60022 42.2914 8.9735C41.6646 8.34678 40.8148 7.9943 39.9285 7.99341ZM30.8325 16.7462C30.8313 15.7361 30.4757 14.7584 29.8276 13.9836C29.1794 13.2088 28.28 12.686 27.2859 12.5064V9.5128H39.9285C40.412 9.51336 40.8755 9.70565 41.2174 10.0475C41.5594 10.3894 41.7517 10.8529 41.7524 11.3364V23.4945H38.0659C37.9662 23.4944 37.8674 23.5141 37.7752 23.5522C37.683 23.5904 37.5992 23.6464 37.5287 23.7169C37.4582 23.7875 37.4022 23.8712 37.364 23.9634C37.3259 24.0556 37.3062 24.1544 37.3063 24.2542C37.298 24.9879 37.0008 25.6889 36.479 26.2048C35.9572 26.7208 35.2529 27.0102 34.5191 27.0102C33.7853 27.0102 33.0811 26.7208 32.5593 26.2048C32.0375 25.6888 31.7403 24.9878 31.7321 24.2541C31.7321 24.1543 31.7124 24.0555 31.6743 23.9633C31.6361 23.8712 31.5801 23.7874 31.5096 23.7169C31.439 23.6463 31.3553 23.5904 31.2631 23.5522C31.1709 23.5141 31.0721 23.4944 30.9724 23.4945H27.2859V20.9854C28.2799 20.8058 29.1793 20.2831 29.8274 19.5085C30.4755 18.7338 30.8312 17.7563 30.8325 16.7462ZM11.2997 37.6572V25.0139H14.9865C15.0862 25.0139 15.185 24.9942 15.2772 24.9561C15.3694 24.9179 15.4532 24.862 15.5237 24.7914C15.5943 24.7209 15.6502 24.6371 15.6884 24.5449C15.7266 24.4527 15.7462 24.3539 15.7462 24.2542C15.7474 23.5158 16.0415 22.8081 16.5641 22.2865C17.0866 21.7648 17.7947 21.4718 18.5331 21.4718C19.2714 21.4718 19.9796 21.7648 20.5021 22.2865C21.0246 22.8081 21.3188 23.5158 21.32 24.2542C21.32 24.3539 21.3396 24.4527 21.3778 24.5449C21.4159 24.6371 21.4719 24.7209 21.5424 24.7914C21.613 24.862 21.6967 24.9179 21.7889 24.9561C21.8811 24.9942 21.9799 25.0139 22.0797 25.0139H25.7665V28.0081C24.7719 28.1865 23.8716 28.7088 23.2232 29.4838C22.5748 30.2589 22.2195 31.2372 22.2195 32.2477C22.2195 33.2581 22.5748 34.2365 23.2232 35.0115C23.8716 35.7865 24.7719 36.3088 25.7665 36.4872V39.4807H13.1236C12.6401 39.4802 12.1766 39.2879 11.8346 38.946C11.4927 38.6042 11.3003 38.1407 11.2997 37.6572ZM39.9285 39.4807H27.2859V35.7943C27.2859 35.6945 27.2663 35.5957 27.2281 35.5035C27.19 35.4113 27.134 35.3276 27.0635 35.257C26.9929 35.1865 26.9092 35.1305 26.817 35.0923C26.7248 35.0542 26.626 35.0345 26.5262 35.0346C25.7871 35.0346 25.0782 34.7409 24.5556 34.2183C24.0329 33.6957 23.7393 32.9868 23.7393 32.2477C23.7393 31.5085 24.0329 30.7997 24.5556 30.277C25.0782 29.7544 25.7871 29.4607 26.5262 29.4607C26.626 29.4608 26.7248 29.4411 26.817 29.403C26.9092 29.3648 26.9929 29.3088 27.0635 29.2383C27.134 29.1677 27.19 29.084 27.2281 28.9918C27.2663 28.8996 27.2859 28.8008 27.2859 28.701V25.4983H30.2798C30.4581 26.4929 30.9804 27.3932 31.7554 28.0416C32.5304 28.69 33.5087 29.0453 34.5192 29.0453C35.5296 29.0453 36.5079 28.69 37.2829 28.0416C38.0579 27.3932 38.5802 26.4929 38.7585 25.4983H41.7524V37.6572C41.7517 38.1407 41.5594 38.6042 41.2174 38.946C40.8755 39.2879 40.412 39.4802 39.9285 39.4807Z" fill="url(#paint1_linear_441_2584)"/>
<defs>
<linearGradient id="paint0_linear_441_2584" x1="0.728516" y1="8.75282" x2="21.7808" y2="8.75282" gradientUnits="userSpaceOnUse">
<stop stop-color="#FB9004"/>
<stop offset="1" stop-color="#FC067D"/>
</linearGradient>
<linearGradient id="paint1_linear_441_2584" x1="9.78027" y1="24.4968" x2="43.2718" y2="24.4968" gradientUnits="userSpaceOnUse">
<stop stop-color="#9942FF"/>
<stop offset="1" stop-color="#FC067D"/>
</linearGradient>
</defs>
</svg>
