<svg width="42" height="42" viewBox="0 0 42 42" fill="none" xmlns="http://www.w3.org/2000/svg">
<path d="M21.4375 28.875L4.8125 29.3125V29.75L5.6875 31.9375L13.125 38.0625L21 39.375L21.4375 28.875Z" fill="#DDDFE8"/>
<path d="M25.3636 38.2331C25.3496 38.1097 25.3146 37.9873 25.2455 37.8744C24.9909 37.4631 24.4519 37.3345 24.0415 37.5882C23.3371 38.0223 22.6117 38.2961 21.875 38.4195V29.7491H23.2838C23.7676 29.7491 24.1588 29.3571 24.1588 28.8741C24.1588 28.3911 23.7676 27.9991 23.2838 27.9991H21.875V21.8741H23.9312C24.4151 21.8741 24.8062 21.4821 24.8062 20.9991C24.8062 20.5161 24.4151 20.1241 23.9312 20.1241H21.875V13.9991H29.8156C30.3328 16.1446 30.625 18.5098 30.625 20.9991C30.625 21.4821 31.0161 21.8741 31.5 21.8741H38.4554C38.4099 22.7745 38.318 23.6696 38.1343 24.5368C38.0345 25.0093 38.3364 25.4739 38.8089 25.5745C39.2814 25.676 39.746 25.3724 39.8466 24.8999C40.1152 23.6329 40.2509 22.3204 40.2509 21C40.2509 10.3854 31.6155 1.75 21.0009 1.75C10.3862 1.75 1.75 10.3854 1.75 21C1.75 31.6146 10.3854 40.25 21 40.25C22.3904 40.25 23.758 40.1021 25.067 39.809C25.5378 39.7031 25.8353 39.2359 25.7294 38.7642C25.6786 38.5367 25.5421 38.3539 25.3636 38.2331ZM20.125 38.4195C16.9409 37.8945 14.2065 34.538 12.677 29.75H20.125V38.4195ZM20.125 28H12.1844C11.7285 26.1091 11.459 24.0424 11.3995 21.875H20.125V28ZM3.54463 21.875H9.65038C9.7055 24.0371 9.95837 26.0951 10.3862 28H4.97175C4.14225 26.1091 3.65225 24.0424 3.54463 21.875ZM4.97175 14H10.3862C9.95837 15.9049 9.7055 17.9629 9.65038 20.125H3.54463C3.65225 17.9576 4.14225 15.8909 4.97175 14ZM20.125 20.125H11.3995C11.459 17.9576 11.7285 15.8909 12.1844 14H20.125V20.125ZM20.125 3.5805V12.25H12.677C14.2056 7.462 16.9409 4.1055 20.125 3.5805ZM21.875 12.25V3.5805C25.0591 4.1055 27.7935 7.462 29.323 12.25H21.875ZM31.6146 14H37.0291C37.8586 15.8909 38.3486 17.9576 38.4562 20.125H32.3645C32.3102 17.9603 32.0434 15.9075 31.6146 14ZM36.1322 12.25H31.1605C30.2216 9.07113 28.784 6.42513 27.0051 4.58412C30.8682 6.0025 34.0917 8.736 36.1322 12.25ZM15.0045 4.58063C13.2213 6.4225 11.7784 9.06675 10.8386 12.25H5.86775C7.91 8.7325 11.1379 5.99725 15.0045 4.58063ZM5.86775 29.75H10.8386C11.7793 32.9333 13.2213 35.5784 15.0045 37.4194C11.137 36.0028 7.91 33.2675 5.86775 29.75Z" fill="url(#paint0_linear_601_1758)"/>
<path d="M39.2568 27.7585L27.9456 22.3283C27.3786 22.0561 26.7023 22.1104 26.1851 22.4718C25.6671 22.834 25.3845 23.4491 25.4458 24.0774L26.6795 36.5636C26.7478 37.2601 27.2036 37.8306 27.8678 38.052C28.5336 38.2734 29.238 38.0888 29.7105 37.5734L31.282 35.8566L33.3339 38.7853C33.7355 39.3601 34.3366 39.7434 35.0288 39.865C35.1828 39.8921 35.3368 39.9053 35.489 39.9053C36.0228 39.9053 36.5434 39.7425 36.9896 39.4301L38.4238 38.4265C39.6085 37.5961 39.899 35.9564 39.0686 34.7708L37.0168 31.8413L39.1666 30.9523C39.8141 30.6845 40.2289 30.0834 40.2473 29.3834C40.2665 28.6834 39.8868 28.0604 39.255 27.7576L39.2568 27.7585ZM35.3411 30.6416C35.0961 30.7431 34.9098 30.9505 34.8354 31.2051C34.761 31.4606 34.8065 31.7345 34.9588 31.9524L37.6363 35.7753C37.9128 36.1708 37.8165 36.7176 37.4219 36.9941L35.9878 37.9978C35.7961 38.1316 35.5634 38.185 35.3333 38.143C35.1031 38.1028 34.9036 37.975 34.7689 37.7834L32.0914 33.9605C31.9391 33.7426 31.6968 33.607 31.4316 33.5895C31.4124 33.5886 31.3931 33.5878 31.3748 33.5878C31.1306 33.5878 30.8953 33.6901 30.7299 33.8721L28.4216 36.393L27.1879 23.9059L38.4999 29.3361L35.342 30.6425L35.3411 30.6416Z" fill="url(#paint1_linear_601_1758)"/>
<defs>
<linearGradient id="paint0_linear_601_1758" x1="1.75" y1="21" x2="40.2509" y2="21" gradientUnits="userSpaceOnUse">
<stop stop-color="#9942FF"/>
<stop offset="1" stop-color="#FC067D"/>
</linearGradient>
<linearGradient id="paint1_linear_601_1758" x1="25.4375" y1="31.031" x2="40.248" y2="31.031" gradientUnits="userSpaceOnUse">
<stop stop-color="#FB9004"/>
<stop offset="1" stop-color="#FC067D"/>
</linearGradient>
</defs>
</svg>
