<svg width="1065" height="888" viewBox="0 0 1065 888" fill="none" xmlns="http://www.w3.org/2000/svg">
<path opacity="0.16" d="M93.9643 576.441H101.588V540.912C101.588 498.717 135.796 464.51 177.989 464.51H192.19V339.796C192.19 311.819 214.871 289.138 242.849 289.138H376.539V265.669C376.539 243.739 394.314 225.964 416.244 225.964H792.247C814.176 225.964 831.952 243.739 831.952 265.669V289.657C856.668 293.02 875.732 314.157 875.732 339.794V451.56H939.142C981.338 451.56 1015.54 485.768 1015.54 527.964V664.821H1031.28C1045.53 664.821 1057.09 676.377 1057.09 690.631V816.493H919.244H549.176H401.826H183.19H101.585H69.8867V600.519C69.8867 587.223 80.6649 576.441 93.9643 576.441Z" fill="#B5A7E9"/>
<path d="M939.008 360.017L939.982 362.537L942.5 363.509L939.982 364.482L939.008 367.004L938.036 364.482L935.516 363.509L938.036 362.537L939.008 360.017Z" fill="#A8B5C3"/>
<path d="M457.326 874.452C457.326 875.496 451.101 876.341 443.421 876.341C435.741 876.341 429.516 875.493 429.516 874.452C429.516 873.41 435.741 872.564 443.421 872.564C451.099 872.562 457.326 873.41 457.326 874.452Z" fill="#DFEAF2"/>
<path d="M676.009 872.561C676.009 873.605 669.784 874.449 662.103 874.449C654.422 874.449 648.197 873.605 648.197 872.561C648.197 871.518 654.422 870.674 662.103 870.674C669.782 870.674 676.009 871.518 676.009 872.561Z" fill="#DFEAF2"/>
<path d="M592.135 843.347C592.135 844.391 585.91 845.234 578.23 845.234C570.549 845.234 564.324 844.391 564.324 843.347C564.324 842.303 570.549 841.459 578.23 841.459C585.91 841.459 592.135 842.303 592.135 843.347Z" fill="#DFEAF2"/>
<path d="M802.333 839.862H771.336C771.336 800.124 726.379 761.099 760.274 756.881C772.333 755.372 780.939 761.555 787.069 771.159C802.333 794.99 802.333 839.862 802.333 839.862Z" fill="url(#paint0_linear_679_2429)"/>
<path d="M872.839 839.862H826.582C826.582 815.064 810.253 790.62 798.04 769.788C797.65 769.127 797.26 768.449 796.87 767.787C786.349 749.612 772.683 732.743 768.634 711.605C767.466 705.456 767.227 698.799 770.107 693.242C773.172 687.313 779.407 683.519 785.875 681.86C862.93 662.11 879.038 764.993 872.839 839.862Z" fill="url(#paint1_linear_679_2429)"/>
<path d="M931.869 839.862H893.826C887.625 782.627 889.32 639.143 972.199 653.235C1035.78 664.04 933.495 746.701 931.869 839.862Z" fill="url(#paint2_linear_679_2429)"/>
<path d="M950.274 839.862H926.12C926.12 839.862 919.751 788.963 947.09 788.997C971.972 789.012 955.356 820.467 950.274 839.862Z" fill="url(#paint3_linear_679_2429)"/>
<path d="M976.358 839.862H953.795C953.795 780.086 976.677 731.44 1008.79 732.083C1040.91 732.709 978.915 798.21 976.358 839.862Z" fill="url(#paint4_linear_679_2429)"/>
<path d="M852.955 839.861H850.974C850.804 829.376 849.705 818.891 848.01 808.56C845.961 796.061 842.878 783.762 838.846 771.786C830.818 747.836 818.538 725.34 802.446 705.694C801.124 704.017 802.294 703.121 803.683 704.611C821.283 723.227 834.714 745.992 842.844 770.45C846.925 782.679 849.838 795.297 851.466 808.07C852.802 818.619 853.431 829.257 852.955 839.861Z" fill="white"/>
<path d="M952.67 684.841C947.657 690.465 943.506 696.799 939.848 703.372C936.188 709.927 933.107 716.821 930.515 723.886C927.89 730.933 925.637 738.131 923.791 745.45C921.928 752.749 920.336 760.117 919.067 767.572C916.441 782.426 914.849 797.485 913.85 812.578C913.274 821.674 912.901 830.768 912.816 839.864H910.226C909.885 830.717 909.902 821.555 910.226 812.39C910.817 797.146 912.24 781.885 914.918 766.81C916.222 759.273 917.916 751.786 919.931 744.401C921.913 736.999 924.368 729.715 927.266 722.601C928.655 719.026 930.314 715.554 931.958 712.084C933.755 708.678 935.48 705.258 937.547 702.021C941.561 695.482 946.103 689.215 951.522 683.778C953.144 682.047 954.21 683.013 952.67 684.841Z" fill="white"/>
<path d="M943.077 801.563C939.484 813.014 937.962 825.003 937.114 836.947C937.063 837.914 937.012 838.895 936.961 839.861H934.861C934.897 838.827 934.946 837.812 935.014 836.796C935.896 824.718 937.909 812.606 942.349 801.276C942.721 800.394 943.381 800.666 943.077 801.563Z" fill="white"/>
<path d="M790.475 839.861H788.493C787.766 833.833 786.851 827.801 785.716 821.84C783.989 813.506 781.853 805.274 779.027 797.263C778.282 795.263 777.434 793.316 776.654 791.351C776.246 790.367 775.892 789.37 775.435 788.404L774.011 785.557L772.606 782.695C772.13 781.745 771.674 780.779 771.08 779.9L767.744 774.463C767.048 773.344 767.608 772.888 768.388 774.023L772.012 779.341C772.655 780.223 773.147 781.169 773.654 782.119L775.211 784.948L776.753 787.795C777.245 788.743 777.635 789.742 778.093 790.726C778.94 792.707 779.854 794.656 780.652 796.655C783.734 804.7 786.037 813.017 787.783 821.453C788.95 827.546 789.847 833.696 790.475 839.861Z" fill="#5049F9"/>
<path d="M997.772 749.479C994.436 753.443 991.573 757.795 988.915 762.266C988.27 763.384 987.592 764.485 986.95 765.62L985.136 769.058C983.866 771.328 982.834 773.715 981.715 776.052C977.395 785.486 974.059 795.346 971.382 805.371C968.57 816.686 966.69 828.222 965.674 839.856H963.945C964.672 828.068 966.451 816.314 969.331 804.827C972.058 794.697 975.562 784.739 980.136 775.287C981.306 772.949 982.423 770.563 983.76 768.31L985.69 764.887C986.368 763.751 987.079 762.651 987.775 761.551C990.604 757.129 993.652 752.845 997.174 748.949C998.296 747.749 998.838 748.241 997.772 749.479Z" fill="white"/>
<path d="M212.553 839.863H180.908C180.908 799.293 135.011 759.447 169.614 755.142C181.929 753.603 190.712 759.916 196.974 769.722C212.553 794.052 212.553 839.863 212.553 839.863Z" fill="url(#paint5_linear_679_2429)"/>
<path d="M284.538 839.863H237.311C237.311 814.546 220.64 789.592 208.17 768.321C207.773 767.647 207.375 766.954 206.978 766.282C196.239 747.726 182.285 730.501 178.151 708.921C176.959 702.643 176.715 695.847 179.656 690.174C182.786 684.12 189.15 680.247 195.755 678.553C274.422 658.386 290.868 763.425 284.538 839.863Z" fill="url(#paint6_linear_679_2429)"/>
<path d="M344.806 839.863H305.967C299.637 781.429 301.366 634.935 385.981 649.323C450.902 660.357 346.467 744.748 344.806 839.863Z" fill="url(#paint7_linear_679_2429)"/>
<path d="M380.139 839.861H355.477C355.477 839.861 348.975 787.895 376.888 787.931C402.292 787.946 385.326 820.059 380.139 839.861Z" fill="url(#paint8_linear_679_2429)"/>
<path d="M427.523 839.863H404.488C404.488 778.836 427.85 729.168 460.64 729.826C493.428 730.464 430.133 797.337 427.523 839.863Z" fill="url(#paint9_linear_679_2429)"/>
<path d="M264.239 839.863H262.217C262.043 829.159 260.921 818.452 259.191 807.903C257.1 795.139 253.953 782.586 249.834 770.359C241.637 745.906 229.1 722.942 212.671 702.881C211.322 701.169 212.514 700.253 213.932 701.775C231.899 720.781 245.614 744.024 253.916 768.996C258.083 781.48 261.057 794.365 262.719 807.403C264.083 818.176 264.722 829.036 264.239 839.863Z" fill="white"/>
<path d="M366.047 681.592C360.926 687.333 356.688 693.802 352.955 700.51C349.22 707.203 346.072 714.243 343.427 721.453C340.746 728.647 338.446 735.997 336.56 743.467C334.658 750.922 333.033 758.443 331.736 766.052C329.057 781.217 327.429 796.591 326.411 812.002C325.823 821.287 325.442 830.575 325.355 839.86H322.709C322.364 830.522 322.382 821.165 322.709 811.81C323.313 796.246 324.767 780.665 327.499 765.274C328.83 757.579 330.56 749.935 332.618 742.394C334.64 734.838 337.149 727.401 340.106 720.137C341.523 716.488 343.217 712.944 344.894 709.399C346.727 705.924 348.491 702.429 350.6 699.127C354.699 692.452 359.334 686.055 364.866 680.502C366.53 678.739 367.619 679.725 366.047 681.592Z" fill="white"/>
<path d="M372.789 800.761C369.122 812.452 367.565 824.695 366.7 836.887C366.648 837.873 366.596 838.876 366.543 839.863H364.4C364.434 838.807 364.487 837.772 364.557 836.733C365.456 824.402 367.515 812.037 372.045 800.469C372.426 799.57 373.098 799.845 372.789 800.761Z" fill="white"/>
<path d="M200.447 839.862H198.423C197.68 833.707 196.747 827.549 195.586 821.461C193.822 812.953 191.644 804.547 188.755 796.367C187.995 794.325 187.13 792.338 186.334 790.331C185.918 789.328 185.556 788.306 185.089 787.322L183.635 784.417L182.2 781.493C181.715 780.524 181.249 779.537 180.645 778.639L177.237 773.087C176.527 771.947 177.097 771.479 177.895 772.637L181.596 778.067C182.254 778.967 182.756 779.936 183.273 780.904L184.865 783.793L186.437 786.7C186.94 787.668 187.336 788.689 187.804 789.69C188.668 791.712 189.602 793.702 190.414 795.743C193.561 803.958 195.914 812.449 197.695 821.06C198.889 827.288 199.807 833.568 200.447 839.862Z" fill="white"/>
<path d="M449.378 747.585C445.97 751.63 443.05 756.075 440.335 760.641C439.676 761.782 438.985 762.906 438.328 764.065L436.477 767.575C435.181 769.893 434.125 772.33 432.985 774.717C428.575 784.35 425.167 794.415 422.434 804.652C419.563 816.205 417.646 827.982 416.608 839.86H414.844C415.586 827.825 417.403 815.823 420.343 804.097C423.127 793.756 426.707 783.588 431.377 773.94C432.569 771.552 433.712 769.116 435.079 766.815L437.05 763.323C437.743 762.165 438.469 761.04 439.177 759.918C442.066 755.404 445.178 751.029 448.775 747.051C449.915 745.821 450.469 746.322 449.378 747.585Z" fill="#5049F9"/>
<path d="M277.819 317.321C256.427 317.321 239.023 299.918 239.023 278.525C239.023 257.132 256.427 239.732 277.819 239.732C299.211 239.732 316.614 257.135 316.614 278.525C316.614 299.918 299.209 317.321 277.819 317.321Z" fill="url(#paint10_linear_679_2429)"/>
<path d="M295.25 289.339L290.399 284.395C290.399 284.395 289.092 283.186 287.877 283.93L285.173 286.825L284.405 287.749C283.061 289.282 279.32 286.015 279.32 286.015C276.525 284.576 270.284 277.273 270.284 277.273C267.21 273.724 268.94 272.188 268.94 272.188L269.807 271.321L272.78 268.443C272.78 268.443 274.419 267.481 269.996 263.736L265.004 258.646C265.004 258.646 263.654 257.396 262.409 258.162L259.625 261.139L258.758 262.002C256.646 265.174 257.607 270.553 257.607 270.553C261.251 284.286 277.007 294.661 277.007 294.661C290.262 302.725 294.201 297.446 294.201 297.446L295.059 296.713L297.953 293.919C297.954 293.914 299.54 292.975 295.25 289.339Z" fill="#F8FAFB"/>
<path d="M1025.79 232.791C1004.4 232.791 986.998 215.387 986.998 193.995C986.998 172.602 1004.4 155.202 1025.79 155.202C1047.18 155.202 1064.59 172.605 1064.59 193.995C1064.59 215.387 1047.18 232.791 1025.79 232.791Z" fill="url(#paint11_linear_679_2429)"/>
<path d="M1048.99 179.274L1045.28 175.568C1044.17 174.458 1042.37 174.458 1041.26 175.568L1017.86 198.968L1010.33 191.382C1009.79 190.842 1009.07 190.545 1008.32 190.542C1007.55 190.539 1006.84 190.838 1006.3 191.374L1002.59 195.081C1001.48 196.191 1001.48 197.982 1002.59 199.095L1015.84 212.412C1016.38 212.95 1017.09 213.249 1017.85 213.249C1018.61 213.249 1019.33 212.952 1019.87 212.416L1048.99 183.294C1049.52 182.765 1049.82 182.031 1049.82 181.284C1049.82 180.537 1049.52 179.804 1048.99 179.274Z" fill="#F8FAFB"/>
<path d="M322.453 138.247C301.061 138.247 283.66 120.844 283.66 99.4528C283.66 78.06 301.063 60.6597 322.453 60.6597C343.845 60.6597 361.248 78.0628 361.248 99.4528C361.248 120.843 343.845 138.247 322.453 138.247Z" fill="url(#paint12_linear_679_2429)"/>
<path d="M322.464 73.1326C313.382 73.1326 306.012 80.4841 306.012 89.5668C306.012 105.873 322.464 125.771 322.464 125.771C322.464 125.771 338.898 105.873 338.898 89.5668C338.898 80.4841 331.545 73.1326 322.464 73.1326ZM322.464 98.2704C317.669 98.2704 313.776 94.3799 313.776 89.5681C313.776 84.7727 317.667 80.8822 322.464 80.8822C327.26 80.8822 331.149 84.7727 331.149 89.5681C331.147 94.3772 327.258 98.2704 322.464 98.2704Z" fill="#F8FAFB"/>
<path d="M859.921 69.2191C878.8 69.2191 894.103 53.9155 894.103 35.0367C894.103 16.1579 878.8 0.854248 859.921 0.854248C841.042 0.854248 825.738 16.1579 825.738 35.0367C825.738 53.9155 841.042 69.2191 859.921 69.2191Z" fill="url(#paint13_linear_679_2429)"/>
<path d="M883.298 33.1778C883.298 24.0598 872.831 16.6648 859.922 16.6648C847.01 16.6648 836.545 24.0598 836.545 33.1778C836.545 42.2999 847.012 49.6922 859.922 49.6922C863.369 49.6922 866.639 49.1609 869.582 48.2137L877.246 53.4087L873.743 46.492C879.536 43.4889 883.298 38.6459 883.298 33.1778ZM849.575 35.7094C847.934 35.7094 846.601 34.3777 846.601 32.7335C846.601 31.0919 847.931 29.7575 849.575 29.7575C851.221 29.7575 852.551 31.0892 852.551 32.7335C852.551 34.3777 851.218 35.7094 849.575 35.7094ZM859.919 35.7094C858.277 35.7094 856.943 34.3777 856.943 32.7335C856.943 31.0919 858.275 29.7575 859.919 29.7575C861.563 29.7575 862.895 31.0892 862.895 32.7335C862.895 34.3777 861.563 35.7094 859.919 35.7094ZM870.265 35.7094C868.621 35.7094 867.289 34.3777 867.289 32.7335C867.289 31.0919 868.621 29.7575 870.265 29.7575C871.907 29.7575 873.241 31.0892 873.241 32.7335C873.241 34.3777 871.907 35.7094 870.265 35.7094Z" fill="#F8FAFB"/>
<path d="M382.137 453.215C382.137 472.22 366.73 487.626 347.724 487.626C328.719 487.626 313.316 472.22 313.316 453.215C313.316 434.213 328.722 418.806 347.724 418.806C366.728 418.806 382.137 434.213 382.137 453.215Z" fill="url(#paint14_linear_679_2429)"/>
<path d="M330.429 456.839C326.055 452.465 326.055 445.345 330.429 440.97C332.548 438.851 335.367 437.684 338.364 437.684C341.361 437.684 344.178 438.851 346.297 440.97L347.722 442.397L349.149 440.97C351.267 438.851 354.084 437.684 357.082 437.684C360.081 437.684 362.898 438.851 365.016 440.97C369.391 445.345 369.391 452.465 365.016 456.839L347.722 474.132L330.429 456.839Z" fill="#F8FAFB"/>
<path d="M776.231 884.559H440.983C419.978 884.559 402.953 867.531 402.953 846.53V73.0701C402.953 52.0646 419.981 35.0393 440.983 35.0393H776.231C797.236 35.0393 814.262 52.0674 814.262 73.0701V846.53C814.262 867.531 797.236 884.559 776.231 884.559Z" fill="white"/>
<path d="M767.088 44.2824C788.003 44.2824 805.019 61.2982 805.019 82.214V837.388C805.019 858.303 788.003 875.319 767.088 875.319H450.126C429.211 875.319 412.196 858.303 412.196 837.388V82.2112C412.196 61.2955 429.211 44.2797 450.126 44.2797L767.088 44.2824ZM767.088 35.0366H450.126C424.074 35.0366 402.953 56.1589 402.953 82.2112V837.386C402.953 863.438 424.074 884.559 450.126 884.559H767.088C793.14 884.559 814.262 863.441 814.262 837.386V82.2112C814.262 56.1589 793.143 35.0366 767.088 35.0366Z" fill="#1C056D"/>
<path d="M659.987 66.273H557.233C549.697 66.273 543.586 60.1635 543.586 52.6259V40.7751H673.631V52.6286C673.634 60.1649 667.523 66.273 659.987 66.273Z" fill="#1C056D"/>
<path d="M805.018 255.916H412.195V648.739H805.018V255.916Z" fill="#EEEEFD"/>
<path d="M805.018 576.075H412.195V648.747H805.018V576.075Z" fill="#EEEEFD"/>
<path d="M805.021 123.495H412.195V125.979H805.021V123.495Z" fill="#DFDEFF"/>
<path d="M805.021 763.445H412.195V765.929H805.021V763.445Z" fill="#DFDEFF"/>
<path d="M501.799 212.442C508.254 197.452 501.335 180.068 486.345 173.613C471.355 167.158 453.97 174.078 447.516 189.068C441.062 204.057 447.981 221.441 462.971 227.896C477.961 234.351 495.345 227.431 501.799 212.442Z" fill="#EEEEFD"/>
<path d="M480.851 200.035C479.011 201.061 476.89 201.648 474.626 201.648C472.373 201.648 470.251 201.061 468.401 200.035C462.052 202.53 457.553 208.695 457.553 215.928V216.658C462.109 220.678 468.085 223.105 474.626 223.105C481.177 223.105 487.144 220.678 491.708 216.651V215.931C491.708 208.698 487.201 202.53 480.851 200.035ZM474.626 178.385C468.883 178.385 464.225 183.045 464.225 188.785C464.225 194.526 468.886 199.186 474.626 199.186C480.376 199.186 485.026 194.526 485.026 188.785C485.026 183.045 480.376 178.385 474.626 178.385Z" fill="#D4CCF3"/>
<path d="M626.205 171.197H532.838V183.279H626.205V171.197Z" fill="#DFDEFF"/>
<path d="M579.522 193.995H532.838V206.077H579.522V193.995Z" fill="#DFDEFF"/>
<path d="M767.17 200.744H700.079C697.334 200.744 695.111 198.519 695.111 195.776V176.162C695.111 173.417 697.334 171.194 700.079 171.194H767.17C769.915 171.194 772.138 173.417 772.138 176.162V195.776C772.138 198.52 769.912 200.744 767.17 200.744Z" fill="#DFDEFF"/>
<path d="M474.632 231.535C457.655 231.535 443.842 217.725 443.842 200.746C443.842 183.768 457.655 169.955 474.632 169.955C491.612 169.955 505.425 183.768 505.425 200.746C505.425 217.725 491.612 231.535 474.632 231.535ZM474.632 172.439C459.023 172.439 446.326 185.136 446.326 200.746C446.326 216.356 459.023 229.051 474.632 229.051C490.24 229.051 502.941 216.354 502.941 200.746C502.941 185.139 490.243 172.439 474.632 172.439Z" fill="url(#paint15_linear_679_2429)"/>
<path d="M765.038 816.844C763.833 817.514 762.447 817.897 760.967 817.897C759.491 817.897 758.105 817.514 756.895 816.844C752.741 818.476 749.801 822.509 749.801 827.239V827.716C752.781 830.344 756.689 831.931 760.969 831.931C765.254 831.931 769.157 830.344 772.142 827.708V827.236C772.139 822.507 769.191 818.473 765.038 816.844ZM760.967 802.68C757.211 802.68 754.163 805.727 754.163 809.483C754.163 813.239 757.211 816.287 760.967 816.287C764.727 816.287 767.771 813.239 767.771 809.483C767.771 805.727 764.727 802.68 760.967 802.68Z" fill="#84B4FE"/>
<path d="M538.451 729.783H445.084V741.865H538.451V729.783Z" fill="#DFDEFF"/>
<path d="M538.451 702.267H445.084V710.308H538.451V702.267Z" fill="#DFDEFF"/>
<path d="M772.135 729.783H574.193V741.865H772.135V729.783Z" fill="#DFDEFF"/>
<path d="M515.119 806.189C511.575 810.623 511.629 817.101 515.241 821.483C519.342 826.461 526.369 827.261 531.417 823.895L539.205 831.681C539.532 832.01 540.066 832.01 540.394 831.681L542.583 829.494C542.91 829.166 542.91 828.632 542.583 828.303L534.795 820.517C537.951 815.787 537.444 809.318 533.275 805.151C528.201 800.075 519.727 800.423 515.119 806.189ZM529.897 818.996C527.01 821.883 522.315 821.883 519.429 818.996C516.543 816.11 516.543 811.415 519.429 808.529C522.315 805.641 527.01 805.641 529.897 808.529C532.781 811.415 532.781 816.11 529.897 818.996Z" fill="#84B4FE"/>
<path d="M679.497 819.695C676.402 816.599 676.402 811.562 679.497 808.467C680.998 806.966 682.99 806.142 685.111 806.142C687.232 806.142 689.224 806.969 690.724 808.467L691.733 809.476L692.742 808.467C694.243 806.966 696.235 806.142 698.356 806.142C700.477 806.142 702.469 806.969 703.969 808.467C707.065 811.562 707.065 816.599 703.969 819.695L691.733 831.932L679.497 819.695Z" fill="#84B4FE"/>
<path d="M470.771 815.623V831.931H461.926V820.657H453.929V831.931H445.084V815.623L457.931 803.626L470.771 815.623Z" fill="#84B4FE"/>
<path d="M772.137 99.2366L763.158 92.4653V95.3747H758.297C752.151 95.3747 747.168 100.358 747.168 106.502V112.479L750.899 107.889C753.381 104.838 757.101 103.067 761.034 103.067H763.158V106.011L772.137 99.2366Z" fill="#84B4FE"/>
<path d="M467.78 96.0205L466.498 92.5703H452.06L450.779 96.0205H445.084V112.368H473.478V96.0205H467.78ZM459.28 108.938C456.662 108.938 454.538 106.814 454.538 104.195C454.538 101.578 456.662 99.4544 459.28 99.4544C461.897 99.4544 464.021 101.578 464.021 104.195C464.021 106.817 461.897 108.938 459.28 108.938Z" fill="#84B4FE"/>
<path d="M619.682 810.635L618.009 806.138H599.204L597.531 810.635H590.111V831.931H627.098V810.635H619.682ZM608.607 827.459C605.195 827.459 602.43 824.695 602.43 821.281C602.43 817.868 605.195 815.104 608.607 815.104C612.02 815.104 614.786 817.868 614.786 821.281C614.786 824.695 612.02 827.459 608.607 827.459Z" fill="#84B4FE"/>
<path d="M446.915 677.805C444.474 675.363 444.474 671.389 446.915 668.95C448.098 667.767 449.671 667.116 451.345 667.116C453.019 667.116 454.592 667.767 455.774 668.95L456.569 669.745L457.364 668.95C458.546 667.767 460.118 667.116 461.792 667.116C463.464 667.116 465.039 667.767 466.222 668.95C468.663 671.391 468.663 675.363 466.222 677.805L456.569 687.457L446.915 677.805Z" fill="url(#paint16_linear_679_2429)"/>
<path d="M523.129 690.083V681.382C523.129 674.63 528.621 669.137 535.372 669.137H539.382V665.248L550.99 673.996L539.382 682.75V678.818H538.158C534.427 678.818 530.934 680.48 528.577 683.377L523.129 690.083ZM535.372 671C529.65 671 524.992 675.658 524.992 681.382V684.835L527.128 682.204C529.843 678.868 533.86 676.957 538.155 676.957H541.243V679.012L547.892 673.996L541.243 668.981V671H535.372Z" fill="#84B4FE"/>
<path d="M504.668 689.713L499.082 684.101H485.927C483.937 684.101 482.32 682.484 482.32 680.495V669.789C482.32 667.799 483.937 666.182 485.927 666.182H507.337C509.327 666.182 510.946 667.799 510.946 669.789V680.495C510.946 682.484 509.327 684.101 507.337 684.101H504.668V689.713ZM485.927 668.047C484.966 668.047 484.183 668.83 484.183 669.791V680.497C484.183 681.459 484.966 682.241 485.927 682.241H499.858L502.805 685.202V682.241H507.337C508.301 682.241 509.083 681.459 509.083 680.497V669.791C509.083 668.83 508.301 668.047 507.337 668.047H485.927Z" fill="#84B4FE"/>
<path d="M590.723 575.46H412.195V512.391L459.045 431.238C469.801 412.608 496.702 412.608 507.458 431.238L585.134 565.747V565.773L590.723 575.46Z" fill="#D4CCF3"/>
<path d="M805.021 421.129V575.462H579.521L585.136 565.749L712.615 344.944C723.372 326.314 750.273 326.314 761.029 344.944L805.021 421.129Z" fill="#D4CCF3"/>
<path d="M524.059 349.954C539.868 349.954 552.682 337.138 552.682 321.331C552.682 305.521 539.868 292.707 524.059 292.707C508.251 292.707 495.436 305.521 495.436 321.331C495.436 337.138 508.251 349.954 524.059 349.954Z" fill="url(#paint17_linear_679_2429)"/>
<path d="M983.165 321.592C973.618 334.929 948.731 360.909 948.731 360.909L945.944 350.344L911.836 363.51C911.836 363.51 925.648 411.568 939.008 413.281C952.37 414.996 982.931 356.269 998.06 328.11" fill="#FFB7D6"/>
<path d="M937.968 293.316C936.747 290.51 935.282 287.79 933.519 285.167C928.071 277.073 916.711 269.904 907.383 267.048C905.118 266.355 905.991 266.516 903.8 267.423C901.88 268.218 900.516 269.945 899.388 271.691C895.871 277.14 893.811 283.52 893.474 289.998C892.818 302.616 898.501 314.557 902.307 326.607C905.19 335.739 909.108 376.68 909.967 377.32C913.562 379.996 951.237 358.701 951.083 357.603C949.54 346.638 944.15 322.662 942.91 312.577C942.088 305.88 940.611 299.402 937.968 293.316Z" fill="#B5A7E9"/>
<path d="M855.508 827.184C855.508 827.184 866.906 859.138 864.41 865.04C861.938 870.943 854.573 865.721 834.902 848.623C815.231 831.523 812.154 823.48 812.154 823.48C812.154 823.48 815.356 818.284 820.225 809.736C835.96 828.244 855.508 827.184 855.508 827.184Z" fill="#517FC4"/>
<path d="M916.033 856.995C916.033 856.995 943.799 876.44 945.187 882.695C946.573 888.95 937.546 888.95 911.618 886.401C885.693 883.854 878.503 879.063 878.503 879.063C878.503 879.063 878.101 870.942 877.471 858.056H877.495C891.415 862.013 912.25 859.29 916.033 856.995Z" fill="#517FC4"/>
<path d="M865.517 706.43C868.87 725.245 872.075 784.034 872.882 799.417C862.868 816.137 855.506 827.183 855.506 827.183C855.506 827.183 835.961 828.242 820.223 809.731C833.084 787.235 857.573 741.463 865.517 706.43Z" fill="#3A376B"/>
<path d="M869.273 697.327C870.207 712.004 872.424 755.785 874.442 796.719C873.938 797.628 873.384 798.535 872.877 799.417C872.07 784.034 868.868 725.245 865.512 706.43C866.925 700.277 867.807 694.45 868.034 689.154C868.694 692.206 869.121 694.957 869.273 697.327Z" fill="#3A376B"/>
<path d="M917.871 706.784C922.11 656.216 897.344 512.943 897.344 512.943L885.314 514.783C885.314 514.783 909.551 620.986 915.957 680.252C916.811 688.198 917.442 697.175 917.871 706.784ZM874.442 796.719C872.424 755.789 870.204 712.004 869.273 697.327C869.12 694.957 868.694 692.207 868.037 689.156C860.27 653.471 819.942 574.052 810.711 523.435C810.408 521.821 810.133 520.156 809.855 518.391C809.829 518.289 809.83 518.19 809.804 518.062C808.922 511.329 808.493 501.999 808.316 491.103C823.651 490.952 838.985 490.698 853.613 490.246C860.774 498.24 865.467 498.595 867.381 494.71C868.112 493.197 868.643 491.508 868.895 489.693C890.91 488.758 910.432 487.323 924.48 485.278C925.185 490.374 925.943 495.039 926.697 499.227C933.657 564.571 936.834 630.623 926.042 683.357C924.378 691.579 921.578 700.658 918.021 710.114C920.592 771.978 916.029 856.995 916.029 856.995C912.246 859.29 891.414 862.012 877.491 858.052H877.467C876.711 842.517 875.628 820.071 874.442 796.719Z" fill="#3A376B"/>
<path d="M897.343 512.944C897.343 512.944 922.109 656.22 917.872 706.785C917.442 697.176 916.813 688.197 915.954 680.253C909.547 620.987 885.311 514.784 885.311 514.784L897.343 512.944Z" fill="#3A376B"/>
<path d="M869.377 230.428C867.99 228.661 867.537 226.317 867.611 224.098C867.713 221.652 868.368 219.231 869.529 217.089C870.36 215.551 871.496 214.089 873.058 213.28C874.673 212.448 876.69 212.4 878.355 213.18C879.969 213.909 881.231 215.424 881.658 217.164C881.58 220.569 881.506 229.596 882.994 229.773C884.835 230.025 889.476 217.516 889.476 217.516C889.476 217.516 898.656 215.7 902.715 208.36C903.498 210.175 906.625 211.008 908.617 211.008C910.736 211.033 912.981 210.63 914.823 211.663C917.47 213.127 918.478 217.086 921.454 217.566C922.893 217.792 924.229 217.062 925.59 216.48C925.767 218.095 925.312 219.682 924.909 221.247C922.512 230.175 918.327 238.623 913.105 246.238C910.86 249.517 907.584 255.192 903.748 256.933C901.302 258.018 890.004 255.847 890.004 255.847L887.709 262.455H887.685L886.197 266.742C884.253 272.341 857.925 270.148 854.418 259.855C856.46 254.257 859.488 243.867 860.825 238.521L860.901 238.546C864.408 239.13 869.377 230.428 869.377 230.428Z" fill="#FFB7D6"/>
<path d="M808.747 435.343C818.204 448.355 827.057 460.009 831.773 464.949C840.626 464.773 852.883 464.999 856.211 467.093C866.552 473.626 869.831 482.579 868.898 489.69C868.643 491.506 868.115 493.195 867.384 494.708C865.467 498.593 860.777 498.237 853.616 490.244C853.337 489.941 853.061 489.638 852.783 489.31C848.066 483.812 842.646 487.091 833.768 488.604C824.891 490.118 818.132 482.906 818.132 482.906C818.132 482.906 814.298 480.107 808.22 475.34C785.218 457.207 730.113 410.398 730.113 378.04C730.113 370.4 740.2 355.267 753.214 338.798C753.214 338.798 771.65 363.034 785.066 368.634C777.374 376.93 771.775 382.984 771.775 382.984C771.775 382.984 791.318 411.458 808.747 435.343Z" fill="#FFB7D6"/>
<path d="M833.768 488.604C842.646 487.091 848.067 483.812 852.783 489.309C853.061 489.638 853.337 489.941 853.614 490.244C838.986 490.698 823.653 490.949 808.319 491.1C808.244 486.132 808.193 480.861 808.217 475.337C814.295 480.104 818.129 482.903 818.129 482.903C818.129 482.903 824.889 490.119 833.768 488.604Z" fill="#56548B"/>
<path d="M821.788 335.445C821.788 335.445 822.115 374.335 818.407 379.882C815.559 384.169 811.042 370.045 809.127 363.338C808.95 358.268 808.647 353.779 808.27 350.074C815.434 342.43 821.788 335.445 821.788 335.445Z" fill="#B5A7E9"/>
<path d="M902.717 208.36C898.655 215.698 889.476 217.516 889.476 217.516C889.476 217.516 884.837 230.026 882.996 229.773C881.508 229.596 881.582 220.566 881.66 217.164C881.229 215.422 879.971 213.909 878.355 213.18C876.692 212.397 874.674 212.446 873.059 213.282C871.497 214.089 870.362 215.551 869.53 217.089C868.37 219.233 867.714 221.655 867.612 224.1C867.538 226.317 867.989 228.664 869.378 230.428C869.378 230.428 864.41 239.13 860.906 238.548L860.828 238.524C861.131 237.388 861.332 236.482 861.434 235.9C862.065 232.597 859.946 224.097 859.946 214.413H859.922C860.073 207.983 860.225 201.576 860.376 195.145C860.453 192.018 860.528 188.865 861.487 185.889C862.445 182.913 864.413 180.114 867.262 178.88C871.271 177.191 876.291 178.753 879.899 176.334C880.808 175.703 881.562 174.87 882.37 174.116C885.473 171.267 889.986 169.677 893.97 171.012C896.09 171.719 897.905 173.207 900.048 173.915C905.799 175.807 912.911 171.746 917.879 175.226C919.92 176.64 921.032 179.034 921.813 181.406C922.166 182.464 922.469 183.575 923.226 184.407C924.539 185.895 926.757 186.046 928.7 186.374C931.221 186.777 933.744 187.686 935.61 189.426C937.451 191.193 938.511 193.916 937.803 196.362C937.274 198.129 935.913 199.867 936.492 201.584C937.02 203.097 938.762 203.727 940.098 204.56C942.57 206.124 944.133 209.125 943.755 212.025C943.353 214.926 940.905 217.472 937.98 217.75C934.347 218.103 930.867 215.176 927.285 215.91C926.706 216.036 926.151 216.237 925.596 216.49C924.236 217.069 922.899 217.802 921.461 217.576C918.485 217.096 917.477 213.137 914.828 211.674C912.987 210.641 910.742 211.043 908.624 211.018C906.626 211.008 903.498 210.176 902.717 208.36Z" fill="#1C056D"/>
<path d="M887.711 262.458H887.687L886.199 266.745C884.257 272.343 857.926 270.15 854.422 259.859C832 260.817 822.115 261.347 807.916 276.783C799.366 286.063 772.936 313.932 753.213 338.799C753.213 338.799 771.649 363.035 785.065 368.634C786.225 369.163 787.36 369.516 788.446 369.693C789.479 369.868 799.492 359.478 808.268 350.071C815.429 342.43 821.786 335.443 821.786 335.443C821.786 335.443 822.115 374.332 818.405 379.879C815.557 384.166 811.04 370.042 809.125 363.336C809.806 382.023 809.227 408.756 808.747 435.34C818.204 448.354 827.057 460.006 831.775 464.947C840.628 464.771 852.884 464.996 856.213 467.09C866.554 473.624 869.831 482.576 868.898 489.688C890.914 488.753 910.436 487.318 924.483 485.273C921.557 464.291 919.035 436.423 916.991 408.505C915.553 390.346 918.503 362.401 918.934 335.746C919.11 324.322 918.832 313.099 917.548 303.036C915.367 285.33 913.016 273.178 907.385 267.048C901.543 264.492 894.947 262.653 887.711 262.458Z" fill="#B5A7E9"/>
<path d="M917.238 375.796C917.238 375.796 920.298 320.889 917.545 303.036C917.545 303.036 925.084 343.929 930.286 369.723L917.238 375.796Z" fill="#B5A7E9"/>
<path d="M975.079 269.569L957.639 313.849C957.366 314.551 957.48 315.28 957.843 315.845C956.844 314.825 956.094 313.823 956.094 313.823C955.776 313.28 955.71 312.596 955.957 311.938L973.398 267.681C974.148 265.773 975.987 264.501 978.052 264.501H998.17C998.488 264.501 998.784 264.59 999.033 264.727C999.033 264.727 1000.53 265.748 1001.37 267.226C1001.05 266.749 1000.51 266.409 999.85 266.409H979.732C977.691 266.413 975.828 267.661 975.079 269.569Z" fill="#1C056D"/>
<path d="M1001.53 268.979L995.105 283.853C995.037 283.762 994.946 283.717 994.857 283.651C992.404 281.971 975.828 283.288 974.306 284.219C972.83 285.173 968.289 298.366 970.173 301.544C972.057 304.769 986.567 303.271 984.116 306.451C983.139 307.723 982.821 309.971 982.752 312.4L981.843 314.512C981.228 315.92 979.845 316.826 978.3 316.826H959.679C959.136 316.826 958.634 316.622 958.272 316.304C958.113 316.145 957.954 315.986 957.839 315.85C957.477 315.281 957.362 314.555 957.636 313.853L975.075 269.573C975.826 267.665 977.687 266.416 979.731 266.416H999.849C1000.51 266.416 1001.05 266.756 1001.37 267.233C1001.44 267.347 1001.51 267.46 1001.55 267.574C1001.74 268.003 1001.74 268.502 1001.53 268.979Z" fill="#6880E4"/>
<path d="M981.911 271.228C981.501 272.509 980.13 273.549 978.849 273.549C977.567 273.549 976.862 272.509 977.274 271.228C977.684 269.946 979.055 268.908 980.337 268.908C981.615 268.908 982.321 269.946 981.911 271.228Z" fill="#1C056D"/>
<path d="M981.173 271.228C980.893 272.1 979.961 272.808 979.089 272.808C978.218 272.808 977.738 272.1 978.017 271.228C978.297 270.357 979.229 269.652 980.1 269.652C980.972 269.649 981.452 270.357 981.173 271.228Z" fill="#56548B"/>
<path d="M994.856 283.648C994.946 283.715 995.037 283.762 995.105 283.852C997.692 285.919 1003.16 294.115 1003.91 298.793C1004.64 303.629 1001.26 321.137 998.058 328.109C993.381 336.374 987.702 347.48 981.572 358.694C974.624 360.851 964.086 357.242 963.18 346.91L965.085 345.455C971.67 338.008 977.235 328.337 983.162 321.593C983.094 319.526 982.64 315.803 982.752 312.398C982.818 309.968 983.136 307.72 984.116 306.449C986.567 303.269 972.057 304.769 970.172 301.543C968.286 298.363 972.83 285.17 974.306 284.216C975.825 283.285 992.404 281.968 994.856 283.648Z" fill="#FFB7D6"/>
<path d="M869.375 230.427C872.015 234.009 876.842 234.139 876.842 234.139C876.842 234.139 876.68 237.923 873.108 237.401C869.537 236.879 869.375 230.427 869.375 230.427Z" fill="#FFB7D6"/>
<path d="M890.007 255.849C883.149 254.664 879.408 254.403 879.408 254.403L888.88 259.096L890.007 255.849Z" fill="#FFB7D6"/>
<path d="M268.936 648.333C268.936 648.333 290.504 696.903 297.014 710.307C303.526 723.711 319.291 724.053 324.599 719.6C329.908 715.146 369.824 660.753 375.863 643.28C381.901 625.808 355.193 612.869 342.701 627.437C330.208 642.007 312.092 677.799 312.092 677.799L280.402 632.636L272.691 634.031L268.936 648.333Z" fill="#FFB7D6"/>
<path d="M324.596 719.6C329.904 715.146 369.819 660.754 375.858 643.28C377.292 639.13 376.865 635.243 375.233 631.912L357.066 621.139C351.843 621.04 346.581 622.907 342.696 627.439C330.204 642.007 312.089 677.799 312.089 677.799L298.754 658.796C289.389 658.697 280.364 666.914 280.508 674.24C286.719 688.07 293.751 703.595 297.011 710.305C303.521 723.711 319.29 724.054 324.596 719.6Z" fill="#B5A7E9"/>
<path d="M16.3593 874.458V874.486C13.1748 874.779 11.4236 874.963 11.4236 874.963C11.4236 874.963 5.77248 857.955 3.19647 842.802C-1.04865 817.647 -0.385519 808.68 5.7699 809.847C7.91855 810.245 11.7142 813.722 15.7458 818.072L7.22811 822.662C7.22811 822.662 5.90402 838.16 16.3593 874.458Z" fill="#517FC4"/>
<path d="M177.212 763.863C172.145 770.577 165.908 779.175 159.752 787.797C175.196 807.219 191.249 809.37 195.734 809.661L225.797 777.155C212.661 774.264 203.774 771.663 203.774 771.663C189.869 769.805 180.742 765.984 177.212 763.863ZM207.143 737.672C207.912 738.812 208.814 739.847 209.636 740.963C211.865 743.934 213.512 747.357 214.44 750.966C219.428 751.683 230.309 752.931 246.414 753.17C252.783 753.249 260 753.17 268.013 752.852C278.255 752.427 285.315 751.712 290.514 750.039C270.241 733.056 248.826 717.455 236.702 715.782C222.347 713.792 212.105 720.134 203.561 729.263C203.639 729.581 203.72 729.875 203.771 730.113C204.437 732.764 205.577 735.392 207.143 737.672ZM322.251 778.298C322.041 778.43 321.827 778.536 321.615 778.643C302.829 788.355 268.811 785.199 242.144 780.447C241.401 780.315 240.684 780.18 239.942 780.048L266.741 807.619L338.334 803.373C338.865 800.508 339.235 797.668 339.474 794.856C336.897 792.281 330.61 786.125 322.251 778.298Z" fill="#3A376B"/>
<path d="M266.742 807.619L338.334 803.374C338.069 804.887 337.751 806.4 337.378 807.912C326.235 808.309 298.479 809.452 269.873 810.858L266.742 807.619Z" fill="#3A376B"/>
<path d="M269.873 810.855C298.479 809.45 326.233 808.307 337.378 807.909C337.752 806.397 338.07 804.884 338.335 803.371C338.866 800.505 339.237 797.666 339.475 794.853C339.687 792.546 339.82 790.263 339.847 787.98C357.494 795.675 406.051 792.944 406.051 792.944C404.964 816.003 420.089 850.018 402.152 871.248C384.214 892.476 346.879 883.692 309.172 876.369C271.492 869.046 212.931 866.127 148.158 866.844C139.799 866.95 131.309 867.133 122.899 867.426C112.312 863.261 108.25 831.978 115.283 825.608C121.862 824.679 128.522 823.777 135.077 822.9C155.537 820.14 175.172 817.62 189.873 816.027C195.578 815.391 200.538 814.911 204.494 814.593C220.28 813.402 245.381 812.022 269.873 810.855Z" fill="#3A376B"/>
<path d="M374.366 675.554C374.552 676.51 378.399 697.472 372.96 727.271C367.388 757.787 355.182 776.466 339.128 769.143L338.81 769.171C338.598 767.34 338.357 765.483 338.094 763.625C357.569 737.937 370.28 691.901 374.366 675.554Z" fill="#B5A7E9"/>
<path d="M324.375 649.178C327.055 642.253 330.292 635.539 334.167 629.993C326.764 650.081 322.095 675.341 317.158 696.861C315.781 693.466 314.956 690.36 315.034 687.521C315.222 681.895 318.271 665.045 324.375 649.178Z" fill="#B5A7E9"/>
<path d="M338.095 763.625C333.214 770.045 327.933 775.196 322.254 778.298C322.042 778.43 321.829 778.536 321.618 778.643C302.832 788.355 268.813 785.198 242.147 780.446C237.342 775.643 237.822 757.97 246.42 753.17C252.789 753.248 260.004 753.17 268.018 752.852C278.26 752.426 285.319 751.712 290.518 750.039C300.549 746.775 303.679 739.902 309.463 724.433C312.331 716.793 314.77 707.267 317.16 696.863C322.095 675.344 326.764 650.083 334.168 629.996C338.651 623.496 343.984 618.64 350.167 617.047C351.811 616.65 353.538 616.436 355.289 616.516C356.032 616.543 356.775 616.595 357.465 616.622C358.606 619.355 360.729 621.691 363.436 622.937C366.566 624.37 370.469 624.556 372.776 627.13C377.819 632.756 370.123 643.025 374.873 648.914C375.802 650.056 377.077 650.825 378.376 651.488C382.727 653.716 387.584 654.805 392.492 655.018C394.033 660.061 395.677 665.764 397.588 672.16C410.747 716.42 407.165 769.889 406.052 792.945C406.052 792.945 357.495 795.678 339.849 787.982C339.955 781.721 339.531 775.485 338.812 769.169L339.13 769.142C355.185 776.465 367.391 757.784 372.963 727.268C378.403 697.469 374.555 676.507 374.369 675.551C370.282 691.901 357.571 737.937 338.095 763.625Z" fill="#B5A7E9"/>
<path d="M350.166 614.683C350.166 611.232 350.166 608.314 350.166 608.314L335.175 607.226C331.141 597.513 327.852 583.61 328.036 566.786H327.93C328.143 563.204 328.752 559.567 329.628 556.223C329.895 557.018 330.16 557.764 330.344 558.427C332.44 565.75 336.658 572.464 342.391 577.507C344.329 579.23 346.636 581.089 346.716 583.662C346.795 585.758 345.363 587.617 345.204 589.685C344.992 593.057 348.07 595.658 350.91 597.488C353.748 599.318 356.985 601.495 357.357 604.838C357.544 606.59 356.88 608.313 356.587 610.064C356.215 612.269 356.56 614.549 357.462 616.618C356.772 616.59 356.028 616.538 355.286 616.511C353.535 616.431 351.811 616.643 350.164 617.042C350.166 616.247 350.166 615.452 350.166 614.683Z" fill="#FFB7D6"/>
<path d="M214.445 750.965C219.433 751.682 230.312 752.928 246.419 753.17C237.821 757.973 237.344 775.644 242.147 780.446C241.403 780.314 240.686 780.18 239.942 780.048C234.875 779.093 230.126 778.112 225.799 777.158C212.663 774.266 203.776 771.665 203.776 771.665C189.871 769.808 180.745 765.986 177.214 763.862C176.312 763.307 175.753 762.881 175.594 762.616C171.56 756.433 179.176 737.647 182.627 735.923C186.05 734.198 197.168 738.23 197.168 738.23C196.612 727.909 197.486 722.867 201.227 724.883C202.526 725.573 203.165 727.696 203.563 729.263C203.642 729.581 203.722 729.874 203.773 730.112C204.437 732.766 205.577 735.394 207.145 737.674C207.914 738.814 208.816 739.85 209.638 740.965C211.871 743.933 213.515 747.356 214.445 750.965Z" fill="#FFB7D6"/>
<path d="M195.734 809.661L189.869 816.03C175.169 817.623 155.532 820.145 135.074 822.903C139.133 817.04 149.349 802.394 159.75 787.797C175.196 807.221 191.25 809.372 195.734 809.661Z" fill="#FFB7D6"/>
<path d="M268.934 648.334C255.746 642.417 243.488 636.658 242.69 634.536C241.391 631.006 243.301 619.198 248.104 613.12C248.369 612.748 248.66 612.43 248.953 612.112C249.43 611.608 249.934 611.182 250.438 610.813C251.554 609.991 252.773 609.514 254.099 609.406C258.821 609.141 258.134 621.03 257.47 623.976C257.204 625.171 255.347 627.85 254.075 629.947C253.598 630.718 253.225 631.405 253.015 631.885C253.28 632.124 253.651 632.23 254.023 632.151C254.023 632.151 254.579 632.044 255.484 631.885C255.535 631.885 255.616 631.858 255.67 631.858H255.697L269.683 629.308C270.638 629.122 271.274 628.221 271.115 627.24L270.904 626.124L270.347 622.939C269.975 620.791 269.552 618.429 269.18 616.411C269.128 616.039 269.074 615.669 268.994 615.324C268.862 614.475 268.729 613.704 268.597 613.096C268.517 612.592 268.438 612.193 268.385 611.928C268.333 611.635 268.306 611.476 268.306 611.476C268.226 611.079 268.253 605.956 270.986 606.595C272.551 606.94 273.163 609.061 273.349 610.39C273.694 612.991 273.721 615.645 275.179 617.952C275.977 619.171 277.064 620.128 278.018 621.243C280.381 624.055 280.751 628.975 280.408 632.638L268.934 648.334Z" fill="#FFB7D6"/>
<path d="M271.112 627.239C271.271 628.22 270.635 629.122 269.68 629.308L255.694 631.856H255.667C255.614 631.856 255.535 631.885 255.481 631.885C254.897 631.885 254.365 631.459 254.261 630.875C254.261 630.875 254.182 630.53 254.075 629.947C255.349 627.85 257.207 625.169 257.47 623.975C258.134 621.029 258.824 609.142 254.099 609.406C252.773 609.513 251.554 609.99 250.438 610.813L245.344 584.092C245.185 583.401 245.689 582.738 246.379 582.658C246.431 582.631 246.487 582.631 246.538 582.631H261.664C262.513 582.631 263.255 583.267 263.414 584.116L267.874 609.138L268.298 611.473C268.298 611.473 268.325 611.632 268.378 611.925L268.589 613.093L268.987 615.32L269.173 616.408C269.545 618.425 269.968 620.788 270.34 622.936C270.527 624.104 270.737 625.192 270.896 626.122L271.112 627.239Z" fill="#6880E4"/>
<path d="M254.259 630.874C254.366 631.458 254.895 631.882 255.479 631.882C254.577 632.041 254.018 632.149 254.018 632.149C253.646 632.227 253.276 632.121 253.01 631.882C253.22 631.405 253.594 630.715 254.071 629.945C254.18 630.529 254.259 630.874 254.259 630.874Z" fill="#1C056D"/>
<path d="M245.343 584.093L250.439 610.814C249.933 611.187 249.429 611.609 248.952 612.113C248.822 611.477 248.766 611.105 248.766 611.105L243.645 584.411C243.537 583.801 243.882 583.217 244.415 583.034C244.467 583.006 244.521 583.006 244.574 582.981C245.13 582.822 246.377 582.663 246.377 582.663C245.688 582.74 245.184 583.403 245.343 584.093Z" fill="#1C056D"/>
<path d="M115.28 825.608C108.248 831.977 112.309 863.261 122.896 867.426C76.1691 869.019 31.0047 873.078 16.3589 874.483V874.456C5.90359 838.158 7.23012 822.66 7.23012 822.66L15.7478 818.069C23.3364 826.242 31.8269 837.573 31.8269 837.573C31.8269 837.573 72.3486 831.525 115.28 825.608Z" fill="#FFB7D6"/>
<path d="M392.49 655.016C387.581 654.805 382.725 653.717 378.372 651.485C377.073 650.822 375.8 650.053 374.87 648.913C370.121 643.021 377.817 632.753 372.774 627.128C370.466 624.554 366.564 624.368 363.434 622.934C360.726 621.688 358.605 619.352 357.462 616.621C356.561 614.551 356.216 612.268 356.588 610.067C356.879 608.317 357.545 606.592 357.359 604.841C356.985 601.498 353.748 599.321 350.909 597.491C348.071 595.66 344.993 593.059 345.204 589.688C345.36 587.641 346.985 585.865 346.721 583.867C346.493 582.122 344.985 580.411 343.716 579.31C341.97 577.8 339.878 576.754 337.913 575.539C332.255 572.039 327.55 567.012 324.435 561.133C324.005 560.32 323.598 559.471 323.486 558.556C323.289 556.966 324.008 555.416 324.765 554.003C332.432 539.68 343.919 530.33 360.62 530.029C366.785 529.918 373.325 530.892 378.084 534.817C381.204 537.39 383.274 541.138 386.61 543.454C390.267 545.992 394.775 545.783 398.781 547.47C405.203 550.123 408.626 557.553 408.494 564.505C408.387 570.077 406.584 576.34 410.034 580.718C411.837 583.054 414.756 584.194 417.066 586.079C421.419 589.661 423.197 596.083 421.311 601.391C419.667 605.954 415.66 609.695 415.395 614.527C415.05 621.002 421.498 625.777 423.249 632.039C424.815 637.558 422.32 643.688 418.074 647.588C413.855 651.464 408.179 653.426 402.5 654.383C399.201 654.936 395.832 655.175 392.49 655.016Z" fill="#1C056D"/>
<defs>
<linearGradient id="paint0_linear_679_2429" x1="774.979" y1="756.654" x2="774.979" y2="839.86" gradientUnits="userSpaceOnUse">
<stop stop-color="#4D5DEC"/>
<stop offset="0.327" stop-color="#4136EB"/>
<stop offset="1" stop-color="#420087"/>
</linearGradient>
<linearGradient id="paint1_linear_679_2429" x1="767.817" y1="759.626" x2="874.043" y2="759.626" gradientUnits="userSpaceOnUse">
<stop stop-color="#9942FF"/>
<stop offset="1" stop-color="#4D6DFF"/>
</linearGradient>
<linearGradient id="paint2_linear_679_2429" x1="891.639" y1="746.064" x2="993.006" y2="746.064" gradientUnits="userSpaceOnUse">
<stop stop-color="#9942FF"/>
<stop offset="1" stop-color="#4D6DFF"/>
</linearGradient>
<linearGradient id="paint3_linear_679_2429" x1="925.476" y1="814.429" x2="960.425" y2="814.429" gradientUnits="userSpaceOnUse">
<stop stop-color="#9942FF"/>
<stop offset="1" stop-color="#4D6DFF"/>
</linearGradient>
<linearGradient id="paint4_linear_679_2429" x1="953.795" y1="785.97" x2="1018" y2="785.97" gradientUnits="userSpaceOnUse">
<stop stop-color="#9942FF"/>
<stop offset="1" stop-color="#4D6DFF"/>
</linearGradient>
<linearGradient id="paint5_linear_679_2429" x1="156.701" y1="797.387" x2="212.553" y2="797.387" gradientUnits="userSpaceOnUse">
<stop stop-color="#9942FF"/>
<stop offset="1" stop-color="#4D6DFF"/>
</linearGradient>
<linearGradient id="paint6_linear_679_2429" x1="177.317" y1="757.946" x2="285.768" y2="757.946" gradientUnits="userSpaceOnUse">
<stop stop-color="#9942FF"/>
<stop offset="1" stop-color="#4D6DFF"/>
</linearGradient>
<linearGradient id="paint7_linear_679_2429" x1="303.734" y1="744.099" x2="407.225" y2="744.099" gradientUnits="userSpaceOnUse">
<stop stop-color="#9942FF"/>
<stop offset="1" stop-color="#4D6DFF"/>
</linearGradient>
<linearGradient id="paint8_linear_679_2429" x1="354.821" y1="813.896" x2="390.501" y2="813.896" gradientUnits="userSpaceOnUse">
<stop stop-color="#9942FF"/>
<stop offset="1" stop-color="#4D6DFF"/>
</linearGradient>
<linearGradient id="paint9_linear_679_2429" x1="437.264" y1="729.817" x2="437.264" y2="839.862" gradientUnits="userSpaceOnUse">
<stop stop-color="#4D5DEC"/>
<stop offset="0.327" stop-color="#4136EB"/>
<stop offset="1" stop-color="#420087"/>
</linearGradient>
<linearGradient id="paint10_linear_679_2429" x1="239.023" y1="278.526" x2="316.614" y2="278.526" gradientUnits="userSpaceOnUse">
<stop stop-color="#FB9004"/>
<stop offset="1" stop-color="#FC067D"/>
</linearGradient>
<linearGradient id="paint11_linear_679_2429" x1="986.998" y1="193.996" x2="1064.59" y2="193.996" gradientUnits="userSpaceOnUse">
<stop stop-color="#FB9004"/>
<stop offset="1" stop-color="#FC067D"/>
</linearGradient>
<linearGradient id="paint12_linear_679_2429" x1="283.66" y1="99.4541" x2="361.248" y2="99.4541" gradientUnits="userSpaceOnUse">
<stop stop-color="#FB9004"/>
<stop offset="1" stop-color="#FC067D"/>
</linearGradient>
<linearGradient id="paint13_linear_679_2429" x1="825.738" y1="35.0367" x2="894.103" y2="35.0367" gradientUnits="userSpaceOnUse">
<stop stop-color="#FB9004"/>
<stop offset="1" stop-color="#FC067D"/>
</linearGradient>
<linearGradient id="paint14_linear_679_2429" x1="313.316" y1="453.216" x2="382.137" y2="453.216" gradientUnits="userSpaceOnUse">
<stop stop-color="#FB9004"/>
<stop offset="1" stop-color="#FC067D"/>
</linearGradient>
<linearGradient id="paint15_linear_679_2429" x1="443.842" y1="200.744" x2="505.425" y2="200.744" gradientUnits="userSpaceOnUse">
<stop stop-color="#FB9004"/>
<stop offset="1" stop-color="#FC067D"/>
</linearGradient>
<linearGradient id="paint16_linear_679_2429" x1="445.085" y1="677.288" x2="468.053" y2="677.288" gradientUnits="userSpaceOnUse">
<stop stop-color="#FB9004"/>
<stop offset="1" stop-color="#FC067D"/>
</linearGradient>
<linearGradient id="paint17_linear_679_2429" x1="495.436" y1="321.331" x2="552.682" y2="321.331" gradientUnits="userSpaceOnUse">
<stop stop-color="#9942FF"/>
<stop offset="1" stop-color="#FC067D"/>
</linearGradient>
</defs>
</svg>
