<svg width="47" height="47" viewBox="0 0 47 47" fill="none" xmlns="http://www.w3.org/2000/svg">
<path d="M12.725 22.3957C12.725 19.1381 14.4216 11.1978 15.27 7.63483L13.234 8.14382L9.671 5.08984L5.09004 9.67081C4.68284 10.078 6.95636 12.2158 8.14401 13.2338L6.10803 19.3417L1.52706 19.8507L1.01807 25.9587L5.59903 26.4677L8.14401 32.0666L5.59903 36.1386L9.671 40.2106C10.5193 39.8713 12.216 39.0908 12.216 38.6836C12.216 38.1746 17.8149 32.0666 16.797 31.5577C15.779 31.0487 12.725 26.4677 12.725 22.3957Z" fill="#DDDFE8"/>
<path d="M41.0632 16.5609C40.4556 16.3588 39.8141 16.2788 39.1755 16.3254C38.5369 16.3721 37.9138 16.5444 37.342 16.8327C36.7702 17.1209 36.2611 17.5193 35.8438 18.005C35.4265 18.4906 35.1093 19.0539 34.9104 19.6626L33.0897 25.2653C32.8202 26.1025 32.8447 27.0067 33.159 27.8281C33.4734 28.6495 34.0588 29.339 34.8184 29.7824L35.5535 30.2094C34.0612 32.4969 32.1005 34.4418 29.8009 35.9155L29.3873 35.2104C28.9448 34.452 28.2569 33.8671 27.4372 33.5523C26.6175 33.2374 25.715 33.2114 24.8785 33.4786L19.2768 35.2993C18.6682 35.4981 18.1049 35.8153 17.6192 36.2326C17.1336 36.6499 16.7352 37.1591 16.4469 37.7308C16.1587 38.3026 15.9863 38.9257 15.9397 39.5643C15.893 40.2029 15.9731 40.8444 16.1751 41.452C16.7449 43.2231 17.9554 44.7176 19.5696 45.6427C21.1837 46.5677 23.0851 46.8567 24.9013 46.453C30.0754 45.3005 34.814 42.6975 38.5621 38.9489C42.3101 35.2003 44.9124 30.4613 46.0641 25.287C46.8933 21.5391 44.7438 17.7892 41.0632 16.5609ZM43.8433 24.7959C42.7845 29.5475 40.394 33.8992 36.9516 37.3415C33.5093 40.7838 29.1576 43.1743 24.406 44.2332C21.7975 44.8122 19.1869 43.3027 18.3298 40.7334C18.2229 40.4102 18.181 40.069 18.2063 39.7295C18.2317 39.39 18.3239 39.0589 18.4776 38.7551C18.6313 38.4513 18.8435 38.1809 19.102 37.9594C19.3606 37.7379 19.6603 37.5696 19.984 37.4643L25.5857 35.6436C25.9271 35.5338 26.2958 35.544 26.6307 35.6724C26.9656 35.8008 27.2466 36.0398 27.4271 36.3497L27.8406 37.0548C27.9995 37.3279 28.2122 37.5658 28.4658 37.7542C28.7194 37.9426 29.0087 38.0775 29.316 38.1508C29.6146 38.2217 29.9246 38.2308 30.2269 38.1774C30.5292 38.1241 30.8173 38.0095 31.0736 37.8406C33.6183 36.1725 35.7925 33.9986 37.4611 31.4542C37.6297 31.1978 37.7438 30.9095 37.7963 30.6071C37.8488 30.3047 37.8385 29.9948 37.7661 29.6966C37.6922 29.3888 37.5565 29.0993 37.3672 28.8457C37.1779 28.592 36.939 28.3796 36.665 28.2212L35.9588 27.8076C35.6492 27.627 35.4105 27.3462 35.2821 27.0116C35.1537 26.677 35.1433 26.3086 35.2526 25.9673L37.0785 20.3739C37.1839 20.0502 37.3521 19.7504 37.5737 19.4919C37.7952 19.2334 38.0656 19.0212 38.3694 18.8675C38.6731 18.7138 39.0043 18.6216 39.3438 18.5962C39.6833 18.5709 40.0245 18.6128 40.3477 18.7197C42.9159 19.5768 44.4192 22.1894 43.8433 24.7959Z" fill="url(#paint0_linear_216_535)"/>
<path fill-rule="evenodd" clip-rule="evenodd" d="M9.8789 38.8291L12.1049 36.6062C12.3209 36.4089 12.6047 36.3024 12.8972 36.3089C13.1898 36.3154 13.4685 36.4345 13.6756 36.6412C13.8826 36.848 14.002 37.1266 14.0089 37.4191C14.0158 37.7116 13.9097 37.9956 13.7126 38.2119L11.4856 40.4379C11.0591 40.864 10.4808 41.1034 9.87787 41.1034C9.27494 41.1034 8.69667 40.864 8.27016 40.4379L5.05266 37.2204C4.6265 36.7938 4.38711 36.2156 4.38711 35.6126C4.38711 35.0097 4.6265 34.4314 5.05266 34.0049L7.0729 31.9847C6.20477 30.5215 5.5486 28.9425 5.124 27.2949H2.27458C1.67132 27.2949 1.09277 27.0553 0.666209 26.6287C0.239643 26.2022 0 25.6236 0 25.0204V20.4712C0 19.8679 0.239643 19.2894 0.666209 18.8628C1.09277 18.4363 1.67132 18.1966 2.27458 18.1966H5.13124C5.55433 16.5497 6.20801 14.9708 7.0729 13.5069L5.05266 11.4866C4.6265 11.0601 4.38711 10.4818 4.38711 9.8789C4.38711 9.27597 4.6265 8.6977 5.05266 8.27119L8.27016 5.0537C8.69671 4.62722 9.2752 4.38763 9.87839 4.38763C10.4816 4.38763 11.0601 4.62722 11.4866 5.0537L13.5058 7.0729C14.9694 6.2044 16.5487 5.54788 18.1966 5.12297V2.27458C18.1966 1.67132 18.4363 1.09277 18.8628 0.666208C19.2894 0.239642 19.8679 0 20.4712 0H25.0204C25.6236 0 26.2022 0.239642 26.6287 0.666208C27.0553 1.09277 27.2949 1.67132 27.2949 2.27458V5.124C28.9407 5.55097 30.5176 6.20923 31.9785 7.07911L34.0049 5.0537C34.4314 4.62753 35.0097 4.38815 35.6126 4.38815C36.2156 4.38815 36.7938 4.62753 37.2204 5.0537L40.4379 8.26602C40.8643 8.69258 41.1039 9.27106 41.1039 9.87425C41.1039 10.4774 40.8643 11.0559 40.4379 11.4825L37.8304 14.091C37.6162 14.2997 37.3285 14.4157 37.0294 14.4138C36.7304 14.412 36.4442 14.2924 36.2326 14.081C36.0211 13.8696 35.9014 13.5834 35.8993 13.2844C35.8972 12.9854 36.013 12.6976 36.2216 12.4833L38.8291 9.8758L35.6126 6.65831L32.9462 9.32473C32.7608 9.51028 32.517 9.62605 32.2561 9.65243C31.9951 9.67881 31.733 9.61418 31.5143 9.46948C29.8212 8.33963 27.9252 7.54859 25.9312 7.14011C25.6747 7.08799 25.4439 6.94895 25.278 6.74647C25.1121 6.54399 25.0211 6.29046 25.0204 6.02866V2.27458H20.4712V6.02556C20.4712 6.28789 20.3805 6.54215 20.2145 6.74527C20.0485 6.94839 19.8174 7.08788 19.5603 7.14011C17.5643 7.5467 15.6662 8.33673 13.9711 9.46638C13.7523 9.61108 13.4903 9.67571 13.2293 9.64933C12.9683 9.62295 12.7245 9.50718 12.5391 9.32163L9.8789 6.66141L6.66141 9.8789L9.32163 12.5381C9.50744 12.7235 9.62337 12.9676 9.64975 13.2288C9.67613 13.4899 9.61134 13.7522 9.46638 13.9711C8.34262 15.6682 7.55728 17.5664 7.15355 19.5614C7.10111 19.8182 6.96153 20.0491 6.75843 20.2149C6.55533 20.3807 6.30118 20.4713 6.039 20.4712H2.27458V25.0204H6.02866C6.29099 25.0203 6.54525 25.111 6.74837 25.277C6.95149 25.443 7.09098 25.6741 7.14321 25.9312C7.54886 27.927 8.33782 29.8252 9.46638 31.5205C9.61107 31.7392 9.67571 32.0013 9.64933 32.2623C9.62295 32.5232 9.50718 32.767 9.32163 32.9524L6.66141 35.6126L9.8789 38.8291ZM14.6545 14.7507L14.8055 14.6008C14.9122 14.4958 15.0387 14.413 15.1776 14.357C15.3164 14.301 15.465 14.273 15.6147 14.2746C15.7645 14.2761 15.9124 14.3073 16.0501 14.3662C16.1877 14.4251 16.3124 14.5106 16.417 14.6178C16.5215 14.725 16.6039 14.8517 16.6593 14.9908C16.7147 15.1299 16.7421 15.2786 16.7399 15.4283C16.7378 15.5781 16.706 15.7259 16.6466 15.8633C16.5871 16.0007 16.5011 16.1251 16.3935 16.2292L16.2736 16.3491C16.0616 16.5638 15.7731 16.6855 15.4714 16.6875C15.1697 16.6894 14.8795 16.5714 14.6648 16.3595C14.4501 16.1475 14.3284 15.8589 14.3265 15.5572C14.3246 15.2555 14.4425 14.9654 14.6545 14.7507ZM18.3951 33.1353C18.6537 33.1357 18.9048 33.048 19.1068 32.8866C19.3089 32.7252 19.45 32.4998 19.5067 32.2475C19.5634 31.9951 19.5325 31.731 19.4189 31.4986C19.3053 31.2663 19.116 31.0795 18.882 30.9693C16.9135 30.0569 15.3387 28.4672 14.4449 26.4902C13.5511 24.5132 13.398 22.2807 14.0134 20.2002C14.0603 20.0554 14.0777 19.9027 14.0646 19.7511C14.0514 19.5995 14.0079 19.4521 13.9368 19.3176C13.8656 19.183 13.7681 19.0642 13.6502 18.968C13.5322 18.8719 13.3962 18.8004 13.2501 18.7577C13.104 18.7151 12.9509 18.7022 12.7997 18.7199C12.6486 18.7375 12.5025 18.7853 12.3701 18.8604C12.2378 18.9355 12.1219 19.0364 12.0292 19.1572C11.9366 19.2779 11.8691 19.416 11.8308 19.5633C11.0604 22.1643 11.2512 24.9558 12.3684 27.4278C13.4857 29.8998 15.4549 31.8874 17.9164 33.0278C18.0661 33.0982 18.2295 33.1349 18.3951 33.1353ZM19.4403 11.8618C21.553 11.2186 23.8075 11.2064 25.927 11.8266C27.4241 12.2568 28.8157 12.9931 30.0135 13.9888C31.2114 14.9845 32.1896 16.218 32.8862 17.6113C33.0226 17.8804 33.0465 18.1927 32.9527 18.4795C32.8588 18.7663 32.6549 19.004 32.3858 19.1404C32.1167 19.2769 31.8044 19.3008 31.5176 19.2069C31.2308 19.1131 30.9931 18.9092 30.8567 18.64C29.8942 16.7287 28.2875 15.2189 26.3202 14.3769C24.3528 13.5349 22.1513 13.4149 20.1041 14.0381C19.8155 14.1262 19.5038 14.0959 19.2374 13.9541C18.9711 13.8123 18.7721 13.5705 18.684 13.2818C18.596 12.9932 18.6263 12.6815 18.7681 12.4152C18.9099 12.1489 19.1517 11.9498 19.4403 11.8618Z" fill="url(#paint1_linear_216_535)"/>
<defs>
<linearGradient id="paint0_linear_216_535" x1="15.9268" y1="31.4717" x2="46.2414" y2="31.4717" gradientUnits="userSpaceOnUse">
<stop stop-color="#FB9004"/>
<stop offset="1" stop-color="#FC067D"/>
</linearGradient>
<linearGradient id="paint1_linear_216_535" x1="0" y1="20.5517" x2="41.1039" y2="20.5517" gradientUnits="userSpaceOnUse">
<stop stop-color="#9942FF"/>
<stop offset="1" stop-color="#FC067D"/>
</linearGradient>
</defs>
</svg>
