<svg width="1253" height="745" viewBox="0 0 1253 745" fill="none" xmlns="http://www.w3.org/2000/svg">
<path opacity="0.16" d="M135.393 731.133C135.393 731.133 -35.6591 680.01 6.76162 534.52C49.1824 389.03 190.399 405.649 251.707 346.561C313.016 287.474 322.866 109.761 458.34 28.992C593.814 -51.7755 724.398 59.1095 768.578 85.1195C812.76 111.129 992.021 1.61237 1101.5 85.1195C1210.97 168.625 1108.34 320.494 1096.02 425.947C1083.71 531.398 1210.97 539.297 1242.44 607.902C1273.92 676.509 1191.81 731.131 1191.81 731.131L135.393 731.133Z" fill="#B5A7E9"/>
<path d="M791.353 138.442H476.082V379.461H791.353V138.442Z" fill="#6880E4"/>
<path d="M783.627 146.626H484.195V371.284H783.627V146.626Z" fill="#EEEEFD"/>
<path d="M744.439 160.471H523.379V177.748H744.439V160.471Z" fill="#9391EC"/>
<path d="M532.106 299.781H514.9V342.995H532.106V299.781Z" fill="#9391EC"/>
<path d="M570.879 261.846H553.672V342.996H570.879V261.846Z" fill="#9391EC"/>
<path d="M609.654 270.236H592.447V342.994H609.654V270.236Z" fill="#9391EC"/>
<path d="M648.426 229.158H631.219V342.995H648.426V229.158Z" fill="#9391EC"/>
<path d="M715.288 354.89H503.539V198.282H505.887V352.539H715.288V354.89Z" fill="#9391EC"/>
<path d="M522.519 276.381L520.949 274.631L561.232 238.445L598.545 246.555L638.948 201.558L640.695 203.128L599.38 249.141L561.908 240.997L522.519 276.381Z" fill="#9391EC"/>
<path d="M643.86 209.776L632.467 198.848L647.174 194.909L643.86 209.776Z" fill="#9391EC"/>
<path d="M763.103 200.766H684.434V203.85H763.103V200.766Z" fill="#DFDEFF"/>
<path d="M763.106 208.231H673.814V211.316H763.106V208.231Z" fill="#DFDEFF"/>
<path d="M763.106 215.699H673.814V218.784H763.106V215.699Z" fill="#DFDEFF"/>
<path d="M763.106 223.167H673.814V226.251H763.106V223.167Z" fill="#DFDEFF"/>
<path d="M763.106 230.637H673.814V233.721H763.106V230.637Z" fill="#DFDEFF"/>
<path d="M763.106 238.104H673.814V241.189H763.106V238.104Z" fill="#DFDEFF"/>
<path d="M763.106 245.572H673.814V248.657H763.106V245.572Z" fill="#DFDEFF"/>
<path d="M763.106 253.04H673.814V256.125H763.106V253.04Z" fill="#DFDEFF"/>
<path d="M763.106 260.504H673.814V263.588H763.106V260.504Z" fill="#DFDEFF"/>
<path d="M763.106 267.974H673.814V271.056H763.106V267.974Z" fill="#DFDEFF"/>
<path d="M763.106 275.439H673.814V278.524H763.106V275.439Z" fill="#DFDEFF"/>
<path d="M763.106 282.907H673.814V285.992H763.106V282.907Z" fill="#DFDEFF"/>
<path d="M763.106 290.375H673.814V293.459H763.106V290.375Z" fill="#DFDEFF"/>
<path d="M763.106 297.843H673.814V300.927H763.106V297.843Z" fill="#DFDEFF"/>
<path d="M763.106 305.311H673.814V308.395H763.106V305.311Z" fill="#DFDEFF"/>
<path d="M763.106 312.777H673.814V315.862H763.106V312.777Z" fill="#DFDEFF"/>
<path d="M763.106 320.245H673.814V323.33H763.106V320.245Z" fill="#DFDEFF"/>
<path d="M763.106 327.713H673.814V330.795H763.106V327.713Z" fill="#DFDEFF"/>
<path d="M763.107 335.181H723.771V338.263H763.107V335.181Z" fill="#DFDEFF"/>
<path d="M506.848 726.813C507.295 730.475 507.685 733.827 508.056 736.847H463.887C439.33 730.632 405.737 725.411 364.898 727.106C341.86 728.06 321.431 731.801 303.787 736.847H231.672C233.327 726.462 235.081 714.617 236.736 701.954C241.021 668.541 244.506 629.304 243.202 596.109C240.183 520.85 212.452 487.827 217.71 472.105C221.566 460.572 280.086 436.375 311.342 424.179C322.852 419.699 330.661 416.834 330.661 416.834L399.173 414.827C399.173 414.827 403.146 416.25 409.591 418.665L410.117 418.86C433.368 427.606 486.904 448.882 502.62 464.584C522.873 484.845 495.843 502.848 492.884 548.592C491.209 573.567 496.544 632.462 501.706 680.68C503.536 698.154 505.366 714.266 506.848 726.813Z" fill="#B5A7E9"/>
<path d="M463.619 699.898C480.387 714.226 497.506 722.788 506.85 726.806C505.366 714.27 503.53 698.152 501.696 680.678C491.479 675.392 481.611 670.413 481.611 670.413C481.611 670.413 438.774 678.624 463.619 699.898Z" fill="#B5A7E9"/>
<path d="M231.676 736.854C239.749 736.854 260.4 716.554 260.4 716.554L274.51 702.914L270.931 691.163L236.741 701.952C235.082 714.621 233.335 726.458 231.676 736.854Z" fill="#9B4B38"/>
<path d="M499.272 736.847H248.676C252.902 727.458 258.239 715.474 264.957 700.182C294.052 634.021 299.038 529.286 298.297 494.958C297.324 448.845 310.955 424.355 310.955 424.355L311.345 424.179L365.193 401.035L409.594 418.667L410.12 418.862L410.898 419.173C410.898 419.173 419.955 447.637 435.241 502.245C450.529 556.833 455.612 647.853 465.076 674.427C471.152 691.493 487.997 719.215 499.272 736.847Z" fill="#B5A7E9"/>
<path d="M382.602 589.607H343.449C342.313 589.607 341.359 588.747 341.243 587.616L332.618 504.229C332.482 502.92 333.508 501.781 334.824 501.781H391.229C392.545 501.781 393.571 502.92 393.435 504.229L384.81 587.616C384.69 588.745 383.738 589.607 382.602 589.607Z" fill="#1C056D"/>
<path d="M380.943 588.804H345.104C344.064 588.804 343.191 587.976 343.085 586.886L335.189 506.574C335.065 505.313 336.004 504.217 337.208 504.217H388.837C390.041 504.217 390.981 505.313 390.857 506.574L382.96 586.886C382.856 587.976 381.983 588.804 380.943 588.804Z" fill="#6880E4"/>
<path d="M431.088 574.288C431.088 574.288 414.76 543.749 404.253 538.493C393.746 533.236 390.407 533.516 390.407 533.516L389.605 541.27C389.605 541.27 379.168 543.814 363.219 543.04C354.708 542.626 346.759 540.438 346.759 540.438C346.759 540.438 341.507 538.051 337.956 538.479C334.406 538.905 328.851 542.732 342.766 550.119C342.766 550.119 355.41 554.122 361.232 555.541C367.053 556.962 380.685 557.104 380.685 557.104C380.685 557.104 372.124 572.518 372.883 579.527C381.752 582.647 400.147 581.058 407.34 591.855" fill="#FFB7D6"/>
<path d="M383.286 552.715C383.286 552.715 368.638 553.71 362.806 552.715C356.975 551.72 346.921 548.641 342.197 547.575C337.472 546.507 338.501 546.229 335.449 546.203C332.096 546.176 325.618 552.563 339.336 557.443C339.336 557.443 355.034 562.627 360.978 564C366.922 565.372 384.45 566.287 384.45 566.287" fill="#FFB7D6"/>
<path d="M387.707 563.815C387.707 563.815 373.059 564.811 367.227 563.815C361.396 562.82 352.493 560.534 347.768 559.466C343.044 558.397 340.327 556.497 337.279 556.649C334.232 556.801 330.039 563.664 343.757 568.542C343.757 568.542 359.455 573.725 365.399 575.099C371.343 576.471 388.871 577.385 388.871 577.385" fill="#FFB7D6"/>
<path d="M380.026 572.353C380.026 572.353 370.051 573.185 366.067 572.568C362.082 571.951 354.934 570.593 351.703 569.915C348.472 569.237 346.959 568.074 344.883 568.21C342.806 568.346 343.025 572.408 352.424 575.589C352.424 575.589 360.872 579.403 364.939 580.276C369.005 581.149 384.002 581.681 384.002 581.681" fill="#FFB7D6"/>
<path d="M340.135 567.012C340.135 567.012 340.742 567.292 341.839 567.694C342.934 568.098 344.52 568.624 346.429 569.221C350.24 570.447 355.386 571.872 360.518 573.358C363.095 574.054 365.636 574.901 368.075 575.219C370.557 575.506 372.874 575.774 374.86 576.005C376.854 576.19 378.515 576.344 379.677 576.45C380.843 576.521 381.511 576.563 381.511 576.563C381.511 576.563 378.834 576.744 374.821 576.517C372.815 576.425 370.477 576.238 367.983 575.942C365.439 575.636 362.866 574.832 360.307 574.081C355.181 572.576 350.062 571.007 346.295 569.609C344.412 568.914 342.865 568.269 341.794 567.8C340.724 567.329 340.135 567.012 340.135 567.012Z" fill="#CE736B"/>
<path d="M335.832 555.951C335.832 555.951 338.679 556.899 342.95 558.322C345.092 559.008 347.59 559.806 350.267 560.662C352.947 561.499 355.821 562.351 358.723 563.06C359.438 563.228 360.195 563.433 360.874 563.559C361.613 563.665 362.348 563.774 363.077 563.88C364.539 564.079 365.979 564.274 367.37 564.463C370.158 564.822 372.76 565.157 374.99 565.445C379.455 566.001 382.443 566.285 382.443 566.285C382.443 566.285 379.439 566.231 374.945 565.887C372.701 565.693 370.081 565.479 367.283 565.143C365.886 564.97 364.442 564.793 362.974 564.611C362.242 564.515 361.503 564.416 360.76 564.316C359.97 564.18 359.275 563.994 358.528 563.827C352.69 562.315 347.014 560.327 342.798 558.74C338.592 557.138 335.832 555.951 335.832 555.951Z" fill="#CE736B"/>
<path d="M335.832 545.425C335.832 545.425 336.407 545.953 337.509 546.753C338.604 547.555 340.249 548.606 342.353 549.564C343.409 550.047 344.587 550.405 345.886 550.77C347.166 551.158 348.518 551.566 349.916 551.988C352.704 552.849 355.693 553.722 358.678 554.562C360.183 554.966 361.652 555.352 363.173 555.512C364.692 555.681 366.188 555.849 367.634 556.01C370.536 556.322 373.245 556.614 375.566 556.864C380.209 557.388 383.304 557.735 383.304 557.735C383.304 557.735 380.195 557.55 375.53 557.27C373.201 557.091 370.483 556.882 367.571 556.657C366.115 556.513 364.61 556.363 363.081 556.212C361.546 556.066 359.986 555.683 358.481 555.299C355.451 554.52 352.493 553.533 349.706 552.658C348.319 552.207 346.975 551.769 345.704 551.355C344.44 550.949 343.208 550.522 342.156 549.989C340.028 548.953 338.472 547.735 337.422 546.869C336.37 545.99 335.832 545.425 335.832 545.425Z" fill="#CE736B"/>
<path d="M507.58 471.055C507.58 471.055 538.976 525.796 559.599 642.344C578.034 746.519 504.629 731.57 472.244 694.228C448.786 667.177 435.267 642.742 423.96 624.913C406.944 598.077 400.965 588.134 400.965 588.134L428.393 565.841L489.12 628.843C489.12 628.843 471.127 571.841 478.623 530.59" fill="#8F80C7"/>
<path d="M357.441 696.858C357.441 696.858 365.363 698.475 373.314 698.847C381.264 699.22 384.609 696.486 392.639 695.118C400.67 693.75 427.57 703.406 432.253 706.595C436.938 709.784 406.022 716.412 389.694 717.137C373.368 717.862 354.764 713.038 354.764 713.038" fill="#FFB7D6"/>
<path d="M219.984 468.729C190.993 500.481 168.006 575.765 155.454 652.307C147.379 701.55 163.699 722.67 195.747 724.274C231.675 726.074 360.068 724.274 360.068 724.274C366.363 702.874 362.056 695.251 362.056 695.251L226.155 666.765C226.155 666.765 253.725 575.832 255.051 541.14" fill="#8F80C7"/>
<path d="M358.562 437.443C346.001 438.14 327.364 431.252 323.029 419.182C323.029 419.182 327.84 414.296 329.511 406.47C333.331 389.055 334.598 355.749 328.079 316.124L393.562 357.771C393.562 357.771 393.195 361.244 392.864 366.441C392.681 369.38 392.516 372.835 392.423 376.564C392.313 380.714 392.313 385.178 392.496 389.57C392.661 393.482 392.992 397.341 393.562 400.831C394.59 407.426 396.444 412.775 399.549 414.906C399.549 414.906 402.416 434.961 358.562 437.443Z" fill="#FFB7D6"/>
<path d="M393.562 400.83C365.644 388.4 351.254 363.795 351.254 363.795L392.426 376.562C392.315 380.713 392.315 385.177 392.499 389.568C392.664 393.483 392.993 397.34 393.562 400.83Z" fill="#FFB7D6"/>
<path d="M443.06 283.092C443.06 283.092 452.081 376.999 417.821 397.784C402.389 407.146 351.942 364.403 351.942 364.403C351.942 364.403 318.901 335.863 324.563 302.777C335.259 240.296 433.397 220.91 443.06 283.092Z" fill="#FFB7D6"/>
<path d="M477.088 260.506C470.848 255.279 463.447 255.161 458.844 255.868C459.512 249.812 457.335 243.714 450.213 240.503C443.257 237.367 437.589 239.252 434.127 241.287C432.563 237.659 429.612 234.062 424.158 231.863C409.678 226.021 403.263 236.096 403.263 236.096C403.263 236.096 393.994 219.099 372.041 224.491C352.537 229.281 353.667 247.858 353.667 247.858C353.667 247.858 338.43 240.172 324.705 254.246C312.247 267.02 319.878 280.729 319.878 280.729C319.878 280.729 307.109 280.262 304.316 293.347C301.682 305.685 313.741 312.961 313.741 312.961C311.702 317.825 309.542 324.075 310.768 333.715C312.322 345.944 326.184 354.803 326.184 354.803C321.954 362.257 327.585 369.759 332.193 370.937C336.799 372.116 326.419 319.674 348.374 320.299C361.426 320.669 365.53 343.276 367.634 341.173C369.736 339.07 365.348 311.652 369.553 307.212C373.757 302.774 379.673 297.787 389.951 297.32C400.229 296.853 401.863 287.74 401.863 287.74C401.863 287.74 410.972 296.386 419.381 293.814C427.789 291.244 427.789 283.534 427.789 283.534C427.789 283.534 432.652 286.841 438.426 288.51L438.424 288.516C475.685 303 489.58 270.971 477.088 260.506Z" fill="#1C056D"/>
<path d="M343.622 330.605C345.785 329.763 347.95 330.459 349.282 332.223C350.746 334.162 350.42 335.516 350.086 337.716C349.845 339.297 349.234 340.554 350.089 342.089C351.496 344.612 358.429 347.46 354.459 351.274C353.48 352.214 354.936 353.637 355.937 352.752C357.407 351.451 357.751 349.459 357.416 347.555C357.192 346.284 356.534 345.05 355.716 344.064C355.391 343.672 354.934 343.374 354.629 342.988C353.045 340.994 352.458 339.49 352.528 336.959C352.682 331.468 349.098 326.17 343.034 329.208C342.27 329.59 342.808 330.922 343.622 330.605Z" fill="#FFB7D6"/>
<path d="M330.869 253.533C330.869 253.533 330.936 252.92 331.293 251.913C331.466 251.408 331.718 250.809 332.073 250.157C332.422 249.499 332.873 248.789 333.44 248.066C333.982 247.321 334.707 246.623 335.489 245.923C336.34 245.291 337.282 244.694 338.332 244.234C339.343 243.706 340.452 243.345 341.508 242.831C342.034 242.565 342.613 242.423 343.163 242.189C343.72 241.978 344.26 241.668 344.847 241.532C346.006 241.246 347.174 240.728 348.374 240.7C349.562 240.633 350.754 240.409 351.884 240.523C353.017 240.594 354.13 240.628 355.151 240.831C356.166 241.059 357.113 241.319 357.984 241.556C358.861 241.779 359.627 242.088 360.289 242.411C360.955 242.721 361.54 242.965 362.007 243.207C362.945 243.675 363.461 243.974 363.461 243.974L363.394 244.159C363.394 244.159 362.787 244.104 361.761 243.954C361.245 243.889 360.638 243.757 359.936 243.637C359.237 243.509 358.461 243.336 357.592 243.269C356.733 243.154 355.809 243.034 354.842 242.861C353.866 242.756 352.84 242.707 351.78 242.561C350.718 242.35 349.625 242.492 348.502 242.437C347.936 242.403 347.373 242.421 346.809 242.486L345.086 242.583C343.951 242.732 342.796 242.967 341.738 243.385C340.704 243.866 339.695 244.372 338.899 245.129C338.023 245.762 337.365 246.586 336.636 247.214C335.978 247.922 335.253 248.493 334.715 249.15C334.114 249.751 333.621 250.356 333.164 250.886C332.723 251.434 332.339 251.911 332.022 252.303C331.391 253.107 331.054 253.604 331.054 253.604L330.869 253.533Z" fill="#1C056D"/>
<path d="M844.58 441.405C844.58 441.405 824.144 438.413 827.84 417.965C829.363 409.529 837.286 406.993 829.362 393.201C826.963 389.024 832.205 381.164 830.164 375.859C827.777 369.652 825.558 369.412 832.546 354.543C834.552 350.274 826.392 344.196 831.731 338.301C837.072 332.406 841.329 335.4 842.489 331.701C844.609 324.938 837.334 322.857 842.489 317.147C847.645 311.436 848.567 313.464 851.144 304.989C853.721 296.514 852.85 286.805 859.214 276.957C866.535 265.628 858.014 264.347 867.406 255.872C876.797 247.397 882.349 248.471 889.597 238.745C896.097 230.024 908.104 226.139 920.199 233.879C921.058 234.429 921.891 234.839 922.626 235.249C926.496 237.417 931.104 237.752 935.223 236.11C938.184 234.929 942.04 234.011 945.98 234.799C954.266 236.457 949.662 242.352 957.949 246.221C968.034 250.929 974.029 244.177 976.927 263.494C977.331 266.184 978.83 268.533 980.635 270.567C985.259 275.772 990.728 277.595 991.281 288.538C991.851 299.766 985.201 298.909 987.964 306.647C990.726 314.384 995.145 317.258 997.538 327.059C999.932 336.86 993.671 334.281 994.225 343.491C994.776 352.702 999.564 352.886 994.408 359.149C989.252 365.413 987.595 367.07 989.435 372.597C991.277 378.123 995.696 382.544 995.328 387.887C994.959 393.228 992.004 392.493 998.086 401.52C1002.84 408.577 1004.4 421.424 997.383 434.27C994.504 439.542 1002.59 452.586 1000.24 460.489" fill="#1C056D"/>
<path d="M986.899 432.96C974.905 445.619 942.445 461.786 906.758 466.039C896.727 467.238 886.346 466.195 876.763 462.982C867.198 459.788 858.329 452.667 855.795 442.891C853.817 435.268 855.882 427.193 858.678 419.847C859.215 418.422 881.172 417.537 883.377 416.132C887.317 413.631 891.24 401.077 892.907 396.788C893.358 395.625 893.809 394.444 894.26 393.246C895.284 390.536 896.291 387.724 897.229 384.842C902.141 369.891 905.509 352.925 900.387 338.774L952.566 359.908C940.796 383.021 934.705 410.423 940.781 419.556C946.839 428.705 991.204 431.466 986.899 432.96Z" fill="#FFB7D6"/>
<path d="M943.057 367.874C951.149 364.829 957.368 357.965 961.188 350.081C965.009 342.196 966.638 333.321 967.548 324.467C968.955 310.764 968.415 295.789 960.465 284.271C954.705 275.926 945.67 270.425 936.318 267.047C926.688 263.567 916.212 262.09 906.486 264.446C905.371 264.716 904.272 265.039 903.19 265.415C886.755 271.129 879.836 288.699 873.932 304.055C867.554 320.636 863.427 338.203 861.742 356.116C861.006 363.935 861.015 372.707 866.128 378.815C871.881 385.685 881.816 386.492 890.414 385.687C907.839 384.059 924.41 378.139 940.782 372.266" fill="#FFB7D6"/>
<path d="M921.967 257.559C921.967 257.559 914.201 273.892 929.351 283.1C934.046 285.954 942.809 300.619 942.291 308.54C941.773 316.461 940.336 317.443 940.667 321.988C941.501 333.415 952.039 346.679 968.152 343.547C970.887 343.015 971.539 319.512 971.539 318.406C971.539 317.301 971.722 300.16 971.539 297.213C971.354 294.267 966.653 275.5 961.681 271.631C956.708 267.762 944.174 263.71 943.437 262.604C942.7 261.499 924.727 249.947 924.727 249.947" fill="#1C056D"/>
<path d="M943.087 344.017C944.862 341.131 948.093 336.862 951.409 336.273C958.104 335.085 960.864 339.328 962.625 342.367C965.072 346.591 962.56 353.605 959.652 357.285C956.413 361.386 950.759 365.72 945.643 366.733C940.526 367.746 932.23 366.641 934.766 359.346" fill="#FFB7D6"/>
<path d="M956.72 343.189C952.317 339.084 946.684 342.866 946.438 348.264C946.377 349.581 946.188 351.025 944.943 351.885C944.466 352.214 943.55 352.275 942.992 352.555C941.779 353.164 940.701 354.112 940 355.279C938.987 356.964 938.625 359.124 939.748 360.821C940.485 361.934 942.25 360.931 941.552 359.766C938.859 355.265 946.499 354.776 948.032 352.281C948.698 351.197 948.525 349.971 948.592 348.761C948.812 344.845 952.158 341.642 955.792 344.389C956.49 344.916 957.349 343.774 956.72 343.189Z" fill="#FFB7D6"/>
<path d="M927.517 375.862C918.821 383.624 905.734 389.962 894.26 393.244C895.284 390.534 896.291 387.721 897.229 384.84C906.707 382.755 918.544 379.595 927.517 375.862Z" fill="#FFB7D6"/>
<path d="M1047.45 534.843H751.158C751.158 534.843 752.508 529.612 755.331 521.31C756.141 518.855 757.124 516.129 758.203 513.181C759.431 509.816 760.83 506.182 762.402 502.35C762.942 501.123 763.458 499.845 764.021 498.568C775.805 471.062 795.935 435.598 825.469 421.108C837.891 415.018 855.616 416.049 872.898 416.835C872.898 416.835 872.579 445.374 901.571 448.492C930.54 451.586 953.494 424.325 953.494 424.325C953.494 424.325 991.693 427.1 1002.69 435.425C1018.87 447.684 1041.55 478.112 1047.45 534.843Z" fill="#B5A7E9"/>
<path d="M725.637 427.638L698.778 435.821C698.778 435.821 696.954 416.654 693.405 411.558C689.832 406.461 687.956 407.831 685.98 398.829C684.004 389.828 684.231 382.907 684.231 382.907L690.338 379.763L689.603 378.951L692.517 360.062C694.444 361.126 696.571 362.116 698.776 362.902C707.545 365.994 709.015 360.746 709.015 358.312C709.015 355.878 707.748 354.839 705.518 352.405C703.313 349.971 699.41 346.37 699.41 346.37C696.471 342.669 697.206 338.256 698.524 336.608C700.096 334.631 718.698 348.879 721.257 352.403C723.791 355.927 726.383 374.83 725.217 380.61C724.025 386.391 720.471 398.041 720.471 404.305C720.473 409.985 725.637 427.638 725.637 427.638Z" fill="#FFB7D6"/>
<path d="M678.207 369.597C678.207 369.597 674.237 369.957 672.665 373.44C671.093 376.923 681.603 391.182 685.709 389.004C689.003 387.258 687.191 383.143 683.603 378.206C681.207 374.908 678.207 369.597 678.207 369.597Z" fill="#FFB7D6"/>
<path d="M672.664 373.44C672.664 373.44 672.63 373.57 672.565 373.817C672.542 374.067 672.524 374.434 672.622 374.893C672.784 375.815 673.332 377.049 674.104 378.45C674.876 379.856 675.95 381.397 677.193 382.968C678.44 384.527 679.894 386.121 681.573 387.388C682.402 388.011 683.302 388.61 684.242 388.804C684.695 388.908 685.192 388.873 685.517 388.709C685.992 388.425 686.35 388.185 686.594 387.82C687.146 387.115 687.189 386.153 687.04 385.289C686.884 384.418 686.587 383.6 686.25 382.879C685.582 381.428 684.896 380.262 684.398 379.463C683.89 378.667 683.6 378.212 683.6 378.212C683.6 378.212 683.929 378.64 684.506 379.389C685.062 380.151 685.901 381.225 686.648 382.686C687.032 383.409 687.387 384.239 687.603 385.181C687.814 386.098 687.855 387.286 687.146 388.224C686.825 388.711 686.309 389.056 685.897 389.308C685.29 389.635 684.676 389.631 684.098 389.527C682.94 389.298 681.988 388.664 681.096 388.017C679.348 386.653 677.902 385.002 676.653 383.39C675.408 381.769 674.439 380.12 673.712 378.657C672.985 377.195 672.587 375.867 672.49 374.915C672.429 374.44 672.483 374.059 672.53 373.811C672.618 373.569 672.664 373.44 672.664 373.44Z" fill="#FFB7D6"/>
<path d="M696.793 343.368C694.547 339.871 687.649 330.914 687.649 330.914L687.645 330.918C684.257 326.241 678.727 321.786 676.211 323.267C672.926 325.198 675.663 329.802 679.144 334.976C679.81 335.965 680.464 336.795 681.073 337.487C683.475 340.711 689.383 352.523 691.611 356.311C693.841 360.103 697.275 367.484 701.895 370.052C706.515 372.62 711.123 365.877 711.123 365.877C711.123 365.877 699.037 346.862 696.793 343.368Z" fill="#FFB7D6"/>
<path d="M685.124 362.663C685.124 362.663 679.233 361.086 677.167 365.416C675.1 369.748 687.925 387.93 693.138 385.303C697.321 383.196 695.248 377.888 690.873 371.593C687.951 367.391 685.124 362.663 685.124 362.663Z" fill="#FFB7D6"/>
<path d="M677.169 365.421C677.169 365.421 677.121 365.584 677.033 365.89C676.993 366.203 676.956 366.667 677.064 367.248C677.236 368.417 677.872 369.995 678.804 371.785C679.732 373.58 681.032 375.559 682.553 377.573C684.084 379.572 685.869 381.624 687.961 383.269C688.995 384.077 690.124 384.85 691.33 385.114C691.915 385.25 692.543 385.213 693.002 384.98C693.597 384.637 694.064 384.334 694.391 383.855C695.118 382.944 695.187 381.704 695.03 380.605C694.86 379.491 694.514 378.451 694.11 377.53C693.316 375.677 692.471 374.199 691.86 373.186C691.249 372.169 690.877 371.6 690.877 371.6C690.877 371.6 691.286 372.14 691.97 373.113C692.64 374.093 693.641 375.482 694.516 377.349C694.965 378.273 695.369 379.33 695.597 380.514C695.812 381.669 695.824 383.127 694.939 384.263C694.549 384.85 693.901 385.276 693.373 385.585C692.66 385.966 691.891 385.975 691.182 385.833C689.756 385.53 688.576 384.718 687.476 383.886C685.319 382.14 683.54 380.035 682.009 377.981C680.486 375.916 679.292 373.833 678.41 371.982C677.527 370.131 677.042 368.462 676.936 367.266C676.867 366.668 676.94 366.193 677.003 365.88C677.109 365.579 677.169 365.421 677.169 365.421Z" fill="#FFB7D6"/>
<path d="M691.47 355.026C691.47 355.026 685.41 353.887 683.378 358.749C681.347 363.613 696.405 382.861 701.982 379.696C706.457 377.157 702.749 371.282 697.605 364.615C694.171 360.162 691.47 355.026 691.47 355.026Z" fill="#FFB7D6"/>
<path d="M683.379 358.747C683.379 358.747 683.336 358.93 683.253 359.271C683.225 359.62 683.208 360.135 683.361 360.773C683.613 362.056 684.4 363.771 685.528 365.698C686.649 367.636 688.202 369.751 689.995 371.895C691.801 374.018 693.896 376.186 696.313 377.873C697.505 378.716 698.819 379.459 700.176 379.65C700.852 379.725 701.494 379.603 702.02 379.239C702.686 378.84 703.019 378.403 703.346 377.831C703.858 376.663 703.628 375.291 703.238 374.114C702.832 372.922 702.284 371.838 701.729 370.868C700.61 368.931 699.556 367.372 698.801 366.298C698.041 365.225 697.607 364.612 697.607 364.612C697.607 364.612 698.08 365.196 698.907 366.219C699.715 367.255 700.915 368.71 702.111 370.641C702.708 371.605 703.309 372.687 703.782 373.925C704.225 375.137 704.595 376.653 703.969 378.119C703.646 378.791 703.019 379.481 702.43 379.82C701.77 380.299 700.891 380.47 700.099 380.382C698.504 380.169 697.125 379.38 695.868 378.519C693.373 376.732 691.285 374.51 689.473 372.332C687.676 370.137 686.226 367.912 685.146 365.917C684.063 363.927 683.422 362.111 683.235 360.799C683.123 360.144 683.174 359.614 683.225 359.265C683.324 358.926 683.379 358.747 683.379 358.747Z" fill="#FFB7D6"/>
<path d="M776.296 534.843H756.656L755.33 521.311C756.14 518.855 757.123 516.129 758.203 513.181C759.43 509.816 760.829 506.182 762.401 502.351C767.04 510.898 774.627 525.757 776.296 534.843Z" fill="#B5A7E9"/>
<path d="M771.519 534.835C771.519 534.835 763.82 509.993 753.796 484.049C747.802 468.536 724.271 417.379 724.271 417.379C724.271 417.379 714.795 418.835 709.44 419.949C704.204 421.037 695.779 424.586 695.779 424.586C695.779 424.586 703.715 474.326 704.82 491.408C705.894 507.997 710.835 534.833 710.835 534.833H771.519V534.835Z" fill="#B5A7E9"/>
<path d="M805.756 534.835C805.756 534.835 813.53 499.838 821.304 485.512C821.304 485.512 817.622 520.304 817.212 534.835H805.756Z" fill="#8F80C7"/>
<path d="M975.412 534.835C975.412 534.835 971.878 512.119 972.287 501.886L968.195 534.835H975.412Z" fill="#8F80C7"/>
<path d="M927.081 252.425C927.081 252.425 923.676 266.846 918.119 269.396C912.559 271.946 907.98 268.7 905.173 272.177C902.366 275.654 900.514 283.764 894.954 282.142C889.394 280.52 884.53 278.626 881.983 282.353C879.435 286.08 878.507 296.508 866.915 297.204C857.693 297.757 871.559 274.262 871.559 274.262C871.559 274.262 879.666 261.335 880.824 260.383C881.983 259.431 889.568 250.365 890.019 250.133C890.47 249.9 900.547 247.403 902.373 247.635C904.2 247.868 916.273 247.635 916.273 247.635L927.081 252.425Z" fill="#1C056D"/>
<path d="M983.659 380.831C988.623 377.441 993.23 372.155 996.91 367.421C999.686 363.85 999.384 360.349 998.206 356.185C997.193 352.606 996.169 349.397 997.871 345.781C998.87 343.658 1000.37 341.805 1001.28 339.635C1003.15 335.169 1002.22 330.496 1000.26 326.231C997.686 320.658 993.172 316.079 991.216 310.204C989.258 304.325 991.289 298.284 990.225 292.324C988.982 285.359 983.011 279.209 977.033 275.985C976.391 275.638 975.605 276.533 976.218 277.043C982.402 282.207 988.298 287.379 988.647 295.716C988.858 300.757 987.918 305.763 989.54 310.665C991.055 315.24 994.104 319.043 996.598 323.095C1000.1 328.784 1002.13 334.795 998.697 341.001C996.874 344.293 994.93 347.07 995.273 350.996C995.795 356.983 999.707 361.605 995.072 367.108C991.257 371.635 986.547 375.59 983.641 380.813C983.637 380.823 983.649 380.837 983.659 380.831Z" fill="#1C056D"/>
<path d="M863.785 281.594C859.11 280.492 854.514 283.435 851.74 287.069C850.037 289.3 849.194 291.821 848.842 294.582C848.339 298.506 849.226 302.773 846.785 306.195C844.953 308.765 841.808 309.927 839.826 312.361C838.329 314.202 837.773 316.374 837.578 318.706C837.011 325.503 839.653 332.461 835.902 338.73C835.663 339.128 836.215 339.556 836.544 339.227C840.344 335.403 839.966 330.509 839.519 325.503C839.279 322.819 838.989 319.904 839.545 317.237C840.348 313.388 843.181 311.952 845.973 309.677C850.008 306.39 850.593 301.975 851.117 297.071C851.531 293.212 852.24 289.791 855.004 286.874C857.41 284.335 860.621 283.157 863.785 281.874C863.905 281.822 863.937 281.629 863.785 281.594Z" fill="#1C056D"/>
<path d="M922.902 269.051C918.858 265.86 911.88 268.042 908.255 271.036C903.725 274.775 902.675 281.328 897.675 284.615C892.354 288.114 889.276 284.444 884.002 282.729C880.296 281.525 875.986 282.368 872.991 284.852C872.601 285.175 873.1 285.66 873.488 285.494C875.091 284.806 876.868 284.379 878.59 284.148C882.942 283.569 885.405 285.831 889.196 287.302C891.873 288.34 894.066 288.255 896.686 287.213C900.644 285.64 902.843 281.941 905.179 278.636C906.958 276.121 908.757 273.491 911.432 271.858C914.884 269.751 918.872 269.469 922.8 269.295C922.91 269.291 923.007 269.134 922.902 269.051Z" fill="#1C056D"/>
<path d="M958.861 428.103C955.017 432.209 951.731 436.775 947.432 440.447C943.201 444.06 938.283 446.949 933.155 449.095C925.152 452.448 916.762 454.397 908.091 454.712C899.426 455.028 892.911 454.17 885.194 449.312C874.68 442.692 870.505 431.738 869.321 419.782C869.254 419.114 868.328 419.104 868.275 419.782C866.888 437.434 879.162 452.635 896.247 456.429C907.262 458.873 921.37 456.906 931.748 453.106C943.013 448.983 955.721 440.431 959.17 428.283C959.22 428.109 958.989 427.967 958.861 428.103Z" fill="#8F80C7"/>
<path d="M1046.43 724.276H706.719L663.31 531.191C661.83 524.614 666.83 518.36 673.57 518.36H1079.58C1086.32 518.36 1091.32 524.612 1089.84 531.191L1046.43 724.276Z" fill="#83CDF2"/>
<path d="M1089.83 531.185L1046.43 724.28H706.712L663.312 531.185C661.825 524.622 666.825 518.354 673.573 518.354H1079.57C1086.32 518.354 1091.32 524.62 1089.83 531.185Z" fill="#6880E4"/>
<path d="M1082.06 531.185L1038.65 724.28H706.712L663.312 531.185C661.825 524.622 666.825 518.354 673.573 518.354H1071.8C1078.53 518.354 1083.53 524.62 1082.06 531.185Z" fill="#6880E4"/>
<path d="M1052.89 724.276H700.258C696.994 724.276 694.348 721.629 694.348 718.364V715.455C694.348 712.189 696.994 709.542 700.258 709.542H1052.89C1056.16 709.542 1058.8 712.189 1058.8 715.455V718.364C1058.8 721.629 1056.16 724.276 1052.89 724.276Z" fill="#4359B7"/>
<path d="M876.572 628.845C890.522 628.845 901.83 619.879 901.83 608.82C901.83 597.762 890.522 588.796 876.572 588.796C862.621 588.796 851.312 597.762 851.312 608.82C851.312 619.879 862.621 628.845 876.572 628.845Z" fill="white"/>
<path d="M1242.99 743.175H54.3214C49.3768 743.175 45.3672 739.164 45.3672 734.217C45.3672 729.272 49.3768 725.26 54.3214 725.26H1242.99C1247.94 725.26 1251.95 729.272 1251.95 734.217C1251.94 739.166 1247.94 743.175 1242.99 743.175Z" fill="#84B4FE" stroke="#84B4FE"/>
<g opacity="0.6">
<path d="M1089.36 284.281L1065.02 297.263L1077.19 265.62" fill="url(#paint0_linear_668_857)"/>
<path d="M1164.7 248.011C1167 219.693 1145.92 194.868 1117.61 192.564C1089.31 190.26 1064.49 211.348 1062.19 239.666C1059.88 267.984 1080.97 292.809 1109.27 295.113C1137.58 297.417 1162.39 276.328 1164.7 248.011Z" fill="url(#paint1_linear_668_857)"/>
</g>
<path d="M1141.95 250.539C1142.52 248.408 1142.82 246.171 1142.82 243.863C1142.82 241.717 1142.56 239.636 1142.07 237.643L1137.34 238.167C1136.76 235.753 1135.82 233.475 1134.59 231.391L1138.34 228.39C1137.24 226.484 1135.87 224.69 1134.24 223.058C1133.6 222.422 1132.94 221.825 1132.26 221.271C1132.08 221.121 1131.9 220.981 1131.72 220.839C1130.94 220.24 1130.13 219.69 1129.3 219.191L1126.31 222.944C1126.07 222.798 1125.83 222.654 1125.59 222.514C1125.32 222.357 1125.04 222.205 1124.76 222.059C1123.14 221.206 1121.41 220.53 1119.6 220.055L1120.13 215.287C1118 214.72 1115.76 214.416 1113.46 214.416C1111.32 214.416 1109.24 214.676 1107.24 215.173L1107.77 219.919C1105.35 220.488 1103.07 221.415 1100.99 222.641L1098 218.9C1096.09 220.002 1094.29 221.369 1092.66 222.997C1091.15 224.517 1089.86 226.174 1088.8 227.93L1092.52 230.907C1091.24 232.968 1090.26 235.231 1089.63 237.637L1084.89 237.107C1084.32 239.238 1084.02 241.474 1084.02 243.78C1084.02 245.925 1084.28 248.01 1084.77 250.003L1089.48 249.476C1090.06 251.899 1090.99 254.185 1092.22 256.274L1088.5 259.25C1089.6 261.16 1090.97 262.955 1092.6 264.587C1094.12 266.105 1095.78 267.392 1097.53 268.452L1100.49 264.751C1102.55 266.034 1104.82 267.023 1107.23 267.654L1106.7 272.357C1108.83 272.926 1111.07 273.23 1113.37 273.23C1115.52 273.23 1117.6 272.967 1119.59 272.473L1119.07 267.794C1121.5 267.22 1123.79 266.286 1125.88 265.05L1128.84 268.746C1130.75 267.644 1132.54 266.276 1134.18 264.644C1135.69 263.127 1136.97 261.469 1138.03 259.711L1134.34 256.759C1135.62 254.693 1136.6 252.423 1137.22 250.008L1141.95 250.539ZM1128.52 244.35C1128.27 252.263 1121.83 258.71 1113.92 258.962C1105.18 259.24 1098.04 252.1 1098.32 243.363C1098.58 235.449 1105.02 229.003 1112.93 228.752C1121.66 228.472 1128.8 235.613 1128.52 244.35Z" fill="white"/>
<g opacity="0.6">
<path d="M240.66 279.789L258.998 289.574L249.829 265.727" fill="url(#paint2_linear_668_857)"/>
<path d="M222.521 288.072C243.927 288.072 261.279 270.713 261.279 249.299C261.279 227.885 243.927 210.525 222.521 210.525C201.116 210.525 183.764 227.885 183.764 249.299C183.764 270.713 201.116 288.072 222.521 288.072Z" fill="url(#paint3_linear_668_857)"/>
</g>
<path d="M205.075 243.85C207.942 243.94 210.276 246.276 210.369 249.145C210.471 252.311 207.883 254.9 204.719 254.798C201.852 254.707 199.517 252.37 199.425 249.502C199.322 246.337 201.909 243.749 205.075 243.85Z" fill="white"/>
<path d="M223.753 243.85C226.619 243.94 228.954 246.276 229.047 249.145C229.149 252.311 226.56 254.9 223.396 254.798C220.53 254.707 218.195 252.37 218.105 249.502C218.002 246.337 220.589 243.749 223.753 243.85Z" fill="white"/>
<path d="M242.429 243.85C245.295 243.94 247.63 246.276 247.722 249.145C247.823 252.311 245.236 254.9 242.072 254.798C239.206 254.707 236.871 252.37 236.78 249.502C236.678 246.337 239.265 243.749 242.429 243.85Z" fill="white"/>
<defs>
<linearGradient id="paint0_linear_668_857" x1="1065.02" y1="281.441" x2="1089.36" y2="281.441" gradientUnits="userSpaceOnUse">
<stop stop-color="#FB9004"/>
<stop offset="1" stop-color="#FC067D"/>
</linearGradient>
<linearGradient id="paint1_linear_668_857" x1="1109.27" y1="295.113" x2="1117.62" y2="192.564" gradientUnits="userSpaceOnUse">
<stop stop-color="#FB9004"/>
<stop offset="1" stop-color="#FC067D"/>
</linearGradient>
<linearGradient id="paint2_linear_668_857" x1="240.66" y1="277.651" x2="258.998" y2="277.651" gradientUnits="userSpaceOnUse">
<stop stop-color="#FB9004"/>
<stop offset="1" stop-color="#FC067D"/>
</linearGradient>
<linearGradient id="paint3_linear_668_857" x1="183.764" y1="249.299" x2="261.279" y2="249.299" gradientUnits="userSpaceOnUse">
<stop stop-color="#FB9004"/>
<stop offset="1" stop-color="#FC067D"/>
</linearGradient>
</defs>
</svg>
