<svg width="1184" height="656" viewBox="0 0 1184 656" fill="none" xmlns="http://www.w3.org/2000/svg">
<path d="M591.711 655.88C918.028 655.88 1182.56 647.546 1182.56 637.263C1182.56 626.982 918.028 618.646 591.711 618.646C265.393 618.646 0.861328 626.982 0.861328 637.263C0.861328 647.546 265.393 655.88 591.711 655.88Z" fill="#D4DFFF"/>
<path opacity="0.16" d="M1176.13 509.222H14.6525C14.6525 509.222 12.3516 240.04 85.9521 154.912C159.55 69.7865 325.15 286.052 389.547 228.534C453.947 171.017 463.146 16.87 585.044 0.763281C706.942 -15.3412 725.342 228.534 798.941 246.938C872.539 265.342 948.404 122.701 1024.34 122.701C1173.83 122.703 1176.13 509.222 1176.13 509.222Z" fill="#B5A7E9"/>
<path d="M1121.92 441.585C1119.6 431.115 1113.58 413.43 1099.87 414.928C1095.89 415.363 1092.63 418.43 1090.68 421.923C1086.18 429.987 1083.49 453.901 1070.29 453.196C1057.85 452.524 1067.27 437.738 1071.02 433.287C1075.77 427.65 1081.33 422.328 1080.83 414.534C1080.06 402.511 1069.16 393.909 1069.42 381.562C1069.69 368.178 1086.09 364.047 1092.6 353.929C1118.07 314.327 1024.96 270.048 1019.42 320.187C1017.9 333.965 1026.75 346.442 1027.64 359.952C1028.69 375.714 1018.02 379.323 1008.18 388.921C1000.26 396.645 1001.53 405.693 1000.18 415.589C999.099 423.467 988.821 439.243 984.884 423.098C980.961 407.002 998.846 400.451 1000.35 386.615C1002.03 371.126 977.525 361.582 966.366 369.897C956.433 377.299 956.578 392.394 958.104 403.405C959.069 410.354 978.033 438.582 960.954 437.881C952.446 437.532 945.114 440.935 948.147 450.957C951.047 460.541 961.157 463.244 968.745 468.002C974.063 471.335 983.447 478.484 976.312 484.869C976.722 484.502 977.133 484.135 977.543 483.768C976.149 485.525 974.978 487.328 974.034 489.15C970.303 496.346 970.083 503.86 973.143 510.348H1000.46C1002.79 502.131 1003.7 493.603 1002 485.38C999.838 474.512 994.408 464.612 988.539 455.199L986.321 451.655L984.15 447.901L983.067 446.022L982.158 444.045C981.563 442.722 980.945 441.41 980.388 440.071C978.398 434.606 976.975 428.926 976.402 423.136C975.345 411.577 977.107 399.793 981.686 389.425C980.032 394.852 978.98 400.431 978.608 406.051C978.17 411.653 978.295 417.279 979.07 422.789C979.929 428.288 981.355 433.65 983.403 438.761C985.623 443.866 988.253 448.431 991.435 453.234C994.399 458.07 997.241 463.02 999.607 468.27C1001.9 473.541 1003.82 479.086 1004.65 484.89C1005.56 490.673 1005.25 496.635 1003.98 502.264C1003.31 505.035 1002.44 507.724 1001.42 510.346H1031.63C1031.38 510.026 1031.12 509.71 1030.88 509.377C1028.55 506.025 1026.62 502.355 1025.16 498.473C1022.39 490.626 1021.55 482.16 1021.9 473.87C1022.65 457.183 1027.57 441.24 1032.8 425.805L1040.95 402.778C1042.27 398.947 1043.51 395.1 1044.54 391.223C1045.54 387.329 1046.34 383.375 1047.01 379.39C1048.27 371.404 1048.72 363.268 1048.59 355.127C1048.54 346.975 1047.78 338.832 1046.84 330.698C1048.55 338.698 1049.66 346.843 1050.27 355.053C1050.76 363.27 1050.6 371.556 1049.63 379.782C1048.72 388.008 1046.6 396.13 1044.04 403.893C1041.48 411.68 1038.66 419.319 1036.06 427.016C1033.38 434.684 1030.9 442.406 1028.84 450.231C1026.77 458.047 1025.22 466.002 1024.56 474.033C1023.91 482.051 1024.42 490.211 1026.76 497.886C1027.94 501.715 1029.57 505.394 1031.64 508.828C1031.96 509.343 1032.31 509.842 1032.66 510.341H1082.12C1083.96 507.37 1085.68 504.337 1087.27 501.234C1090.24 495.325 1092.89 489.249 1094.85 482.917C1096.86 476.621 1098.51 470.169 1099.47 463.568C1100.11 460.286 1100.34 456.95 1100.73 453.608C1101.11 450.263 1101.08 446.893 1101.42 443.485C1101.85 446.842 1102.33 450.24 1102.43 453.655C1102.44 457.067 1102.57 460.512 1102.15 463.92C1101.72 470.782 1100.15 477.53 1098.12 484.072C1096.03 490.608 1093.14 496.857 1089.59 502.646C1087.96 505.317 1086.17 507.894 1084.24 510.339H1097.52C1117.12 494.217 1127.98 468.975 1121.92 441.585Z" fill="url(#paint0_linear_668_951)"/>
<path d="M103.087 342.954C101.6 336.947 98.3774 328.734 90.0223 331.587C72.9203 337.424 61.2907 422.594 61.6242 508.752H101.016C102.086 508.752 108.698 433.014 109.107 426.145C110.766 398.344 109.806 370.089 103.087 342.954ZM90.5706 423.154C89.0151 447.685 87.0723 472.195 83.583 496.608C83.0638 471.951 84.0933 447.388 85.5079 422.847C87.0746 398.315 89.0173 373.808 92.4955 349.393C93.0013 374.05 91.974 398.613 90.5706 423.154Z" fill="url(#paint1_linear_668_951)"/>
<path d="M38.3569 386.699C27.5979 384.761 35.1719 482.072 38.3793 508.751H69.1655C67.9256 488.433 60.8193 390.75 38.3569 386.699ZM46.7792 449.989C45.7116 442.153 44.6977 434.308 43.9814 426.42C43.2317 418.537 42.6564 410.631 42.5781 402.652C44.7357 410.333 46.3987 418.084 47.8871 425.86C49.4068 433.631 50.6333 441.447 51.8017 449.268C52.876 457.104 53.8877 464.949 54.6083 472.835C55.3581 480.718 55.9311 488.626 56.005 496.603C53.8407 488.924 52.1754 481.172 50.687 473.394C49.1696 465.625 47.943 457.812 46.7792 449.989Z" fill="url(#paint2_linear_668_951)"/>
<path d="M151.859 392.979C135.256 381.962 101.023 479.518 90.2305 508.749H132.08C135.491 503.895 166.519 402.71 151.859 392.979ZM140.681 430.284C138.888 437.921 136.811 445.475 134.678 453.014C132.456 460.525 130.171 468.019 127.601 475.432C125.063 482.851 122.35 490.222 119.157 497.454C120.323 489.635 121.974 481.958 123.799 474.33C125.594 466.693 127.671 459.139 129.808 451.603C132.038 444.094 134.323 436.6 136.894 429.187C139.435 421.767 142.143 414.397 145.332 407.165C144.157 414.977 142.503 422.654 140.681 430.284Z" fill="url(#paint3_linear_668_951)"/>
<path d="M881.577 147.051C881.273 147.362 881.024 147.707 880.872 148.007C880.512 148.721 880.382 149.525 880.297 150.32C879.777 155.171 881.069 159.819 882.029 164.51C883.083 169.666 883.408 174.972 882.971 180.218C882.857 181.581 882.781 183.176 883.817 184.069C884.829 184.94 886.479 184.622 887.454 183.711C888.43 182.799 888.88 181.47 889.225 180.178C891.526 171.562 890.673 162.354 888.336 153.747C887.819 151.842 887.163 149.863 885.787 148.392C885.234 147.801 884.775 147.033 884.196 146.487C883.394 145.734 882.32 146.292 881.577 147.051Z" fill="#FFB7D6"/>
<path d="M883.952 189.974C885.27 189.974 886.591 189.997 887.909 190.008C889.861 190.026 891.685 190.366 893.637 190.346C893.883 190.344 894.16 190.328 894.319 190.14C894.447 189.992 894.458 189.78 894.462 189.585C894.505 187.975 894.514 186.361 894.595 184.751C894.655 183.54 895.089 182.338 895.248 181.113C895.637 178.104 895.872 175.068 895.794 172.032C895.55 162.714 892.271 153.498 886.573 146.121C886.083 145.487 885.49 144.818 884.693 144.737C883.045 144.572 883.104 147.444 883.229 148.438C883.768 152.712 885.523 156.738 886.347 160.967C887.652 167.682 886.642 175.254 882.801 180.967C882.24 181.802 880.879 183.007 880.704 183.979C880.519 185.011 881.06 186.645 881.233 187.686C881.447 189.012 882.616 189.963 883.952 189.974Z" fill="#FFB7D6"/>
<path d="M892.582 188.724L892.387 171.026C892.387 171.026 886.263 163.635 883.734 162.954C881.207 162.274 880.137 166.163 881.693 169.568C883.248 172.971 884.318 174.82 884.318 174.82C884.318 174.82 877.707 180.265 881.111 189.602" fill="#FFB7D6"/>
<path d="M890.011 281.043C884.454 279.308 883.565 272.157 883.091 267.251C882.393 260.035 878.919 188.522 879.917 188.461L896.442 187.449C896.442 187.449 910.079 255.072 908.199 271.899C907.371 279.29 897.442 283.363 890.011 281.043Z" fill="#8F80C7"/>
<path d="M971.101 295.717C976.623 299.5 980.618 304.254 980.535 310.554C980.374 323.103 966.86 321.784 958.203 319.225C943.088 314.756 928.976 306.141 915.026 298.916C904.672 293.554 891.281 286.927 885.231 276.417C881.878 270.596 882.87 264.191 890.386 263.588C898.654 262.926 906.234 266.752 913.714 269.68C923.719 273.596 933.538 277.96 943.323 282.388C952.511 286.548 962.753 289.999 971.101 295.717Z" fill="#8F80C7"/>
<path d="M663.007 502.465H526.254V513.706H663.007V502.465Z" fill="#517FC5"/>
<path d="M605.507 523.17H583.756V529.974H605.507V523.17Z" fill="#517FC5"/>
<path d="M598.955 529.975H590.307V571.26H598.955V529.975Z" fill="#517FC5"/>
<path d="M600.174 571.258H589.086V619.106H600.174V571.258Z" fill="#517FC5"/>
<path d="M600.286 513.704H588.977H575.004L580.68 523.168H588.977H600.286H608.581L614.259 513.704H600.286Z" fill="#517FC5"/>
<path d="M587.853 463.604C587.911 463.599 587.974 463.597 588.034 463.595C588.493 463.57 588.959 463.548 589.406 463.528C590.152 463.497 590.978 463.472 591.873 463.447C592.063 463.443 592.24 463.443 592.426 463.438C592.86 463.429 593.325 463.425 593.789 463.42V463.409C594.066 463.409 594.348 463.409 594.633 463.411C594.917 463.409 595.199 463.409 595.476 463.409V463.42C595.94 463.425 596.403 463.429 596.837 463.438C597.023 463.443 597.202 463.443 597.39 463.447C598.287 463.472 599.113 463.497 599.856 463.528C600.304 463.548 600.767 463.57 601.228 463.595C601.289 463.597 601.349 463.599 601.41 463.604C623.888 464.721 669.272 470.663 660.715 502.462H595.474H593.784H528.543C519.991 470.663 565.373 464.723 587.853 463.604Z" fill="#D0DCF8"/>
<path opacity="0.3" d="M640.188 481.197C632.858 469.49 612.014 464.421 612.014 464.421C635.564 466.902 668.071 475.127 660.717 502.464H642.198C644.199 498.759 645.237 489.262 640.188 481.197Z" fill="#D0DCF8"/>
<path d="M591.516 605.625C571.475 614.299 543.028 627.586 539.23 632.109C536.589 635.257 536.034 638.998 536.094 641.797L591.516 616.596V605.625Z" fill="#517FC5"/>
<path d="M551.914 642.287C551.914 646.064 548.852 649.127 545.076 649.127C541.3 649.127 538.238 646.064 538.238 642.287C538.238 638.51 541.3 635.447 545.076 635.447C548.852 635.447 551.914 638.51 551.914 642.287Z" fill="#517FC5"/>
<path d="M597.746 616.598L653.168 641.799C653.226 638.998 652.673 635.257 650.032 632.111C646.234 627.588 617.787 614.3 597.748 605.627V616.598H597.746Z" fill="#517FC5"/>
<path d="M637.35 642.287C637.35 646.064 640.411 649.127 644.187 649.127C647.963 649.127 651.025 646.064 651.025 642.287C651.025 638.51 647.963 635.447 644.187 635.447C640.411 635.447 637.35 638.51 637.35 642.287Z" fill="#517FC5"/>
<path d="M769.316 377.081L856.999 376.452L856.957 370.492L769.273 371.121L769.316 377.081Z" fill="#6880E4"/>
<path d="M708.434 299.21L769.413 377.081L774.102 373.403L713.123 295.531L708.434 299.21Z" fill="#6880E4"/>
<path d="M869.262 602.969C868.805 598.718 863.12 594.5 860.253 591.547C857.657 588.869 853.294 587.617 853.178 585.383C852.836 578.888 855.998 566.715 855.998 566.715L834.921 566.623C834.921 566.623 835.543 582.757 831.68 591.809C827.808 600.883 815.051 624.817 815.051 624.817C815.051 624.817 799.464 639.885 798.826 640.917C798.188 641.949 796.344 644.154 795.469 648.316C795.469 648.316 796.7 654.155 821.277 642.15C821.277 642.15 832.341 637.545 845.904 624.579C849.008 621.996 852.115 619.41 855.219 616.826C858.407 614.173 868.389 606.744 869.011 604.866C869.251 604.143 869.32 603.525 869.262 602.969Z" fill="#FFB7D6"/>
<path d="M855.219 616.83C852.115 619.416 849.008 622 845.904 624.584C832.341 637.549 821.277 642.155 821.277 642.155C796.702 654.16 795.469 648.321 795.469 648.321C796.344 644.161 798.19 641.955 798.826 640.921C799.464 639.889 815.051 624.821 815.051 624.821L815.095 624.725C821.935 628.2 827.314 628.329 833.31 621.823C842.885 611.435 847.605 599.163 860.669 591.956C863.63 594.885 868.823 598.908 869.262 602.974C869.322 603.529 869.253 604.147 869.011 604.872C868.389 606.749 858.407 614.177 855.219 616.83Z" fill="#517FC4"/>
<path d="M839.088 430.15C862.479 421.85 887.713 418.512 912.368 415.812C924.614 414.471 938.775 411.032 951.107 410.548C974.451 409.63 1001.8 419.878 998.581 447.143C998.174 450.594 997.068 453.927 995.336 456.97C974.944 492.777 918.434 477.993 886.799 471.787C873.064 469.091 859.348 466.114 845.812 462.592C828.486 446.799 839.088 430.15 839.088 430.15Z" fill="#3A376B"/>
<path d="M839.087 430.148C839.087 430.148 833.611 429.64 833.234 443.736C832.858 457.832 834.031 572.187 834.031 572.187L854.672 575.281C854.672 575.281 877.915 493.207 864.368 443.725C864.368 443.725 859.421 421.779 839.087 430.148Z" fill="#3A376B"/>
<path d="M1016.31 327.227C1016.54 326.639 1016.89 326.124 1017.3 325.676C996.782 318.993 989.47 349.33 987.057 364.552C987.05 364.593 987.044 364.635 987.037 364.675C986.985 364.991 986.936 365.309 986.889 365.614C986.813 366.124 986.733 366.69 986.65 367.306C986.632 367.436 986.618 367.557 986.603 367.687C986.565 367.985 986.527 368.305 986.489 368.62H986.482C986.462 368.813 986.439 369.005 986.419 369.2C986.397 369.395 986.377 369.59 986.354 369.782H986.363C986.332 370.1 986.301 370.418 986.274 370.718C986.263 370.848 986.249 370.969 986.238 371.101C986.186 371.719 986.144 372.288 986.108 372.8C986.088 373.109 986.07 373.43 986.05 373.747C986.048 373.79 986.043 373.833 986.043 373.873C985.157 388.912 992.785 419.338 1013.59 417.417C996.527 378.557 1015.45 329.406 1016.31 327.227Z" fill="#D0DCF8"/>
<path d="M1025.99 418.759C1006.11 383.229 1026.08 331.305 1026.28 330.785C1027.31 328.164 1025.91 325.242 1023.16 324.259C1021.03 323.498 1018.72 324.136 1017.3 325.676C1016.89 326.124 1016.55 326.639 1016.31 327.228C1015.45 329.406 996.526 378.555 1013.59 417.42C1014.5 419.486 1015.48 421.535 1016.6 423.534C1031.2 449.627 1031.74 488.387 1026.06 498.831C1025.16 500.479 1023.26 503.289 1020.63 503.602C1017.72 503.949 1015.65 506.486 1016.02 509.264C1016.35 511.83 1018.64 513.704 1021.29 513.704C1021.51 513.704 1021.73 513.691 1021.96 513.664C1027.49 513.008 1032.3 509.396 1035.51 503.499C1042.66 490.348 1042.5 448.243 1025.99 418.759Z" fill="#517FC5"/>
<path d="M1022.92 502.467H886.164V513.708H1022.92V502.467Z" fill="#517FC5"/>
<path d="M965.417 523.172H943.666V529.976H965.417V523.172Z" fill="#517FC5"/>
<path d="M958.865 529.977H950.215V571.262H958.865V529.977Z" fill="#517FC5"/>
<path d="M960.084 571.26H948.994V619.107H960.084V571.26Z" fill="#517FC5"/>
<path d="M960.195 513.706H948.885H934.912L940.59 523.17H948.885H960.195H968.492L974.168 513.706H960.195Z" fill="#517FC5"/>
<path d="M947.761 463.606C947.819 463.601 947.882 463.599 947.943 463.597C948.404 463.572 948.867 463.55 949.315 463.53C950.06 463.498 950.886 463.474 951.781 463.449C951.969 463.445 952.148 463.445 952.334 463.44C952.768 463.431 953.234 463.427 953.695 463.422V463.411C953.974 463.411 954.257 463.411 954.539 463.413C954.823 463.411 955.105 463.411 955.382 463.411V463.422C955.843 463.427 956.309 463.431 956.745 463.44C956.931 463.445 957.11 463.445 957.298 463.449C958.196 463.474 959.022 463.498 959.765 463.53C960.212 463.55 960.676 463.572 961.137 463.597C961.197 463.599 961.258 463.601 961.318 463.606C983.798 464.723 1029.18 470.665 1020.62 502.464H955.382H953.692H888.452C879.899 470.665 925.281 464.725 947.761 463.606Z" fill="#D0DCF8"/>
<path opacity="0.3" d="M1000.1 481.2C992.768 469.493 971.924 464.424 971.924 464.424C995.474 466.905 1027.98 475.13 1020.63 502.467H1002.11C1004.11 498.762 1005.15 489.265 1000.1 481.2Z" fill="#D0DCF8"/>
<path d="M951.426 605.629C931.386 614.302 902.938 627.59 899.14 632.113C896.499 635.261 895.944 639.002 896.004 641.801L951.426 616.6V605.629Z" fill="#517FC5"/>
<path d="M911.824 642.291C911.824 646.068 908.762 649.131 904.986 649.131C901.21 649.131 898.148 646.068 898.148 642.291C898.148 638.514 901.21 635.451 904.986 635.451C908.762 635.451 911.824 638.514 911.824 642.291Z" fill="#517FC5"/>
<path d="M957.654 616.602L1013.08 641.803C1013.13 639.002 1012.58 635.261 1009.94 632.115C1006.14 627.592 977.695 614.304 957.654 605.631V616.602Z" fill="#517FC5"/>
<path d="M997.258 642.291C997.258 646.068 1000.32 649.131 1004.1 649.131C1007.87 649.131 1010.93 646.068 1010.93 642.291C1010.93 638.514 1007.87 635.451 1004.1 635.451C1000.32 635.451 997.258 638.514 997.258 642.291Z" fill="#517FC5"/>
<path d="M997.848 201.757C1017.15 206.333 1026.04 226.255 1015.48 243.145C1012.7 247.605 1008.94 251.322 1005.97 255.643C999.531 265.01 1002.42 273.758 1011.04 280.15C1018.24 285.485 1022.68 293.932 1022.58 302.942C1022.45 313.899 1015.77 320.967 1009.1 328.842C1005.82 332.71 1002.41 337.455 1002.75 342.77C1002.97 346.202 1004.61 349.52 1007.21 351.775C998.578 361.964 977.281 360.009 970.549 348.439C967.346 342.935 968.608 336.794 969.416 330.839C970.363 323.858 969.347 316.814 966.742 310.261C964.291 304.097 961.068 298.446 962.221 291.503C963.076 286.352 965.303 281.41 964.857 276.059C964.396 270.511 960.497 265.906 956.529 262.001C949.521 255.105 943.261 247.603 943.351 237.19C943.447 225.982 951.126 216.592 959.45 209.896C969.34 201.938 984.753 198.654 997.848 201.757Z" fill="#1C056D"/>
<path d="M930.671 200.923C936.766 193.098 948.073 190.49 956.992 189.915C969.627 189.1 983.902 193.004 991.791 204.078C1006.12 224.184 985.592 260.45 963.604 262.706C960.922 262.982 958.062 262.742 955.723 261.271C952.838 259.455 952.162 256.272 950.452 253.406C949.564 251.917 948.409 250.645 947.231 249.418C943.01 245.032 938.373 241.119 934.384 236.484C930.396 231.852 927.018 226.333 925.991 220.032C924.809 212.798 926.719 205.997 930.671 200.923Z" fill="#1C056D"/>
<path d="M959.078 257.958C961.202 256.822 963.277 255.598 965.316 254.319C966.247 262.507 968.509 270.41 970.522 278.367C970.564 280.311 970.486 282.057 970.242 283.443C970.242 283.443 962.918 296.881 945.156 289.517C945.156 289.517 950.991 278.379 949.322 264.983C952.455 262.464 955.571 259.975 959.078 257.958Z" fill="#FFB7D6"/>
<path d="M931.294 209.931C931.294 209.931 918.59 252.853 931.911 268.085C931.911 268.085 956.182 273.227 969.453 251.217C982.718 229.206 969.576 192.644 931.294 209.931Z" fill="#FFB7D6"/>
<path d="M928.714 230.885L927.36 248.948L918.752 248.301L928.714 230.885Z" fill="#FFB7D6"/>
<path d="M969.515 235.998C974.117 234.646 978.551 231.406 981.225 226.485C983.9 221.564 984.544 214.892 982.248 209.989C980.601 206.469 977.689 204.167 974.665 202.546C969.13 199.578 963.047 198.543 957.01 197.816C951.82 197.189 940.009 201.615 935.228 205.67C925.837 213.629 961.467 238.365 969.515 235.998Z" fill="#1C056D"/>
<path d="M962.619 233.603C962.619 233.603 969.381 223.886 974.092 229.718C978.121 234.707 976.174 247.195 965.603 251.183L962.619 233.603Z" fill="#FFB7D6"/>
<path d="M963.78 575.561C961.143 572.151 953.804 571.564 949.672 570.557C945.928 569.643 941.337 570.901 940.061 569.043C936.353 563.645 932.839 551.483 932.839 551.483L913.77 562.68C913.77 562.68 922.774 576.219 924.023 586.068C925.276 595.941 926.285 623.343 926.285 623.343C926.285 623.343 920.101 644.635 920.066 645.865C920.03 647.094 919.519 649.977 920.905 654.023C920.905 654.023 925.07 658.385 940.97 634.916C940.97 634.916 948.546 625.038 954.003 606.634C955.453 602.752 956.904 598.868 958.354 594.985C959.843 591 964.966 579.273 964.545 577.327C964.386 576.575 964.124 576.006 963.78 575.561Z" fill="#FFB7D6"/>
<path d="M958.357 594.988C956.907 598.87 955.456 602.754 954.006 606.637C948.547 625.038 940.973 634.919 940.973 634.919C925.075 658.385 920.908 654.025 920.908 654.025C919.522 649.98 920.032 647.096 920.068 645.867C920.104 644.638 926.288 623.346 926.288 623.346L926.277 623.238C934.267 622.569 939.191 619.801 941.197 611C944.402 596.947 942.242 583.871 950.261 570.687C954.467 571.62 961.26 572.301 963.782 575.563C964.127 576.008 964.384 576.575 964.548 577.329C964.968 579.277 959.843 591.002 958.357 594.988Z" fill="#517FC4"/>
<path d="M846.125 443.123C846.125 443.123 840.917 445.617 847.952 457.938C854.986 470.258 915.876 567.947 915.876 567.947L936.123 559.566C936.123 559.566 914.159 476.57 876.041 441.276C876.043 441.271 860.098 425.048 846.125 443.123Z" fill="#3A376B"/>
<path d="M989.78 464.276C994.281 457.989 997.211 450.563 998.545 442.937C999.496 437.405 999.082 430.896 998.574 425.346C997.562 414.283 982.515 417.167 975.221 418.443C958.439 421.376 941.375 422.032 924.38 422.547C901.904 423.228 879.104 424.466 857.407 430.809C852.035 432.378 847.055 434.745 845.518 440.613C843.756 447.334 845.26 454.933 848.73 460.902C853.318 468.794 862.575 470.78 870.708 473.305C877.945 475.551 885.371 477.931 892.858 479.209C905.259 481.327 918.4 482.995 931.041 483.909C948.456 485.167 967.3 483.976 981.123 473.308C984.464 470.728 987.352 467.668 989.78 464.276Z" fill="#3A376B"/>
<path d="M981.807 313.886C982.096 309.793 982.192 305.699 981.948 301.604C981.407 292.552 980.169 280.184 971.344 276.987C961.688 273.487 925.767 316.329 925.168 328.356C924.807 335.586 928.749 342.242 931.533 348.925C937.838 364.056 939.438 381.109 936.063 397.151C935.183 401.331 932.932 405.563 935.414 409.344C937.227 412.105 940.819 413.88 943.821 414.955C953.158 418.298 963.425 417.165 973.271 415.989C977.093 415.533 981.028 415.04 984.379 413.146C994.746 407.282 986.85 397.724 984.168 389.772C981.071 380.583 979.562 370.951 978.696 361.317C977.257 345.269 980.684 329.82 981.807 313.886Z" fill="#FFE1DF"/>
<path d="M982.566 314.463C983.663 300.253 982.258 282.454 970.207 273.634C969.963 273.458 923.185 308.875 923.25 333.102C923.279 343.865 927.892 354.325 931.39 363.52C932.883 367.447 932.147 373.799 932.019 377.95C931.715 387.884 930.2 397.733 930.224 407.687C930.229 408.824 930.244 410.011 930.757 411.021C931.451 412.384 932.7 416.013 933.658 417.169C940.442 425.338 938.523 423.142 957.36 429.138C972.325 433.902 974.178 439.914 986.962 440.433C996.804 440.832 997.153 434.753 1001.64 430.947C1005.3 427.835 993.254 405.101 991.875 400.659C990.53 396.327 989.118 392.019 987.808 387.675C985.36 379.542 983.218 371.264 982.47 362.768C981.163 347.89 980.503 333.333 982.173 318.558C982.325 317.235 982.457 315.867 982.566 314.463Z" fill="#B5A7E9"/>
<path d="M948.287 313.402C949.176 306.766 951.62 301.057 957.28 298.292C968.554 292.782 973.465 305.445 975.081 314.329C977.901 329.84 976.569 346.323 976.406 362.038C976.285 373.7 976.401 388.645 969.749 398.783C966.063 404.4 959.901 406.399 955.978 399.958C951.663 392.874 951.66 384.38 950.904 376.38C949.892 365.683 949.364 354.947 948.907 344.212C948.48 334.134 946.945 323.435 948.287 313.402Z" fill="#8F80C7"/>
<path d="M882.829 368.719L880.794 367.327C880.705 367.264 880.611 367.208 880.515 367.157L862.419 357.67C861.636 357.258 860.7 357.245 859.903 357.635L834.724 369.913C834.285 370.125 833.911 370.452 833.638 370.855C832.546 372.467 833.401 374.673 835.292 375.129L838.249 375.844C838.773 375.969 839.323 375.942 839.831 375.761L848.435 372.716C849.068 372.492 849.742 372.496 850.366 372.743C853.809 374.097 866.049 378.729 876.455 380.391C877.775 380.601 879.046 379.793 879.476 378.528L882.829 368.719Z" fill="#FFB7D6"/>
<path d="M967.796 401.452C964.399 406.181 957.335 404.772 952.532 403.678C945.466 402.068 876.519 382.842 876.776 381.877L881.02 365.869C881.02 365.869 949.475 374.22 964.847 381.304C971.604 384.418 972.338 395.129 967.796 401.452Z" fill="#8F80C7"/>
<path d="M975.088 272.296L946.56 300.359L941.045 291.166L972.597 269.769L975.088 272.296Z" fill="white"/>
<path d="M941.046 291.165L938.525 303.542L944.553 297.013L941.046 291.165Z" fill="#8F80C7"/>
<path d="M153.73 491.924C141.718 490.457 133.898 485.601 130.491 477.485C120.99 454.863 144.65 409.89 154.569 394.471L154.74 394.205C155.362 393.237 155.131 391.957 154.211 391.267L149.869 388.01C148.851 387.246 147.401 387.508 146.711 388.578C145.129 391.037 108.1 449.183 121.775 481.75C126.668 493.411 137.056 500.286 152.654 502.192H152.66C153.876 502.339 154.979 501.462 155.106 500.244L155.724 494.34C155.849 493.151 154.997 492.081 153.811 491.935L153.73 491.924Z" fill="#517FC5"/>
<path d="M192.735 431.109H139.735C125.081 431.109 113.201 414.854 113.201 394.803V361.985C113.201 341.933 125.081 325.679 139.735 325.679H192.735C207.389 325.679 219.269 341.933 219.269 361.985V394.803C219.269 414.854 207.389 431.109 192.735 431.109Z" fill="#D0DCF8"/>
<path d="M135.982 513.706H272.736V502.465H135.982V513.706Z" fill="#517FC5"/>
<path d="M193.484 523.17H215.235V529.974H193.484V523.17Z" fill="#517FC5"/>
<path d="M200.035 571.26H208.684V529.975H200.035V571.26Z" fill="#517FC5"/>
<path d="M198.816 571.258H209.904V619.103H198.816V571.258Z" fill="#517FC5"/>
<path d="M198.703 513.704H210.015H223.988L218.31 523.168H210.015H198.703H190.408L184.732 513.704H198.703Z" fill="#517FC5"/>
<path d="M211.139 463.604C211.081 463.599 211.018 463.597 210.957 463.595C210.496 463.57 210.033 463.548 209.585 463.528C208.84 463.497 208.017 463.472 207.119 463.447C206.929 463.443 206.752 463.443 206.566 463.438C206.132 463.429 205.666 463.425 205.205 463.42V463.409C204.928 463.409 204.644 463.409 204.362 463.411C204.077 463.409 203.795 463.409 203.518 463.409V463.42C203.057 463.425 202.591 463.429 202.155 463.438C201.969 463.443 201.79 463.443 201.602 463.447C200.704 463.472 199.879 463.497 199.136 463.528C198.688 463.548 198.224 463.57 197.763 463.595C197.703 463.597 197.643 463.599 197.582 463.604C175.102 464.721 129.72 470.663 138.277 502.462H203.518H205.208H270.448C279 470.663 233.616 464.723 211.139 463.604Z" fill="#D0DCF8"/>
<path opacity="0.3" d="M158.803 481.197C166.133 469.49 186.977 464.421 186.977 464.421C163.427 466.902 130.92 475.127 138.275 502.464H156.793C154.792 498.759 153.754 489.262 158.803 481.197Z" fill="#D0DCF8"/>
<path d="M207.477 616.598L262.898 641.799C262.958 638.998 262.403 635.257 259.762 632.111C255.964 627.588 227.517 614.3 207.477 605.627V616.598Z" fill="#517FC5"/>
<path d="M247.08 642.287C247.08 646.064 250.142 649.127 253.918 649.127C257.694 649.127 260.755 646.064 260.755 642.287C260.755 638.51 257.694 635.447 253.918 635.447C250.142 635.447 247.08 638.51 247.08 642.287Z" fill="#517FC5"/>
<path d="M201.245 605.625C181.204 614.299 152.757 627.586 148.958 632.109C146.317 635.257 145.762 638.998 145.823 641.797L201.245 616.596V605.625Z" fill="#517FC5"/>
<path d="M161.642 642.287C161.642 646.064 158.58 649.127 154.804 649.127C151.026 649.127 147.967 646.064 147.967 642.287C147.967 638.51 151.028 635.447 154.804 635.447C158.582 635.447 161.642 638.51 161.642 642.287Z" fill="#517FC5"/>
<path d="M349.147 312.703C349.16 312.739 342.64 315.744 335.946 316.449C323.504 317.761 310.408 316.492 298.033 314.324C287.883 312.547 277.834 309.911 268.008 306.43C259.429 303.39 230.183 294.918 241.866 279.364C244.778 275.488 249.483 274.12 253.831 273.87C273.413 272.748 338.753 289.125 338.753 289.125L349.147 312.703Z" fill="#8F80C7"/>
<path d="M293.162 219.52L287.086 189.773C287.086 189.773 291.811 189.724 293.731 192.48C295.653 195.236 298.38 195.834 300.405 198.044C302.431 200.254 309.383 203.142 311.78 207.597C314.177 212.053 311.332 219.298 313.335 223.724C315.341 228.154 320.238 237.243 320.238 237.243L304.159 244.061L298.196 231.416C298.196 231.416 284.295 223.816 282.303 212.095L293.162 219.52Z" fill="#FFB7D6"/>
<path d="M355.669 311.667C355.669 311.667 335.29 322.145 327.112 308.839C318.933 295.536 299.275 235.867 299.275 235.867L317.391 230.354C317.391 230.354 360.261 294.58 355.669 311.667Z" fill="#8F80C7"/>
<path d="M404.319 623.023C404.237 622.951 404.154 622.882 404.071 622.812C403.109 622.017 402.059 621.357 400.96 620.779C401.361 620.92 401.763 621.055 402.162 621.198C401.788 621.064 401.372 620.918 400.933 620.764C398.599 619.541 396.027 618.728 393.469 618.048C392.652 617.831 391.828 617.622 391.007 617.412C387.195 616.147 383.804 615.039 382.77 614.701C382.625 614.631 382.475 614.569 382.32 614.506C380.642 613.295 362.926 601.551 355.511 595.193C355.301 595.014 355.093 594.819 354.887 594.627C353.137 583.625 353.683 571.698 353.683 571.698L326.959 571.586C326.959 571.586 330.831 587.63 330.323 596.165C330.283 596.845 328.973 599.344 328.895 599.485C328.57 600.067 328.232 600.642 327.91 601.229C327.581 601.829 327.256 602.434 326.981 603.063C326.14 604.981 325.03 606.86 324.414 608.897C323.731 611.154 323.608 613.615 323.525 615.954C323.499 616.74 323.485 617.528 323.501 618.314C323.53 619.852 323.693 621.444 324.465 622.774C325.663 624.843 328.062 625.87 330.354 626.553C335.032 627.944 339.925 628.454 344.663 629.616C353.387 631.757 362.215 635.175 371.264 636.606C381.28 638.189 391.363 636.425 401.41 636.111C404.064 636.028 408.131 635.115 408.885 632.117C409.646 629.086 406.405 624.836 404.319 623.023Z" fill="#FFB7D6"/>
<path d="M323.482 617.405C323.44 616.765 323.417 616.127 323.458 615.491C323.411 616.152 323.413 616.794 323.482 617.405Z" fill="#FFC58C"/>
<path d="M369.919 621.461C369.861 621.454 369.8 621.447 369.742 621.44C369.803 621.447 369.861 621.454 369.919 621.461Z" fill="#FFC58C"/>
<path d="M368.799 621.299C368.467 621.239 368.134 621.172 367.803 621.096C368.143 621.176 368.472 621.239 368.799 621.299Z" fill="#FFC58C"/>
<path d="M408.987 630.888C408.965 630.492 408.896 630.085 408.786 629.673C408.672 629.245 408.515 628.815 408.325 628.385C408.135 627.958 407.913 627.53 407.669 627.113C407.548 626.905 407.418 626.699 407.289 626.496C406.691 625.575 406.006 624.729 405.348 624.026C405.144 623.807 404.943 623.601 404.746 623.413C404.739 623.404 404.73 623.397 404.721 623.388C404.583 623.256 404.448 623.133 404.318 623.021C404.236 622.949 404.153 622.877 404.068 622.808C403.752 622.548 403.425 622.307 403.092 622.074C402.955 621.977 402.819 621.883 402.68 621.792C402.519 621.684 402.356 621.583 402.19 621.483C401.789 621.234 401.377 620.999 400.959 620.777C401.36 620.918 401.762 621.053 402.163 621.196C401.789 621.062 401.373 620.916 400.934 620.762C399.768 620.15 398.544 619.64 397.284 619.199C396.706 618.997 396.124 618.809 395.54 618.633C395.44 618.601 395.341 618.572 395.24 618.543C394.652 618.368 394.061 618.203 393.47 618.046C392.653 617.829 391.829 617.621 391.008 617.41C387.196 616.147 383.805 615.037 382.771 614.701C382.689 614.661 382.606 614.623 382.523 614.587C382.458 614.555 382.393 614.529 382.324 614.508C380.994 613.548 367.444 603.759 358.187 596.57C352.426 605.018 336.025 606.142 327.22 600.636C327.32 600.775 326.233 602.604 326.139 602.81C325.42 604.398 324.395 605.839 323.789 607.478C323.686 607.754 323.592 608.045 323.504 608.345C323.345 608.891 323.216 609.478 323.099 610.082C323.012 610.537 322.936 610.998 322.871 611.466C322.784 612.099 322.71 612.735 322.656 613.36C322.627 613.7 322.6 614.036 322.578 614.363C322.468 616.002 322.455 617.455 322.47 618.317C322.484 619.085 322.533 619.868 322.674 620.625C322.71 620.815 322.75 621.001 322.799 621.187C322.943 621.742 323.146 622.277 323.435 622.777C323.735 623.294 324.109 623.746 324.538 624.145C324.753 624.344 324.981 624.53 325.221 624.702C326.418 625.569 327.891 626.131 329.324 626.556C331.662 627.25 335.085 627.727 337.484 628.173C338.684 628.396 339.886 628.611 341.083 628.846C342.28 629.079 343.476 629.33 344.66 629.621C348.476 630.559 352.312 631.739 356.18 632.892C358.941 633.716 361.717 634.524 364.512 635.218C366.748 635.774 368.998 636.255 371.258 636.613C371.885 636.712 372.509 636.797 373.136 636.871C373.763 636.945 374.389 637.007 375.016 637.059C376.227 637.157 377.44 637.215 378.651 637.242C379.32 637.258 379.992 637.265 380.663 637.263C382.548 637.256 384.432 637.182 386.319 637.077C391.348 636.795 396.382 636.275 401.404 636.118C402.235 636.092 403.202 635.986 404.162 635.758C406.277 635.261 408.361 634.184 408.88 632.124C408.976 631.746 409.007 631.347 408.99 630.935C408.992 630.917 408.99 630.904 408.987 630.888ZM390.871 617.379C390.209 617.209 389.546 617.036 388.888 616.857C388.832 616.841 388.774 616.826 388.718 616.81C386.686 616.25 384.683 615.608 382.783 614.71C385.482 615.59 388.177 616.485 390.871 617.379Z" fill="#517FC4"/>
<path d="M262.801 638.508C262.774 638.403 262.749 638.295 262.72 638.19C262.4 636.985 261.928 635.837 261.371 634.728C261.614 635.075 261.865 635.42 262.107 635.77C261.879 635.443 261.626 635.082 261.357 634.702C260.169 632.351 258.548 630.192 256.858 628.153C256.319 627.501 255.771 626.854 255.224 626.205C252.856 622.961 250.741 620.088 250.095 619.211C250.016 619.07 249.929 618.931 249.842 618.792C249.179 616.831 241.583 596.976 239.242 587.492C239.177 587.223 239.118 586.946 239.06 586.668C244.029 576.696 251.399 567.306 251.399 567.306L229.714 551.681C229.714 551.681 223.547 566.988 218.173 573.64C217.746 574.17 215.228 575.444 215.082 575.514C214.478 575.8 213.869 576.071 213.269 576.36C212.652 576.658 212.036 576.96 211.448 577.312C209.648 578.386 207.656 579.268 205.971 580.569C204.106 582.009 202.575 583.941 201.147 585.797C200.668 586.422 200.201 587.053 199.755 587.702C198.885 588.97 198.095 590.362 197.949 591.894C197.721 594.274 199.077 596.504 200.545 598.391C203.545 602.24 207.231 605.499 210.411 609.2C216.269 616.013 221.466 623.926 227.999 630.351C235.231 637.462 244.463 641.886 252.823 647.47C255.032 648.946 258.873 650.566 261.227 648.565C263.615 646.539 263.445 641.197 262.801 638.508Z" fill="#FFB7D6"/>
<path d="M352.87 627.642C352.812 627.636 352.754 627.629 352.693 627.622C352.752 627.627 352.812 627.636 352.87 627.642Z" fill="#FFC58C"/>
<path d="M262.032 647.625C262.244 647.289 262.426 646.917 262.573 646.519C262.728 646.104 262.851 645.663 262.947 645.204C263.041 644.745 263.11 644.268 263.153 643.787C263.175 643.545 263.191 643.306 263.202 643.064C263.249 641.967 263.184 640.881 263.057 639.927C263.019 639.632 262.974 639.345 262.922 639.079C262.92 639.067 262.92 639.056 262.918 639.045C262.882 638.859 262.844 638.68 262.804 638.512C262.777 638.407 262.75 638.299 262.723 638.192C262.618 637.796 262.493 637.411 262.356 637.028C262.303 636.871 262.244 636.714 262.186 636.558C262.117 636.379 262.043 636.199 261.967 636.023C261.785 635.586 261.589 635.156 261.374 634.733C261.62 635.08 261.868 635.425 262.11 635.774C261.882 635.447 261.629 635.087 261.36 634.706C260.765 633.531 260.067 632.404 259.297 631.312C258.943 630.813 258.578 630.322 258.204 629.839C258.139 629.756 258.077 629.673 258.014 629.59C257.636 629.107 257.253 628.627 256.864 628.157C256.324 627.506 255.776 626.856 255.228 626.209C252.86 622.965 250.745 620.093 250.098 619.217C250.053 619.137 250.008 619.058 249.961 618.98C249.928 618.917 249.89 618.857 249.845 618.799C249.321 617.245 243.981 601.402 240.621 590.172C231.026 593.698 217.026 585.081 213.055 575.482C213.057 575.655 211.108 576.51 210.913 576.624C209.407 577.497 207.735 578.075 206.289 579.056C206.045 579.221 205.801 579.403 205.555 579.598C205.109 579.951 204.662 580.352 204.216 580.775C203.883 581.093 203.554 581.424 203.229 581.767C202.788 582.231 202.361 582.707 201.954 583.184C201.732 583.444 201.515 583.702 201.307 583.955C200.266 585.226 199.411 586.399 198.923 587.111C198.489 587.745 198.073 588.41 197.748 589.108C197.668 589.283 197.591 589.46 197.522 589.637C197.316 590.172 197.171 590.727 197.115 591.3C197.059 591.896 197.099 592.48 197.218 593.056C197.276 593.342 197.354 593.627 197.45 593.906C197.92 595.308 198.793 596.62 199.713 597.8C201.213 599.725 203.722 602.101 205.416 603.858C206.262 604.738 207.115 605.611 207.954 606.498C208.794 607.385 209.622 608.282 210.416 609.207C212.979 612.187 215.414 615.38 217.892 618.566C219.66 620.84 221.45 623.113 223.324 625.303C224.822 627.053 226.371 628.753 228.005 630.36C228.457 630.804 228.916 631.238 229.383 631.663C229.851 632.089 230.326 632.503 230.805 632.908C231.733 633.694 232.685 634.444 233.656 635.172C234.193 635.575 234.735 635.971 235.283 636.358C236.821 637.446 238.396 638.483 239.995 639.493C244.252 642.186 248.65 644.689 252.828 647.481C253.518 647.942 254.368 648.417 255.281 648.791C257.291 649.615 259.612 649.951 261.233 648.574C261.53 648.321 261.79 648.016 262.012 647.669C262.018 647.651 262.023 647.638 262.032 647.625ZM255.134 626.097C254.693 625.574 254.254 625.05 253.822 624.519C253.784 624.474 253.748 624.427 253.71 624.382C252.381 622.744 251.125 621.058 250.1 619.222C251.788 621.508 253.459 623.803 255.134 626.097Z" fill="#517FC4"/>
<path d="M344.584 422.513C318.897 414.034 291.396 411.202 264.551 409.069C251.216 408.007 235.681 405.665 222.331 404.566C192.816 402.139 169.926 393.665 174.451 424.219C176.099 435.338 178.458 447.49 185.159 457.033C192.424 467.379 205.056 471.841 217.096 473.927C230.69 476.285 244.714 475.94 258.45 475.463C270.496 475.045 282.663 473.91 294.409 471.104C309.207 467.569 323.971 463.718 338.521 459.26C356.713 440.857 344.584 422.513 344.584 422.513Z" fill="#3A376B"/>
<path d="M344.585 422.514C344.585 422.514 350.505 421.741 351.45 437.586C352.392 453.431 355.463 582.119 355.463 582.119L326.174 588.302C326.174 588.302 297.843 496.823 310.661 440.66C310.661 440.66 322.208 413.845 344.585 422.514Z" fill="#3A376B"/>
<path d="M328.63 432.051C328.44 431.852 328.243 431.659 328.035 431.471C323.525 427.37 316.607 426.246 310.821 425.294C269.101 418.441 224.832 415.421 182.658 412.425C175.604 411.923 168.356 410.251 163.562 416.435C159.784 421.309 158.891 428.041 158.71 434.019C158.504 440.799 158.952 447.75 161.584 453.999C164.753 461.526 170.902 467.5 177.835 471.817C194.085 481.936 214.195 483.535 233.319 482.74C252.241 481.954 272.996 478.912 291.268 473.973C305.646 470.086 323.827 467.207 330.152 451.756C332.686 445.563 333.635 437.317 328.63 432.051Z" fill="#3A376B"/>
<path d="M263.192 291.79C262.348 280.251 236.775 265.147 230.201 264.216L230.031 286.021C230.031 286.021 197.328 261.384 197.31 261.359C196.972 260.931 185.094 266.578 183.64 267.223C153.068 280.775 159.944 321.176 160.031 347.897C160.074 361.026 160.119 374.155 160.161 387.284C160.183 394.008 160.477 400.794 160.226 407.513C160 413.533 161.654 416.282 167.323 419.491C173.628 423.06 179.958 420.733 186.359 418.839C193.826 416.632 201.375 414.657 209.09 413.544C219.294 412.071 229.595 411.399 239.897 411.111C248.604 410.864 256.077 411.751 259.647 402.104C261.102 398.172 261.263 393.887 261.173 389.695C260.381 352.27 265.934 329.245 263.192 291.79Z" fill="#B5A7E9"/>
<path d="M237.066 280.497L230.777 300.86L221.195 280.967L227.437 280.781L230.031 286.018L229.951 280.708L237.066 280.497Z" fill="#8F80C7"/>
<path d="M231.947 295.014H228.263L223.416 381.254L233.776 391.417L242.726 380.045L231.947 295.014Z" fill="#8F80C7"/>
<path d="M230.184 242.292C230.265 246.403 230.343 250.515 230.422 254.626C230.422 254.626 231.259 272.958 228.799 275.528C224.403 280.118 202.799 275.56 202.799 261.249L203.528 228.476L230.184 242.292Z" fill="#FFB7D6"/>
<path d="M200.975 200.463L203.607 214.116L207.624 234.942L208.755 240.802C228.274 258.776 250.28 254.607 254.964 245.199C259.649 235.791 251.09 193.008 251.09 193.008L200.975 200.463Z" fill="#FFB7D6"/>
<path d="M247.422 211.763L248.63 230.366L259.251 229.674L247.422 211.763Z" fill="#FFB7D6"/>
<path d="M210.512 205.943C210.465 206.794 210.59 207.743 210.776 208.955C211.396 212.994 211.801 217.077 212.314 221.132L204.688 212.624C204.61 223.463 204.108 234.384 204.057 245.149C199.78 242.07 195.975 238.336 192.806 234.124C189.451 229.667 187.765 224.687 185.435 219.661C182.841 214.062 181.53 207.862 181.682 201.689C181.883 193.553 184.623 185.498 189.426 178.929C194.072 172.572 200.854 167.533 208.603 166.129C216.349 164.725 224.99 167.409 229.715 173.71C231.317 168.274 236.929 164.512 242.593 164.4C248.258 164.288 253.713 167.461 257.059 172.035C260.405 176.609 261.788 182.424 261.665 188.09C261.557 193.101 260.335 198.002 258.778 202.739C257.558 206.445 256.141 209.805 254.351 213.249C253.668 209.286 252.981 205.323 252.298 201.358C251.828 198.627 250.649 195.853 247.922 194.648C245.349 193.511 242.242 194.352 239.993 196.045C237.741 197.735 236.168 200.153 234.641 202.52C231.461 198.584 226.125 196.511 221.121 197.27C217.9 197.758 214.89 199.408 212.663 201.774C211.141 203.393 210.59 204.531 210.512 205.943Z" fill="#1C056D"/>
<path d="M195.375 213.29C192.275 218.986 195.577 229.857 207.072 232.067L204.767 212.627C203.142 210.088 197.414 209.544 195.375 213.29Z" fill="#FFB7D6"/>
<path d="M292.216 287.926L271.656 291.893L275.116 250.462L295.674 246.495L292.216 287.926Z" fill="#6880E4"/>
<path d="M268.77 291.282L271.655 291.893L275.115 250.462L272.23 249.851L268.77 291.282Z" fill="#1C056D"/>
<path d="M272.23 249.849L292.786 245.877L295.673 246.493L275.115 250.46L272.23 249.849Z" fill="#1C056D"/>
<path d="M210.026 398.732C210.001 398.765 203.436 394.361 198.971 388.531C190.672 377.695 184.47 364.83 179.533 352.14C175.484 341.731 172.312 330.944 170.076 319.9C168.125 310.257 159.66 278.422 181.137 280.712C186.489 281.283 190.462 284.901 193.163 288.806C205.323 306.379 226.67 376.096 226.67 376.096L210.026 398.732Z" fill="#8F80C7"/>
<path d="M269.809 280.591L294.718 259.035C294.718 259.035 297.422 263.477 295.878 266.762C294.333 270.044 295.298 272.943 294.333 276.033C293.369 279.123 294.526 287.236 291.63 291.871C288.733 296.506 280.237 297.665 277.149 301.915C274.06 306.164 268.155 315.628 268.155 315.628L252.627 304.039L261.316 291.678C261.316 291.678 260.736 274.488 270.776 266.377L269.809 280.591Z" fill="#FFB7D6"/>
<path d="M209.931 398.754C209.931 398.754 188.021 384.734 196.271 369.594C204.521 354.455 227.458 335.834 257.362 294.766L273.139 309.294C273.139 309.294 229.204 393.913 209.931 398.754Z" fill="#8F80C7"/>
<path d="M330.924 439.925C331.414 440.762 331.786 441.636 332.001 442.54C333.111 447.217 329.814 452.66 327.489 456.424C319.149 469.927 247.662 576.96 247.662 576.96L220.148 565.165C224.268 552.403 229.275 539.877 234.544 527.554C245.007 503.078 257.113 478.855 272.953 457.375C282.862 443.94 293.553 429.438 311.924 429.975C319.035 430.186 327.184 433.535 330.924 439.925Z" fill="#3A376B"/>
<path d="M230.032 286.019L238.496 279.378L230.56 257.564C230.56 257.564 229.626 285.602 230.032 286.019Z" fill="white"/>
<path d="M230.561 257.564L238.497 279.378L252.625 282.114L230.561 255.937V257.564Z" fill="white"/>
<path d="M194.439 261.487L211.154 289.632L225.718 277.311L201.756 255.769L194.439 261.487Z" fill="white"/>
<path d="M225.718 277.312L230.031 286.019L221.195 280.968L225.718 277.312Z" fill="#8F80C7"/>
<path d="M661.153 310.118C662.051 311.116 662.845 312.245 663.6 313.369C668.855 321.198 673.134 329.702 677.396 338.178C682.915 349.153 688.45 360.169 692.568 371.811C694.641 377.668 696.36 383.756 696.525 390.004C696.608 393.141 696.232 396.468 694.433 398.962C691.109 403.574 684.099 403.386 679.558 400.135C675.171 396.994 672.834 391.773 670.281 387.029C660.388 368.652 652.006 349.189 642.943 330.331C641.395 327.107 639.817 323.791 639.465 320.195C638.514 310.501 650.551 303.253 658.42 307.825C659.452 308.423 660.345 309.22 661.153 310.118Z" fill="#FFB7D6"/>
<path d="M649.841 291.483C665.4 297.17 681.923 340.347 681.923 340.347L642.049 357.712L632.199 287.744C633.247 287.668 649.46 291.344 649.841 291.483Z" fill="#8F80C7"/>
<path d="M527.203 310.118C526.303 311.116 525.511 312.245 524.757 313.369C519.502 321.198 515.222 329.702 510.961 338.178C505.441 349.153 499.906 360.169 495.788 371.811C493.715 377.668 491.997 383.756 491.831 390.004C491.748 393.141 492.124 396.468 493.924 398.962C497.247 403.574 504.26 403.386 508.801 400.135C513.188 396.994 515.524 391.773 518.078 387.029C527.971 368.652 536.353 349.189 545.415 330.331C546.964 327.107 548.542 323.791 548.893 320.195C549.845 310.501 537.81 303.253 529.938 307.825C528.904 308.423 528.011 309.22 527.203 310.118Z" fill="#FFB7D6"/>
<path d="M538.514 291.483C522.954 297.17 506.432 340.347 506.432 340.347L546.305 357.712L556.155 287.744C555.108 287.668 538.897 291.344 538.514 291.483Z" fill="#8F80C7"/>
<path d="M662.645 617.426C662.712 616.806 662.797 616.188 662.936 615.586C662.786 616.211 662.68 616.829 662.645 617.426Z" fill="#FFC38A"/>
<path d="M703.166 629.017C702.872 628.903 702.584 628.78 702.295 628.647C702.59 628.786 702.877 628.903 703.166 629.017Z" fill="#FFC38A"/>
<path d="M713.76 627.434C713.921 627.311 714.082 627.172 714.243 627.042C714.082 627.174 713.925 627.311 713.76 627.434Z" fill="#FFC38A"/>
<path d="M714.946 626.448C714.867 626.518 714.793 626.592 714.713 626.659C714.791 626.592 714.867 626.515 714.946 626.448Z" fill="#FFC38A"/>
<path d="M706.022 446.022C705.847 445.478 705.639 444.956 705.402 444.455C702.009 437.266 692.674 434.284 686.21 431.371C675.278 426.445 663.933 422.646 652.883 418.043C639.391 412.423 624.501 407.399 609.834 409.77C604.373 410.652 599.211 412.768 594.63 415.869C590.048 412.768 584.885 410.652 579.426 409.77C564.759 407.399 549.866 412.423 536.377 418.043C525.327 422.646 513.981 426.445 503.05 431.371C496.586 434.284 487.251 437.266 483.858 444.455C483.62 444.956 483.414 445.478 483.238 446.022C481.067 452.737 484.025 460.103 487.291 465.812C489.265 469.262 494.986 479.212 498.954 480.049C515.286 483.721 532.207 483.264 548.704 481.193C558.718 479.937 568.651 478.061 578.539 475.994C583.593 474.938 589.312 473.957 594.63 472.105C599.948 473.957 605.664 474.938 610.72 475.994C620.608 478.061 630.541 479.937 640.555 481.193C657.053 483.264 673.973 483.721 690.305 480.049C694.276 479.212 699.997 469.262 701.969 465.812C705.234 460.103 708.193 452.734 706.022 446.022Z" fill="#3A376B"/>
<path d="M595.819 277.354C595.759 277.354 595.698 277.356 595.638 277.356C595.578 277.354 595.517 277.354 595.457 277.362C568.883 277.58 541.434 291.591 541.434 291.591C541.563 293.736 541.695 295.88 541.825 298.028C542.828 314.531 543.831 331.034 544.833 347.537C545.444 357.612 546.058 367.685 546.669 377.76C547.322 388.52 548.576 397.838 545.619 408.343C544.717 411.547 543.62 415.129 544.918 418.143C545.955 420.55 548.222 421.83 550.333 422.941C554.413 425.088 558.498 427.237 562.734 428.928C583.306 437.144 605.842 434.064 627.279 429.778C634.11 428.413 641.451 426.606 646.064 420.601C646.827 419.607 647.506 418.497 647.857 417.229C648.661 414.339 647.651 411.247 646.839 408.361C646.118 405.809 645.545 403.203 645.12 400.563C643.213 388.724 644.699 376.248 645.424 364.328C646.116 352.957 646.805 341.588 647.497 330.219C648.278 317.343 649.061 304.467 649.842 291.591C649.842 291.591 622.393 277.582 595.819 277.354Z" fill="#B5A7E9"/>
<path d="M590.665 321.046L598.271 303.734H590.665H590.439H582.834L590.439 321.046V321.558L590.551 321.303L590.665 321.558V321.046Z" fill="#8F80C7"/>
<path d="M590.89 415.338L600.843 393.267L593.927 315.404L590.753 316.248L587.577 315.404L578.506 393.267L590.614 415.338V415.584L590.753 415.461L590.89 415.584V415.338Z" fill="#8F80C7"/>
<path d="M590.532 312.52L609.496 280.466H571.57L590.532 312.52Z" fill="#FFB7D6"/>
<path d="M586.605 305.889L578.975 302.002L569.312 273.955C569.312 273.955 586.728 305.385 586.605 305.889Z" fill="white"/>
<path d="M569.314 273.957L578.976 302.002L565.659 310.252L564.135 274.517L568.629 272.692L569.314 273.957Z" fill="white"/>
<path d="M594.219 305.889L602.866 302.374L611.512 273.955C611.512 273.955 594.099 305.385 594.219 305.889Z" fill="white"/>
<path d="M611.513 273.957L602.867 302.374L615.166 310.252L616.692 274.517L612.198 272.692L611.513 273.957Z" fill="white"/>
<path d="M735.148 636.828C735.085 636.745 735.02 636.663 734.955 636.582C734.212 635.653 733.366 634.836 732.464 634.092C732.804 634.296 733.149 634.495 733.487 634.704C733.169 634.511 732.815 634.298 732.442 634.074C730.524 632.496 728.319 631.269 726.108 630.174C725.4 629.825 724.686 629.482 723.975 629.138C720.72 627.264 717.822 625.611 716.938 625.11C716.815 625.018 716.689 624.933 716.571 624.837L716.562 624.846C715.241 623.397 691.756 597.824 690.572 595.626C688.513 586.077 690.106 572.068 690.106 572.068L670.717 570.465C670.717 570.465 673.468 587.81 670.757 600.845C669.725 602.204 668.358 603.715 667.534 605.475C667.458 605.64 667.371 605.815 667.286 605.987C667.391 606.012 667.492 606.043 667.597 606.07C667.514 606.093 667.425 606.102 667.351 606.133C664.587 607.252 662.921 615.646 662.514 618.306C662.288 619.786 662.176 621.342 662.657 622.752C663.407 624.946 665.415 626.348 667.384 627.398C671.406 629.543 675.764 630.88 679.878 632.818C687.45 636.385 694.907 641.194 702.893 644.136C711.729 647.391 721.179 647.445 730.358 648.887C732.782 649.268 736.625 649.095 737.802 646.35C738.993 643.567 736.746 638.928 735.148 636.828Z" fill="#FFB7D6"/>
<path d="M738.096 645.183C738.14 644.798 738.145 644.395 738.111 643.981C738.078 643.551 738.006 643.11 737.903 642.667C737.802 642.221 737.67 641.774 737.518 641.333C737.442 641.111 737.359 640.891 737.272 640.674C736.88 639.687 736.397 638.756 735.916 637.97C735.766 637.726 735.616 637.491 735.47 637.278C735.463 637.269 735.459 637.26 735.452 637.251C735.349 637.101 735.246 636.96 735.146 636.828C735.083 636.745 735.018 636.662 734.951 636.579C734.707 636.275 734.45 635.986 734.185 635.704C734.078 635.587 733.968 635.473 733.856 635.361C733.727 635.232 733.595 635.106 733.463 634.981C733.138 634.672 732.805 634.376 732.46 634.092C732.8 634.296 733.145 634.495 733.485 634.703C733.167 634.511 732.813 634.298 732.437 634.074C731.477 633.286 730.45 632.583 729.378 631.943C728.885 631.649 728.389 631.367 727.885 631.098C727.8 631.051 727.715 631.007 727.628 630.96C727.122 630.691 726.611 630.429 726.101 630.176C725.394 629.827 724.682 629.484 723.968 629.139C720.714 627.265 717.815 625.615 716.931 625.112C716.862 625.06 716.795 625.009 716.725 624.957C716.672 624.917 716.616 624.879 716.555 624.847C715.506 623.697 704.805 611.954 697.573 603.452C690.957 610.559 676.81 608.974 669.714 602.165C669.784 602.317 668.495 603.882 668.376 604.064C667.463 605.463 666.295 606.668 665.475 608.134C665.339 608.38 665.205 608.642 665.075 608.918C664.842 609.415 664.625 609.954 664.423 610.514C664.271 610.935 664.126 611.365 663.991 611.801C663.808 612.392 663.638 612.992 663.486 613.581C663.403 613.901 663.325 614.219 663.251 614.531C662.884 616.084 662.633 617.475 662.505 618.308C662.391 619.049 662.308 619.808 662.311 620.558C662.311 620.746 662.317 620.932 662.331 621.12C662.369 621.677 662.467 622.228 662.649 622.756C662.837 623.305 663.101 623.804 663.425 624.261C663.589 624.489 663.765 624.706 663.953 624.915C664.898 625.953 666.145 626.748 667.376 627.404C669.385 628.477 671.48 629.348 673.589 630.192C674.643 630.615 675.699 631.029 676.749 631.461C677.799 631.893 678.842 632.339 679.871 632.825C683.184 634.385 686.476 636.183 689.798 637.961C692.172 639.228 694.561 640.486 696.987 641.637C698.927 642.557 700.89 643.41 702.887 644.145C703.439 644.348 703.995 644.539 704.55 644.718C705.107 644.897 705.666 645.065 706.226 645.224C707.309 645.528 708.402 645.795 709.498 646.03C710.105 646.16 710.714 646.283 711.322 646.397C713.035 646.715 714.76 646.972 716.49 647.198C721.105 647.798 725.761 648.172 730.349 648.893C731.108 649.012 732.003 649.077 732.914 649.028C734.917 648.916 736.985 648.246 737.793 646.357C737.943 646.01 738.037 645.633 738.087 645.235C738.096 645.213 738.093 645.197 738.096 645.183ZM723.854 629.079C723.281 628.801 722.708 628.521 722.137 628.235C722.088 628.21 722.039 628.186 721.99 628.161C720.235 627.272 718.523 626.307 716.942 625.116C719.252 626.426 721.553 627.754 723.854 629.079Z" fill="#517FC4"/>
<path d="M702.671 444.378C702.671 444.378 707.747 444.499 706.498 458.694C705.249 472.888 691.252 587.552 691.252 587.552L669.17 588.282C669.17 588.282 657.146 503.21 675.152 455.098C675.152 455.098 684.983 433.634 702.671 444.378Z" fill="#3A376B"/>
<path d="M454.116 636.828C454.179 636.745 454.244 636.663 454.309 636.582C455.052 635.653 455.898 634.836 456.8 634.092C456.457 634.296 456.115 634.495 455.777 634.704C456.095 634.511 456.448 634.298 456.822 634.074C458.74 632.496 460.945 631.269 463.156 630.174C463.863 629.825 464.575 629.482 465.289 629.138C468.543 627.264 471.442 625.611 472.326 625.11C472.447 625.018 472.574 624.933 472.693 624.837C472.693 624.837 472.698 624.843 472.702 624.846C474.023 623.397 497.508 597.824 498.692 595.626C500.751 586.077 499.157 572.068 499.157 572.068L518.547 570.465C518.547 570.465 515.796 587.81 518.507 600.845C519.538 602.204 520.906 603.715 521.729 605.475C521.808 605.64 521.893 605.815 521.978 605.987C521.873 606.012 521.772 606.043 521.667 606.07C521.75 606.093 521.837 606.102 521.913 606.133C524.677 607.252 526.342 615.646 526.75 618.306C526.976 619.786 527.088 621.342 526.607 622.752C525.857 624.946 523.849 626.348 521.879 627.398C517.857 629.543 513.497 630.88 509.386 632.818C501.812 636.385 494.354 641.194 486.371 644.136C477.534 647.391 468.085 647.445 458.906 648.887C456.48 649.268 452.637 649.095 451.462 646.35C450.271 643.567 452.518 638.928 454.116 636.828Z" fill="#FFB7D6"/>
<path d="M526.619 617.426C526.552 616.806 526.467 616.188 526.328 615.586C526.478 616.211 526.583 616.829 526.619 617.426Z" fill="#FFC38A"/>
<path d="M486.096 629.017C486.389 628.903 486.678 628.78 486.966 628.647C486.671 628.786 486.382 628.903 486.096 629.017Z" fill="#FFC38A"/>
<path d="M475.503 627.434C475.342 627.311 475.181 627.172 475.02 627.042C475.181 627.174 475.337 627.311 475.503 627.434Z" fill="#FFC38A"/>
<path d="M474.316 626.448C474.395 626.518 474.469 626.592 474.549 626.659C474.471 626.592 474.393 626.515 474.316 626.448Z" fill="#FFC38A"/>
<path d="M451.169 645.226C451.218 645.622 451.315 645.999 451.462 646.348C452.27 648.235 454.341 648.907 456.342 649.019C457.25 649.07 458.148 649.005 458.907 648.884C463.495 648.164 468.152 647.792 472.765 647.19C474.495 646.964 476.221 646.706 477.933 646.388C478.542 646.274 479.151 646.151 479.757 646.021C480.854 645.784 481.946 645.519 483.03 645.215C483.591 645.056 484.149 644.888 484.706 644.709C485.263 644.53 485.818 644.337 486.369 644.136C488.366 643.401 490.328 642.548 492.269 641.628C494.695 640.477 497.083 639.221 499.458 637.952C502.779 636.176 506.072 634.376 509.384 632.816C510.414 632.332 511.457 631.885 512.507 631.452C513.556 631.02 514.613 630.606 515.667 630.183C517.773 629.339 519.868 628.468 521.88 627.395C523.111 626.739 524.358 625.945 525.302 624.906C525.49 624.698 525.667 624.48 525.831 624.252C526.155 623.795 526.421 623.296 526.609 622.748C526.791 622.219 526.887 621.668 526.927 621.111C526.941 620.925 526.947 620.737 526.947 620.549C526.952 619.799 526.867 619.04 526.753 618.299C526.625 617.468 526.377 616.076 526.007 614.522C525.933 614.211 525.855 613.893 525.772 613.572C525.62 612.984 525.45 612.384 525.266 611.793C525.13 611.356 524.987 610.926 524.835 610.505C524.631 609.945 524.414 609.406 524.181 608.909C524.051 608.633 523.919 608.371 523.78 608.125C522.961 606.659 521.793 605.452 520.88 604.055C520.761 603.874 519.472 602.308 519.541 602.156C512.446 608.965 498.299 610.55 491.683 603.444C484.453 611.945 473.75 623.688 472.7 624.839C472.64 624.872 472.584 624.908 472.533 624.948C472.463 624.998 472.394 625.049 472.324 625.103C471.44 625.604 468.542 627.257 465.288 629.131C464.576 629.475 463.862 629.818 463.155 630.167C462.644 630.42 462.136 630.682 461.628 630.951C461.543 630.996 461.458 631.043 461.371 631.09C460.867 631.361 460.37 631.64 459.878 631.934C458.806 632.574 457.776 633.277 456.818 634.065C456.442 634.289 456.091 634.502 455.773 634.694C456.113 634.488 456.456 634.287 456.796 634.083C456.451 634.367 456.118 634.663 455.793 634.972C455.661 635.097 455.529 635.223 455.399 635.353C455.29 635.465 455.18 635.579 455.073 635.695C454.808 635.977 454.551 636.266 454.307 636.571C454.24 636.653 454.177 636.736 454.115 636.819C454.014 636.951 453.913 637.092 453.808 637.242C453.801 637.251 453.797 637.26 453.79 637.269C453.645 637.482 453.495 637.717 453.345 637.961C452.863 638.749 452.38 639.68 451.988 640.665C451.901 640.883 451.818 641.102 451.742 641.324C451.59 641.767 451.458 642.215 451.357 642.658C451.256 643.101 451.183 643.545 451.149 643.972C451.115 644.387 451.12 644.79 451.165 645.175C451.169 645.197 451.167 645.213 451.169 645.226ZM472.318 625.114C470.738 626.305 469.025 627.27 467.271 628.159C467.221 628.184 467.172 628.21 467.123 628.233C466.554 628.519 465.981 628.799 465.406 629.077C467.709 627.754 470.008 626.426 472.318 625.114Z" fill="#517FC4"/>
<path d="M486.593 444.378C486.593 444.378 481.517 444.499 482.766 458.694C484.015 472.888 498.013 587.552 498.013 587.552L520.095 588.282C520.095 588.282 532.118 503.21 514.112 455.098C514.112 455.098 504.279 433.634 486.593 444.378Z" fill="#3A376B"/>
<path d="M598.007 369.077C597.251 366.934 598.696 365.553 598.466 363.435C598.298 361.885 597.134 360.925 596.172 359.859C594.645 358.171 595.742 356.843 596.19 354.844C596.29 354.396 593.602 351.913 593.291 351.562C592.282 350.42 590.97 349.549 590.131 348.239C588.992 346.466 590.205 345.053 591.429 343.847L606.27 348.871C605.429 347.147 603.811 343.786 602.662 341.149C601.047 337.441 605.187 336.962 605.187 336.962C605.912 339.514 607.519 341.726 609.164 343.457L614.015 347.46L621.622 353.743L630.015 358.108C630.015 358.108 677.897 355.236 686.874 361.648C690.686 364.371 695.751 369.242 696.431 374.329C697.723 383.99 687.611 388.208 680.222 389.093C670.157 390.299 661.345 384.982 652.091 381.733C648.306 380.406 644.512 379.105 640.698 377.867C637.251 376.747 632.873 374.529 629.268 374.387C629.268 374.387 601.819 373.313 601.776 373.308C599.992 373.111 598.576 370.684 598.007 369.077Z" fill="#FFB7D6"/>
<path d="M593.264 369.077C594.021 366.934 592.575 365.553 592.805 363.435C592.973 361.885 594.137 360.925 595.102 359.859C596.628 358.171 595.529 356.843 595.084 354.844C594.983 354.396 597.671 351.913 597.985 351.562C598.994 350.42 600.306 349.549 601.145 348.239C602.284 346.466 601.069 345.053 599.847 343.847L585.005 348.871C585.847 347.147 587.465 343.786 588.616 341.149C590.232 337.441 586.091 336.962 586.091 336.962C585.366 339.514 583.759 341.726 582.114 343.457L577.263 347.46L569.656 353.743L561.263 358.108C561.263 358.108 513.381 355.236 504.404 361.648C500.592 364.371 495.527 369.242 494.847 374.329C493.555 383.99 503.667 388.208 511.056 389.093C521.121 390.299 529.933 384.982 539.187 381.733C542.972 380.406 546.766 379.105 550.58 377.867C554.027 376.747 558.405 374.529 562.01 374.387C562.01 374.387 589.459 373.313 589.502 373.308C591.281 373.111 592.696 370.684 593.264 369.077Z" fill="#FFB7D6"/>
<path d="M264.393 647.391L264.33 649.129H273.979L287.75 399.251H274.165L264.393 647.391Z" fill="#517FC5"/>
<path d="M838.429 399.251H824.848L838.617 649.129H848.266L838.429 399.251Z" fill="#517FC5"/>
<path d="M248.57 392.559H859.326C861.923 392.559 864.026 390.455 864.026 387.858V381.985C864.026 379.388 861.923 377.283 859.326 377.283H248.57V392.559Z" fill="#84B4FE"/>
<path d="M854.583 392.559H258.006V405.392H854.583V392.559Z" fill="#517FC5"/>
<path d="M593.978 303.305L574.82 370.604L536.748 372.323V377.081H675.567L695.708 303.305H592.75" fill="#6880E4"/>
<path d="M622.348 226.107L620.73 242.274L618.259 266.936L617.565 273.872C596.752 296.855 570.702 294.336 564.254 283.882C557.806 273.429 564.44 222.745 564.44 222.745L622.348 226.107Z" fill="#FFB7D6"/>
<path d="M569.494 244.18L570.056 265.955L557.625 266.275L569.494 244.18Z" fill="#FFB7D6"/>
<path d="M542.413 210.353C542.158 211.394 542.098 212.474 542.277 213.544C542.881 217.162 546.708 220.14 550.251 219.19C546.854 221.904 545.473 226.882 546.986 230.959C548.499 235.036 552.794 237.904 557.138 237.741C561.483 237.577 565.549 234.396 566.754 230.216C570.413 231.996 573.249 233.686 577.423 233.175C579.124 232.967 586.382 231.022 586.382 228.59C594.12 234.557 606.304 233.652 613.075 226.611C610.476 233.993 611.025 242.424 614.557 249.408C615.671 251.611 617.068 253.65 618.254 255.811C619.183 257.503 619.774 258.352 618.926 260.118C618.122 261.798 617.296 262.913 616.73 264.755C615.423 269.014 615.38 273.42 618.467 277.009C619.369 278.057 620.515 278.966 621.867 279.248C623.218 279.53 624.79 279.046 625.49 277.855C626.191 276.664 625.649 274.83 624.317 274.463C625.6 275.623 627.753 275.652 629.067 274.526C630.381 273.4 630.683 271.268 629.734 269.822C630.309 270.697 638.933 261.99 639.6 261.135C642.384 257.557 644.508 253.46 645.829 249.123C647.729 242.883 647.834 236.191 646.424 229.839C645.943 227.67 645.296 225.539 644.526 223.453C643.906 221.776 642.843 220.823 641.574 219.515C642.518 219.837 643.662 219.392 644.141 218.514C644.62 217.639 644.376 216.434 643.595 215.814C642.814 215.194 641.587 215.227 640.842 215.888C641.09 215.301 641.343 214.701 641.388 214.068C641.435 213.432 641.236 212.745 640.73 212.355C640.224 211.968 639.387 212.012 639.04 212.548C638.843 212.85 638.832 213.233 638.825 213.593C638.807 214.701 638.792 215.807 638.774 216.916C638.022 211.119 631.905 205.206 627.905 201.29C623.375 196.853 618.097 193.197 612.222 190.781C599.921 185.721 585.066 186.343 574.021 193.752C571.416 191.645 568.372 189.919 565.041 189.549C561.711 189.18 558.076 190.387 556.174 193.145C554.271 195.903 554.687 200.22 557.472 202.083C553.819 201.758 549.967 202.237 546.885 204.225C544.714 205.627 543.018 207.879 542.413 210.353Z" fill="#1C056D"/>
<path d="M630.223 240.445C634.435 246.743 631.745 259.747 618.598 263.535L619.224 240.667C620.845 237.539 627.45 236.301 630.223 240.445Z" fill="#FFB7D6"/>
<path d="M543.368 118.404H484.327C480.596 118.404 477.543 121.458 477.543 125.193V169.389C477.543 173.121 480.596 176.175 484.327 176.175H516.866L537.656 193.842V176.175H543.366C547.097 176.175 550.15 173.121 550.15 169.389V125.193C550.154 121.46 547.101 118.404 543.368 118.404Z" fill="url(#paint4_linear_668_951)"/>
<path d="M539.232 139.236H488.466C487.029 139.236 485.867 138.072 485.867 136.636C485.867 135.201 487.029 134.037 488.466 134.037H539.232C540.669 134.037 541.831 135.201 541.831 136.636C541.831 138.072 540.669 139.236 539.232 139.236Z" fill="white"/>
<path d="M539.232 148.824H488.466C487.029 148.824 485.867 147.66 485.867 146.224C485.867 144.789 487.029 143.625 488.466 143.625H539.232C540.669 143.625 541.831 144.789 541.831 146.224C541.831 147.66 540.669 148.824 539.232 148.824Z" fill="white"/>
<path d="M539.232 158.411H488.466C487.029 158.411 485.867 157.247 485.867 155.811C485.867 154.376 487.029 153.212 488.466 153.212H539.232C540.669 153.212 541.831 154.376 541.831 155.811C541.831 157.247 540.669 158.411 539.232 158.411Z" fill="white"/>
<path d="M936.235 157.377H999.897C1003.92 157.377 1007.21 154.083 1007.21 150.06V102.403C1007.21 98.3772 1003.92 95.084 999.897 95.084H936.235C932.21 95.084 928.918 98.3772 928.918 102.403V150.06C928.918 154.083 932.21 157.377 936.235 157.377Z" fill="url(#paint5_linear_668_951)"/>
<path d="M964.67 157.377L942.25 176.428V157.377H964.67Z" fill="url(#paint6_linear_668_951)"/>
<path d="M971.942 117.876C971.942 114.988 969.409 113.159 965.577 113.159C961.803 113.159 958.914 114.811 957.029 117.522L949.898 113.336C953.081 108.5 958.621 105.435 966.58 105.435C975.423 105.435 981.551 109.386 981.551 116.343C981.551 125.777 971.649 126.839 971.649 133.09H962.746C962.746 124.832 971.942 123.006 971.942 117.876ZM961.568 142.522C961.568 139.515 963.927 137.274 967.226 137.274C970.528 137.274 972.885 139.513 972.885 142.522C972.885 145.471 970.526 147.889 967.226 147.889C963.927 147.889 961.568 145.471 961.568 142.522Z" fill="white"/>
<path d="M292.861 151.213C287.003 143.876 283.48 134.594 283.48 124.474C283.48 100.778 302.684 81.5654 326.375 81.5654C350.064 81.5654 369.27 100.775 369.27 124.474C369.27 148.171 350.064 167.383 326.375 167.383C317.581 167.383 309.414 164.727 302.608 160.187L286.003 169.046L292.861 151.213Z" fill="url(#paint7_linear_668_951)"/>
<path d="M346.658 117.966C346.658 117.966 343.784 117.88 340.487 117.966C337.19 118.051 334.654 118.389 333.555 116.696C332.456 115.006 334.444 110.1 333.555 106.845C332.667 103.589 331.695 100.121 329.287 99.8257C326.877 99.5301 326.033 101.686 326.033 101.686L326.624 108.958L319.043 119.123V138.216C321.579 141.543 324.905 141.81 324.905 141.81H340.72C340.72 141.81 342.557 142.148 343.551 140.583C344.545 139.018 343.424 137.397 343.115 137.222C342.804 137.045 342.938 136.707 342.938 136.707C342.951 136.497 343.233 136.439 343.233 136.439C344.064 136.468 345.516 135.973 345.924 134.141C346.331 132.31 344.487 131.014 344.487 131.014C344.276 130.732 344.585 130.62 344.585 130.62C345.133 130.747 347.488 130.38 347.797 128.182C348.106 125.983 346.557 124.756 346.206 124.687C345.854 124.615 346.022 124.306 346.022 124.306C349.149 123.925 349.066 121.389 349.066 121.389C349.236 118.852 346.658 117.966 346.658 117.966Z" fill="white"/>
<path d="M314.592 119.128H306.636C306.175 119.128 305.801 119.502 305.801 119.963V140.787C305.801 141.248 306.175 141.622 306.636 141.622H314.592C315.053 141.622 315.427 141.248 315.427 140.787V119.963C315.427 119.502 315.053 119.128 314.592 119.128Z" fill="white"/>
<defs>
<linearGradient id="paint0_linear_668_951" x1="947.451" y1="404.081" x2="1123.6" y2="404.081" gradientUnits="userSpaceOnUse">
<stop stop-color="#9942FF"/>
<stop offset="1" stop-color="#4D6DFF"/>
</linearGradient>
<linearGradient id="paint1_linear_668_951" x1="61.6172" y1="419.876" x2="109.816" y2="419.876" gradientUnits="userSpaceOnUse">
<stop stop-color="#9942FF"/>
<stop offset="1" stop-color="#4D6DFF"/>
</linearGradient>
<linearGradient id="paint2_linear_668_951" x1="32.7872" y1="447.712" x2="69.1655" y2="447.712" gradientUnits="userSpaceOnUse">
<stop stop-color="#9942FF"/>
<stop offset="1" stop-color="#4D6DFF"/>
</linearGradient>
<linearGradient id="paint3_linear_668_951" x1="90.2305" y1="450.434" x2="155.77" y2="450.434" gradientUnits="userSpaceOnUse">
<stop stop-color="#9942FF"/>
<stop offset="1" stop-color="#4D6DFF"/>
</linearGradient>
<linearGradient id="paint4_linear_668_951" x1="477.543" y1="156.123" x2="550.15" y2="156.123" gradientUnits="userSpaceOnUse">
<stop stop-color="#FB9004"/>
<stop offset="1" stop-color="#FC067D"/>
</linearGradient>
<linearGradient id="paint5_linear_668_951" x1="928.846" y1="125.379" x2="1007.18" y2="125.379" gradientUnits="userSpaceOnUse">
<stop stop-color="#FB9004"/>
<stop offset="1" stop-color="#FC067D"/>
</linearGradient>
<linearGradient id="paint6_linear_668_951" x1="928.848" y1="163.44" x2="1007.18" y2="163.44" gradientUnits="userSpaceOnUse">
<stop stop-color="#FB9004"/>
<stop offset="1" stop-color="#FC067D"/>
</linearGradient>
<linearGradient id="paint7_linear_668_951" x1="283.48" y1="125.306" x2="369.27" y2="125.306" gradientUnits="userSpaceOnUse">
<stop stop-color="#FB9004"/>
<stop offset="1" stop-color="#FC067D"/>
</linearGradient>
</defs>
</svg>
