<svg width="42" height="51" viewBox="0 0 42 51" fill="none" xmlns="http://www.w3.org/2000/svg">
<path d="M23 49.6016C15 47.6016 12 37.7682 11.5 33.1016H6.5L8 50.1016L23 49.6016Z" fill="#DDDFE8"/>
<path fill-rule="evenodd" clip-rule="evenodd" d="M40.6897 48.6992H35.9004L39.3403 45.3589C40.0382 44.7033 40.5282 43.8572 40.7494 42.9255C40.9706 41.9938 40.9133 41.0177 40.5845 40.1183C40.1196 38.8463 39.4934 36.389 38.8864 34.0073L38.8776 33.9728L38.8612 33.9083L38.8611 33.9081C38.1433 31.0952 37.4679 28.4484 36.9886 27.4415C36.3099 26.0253 35.0012 24.8523 33.085 23.9553C31.6281 23.2766 29.8216 22.7676 27.9948 22.5323H27.9677C22.7893 22.0312 17.8303 22.0312 13.2299 22.5323H13.213C11.3895 22.7676 9.5831 23.2732 8.12279 23.9553C6.20662 24.8523 4.89336 26.0253 4.21919 27.4415C3.74184 28.4437 3.08804 31.077 2.39691 33.8653C1.79966 36.2758 1.18092 38.7677 0.710362 40.0584C0.372083 40.9746 0.316959 41.9714 0.552142 42.9194C0.787324 43.8674 1.30196 44.7228 2.02928 45.3748L5.6139 48.7015H0.848363C0.623363 48.7015 0.407579 48.7909 0.24848 48.95C0.089381 49.1091 0 49.3248 0 49.5498C0 49.7748 0.089381 49.9906 0.24848 50.1497C0.407579 50.3088 0.623363 50.3982 0.848363 50.3982H40.6897C40.9147 50.3982 41.1305 50.3088 41.2896 50.1497C41.4487 49.9906 41.5381 49.7748 41.5381 49.5498C41.5381 49.3248 41.4487 49.1091 41.2896 48.95C41.1305 48.7909 40.9147 48.7015 40.6897 48.7015V48.6992ZM8.72117 48.6992L7.46672 33.7228H34.0714L32.8169 48.6992H8.72117ZM35.4525 28.1711C35.8642 29.0353 36.5588 31.758 37.2295 34.3924C37.8494 36.8267 38.4908 39.3423 38.9873 40.7008C39.2027 41.289 39.2403 41.9276 39.0955 42.537C38.9507 43.1464 38.6299 43.6998 38.1729 44.1282L38.1627 44.1384L34.6132 47.585L35.8394 32.9468C35.8489 32.8298 35.8341 32.7121 35.7959 32.6011C35.7577 32.4901 35.697 32.3883 35.6175 32.3019C35.538 32.2155 35.4416 32.1465 35.3341 32.0992C35.2267 32.052 35.1106 32.0274 34.9933 32.0272H23.8288L23.1218 27.5026L24.5663 23.9689C25.6311 24.0285 26.7061 24.1103 27.7912 24.2143C32.3317 24.8059 34.7263 26.6452 35.4525 28.1711ZM22.7667 23.8908L21.4624 27.0784C21.4037 27.2215 21.3854 27.378 21.4093 27.5309L22.1117 32.0261H19.4264L20.1288 27.5309C20.1527 27.378 20.1343 27.2215 20.0756 27.0784L18.7635 23.8705C20.0757 23.8388 21.41 23.8456 22.7667 23.8908ZM3.17288 44.1147C2.69659 43.6894 2.35926 43.1307 2.20474 42.5112C2.05021 41.8917 2.08564 41.24 2.30641 40.6409C2.80249 39.2853 3.41941 36.8015 4.02076 34.3803L4.04725 34.2737L4.05138 34.257L4.05138 34.257C4.69146 31.6787 5.35233 29.0165 5.75416 28.1654C6.48149 26.6384 8.87726 24.7991 13.4222 24.2064C14.5768 24.0797 15.755 23.9862 16.9571 23.9259L18.4163 27.4924L17.7093 32.017H6.54483C6.42746 32.0172 6.3114 32.0418 6.20397 32.0891C6.09653 32.1363 6.00004 32.2053 5.92057 32.2917C5.8411 32.3781 5.78036 32.48 5.74218 32.591C5.70401 32.702 5.68921 32.8196 5.69873 32.9366L6.92603 47.5907L3.18306 44.1147H3.17288ZM22.2825 43.5187H19.2555C19.0306 43.5187 18.8148 43.6081 18.6557 43.7672C18.4966 43.9263 18.4072 44.1421 18.4072 44.3671C18.4072 44.5921 18.4966 44.8078 18.6557 44.9669C18.8148 45.126 19.0306 45.2154 19.2555 45.2154H22.2825C22.5075 45.2154 22.7233 45.126 22.8824 44.9669C23.0415 44.8078 23.1309 44.5921 23.1309 44.3671C23.1309 44.1421 23.0415 43.9263 22.8824 43.7672C22.7233 43.6081 22.5075 43.5187 22.2825 43.5187ZM21.3975 42.0827C21.2115 42.2069 20.9928 42.2733 20.769 42.2733C20.469 42.2733 20.1813 42.1541 19.9692 41.942C19.7571 41.7298 19.6379 41.4421 19.6379 41.1421C19.6379 40.9184 19.7042 40.6997 19.8285 40.5137C19.9528 40.3277 20.1295 40.1827 20.3362 40.0971C20.5429 40.0115 20.7703 39.9891 20.9897 40.0327C21.2091 40.0764 21.4107 40.1841 21.5689 40.3423C21.7271 40.5005 21.8348 40.702 21.8785 40.9215C21.9221 41.1409 21.8997 41.3683 21.8141 41.575C21.7285 41.7817 21.5835 41.9584 21.3975 42.0827Z" fill="url(#paint0_linear_218_727)"/>
<path d="M20.6465 20.9996C23.2086 20.9996 25.6779 19.6931 27.5986 17.3211C29.3745 15.1255 30.3937 12.3621 30.3937 9.74239C30.3937 4.53118 26.2084 0.601562 20.6465 0.601562C15.0847 0.601562 10.8994 4.53118 10.8994 9.74239C10.8994 12.3678 11.9174 15.1312 13.6956 17.3211C15.6152 19.6931 18.0845 20.9996 20.6465 20.9996ZM26.2797 16.2488C24.687 18.2158 22.6871 19.3029 20.6465 19.3029C18.6059 19.3029 16.6061 18.2204 15.0134 16.2488C13.6504 14.5679 12.7839 12.4243 12.6244 10.3951C13.7553 10.7399 14.9296 10.9216 16.1118 10.9346C18.6851 10.9346 20.9316 9.95165 22.8987 7.9744C24.4823 9.34648 26.2785 9.79781 28.6879 9.44489C28.6879 9.53991 28.6947 9.6338 28.6947 9.72994C28.6969 11.947 27.7931 14.3835 26.2797 16.2533V16.2488ZM14.924 4.37169C16.407 3.02901 18.4397 2.28811 20.6465 2.28811C22.8534 2.28811 24.8861 3.02901 26.369 4.37169C27.373 5.27898 28.0927 6.4576 28.4413 7.76514C26.2593 8.08525 24.8397 7.62035 23.4869 6.18153C23.4059 6.09505 23.3078 6.02649 23.1987 5.98029C23.0897 5.93409 22.9721 5.91126 22.8537 5.91329C22.7353 5.91531 22.6186 5.94214 22.5112 5.99205C22.4038 6.04195 22.3081 6.11382 22.2301 6.20302C19.6613 9.14401 16.6174 9.91658 12.6753 8.6316C12.902 6.9931 13.6981 5.48663 14.924 4.37621V4.37169Z" fill="url(#paint1_linear_218_727)"/>
<defs>
<linearGradient id="paint0_linear_218_727" x1="0" y1="36.2773" x2="41.5381" y2="36.2773" gradientUnits="userSpaceOnUse">
<stop stop-color="#9942FF"/>
<stop offset="1" stop-color="#FC067D"/>
</linearGradient>
<linearGradient id="paint1_linear_218_727" x1="10.8994" y1="10.8006" x2="30.3937" y2="10.8006" gradientUnits="userSpaceOnUse">
<stop stop-color="#FB9004"/>
<stop offset="1" stop-color="#FC067D"/>
</linearGradient>
</defs>
</svg>
