<svg width="635" height="414" viewBox="0 0 635 414" fill="none" xmlns="http://www.w3.org/2000/svg">
<path opacity="0.16" d="M29.5898 363H635C627.238 281.231 649.334 138.929 548.622 104.544C401.99 36.3453 387.504 48.0154 261.354 141.255C227.961 166.289 184.659 162.885 147.601 148.507C98.3553 132.625 54.3636 162.088 28.4268 202.648C-10.8023 244.178 19.913 316.009 29.5898 363Z" fill="#B5A7E9"/>
<path d="M79.1807 35.5112V239C79.1807 244.94 83.9962 249.756 89.9369 249.756H408.289C410.539 249.756 412.364 247.931 412.364 245.681V34.1349C412.364 31.1221 409.922 28.6802 406.909 28.6802H86.0117C82.2386 28.6802 79.1807 31.7381 79.1807 35.5112Z" fill="#D7DCFF"/>
<path d="M412.368 46.425H79.1807V34.0346C79.1807 31.0769 81.5774 28.6802 84.5351 28.6802H408.093C410.454 28.6802 412.368 30.5943 412.368 32.9558V46.425Z" fill="#324D90"/>
<path opacity="0.3" d="M407.932 37.5531C407.932 39.6358 406.244 41.324 404.162 41.324C402.079 41.324 400.391 39.6358 400.391 37.5531C400.391 35.4704 402.079 33.7822 404.162 33.7822C406.245 33.7822 407.932 35.4704 407.932 37.5531Z" fill="white"/>
<path opacity="0.3" d="M397.216 37.5531C397.216 39.6358 395.528 41.324 393.447 41.324C391.365 41.324 389.676 39.6358 389.676 37.5531C389.676 35.4704 391.364 33.7822 393.447 33.7822C395.529 33.7822 397.216 35.4704 397.216 37.5531Z" fill="white"/>
<path opacity="0.3" d="M382.73 41.324C384.812 41.324 386.501 39.6357 386.501 37.5531C386.501 35.4705 384.812 33.7822 382.73 33.7822C380.647 33.7822 378.959 35.4705 378.959 37.5531C378.959 39.6357 380.647 41.324 382.73 41.324Z" fill="white"/>
<path d="M371.93 82.6805H119.622C113.68 82.6805 108.863 77.8639 108.863 71.9221C108.863 65.9804 113.68 61.1637 119.622 61.1637H371.93C377.872 61.1637 382.689 65.9804 382.689 71.9221C382.689 77.8639 377.872 82.6805 371.93 82.6805Z" fill="white"/>
<path d="M370.97 71.3458C370.97 72.3408 370.664 73.2632 370.141 74.0268C369.286 75.2742 367.85 76.093 366.223 76.093C363.601 76.093 361.476 73.9673 361.476 71.3458C361.476 68.7242 363.601 66.5985 366.223 66.5985C368.845 66.5985 370.97 68.7242 370.97 71.3458Z" stroke="#407BFF" stroke-miterlimit="10"/>
<path d="M373.113 77.2447L369.883 74.7113" stroke="#407BFF" stroke-miterlimit="10" stroke-linecap="round" stroke-linejoin="round"/>
<g opacity="0.4">
<path d="M360.424 224.484C360.268 225.262 359.775 226.128 359.126 226.668C358.657 227.06 357.168 227.851 356.997 226.731C356.949 226.419 357.287 224.97 357.411 224.67C357.779 223.796 358.17 224.368 358.762 224.483C359.368 224.6 359.939 224.042 360.424 224.484Z" fill="white"/>
<path d="M356.37 133.743C356.582 134.491 356.726 135.229 356.892 135.927C356.317 136.783 355.187 136.466 354.347 136.924C353.953 137.14 353.843 137.928 353.463 138.048C353.158 138.144 352.921 137.73 352.632 137.736C351.886 137.754 351.522 139.237 350.606 138.86C350.083 139.235 350.627 140.672 349.983 140.794C349.526 140.881 349.274 140.171 348.996 139.734C348.66 139.205 348.179 138.914 348.166 138.486C348.152 138.042 348.911 137.298 349.151 136.988C349.447 136.608 350.026 135.9 350.398 135.801C351.09 135.618 351.793 135.882 352.321 135.615C352.775 135.381 352.801 134.521 353.047 134.304C353.255 134.119 353.493 134.169 353.672 134.055C354.153 133.741 354.673 132.662 354.398 131.559C354.225 130.862 353.263 130.1 353.88 129.249C354.799 129.367 356.012 130.456 356.164 131.559C356.224 131.988 356.025 132.419 356.06 132.869C356.077 133.126 356.277 133.403 356.37 133.743Z" fill="white"/>
<path d="M356.58 126.939C356.463 127.258 356.228 127.192 356.009 127.376C355.796 127.555 355.545 128.127 355.283 128.188C354.865 128.283 354.397 127.696 353.982 127.814C353.496 127.953 353.781 128.402 353.62 128.936C353.193 128.827 352.494 128.257 352.477 127.688C352.466 127.331 352.852 127.109 352.945 126.69C353.098 125.976 352.7 125.617 352.477 124.943C352.462 124.842 352.527 124.836 352.529 124.755C353.037 124.627 354.033 125.777 355.179 126.004C355.917 126.149 356.537 126.071 356.58 126.939Z" fill="white"/>
<path d="M354.662 190.285C354.715 190.804 353.962 190.743 353.883 190.407C353.898 190.006 354.569 189.88 354.662 190.285Z" fill="white"/>
<path d="M351.024 121.698C351.539 122.024 352.784 122.764 351.907 123.445C351.375 123.209 350.822 122.402 351.024 121.698Z" fill="white"/>
<path d="M348.633 187.539C349.227 187.15 349.876 186.296 350.917 186.726C350.689 187.503 349.907 187.487 349.412 187.85C348.912 188.217 348.487 188.839 347.854 188.911C347.805 188.8 347.738 188.717 347.646 188.661C347.642 187.963 348.221 187.804 348.633 187.539Z" fill="white"/>
<path d="M347.232 175.806C347.842 175.807 348.417 175.58 348.84 175.869C348.762 177.429 346.747 176.242 345.414 176.494C345.13 176.545 345.046 176.81 344.737 176.679C344.755 176.151 345.23 175.618 345.725 175.557C346.105 175.51 346.675 175.804 347.232 175.806Z" fill="white"/>
<path d="M347.75 177.739C347.809 178.603 346.828 178.699 346.555 179.364C346.987 180.156 347.155 181.265 347.646 181.983C347.625 182.459 347.727 183.082 347.49 183.295C346.445 183.536 345.882 181.278 345.463 180.488C344.664 180.668 345.394 183.74 344.322 183.359C343.796 183.171 344.328 182.293 344.217 181.612C344.12 181.013 343.632 180.89 343.594 180.424C343.565 180.04 343.947 179.632 344.062 179.238C344.227 178.673 344.122 177.583 344.684 177.555C344.962 177.539 345.336 178.257 345.516 178.302C346.137 178.462 346.874 177.543 347.75 177.739Z" fill="white"/>
<path d="M345.829 187.038C345.639 187.511 344.571 187.284 344.48 186.851C344.662 186.359 345.74 186.507 345.829 187.038Z" fill="white"/>
<path d="M344.839 188.536C344.778 188.629 344.709 188.712 344.633 188.787C344.238 188.635 343.817 188.52 343.698 188.038C343.989 187.524 344.826 187.95 344.839 188.536Z" fill="white"/>
<path d="M343.442 186.975C343.179 187.425 342.264 186.939 341.937 187.412C341.397 187.396 340.852 187.387 340.742 186.851C340.899 186.393 341.39 186.707 341.78 186.663C342.407 186.595 343.276 186.066 343.442 186.975Z" fill="white"/>
<path d="M336.117 210.877C336.113 210.326 335.826 209.841 335.752 209.257C335.727 209.045 335.779 208.773 335.752 208.506C335.718 208.12 335.56 207.799 335.597 207.571C335.669 207.157 336.07 207.113 336.17 206.759C336.333 206.178 335.971 206.085 335.962 205.386C335.955 204.894 336.273 204.654 336.482 204.013C336.578 203.717 336.582 203.164 336.688 202.953C336.822 202.688 337.398 202.462 337.622 202.331C338.419 201.861 339.057 200.987 339.858 200.832C340.06 200.792 340.335 200.862 340.481 200.832C340.951 200.733 341.543 200.259 342.194 200.084C342.825 199.912 343.382 199.977 343.856 199.645C344.377 199.285 345.115 198.339 345.31 197.773C345.548 197.088 345.477 196.509 345.933 196.275C346.157 196.162 346.376 196.285 346.609 196.214C346.849 196.138 347.366 195.843 347.544 195.652C347.906 195.263 347.965 194.624 348.374 194.216C348.658 193.935 349.193 193.502 349.57 193.281C349.791 193.147 350.203 193.008 350.4 193.03C351.132 193.106 351.474 194.334 352.27 194.091C352.554 194.005 352.844 193.278 353.102 192.844C353.476 192.207 353.748 191.35 354.4 191.159C354.925 191.004 355.513 191.401 355.801 190.847C355.866 190.453 355.556 190.218 355.801 189.972C356.407 190.017 357.43 190.999 358.346 191.032C358.839 191.051 359.754 190.387 359.853 191.284C359.896 191.68 359.484 192.001 359.386 192.408C359.317 192.694 359.489 192.849 359.334 193.157C358.911 193.357 358.464 193.462 358.452 194.03C358.436 194.742 359.289 195.075 359.8 195.467C360.152 195.733 360.445 196.141 360.632 196.277C360.792 196.39 361.046 196.443 361.151 196.526C361.489 196.789 361.728 197.385 362.192 197.401C362.719 197.416 363.246 196.607 363.542 195.838C363.886 194.94 363.906 193.849 364.059 192.906C364.112 192.59 364.299 192.283 364.371 191.97C364.572 191.116 364.844 189.963 365.461 189.66C366.082 190.449 366.293 191.984 366.191 193.283C366.605 193.661 367.334 193.535 367.436 194.407C367.471 194.707 367.311 195.092 367.332 195.403C367.368 195.928 367.694 196.389 367.749 196.839C367.852 197.671 367.633 198.356 367.955 198.961C368.36 199.725 369.155 199.698 369.67 200.523C369.661 201.035 369.829 201.242 369.93 201.643C369.978 201.834 369.932 202.144 369.982 202.269C370.149 202.687 370.598 202.727 370.762 203.079C370.842 203.252 370.819 203.579 370.918 203.891C371.06 204.349 371.402 204.692 371.645 205.14C371.88 205.573 372.264 206.044 372.32 206.389C372.424 207.011 372.049 207.437 371.956 207.948C371.845 208.569 371.956 209.37 371.75 210.008C371.509 210.758 370.915 211.498 370.451 212.441C370.07 213.218 369.552 214.093 368.996 214.625C368.668 214.94 368.279 215.123 367.957 215.438C367.46 215.924 367.052 216.558 366.607 217.123C366.139 217.717 365.572 218.171 365.203 218.682C364.67 219.424 364.405 220.621 363.491 220.742C362.955 220.813 362.476 220.758 361.984 220.992C361.215 221.359 360.705 222.036 360.324 222.054C359.923 222.069 359.551 221.487 359.18 221.429C358.763 221.365 358.437 221.808 357.83 221.802C357.582 221.801 357.458 221.626 357.104 221.49C356.361 221.208 355.546 221.219 355.442 220.243C355.384 219.711 355.724 219.472 355.701 218.993C355.678 218.517 355.29 218.397 355.129 217.995C355.232 217.565 355.248 217.023 354.869 216.745C354.856 216.358 354.939 216.081 355.077 215.873C354.777 216.027 354.379 216.124 354.037 216.374C353.659 216.648 353.386 217.279 352.948 217.184C352.537 217.011 352.853 216.521 352.792 216.124C352.747 215.821 352.172 214.53 351.908 214.314C351.608 214.068 350.509 213.571 350.143 213.501C348.537 213.2 347.515 214.231 346.246 214.377C345.921 214.414 345.566 214.311 345.261 214.377C344.218 214.597 343.054 215.593 342.404 216.248C341.329 216.376 340.241 215.984 339.131 216.374C338.03 216.76 337.4 217.862 335.706 217.558C335.37 217.21 334.774 217.039 334.771 216.436C334.766 215.96 335.357 215.652 335.55 215.312C335.753 214.947 336.104 214.09 336.12 213.564C336.131 213.15 335.888 212.654 335.912 212.13C335.928 211.719 336.119 211.283 336.117 210.877Z" fill="white"/>
<path d="M335.236 184.854C335.52 184.807 335.731 184.555 336.015 184.543C336.62 184.515 337.22 185.081 337.935 184.977C338.092 185.18 337.985 185.347 337.989 185.666C338.596 186.055 339.592 185.985 339.909 186.725C339.454 187.305 338.778 186.889 338.195 186.787C337.667 186.698 337.106 186.741 336.533 186.662C335.807 186.561 335.149 186.078 334.457 185.977C334.036 185.914 333.605 186.05 333.21 185.977C332.743 185.89 331.002 185.1 330.976 184.542C330.951 183.967 331.76 183.805 332.481 183.916C333.415 184.065 334.039 185.055 335.236 184.854Z" fill="white"/>
<path d="M336.636 180.549C336.244 180.416 335.876 180.488 335.704 180.361C335.348 180.099 335.401 179.351 335.286 178.925C335.171 178.495 334.741 178.265 334.509 177.678C334.171 176.827 334.025 174.922 334.924 174.745C335.285 174.672 335.657 175.007 335.91 174.932C336.41 174.783 336.323 174.005 336.741 173.682C336.972 173.503 337.399 173.579 337.728 173.433C338.069 173.283 338.323 172.894 338.559 172.559C338.777 172.248 338.947 171.724 339.233 171.499C339.556 171.244 339.856 171.237 340.116 170.999C340.797 170.375 340.819 169.505 341.362 168.752C341.824 168.115 342.553 169.366 342.61 169.876C342.868 170.273 343.376 170.371 343.596 170.812C343.291 171.91 342.428 172.005 342.61 173.557C342.639 173.81 342.783 174.28 342.922 174.619C343.07 174.985 343.509 175.378 343.492 175.616C343.458 176.082 342.676 176.063 342.505 176.552C342.347 177.006 342.516 177.036 342.454 177.738C342.235 178.247 341.649 178.37 341.467 178.987C341.248 179.73 341.5 180.689 341 181.235C340.655 181.213 340.277 181.594 339.859 181.545C339.404 181.495 338.97 180.744 338.247 180.733C337.972 180.73 337.646 180.944 337.364 180.92C337.142 180.903 336.962 180.658 336.636 180.549Z" fill="white"/>
<path d="M333.276 179.16C334.597 179.16 334.597 181.624 333.276 181.624C331.954 181.624 331.954 179.16 333.276 179.16Z" fill="white"/>
<path d="M331.338 178.863C331.5 178.889 332.075 179.85 332.065 180.112C332.048 180.552 331.498 180.529 331.338 181.111C331.094 182.008 331.448 183.024 331.027 183.483C330.791 183.655 330.365 183.603 329.988 183.607C329.046 182.81 328.3 181.862 327.494 180.798C327.202 180.412 326.845 180.076 326.663 179.674C326.393 179.077 326.298 178.423 325.989 177.864C325.717 177.374 325.217 177.025 324.949 176.492C324.732 176.054 324.711 175.478 324.483 175.056C324.268 174.664 323.906 174.496 323.65 174.181C323.484 173.977 323.389 173.657 323.235 173.433C322.582 172.493 321.327 172.004 321.263 170.624C321.528 170.26 321.803 170.762 322.301 170.876C322.624 170.948 323.004 170.844 323.236 170.937C323.708 171.128 324.034 172.013 324.534 172.498C324.815 172.769 325.181 172.956 325.468 173.246C325.776 173.557 326.002 174.001 326.248 174.183C326.586 174.432 327.055 174.595 327.494 174.933C328.095 175.391 329.167 175.869 329.313 176.806C329.348 177.038 329.222 177.432 329.26 177.615C329.331 177.942 329.676 178.085 329.883 178.365C330.139 178.712 330.192 179.233 330.559 179.301C330.925 179.423 330.942 178.801 331.338 178.863Z" fill="white"/>
<path d="M306.822 165.757C307.27 165.934 308.762 168.113 308.329 169.316C308.205 169.657 307.691 170.098 307.186 170.001C306.158 169.805 306.354 167.055 306.667 165.945C306.696 165.855 306.748 165.791 306.822 165.757Z" fill="white"/>
<path d="M272.28 197.337C272.326 196.834 272.624 196.01 272.956 195.711C273.435 195.285 274.083 195.329 274.567 195.026C274.966 194.776 275.518 194.361 275.813 193.902C276.063 193.513 276.076 193.069 276.281 192.778C276.42 192.577 276.735 192.524 276.903 192.28C277.054 192.059 277.021 191.649 277.268 191.407C277.989 191.037 278.197 192.623 278.308 193.714C278.341 194.055 278.487 194.42 278.461 194.587C278.386 195.085 277.93 195.188 277.787 195.526C277.751 196.894 277.304 198.083 276.903 199.205C276.558 200.177 276.357 201.241 276.073 202.077C275.969 202.381 275.751 202.619 275.659 202.887C275.283 203.949 275.146 205.617 274.463 206.071C274.217 206.233 273.269 206.511 273.009 206.507C272.373 206.496 271.822 205.922 271.659 205.261C271.57 204.906 271.657 204.536 271.606 204.137C271.543 203.635 271.295 203.209 271.346 202.638C271.461 201.367 272.491 200.751 272.54 199.706C272.579 198.919 272.208 198.137 272.28 197.337Z" fill="white"/>
<path d="M247.248 108.529C247.308 109.576 245.917 109.445 245.74 110.339C245.662 110.744 245.903 111.285 245.846 111.65C245.739 112.305 245.212 112.115 244.548 112.461C244.208 112.637 243.879 113.286 243.509 113.333C243.166 113.378 242.958 113.094 242.73 113.147C242.389 113.224 242.503 113.727 242.002 113.833C241.603 113.916 240.906 113.404 240.86 114.02C240.83 114.416 241.487 114.63 241.899 114.581C242.225 114.543 242.464 114.273 242.781 114.269C243.396 114.262 243.796 114.818 244.184 114.831C245.076 114.861 245.951 113.841 246.886 113.956C247.308 114.008 247.56 114.367 247.872 114.331C248.373 114.273 248.8 113.579 249.171 113.331C249.013 112.28 249.185 110.894 250.003 110.835C250.563 110.796 251.406 111.989 251.508 110.835C251.553 110.334 251.065 109.891 250.729 109.899C250.43 109.906 250.038 110.609 249.793 110.024C249.794 109.452 250.329 109.603 250.625 109.461C250.846 109.355 251.002 109.067 251.249 108.962C252.484 108.441 254.197 109.474 254.677 108.214C253.581 107.09 251.715 108.624 250.47 108.526C249.939 108.485 249.238 108.01 249.068 107.402C249.014 107.21 249.059 106.951 249.015 106.592C248.968 106.194 248.796 105.776 248.808 105.529C248.861 104.402 251.196 104.191 251.196 102.784C250.751 102.271 249.443 102.357 249.015 102.909C248.862 103.107 248.87 103.509 248.652 103.908C248.185 104.761 246.681 104.862 246.211 105.905C246.106 106.137 245.923 106.77 246.002 107.153C246.124 107.748 247.212 107.907 247.248 108.529ZM234.886 169.564C233.389 169.301 231.859 170.026 230.834 170.561C230.242 170.872 229.641 171.345 229.12 171.374C228.627 171.402 228.142 171.058 227.667 171C227.048 170.923 226.254 170.994 225.64 171.124C225.043 171.252 224.504 171.765 223.979 171.81C222.972 171.901 222.014 170.72 221.381 170.125C220.995 169.764 220.601 169.466 220.239 169.128C219.85 168.763 219.347 168.542 219.044 168.191C218.635 167.715 218.635 166.887 218.42 166.256C218.168 165.512 217.398 164.966 216.811 164.259C216.371 163.731 215.363 162.942 215.252 162.263C215.197 161.915 215.376 161.515 215.356 161.139C215.328 160.592 214.986 160.281 214.992 159.89C215.003 159.341 215.541 158.918 215.668 158.454C215.734 158.217 215.702 157.883 215.771 157.58C215.917 156.947 216.266 156.572 216.187 155.645C216.155 155.276 215.891 154.939 215.875 154.461C215.864 154.132 216.055 153.949 216.03 153.649C215.991 153.116 215.415 153.012 215.355 152.401C215.294 151.769 215.857 151.247 216.187 150.529C216.334 150.207 216.416 149.713 216.55 149.468C216.841 148.937 217.316 148.68 217.538 148.156C217.701 147.771 217.753 147.198 217.901 146.909C218.093 146.537 218.473 146.337 218.836 145.848C219.131 145.449 219.251 144.967 219.459 144.787C219.72 144.56 220.11 144.505 220.393 144.35C221.355 143.824 222.058 143.146 222.522 142.039C222.38 141.036 222.594 140.611 222.937 139.918C223.255 139.277 223.487 138.664 224.028 138.295C224.677 137.854 225.288 137.812 225.741 136.986C225.968 136.572 226.308 135.856 226.313 135.425C226.318 134.807 225.785 134.016 225.325 133.927C224.856 133.838 224.134 134.355 223.871 133.741C223.787 133.543 223.903 133.084 223.871 132.867C223.811 132.458 223.519 132.17 223.507 131.868C223.482 131.282 223.988 130.673 224.13 129.996C224.324 129.076 224.136 128.372 224.077 127.312C224.804 125.935 226.417 126.619 228.025 126.749C228.266 126.77 228.543 126.679 228.804 126.687C229.757 126.713 230.508 127.058 230.83 126.063C230.951 125.689 231.058 124.294 230.986 123.941C230.901 123.523 230.218 122.44 229.894 122.194C229.379 121.8 228.631 121.972 228.336 121.258C228.576 120.026 229.724 121.052 230.413 120.758C230.765 120.609 230.725 119.878 231.038 119.759C231.251 119.679 231.522 120.016 231.817 120.009C232.068 120.002 232.981 119.453 233.219 119.259C233.55 118.99 233.653 118.43 233.946 118.199C234.144 118.043 234.405 118.062 234.621 117.95C235.063 117.721 235.622 117.256 235.92 116.826C236.349 116.207 236.541 115.441 237.062 115.328C237.759 115.175 239.335 115.493 239.452 114.578C239.564 113.706 238.814 113.02 239.089 112.082C239.306 111.339 239.861 111.47 240.647 111.02C241.026 111.343 240.916 112.267 240.958 112.831C241.44 112.835 242.423 112.659 242.516 112.144C242.633 111.501 241.813 110.847 241.633 110.46C241.439 110.039 241.397 109.3 241.011 109.212C240.219 109.029 239.451 110.521 238.465 110.521C237.817 110.521 237.129 109.921 236.959 109.336C236.862 109.002 236.95 108.686 236.906 108.336C236.843 107.826 236.588 107.296 236.699 106.589C237.096 105.771 238.013 105.637 238.672 105.215C238.921 105.056 239.122 104.716 239.4 104.592C239.866 104.384 240.554 104.593 241.011 104.28C241.299 104.084 241.218 103.742 241.426 103.343C241.556 103.093 241.873 102.946 242.049 102.658C242.171 102.457 242.185 102.154 242.309 101.97C242.759 101.296 243.584 101.047 243.918 100.348C244.065 100.039 243.662 99.9237 243.763 99.4741C243.931 99.0388 244.579 99.3584 244.957 99.2868C245.474 99.1909 245.951 98.4361 246.515 98.2895C247.103 98.1363 247.735 98.2289 248.281 97.9777C248.607 97.8267 248.908 97.4697 249.217 97.4146C249.326 97.3958 249.633 97.4851 249.788 97.4774C249.986 97.4686 250.2 97.3209 250.463 97.29C250.844 97.2438 251.318 97.4025 251.814 97.4146C252.635 97.4366 253.415 97.1181 254.099 97.4774C254.456 97.6647 254.416 98.1518 254.877 98.3501C255.109 98.4515 255.416 98.3105 255.76 98.3501C256.268 98.4085 256.801 98.8306 257.474 98.9132C257.714 98.9419 257.962 98.8769 258.2 98.9132C258.943 99.0223 259.758 99.4918 260.487 99.786C261.095 100.034 262.384 100.341 262.407 101.034C262.436 101.855 261.285 102.096 260.797 102.096C259.98 102.096 258.898 101.523 258.046 101.847C258.058 103.258 259.326 104.327 260.487 104.155C260.588 103.492 259.831 103.861 259.915 103.219C260.433 102.749 261.053 103.534 261.785 103.406C262.07 103.313 262.022 102.816 262.095 102.47C262.713 102.02 263.487 101.357 264.433 101.847C264.479 101.736 264.549 101.653 264.641 101.598C264.703 100.912 264.017 100.555 264.381 99.9116C264.562 99.4686 265.53 99.6218 265.679 99.9744C265.754 100.396 265.439 100.351 265.471 100.723C265.655 101.221 266.078 101.299 266.303 101.285C266.813 101.252 266.914 100.703 267.394 100.41C267.588 100.292 267.872 100.279 268.12 100.161C268.414 100.021 268.663 99.7364 268.899 99.6615C269.072 99.6064 269.333 99.6615 269.574 99.5986C269.881 99.5204 270.205 99.224 270.457 99.2251C270.77 99.2251 270.995 99.6604 271.392 99.7243C271.609 99.7595 271.855 99.5766 272.171 99.5369C272.425 99.5039 272.689 99.5733 272.898 99.5369C273.394 99.4499 273.734 99.1369 274.145 99.1623C274.435 99.181 274.932 99.6504 275.132 99.4124C275.468 99.0113 274.683 98.7138 274.926 98.3501C275.722 98.4229 276.569 98.4008 277.367 98.5375C278.554 98.7402 279.672 99.4466 280.742 99.4741C280.64 98.6069 279.814 98.8559 279.444 98.4758C279.331 98.359 278.866 97.4454 278.873 97.1644C278.875 97.0234 279.46 95.8234 279.6 95.6669C280.057 95.1501 281.559 95.1534 281.989 95.8531C282.283 96.3324 282.185 97.0542 282.612 97.0399C282.979 97.0267 283.174 95.9435 283.599 95.9159C283.951 95.8939 284.129 96.6112 284.482 96.6035C284.913 96.5925 285.211 95.6294 285.781 95.6041C286.088 95.5897 286.19 95.7936 286.664 95.8531C286.989 95.6018 286.556 95.2713 286.716 94.9164C287.297 94.4095 288.623 94.7952 289.364 94.4801C289.572 94.1836 289.1 93.9743 289.313 93.6679C289.953 93.1302 291.028 93.0817 292.118 92.858C292.784 92.7213 293.412 92.1648 293.934 92.1075C294.48 92.0491 295.001 92.4921 295.492 92.4822C295.792 92.4756 296.139 92.3676 296.428 92.2332C296.72 92.0954 296.919 91.7549 297.208 91.6712C297.663 91.5367 298.24 91.7351 298.766 91.6712C299.324 91.6028 299.817 91.3428 300.22 91.4221C300.597 91.4949 300.901 91.9786 301.259 92.0458C302.353 92.2508 303.483 91.8486 304.479 92.1704C304.657 92.2288 304.837 92.4514 305.051 92.5461C305.719 92.8393 306.174 92.7478 306.298 93.7307C306.823 93.9544 307.131 94.533 307.752 94.7302C308.166 94.8602 308.583 94.6674 309.05 94.6674C309.664 94.6674 310.449 94.696 310.972 94.7919C311.269 94.847 311.515 95.1104 311.804 95.1677C312.013 95.2085 312.292 95.1412 312.53 95.1677C312.855 95.204 313.147 95.3649 313.412 95.355C313.957 95.3341 314.37 94.7511 314.814 94.6674C315.053 94.6233 315.371 94.7699 315.593 94.7919C316.468 94.8801 317.476 94.6553 318.191 94.8558C318.572 94.9627 319.224 95.4674 319.645 95.8531C319.95 96.133 320.136 96.5793 320.424 96.7887C320.698 96.987 321.39 97.3441 321.672 97.289C322.003 97.2261 322.018 96.782 322.346 96.6035C323.377 96.328 325.206 96.998 326.034 96.5407C326.355 96.3622 326.292 95.9545 326.553 95.7297C328.111 95.6382 329.665 95.8068 331.124 95.8542C331.638 95.8718 332.168 95.6966 332.632 95.7925C333.145 95.9005 333.521 96.5187 334.032 96.7281C334.373 96.8669 334.973 96.7942 335.487 96.9154C335.832 96.9958 336.114 97.2449 336.37 97.289C336.925 97.3837 337.455 97.2151 337.982 97.1644C339.173 97.0487 340.704 96.9738 341.877 97.5391C342.502 97.8399 342.764 98.4482 343.434 98.5364C344.394 98.6642 345.881 98.4416 346.863 98.5364C347.098 98.5595 347.317 98.6763 347.486 98.6609C347.816 98.6322 348.016 98.2961 348.422 98.2873C348.935 98.273 349.754 99.2504 350.501 99.0984C350.823 98.8372 350.243 98.4736 350.551 98.2245C350.844 97.9325 351.244 98.2212 351.694 98.2245C351.94 98.2278 352.242 98.0746 352.474 98.1C353.044 98.1595 353.585 98.7755 354.291 98.9727C354.85 99.1303 355.621 99.1887 356.317 99.0984C356.815 99.0322 357.244 98.8306 357.719 98.911C357.949 98.9496 358.153 99.1491 358.393 99.224C358.615 99.2912 358.832 99.2262 359.017 99.2857C359.19 99.3419 359.362 99.538 359.537 99.5975C360.502 99.9303 361.788 100.093 362.81 100.472C363.41 100.695 364.024 101.142 364.525 101.158C364.77 101.168 364.988 101.03 365.304 101.033C366.873 101.047 368.719 101.831 368.574 103.593C366.738 104.077 365.201 102.074 363.276 102.658C362.969 102.75 362.628 103.156 362.655 103.53C362.726 104.618 365.006 104.527 365.198 105.59C364.824 105.926 364.417 105.609 364.108 105.653C363.64 105.719 362.851 106.313 362.55 106.651C362.198 107.047 361.89 108.059 361.512 108.15C361.048 108.259 360.339 107.6 359.642 107.775C359.386 107.84 359.14 108.223 358.916 108.274C358.343 108.405 357.613 107.9 357.255 108.711C357.443 109.282 357.329 110.075 357.721 110.396C357.975 110.604 358.292 110.443 358.604 110.583C358.968 110.747 359.17 111.282 359.485 111.582C359.743 111.827 360.019 111.834 360.162 112.143C360.195 112.603 360.01 112.654 360.057 112.954C360.139 113.478 360.82 113.596 360.836 113.952C360.859 114.402 360.408 114.306 360.318 114.764C360.285 115.054 360.598 115.131 360.629 115.512C360.65 115.768 360.457 116.033 360.474 116.324C360.496 116.74 360.769 117.017 360.733 117.384C360.703 117.699 360.474 117.945 360.264 118.072C359.27 117.304 358.375 116.246 357.305 115.263C356.209 114.255 354.472 113.016 354.293 110.895C354.287 110.57 354.866 110.315 354.968 109.834C355.01 109.636 354.903 109.356 354.917 109.085C354.953 108.353 355.457 107.648 355.437 107.213C355.411 106.735 354.671 105.848 354.293 105.715C353.991 105.905 354.29 106.283 354.241 106.589C354.18 106.966 353.8 107.426 353.462 107.462C352.479 107.565 352.369 105.942 350.812 106.401C350.41 106.521 349.843 107.251 349.982 108.149C350.025 108.421 350.65 108.714 350.605 109.084C350.562 109.444 349.19 109.549 348.89 109.521C348.052 109.44 347.621 108.686 346.866 108.709C346.494 108.72 346.169 109.082 345.878 109.145C344.243 109.504 341.815 108.177 341.258 109.893C341.177 110.136 341.223 110.453 341.153 110.705C341.053 111.066 340.813 111.35 340.738 111.579C340.675 111.772 340.685 112.151 340.581 112.452C340.488 112.724 339.505 113.79 340.374 114.075C340.581 114.141 340.678 113.968 340.946 114.012C341.392 114.085 342.134 114.946 342.658 114.948C342.971 114.95 343.406 114.525 343.645 114.511C344.126 114.483 344.473 114.856 344.839 115.072C345.189 115.278 345.723 115.713 345.983 115.696C346.473 115.666 346.239 115.257 346.71 115.072C347.608 115.392 348.029 116.536 348.891 117.444C349.204 117.771 349.666 118.053 350.087 118.505C350.321 118.757 351.044 119.433 351.074 119.753C351.102 120.051 350.871 120.179 350.813 120.44C350.729 120.82 350.925 121.099 350.709 121.376C349.881 121.007 349.694 120.026 349.099 119.191C348.879 118.881 348.656 118.512 348.321 118.067C348.169 117.867 347.618 117.164 347.281 117.319C346.628 117.617 347.639 118.807 347.801 119.067C348.146 119.617 348.603 120.357 348.634 120.939C348.653 121.311 348.433 121.987 348.426 122.624C348.422 123.054 348.516 123.445 348.478 123.81C348.438 124.176 348.222 124.593 348.113 124.997C347.991 125.454 347.963 126 347.854 126.306C347.652 126.868 346.973 127.53 346.502 127.554C346.071 127.576 345.886 127.155 345.463 127.181C344.824 127.217 344.706 127.924 344.321 128.49C344.354 129.105 344.514 129.315 344.425 129.738C344.285 130.399 343.519 130.515 343.542 131.173C343.563 131.784 344.242 131.901 344.58 132.173C345.044 132.543 345.855 133.367 346.296 134.045C346.585 134.489 347.001 135.32 346.971 135.791C346.932 136.41 345.453 137.268 344.84 137.04C344.26 136.824 344.459 136.157 344.322 135.543C344.217 135.071 343.908 134.868 343.753 134.482C343.67 134.281 343.707 133.961 343.595 133.734C343.282 133.099 342.734 133.445 342.088 133.046C341.664 132.785 341.788 132.235 341.621 131.735C341.399 131.064 340.457 130.747 339.701 130.925C339.144 131.054 338.971 131.615 338.453 131.735C337.692 131.193 338.61 129.855 337.674 129.738C336.958 129.648 336.483 130.974 336.063 131.361C335.78 131.622 335.266 131.674 335.233 132.047C335.172 132.736 335.838 132.596 336.374 132.859C336.861 133.098 336.917 133.76 337.361 133.795C337.733 133.824 337.979 133.335 338.348 133.295C338.986 133.227 339.505 133.573 339.906 133.857C339.647 134.613 338.248 135.169 338.244 136.166C338.242 136.745 338.802 136.844 339.231 137.227C339.594 137.55 340.071 138.462 340.581 139.099C340.802 139.374 341.159 139.555 341.258 139.723C341.498 140.135 341.459 140.639 341.724 140.91C341.768 141.252 341.594 141.335 341.62 141.658C341.749 142.108 342.323 142.023 342.452 142.47C342.345 143.547 342.719 144.56 341.985 144.966C341.647 146.897 341.264 148.407 340.167 149.459C339.18 150.403 337.876 150.682 336.686 151.144C336.377 151.264 336.13 151.654 335.856 151.768C335.165 152.05 333.934 151.878 333.884 152.892C333.855 153.392 334.41 153.693 334.454 154.202C334.519 154.983 333.938 155.77 333.519 155.825C333.217 155.865 332.567 155.612 332.531 154.95C332.491 154.206 333.299 153.902 333.363 153.452C333.474 152.658 332.793 151.884 332.013 151.955C331.327 152.017 329.767 153.671 329.729 154.576C329.699 155.252 330.843 156.659 331.234 157.072C332.692 158.617 334.242 159.543 333.986 163.313C333.621 164.268 332.69 164.471 331.961 164.998C331.405 165.398 331.129 166.64 330.194 166.745C329.818 166.591 330.038 165.886 329.934 165.56C329.792 165.112 329.049 164.893 328.584 164.436C328.204 164.061 328.044 163.469 327.753 163.124C327.39 162.695 326.846 162.604 326.402 162.313C326.124 162.13 325.905 161.488 325.623 161.503C325.166 161.525 325.325 162.055 325.209 162.937C325.093 163.805 324.566 164.472 324.741 165.497C324.814 165.916 325.25 166.255 325.467 166.683C325.828 167.39 325.878 168.214 326.247 168.618C326.49 168.884 326.905 168.943 327.181 169.178C327.732 169.651 328.701 170.676 328.896 171.239C329.122 171.896 328.904 172.671 329.051 173.361C329.224 174.16 330.094 174.732 329.573 175.546C329.076 175.435 328.641 175.044 328.221 174.733C327.506 174.202 327.179 173.745 326.714 172.861C326.578 172.602 326.376 172.35 326.299 172.113C326.118 171.553 326.157 170.92 325.988 170.241C325.843 169.656 325.278 168.732 324.844 168.242C324.481 167.83 323.834 167.588 323.806 166.994C323.769 166.157 324.042 165.173 324.014 164.185C324.008 163.973 323.888 163.758 323.859 163.5C323.804 163.021 323.899 162.434 323.805 162.001C323.72 161.602 323.478 161.243 323.338 160.88C323.199 160.52 323.057 160.16 322.923 159.693C322.712 158.971 322.476 157.579 321.988 157.509C321.467 157.434 320.953 158.681 320.273 158.696C319.925 158.702 319.46 158.366 319.391 157.945C319.324 157.562 319.555 157.176 319.547 156.759C319.527 155.923 319.032 155.599 318.663 155.012C318.513 154.774 318.474 154.44 318.35 154.263C318.114 153.924 317.663 153.736 317.364 153.391C317.08 153.06 316.767 152.584 316.637 152.267C316.436 151.779 316.371 151.145 316.066 151.08C315.774 151.018 315.436 151.523 315.132 151.642C314.815 151.766 314.037 151.927 313.729 151.954C312.686 152.041 311.84 151.707 311.963 153.202C311.801 153.873 311.211 153.881 310.82 154.2C310.323 154.606 309.96 155.42 309.418 156.072C309.154 156.39 308.772 156.589 308.535 156.884C308.337 157.13 308.275 157.524 308.067 157.759C307.513 158.388 306.682 158.441 306.303 159.319C306.281 160.356 306.71 161.141 306.613 162.126C306.568 162.576 306.289 162.973 306.249 163.437C306.216 163.834 306.384 164.262 306.303 164.686C306.256 164.913 306.047 165.032 305.886 165.309C305.742 165.559 305.683 165.889 305.576 166.058C305.4 166.327 305.114 166.514 304.951 166.745C304.687 167.12 304.632 167.388 304.38 167.432C303.241 167.629 302.961 165.027 302.459 163.936C302.226 163.436 301.755 162.983 301.523 162.376C301.258 161.676 301.176 160.798 300.796 160.005C300.473 159.327 300.028 158.648 299.81 157.945C299.625 157.351 299.465 156.607 299.291 155.948C299.106 155.252 298.905 154.376 298.875 153.827C298.832 153.017 299.005 152.518 298.459 152.204C297.959 152.346 297.735 152.952 297.161 152.952C296.607 152.952 295.119 151.798 295.552 150.768C295.189 150.15 294.275 149.812 293.577 149.083C293.178 148.666 292.818 147.67 292.124 147.587C291.932 147.562 291.683 147.692 291.5 147.711C291.06 147.757 290.281 147.664 289.785 147.711C289.163 147.771 288.393 147.939 287.605 147.836C287.097 147.77 286.466 147.652 285.943 147.587C285.278 147.504 284.394 147.316 284.022 146.899C283.792 146.643 283.698 145.826 283.293 145.713C282.811 145.579 282.547 146.026 282.099 146.15C281.147 146.412 280.353 145.915 279.709 145.402C279.253 145.038 278.837 144.848 278.515 144.59C277.724 143.955 277.583 142.045 276.385 142.031C275.968 142.026 275.303 142.339 275.242 142.906C275.201 143.303 275.636 144.041 275.814 144.341C276.397 145.328 277.467 145.698 277.787 147.024C278.002 147.125 278.441 146.797 278.67 147.086C278.871 147.655 278.668 148.711 279.137 148.959C281.296 149.387 281.913 147.966 282.878 146.962C283.438 147.402 283.253 147.786 283.449 148.271C283.649 148.769 283.96 149.159 284.332 149.333C284.593 149.453 284.928 149.341 285.319 149.52C285.564 149.632 286.589 150.796 286.618 151.206C286.645 151.572 285.945 152.822 285.733 153.138C285.527 153.448 285.209 153.608 285.111 153.887C285.037 154.103 285.061 154.561 285.007 154.699C284.911 154.948 284.445 155.272 284.175 155.571C283.892 155.89 283.562 156.138 283.293 156.384C282.964 156.687 282.762 157.102 282.41 157.259C281.719 157.565 281.061 157.434 280.488 157.882C280.114 158.175 280.111 158.837 279.658 159.191C279.183 159.562 278.371 159.565 277.683 159.942C277.241 160.183 276.975 160.651 276.594 160.815C276.437 160.881 276.242 160.824 276.073 160.877C275.728 160.983 275.408 161.277 275.085 161.375C274.83 161.454 274.557 161.415 274.306 161.501C273.506 161.779 272.773 162.756 271.969 162.187C271.59 161.135 271.528 159.812 271.086 158.878C270.86 158.402 270.417 158.256 270.257 157.757C270.234 157.354 270.637 157.465 270.671 157.133C270.539 156.459 270.009 156.143 269.685 155.571C269.526 155.293 269.452 154.895 269.269 154.574C268.65 153.492 267.429 152.929 267.191 151.578C267.127 151.211 267.202 150.922 267.14 150.641C267.038 150.18 266.779 149.695 266.516 149.332C266.318 149.054 265.913 148.866 265.686 148.457C265.535 148.188 265.502 147.808 265.374 147.522C264.857 146.364 264.11 145.341 263.297 144.525C262.873 144.599 262.418 144.635 262.207 144.964C262.417 145.781 262.741 146.464 263.089 147.148C263.407 147.771 263.857 148.442 264.076 149.145C264.157 149.405 264.143 149.744 264.232 150.018C264.558 151.007 265.585 151.311 265.79 152.453C265.928 153.218 265.761 153.747 265.947 154.511C266.125 155.245 267.028 155.678 267.401 156.384C267.705 156.959 267.708 157.772 267.92 158.319C268.231 159.12 269.101 159.466 269.739 160.004C270.311 160.487 270.72 161.232 271.192 161.751C271.47 162.054 271.852 162.109 271.919 162.439C272.008 162.861 271.772 163.003 271.711 163.373C272.11 163.873 272.498 164.795 273.166 164.872C273.44 164.904 273.786 164.571 274.205 164.497C274.416 164.461 274.652 164.537 274.827 164.497C275.104 164.438 275.345 164.141 275.661 164.061C276.191 163.924 276.805 163.979 277.478 163.874C278.112 163.774 278.55 163.13 279.036 163.313C279.569 164.017 279.187 164.816 279.036 165.497C278.983 165.736 278.983 165.984 278.933 166.184C278.652 167.295 277.918 168.118 277.58 169.117C277.477 169.423 277.495 169.798 277.374 170.114C276.987 171.115 276.181 172.102 275.555 172.923C275.202 173.385 274.891 173.802 274.517 174.17C274.144 174.538 273.689 174.739 273.269 175.107C272.438 175.839 271.572 176.887 270.985 177.854C270.758 178.229 270.65 178.661 270.413 178.978C270.075 179.432 269.551 179.656 269.271 180.102C269.05 180.454 268.902 181.091 268.648 181.724C268.362 182.438 267.765 182.92 267.87 183.908C267.908 184.286 268.19 184.522 268.285 184.908C268.446 185.573 268.323 186.132 268.232 186.842C268.526 187.698 268.737 188.65 269.271 189.213C269.335 190.476 269.184 191.701 269.271 192.77C269.326 193.451 269.547 193.953 269.323 194.58C269.127 195.133 268.372 196.106 267.921 196.452C267.431 196.832 266.681 196.931 266.155 197.39C265.789 197.708 265.486 198.266 265.116 198.639C264.504 199.253 263.665 199.826 263.611 200.449C263.58 200.807 263.845 201.349 263.921 201.695C264.125 202.617 264.321 203.942 263.974 204.939C263.597 206.019 261.693 205.795 261.481 206.936C261.417 207.283 261.607 207.56 261.584 207.935C261.565 208.254 261.218 209.401 261.064 209.745C260.835 210.262 260.312 210.493 259.974 210.932C259.549 211.485 259.334 212.285 258.883 212.866C258.271 213.657 257.443 214.491 256.65 215.175C255.96 215.774 254.721 216.395 253.638 216.487C253.006 216.541 252.331 216.308 251.664 216.425C251.421 216.466 251.155 216.736 250.832 216.798C250.645 216.835 250.453 216.759 250.262 216.798C249.935 216.865 249.629 217.176 249.326 217.173C248.653 217.163 247.789 216.199 247.768 215.239C247.76 214.869 248.031 214.517 248.028 214.177C248.022 213.779 247.616 213.279 247.299 212.554C246.996 211.857 246.877 211.067 246.573 210.497C246.25 209.889 245.825 209.6 245.587 209.123C245.109 208.163 245.074 207.027 244.912 205.877C244.859 205.502 244.646 205.095 244.6 204.628C244.543 204.055 244.657 203.418 244.549 202.944C244.465 202.578 244.128 202.206 243.924 201.758C243.558 200.949 243.3 199.891 242.99 199.263C242.697 198.673 242.107 198.06 242.054 197.391C242.019 196.937 242.102 196.09 242.158 195.643C242.214 195.204 242.484 194.857 242.573 194.396C242.633 194.088 242.561 193.736 242.624 193.396C242.888 191.968 244.197 191.448 244.027 189.713C243.954 188.977 243.521 188.615 243.455 187.778C243.425 187.387 243.617 187.044 243.61 186.655C243.601 186.129 243.23 185.346 243.038 184.846C242.511 183.47 242.19 182.21 241.428 181.164C241.014 180.594 240.471 180.191 240.13 179.666C239.851 179.237 239.511 178.435 239.506 178.106C239.501 177.751 239.735 177.528 239.818 177.17C239.927 176.71 239.935 175.839 240.078 175.11C240.144 174.776 240.444 173.968 240.391 173.425C240.338 172.903 239.692 171.904 239.144 171.74C238.419 171.524 237.672 172.019 236.755 171.928C235.967 171.335 236.025 169.765 234.886 169.564ZM263.608 191.906C263.849 191.448 264.151 190.159 263.608 189.847C263.573 189.847 263.539 189.847 263.505 189.847C263.273 190.365 263.027 191.616 263.608 191.906ZM262.881 178.862C263.057 178.43 263.468 177.974 263.4 177.429C263.25 176.225 261.379 176.818 261.168 177.678C261.024 178.256 261.252 178.715 261.063 179.301C261.267 179.763 261.78 179.854 262.414 179.799C262.764 179.614 262.72 179.259 262.881 178.862ZM259.713 185.292C259.919 184.834 259.385 184.534 259.298 184.043C259.195 183.468 259.414 182.791 258.985 182.482C258.934 182.482 258.881 182.482 258.83 182.482C258.453 183.505 258.986 185.193 259.713 185.292ZM295.135 123.319C294.94 122.848 294.378 123.458 294.617 123.882C294.969 123.909 295.096 123.664 295.135 123.319ZM283.035 125.878C283.877 125.682 283.044 124.065 282.411 124.255C281.584 124.504 282.461 126.011 283.035 125.878ZM279.191 133.929C279.45 131.765 278.047 131.603 277.788 130.06C277.907 130.079 277.846 129.88 277.945 129.873C278.285 129.675 278.801 130.188 278.982 129.686C278.986 128.947 278.205 128.396 277.424 128.751C277.199 128.565 277.168 128.144 277.113 127.751C276.524 127.331 275.067 126.41 275.086 125.566C275.103 124.873 275.848 124.484 276.696 124.506C277.054 124.18 276.824 123.177 276.489 122.946C275.146 122.592 274.431 122.83 273.58 123.57C273.172 123.924 272.717 124.169 272.489 124.381C272.28 124.577 271.999 125.111 272.023 125.378C272.055 125.764 272.516 125.991 272.698 126.502C272.791 126.765 272.771 127.095 272.854 127.313C273.081 127.915 273.662 128.304 274.1 128.81C274.41 129.169 275.278 129.943 275.295 130.371C275.31 130.727 275.028 130.806 274.932 131.183C274.834 131.552 274.722 132.424 274.777 132.743C274.89 133.429 275.481 133.453 276.021 133.743C276.558 134.029 277.074 134.537 277.632 134.553C278.227 134.571 278.858 134.343 279.191 133.929ZM266.985 129.435C268.392 129.13 267.75 127.7 267.037 127.189C266.496 126.802 265.85 126.464 265.218 126.003C264.853 125.735 263.462 125.229 263.453 124.694C263.442 124.107 264.488 123.916 264.076 122.883C263.365 122.675 261.674 123.003 261.791 123.944C261.859 124.487 262.394 124.187 262.517 124.755C262.009 124.972 261.39 125.543 260.856 125.443C260.22 125.323 260.056 124.384 259.714 123.82C259.219 123.84 258.894 123.244 258.311 123.32C257.701 123.401 257.377 124.467 257.064 125.006C256.899 125.29 256.635 125.436 256.544 125.692C256.491 125.846 256.549 126.092 256.493 126.316C256.315 127.009 255.814 127.263 255.868 127.876C255.917 128.416 256.406 128.659 256.441 129.124C256.407 129.604 255.767 129.355 255.818 129.937C256.748 130.859 256.798 129.501 257.272 129.313C257.652 129.16 258.398 129.439 258.881 129.313C259.271 129.21 259.577 128.764 260.024 128.565C260.296 128.441 260.634 128.332 261.011 128.313C262.664 128.232 263.731 129.523 265.167 129.562C265.642 129.573 266.492 129.542 266.985 129.435ZM263.66 136.8C263.689 136.13 263.448 135.625 263.4 134.678C262.441 133.983 261.725 135.323 260.752 135.176C260.154 135.086 259.725 134.25 259.09 134.366C258.74 134.429 258.567 134.974 258.206 135.052C257.463 135.216 257.126 134.338 256.337 134.678C255.225 133.66 254.728 132.003 254.467 130.122C253.86 129.166 252.936 129.943 252.493 130.558C252.22 130.555 251.879 130.377 251.819 130.745C251.614 131.899 253.176 132.022 253.168 132.805C253.163 133.314 252.559 133.267 252.286 133.615C251.996 133.985 252.189 134.315 251.82 134.551C250.795 134.699 250.455 134.026 250.469 132.928C250.027 132.122 249.468 131.534 249.067 130.869C248.918 130.623 248.697 130.24 248.652 129.869C248.615 129.577 248.767 129.207 248.704 128.872C248.592 128.276 247.669 127.827 247.093 127.499C246.48 127.148 245.71 126.815 245.275 126.375C244.967 126.063 244.821 125.521 244.549 125.315C244.316 125.14 244.028 125.176 243.821 125.003C243.536 124.764 243.584 124.365 243.198 124.253C243.003 124.167 242.701 124.486 242.575 124.691C242.322 126.053 243.244 126.146 243.665 126.75C243.955 127.164 244.099 127.789 244.394 128.061C244.708 128.353 245.133 128.299 245.536 128.497C245.815 128.634 245.996 129.051 246.264 129.246C246.759 129.608 247.556 129.671 247.615 130.37C247.306 130.622 246.607 130.003 246.368 130.621C246.307 131.025 246.636 131.234 246.628 131.618C246.615 132.233 246.047 132.906 245.536 132.805C245.486 132.439 245.807 132.141 245.796 131.743C245.774 130.948 244.445 129.737 243.771 129.372C243.455 129.201 243.07 129.192 242.784 128.998C242.273 128.653 241.38 127.804 241.069 127.313C240.698 126.721 240.38 125.628 239.564 125.69C239.23 125.715 238.955 126.082 238.681 126.252C238.432 126.405 238.157 126.546 237.902 126.75C237.599 126.991 237.353 127.235 237.07 127.249C236.418 127.282 235.864 126.667 235.305 126.813C235.116 126.862 234.959 127.065 234.733 127.313C234.725 127.677 234.823 127.91 234.786 128.31C234.616 128.662 234.115 128.64 233.746 128.873C233.209 129.214 232.729 129.913 232.292 130.434C232.01 130.768 231.755 131.044 231.72 131.307C231.692 131.514 231.865 131.905 231.825 132.182C231.778 132.483 231.308 133.107 230.993 133.368C230.809 133.519 230.565 133.54 230.369 133.68C229.96 133.972 229.776 134.351 229.435 134.428C228.527 134.632 226.877 134.209 226.89 135.365C226.898 136.136 227.765 136.14 228.293 136.113C229.027 136.079 229.652 136.3 230.058 136.176C230.339 136.091 230.646 135.712 230.941 135.552C231.127 135.452 231.32 135.45 231.46 135.365C231.771 135.178 231.947 134.873 232.188 134.741C232.663 134.481 233.547 134.277 234.057 134.242C234.757 134.192 235.49 134.329 236.394 134.242C236.717 134.212 237.036 133.963 237.382 133.93C237.947 133.877 238.691 134.198 239.147 134.18C239.463 134.167 239.816 133.799 240.186 133.806C240.605 133.814 241.046 134.171 241.121 134.493C241.164 134.676 241.033 134.967 241.068 135.243C241.128 135.695 241.452 135.884 241.433 136.178C241.405 136.569 240.595 137.091 240.704 137.551C240.776 137.846 241.358 138.156 241.64 138.362C241.935 138.578 242.433 138.878 242.783 138.923C243.077 138.963 243.336 138.825 243.615 138.861C244.062 138.92 244.786 139.246 245.069 139.485C245.557 139.898 245.489 140.56 246.055 140.794C246.297 140.896 246.732 140.838 247.042 140.921C247.799 141.118 248.36 141.871 248.912 141.794C249.781 141.672 249.385 140.687 249.484 139.984C249.705 138.391 252.296 138.464 252.807 139.546C253.186 139.667 253.518 139.564 253.95 139.733C254.199 139.831 254.385 140.158 254.625 140.232C254.806 140.287 255.069 140.2 255.301 140.232C256.297 140.368 257.198 141.258 258.055 141.105C258.597 141.009 258.99 140.396 259.508 140.357C260.502 140.283 261.138 141.246 262.21 140.793C262.998 140.46 262.823 139.478 263.093 138.485C263.277 137.792 263.638 137.321 263.66 136.8ZM319.652 115.519C319.858 114.724 319.538 113.922 319.133 113.397C318.533 113.522 318.966 114.271 318.926 114.709C318.867 115.328 318.319 115.759 318.354 116.394C318.154 116.673 317.814 116.785 317.783 117.266C318.113 117.541 318.258 117.05 318.51 116.767C318.907 116.319 319.514 116.054 319.652 115.519ZM306.044 93.863C305.472 93.863 305.257 94.134 304.901 94.3621C304.706 94.4867 304.308 94.5561 304.434 94.923C304.933 94.8514 305.925 94.5803 306.044 93.863ZM284.126 101.539C285.347 101.881 285.92 100.225 285.112 99.2923C284.922 99.0752 284.286 98.9893 284.023 98.4824C283.705 97.873 283.749 97.0575 282.983 97.2349C282.975 97.3077 282.992 97.4113 282.93 97.4212C282.859 98.7854 284.511 99.1292 284.488 100.229C284.476 100.805 283.969 100.867 284.126 101.539Z" fill="white"/>
<path d="M267.034 99.1675C266.883 98.492 267.949 98.6011 267.762 99.2303C267.596 99.4176 267.141 99.4022 267.034 99.1675Z" fill="white"/>
<path d="M260.65 136.487C260.675 135.972 261.652 135.783 261.844 136.238C261.779 136.74 260.851 137.084 260.65 136.487Z" fill="white"/>
<path d="M242.833 133.119C243.375 132.592 244.58 132.949 245.327 132.932C245.187 133.409 245.165 134.029 244.858 134.305C244.007 134.118 243.213 133.867 242.833 133.119Z" fill="white"/>
<path d="M239.04 129.811C239.753 128.917 240.502 129.389 240.235 131.122C240.064 131.638 239.322 132.328 238.987 131.559C239.102 130.954 239.053 130.508 239.04 129.811Z" fill="white"/>
<path d="M240.078 127.814C240.138 128.342 239.954 128.579 239.715 128.75C239.03 128.604 239.552 127.128 240.078 127.814Z" fill="white"/>
<path d="M230.002 115.145C230.062 114.789 229.83 114.345 229.533 114.146C229.362 114.031 229.101 114.084 228.91 113.958C228.404 113.624 228.22 112.928 227.923 112.773C227.961 112.088 227.767 111.593 227.923 111.149C228.017 110.88 228.699 110.119 229.066 109.964C229.52 109.772 229.994 109.944 230.261 109.527C230.38 109.506 230.46 109.536 230.521 109.589C230.518 109.982 230.242 110.047 230.209 110.4C230.273 110.968 231.105 110.613 231.195 111.148C231.117 111.731 230.679 111.847 230.676 112.272C230.675 112.643 231.305 113.346 231.61 113.833C231.839 114.193 232.237 114.462 232.442 114.832C232.621 115.155 232.659 115.54 232.806 115.705C233.078 116.016 233.695 116.067 233.742 116.516C233.802 117.112 233.124 117.347 233.221 118.013C232.509 118.687 231.318 118.339 230.156 118.514C229.63 118.594 229.051 119.222 228.494 118.701C228.365 118.282 228.956 118.225 229.013 117.828C228.972 117.46 228.584 117.512 228.494 117.205C228.645 116.72 229.116 116.621 229.066 115.893C229.356 115.513 229.913 115.656 230.002 115.145Z" fill="white"/>
<path d="M226.108 113.646C226.801 113.136 228.013 113.525 228.08 114.145C228.131 114.613 227.712 114.68 227.561 115.206C227.427 115.683 227.587 116.251 227.406 116.58C227.247 116.865 226.816 116.848 226.522 116.954C225.868 117.188 224.607 118.111 224.081 117.078C224.157 116.525 224.603 116.415 224.757 115.956C224.765 115.596 224.446 115.405 224.496 115.021C224.559 114.549 224.855 114.711 225.276 114.52C225.581 114.381 225.712 113.936 226.108 113.646Z" fill="white"/>
<path d="M190.633 100.104C190.742 100.659 189.266 101.383 189.125 100.667C189.014 100.092 190.257 99.3762 190.633 100.104Z" fill="white"/>
<path d="M188.919 240.77C188.659 240.77 188.4 240.77 188.14 240.77C188.28 240.668 188.778 240.668 188.919 240.77Z" fill="white"/>
<path d="M186.577 95.6738C186.644 95.5866 186.823 95.5866 186.891 95.6738C186.839 95.8206 186.799 95.9806 186.577 95.9232C186.577 95.8393 186.577 95.7566 186.577 95.6738Z" fill="white"/>
<path d="M181.96 105.596C181.971 105.939 180.928 106.508 180.816 105.845C180.797 105.728 180.821 105.494 181.024 105.347C181.302 105.143 181.949 105.258 181.96 105.596Z" fill="white"/>
<path d="M160.348 163.574C160.321 163.666 160.271 163.731 160.245 163.824C159.691 163.8 160.191 162.951 160.348 163.574Z" fill="white"/>
<path d="M139.262 119.95C139.627 119.694 139.976 120.334 139.731 120.636C139.33 120.73 139.227 120.179 139.262 119.95Z" fill="white"/>
<path d="M195.878 122.26C195.636 122.187 195.305 122.201 194.995 122.135C194.731 122.079 194.416 121.984 194.166 121.948C193.524 121.856 192.83 122.08 192.451 121.636C193.069 120.65 193.89 119.677 194.685 118.827C194.92 118.574 195.428 118.401 195.307 117.892C194.865 117.425 194.322 117.92 193.906 118.203C193.468 118.5 192.946 118.926 192.451 119.016C191.591 119.169 190.452 118.712 189.75 119.265C189.653 119.736 190.549 119.553 190.424 120.264C190.081 120.331 189.756 120.364 189.49 120.077C189.249 119.816 189.386 119.423 189.23 119.266C188.963 119.001 187.963 118.928 187.515 119.017C186.97 119.124 186.487 119.516 186.424 120.077C187.08 120.446 188.161 119.697 188.398 120.64C188.039 121.417 187.192 121.844 187.307 122.886C187.352 123.288 187.749 123.824 188.035 123.885C188.322 123.945 188.484 123.603 188.763 123.634C189.056 123.667 188.99 124.07 189.335 124.008C189.835 123.752 190.112 122.908 190.685 122.947C191.372 123.95 190.064 124.438 189.335 124.757C188.503 125.119 187.423 125.312 186.789 125.632C186.457 125.799 185.201 127.258 185.024 126.13C184.896 125.317 185.645 125.551 185.803 124.881C184.998 124.694 184.249 125.298 183.517 125.632C182.474 126.107 180.704 126.407 180.452 127.816C180.402 128.098 180.554 128.626 180.401 128.813C180.277 128.964 179.532 128.992 179.205 129.125C178.705 129.331 178.268 129.773 177.958 129.873C177.724 129.95 177.38 129.928 177.231 129.999C176.818 130.19 176.665 130.863 176.192 131.308C175.998 131.491 175.568 131.623 175.413 131.807C175.144 132.129 175.108 132.933 174.633 133.054C174.331 133.086 174.087 132.782 173.801 132.992C173.767 133.787 174.035 134.87 173.751 135.675C173.136 136.277 172.46 136.704 171.674 137.235C171.237 137.53 170.848 137.606 170.323 137.922C169.95 138.145 169.609 138.679 169.18 138.983C168.188 139.684 166.99 140.515 166.999 142.291C167 142.676 167.165 143.09 167.206 143.54C167.232 143.804 167.18 144.063 167.206 144.352C167.268 145.004 167.661 145.835 167.206 146.286C166.506 145.941 165.618 145.824 165.129 145.226C164.996 144.608 165.399 144.102 165.337 143.541C165.288 143.09 164.76 142.288 164.454 142.229C164.137 142.169 163.846 142.573 163.519 142.541C163.131 142.505 162.77 141.862 162.272 141.793C161.541 141.69 161.003 141.994 160.194 141.856C159.411 142.358 159.182 143.254 158.222 143.165C157.884 143.135 157.574 142.824 157.183 142.729C156.76 142.623 156.116 142.443 155.676 142.479C154.792 142.55 154.151 143.315 153.392 143.789C152.722 144.208 151.773 144.73 151.574 145.6C151.465 146.069 151.556 146.726 151.417 147.161C151.326 147.446 151.125 147.699 151.002 147.971C150.42 149.249 149.937 150.938 150.379 152.777C150.444 153.049 151.023 154.588 151.262 154.899C151.53 155.243 152.318 155.762 152.768 155.772C153.149 155.781 153.595 155.541 153.964 155.461C154.392 155.369 154.926 155.361 155.315 155.212C156.438 154.78 156.216 152.955 157.34 152.341C157.831 152.074 158.399 152.021 159.262 151.967C159.537 152.245 159.664 152.73 159.627 153.153C159.598 153.472 159.346 153.76 159.212 154.214C159.094 154.613 159.068 155.079 158.951 155.401C158.796 155.822 158.451 156.129 158.328 156.525C158.246 156.782 158.291 157.101 158.224 157.335C158.105 157.746 157.647 158.036 157.859 158.459C158.971 158.99 160.318 158.308 161.288 158.522C161.698 158.612 162.542 159.199 162.534 159.958C162.528 160.525 162.169 160.897 162.118 161.518C162.056 162.299 161.785 163.256 161.755 163.888C161.709 164.923 163.019 166.71 163.936 166.696C164.923 166.681 165.499 165.516 166.688 166.135C167.083 166.34 167.5 167.109 167.936 167.071C168.295 167.039 168.838 166.283 169.078 165.759C169.37 165.121 169.393 164.584 169.908 164.262C170.466 163.915 170.909 164.082 171.623 163.763C171.941 163.621 172.218 163.377 172.506 163.139C172.758 162.931 173.022 162.386 173.338 162.764C173.752 163.262 172.83 163.543 173.181 164.076C173.901 164.534 174.27 163.223 174.792 163.202C174.959 163.195 175.535 163.591 175.83 163.827C176.236 164.146 176.373 164.596 176.816 164.699C177.101 164.767 177.559 164.568 177.959 164.637C178.489 164.728 178.805 165.275 179.207 165.26C179.696 165.245 179.931 164.605 180.349 164.512C181.266 164.31 181.607 164.635 182.011 165.324C182.464 165.419 182.479 164.695 182.894 164.951C182.667 165.494 182.971 165.745 183.154 166.199C183.272 166.49 183.252 166.697 183.362 166.823C183.61 167.106 184.088 167.106 184.452 167.384C184.835 167.674 185.051 168.212 185.491 168.82C185.944 169.44 186.704 170.084 187.309 170.129C187.88 170.173 188.344 169.935 188.817 170.004C189.891 170.163 190.559 170.808 191.309 171.503C191.729 171.891 192.108 172.16 192.244 172.625C192.339 172.949 192.292 173.384 192.4 173.749C192.629 174.526 193.573 174.9 193.232 176.245C193.388 176.638 193.738 176.78 194.115 177.056C194.417 177.278 194.671 177.741 194.998 177.805C195.208 177.846 195.438 177.729 195.62 177.742C196.211 177.793 196.616 178.067 197.128 178.305C197.445 178.452 197.852 178.51 198.063 178.682C198.327 178.895 198.361 179.613 198.686 179.803C198.899 179.926 199.371 179.755 199.725 179.803C200.283 179.881 201.04 180.291 201.543 180.303C201.848 180.311 202.102 180.152 202.373 180.177C203.646 180.295 204.366 182.124 205.594 182.673C205.974 182.845 206.578 182.725 206.84 182.861C207.301 183.1 207.689 184.792 207.723 185.543C207.828 187.811 206.379 188.539 205.542 190.038C205.367 190.352 205.27 190.848 205.023 191.286C204.525 192.167 203.97 192.351 204.037 193.97C204.056 194.414 204.244 194.848 204.244 195.343C204.244 195.946 204.2 196.735 204.088 197.278C204.003 197.691 203.717 198.026 203.672 198.402C203.626 198.782 203.766 199.076 203.725 199.4C203.68 199.76 203.381 200.267 203.153 200.772C202.673 201.836 202.568 203.089 201.595 203.517C201.023 203.769 200.248 203.628 199.623 203.892C199.369 204 199.049 204.279 198.739 204.452C197.835 204.958 196.547 205.64 196.298 206.761C196.076 207.761 196.608 208.556 196.454 209.696C196.293 210.035 196.075 210.373 195.832 210.756C195.607 211.11 195.496 211.527 195.26 211.88C194.948 212.349 194.462 212.557 194.274 213.191C194.21 213.405 194.249 213.66 194.17 214.001C194.14 214.127 193.949 214.322 193.858 214.562C193.774 214.783 193.779 215.068 193.703 215.251C193.466 215.826 192.76 217.136 192.248 217.31C191.169 217.673 190.033 216.76 189.288 216.933C189.395 217.559 189.774 217.494 190.017 217.933C190.159 218.191 190.236 218.533 190.431 218.807C190.665 219.131 190.871 219.251 190.899 219.618C190.959 220.387 190.46 221.16 190.12 221.428C189.81 221.673 189.164 221.816 188.614 221.926C188.229 222.003 187.238 222.008 187.056 222.303C186.788 222.736 187.198 223.807 187.005 224.237C186.617 225.149 185.573 224.212 185.032 224.486C184.985 224.957 185.13 225.45 185.447 225.671C185.773 225.901 186.269 225.601 186.486 226.046C186.38 226.668 185.824 226.747 185.707 227.358C185.721 227.954 185.873 228.109 185.811 228.48C185.675 229.282 184.638 229.249 184.668 230.103C184.713 231.381 186.709 230.858 186.745 232.101C186.766 232.854 186.173 232.862 185.966 233.597C185.855 233.99 186.03 234.082 185.966 234.408C185.879 234.851 185.447 234.979 185.447 235.469C185.446 236.066 186.174 236.723 186.537 237.217C186.893 237.701 187.349 238.391 187.835 238.716C188.564 239.199 189.65 239.09 189.965 239.963C189.865 240.489 189.444 240.629 189.029 240.773C188.995 240.773 188.96 240.773 188.926 240.773C188.786 240.671 188.287 240.671 188.147 240.773C187.904 240.773 187.662 240.773 187.421 240.773C186.725 240.388 185.882 240.139 185.032 239.776C184.724 239.645 184.378 239.333 184.045 239.153C183.795 239.015 183.513 238.962 183.318 238.839C182.871 238.557 182.367 237.643 181.915 237.28C181.641 237.058 181.211 236.941 181.032 236.716C180.862 236.503 180.769 236.041 180.617 235.781C180.45 235.495 180.141 235.285 179.942 234.969C179.511 234.28 178.96 233.353 178.955 232.847C178.951 232.347 179.352 232.008 179.215 231.539C179.089 231.096 178.291 231.191 178.177 230.663C178.108 230.344 178.407 229.806 178.384 229.354C178.372 229.092 177.964 228.734 178.126 228.354C178.312 227.918 178.663 228.39 178.956 228.168C178.736 227.266 178.974 225.816 178.229 225.545C177.846 225.933 178.62 226.805 177.969 227.044C177.341 226.708 177.486 225.714 177.345 224.984C177.254 224.501 177.054 224.068 177.035 223.548C177.025 223.275 177.124 222.959 177.086 222.677C176.976 221.836 176.197 221.146 176.151 220.303C176.13 219.896 176.358 219.553 176.411 219.118C176.447 218.824 176.377 218.494 176.411 218.182C176.457 217.785 176.639 217.42 176.671 217.058C176.733 216.372 176.67 215.197 176.567 214.622C176.44 213.902 175.962 213.289 175.892 212.503C175.867 212.218 175.971 211.744 175.945 211.379C175.919 211.041 175.765 210.705 175.738 210.317C175.711 209.961 175.811 209.622 175.841 209.193C175.896 208.41 175.714 207.537 175.738 206.759C175.744 206.531 175.843 206.36 175.841 206.136C175.835 205.492 175.656 204.843 175.633 204.201C175.592 203.016 175.742 202.176 175.582 201.08C175.461 200.251 175.312 198.981 175.062 198.461C174.784 197.879 173.691 196.893 173.14 196.524C172.777 196.281 172.341 196.198 171.946 195.963C171.099 195.466 169.46 194.411 169.089 193.405C168.981 193.113 168.996 192.729 168.881 192.406C168.655 191.766 168.179 191.212 167.842 190.595C167.201 189.417 166.683 187.942 166.024 186.726C165.691 186.109 165.402 185.408 165.038 184.917C164.824 184.627 164.139 184.356 164.051 183.917C163.935 183.341 163.58 182.548 163.636 182.108C163.711 181.511 164.676 181.028 164.675 180.486C164.674 180.022 164.159 179.753 164.051 179.362C163.789 178.407 164.205 177.847 164.519 177.051C164.622 176.791 164.724 176.371 164.83 176.178C165.021 175.835 165.408 175.739 165.66 175.366C165.801 175.158 165.89 174.725 166.076 174.431C166.47 173.8 167.108 173.565 167.271 172.995C167.403 172.531 167.481 170.214 167.322 169.438C167.232 168.989 166.884 168.616 166.751 168.189C166.516 167.436 166.461 166.613 165.817 166.629C165.418 166.638 165.137 167.168 164.881 167.502C164.819 167.946 164.852 168.426 164.466 168.562C163.875 168.771 163.648 167.815 162.959 167.563C162.685 167.463 162.249 167.469 162.077 167.376C161.574 167.105 161.411 166.221 160.882 165.877C160.438 165.592 160.059 165.691 159.791 165.254C159.68 164.953 159.767 164.408 159.74 164.005C159.171 163.605 158.688 162.113 158.026 161.759C157.587 161.525 156.914 161.547 156.364 161.323C156.106 161.217 155.907 161.082 155.636 161.011C155.303 160.921 154.96 160.916 154.702 160.76C153.674 160.147 153.119 158.159 151.846 158.202C151.303 158.22 150.779 158.829 150.288 158.826C149.799 158.823 148.979 158.356 148.365 158.015C147.727 157.659 147.022 157.465 146.496 157.142C146.071 156.881 145.776 156.403 145.405 156.204C145.121 156.053 144.705 156.027 144.472 155.895C144.14 155.705 143.794 155.302 143.381 154.957C142.989 154.631 142.564 154.133 142.549 153.711C142.531 153.222 142.922 152.806 142.964 152.337C143.098 150.85 142.186 149.781 141.613 148.904C141.189 148.252 140.69 147.698 140.263 147.094C140.287 146.694 140.287 146.622 140.263 146.222C139.941 145.845 139.669 145.287 139.328 144.723C139.019 144.214 138.419 143.672 138.342 143.101C138.246 142.4 138.563 141.784 138.342 141.103C137.971 139.974 136.667 140.484 136.834 141.978C136.881 142.39 137.364 142.943 137.51 143.351C137.659 143.767 137.63 144.286 137.77 144.787C137.904 145.267 138.306 145.682 138.445 146.223C138.666 147.077 138.659 147.997 138.861 148.531C139.039 149.005 139.696 149.455 139.328 150.029C138.836 150.151 138.647 149.561 138.342 149.217C138.171 149.026 137.554 148.664 137.459 148.22C137.38 147.852 137.653 147.358 137.562 146.908C137.384 146.028 135.904 146.006 135.9 145.099C135.897 144.53 136.519 144.462 136.524 143.912C136.529 143.31 135.841 142.801 135.692 142.291C135.557 141.823 135.535 141.078 135.485 140.419C135.437 139.801 135.5 139.085 135.381 138.608C135.275 138.18 134.738 137.59 134.394 137.36C133.939 137.056 133.579 137.181 133.355 136.736C133.161 136.347 133.033 135.534 132.992 135.114C132.917 134.364 132.975 133.543 132.939 132.743C132.905 131.94 132.836 131.171 132.939 130.309C133.195 129.706 133.664 129.408 133.926 128.811C134.109 128.394 134.134 127.881 134.34 127.438C134.721 126.622 135.549 125.87 136.107 125.066C136.707 124.2 137.262 123.372 137.613 122.382C137.739 122.03 138.077 121.253 138.029 120.822C137.96 120.221 137.019 119.726 137.093 119.012C137.14 118.569 137.665 118.576 137.821 118.139C137.902 117.915 137.974 117.285 137.978 117.015C137.986 116.414 137.721 115.787 137.821 115.143C137.906 114.594 138.586 114.372 138.238 113.77C137.892 113.174 137.269 114.091 136.887 113.707C136.535 113.353 136.958 112.924 136.991 112.272C137.004 112.011 136.865 111.715 136.887 111.523C136.919 111.243 137.371 110.775 137.251 110.587C136.97 110.16 136.654 109.076 136.056 108.714C135.295 108.255 134.469 108.565 133.408 108.34C132.757 108.202 132.449 107.471 131.85 107.53C131.48 107.564 131.267 108.073 130.759 108.34C130.255 108.604 129.596 108.515 129.097 108.652C128.601 108.789 128.363 109.2 127.85 109.151C127.422 109.112 127.42 108.648 126.916 108.59C126.72 108.567 126.347 108.736 126.034 108.777C125.23 108.878 123.781 108.927 122.968 108.714C122.224 108.52 121.766 108.237 120.943 107.778C120.325 107.434 119.179 107.01 119.228 106.466C119.26 106.116 120.315 105.746 120.735 105.594C121.411 105.346 121.829 104.946 122.346 104.906C122.545 104.892 122.807 105.055 123.072 105.033C123.338 105.01 123.666 104.714 124.007 104.658C124.732 104.537 125.755 104.702 125.669 103.846C125.118 103.323 122.871 104.234 122.813 103.098C122.778 102.411 123.666 102.203 124.32 102.038C124.915 101.887 125.819 101.631 126.346 101.663C126.939 101.699 127.719 102.496 128.06 101.601C128.226 100.965 127.859 100.431 127.748 99.9153C128.189 99.1836 129.001 99.2751 129.618 99.1671C130.324 99.0426 130.9 98.8916 131.592 98.5434C132.199 98.2381 132.845 98.0321 133.565 97.9197C134.27 97.8095 134.955 97.4899 135.591 97.4205C136.115 97.3632 136.594 97.4139 137.096 97.296C137.542 97.1924 138.011 96.8959 138.5 96.9224C138.826 96.94 139.106 97.2265 139.435 97.296C139.743 97.361 140.096 97.2772 140.422 97.3588C140.672 97.4216 140.898 97.6254 141.149 97.6706C141.543 97.7411 141.965 97.6045 142.344 97.6706C142.693 97.7301 142.99 97.9924 143.33 98.0442C144.13 98.1687 145.046 97.9935 145.824 98.1698C146.119 98.2359 146.385 98.4111 146.707 98.4817C147.011 98.5478 147.346 98.4718 147.642 98.5434C148.055 98.6426 148.4 99.112 148.837 99.1671C149.641 99.2685 150.542 98.7472 151.381 98.6668C151.988 98.6106 152.614 98.6965 153.251 98.5423C153.831 98.4012 154.392 98.1323 154.913 98.1059C155.196 98.0916 155.434 98.2095 155.692 98.1687C155.961 98.1246 156.284 97.7367 156.575 97.794C156.961 97.8679 156.893 98.4563 157.303 98.6062C157.756 98.3241 158.207 98.6249 158.705 98.6062C159.191 98.5852 159.624 98.3175 160.159 98.4189C161.105 98.5974 162.426 99.7103 163.171 99.1054C163.358 98.9533 163.314 98.6899 163.483 98.2943C163.713 97.7566 164.165 97.1252 164.055 96.3593C163.013 96.3791 162.019 96.9907 160.834 97.0458C159.636 96.1444 161.153 95.5846 162.028 95.1736C162.749 94.8331 163.32 94.0782 164.211 93.9251C164.937 93.7994 165.736 94.1179 166.599 94.2369C167.103 94.3064 167.606 94.1951 167.897 94.2986C168.407 94.4838 168.67 95.0898 169.093 95.2353C169.275 95.2981 169.574 95.2915 169.82 95.3609C170.286 95.4899 170.705 95.7863 171.171 95.3609C171.537 95.4392 171.581 95.9075 171.95 95.9846C172.295 95.7609 172.562 95.1912 173.093 95.0491C173.324 94.9863 173.567 95.0954 173.82 95.0491C174.243 94.9675 174.808 94.2788 175.068 94.9223C174.962 95.373 174.394 95.4414 174.08 95.7973C173.8 96.1136 173.371 96.8409 173.406 97.1703C173.468 97.7654 174.21 97.5351 174.236 98.2943C174.125 98.7307 173.703 98.5357 173.353 98.7307C173.033 98.9092 172.913 99.2773 172.574 99.3544C171.629 99.5682 170.846 99.069 170.029 99.1054C169.991 99.5307 170.434 99.7787 170.652 99.9153C171.393 100.384 171.996 100.319 173.04 100.29C173.576 100.276 174.19 100.482 174.651 100.103C174.942 99.8635 174.927 99.3357 175.17 99.0426C175.463 98.691 176.141 98.334 176.572 98.4189C176.808 98.4662 177.139 98.8034 177.144 99.0426C177.151 99.6101 176.476 99.4282 176.468 100.042C176.908 100.358 178.068 99.6949 178.13 99.1671C178.174 98.7825 177.752 98.5599 177.766 98.1687C177.792 97.5152 178.531 97.5263 178.442 96.8574C178.085 96.5202 177.712 96.9301 177.35 96.8574C176.84 96.7549 176.38 96.021 176.155 95.5461C176.381 95.2111 176.853 95.4348 177.194 95.4843C177.576 94.8496 178.288 94.6017 179.272 94.4849C179.622 94.4441 180.088 94.2766 180.259 94.6722C180.343 95.264 179.532 95.6177 179.687 96.2954C180.387 96.5048 180.616 95.3719 181.194 94.9212C181.449 94.7229 181.814 94.5906 182.181 94.4231C182.5 94.2766 182.854 93.9141 183.115 93.924C183.403 93.9328 183.453 94.2171 183.739 94.3603C183.995 94.4893 184.33 94.2722 184.414 94.6722C183.813 95.9251 181.568 95.2044 180.986 96.4816C181.116 97.3378 180.635 98.1533 181.039 98.7285C181.328 99.1384 181.978 98.8596 182.129 99.2894C182.332 99.8646 181.5 99.8646 181.715 100.538C182.263 100.934 182.919 100.161 183.427 99.8525C183.973 99.5197 184.662 99.1274 184.725 98.3538C184.451 97.7202 183.428 98.2106 183.272 97.5439C183.187 97.1813 183.586 96.3692 183.686 96.2326C184.228 95.5031 186.119 94.4639 187.478 94.6094C187.737 94.638 187.998 94.8265 188.257 94.8595C189.151 94.9697 190.205 94.3956 190.906 94.8595C191.47 94.4639 192.147 94.9135 192.931 94.7956C193.536 95.2243 193.37 96.1367 194.282 96.5433C194.53 96.6535 194.84 96.5753 195.165 96.6678C195.406 96.7373 195.668 97.0778 195.944 97.2309C196.338 97.4458 196.639 97.3962 196.723 97.729C196.806 98.0552 196.437 98.2668 196.463 98.604C196.688 98.8255 196.5 99.1605 196.62 99.4767C196.843 100.055 197.409 100.012 197.97 100.288C198.363 100.482 199.203 101.076 199.165 101.536C199.14 101.845 198.376 102.387 198.126 102.536C197.949 102.639 197.073 103.148 196.776 103.097C196.286 103.01 196.094 101.817 195.425 101.848C195.134 101.862 194.86 102.074 194.853 102.536C194.842 103.356 195.617 103.386 195.632 104.096C195.653 104.944 195.247 105.002 194.646 105.53C194.216 105.32 193.854 105.025 193.295 104.969C192.963 105.443 193.841 105.614 193.555 106.217C192.721 106.43 192.085 105.934 191.323 105.656C191.083 105.571 190.741 105.605 190.543 105.469C190.248 105.264 190.162 104.657 189.92 104.345C189.639 103.983 189.079 103.469 188.622 103.472C187.98 103.475 187.051 104.432 186.543 103.534C186.895 102.105 188.561 103.166 189.66 102.661C190.07 102.474 190.21 101.954 190.545 101.725C191.216 101.264 192.308 101.2 192.206 100.289C192.156 99.8305 191.621 99.836 191.324 99.6013C190.917 99.2828 190.606 98.1599 190.026 98.1048C189.727 98.0761 189.512 98.3803 189.194 98.4166C188.522 98.4927 187.774 98.0916 187.168 98.4166C186.886 98.6106 187.077 98.9213 186.856 99.2905C186.676 99.5935 186.248 99.6784 186.077 99.977C185.878 100.329 185.919 100.765 185.662 101.037C185.235 101.491 184.333 101.564 183.793 101.785C183.552 101.884 183.247 102.225 183.014 102.224C182.585 102.221 182.401 101.531 181.923 101.785C181.881 102.453 182.51 102.725 182.909 103.034C183.341 103.368 183.794 103.701 183.948 104.282C183.526 105.36 182.852 104.226 182.183 104.221C181.446 104.214 180.37 105.907 179.742 104.533C179.899 103.804 180.566 103.692 180.728 102.972C179.994 103.122 179.356 103.864 178.495 104.096C178.132 104.192 177.78 104.169 177.456 104.282C176.834 104.502 176.4 105.053 175.743 105.345C175.486 105.458 175.179 105.423 174.911 105.531C174.284 105.783 173.533 106.234 172.886 106.655C172.225 107.085 171.479 107.538 171.067 107.966C170.846 108.197 170.269 109.015 170.288 109.275C170.315 109.647 170.897 109.77 170.911 110.15C170.898 110.381 170.574 110.876 170.807 111.21C171.02 111.515 171.445 111.269 171.897 111.335C172.691 111.453 173.21 112.241 173.819 112.646C174.28 112.951 174.963 113.316 175.482 113.394C176.195 113.502 176.994 113.144 177.091 113.832C177.186 114.492 176.42 114.729 176.363 115.143C176.748 115.753 176.102 116.045 176.103 116.579C176.105 117.012 176.548 117.661 176.933 117.701C177.457 117.754 178.223 117.082 178.441 116.452C178.7 115.704 178.588 114.689 179.063 114.144C181.483 114.224 183.531 112.824 183.374 109.838C183.359 109.544 183.219 109.164 183.271 108.839C183.347 108.356 184.036 107.952 183.945 107.341C184.623 107.091 184.594 105.784 185.296 105.594C185.883 105.435 186.549 106.094 187.321 106.03C187.574 106.01 187.9 105.738 188.153 105.781C188.661 105.866 188.967 106.619 189.348 106.967C189.685 107.277 190.041 107.178 190.127 107.59C190.027 108.29 189.617 108.308 189.659 108.963C189.697 109.535 190.191 109.97 190.438 110.026C190.817 110.111 191.358 109.866 191.736 109.651C192.431 109.255 193.026 108.064 193.606 108.215C194.063 108.335 194.421 110.083 194.488 110.712C194.561 111.387 194.412 111.902 194.438 112.523C194.505 113.575 195.608 113.468 196.151 114.02C196.314 114.188 196.379 114.614 196.516 114.833C196.779 115.255 197.098 115.255 197.139 115.705C197.236 116.783 196.325 116.874 196.41 118.077C196.223 118.543 195.749 118.515 195.788 119.137C195.848 120.122 197.026 119.367 197.346 120.136C197.519 120.549 197.317 120.857 197.189 121.445C197.592 122.023 197.589 122.943 196.879 122.944C196.435 122.946 196.314 122.389 195.878 122.26ZM139.732 120.638C139.978 120.335 139.629 119.695 139.264 119.951C139.228 120.179 139.33 120.73 139.732 120.638ZM175.987 126.316C175.77 126.063 175.064 126.135 174.583 126.191C174.243 126.233 173.839 126.319 173.804 126.628C174.344 126.925 175.817 127.14 175.987 126.316ZM173.285 125.255C173.692 124.869 173.512 124.08 173.077 123.943C172.907 123.889 172.68 124.094 172.402 124.069C172.108 124.043 171.815 123.72 171.571 123.694C171.157 123.651 170.736 123.898 170.584 124.131C170.568 124.504 170.812 124.564 170.792 124.942C170.287 125.375 170.555 126.825 171.052 126.877C171.58 126.932 171.852 125.275 172.557 125.129C172.813 125.076 172.944 125.305 173.285 125.255ZM172.557 127.752C171.819 127.437 171.137 127.966 170.532 128.064C170.172 128.122 169.514 127.976 169.596 128.625C169.664 129.154 170.345 128.962 170.739 128.812C171.561 128.5 172.079 128.231 172.557 127.752ZM170.273 123.008C171.308 122.478 170.068 120.847 169.597 120.698C168.756 120.434 167.558 121.441 166.585 121.759C166.036 121.939 165.515 121.954 165.39 122.509C165.882 123.486 166.854 122.295 167.571 122.446C167.935 122.523 168.147 123.12 168.507 123.194C168.751 123.246 170.174 123.058 170.273 123.008ZM169.545 124.007C169.33 123.703 168.165 124.044 167.83 124.319C167.601 124.51 167.444 124.975 167.207 125.319C166.963 125.674 166.688 125.947 166.48 126.254C166.293 126.532 165.24 128.355 166.065 128.563C166.416 128.651 167.139 127.775 167.207 127.439C167.442 126.295 167.871 125.479 168.609 124.942C169.037 124.632 169.475 124.672 169.545 124.007ZM163.052 117.018C163.631 116.992 164.024 114.934 163.052 115.207C162.402 115.389 162.244 117.052 163.052 117.018ZM160.247 163.823C160.274 163.731 160.323 163.666 160.351 163.573C160.194 162.952 159.695 163.799 160.247 163.823ZM138.277 111.588C138.289 111.47 138.217 111.449 138.226 111.338C138.067 111.337 137.883 111.302 137.913 111.527C137.989 111.705 138.19 111.736 138.277 111.588ZM192.866 101.789C193.122 101.826 193.266 101.729 193.23 101.415C192.999 101.22 192.663 101.477 192.866 101.789ZM186.894 95.6739C186.827 95.5868 186.648 95.5868 186.581 95.6739C186.581 95.7565 186.581 95.8392 186.581 95.9229C186.802 95.9802 186.842 95.8204 186.894 95.6739ZM167.157 100.48C167.33 100.345 167.595 100.164 167.467 99.8558C166.894 99.5318 165.925 99.7787 165.079 99.6685C164.599 98.8541 163.797 98.7274 163.728 100.043C164.694 100.985 166.158 99.6023 167.157 100.48ZM157.858 106.907C158.154 106.784 158.562 106.848 158.637 106.469C158.395 106.235 158.146 105.92 157.858 105.908C157.481 105.892 157.301 106.292 156.923 106.531C156.483 106.81 155.875 106.877 155.833 107.342C156.637 107.533 157.361 107.112 157.858 106.907ZM157.598 102.413C157.93 102.345 158.27 102.525 158.482 102.164C158.234 100.79 156.653 101.63 155.729 101.728C155.535 102.119 155.275 102.431 155.21 102.977C155.927 103.193 156.791 102.579 157.598 102.413ZM173.181 166.195C173.592 166.114 173.472 164.981 172.974 165.257C172.597 165.466 172.792 166.269 173.181 166.195Z" fill="white"/>
<path d="M138.226 111.336C138.218 111.449 138.289 111.469 138.277 111.587C138.188 111.736 137.987 111.704 137.912 111.524C137.883 111.301 138.067 111.335 138.226 111.336Z" fill="white"/>
<path d="M136.668 115.021C136.558 115.428 136.257 115.608 135.94 115.769C135.841 115.679 135.754 115.575 135.68 115.457C135.703 114.864 136.405 114.428 136.668 115.021Z" fill="white"/>
</g>
<path d="M145.474 202.97C139.463 201.393 134.582 199.292 130.827 196.662L138.151 180.21C141.681 182.54 145.774 184.418 150.432 185.844C155.088 187.271 159.671 187.985 164.178 187.985C172.741 187.985 177.022 185.844 177.022 181.563C177.022 179.308 175.801 177.637 173.36 176.549C170.919 175.46 166.994 174.314 161.586 173.113C155.652 171.837 150.693 170.465 146.714 169C142.732 167.535 139.314 165.189 136.46 161.958C133.605 158.73 132.179 154.373 132.179 148.887C132.179 144.082 133.492 139.744 136.122 135.875C138.751 132.008 142.674 128.946 147.896 126.692C153.115 124.439 159.52 123.312 167.108 123.312C172.29 123.312 177.397 123.894 182.431 125.058C187.462 126.223 191.894 127.93 195.726 130.185L188.853 146.747C181.341 142.691 174.055 140.663 166.994 140.663C162.561 140.663 159.333 141.322 157.305 142.635C155.277 143.949 154.262 145.66 154.262 147.761C154.262 149.866 155.464 151.443 157.868 152.494C160.273 153.545 164.139 154.634 169.474 155.761C175.482 157.039 180.459 158.408 184.402 159.873C188.345 161.338 191.763 163.668 194.656 166.859C197.546 170.053 198.993 174.391 198.993 179.873C198.993 184.605 197.677 188.887 195.05 192.718C192.42 196.549 188.476 199.61 183.22 201.901C177.961 204.191 171.575 205.337 164.065 205.337C157.679 205.336 151.482 204.548 145.474 202.97Z" fill="url(#paint0_linear_521_1408)"/>
<path d="M272.564 186.521V203.759H209.243V124.89H271.099V142.128H231.326V155.423H266.366V172.099H231.326V186.521H272.564Z" fill="url(#paint1_linear_521_1408)"/>
<path d="M355.452 142.323C351.938 136.09 347.1 131.207 340.941 127.677C334.781 124.146 327.84 122.381 320.113 122.381C312.388 122.381 305.445 124.146 299.286 127.677C293.126 131.207 288.289 136.09 284.775 142.323C281.259 148.56 279.504 155.581 279.504 163.392C279.504 171.206 281.26 178.228 284.775 184.462C288.29 190.697 293.126 195.58 299.286 199.109C305.445 202.641 312.387 204.405 320.113 204.405C327.839 204.405 334.781 202.641 340.941 199.109C347.1 195.58 351.938 190.697 355.452 184.462C358.965 178.228 360.724 171.206 360.724 163.392C360.725 155.582 358.966 148.56 355.452 142.323Z" fill="url(#paint2_linear_521_1408)"/>
<path opacity="0.3" d="M294.504 130.917C290.571 134.014 287.321 137.809 284.776 142.324C283.675 144.278 282.767 146.316 282.012 148.423L280.678 152.931C279.906 156.247 279.505 159.73 279.505 163.393C279.505 171.207 281.261 178.229 284.776 184.463C288.291 190.698 293.127 195.582 299.287 199.11L320.114 163.393L294.504 130.917Z" fill="black"/>
<path opacity="0.2" d="M294.504 130.916L320.114 163.393L321.749 122.382C321.749 122.382 307.232 120.753 294.504 130.916Z" fill="white"/>
<path d="M162.373 249.713V272.121" stroke="#407BFF" stroke-miterlimit="10"/>
<path d="M51.4131 68.8884V93.8973H79.6243" stroke="#407BFF" stroke-miterlimit="10"/>
<path d="M410.713 72.1832H436.89V90.5143" stroke="#407BFF" stroke-miterlimit="10"/>
<path d="M118.998 74.2032H4.51251C2.02099 74.2032 0 72.1833 0 69.6907V5.41462C0 2.92309 2.01989 0.9021 4.51251 0.9021H118.997C121.49 0.9021 123.51 2.92199 123.51 5.41462V69.6907C123.51 72.1833 121.49 74.2032 118.998 74.2032Z" fill="url(#paint3_linear_521_1408)"/>
<path d="M118.998 74.2032H4.51251C2.02099 74.2032 0 72.1833 0 69.6907V5.41462C0 2.92309 2.01989 0.9021 4.51251 0.9021H118.997C121.49 0.9021 123.51 2.92199 123.51 5.41462V69.6907C123.51 72.1833 121.49 74.2032 118.998 74.2032Z" fill="url(#paint4_linear_521_1408)"/>
<path d="M18.5693 41.6171C19.1049 41.1345 33.5615 26.8608 33.5615 26.8608L47.8186 33.8781L61.7539 17.481L76.0111 38.0258L89.9167 28.9523" stroke="white" stroke-width="0.5" stroke-miterlimit="10"/>
<path d="M23.037 48.0427H16.3525V62.853H23.037V48.0427Z" fill="white"/>
<path d="M36.7987 38.2562H30.1143V62.8541H36.7987V38.2562Z" fill="white"/>
<path d="M50.8231 40.729H44.1387V62.853H50.8231V40.729Z" fill="white"/>
<path d="M65.0985 26.8607H58.4141V62.8528H65.0985V26.8607Z" fill="white"/>
<path d="M79.5272 45.9458H72.8428V62.8531H79.5272V45.9458Z" fill="white"/>
<path d="M23.2861 39.9399C23.2861 41.9234 21.6783 43.5312 19.6948 43.5312C17.7113 43.5312 16.1035 41.9234 16.1035 39.9399C16.1035 37.9564 17.7113 36.3486 19.6948 36.3486C21.6783 36.3486 23.2861 37.9564 23.2861 39.9399Z" fill="white"/>
<path d="M37.0478 26.8609C37.0478 28.8444 35.44 30.4522 33.4565 30.4522C31.473 30.4522 29.8652 28.8444 29.8652 26.8609C29.8652 24.8774 31.473 23.2697 33.4565 23.2697C35.44 23.2697 37.0478 24.8774 37.0478 26.8609Z" fill="white"/>
<path d="M51.4121 32.7575C51.4121 34.7411 49.8043 36.3488 47.8208 36.3488C45.8373 36.3488 44.2295 34.7411 44.2295 32.7575C44.2295 30.774 45.8373 29.1663 47.8208 29.1663C49.8043 29.1663 51.4121 30.774 51.4121 32.7575Z" fill="white"/>
<path d="M65.3476 17.4812C65.3476 19.4647 63.7398 21.0724 61.7563 21.0724C59.7728 21.0724 58.165 19.4647 58.165 17.4812C58.165 15.4977 59.7728 13.8899 61.7563 13.8899C63.7398 13.8899 65.3476 15.4977 65.3476 17.4812Z" fill="white"/>
<path d="M79.6044 38.026C79.6044 40.0095 77.9967 41.6173 76.0131 41.6173C74.0296 41.6173 72.4219 40.0095 72.4219 38.026C72.4219 36.0425 74.0296 34.4347 76.0131 34.4347C77.9967 34.4347 79.6044 36.0425 79.6044 38.026Z" fill="white"/>
<path d="M93.8134 37.4695H87.1289V62.8531H93.8134V37.4695Z" fill="white"/>
<path opacity="0.3" d="M36.7987 38.2562H30.1143V62.8541H36.7987V38.2562Z" fill="white"/>
<path opacity="0.3" d="M65.0985 26.8607H58.4141V62.8528H65.0985V26.8607Z" fill="white"/>
<path opacity="0.3" d="M93.8134 37.4695H87.1289V62.8531H93.8134V37.4695Z" fill="white"/>
<path d="M108.601 45.9458H101.917V62.8531H108.601V45.9458Z" fill="white"/>
<path d="M89.917 28.9524L105.256 37.4694" stroke="white" stroke-width="0.5" stroke-miterlimit="10"/>
<path d="M94.3115 28.9525C94.3115 30.936 92.7037 32.5438 90.7202 32.5438C88.7367 32.5438 87.1289 30.936 87.1289 28.9525C87.1289 26.969 88.7367 25.3612 90.7202 25.3612C92.7037 25.3612 94.3115 26.969 94.3115 28.9525Z" fill="white"/>
<path d="M105.257 41.0607C107.241 41.0607 108.849 39.4529 108.849 37.4695C108.849 35.486 107.241 33.8782 105.257 33.8782C103.274 33.8782 101.666 35.486 101.666 37.4695C101.666 39.4529 103.274 41.0607 105.257 41.0607Z" fill="white"/>
<path d="M478.816 202.831H390.33C387.326 202.831 384.891 200.396 384.891 197.392V96.5783C384.891 93.5744 387.326 91.139 390.33 91.139H478.816C481.82 91.139 484.255 93.5744 484.255 96.5783V197.392C484.255 200.396 481.82 202.831 478.816 202.831Z" fill="#B9C2FF"/>
<path d="M484.255 108.227H384.891V96.236C384.891 93.4205 387.174 91.1372 389.989 91.1372H479.247C482.013 91.1372 484.256 93.3797 484.256 96.1467V108.227H484.255Z" fill="#324D90"/>
<path opacity="0.5" d="M480.524 100.929C480.524 102.99 478.854 104.66 476.794 104.66C474.733 104.66 473.063 102.99 473.063 100.929C473.063 98.8683 474.734 97.1989 476.794 97.1989C478.854 97.1989 480.524 98.8683 480.524 100.929Z" fill="white"/>
<path opacity="0.5" d="M469.922 100.929C469.922 102.99 468.253 104.66 466.192 104.66C464.131 104.66 462.462 102.99 462.462 100.929C462.462 98.8683 464.132 97.1989 466.192 97.1989C468.252 97.1989 469.922 98.8683 469.922 100.929Z" fill="white"/>
<path opacity="0.5" d="M459.32 100.929C459.32 102.99 457.65 104.66 455.59 104.66C453.529 104.66 451.859 102.99 451.859 100.929C451.859 98.8683 453.53 97.1989 455.59 97.1989C457.65 97.1989 459.32 98.8683 459.32 100.929Z" fill="white"/>
<path opacity="0.6" d="M470.898 122.514H411.118V125.993H470.898V122.514Z" fill="white"/>
<path opacity="0.6" d="M454.823 130.041H412.048V133.52H454.823V130.041Z" fill="#263238"/>
<path d="M406.967 122.514H395.207V125.993H406.967V122.514Z" fill="#1B2232"/>
<path d="M470.898 138.401H411.118V141.88H470.898V138.401Z" fill="#1B2232"/>
<path d="M406.967 138.401H395.207V141.88H406.967V138.401Z" fill="#1B2232"/>
<path d="M470.898 171.522H411.118V175.001H470.898V171.522Z" fill="#1B2232"/>
<path opacity="0.6" d="M422.878 181.831H411.118V185.31H422.878V181.831Z" fill="white"/>
<path d="M470.898 146.777H411.118V150.256H470.898V146.777Z" fill="#1B2232"/>
<path opacity="0.6" d="M406.967 146.777H395.207V150.256H406.967V146.777Z" fill="#263238"/>
<path opacity="0.6" d="M453.893 154.081H411.118V157.559H453.893V154.081Z" fill="white"/>
<path opacity="0.6" d="M432.505 161.643H411.118V165.122H432.505V161.643Z" fill="#263238"/>
<path d="M265.825 383H148.932C144.259 383 140.47 379.211 140.47 374.537V278.937C140.47 274.263 144.259 270.474 148.932 270.474H265.825C270.499 270.474 274.288 274.263 274.288 278.937V374.537C274.288 379.211 270.499 383 265.825 383Z" fill="#D7DCFF"/>
<path opacity="0.5" d="M265.825 383H148.932C144.259 383 140.47 379.211 140.47 374.537V278.937C140.47 274.263 144.259 270.474 148.932 270.474H265.825C270.499 270.474 274.288 274.263 274.288 278.937V374.537C274.288 379.211 270.499 383 265.825 383Z" fill="#D7DCFF"/>
<path d="M274.288 290.097H140.47V278.407C140.47 274.027 144.022 270.474 148.403 270.474H266.495C270.799 270.474 274.289 273.963 274.289 278.268L274.288 290.097Z" fill="#324D90"/>
<path opacity="0.5" d="M266.731 281.716C266.731 284.082 264.814 285.998 262.448 285.998C260.082 285.998 258.165 284.08 258.165 281.716C258.165 279.35 260.082 277.433 262.448 277.433C264.814 277.431 266.731 279.35 266.731 281.716Z" fill="#D7DCFF"/>
<path opacity="0.5" d="M254.556 281.716C254.556 284.082 252.639 285.998 250.273 285.998C247.907 285.998 245.99 284.08 245.99 281.716C245.99 279.35 247.907 277.433 250.273 277.433C252.637 277.431 254.556 279.35 254.556 281.716Z" fill="#D7DCFF"/>
<path opacity="0.5" d="M242.384 281.716C242.384 284.082 240.467 285.998 238.101 285.998C235.735 285.998 233.818 284.08 233.818 281.716C233.818 279.35 235.737 277.433 238.101 277.433C240.465 277.431 242.384 279.35 242.384 281.716Z" fill="#D7DCFF"/>
<path opacity="0.6" d="M190 304H152V307H190V304Z" fill="white"/>
<path opacity="0.6" d="M180 312H153V315H180V312Z" fill="#263238"/>
<path d="M190 320H152V323H190V320Z" fill="#1B2232"/>
<path d="M190 353H152V356H190V353Z" fill="#1B2232"/>
<path opacity="0.6" d="M159 363H152V367H159V363Z" fill="white"/>
<path d="M190 328H152V332H190V328Z" fill="#1B2232"/>
<path opacity="0.6" d="M179 336H152V339H179V336Z" fill="white"/>
<path opacity="0.6" d="M166 343H152V347H166V343Z" fill="#263238"/>
<path opacity="0.52" d="M464.735 356.605H348.626C305.017 356.605 368.413 373.147 360.986 375.247C353.559 377.347 301.46 382.502 329.288 398.675C357.525 415.081 470.895 414.072 501.898 412.299C532.901 410.526 619.942 413.24 623.499 401.635C628.936 383.866 592.128 377.893 605.142 375.247C618.17 372.602 634.142 363.942 618.756 360.874C603.371 357.806 464.721 356.619 464.721 356.619L464.735 356.605Z" fill="#C3D3F5"/>
<path d="M448.939 373.188C445.369 383.238 433.799 387.929 424.028 383.661C408.219 376.747 380.65 361.814 362.73 336.027C336.36 298.089 353.885 296.316 359.977 300.448C366.069 304.594 364.897 309.803 362.607 278.315C360.318 246.827 378.579 237.472 387.042 251.055C395.505 264.637 398.694 304.43 412.907 303.148C427.121 301.88 421.261 289.811 433.376 294.625C443.025 298.471 458.411 346.459 448.926 373.188H448.939Z" fill="url(#paint5_linear_521_1408)"/>
<path d="M378.158 245C377.64 251.437 377.831 257.914 378.458 264.337C379.071 270.747 380.052 277.129 381.551 283.402C384.522 295.92 388.992 308.098 395.124 319.417C401.175 330.804 407.921 341.822 415.212 352.459C418.823 357.805 422.653 363.001 426.577 368.114C430.489 373.242 434.563 378.26 438.87 383.088C429.889 373.787 421.862 363.601 414.353 353.059C406.858 342.504 400.099 331.445 393.925 320.058C392.453 317.167 391.009 314.262 389.646 311.317C388.42 308.316 387.016 305.384 385.994 302.302L384.345 297.72L382.927 293.07C382.423 291.529 382.028 289.961 381.646 288.379C381.279 286.797 380.829 285.243 380.529 283.647C379.139 277.306 378.267 270.869 377.79 264.405C377.395 257.941 377.326 251.437 378.158 245.027V245Z" fill="#C3D3F5"/>
<path d="M360.985 318.435C362.771 320.017 364.556 321.572 366.423 323.031C368.249 324.531 370.13 325.976 372.051 327.381C375.881 330.163 379.819 332.795 383.894 335.168C387.941 337.609 392.207 339.627 396.54 341.509L399.838 342.818C400.942 343.241 402.087 343.541 403.204 343.923C405.426 344.768 407.77 345.15 410.059 345.818C405.344 345.232 400.642 344.154 396.159 342.491C391.675 340.827 387.314 338.795 383.199 336.354C379.083 333.913 375.117 331.213 371.411 328.213C367.704 325.213 364.147 322.008 360.985 318.435Z" fill="#C3D3F5"/>
<path d="M394.143 319.035C394.483 317.59 394.838 316.158 395.124 314.712C395.451 313.28 395.737 311.835 396.01 310.389C396.527 307.498 397.018 304.607 397.359 301.689C397.754 298.784 397.986 295.866 398.163 292.934L398.272 290.738V288.529C398.381 287.056 398.231 285.584 398.285 284.097C398.844 287.002 399.198 289.975 399.212 292.948C399.28 295.92 399.089 298.907 398.722 301.852C398.326 304.798 397.808 307.73 397.032 310.607C396.269 313.485 395.369 316.321 394.156 319.021L394.143 319.035Z" fill="#C3D3F5"/>
<path d="M427.094 369.301L428.77 363.423C429.342 361.473 429.901 359.509 430.433 357.559C431.496 353.632 432.559 349.718 433.553 345.777C434.575 341.85 435.475 337.895 436.388 333.94C436.838 331.963 437.274 329.972 437.655 327.981C438.132 326.003 438.418 323.985 438.868 321.994C438.609 326.058 438.119 330.122 437.424 334.145C436.756 338.168 435.884 342.163 434.875 346.118C433.853 350.073 432.736 354 431.441 357.859C430.146 361.732 428.756 365.564 427.094 369.301Z" fill="#C3D3F5"/>
<path d="M538.437 250.141C532.606 244.305 508.892 239.44 508.892 239.44H492.158C492.158 239.44 468.445 244.305 462.613 250.141C456.782 255.976 436.692 314.315 438.318 324.687C439.944 335.06 448.042 338.955 455.156 338.955C462.27 338.955 463.583 335.06 463.583 335.06C463.583 335.06 473.665 343.805 500.525 342.193C527.386 343.82 537.468 335.06 537.468 335.06C537.468 335.06 538.765 338.955 545.894 338.955C553.023 338.955 561.122 335.06 562.733 324.687C564.358 314.315 544.269 255.961 538.437 250.141Z" fill="#B5A7E9"/>
<path d="M475.455 205.308C475.455 205.308 477.692 222.471 485.149 228.441C492.606 234.411 506.671 235.575 513.8 228.441C520.929 221.307 522.226 202.174 522.226 202.174C522.226 202.174 503.971 192.444 498.841 181.43C498.841 181.43 486.686 199.04 475.455 205.308Z" fill="#FFB7D6"/>
<path d="M524.149 178.505C520.584 162.625 506.326 160.924 498.824 160.998C498.824 160.998 485.043 159.372 475.439 171.699C465.834 184.012 475.439 205.294 475.439 205.294C486.669 199.025 498.824 181.415 498.824 181.415C503.955 192.429 522.21 202.16 522.21 202.16C522.21 202.16 527.713 194.384 524.149 178.49V178.505Z" fill="#181670"/>
<path d="M498.826 160.998C502.181 160.969 506.865 161.297 511.354 163.073C512.547 160.864 513.233 158.327 513.233 155.641C513.233 146.999 506.238 140 497.603 140C488.967 140 481.973 146.999 481.973 155.641C481.973 158.76 482.897 161.67 484.478 164.103C491.92 160.207 498.826 160.998 498.826 160.998Z" fill="#181670"/>
<path d="M475.455 205.308C475.455 205.308 470.712 203.547 468.773 207.398C466.834 211.248 471.309 223.292 480.406 222.128C476.693 214.8 475.455 205.308 475.455 205.308Z" fill="#FFB7D6"/>
<path d="M529.34 207.398C527.401 203.547 522.658 205.308 522.658 205.308C522.658 205.308 522.315 205.696 521.763 206.353C521.212 210.457 520.048 216.875 517.781 222.143C526.834 223.232 531.294 211.248 529.355 207.413L529.34 207.398Z" fill="#FFB7D6"/>
<path d="M492.159 232.082V239.455C492.159 239.455 493.591 244.649 498.826 245.619C504.061 246.589 507.953 243.111 508.595 238.858C508.982 236.306 508.908 233.56 508.789 231.754C503.762 233.888 497.528 233.814 492.159 232.097V232.082Z" fill="#FFB7D6"/>
<path d="M478.811 286.78V260.498H522.211L521.764 293.421V320.165H478.811V286.78Z" fill="#2D2D54"/>
<path d="M457.423 306.226C457.423 306.226 460.331 319.196 469.727 322.106L477.184 314.166C477.184 314.166 469.817 305.57 468.31 300.063L457.423 306.226Z" fill="#D1C9F4"/>
<path d="M468.311 300.063C468.311 300.063 469.056 291.84 471.174 290.929C473.292 290.019 478.795 286.78 478.795 286.78V293.421C478.795 293.421 493.695 281.587 496.29 281.915C498.885 282.243 494.351 290.989 494.351 290.989C494.351 290.989 493.844 295.854 492.158 301.048C490.473 306.241 477.185 314.181 477.185 314.181C477.185 314.181 471.756 308.51 468.311 300.078V300.063Z" fill="#FFB7D6"/>
<path d="M469.727 322.106C469.235 324.523 468.325 326.732 467.326 328.911C466.282 331.06 465.133 333.165 463.582 335.075C464.074 332.657 464.984 330.448 465.983 328.269C467.027 326.12 468.176 324.016 469.727 322.106Z" fill="#867BBF"/>
<path d="M457.423 306.226C455.231 306.957 453.068 307.39 450.921 307.883C448.758 308.36 446.685 308.823 444.463 309.465C445.268 308.614 446.282 307.987 447.326 307.51C448.37 307.017 449.489 306.689 450.593 306.42C451.711 306.181 452.845 306.032 453.993 305.987C455.127 305.943 456.275 305.987 457.423 306.226Z" fill="#867BBF"/>
<path d="M543.135 306.226C543.135 306.226 540.227 319.196 530.831 322.106L523.374 314.166C523.374 314.166 530.742 305.57 532.248 300.063L543.135 306.226Z" fill="#D1C9F4"/>
<path d="M532.248 300.063C532.248 300.063 531.502 291.84 529.384 290.929C527.266 290.019 521.763 286.78 521.763 286.78V293.421C521.763 293.421 506.864 281.587 504.269 281.915C501.674 282.243 506.208 290.989 506.208 290.989C506.208 290.989 506.715 295.854 508.4 301.048C510.085 306.241 523.374 314.181 523.374 314.181C523.374 314.181 528.803 308.51 532.248 300.078V300.063Z" fill="#FFB7D6"/>
<path d="M536.99 335.075C535.439 333.165 534.291 331.06 533.247 328.911C532.248 326.747 531.338 324.523 530.846 322.106C532.412 324.016 533.545 326.12 534.589 328.269C535.588 330.448 536.498 332.657 536.99 335.075Z" fill="#867BBF"/>
<path d="M543.136 306.226C544.269 305.987 545.418 305.943 546.566 305.987C547.714 306.032 548.848 306.181 549.966 306.42C551.085 306.689 552.189 307.002 553.233 307.51C554.277 308.002 555.291 308.614 556.096 309.465C553.874 308.823 551.801 308.345 549.638 307.883C547.491 307.39 545.328 306.957 543.136 306.226Z" fill="#867BBF"/>
<path d="M537.468 335.075C537.468 335.075 527.386 343.821 500.525 342.209C473.665 343.835 463.583 335.075 463.583 335.075C463.583 335.075 462.285 338.97 455.156 338.97C455.156 338.97 452.248 365.879 457.423 374.624C462.613 383.37 518.393 383.698 530.831 381.101C543.27 378.505 546.894 362.476 543.135 338.731C538.422 337.896 537.468 335.075 537.468 335.075Z" fill="#2D2D54"/>
<path d="M548.37 335.97C558.452 334.105 568.668 339.761 571.711 349.566C571.845 350.014 572.054 350.462 572.099 350.954C573.724 370.4 550.04 380.131 521.882 384.996C493.709 389.862 484.969 388.563 484.969 388.563C484.969 388.563 481.002 381.758 481.211 372.027C481.211 372.027 502.762 356.461 521.882 345.775C532.606 339.776 542.106 337.134 548.385 335.985L548.37 335.97Z" fill="#2F2F5B"/>
<path d="M519.615 388.548C519.615 388.548 527.386 390.488 535.171 392.593C542.941 394.697 553.635 398.264 558.169 395.025C562.703 391.787 562.374 380.042 551.606 376.758C540.823 373.475 523.403 374.773 523.403 374.773C523.403 374.773 523.031 381.579 519.63 388.548H519.615Z" fill="#B5A7E9"/>
<path d="M485.208 388.548C485.208 388.548 477.438 390.488 469.653 392.593C461.882 394.697 451.189 398.264 446.655 395.025C442.121 391.787 442.449 380.042 453.217 376.758C464 373.475 481.42 374.773 481.42 374.773C481.42 374.773 481.793 381.579 485.193 388.548H485.208Z" fill="#B5A7E9"/>
<path d="M456.2 335.97C446.118 334.105 435.902 339.761 432.859 349.566C432.725 350.014 432.516 350.462 432.472 350.954C430.846 370.4 454.53 380.131 482.688 384.996C510.861 389.862 519.601 388.563 519.601 388.563C519.601 388.563 523.568 381.758 523.359 372.027C523.359 372.027 501.808 356.461 482.688 345.775C471.965 339.776 462.464 337.134 456.185 335.985L456.2 335.97Z" fill="#3A376B"/>
<path fill-rule="evenodd" clip-rule="evenodd" d="M231.985 311.228C231.232 311.228 230.621 310.617 230.621 309.864C230.621 309.111 231.232 308.5 231.985 308.5H240.577C241.33 308.5 241.941 309.111 241.941 309.864C241.941 310.617 241.33 311.228 240.577 311.228H231.985ZM230.699 314.035C228.917 313.486 227.621 311.826 227.621 309.864C227.621 307.454 229.575 305.5 231.985 305.5H240.577C242.987 305.5 244.941 307.454 244.941 309.864C244.941 311.826 243.645 313.486 241.863 314.035V316.578C246.15 317.577 250.219 319.747 253.561 323.089C261.858 331.386 262.933 344.167 256.789 353.628C256.338 354.323 255.409 354.52 254.715 354.069C254.02 353.618 253.822 352.689 254.273 351.994C259.661 343.697 258.715 332.485 251.44 325.21C243.078 316.848 229.521 316.848 221.159 325.21L220.22 324.27L221.159 325.21C212.797 333.572 212.797 347.129 221.159 355.49C228.441 362.773 239.667 363.714 247.967 358.309C248.661 357.857 249.59 358.053 250.042 358.748C250.494 359.442 250.298 360.371 249.604 360.823C240.14 366.986 227.343 365.917 219.038 357.612C216.567 355.141 214.737 352.273 213.547 349.213H205.273C204.445 349.213 203.773 348.542 203.773 347.713C203.773 346.885 204.445 346.213 205.273 346.213H212.599C212.276 344.906 212.064 343.576 211.961 342.24H206.944C206.116 342.24 205.444 341.568 205.444 340.74C205.444 339.912 206.116 339.24 206.944 339.24H211.913C211.973 337.907 212.142 336.578 212.42 335.267H200.5C199.672 335.267 199 334.595 199 333.767C199 332.938 199.672 332.267 200.5 332.267H213.259C213.736 330.903 214.339 329.572 215.066 328.293H208.635C207.806 328.293 207.135 327.622 207.135 326.793C207.135 325.965 207.806 325.293 208.635 325.293H217.081C217.681 324.529 218.333 323.793 219.038 323.089C222.37 319.756 226.426 317.589 230.699 316.586V314.035ZM233.699 316.077C235.415 315.894 237.147 315.893 238.863 316.073V314.228H233.699V316.077ZM236.3 359.168C225.907 359.168 217.481 350.743 217.481 340.35C217.481 329.957 225.907 321.532 236.3 321.532C246.693 321.532 255.118 329.957 255.118 340.35C255.118 350.743 246.693 359.168 236.3 359.168ZM220.481 340.35C220.481 349.086 227.564 356.168 236.3 356.168C245.036 356.168 252.118 349.086 252.118 340.35C252.118 331.614 245.036 324.532 236.3 324.532C227.564 324.532 220.481 331.614 220.481 340.35ZM237.872 336.655L243.63 330.897C244.216 330.311 245.166 330.311 245.752 330.897C246.337 331.483 246.337 332.433 245.752 333.018L245.604 333.166C245.596 333.175 245.587 333.184 245.578 333.192L239.994 338.777C240.2 339.26 240.314 339.792 240.314 340.35C240.314 342.568 238.516 344.365 236.299 344.365C234.082 344.365 232.284 342.568 232.284 340.35C232.284 339.792 232.398 339.259 232.604 338.776L230.112 336.284C229.526 335.698 229.526 334.748 230.112 334.163C230.698 333.577 231.648 333.577 232.234 334.163L234.726 336.655C235.209 336.449 235.741 336.335 236.299 336.335C236.857 336.335 237.389 336.449 237.872 336.655ZM237.011 339.627L237.016 339.633L237.022 339.638C237.203 339.822 237.314 340.073 237.314 340.35C237.314 340.911 236.859 341.365 236.299 341.365C235.738 341.365 235.284 340.911 235.284 340.35C235.284 339.79 235.738 339.335 236.299 339.335C236.576 339.335 236.828 339.447 237.011 339.627ZM246.453 340.365C246.453 341.193 247.125 341.865 247.953 341.865H249.059C249.887 341.865 250.559 341.193 250.559 340.365C250.559 339.536 249.887 338.865 249.059 338.865H247.953C247.125 338.865 246.453 339.536 246.453 340.365ZM223.541 341.836C222.713 341.836 222.041 341.164 222.041 340.336C222.041 339.507 222.713 338.836 223.541 338.836H224.646C225.475 338.836 226.146 339.507 226.146 340.336C226.146 341.164 225.475 341.836 224.646 341.836H223.541ZM236.313 330.197C237.142 330.197 237.813 329.525 237.813 328.697V327.591C237.813 326.763 237.142 326.091 236.313 326.091C235.485 326.091 234.813 326.763 234.813 327.591V328.697C234.813 329.525 235.485 330.197 236.313 330.197ZM237.785 353.109C237.785 353.937 237.114 354.609 236.285 354.609C235.457 354.609 234.785 353.937 234.785 353.109V352.003C234.785 351.175 235.457 350.503 236.285 350.503C237.114 350.503 237.785 351.175 237.785 352.003V353.109Z" fill="#324D90" fill-opacity="0.5"/>
<defs>
<linearGradient id="paint0_linear_521_1408" x1="190.296" y1="110.049" x2="138.565" y2="170.27" gradientUnits="userSpaceOnUse">
<stop stop-color="#4A6EFF"/>
<stop offset="1" stop-color="#A13DFF"/>
</linearGradient>
<linearGradient id="paint1_linear_521_1408" x1="264.485" y1="112.137" x2="214.514" y2="168.337" gradientUnits="userSpaceOnUse">
<stop stop-color="#4A6EFF"/>
<stop offset="1" stop-color="#A13DFF"/>
</linearGradient>
<linearGradient id="paint2_linear_521_1408" x1="350.361" y1="109.118" x2="300.714" y2="177.982" gradientUnits="userSpaceOnUse">
<stop stop-color="#4A6EFF"/>
<stop offset="1" stop-color="#A13DFF"/>
</linearGradient>
<linearGradient id="paint3_linear_521_1408" x1="0" y1="37.5526" x2="123.51" y2="37.5526" gradientUnits="userSpaceOnUse">
<stop stop-color="#FB9004"/>
<stop offset="1" stop-color="#FC067D"/>
</linearGradient>
<linearGradient id="paint4_linear_521_1408" x1="0" y1="37.5526" x2="123.51" y2="37.5526" gradientUnits="userSpaceOnUse">
<stop stop-color="#FB9004"/>
<stop offset="1" stop-color="#FC067D"/>
</linearGradient>
<linearGradient id="paint5_linear_521_1408" x1="348.614" y1="315.12" x2="451.901" y2="315.12" gradientUnits="userSpaceOnUse">
<stop stop-color="#9942FF"/>
<stop offset="1" stop-color="#4D6DFF"/>
</linearGradient>
</defs>
</svg>
