<svg width="386" height="78" viewBox="0 0 386 78" fill="none" xmlns="http://www.w3.org/2000/svg">
<path d="M108.534 31.4355L98.7235 57.1289H92.8996L83.0894 31.4355H89.196L95.8115 48.6301L102.427 31.4355H108.534Z" fill="white"/>
<path d="M111.785 31.4648H129.963V36.6148H117.806V41.8773H128.239V47.0272H117.806V52.0364H130.133V57.1863H111.785V31.4648Z" fill="white"/>
<path d="M134.345 31.4648H140.367V52.0083H151.195V57.1582H134.373V31.4648H134.345Z" fill="white"/>
<path d="M153.061 44.2681C153.061 43.0299 153.231 41.8198 153.57 40.666C153.909 39.5122 154.39 38.4428 154.983 37.4578C155.605 36.4447 156.341 35.5442 157.189 34.7281C158.037 33.912 158.998 33.2084 160.044 32.6456C161.09 32.0546 162.221 31.6044 163.408 31.2948C164.596 30.9853 165.868 30.8164 167.168 30.8164C168.469 30.8164 169.713 30.9853 170.9 31.2948C172.088 31.6044 173.219 32.0546 174.265 32.6456C175.311 33.2366 176.272 33.9401 177.12 34.7281C177.968 35.5442 178.703 36.4447 179.325 37.4578C179.947 38.4709 180.4 39.5403 180.739 40.666C181.078 41.8198 181.248 43.0017 181.248 44.2681C181.248 45.5345 181.078 46.7164 180.739 47.8703C180.4 49.0241 179.919 50.0934 179.325 51.0784C178.703 52.0915 177.968 52.992 177.12 53.8081C176.272 54.6243 175.311 55.3278 174.265 55.9188C173.219 56.5097 172.088 56.96 170.9 57.2696C169.685 57.5791 168.441 57.748 167.168 57.748C165.896 57.748 164.624 57.5791 163.408 57.2696C162.193 56.96 161.09 56.5097 160.044 55.9188C158.998 55.3278 158.065 54.6524 157.189 53.8081C156.341 52.992 155.605 52.0915 154.983 51.0784C154.362 50.0653 153.909 48.9959 153.57 47.8703C153.231 46.7164 153.061 45.5345 153.061 44.2681ZM159.055 44.2681C159.055 45.4501 159.252 46.5476 159.677 47.5607C160.101 48.5738 160.666 49.4462 161.401 50.206C162.136 50.9377 162.984 51.5287 163.974 51.9508C164.963 52.3729 166.009 52.5699 167.112 52.5699C168.215 52.5699 169.317 52.3729 170.307 51.9508C171.296 51.5287 172.144 50.9377 172.879 50.206C173.614 49.4743 174.18 48.5738 174.604 47.5607C175.028 46.5476 175.226 45.4501 175.226 44.2681C175.226 43.0862 175.028 41.9886 174.604 40.9755C174.18 39.9624 173.614 39.0901 172.879 38.3302C172.144 37.5985 171.296 37.0076 170.307 36.5854C169.317 36.1633 168.271 35.9663 167.112 35.9663C165.953 35.9663 164.935 36.1633 163.974 36.5854C162.984 37.0076 162.136 37.5985 161.401 38.3302C160.666 39.0619 160.101 39.9624 159.677 40.9755C159.252 41.9886 159.055 43.0862 159.055 44.2681Z" fill="white"/>
<path d="M206.183 40.8916C205.9 40.1036 205.504 39.4001 205.024 38.7809C204.515 38.1618 203.949 37.6553 203.299 37.2331C202.649 36.811 201.942 36.5015 201.207 36.2763C200.444 36.0512 199.68 35.9668 198.889 35.9668C197.786 35.9668 196.712 36.1638 195.751 36.5859C194.761 37.008 193.913 37.599 193.178 38.3307C192.443 39.0624 191.877 39.9629 191.453 40.976C191.029 41.9891 190.831 43.0866 190.831 44.2686C190.831 45.4505 191.029 46.548 191.453 47.5611C191.877 48.5742 192.443 49.4466 193.178 50.2065C193.913 50.9381 194.761 51.5291 195.751 51.9512C196.74 52.3734 197.786 52.5704 198.889 52.5704C199.68 52.5704 200.444 52.4578 201.207 52.2608C201.97 52.0638 202.649 51.7542 203.299 51.3321C203.949 50.91 204.515 50.4034 205.024 49.7843C205.532 49.1652 205.9 48.4617 206.183 47.6456H212.346C212.091 48.7431 211.724 49.7843 211.215 50.6849C210.706 51.6135 210.112 52.4578 209.434 53.1895C208.755 53.9212 207.992 54.5966 207.144 55.1312C206.296 55.6941 205.448 56.1725 204.515 56.5383C203.61 56.9042 202.677 57.1856 201.716 57.3826C200.755 57.5796 199.822 57.664 198.889 57.664C197.588 57.664 196.344 57.4951 195.129 57.1856C193.913 56.876 192.81 56.4258 191.764 55.8348C190.718 55.2438 189.785 54.5684 188.909 53.7242C188.061 52.9081 187.326 52.0075 186.704 50.9944C186.082 49.9813 185.629 48.9119 185.29 47.7863C184.951 46.6325 184.781 45.4505 184.781 44.1841C184.781 42.9178 184.951 41.7358 185.29 40.582C185.629 39.4282 186.11 38.3588 186.704 37.3739C187.326 36.3608 188.061 35.4602 188.909 34.6441C189.757 33.828 190.718 33.1245 191.764 32.5616C192.81 31.9707 193.941 31.5204 195.129 31.2108C196.316 30.9013 197.588 30.7324 198.889 30.7324C199.793 30.7324 200.726 30.8168 201.688 31.0138C202.649 31.1827 203.582 31.4641 204.486 31.8299C205.391 32.1958 206.296 32.6461 207.116 33.2089C207.964 33.7717 208.727 34.419 209.406 35.1507C210.084 35.8823 210.678 36.7266 211.187 37.6834C211.696 38.6402 212.063 39.6815 212.289 40.8071H206.154L206.183 40.8916Z" fill="white"/>
<path d="M217.011 31.4648H223.033V57.1582H217.011V31.4648Z" fill="white"/>
<path d="M233.804 36.5855H226.595V31.4355H247.007V36.5855H239.798V57.1289H233.804V36.5855Z" fill="white"/>
<path d="M274.148 31.4648L264.196 47.4212V57.1582H258.203V47.4493L248.279 31.4648H255.291L261.199 41.9898H261.256L267.165 31.4648H274.176H274.148Z" fill="white"/>
<path d="M36.9222 58.0431L18.9133 67.2454L12.4674 58.4933L2.318 44.9009C-3.44938 36.9931 2.20491 25.9053 12.0151 25.9053C15.8035 25.9053 19.394 27.7063 21.6557 30.7738L32.9642 45.717L33.6993 44.732L36.894 58.0431H36.9222Z" fill="url(#paint0_linear_180_687)"/>
<path d="M84.8423 10.2585C83.8528 3.70151 77.7179 -0.829301 71.1306 0.127516C67.9925 0.605924 65.3067 2.23814 63.4691 4.54576C63.3277 4.77089 63.1864 4.93974 63.045 5.13673L55.3835 15.4366C54.7332 16.309 54.9028 17.5472 55.8075 18.2226C56.6839 18.8699 57.9279 18.701 58.6064 17.8005L61.3205 14.1421C61.7163 13.6074 62.4796 13.4948 63.045 13.8888C63.5822 14.2828 63.6953 15.0707 63.2995 15.6054L55.5531 26.046C54.9028 26.9184 55.1007 28.1566 55.9772 28.832C56.8536 29.4793 58.1258 29.3104 58.776 28.4099L64.5999 20.5865C65.0523 19.9674 65.9287 19.8267 66.5507 20.2769C67.1726 20.7272 67.2857 21.5996 66.8334 22.2187L66.7768 22.275L63.045 27.2842C62.3948 28.1566 62.5927 29.3667 63.4408 30.014L63.5256 30.0702C64.3738 30.7175 65.6177 30.5205 66.2397 29.6763L71.8374 22.1624C72.318 21.5152 73.251 21.3745 73.9012 21.8529C74.5515 22.3313 74.6929 23.26 74.2122 23.9072V23.9635L72.94 25.6239C72.3746 26.3837 72.5159 27.4812 73.3076 28.044L73.7033 28.3255C74.4667 28.8883 75.5693 28.7476 76.1347 27.9596L82.8633 18.9543C82.8633 18.9543 83.0047 18.7573 83.0329 18.6447C84.6161 16.2527 85.3795 13.2978 84.9271 10.2304L84.8423 10.2585Z" fill="url(#paint1_linear_180_687)"/>
<path d="M72.488 29.4227C71.6116 28.7754 70.3676 28.9443 69.6891 29.8448C69.0389 30.7172 69.2085 31.9554 70.1132 32.6308C71.0179 33.3062 72.2336 33.1092 72.9121 32.2087C73.5623 31.3363 73.3927 30.0981 72.488 29.4227Z" fill="url(#paint2_linear_180_687)"/>
<path d="M62.0838 31.8436C61.2074 31.1963 59.9634 31.3652 59.2849 32.2657L57.3625 34.8547C56.7122 35.7271 56.8818 36.9653 57.7865 37.6407C58.6629 38.288 59.9069 38.1192 60.5854 37.2186L62.5079 34.6296C63.1581 33.7572 62.9885 32.519 62.0838 31.8436Z" fill="url(#paint3_linear_180_687)"/>
<path d="M54.903 19.1519C54.0831 18.5328 52.924 18.7298 52.302 19.5459C51.6801 20.362 51.8779 21.5158 52.6978 22.1349C53.5177 22.754 54.6768 22.557 55.2988 21.7409C55.9208 20.9248 55.7229 19.771 54.903 19.1519Z" fill="white"/>
<path d="M68.3604 35.0793C67.5123 34.4602 66.3531 34.6572 65.7312 35.4733L58.0413 45.942L58.0979 45.9983L55.7796 49.1783C55.4121 49.6849 54.8749 49.9381 54.2812 49.9381C53.9137 49.9381 53.5179 49.8256 53.2069 49.5723C52.3871 48.9813 52.2174 47.8275 52.8111 47.0114L53.32 46.336L53.3766 46.2234L57.1649 41.0454C57.7869 40.2011 57.589 39.0473 56.7691 38.4282C55.921 37.8091 54.7619 38.0061 54.1399 38.8222L52.8111 40.6232C52.5001 41.0454 52.0195 41.2705 51.5106 41.2705C51.1996 41.2705 50.8604 41.1861 50.5777 40.9609C49.8709 40.4544 49.7013 39.4413 50.2384 38.7378L51.5955 36.8804L54.564 32.828C55.1859 31.9838 54.988 30.8299 54.1682 30.2108C53.32 29.5917 52.1609 29.7887 51.5389 30.6048L48.316 34.9668L46.6197 37.2744C46.2521 37.7809 45.5454 37.8935 45.0365 37.5277C44.6124 37.2181 44.4711 36.6553 44.6972 36.1769L50.9452 27.6499C51.5672 26.8057 51.3693 25.6519 50.5494 25.0328C49.7013 24.4136 48.5421 24.6106 47.9202 25.4267L40.2303 35.8954L32.9646 45.6606C32.9646 45.6606 21.034 62.8833 12.4678 58.4369L22.3345 71.8605C27.593 79.0366 38.3644 79.0366 43.6512 71.8605L64.0914 44.0284L68.8128 37.6121C69.4347 36.7678 69.2368 35.614 68.417 34.9949L68.3604 35.0793Z" fill="url(#paint4_linear_180_687)"/>
<path d="M277.867 40.0615H285.003C286.329 40.0615 287.564 40.2436 288.708 40.6079C289.852 40.9722 290.858 41.5641 291.681 42.2926C292.505 43.0211 293.191 43.9318 293.648 45.0246C294.106 46.1174 294.38 47.3467 294.38 48.8038C294.38 50.1242 294.151 51.3081 293.74 52.3553C293.328 53.4481 292.733 54.3588 291.91 55.1328C291.087 55.9069 290.126 56.4988 288.983 56.9086C287.839 57.3184 286.512 57.5461 285.003 57.5461H277.821V40.0615H277.867ZM284.957 54.0401C286.695 54.0401 288.022 53.5847 288.937 52.7196C289.852 51.809 290.309 50.534 290.309 48.8493C290.309 48.0297 290.218 47.3012 289.989 46.6638C289.76 46.0263 289.44 45.4799 288.983 44.9791C288.525 44.5237 287.976 44.1595 287.29 43.9318C286.604 43.7041 285.826 43.5675 284.911 43.5675H281.938V54.0401H284.911H284.957Z" fill="white"/>
<path d="M298.817 40.0615H302.888V57.5461H298.817V40.0615Z" fill="white"/>
<path d="M316.657 48.1673H325.668C325.76 49.6244 325.577 50.9448 325.119 52.1742C324.707 53.3581 324.113 54.4053 323.289 55.2704C322.466 56.1355 321.551 56.773 320.408 57.2739C319.264 57.7747 318.075 58.0024 316.748 58.0024C315.879 58.0024 315.01 57.9113 314.187 57.6837C313.363 57.456 312.586 57.1373 311.899 56.773C311.168 56.3632 310.527 55.9079 309.978 55.3615C309.384 54.8151 308.88 54.1776 308.469 53.4946C308.057 52.8117 307.737 52.0831 307.508 51.3091C307.279 50.535 307.188 49.7154 307.188 48.8503C307.188 47.9852 307.279 47.1656 307.508 46.3916C307.737 45.6175 308.057 44.889 308.469 44.206C308.88 43.523 309.384 42.9311 309.978 42.3391C310.573 41.7472 311.213 41.2919 311.899 40.9276C312.631 40.5178 313.363 40.2446 314.187 40.017C315.01 39.7893 315.879 39.6982 316.748 39.6982C318.075 39.6982 319.356 39.9259 320.499 40.4268C321.643 40.9276 322.695 41.6106 323.61 42.4757L320.957 45.1622C320.499 44.5702 319.904 44.1149 319.173 43.7507C318.441 43.3864 317.617 43.2043 316.748 43.2043C315.971 43.2043 315.284 43.3409 314.598 43.6141C313.912 43.8873 313.363 44.297 312.86 44.7979C312.357 45.2988 311.945 45.8907 311.671 46.5737C311.396 47.2567 311.259 48.0307 311.259 48.8048C311.259 49.5788 311.396 50.3529 311.671 51.0359C311.945 51.7189 312.357 52.3108 312.86 52.8117C313.363 53.3125 313.958 53.7223 314.598 53.9955C315.284 54.2687 315.971 54.4053 316.748 54.4053C317.434 54.4053 318.075 54.3142 318.624 54.1776C319.173 54.041 319.63 53.8134 320.042 53.4946C320.453 53.2215 320.774 52.8572 321.002 52.4474C321.231 52.0376 321.414 51.5823 321.551 51.0814H316.565V48.1218L316.657 48.1673Z" fill="white"/>
<path d="M330.425 40.0615H334.496V57.5461H330.425V40.0615Z" fill="white"/>
<path d="M343.187 43.5675H338.293V40.0615H352.199V43.5675H347.304V57.5461H343.233V43.5675H343.187Z" fill="white"/>
<path d="M365.052 54.7686H357.688L356.59 57.5461H352.244L359.426 40.0615H363.268L370.45 57.5461H366.15L365.006 54.7686H365.052ZM359.106 51.3081H363.634L361.484 46.0263L361.347 45.4799L361.21 46.0263L359.06 51.3081H359.106Z" fill="white"/>
<path d="M373.973 40.0615H378.044V54.0401H385.408V57.5461H373.973V40.0615Z" fill="white"/>
<path d="M123.034 73.8301V70.3246L120.181 65.5475H121.693L123.738 69.1103L125.749 65.5475H127.272L124.425 70.3303V73.8301H123.034ZM133.495 73.9446C132.731 73.9446 132.07 73.7766 131.513 73.4406C130.959 73.1045 130.53 72.6196 130.224 71.9857C129.922 71.3518 129.772 70.5919 129.772 69.706C129.772 68.8124 129.924 68.0468 130.23 67.4091C130.535 66.7714 130.967 66.2826 131.524 65.9427C132.086 65.6029 132.743 65.4329 133.495 65.4329C134.247 65.4329 134.898 65.6029 135.448 65.9427C136.002 66.2826 136.429 66.7714 136.731 67.4091C137.033 68.0468 137.184 68.8124 137.184 69.706C137.184 70.5919 137.035 71.3518 136.737 71.9857C136.439 72.6158 136.013 73.1007 135.459 73.4406C134.906 73.7766 134.251 73.9446 133.495 73.9446ZM133.495 72.7761C133.945 72.7761 134.333 72.6711 134.658 72.4611C134.982 72.2473 135.23 71.9169 135.402 71.4702C135.578 71.0196 135.666 70.4372 135.666 69.7232C135.666 68.9976 135.578 68.4057 135.402 67.9475C135.227 67.4854 134.976 67.1456 134.652 66.9279C134.327 66.7103 133.942 66.6014 133.495 66.6014C133.044 66.6014 132.655 66.7122 132.326 66.9336C132.002 67.1513 131.75 67.4912 131.57 67.9532C131.391 68.4115 131.301 69.0014 131.301 69.7232C131.301 70.4372 131.391 71.0196 131.57 71.4702C131.75 71.9169 132.002 72.2473 132.326 72.4611C132.655 72.6711 133.044 72.7761 133.495 72.7761ZM144.028 73.9446C143.265 73.9446 142.648 73.8186 142.178 73.5666C141.712 73.3107 141.374 72.9442 141.164 72.4668C140.954 71.9857 140.849 71.4053 140.849 70.7255V65.5475H142.276V70.8687C142.276 71.5103 142.432 71.9838 142.745 72.2893C143.062 72.5948 143.49 72.7475 144.028 72.7475C144.391 72.7475 144.706 72.6807 144.973 72.547C145.241 72.4134 145.447 72.2091 145.592 71.9341C145.737 71.6554 145.81 71.3002 145.81 70.8687V65.5475H147.219V70.8057C147.219 71.4625 147.112 72.0258 146.898 72.4955C146.684 72.9613 146.342 73.3203 145.873 73.5723C145.407 73.8205 144.792 73.9446 144.028 73.9446ZM151.246 73.8301V65.5475H154.608C155.242 65.5475 155.763 65.6468 156.172 65.8453C156.584 66.0401 156.89 66.3169 157.088 66.6759C157.287 67.031 157.386 67.4473 157.386 67.9246C157.386 68.3675 157.314 68.7399 157.169 69.0415C157.023 69.3394 156.834 69.5838 156.602 69.7747C156.372 69.9618 156.126 70.1146 155.863 70.2329L157.444 73.8301H155.989L154.562 70.4678H152.638V73.8301H151.246ZM152.638 69.3623H154.293C154.82 69.3623 155.231 69.2401 155.525 68.9957C155.823 68.7513 155.971 68.4115 155.971 67.9761C155.971 67.5484 155.834 67.2181 155.559 66.9852C155.284 66.7523 154.921 66.6358 154.471 66.6358H152.638V69.3623ZM166.222 73.8301V65.5475H169.068C170.118 65.5475 170.903 65.7346 171.422 66.1088C171.946 66.4792 172.207 67.0138 172.207 67.7126C172.207 68.1365 172.098 68.5031 171.881 68.8124C171.663 69.1217 171.279 69.3833 170.729 69.5971C171.065 69.6773 171.342 69.7881 171.56 69.9294C171.781 70.0668 171.953 70.2253 172.075 70.4048C172.198 70.5804 172.284 70.7695 172.333 70.9718C172.383 71.1742 172.408 71.3823 172.408 71.5962C172.408 72.3523 172.144 72.9136 171.617 73.2802C171.094 73.6468 170.283 73.8301 169.183 73.8301H166.222ZM167.613 72.7189H169.2C169.788 72.7189 170.233 72.6138 170.535 72.4038C170.84 72.19 170.993 71.8826 170.993 71.4816C170.993 71.1914 170.918 70.9527 170.769 70.7656C170.621 70.5747 170.418 70.4334 170.162 70.3418C169.906 70.2501 169.62 70.2043 169.303 70.2043H167.613V72.7189ZM167.613 69.0759H169.303C169.498 69.0759 169.687 69.0549 169.87 69.0129C170.054 68.9709 170.22 68.9041 170.369 68.8124C170.517 68.7208 170.636 68.5986 170.724 68.4458C170.815 68.2931 170.861 68.1079 170.861 67.8902C170.861 67.474 170.703 67.1647 170.386 66.9623C170.073 66.7561 169.67 66.653 169.177 66.653H167.613V69.0759ZM176.327 73.8301V65.5475H179.689C180.323 65.5475 180.845 65.6468 181.253 65.8453C181.666 66.0401 181.971 66.3169 182.17 66.6759C182.368 67.031 182.468 67.4473 182.468 67.9246C182.468 68.3675 182.395 68.7399 182.25 69.0415C182.105 69.3394 181.916 69.5838 181.683 69.7747C181.454 69.9618 181.207 70.1146 180.944 70.2329L182.525 73.8301H181.07L179.644 70.4678H177.719V73.8301H176.327ZM177.719 69.3623H179.374C179.901 69.3623 180.312 69.2401 180.606 68.9957C180.904 68.7513 181.053 68.4115 181.053 67.9761C181.053 67.5484 180.915 67.2181 180.64 66.9852C180.365 66.7523 180.003 66.6358 179.552 66.6358H177.719V69.3623ZM185.854 73.8301L188.826 65.5475H190.338L193.311 73.8301H191.914L191.175 71.7508H188.001L187.257 73.8301H185.854ZM188.334 70.5136H190.825L189.582 66.8993L188.334 70.5136ZM196.919 73.8301V65.5475H198.282L202.337 71.4644V65.5475H203.729V73.8301H202.475L198.311 67.7527V73.8301H196.919ZM207.953 73.8301V65.5475C207.987 65.5475 208.089 65.5475 208.257 65.5475C208.425 65.5475 208.623 65.5475 208.852 65.5475C209.085 65.5475 209.32 65.5494 209.557 65.5532C209.797 65.5532 210.006 65.5551 210.181 65.5589C211.189 65.578 212.008 65.7518 212.639 66.0802C213.272 66.4048 213.736 66.8687 214.03 67.4721C214.328 68.0716 214.477 68.7952 214.477 69.643C214.477 70.5289 214.319 71.2831 214.002 71.9055C213.689 72.5279 213.208 73.0053 212.558 73.3375C211.913 73.6659 211.092 73.8301 210.095 73.8301H207.953ZM209.368 72.6788H210.118C210.687 72.6788 211.189 72.5814 211.625 72.3866C212.06 72.1881 212.4 71.8673 212.644 71.4243C212.892 70.9814 213.017 70.3895 213.017 69.6487C213.017 68.9308 212.902 68.3561 212.673 67.9246C212.444 67.4931 212.115 67.1819 211.688 66.9909C211.26 66.7962 210.748 66.6988 210.153 66.6988H209.368V72.6788ZM217.555 75.3594L218.208 73.8644L217.664 73.8244V72.3637H219.188V73.6411L218.117 75.3594H217.555ZM231.378 73.9446C230.614 73.9446 229.953 73.7766 229.396 73.4406C228.842 73.1045 228.413 72.6196 228.107 71.9857C227.805 71.3518 227.655 70.5919 227.655 69.706C227.655 68.8124 227.807 68.0468 228.113 67.4091C228.418 66.7714 228.85 66.2826 229.407 65.9427C229.969 65.6029 230.625 65.4329 231.378 65.4329C232.13 65.4329 232.781 65.6029 233.331 65.9427C233.885 66.2826 234.312 66.7714 234.614 67.4091C234.916 68.0468 235.066 68.8124 235.066 69.706C235.066 70.5919 234.918 71.3518 234.62 71.9857C234.322 72.6158 233.896 73.1007 233.342 73.4406C232.789 73.7766 232.134 73.9446 231.378 73.9446ZM231.378 72.7761C231.828 72.7761 232.216 72.6711 232.54 72.4611C232.865 72.2473 233.113 71.9169 233.285 71.4702C233.461 71.0196 233.549 70.4372 233.549 69.7232C233.549 68.9976 233.461 68.4057 233.285 67.9475C233.109 67.4854 232.859 67.1456 232.535 66.9279C232.21 66.7103 231.824 66.6014 231.378 66.6014C230.927 66.6014 230.538 66.7122 230.209 66.9336C229.885 67.1513 229.633 67.4912 229.453 67.9532C229.274 68.4115 229.184 69.0014 229.184 69.7232C229.184 70.4372 229.274 71.0196 229.453 71.4702C229.633 71.9169 229.885 72.2473 230.209 72.4611C230.538 72.6711 230.927 72.7761 231.378 72.7761ZM241.911 73.9446C241.147 73.9446 240.531 73.8186 240.061 73.5666C239.595 73.3107 239.257 72.9442 239.047 72.4668C238.837 71.9857 238.732 71.4053 238.732 70.7255V65.5475H240.158V70.8687C240.158 71.5103 240.315 71.9838 240.628 72.2893C240.945 72.5948 241.373 72.7475 241.911 72.7475C242.274 72.7475 242.589 72.6807 242.856 72.547C243.124 72.4134 243.33 72.2091 243.475 71.9341C243.62 71.6554 243.693 71.3002 243.693 70.8687V65.5475H245.102V70.8057C245.102 71.4625 244.995 72.0258 244.781 72.4955C244.567 72.9613 244.225 73.3203 243.756 73.5723C243.29 73.8205 242.675 73.9446 241.911 73.9446ZM249.129 73.8301V65.5475H252.491C253.125 65.5475 253.646 65.6468 254.055 65.8453C254.467 66.0401 254.773 66.3169 254.971 66.6759C255.17 67.031 255.269 67.4473 255.269 67.9246C255.269 68.3675 255.197 68.7399 255.051 69.0415C254.906 69.3394 254.717 69.5838 254.484 69.7747C254.255 69.9618 254.009 70.1146 253.745 70.2329L255.326 73.8301H253.871L252.445 70.4678H250.521V73.8301H249.129ZM250.521 69.3623H252.176C252.703 69.3623 253.113 69.2401 253.407 68.9957C253.705 68.7513 253.854 68.4115 253.854 67.9761C253.854 67.5484 253.717 67.2181 253.442 66.9852C253.167 66.7523 252.804 66.6358 252.354 66.6358H250.521V69.3623ZM264.104 73.8301V65.5475H269.58L269.575 66.7446H265.508V69.0644H269.099V70.2444H265.496V72.6158L269.66 72.6215V73.8301H264.104ZM273.138 73.8301L275.917 69.6143L273.23 65.5475H274.948L276.787 68.4458L278.614 65.5475H280.115L277.52 69.4482L280.424 73.8301H278.695L276.655 70.6453L274.651 73.8301H273.138ZM286.936 73.9446C286.177 73.9446 285.524 73.7709 284.977 73.4234C284.435 73.0721 284.017 72.5757 283.723 71.9341C283.433 71.2888 283.288 70.5232 283.288 69.6372C283.288 68.7551 283.433 68.001 283.723 67.3747C284.013 66.7484 284.429 66.2692 284.972 65.937C285.518 65.6009 286.173 65.4329 286.936 65.4329C287.544 65.4329 288.082 65.557 288.552 65.8052C289.021 66.0496 289.399 66.3819 289.686 66.8019C289.976 67.222 290.148 67.6897 290.201 68.2052H288.729C288.672 67.8998 288.565 67.6267 288.408 67.3862C288.256 67.1456 288.053 66.9546 287.801 66.8134C287.549 66.6721 287.248 66.6014 286.896 66.6014C286.457 66.6014 286.083 66.7064 285.774 66.9165C285.468 67.1227 285.233 67.4511 285.069 67.9017C284.909 68.3523 284.829 68.9365 284.829 69.6544C284.829 70.7427 285.008 71.5351 285.367 72.0315C285.726 72.5279 286.236 72.7761 286.896 72.7761C287.248 72.7761 287.549 72.6998 287.801 72.547C288.053 72.3905 288.256 72.1843 288.408 71.9284C288.565 71.6687 288.672 71.3862 288.729 71.0807H290.201C290.156 71.4549 290.06 71.8138 289.915 72.1575C289.774 72.5012 289.573 72.8086 289.314 73.0797C289.054 73.347 288.727 73.559 288.334 73.7155C287.945 73.8683 287.479 73.9446 286.936 73.9446ZM293.996 73.8301V65.5475H299.472L299.466 66.7446H295.4V69.0644H298.991V70.2444H295.388V72.6158L299.552 72.6215V73.8301H293.996ZM303.475 73.8301L303.481 65.5475H304.89V72.6272H308.631V73.8301H303.475ZM312.306 73.8301L312.311 65.5475H313.721V72.6272H317.461V73.8301H312.306ZM321.136 73.8301V65.5475H326.612L326.606 66.7446H322.539V69.0644H326.131V70.2444H322.528V72.6158L326.692 72.6215V73.8301H321.136ZM330.615 73.8301V65.5475H331.978L336.034 71.4644V65.5475H337.426V73.8301H336.171L332.007 67.7527V73.8301H330.615ZM344.874 73.9446C344.114 73.9446 343.461 73.7709 342.915 73.4234C342.373 73.0721 341.955 72.5757 341.661 71.9341C341.371 71.2888 341.226 70.5232 341.226 69.6372C341.226 68.7551 341.371 68.001 341.661 67.3747C341.951 66.7484 342.367 66.2692 342.91 65.937C343.456 65.6009 344.11 65.4329 344.874 65.4329C345.481 65.4329 346.02 65.557 346.489 65.8052C346.959 66.0496 347.337 66.3819 347.624 66.8019C347.914 67.222 348.086 67.6897 348.139 68.2052H346.667C346.61 67.8998 346.503 67.6267 346.346 67.3862C346.194 67.1456 345.991 66.9546 345.739 66.8134C345.487 66.6721 345.185 66.6014 344.834 66.6014C344.395 66.6014 344.021 66.7064 343.711 66.9165C343.406 67.1227 343.171 67.4511 343.007 67.9017C342.847 68.3523 342.766 68.9365 342.766 69.6544C342.766 70.7427 342.946 71.5351 343.305 72.0315C343.664 72.5279 344.174 72.7761 344.834 72.7761C345.185 72.7761 345.487 72.6998 345.739 72.547C345.991 72.3905 346.194 72.1843 346.346 71.9284C346.503 71.6687 346.61 71.3862 346.667 71.0807H348.139C348.093 71.4549 347.998 71.8138 347.853 72.1575C347.711 72.5012 347.511 72.8086 347.251 73.0797C346.992 73.347 346.665 73.559 346.272 73.7155C345.882 73.8683 345.416 73.9446 344.874 73.9446ZM351.934 73.8301V65.5475H357.41L357.404 66.7446H353.337V69.0644H356.929V70.2444H353.326V72.6158L357.49 72.6215V73.8301H351.934Z" fill="white"/>
<defs>
<linearGradient id="paint0_linear_180_687" x1="40.5" y1="65" x2="16.138" y2="32.3969" gradientUnits="userSpaceOnUse">
<stop stop-color="#A2A2A2"/>
<stop offset="1" stop-color="white"/>
</linearGradient>
<linearGradient id="paint1_linear_180_687" x1="174.087" y1="-134.212" x2="70.3942" y2="45.8194" gradientUnits="userSpaceOnUse">
<stop stop-color="#A2A2A2"/>
<stop offset="1" stop-color="white"/>
</linearGradient>
<linearGradient id="paint2_linear_180_687" x1="85.1715" y1="11.3992" x2="71.6476" y2="35.221" gradientUnits="userSpaceOnUse">
<stop stop-color="#A2A2A2"/>
<stop offset="1" stop-color="white"/>
</linearGradient>
<linearGradient id="paint3_linear_180_687" x1="80.4602" y1="2.46367" x2="57.0925" y2="39.5109" gradientUnits="userSpaceOnUse">
<stop stop-color="#A2A2A2"/>
<stop offset="1" stop-color="white"/>
</linearGradient>
<linearGradient id="paint4_linear_180_687" x1="237.115" y1="-207.023" x2="66.382" y2="116.872" gradientUnits="userSpaceOnUse">
<stop stop-color="#A2A2A2"/>
<stop offset="1" stop-color="white"/>
</linearGradient>
</defs>
</svg>
