<svg width="314" height="63" viewBox="0 0 314 63" fill="none" xmlns="http://www.w3.org/2000/svg">
<path d="M88.289 25.5723L80.3087 46.4731H75.5711L67.5908 25.5723H72.5584L77.9399 39.5596L83.3215 25.5723H88.289Z" fill="#2E2F35"/>
<path d="M90.9336 25.5952H105.721V29.7845H95.8322V34.0654H104.318V38.2547H95.8322V42.3296H105.859V46.5189H90.9336V25.5952Z" fill="#2E2F35"/>
<path d="M109.286 25.5952H114.185V42.3067H122.993V46.496H109.309V25.5952H109.286Z" fill="#2E2F35"/>
<path d="M124.511 36.0113C124.511 35.004 124.649 34.0196 124.925 33.081C125.201 32.1424 125.592 31.2725 126.075 30.4713C126.581 29.6472 127.179 28.9146 127.868 28.2507C128.558 27.5868 129.34 27.0145 130.191 26.5567C131.042 26.0759 131.962 25.7097 132.928 25.4578C133.894 25.206 134.929 25.0687 135.987 25.0687C137.045 25.0687 138.057 25.206 139.022 25.4578C139.988 25.7097 140.908 26.0759 141.759 26.5567C142.61 27.0374 143.392 27.6097 144.082 28.2507C144.772 28.9146 145.37 29.6472 145.876 30.4713C146.382 31.2954 146.75 32.1653 147.026 33.081C147.302 34.0196 147.44 34.9811 147.44 36.0113C147.44 37.0414 147.302 38.0029 147.026 38.9415C146.75 39.8801 146.359 40.75 145.876 41.5512C145.37 42.3754 144.772 43.1079 144.082 43.7718C143.392 44.4357 142.61 45.008 141.759 45.4887C140.908 45.9695 139.988 46.3357 139.022 46.5876C138.034 46.8394 137.022 46.9767 135.987 46.9767C134.952 46.9767 133.917 46.8394 132.928 46.5876C131.939 46.3357 131.042 45.9695 130.191 45.4887C129.34 45.008 128.581 44.4586 127.868 43.7718C127.179 43.1079 126.581 42.3754 126.075 41.5512C125.569 40.7271 125.201 39.8572 124.925 38.9415C124.649 38.0029 124.511 37.0414 124.511 36.0113ZM129.386 36.0113C129.386 36.9727 129.547 37.8655 129.892 38.6897C130.237 39.5138 130.697 40.2235 131.295 40.8416C131.893 41.4368 132.583 41.9175 133.388 42.2609C134.193 42.6043 135.044 42.7645 135.941 42.7645C136.838 42.7645 137.735 42.6043 138.54 42.2609C139.344 41.9175 140.034 41.4368 140.632 40.8416C141.23 40.2464 141.69 39.5138 142.035 38.6897C142.38 37.8655 142.541 36.9727 142.541 36.0113C142.541 35.0498 142.38 34.157 142.035 33.3328C141.69 32.5087 141.23 31.799 140.632 31.1809C140.034 30.5857 139.344 30.105 138.54 29.7616C137.735 29.4182 136.884 29.258 135.941 29.258C134.998 29.258 134.17 29.4182 133.388 29.7616C132.583 30.105 131.893 30.5857 131.295 31.1809C130.697 31.7762 130.237 32.5087 129.892 33.3328C129.547 34.157 129.386 35.0498 129.386 36.0113Z" fill="#2E2F35"/>
<path d="M167.724 33.2642C167.494 32.6232 167.172 32.0509 166.781 31.5472C166.367 31.0436 165.907 30.6315 165.378 30.2882C164.849 29.9448 164.274 29.693 163.676 29.5098C163.055 29.3267 162.434 29.258 161.79 29.258C160.894 29.258 160.02 29.4182 159.238 29.7616C158.433 30.105 157.743 30.5858 157.145 31.181C156.547 31.7762 156.087 32.5087 155.742 33.3329C155.397 34.157 155.236 35.0498 155.236 36.0113C155.236 36.9727 155.397 37.8656 155.742 38.6897C156.087 39.5138 156.547 40.2235 157.145 40.8416C157.743 41.4368 158.433 41.9175 159.238 42.2609C160.043 42.6043 160.894 42.7645 161.79 42.7645C162.434 42.7645 163.055 42.673 163.676 42.5127C164.297 42.3525 164.849 42.1007 165.378 41.7573C165.907 41.4139 166.367 41.0018 166.781 40.4982C167.195 39.9945 167.494 39.4222 167.724 38.7584H172.738C172.531 39.6512 172.232 40.4982 171.818 41.2307C171.404 41.9862 170.921 42.673 170.369 43.2682C169.817 43.8634 169.196 44.4128 168.506 44.8477C167.816 45.3056 167.126 45.6948 166.367 45.9924C165.631 46.29 164.872 46.5189 164.09 46.6791C163.308 46.8394 162.549 46.9081 161.79 46.9081C160.733 46.9081 159.721 46.7707 158.732 46.5189C157.743 46.2671 156.846 45.9008 155.995 45.4201C155.144 44.9393 154.385 44.3899 153.672 43.7031C152.982 43.0392 152.384 42.3067 151.878 41.4826C151.372 40.6584 151.004 39.7885 150.728 38.8728C150.452 37.9342 150.314 36.9727 150.314 35.9426C150.314 34.9124 150.452 33.9509 150.728 33.0124C151.004 32.0738 151.395 31.2039 151.878 30.4026C152.384 29.5785 152.982 28.8459 153.672 28.1821C154.362 27.5182 155.144 26.9459 155.995 26.488C156.846 26.0073 157.766 25.641 158.732 25.3892C159.698 25.1374 160.733 25 161.79 25C162.526 25 163.285 25.0687 164.067 25.2289C164.849 25.3663 165.608 25.5952 166.344 25.8928C167.08 26.1904 167.816 26.5567 168.483 27.0145C169.173 27.4724 169.794 27.9989 170.346 28.5941C170.898 29.1893 171.381 29.8761 171.795 30.6544C172.209 31.4328 172.508 32.2798 172.692 33.1955H167.701L167.724 33.2642Z" fill="#2E2F35"/>
<path d="M176.532 25.5952H181.431V46.496H176.532V25.5952Z" fill="#2E2F35"/>
<path d="M190.193 29.7616H184.329V25.5723H200.933V29.7616H195.069V46.4731H190.193V29.7616Z" fill="#2E2F35"/>
<path d="M223.011 25.5952L214.916 38.5752V46.496H210.041V38.5981L201.968 25.5952H207.672L212.478 34.157H212.524L217.331 25.5952H223.034H223.011Z" fill="#2E2F35"/>
<path d="M30.0352 47.2164L15.3855 54.7022L10.1419 47.5827L1.88562 36.5256C-2.80597 30.0928 1.79363 21.0732 9.77394 21.0732C12.8557 21.0732 15.7764 22.5383 17.6163 25.0336L26.8155 37.1895L27.4134 36.3883L30.0122 47.2164H30.0352Z" fill="url(#paint0_linear_180_659)"/>
<path d="M69.0169 8.34501C68.212 3.01107 63.2214 -0.674613 57.8629 0.10373C55.3101 0.492902 53.1253 1.82066 51.6304 3.69784C51.5154 3.88098 51.4004 4.01834 51.2854 4.17859L45.053 12.5572C44.524 13.2669 44.662 14.2742 45.3979 14.8236C46.1109 15.3501 47.1228 15.2127 47.6747 14.4802L49.8825 11.5042C50.2045 11.0692 50.8255 10.9776 51.2854 11.2981C51.7224 11.6186 51.8144 12.2596 51.4924 12.6946L45.191 21.1877C44.662 21.8973 44.823 22.9046 45.5359 23.454C46.2489 23.9805 47.2838 23.8432 47.8127 23.1106L52.5503 16.7465C52.9183 16.2429 53.6312 16.1284 54.1372 16.4947C54.6431 16.861 54.7351 17.5707 54.3672 18.0743L54.3212 18.1201L51.2854 22.1949C50.7565 22.9046 50.9175 23.889 51.6074 24.4155L51.6764 24.4613C52.3663 24.9878 53.3782 24.8276 53.8842 24.1408L58.4378 18.0285C58.8288 17.502 59.5877 17.3875 60.1167 17.7767C60.6456 18.1659 60.7606 18.9213 60.3696 19.4478V19.4936L59.3347 20.8443C58.8748 21.4624 58.9898 22.3552 59.6337 22.813L59.9557 23.042C60.5766 23.4998 61.4735 23.3853 61.9335 22.7444L67.407 15.4188C67.407 15.4188 67.522 15.2585 67.545 15.167C68.8329 13.2211 69.4539 10.8174 69.0859 8.32212L69.0169 8.34501Z" fill="url(#paint1_linear_180_659)"/>
<path d="M58.967 23.9348C58.254 23.4082 57.2421 23.5456 56.6902 24.2782C56.1612 24.9878 56.2992 25.9951 57.0351 26.5445C57.7711 27.0939 58.76 26.9337 59.3119 26.2011C59.8409 25.4915 59.7029 24.4842 58.967 23.9348Z" fill="url(#paint2_linear_180_659)"/>
<path d="M50.5035 25.9035C49.7906 25.377 48.7786 25.5143 48.2267 26.2469L46.6628 28.353C46.1339 29.0627 46.2719 30.0699 47.0078 30.6194C47.7207 31.1459 48.7326 31.0085 49.2846 30.276L50.8485 28.1699C51.3774 27.4602 51.2394 26.4529 50.5035 25.9035Z" fill="url(#paint3_linear_180_659)"/>
<path d="M44.6622 15.579C43.9952 15.0754 43.0523 15.2356 42.5463 15.8995C42.0404 16.5634 42.2014 17.502 42.8683 18.0056C43.5353 18.5093 44.4782 18.349 44.9841 17.6851C45.4901 17.0212 45.3291 16.0827 44.6622 15.579Z" fill="url(#paint4_linear_180_659)"/>
<path d="M55.6092 28.5361C54.9192 28.0325 53.9763 28.1928 53.4703 28.8566L47.2149 37.3726L47.2609 37.4184L45.375 40.0053C45.0761 40.4173 44.6391 40.6233 44.1562 40.6233C43.8572 40.6233 43.5352 40.5318 43.2822 40.3257C42.6153 39.845 42.4773 38.9064 42.9603 38.2425L43.3742 37.6931L43.4202 37.6015L46.5019 33.3893C47.0079 32.7026 46.8469 31.764 46.18 31.2603C45.49 30.7567 44.5471 30.917 44.0412 31.5808L42.9603 33.046C42.7073 33.3893 42.3163 33.5725 41.9023 33.5725C41.6494 33.5725 41.3734 33.5038 41.1434 33.3207C40.5685 32.9086 40.4305 32.0845 40.8674 31.5122L41.9713 30.0013L44.3861 26.7047C44.8921 26.018 44.7311 25.0794 44.0642 24.5757C43.3742 24.0721 42.4313 24.2324 41.9253 24.8962L39.3036 28.4446L37.9237 30.3217C37.6247 30.7338 37.0498 30.8254 36.6358 30.5278C36.2908 30.276 36.1758 29.8181 36.3598 29.4289L41.4424 22.4925C41.9483 21.8058 41.7874 20.8672 41.1204 20.3635C40.4305 19.8599 39.4876 20.0202 38.9816 20.684L32.7261 29.2L26.8156 37.1437C26.8156 37.1437 17.1105 51.1539 10.1421 47.5369L18.1684 58.4566C22.446 64.2941 31.2083 64.2941 35.5089 58.4566L52.1365 35.8159L55.9771 30.5965C56.4831 29.9097 56.3221 28.9711 55.6552 28.4675L55.6092 28.5361Z" fill="url(#paint5_linear_180_659)"/>
<path d="M226.037 32.5892H231.842C232.921 32.5892 233.926 32.7373 234.856 33.0337C235.786 33.33 236.605 33.8115 237.275 34.4041C237.945 34.9968 238.503 35.7375 238.875 36.6265C239.247 37.5154 239.47 38.5155 239.47 39.7008C239.47 40.7749 239.284 41.738 238.949 42.5899C238.614 43.4788 238.131 44.2196 237.461 44.8493C236.791 45.479 236.01 45.9605 235.079 46.2938C234.149 46.6272 233.07 46.8124 231.842 46.8124H226V32.5892H226.037ZM231.805 43.9603C233.219 43.9603 234.298 43.5899 235.042 42.8862C235.786 42.1454 236.158 41.1083 236.158 39.7378C236.158 39.0711 236.084 38.4785 235.898 37.9599C235.712 37.4414 235.451 36.9969 235.079 36.5895C234.707 36.2191 234.261 35.9227 233.703 35.7376C233.144 35.5524 232.512 35.4412 231.768 35.4412H229.349V43.9603H231.768H231.805Z" fill="#4A6EFF"/>
<path d="M243.08 32.5892H246.391V46.8124H243.08V32.5892Z" fill="#4A6EFF"/>
<path d="M257.592 39.1822H264.922C264.997 40.3675 264.848 41.4416 264.476 42.4417C264.141 43.4047 263.657 44.2566 262.987 44.9604C262.317 45.6642 261.573 46.1827 260.643 46.5901C259.713 46.9976 258.745 47.1828 257.666 47.1828C256.959 47.1828 256.252 47.1087 255.582 46.9235C254.913 46.7383 254.28 46.479 253.722 46.1827C253.126 45.8493 252.606 45.479 252.159 45.0345C251.675 44.59 251.266 44.0715 250.931 43.5159C250.596 42.9603 250.336 42.3676 250.15 41.738C249.964 41.1083 249.889 40.4416 249.889 39.7378C249.889 39.0341 249.964 38.3674 250.15 37.7377C250.336 37.108 250.596 36.5154 250.931 35.9598C251.266 35.4042 251.675 34.9227 252.159 34.4412C252.643 33.9597 253.164 33.5893 253.722 33.2929C254.317 32.9596 254.913 32.7374 255.582 32.5522C256.252 32.367 256.959 32.2929 257.666 32.2929C258.745 32.2929 259.787 32.4781 260.717 32.8855C261.648 33.293 262.503 33.8485 263.248 34.5523L261.089 36.7376C260.717 36.2561 260.234 35.8857 259.638 35.5894C259.043 35.2931 258.373 35.1449 257.666 35.1449C257.034 35.1449 256.475 35.256 255.917 35.4783C255.359 35.7005 254.913 36.0339 254.503 36.4413C254.094 36.8487 253.759 37.3303 253.536 37.8858C253.313 38.4414 253.201 39.0711 253.201 39.7008C253.201 40.3305 253.313 40.9601 253.536 41.5157C253.759 42.0713 254.094 42.5528 254.503 42.9603C254.913 43.3677 255.396 43.7011 255.917 43.9233C256.475 44.1455 257.034 44.2567 257.666 44.2567C258.224 44.2567 258.745 44.1826 259.192 44.0715C259.638 43.9603 260.01 43.7751 260.345 43.5159C260.68 43.2936 260.941 42.9973 261.127 42.664C261.313 42.3306 261.462 41.9602 261.573 41.5528H257.517V39.1452L257.592 39.1822Z" fill="#4A6EFF"/>
<path d="M268.792 32.5892H272.104V46.8124H268.792V32.5892Z" fill="#4A6EFF"/>
<path d="M279.173 35.4412H275.192V32.5892H286.504V35.4412H282.522V46.8124H279.211V35.4412H279.173Z" fill="#4A6EFF"/>
<path d="M296.96 44.553H290.969L290.076 46.8124H286.541L292.383 32.5892H295.509L301.351 46.8124H297.853L296.923 44.553H296.96ZM292.123 41.738H295.806L294.058 37.4414L293.946 36.9969L293.834 37.4414L292.085 41.738H292.123Z" fill="#4A6EFF"/>
<path d="M304.216 32.5892H307.528V43.9603H313.519V46.8124H304.216V32.5892Z" fill="#4A6EFF"/>
<path d="M78.435 60.924V57.4185L75.5825 52.6415H77.0947L79.1396 56.2042L81.1501 52.6415H82.6737L79.8269 57.4243V60.924H78.435ZM88.8963 61.0386C88.1325 61.0386 87.4719 60.8706 86.9144 60.5345C86.3607 60.1985 85.9311 59.7135 85.6256 59.0796C85.3239 58.4458 85.1731 57.6859 85.1731 56.7999C85.1731 55.9064 85.3259 55.1407 85.6313 54.503C85.9368 53.8653 86.3683 53.3765 86.9259 53.0367C87.4872 52.6968 88.144 52.5269 88.8963 52.5269C89.6485 52.5269 90.2996 52.6968 90.8495 53.0367C91.4032 53.3765 91.8309 53.8653 92.1325 54.503C92.4342 55.1407 92.5851 55.9064 92.5851 56.7999C92.5851 57.6859 92.4361 58.4458 92.1383 59.0796C91.8404 59.7097 91.4146 60.1947 90.8609 60.5345C90.3072 60.8706 89.6524 61.0386 88.8963 61.0386ZM88.8963 59.8701C89.3469 59.8701 89.7345 59.7651 90.059 59.5551C90.3836 59.3412 90.6318 59.0109 90.8037 58.5641C90.9793 58.1135 91.0671 57.5312 91.0671 56.8171C91.0671 56.0916 90.9793 55.4997 90.8037 55.0415C90.628 54.5794 90.3779 54.2395 90.0533 54.0219C89.7287 53.8042 89.343 53.6954 88.8963 53.6954C88.4457 53.6954 88.0562 53.8061 87.7278 54.0276C87.4032 54.2453 87.1512 54.5851 86.9717 55.0472C86.7922 55.5054 86.7025 56.0954 86.7025 56.8171C86.7025 57.5312 86.7922 58.1135 86.9717 58.5641C87.1512 59.0109 87.4032 59.3412 87.7278 59.5551C88.0562 59.7651 88.4457 59.8701 88.8963 59.8701ZM99.4298 61.0386C98.6661 61.0386 98.0494 60.9126 97.5797 60.6606C97.1138 60.4047 96.7759 60.0381 96.5659 59.5608C96.3558 59.0796 96.2508 58.4992 96.2508 57.8195V52.6415H97.6771V57.9627C97.6771 58.6042 97.8336 59.0777 98.1468 59.3832C98.4637 59.6887 98.8914 59.8415 99.4298 59.8415C99.7926 59.8415 100.108 59.7746 100.375 59.641C100.642 59.5073 100.848 59.303 100.994 59.0281C101.139 58.7493 101.211 58.3942 101.211 57.9627V52.6415H102.62V57.8997C102.62 58.5565 102.513 59.1197 102.3 59.5894C102.086 60.0553 101.744 60.4143 101.274 60.6663C100.808 60.9145 100.194 61.0386 99.4298 61.0386ZM106.647 60.924V52.6415H110.01C110.644 52.6415 111.165 52.7407 111.573 52.9393C111.986 53.1341 112.291 53.4109 112.49 53.7699C112.688 54.125 112.788 54.5412 112.788 55.0185C112.788 55.4615 112.715 55.8338 112.57 56.1355C112.425 56.4333 112.236 56.6777 112.003 56.8687C111.774 57.0558 111.528 57.2085 111.264 57.3269L112.845 60.924H111.39L109.964 57.5617H108.039V60.924H106.647ZM108.039 56.4563H109.695C110.222 56.4563 110.632 56.3341 110.926 56.0897C111.224 55.8453 111.373 55.5054 111.373 55.0701C111.373 54.6424 111.235 54.3121 110.96 54.0792C110.686 53.8462 110.323 53.7298 109.872 53.7298H108.039V56.4563ZM121.623 60.924V52.6415H124.47C125.52 52.6415 126.305 52.8286 126.824 53.2028C127.347 53.5732 127.609 54.1078 127.609 54.8066C127.609 55.2305 127.5 55.5971 127.282 55.9064C127.065 56.2157 126.681 56.4773 126.131 56.6911C126.467 56.7713 126.744 56.882 126.961 57.0233C127.183 57.1608 127.355 57.3193 127.477 57.4987C127.599 57.6744 127.685 57.8634 127.735 58.0658C127.784 58.2682 127.809 58.4763 127.809 58.6901C127.809 59.4462 127.546 60.0076 127.019 60.3742C126.496 60.7407 125.684 60.924 124.584 60.924H121.623ZM123.015 59.8128H124.602C125.19 59.8128 125.634 59.7078 125.936 59.4978C126.242 59.2839 126.394 58.9765 126.394 58.5756C126.394 58.2854 126.32 58.0467 126.171 57.8596C126.022 57.6687 125.82 57.5274 125.564 57.4357C125.308 57.3441 125.022 57.2983 124.705 57.2983H123.015V59.8128ZM123.015 56.1699H124.705C124.899 56.1699 125.088 56.1489 125.272 56.1069C125.455 56.0648 125.621 55.998 125.77 55.9064C125.919 55.8147 126.037 55.6925 126.125 55.5398C126.217 55.387 126.263 55.2018 126.263 54.9842C126.263 54.5679 126.104 54.2586 125.787 54.0563C125.474 53.85 125.071 53.7469 124.579 53.7469H123.015V56.1699ZM131.729 60.924V52.6415H135.091C135.725 52.6415 136.246 52.7407 136.655 52.9393C137.067 53.1341 137.373 53.4109 137.571 53.7699C137.77 54.125 137.869 54.5412 137.869 55.0185C137.869 55.4615 137.796 55.8338 137.651 56.1355C137.506 56.4333 137.317 56.6777 137.084 56.8687C136.855 57.0558 136.609 57.2085 136.345 57.3269L137.926 60.924H136.471L135.045 57.5617H133.121V60.924H131.729ZM133.121 56.4563H134.776C135.303 56.4563 135.713 56.3341 136.007 56.0897C136.305 55.8453 136.454 55.5054 136.454 55.0701C136.454 54.6424 136.317 54.3121 136.042 54.0792C135.767 53.8462 135.404 53.7298 134.953 53.7298H133.121V56.4563ZM141.255 60.924L144.228 52.6415H145.74L148.713 60.924H147.315L146.576 58.8448H143.403L142.658 60.924H141.255ZM143.735 57.6076H146.227L144.984 53.9932L143.735 57.6076ZM152.32 60.924V52.6415H153.684L157.739 58.5584V52.6415H159.131V60.924H157.876L153.712 54.8467V60.924H152.32ZM163.355 60.924V52.6415C163.389 52.6415 163.49 52.6415 163.658 52.6415C163.826 52.6415 164.025 52.6415 164.254 52.6415C164.487 52.6415 164.722 52.6434 164.958 52.6472C165.199 52.6472 165.407 52.6491 165.583 52.6529C166.591 52.672 167.41 52.8457 168.04 53.1741C168.674 53.4987 169.138 53.9627 169.432 54.566C169.73 55.1656 169.879 55.8892 169.879 56.7369C169.879 57.6228 169.72 58.377 169.403 58.9995C169.09 59.6219 168.609 60.0992 167.96 60.4314C167.314 60.7598 166.493 60.924 165.497 60.924H163.355ZM164.769 59.7727H165.52C166.089 59.7727 166.591 59.6754 167.026 59.4806C167.461 59.282 167.801 58.9613 168.046 58.5183C168.294 58.0753 168.418 57.4835 168.418 56.7427C168.418 56.0247 168.303 55.45 168.074 55.0185C167.845 54.587 167.517 54.2758 167.089 54.0849C166.661 53.8901 166.15 53.7928 165.554 53.7928H164.769V59.7727ZM172.957 62.4534L173.61 60.9584L173.066 60.9183V59.4577H174.589V60.735L173.518 62.4534H172.957ZM186.779 61.0386C186.015 61.0386 185.355 60.8706 184.797 60.5345C184.244 60.1985 183.814 59.7135 183.508 59.0796C183.207 58.4458 183.056 57.6859 183.056 56.7999C183.056 55.9064 183.209 55.1407 183.514 54.503C183.82 53.8653 184.251 53.3765 184.809 53.0367C185.37 52.6968 186.027 52.5269 186.779 52.5269C187.531 52.5269 188.182 52.6968 188.732 53.0367C189.286 53.3765 189.714 53.8653 190.015 54.503C190.317 55.1407 190.468 55.9064 190.468 56.7999C190.468 57.6859 190.319 58.4458 190.021 59.0796C189.723 59.7097 189.297 60.1947 188.744 60.5345C188.19 60.8706 187.535 61.0386 186.779 61.0386ZM186.779 59.8701C187.23 59.8701 187.617 59.7651 187.942 59.5551C188.266 59.3412 188.515 59.0109 188.687 58.5641C188.862 58.1135 188.95 57.5312 188.95 56.8171C188.95 56.0916 188.862 55.4997 188.687 55.0415C188.511 54.5794 188.261 54.2395 187.936 54.0219C187.612 53.8042 187.226 53.6954 186.779 53.6954C186.329 53.6954 185.939 53.8061 185.611 54.0276C185.286 54.2453 185.034 54.5851 184.855 55.0472C184.675 55.5054 184.585 56.0954 184.585 56.8171C184.585 57.5312 184.675 58.1135 184.855 58.5641C185.034 59.0109 185.286 59.3412 185.611 59.5551C185.939 59.7651 186.329 59.8701 186.779 59.8701ZM197.313 61.0386C196.549 61.0386 195.932 60.9126 195.463 60.6606C194.997 60.4047 194.659 60.0381 194.449 59.5608C194.239 59.0796 194.134 58.4992 194.134 57.8195V52.6415H195.56V57.9627C195.56 58.6042 195.716 59.0777 196.03 59.3832C196.347 59.6887 196.774 59.8415 197.313 59.8415C197.675 59.8415 197.99 59.7746 198.258 59.641C198.525 59.5073 198.731 59.303 198.876 59.0281C199.022 58.7493 199.094 58.3942 199.094 57.9627V52.6415H200.503V57.8997C200.503 58.5565 200.396 59.1197 200.182 59.5894C199.969 60.0553 199.627 60.4143 199.157 60.6663C198.691 60.9145 198.076 61.0386 197.313 61.0386ZM204.53 60.924V52.6415H207.892C208.526 52.6415 209.048 52.7407 209.456 52.9393C209.869 53.1341 210.174 53.4109 210.373 53.7699C210.571 54.125 210.671 54.5412 210.671 55.0185C210.671 55.4615 210.598 55.8338 210.453 56.1355C210.308 56.4333 210.119 56.6777 209.886 56.8687C209.657 57.0558 209.41 57.2085 209.147 57.3269L210.728 60.924H209.273L207.847 57.5617H205.922V60.924H204.53ZM205.922 56.4563H207.577C208.104 56.4563 208.515 56.3341 208.809 56.0897C209.107 55.8453 209.256 55.5054 209.256 55.0701C209.256 54.6424 209.118 54.3121 208.843 54.0792C208.568 53.8462 208.206 53.7298 207.755 53.7298H205.922V56.4563ZM219.506 60.924V52.6415H224.982L224.976 53.8386H220.909V56.1584H224.501V57.3384H220.898V59.7097L225.062 59.7154V60.924H219.506ZM228.54 60.924L231.318 56.7083L228.632 52.6415H230.35L232.189 55.5398L234.016 52.6415H235.517L232.922 56.5422L235.826 60.924H234.096L232.057 57.7393L230.052 60.924H228.54ZM242.338 61.0386C241.578 61.0386 240.925 60.8649 240.379 60.5174C239.837 60.166 239.419 59.6696 239.125 59.0281C238.834 58.3827 238.689 57.6171 238.689 56.7312C238.689 55.8491 238.834 55.0949 239.125 54.4687C239.415 53.8424 239.831 53.3632 240.373 53.031C240.919 52.6949 241.574 52.5269 242.338 52.5269C242.945 52.5269 243.483 52.651 243.953 52.8992C244.423 53.1436 244.801 53.4758 245.087 53.8959C245.377 54.3159 245.549 54.7837 245.603 55.2992H244.131C244.073 54.9937 243.967 54.7207 243.81 54.4801C243.657 54.2395 243.455 54.0486 243.203 53.9073C242.951 53.766 242.649 53.6954 242.298 53.6954C241.859 53.6954 241.484 53.8004 241.175 54.0104C240.87 54.2166 240.635 54.545 240.471 54.9956C240.31 55.4462 240.23 56.0305 240.23 56.7484C240.23 57.8367 240.409 58.629 240.768 59.1255C241.127 59.6219 241.637 59.8701 242.298 59.8701C242.649 59.8701 242.951 59.7937 243.203 59.641C243.455 59.4844 243.657 59.2782 243.81 59.0224C243.967 58.7627 244.073 58.4801 244.131 58.1746H245.603C245.557 58.5489 245.462 58.9078 245.316 59.2515C245.175 59.5952 244.975 59.9026 244.715 60.1737C244.455 60.441 244.129 60.6529 243.735 60.8095C243.346 60.9622 242.88 61.0386 242.338 61.0386ZM249.398 60.924V52.6415H254.874L254.868 53.8386H250.801V56.1584H254.392V57.3384H250.79V59.7097L254.954 59.7154V60.924H249.398ZM258.877 60.924L258.883 52.6415H260.292V59.7212H264.032V60.924H258.877ZM267.707 60.924L267.713 52.6415H269.122V59.7212H272.862V60.924H267.707ZM276.537 60.924V52.6415H282.013L282.008 53.8386H277.941V56.1584H281.532V57.3384H277.929V59.7097L282.094 59.7154V60.924H276.537ZM286.017 60.924V52.6415H287.38L291.435 58.5584V52.6415H292.827V60.924H291.573L287.409 54.8467V60.924H286.017ZM300.276 61.0386C299.516 61.0386 298.863 60.8649 298.317 60.5174C297.774 60.166 297.356 59.6696 297.062 59.0281C296.772 58.3827 296.627 57.6171 296.627 56.7312C296.627 55.8491 296.772 55.0949 297.062 54.4687C297.353 53.8424 297.769 53.3632 298.311 53.031C298.857 52.6949 299.512 52.5269 300.276 52.5269C300.883 52.5269 301.421 52.651 301.891 52.8992C302.361 53.1436 302.739 53.4758 303.025 53.8959C303.315 54.3159 303.487 54.7837 303.541 55.2992H302.069C302.011 54.9937 301.904 54.7207 301.748 54.4801C301.595 54.2395 301.393 54.0486 301.141 53.9073C300.889 53.766 300.587 53.6954 300.236 53.6954C299.796 53.6954 299.422 53.8004 299.113 54.0104C298.807 54.2166 298.573 54.545 298.408 54.9956C298.248 55.4462 298.168 56.0305 298.168 56.7484C298.168 57.8367 298.347 58.629 298.706 59.1255C299.065 59.6219 299.575 59.8701 300.236 59.8701C300.587 59.8701 300.889 59.7937 301.141 59.641C301.393 59.4844 301.595 59.2782 301.748 59.0224C301.904 58.7627 302.011 58.4801 302.069 58.1746H303.541C303.495 58.5489 303.399 58.9078 303.254 59.2515C303.113 59.5952 302.912 59.9026 302.653 60.1737C302.393 60.441 302.067 60.6529 301.673 60.8095C301.284 60.9622 300.818 61.0386 300.276 61.0386ZM307.335 60.924V52.6415H312.811L312.806 53.8386H308.739V56.1584H312.33V57.3384H308.727V59.7097L312.892 59.7154V60.924H307.335Z" fill="#4B4E54"/>
<defs>
<linearGradient id="paint0_linear_180_659" x1="24.5387" y1="50.1008" x2="5.77147" y2="23.9444" gradientUnits="userSpaceOnUse">
<stop stop-color="#5700BA"/>
<stop offset="0.26" stop-color="#7418D5"/>
<stop offset="0.54" stop-color="#8C2CEC"/>
<stop offset="0.79" stop-color="#9B38FA"/>
<stop offset="1" stop-color="#A13DFF"/>
</linearGradient>
<linearGradient id="paint1_linear_180_659" x1="64.2793" y1="1.27125" x2="45.2703" y2="31.4081" gradientUnits="userSpaceOnUse">
<stop stop-color="#4A6EFF"/>
<stop offset="1" stop-color="#A13DFF"/>
</linearGradient>
<linearGradient id="paint2_linear_180_659" x1="70.696" y1="5.30032" x2="51.687" y2="35.4372" gradientUnits="userSpaceOnUse">
<stop stop-color="#4A6EFF"/>
<stop offset="1" stop-color="#A13DFF"/>
</linearGradient>
<linearGradient id="paint3_linear_180_659" x1="65.4522" y1="2.00381" x2="46.4432" y2="32.1407" gradientUnits="userSpaceOnUse">
<stop stop-color="#4A6EFF"/>
<stop offset="1" stop-color="#A13DFF"/>
</linearGradient>
<linearGradient id="paint4_linear_180_659" x1="56.6671" y1="-3.49038" x2="37.6582" y2="26.6465" gradientUnits="userSpaceOnUse">
<stop stop-color="#4A6EFF"/>
<stop offset="1" stop-color="#A13DFF"/>
</linearGradient>
<linearGradient id="paint5_linear_180_659" x1="50.3886" y1="13.1524" x2="25.2748" y2="51.1002" gradientUnits="userSpaceOnUse">
<stop stop-color="#4A6EFF"/>
<stop offset="1" stop-color="#A13DFF"/>
</linearGradient>
</defs>
</svg>
