<svg width="806" height="810" viewBox="0 0 806 810" fill="none" xmlns="http://www.w3.org/2000/svg">
<path opacity="0.16" d="M26.3871 314.934C26.3871 314.934 -6.57767 455.791 85.24 578.518C177.057 701.245 337.111 748.937 465.759 790.992C594.406 833.047 714.909 784.491 760.108 676.379C805.307 568.266 714.009 510.021 693.877 368.81C673.744 227.596 689.815 186.929 595.908 79.4132C502.001 -28.1028 309.297 -25.5442 179.011 84.845C48.7215 195.234 26.3871 314.934 26.3871 314.934Z" fill="#B5A7E9"/>
<path d="M752.581 485.572C752.581 485.572 752.581 476.372 739.7 463.491C726.819 450.61 718.538 443.251 718.538 443.251C718.538 443.251 712.099 464.411 724.058 477.292C736.017 490.173 752.578 502.132 752.578 502.132L752.581 485.572Z" fill="url(#paint0_linear_671_1583)"/>
<path d="M733.573 542.121C733.573 542.121 733.573 532.921 720.692 520.04C707.811 507.159 699.532 499.8 699.532 499.8C699.532 499.8 693.093 520.959 705.052 533.84C717.013 546.721 733.573 558.681 733.573 558.681V542.121Z" fill="url(#paint1_linear_671_1583)"/>
<path d="M751.769 501.243C751.769 501.243 752.741 492.095 766.911 480.646C781.081 469.2 790.093 462.754 790.093 462.754C790.093 462.754 794.262 484.477 781.007 496.02C767.752 507.564 750.02 517.708 750.02 517.708L751.769 501.243Z" fill="url(#paint2_linear_671_1583)"/>
<path d="M729.186 569.1C729.186 569.1 731.113 560.104 746.408 550.209C761.702 540.313 771.34 534.851 771.34 534.851C771.34 534.851 773.204 556.89 758.811 566.979C744.417 577.069 725.719 585.292 725.719 585.292L729.186 569.1Z" fill="url(#paint3_linear_671_1583)"/>
<path d="M733 643.321C733 643.321 733 634.121 745.881 621.24C758.762 608.359 767.043 601 767.043 601C767.043 601 773.482 622.16 761.523 635.041C749.564 647.922 733.002 659.881 733.002 659.881L733 643.321Z" fill="url(#paint4_linear_671_1583)"/>
<path d="M733.871 660.93C733.871 660.93 735.178 651.822 724.26 637.243C713.341 622.664 706.189 614.2 706.189 614.2C706.189 614.2 696.808 634.231 706.816 648.681C716.824 663.13 731.517 677.323 731.517 677.323L733.871 660.93Z" fill="url(#paint5_linear_671_1583)"/>
<path d="M720.516 714.661C720.516 714.661 720.516 705.461 733.397 692.582C746.278 679.701 754.556 672.342 754.556 672.342C754.556 672.342 760.996 693.501 749.036 706.382C737.077 719.263 720.516 731.223 720.516 731.223V714.661Z" fill="url(#paint6_linear_671_1583)"/>
<path d="M729.119 763.182C729.119 763.182 726.789 754.281 735.987 738.559C745.185 722.836 751.332 713.62 751.332 713.62C751.332 713.62 762.922 732.461 754.612 747.949C746.305 763.439 733.312 779.204 733.312 779.204L729.119 763.182Z" fill="url(#paint7_linear_671_1583)"/>
<path d="M753.745 483.214C752.991 493.048 751.873 503.223 750.219 511.781C745.126 538.086 732.399 555.059 727.306 578.819C722.215 602.579 736.832 633.19 732.918 663.711C729.004 694.229 717.124 711.202 720.519 731.567C723.913 751.933 741.733 807.093 741.733 807.093" stroke="white" stroke-width="0.5" stroke-miterlimit="10" stroke-linecap="round" stroke-linejoin="round"/>
<path d="M751.643 507.357L765.525 496.705" stroke="white" stroke-width="0.5" stroke-miterlimit="10" stroke-linecap="round" stroke-linejoin="round"/>
<path d="M752.291 495.09L746.48 484.761" stroke="white" stroke-width="0.5" stroke-miterlimit="10" stroke-linecap="round" stroke-linejoin="round"/>
<path d="M728.078 577.73C728.078 577.73 739.701 569.014 751.642 560.3" stroke="white" stroke-width="0.5" stroke-miterlimit="10" stroke-linecap="round" stroke-linejoin="round"/>
<path d="M733.887 559.592C733.887 559.592 724.204 540.608 713.229 528.017" stroke="white" stroke-width="0.5" stroke-miterlimit="10" stroke-linecap="round" stroke-linejoin="round"/>
<path d="M733.887 656.171C733.887 656.171 742.926 638.417 758.742 622.923" stroke="white" stroke-width="0.5" stroke-miterlimit="10" stroke-linecap="round" stroke-linejoin="round"/>
<path d="M731.63 669.086C731.63 669.086 725.82 655.206 719.041 645.198C712.261 635.19 711.293 633.899 711.293 633.899" stroke="white" stroke-width="0.5" stroke-miterlimit="10" stroke-linecap="round" stroke-linejoin="round"/>
<path d="M720.516 731.57C720.516 731.57 725.171 719.767 730.981 710.406C736.791 701.045 744.54 692.652 744.54 692.652" stroke="white" stroke-width="0.5" stroke-miterlimit="10" stroke-linecap="round" stroke-linejoin="round"/>
<path d="M733.311 779.204C733.311 779.204 731.951 768.187 736.793 758.826C741.635 749.465 747.122 737.198 749.382 732.355" stroke="white" stroke-width="0.5" stroke-miterlimit="10" stroke-linecap="round" stroke-linejoin="round"/>
<path d="M669.252 609.235C669.252 609.235 668.253 603.466 674.933 593.991C681.612 584.515 686.005 579 686.005 579C686.005 579 692.341 591.571 686.238 600.945C680.136 610.321 671.05 619.619 671.05 619.619L669.252 609.235Z" fill="url(#paint8_linear_671_1583)"/>
<path d="M686.194 642.485C686.194 642.485 685.195 636.717 691.874 627.239C698.553 617.764 702.947 612.249 702.947 612.249C702.947 612.249 709.283 624.819 703.18 634.194C697.077 643.57 687.991 652.867 687.991 652.867L686.194 642.485Z" fill="url(#paint9_linear_671_1583)"/>
<path d="M670.441 618.222C670.441 618.222 668.84 612.59 658.711 606.949C648.582 601.308 642.233 598.246 642.233 598.246C642.233 598.246 641.978 612.319 651.541 618.12C661.107 623.922 673.326 628.357 673.326 628.357L670.441 618.222Z" fill="url(#paint10_linear_671_1583)"/>
<path d="M692.751 657.501C692.751 657.501 690.566 652.069 679.9 647.524C669.235 642.978 662.6 640.6 662.6 640.6C662.6 640.6 663.823 654.623 673.945 659.388C684.065 664.151 696.684 667.28 696.684 667.28L692.751 657.501Z" fill="url(#paint11_linear_671_1583)"/>
<path d="M697.338 705.177C697.338 705.177 696.339 699.408 686.864 692.729C677.388 686.05 671.398 682.334 671.398 682.334C671.398 682.334 669.655 696.302 678.554 703.08C687.453 709.858 699.135 715.561 699.135 715.561L697.338 705.177Z" fill="url(#paint12_linear_671_1583)"/>
<path d="M699.435 716.478C699.435 716.478 697.626 710.91 702.891 700.581C708.155 690.252 711.719 684.171 711.719 684.171C711.719 684.171 719.778 695.712 715.07 705.861C710.362 716.007 702.688 726.503 702.688 726.503L699.435 716.478Z" fill="url(#paint13_linear_671_1583)"/>
<path d="M715.602 763.017C715.602 763.017 716.271 757.2 725.348 749.99C734.427 742.783 740.196 738.729 740.196 738.729C740.196 738.729 742.732 752.575 734.234 759.851C725.737 767.126 714.398 773.486 714.398 773.486L715.602 763.017Z" fill="url(#paint14_linear_671_1583)"/>
<path d="M713.207 748.66C713.207 748.66 712.208 742.891 702.733 736.212C693.257 729.533 687.267 725.817 687.267 725.817C687.267 725.817 685.524 739.785 694.423 746.565C703.322 753.343 715.004 759.046 715.004 759.046L713.207 748.66Z" fill="url(#paint15_linear_671_1583)"/>
<path d="M713.082 780.02C713.082 780.02 713.577 774.186 706.101 765.324C698.626 756.463 693.773 751.35 693.773 751.35C693.773 751.35 688.55 764.422 695.442 773.233C702.335 782.044 712.191 790.521 712.191 790.521L713.082 780.02Z" fill="url(#paint16_linear_671_1583)"/>
<path d="M667.244 607.131C668.784 613.217 670.59 619.476 672.557 624.661C678.605 640.604 688.43 649.866 694.203 664.213C699.976 678.559 694.133 699.342 699.899 718.055C705.667 736.769 714.958 746.121 715.041 759.261C715.123 772.402 709.937 808.924 709.937 808.924" stroke="white" stroke-width="0.5" stroke-miterlimit="10" stroke-linecap="round" stroke-linejoin="round"/>
<path d="M671.187 622.043L661.326 616.869" stroke="white" stroke-width="0.5" stroke-miterlimit="10" stroke-linecap="round" stroke-linejoin="round"/>
<path d="M669.449 614.42L671.97 607.312" stroke="white" stroke-width="0.5" stroke-miterlimit="10" stroke-linecap="round" stroke-linejoin="round"/>
<path d="M693.603 663.614C693.603 663.614 685.368 659.41 676.934 655.241" stroke="white" stroke-width="0.5" stroke-miterlimit="10" stroke-linecap="round" stroke-linejoin="round"/>
<path d="M687.99 652.872C687.99 652.872 692.001 639.916 697.516 630.83" stroke="white" stroke-width="0.5" stroke-miterlimit="10" stroke-linecap="round" stroke-linejoin="round"/>
<path d="M698.473 713.433C698.473 713.433 690.876 703.28 679.275 695.281" stroke="white" stroke-width="0.5" stroke-miterlimit="10" stroke-linecap="round" stroke-linejoin="round"/>
<path d="M701.293 721.287C701.293 721.287 703.429 711.953 706.595 704.941C709.761 697.93 710.227 697.015 710.227 697.015" stroke="white" stroke-width="0.5" stroke-miterlimit="10" stroke-linecap="round" stroke-linejoin="round"/>
<path d="M714.598 769.23C714.598 769.23 721.134 761.217 725.202 758.221C729.269 755.222 732.088 752.232 732.088 752.232" stroke="white" stroke-width="0.5" stroke-miterlimit="10" stroke-linecap="round" stroke-linejoin="round"/>
<path d="M715.044 759.262C715.044 759.262 710.844 752.364 706.182 747.126C701.523 741.886 695.752 737.464 695.752 737.464" stroke="white" stroke-width="0.5" stroke-miterlimit="10" stroke-linecap="round" stroke-linejoin="round"/>
<path d="M712.19 790.521C712.19 790.521 711.847 783.466 707.794 778.12C703.742 772.776 698.968 765.679 697.025 762.887" stroke="white" stroke-width="0.5" stroke-miterlimit="10" stroke-linecap="round" stroke-linejoin="round"/>
<path d="M243.942 422.076H161.821L54.3066 133.533H136.428L243.942 422.076Z" fill="#84B4FE"/>
<path opacity="0.2" d="M243.942 422.076H161.821L54.3066 133.533H136.428L243.942 422.076Z" fill="white"/>
<path d="M114.491 204.001H93.375C90.7416 204.001 87.8134 201.867 86.8322 199.234L78.679 177.352C77.6978 174.719 79.0376 172.585 81.6688 172.585H102.784C105.418 172.585 108.346 174.719 109.327 177.352L117.48 199.234C118.462 201.867 117.122 204.001 114.491 204.001Z" fill="#9391EC"/>
<path d="M141.862 148.117H59.7406L54.3066 133.533H136.428L141.862 148.117Z" fill="#9391EC"/>
<path d="M87.7988 150.504L90.1572 156.831" stroke="#9391EC" stroke-miterlimit="10" stroke-linecap="round" stroke-linejoin="round"/>
<path d="M90.9648 150.504L93.3232 156.831" stroke="#9391EC" stroke-miterlimit="10" stroke-linecap="round" stroke-linejoin="round"/>
<path d="M94.1289 150.504L96.4873 156.831" stroke="#9391EC" stroke-miterlimit="10" stroke-linecap="round" stroke-linejoin="round"/>
<path d="M97.293 150.504L99.6514 156.831" stroke="#9391EC" stroke-miterlimit="10" stroke-linecap="round" stroke-linejoin="round"/>
<path d="M100.455 150.504L102.813 156.831" stroke="#9391EC" stroke-miterlimit="10" stroke-linecap="round" stroke-linejoin="round"/>
<path d="M103.621 150.504L105.979 156.831" stroke="#9391EC" stroke-miterlimit="10" stroke-linecap="round" stroke-linejoin="round"/>
<path d="M106.785 150.504L109.144 156.831" stroke="#9391EC" stroke-miterlimit="10" stroke-linecap="round" stroke-linejoin="round"/>
<path d="M109.951 150.504L112.31 156.831" stroke="#9391EC" stroke-miterlimit="10" stroke-linecap="round" stroke-linejoin="round"/>
<path d="M113.113 150.504L115.472 156.831" stroke="#9391EC" stroke-miterlimit="10" stroke-linecap="round" stroke-linejoin="round"/>
<path d="M116.281 150.504L118.64 156.831" stroke="#9391EC" stroke-miterlimit="10" stroke-linecap="round" stroke-linejoin="round"/>
<path d="M107.658 190.282L87.7769 177.674C87.3083 177.377 86.7869 177.324 86.4591 177.542C86.1291 177.758 86.0521 178.2 86.2677 178.664L95.3779 198.319C95.6001 198.801 96.0907 199.203 96.6033 199.326C96.7111 199.353 96.8145 199.364 96.9113 199.364C97.2809 199.364 97.5691 199.186 97.6703 198.871L99.7691 192.407L107.696 192.317C108.175 192.311 108.49 192.007 108.481 191.552C108.472 191.096 108.144 190.59 107.658 190.282Z" fill="white"/>
<path d="M107.252 191.164L87.3711 178.556L96.4813 198.211L98.7363 191.261L107.252 191.164Z" fill="url(#paint17_linear_671_1583)"/>
<path d="M144.417 191.164L124.535 178.556L133.645 198.211L135.9 191.261L144.417 191.164Z" fill="white"/>
<path d="M154.602 202.345L152.809 198.297L150.471 201.7L154.602 202.345Z" fill="white"/>
<path d="M202.653 331.295L200.86 327.25L198.52 330.653L202.653 331.295Z" fill="white"/>
<path d="M217.399 370.871L215.604 366.825L213.266 370.229L217.399 370.871Z" fill="white"/>
<path d="M232.52 411.457L230.727 407.409L228.389 410.814L232.52 411.457Z" fill="white"/>
<path d="M147.843 285.606L146.05 281.558L143.711 284.961L147.843 285.606Z" fill="white"/>
<path d="M164.868 331.295L163.075 327.25L160.736 330.653L164.868 331.295Z" fill="white"/>
<path d="M179.614 370.871L177.821 366.825L175.48 370.229L179.614 370.871Z" fill="white"/>
<path d="M194.737 411.457L192.944 407.409L190.604 410.814L194.737 411.457Z" fill="white"/>
<path d="M107.648 245.764L111.107 247.999L120.604 228.164L117.146 225.929L107.648 245.764Z" fill="white"/>
<path d="M111.912 226.351C106.885 222.422 106.531 221.639 107.763 217.192C105.16 220.754 104.401 220.818 98.877 217.927C103.904 221.856 104.256 222.637 103.026 227.086C105.629 223.524 106.388 223.46 111.912 226.351Z" fill="white"/>
<path d="M128.498 228.485C125.391 226.056 125.173 225.574 125.935 222.824C124.326 225.026 123.858 225.064 120.443 223.28C123.55 225.708 123.768 226.19 123.006 228.94C124.615 226.738 125.083 226.698 128.498 228.485Z" fill="white"/>
<path d="M127.557 237.806C125.34 236.073 125.183 235.727 125.727 233.767C124.578 235.338 124.244 235.366 121.809 234.093C124.026 235.826 124.182 236.169 123.639 238.132C124.787 236.561 125.122 236.532 127.557 237.806Z" fill="white"/>
<path d="M177.414 325.738L179.552 327.247L189.05 307.41L186.909 305.901L177.414 325.738Z" fill="white"/>
<path d="M169.451 240.649L151.908 229.523L159.947 246.866L161.938 240.735L169.451 240.649Z" fill="white"/>
<path d="M156.255 241.663C149.824 241.663 143.18 237.873 141.442 233.213C139.706 228.553 143.526 224.763 149.956 224.763C156.387 224.763 163.031 228.553 164.767 233.213C166.505 237.873 162.685 241.663 156.255 241.663ZM150.335 225.775C144.463 225.775 140.93 229.11 142.456 233.213C143.985 237.314 150.005 240.649 155.876 240.649C161.748 240.649 165.281 237.314 163.755 233.213C162.226 229.112 156.206 225.775 150.335 225.775Z" fill="white"/>
<path d="M148.526 239.973C146.942 239.973 145.173 238.684 144.582 237.1C143.992 235.516 144.799 234.227 146.383 234.227C147.967 234.227 149.738 235.516 150.328 237.1C150.92 238.684 150.11 239.973 148.526 239.973ZM146.762 235.241C145.737 235.241 145.213 236.075 145.596 237.1C145.979 238.125 147.123 238.959 148.148 238.959C149.173 238.959 149.697 238.125 149.314 237.1C148.933 236.075 147.787 235.241 146.762 235.241Z" fill="white"/>
<path d="M148.805 242.988L148.107 242.033C149.375 241.511 150.065 240.741 150.162 239.745C150.285 238.482 149.416 237.287 149.408 237.276L150.23 236.929C150.279 236.995 151.399 238.537 151.238 240.176C151.121 241.428 150.301 242.374 148.805 242.988Z" fill="white"/>
<path d="M137.806 271.594L125.563 262.675L122.965 266.816L135.208 275.734L137.806 271.594Z" fill="white"/>
<path d="M118.194 283.146L120.198 284.607L124.677 277.466C124.171 276.929 123.984 276.236 124.27 275.779C124.616 275.229 125.504 275.229 126.259 275.779C127.014 276.329 127.344 277.217 127 277.767C126.712 278.225 126.046 278.295 125.394 277.99L120.913 285.131L122.774 286.488L133.847 283.38L134.538 276.846L122.449 268.039L116.885 271.022L118.194 283.146Z" fill="white"/>
<path d="M106.611 255.147H177.295" stroke="#9391EC" stroke-miterlimit="10" stroke-linecap="round" stroke-linejoin="round"/>
<path d="M168.088 262.675L165.49 266.816L177.733 275.734L180.331 271.594L168.088 262.675Z" fill="white"/>
<path d="M159.412 271.02L160.717 283.146L162.721 284.607L167.202 277.466C166.696 276.929 166.509 276.236 166.795 275.779C167.141 275.229 168.029 275.229 168.784 275.779C169.539 276.329 169.869 277.217 169.526 277.767C169.237 278.225 168.571 278.295 167.92 277.99L163.438 285.131L165.299 286.488L176.372 283.38L177.063 276.846L164.974 268.039L159.412 271.02Z" fill="white"/>
<path d="M156.389 274.577C156.504 273.726 156.627 272.797 156.713 271.763C156.884 269.675 156.299 267.821 154.977 266.248C152.883 263.759 149.734 262.959 149.6 262.926C149.266 262.842 149.013 263.023 149.046 263.331C149.077 263.636 149.376 263.953 149.712 264.037C149.739 264.043 152.425 264.725 154.119 266.738C155.175 267.99 155.635 269.521 155.49 271.288C155.406 272.309 155.283 273.222 155.171 274.058C154.581 278.451 154.225 281.102 161.526 285.484C161.661 285.566 161.799 285.606 161.922 285.606C162.094 285.606 162.237 285.529 162.294 285.381C162.395 285.13 162.215 284.77 161.889 284.576C155.558 280.777 155.8 278.962 156.389 274.577Z" fill="white"/>
<path d="M125.098 303.993L125.527 305.142C125.676 305.544 127.012 309.106 127.735 310.32L129.792 309.819C129.46 309.262 128.796 307.654 128.266 306.292H136.997L144.304 325.903H141.03L141.886 328.202H150.732L149.876 325.903H146.603L139.296 306.292H147.793C148.255 307.533 148.972 309.465 149.326 310.419L151.627 310.426C151.08 308.945 149.663 305.142 149.663 305.142L149.234 303.993H125.098Z" fill="white"/>
<path opacity="0.44" d="M171.038 358.395C172.917 363.438 168.781 367.525 161.798 367.525C154.815 367.525 147.632 363.438 145.754 358.395C143.875 353.353 148.013 349.265 154.994 349.265C161.974 349.265 169.159 353.351 171.038 358.395Z" fill="white"/>
<path d="M171.038 358.395C172.917 363.438 168.781 367.525 161.798 367.525C154.815 367.525 147.632 363.438 145.754 358.395C143.875 353.353 148.013 349.265 154.994 349.265C161.974 349.265 169.159 353.351 171.038 358.395Z" stroke="white" stroke-miterlimit="10"/>
<path d="M197.064 358.657L205.352 343.591C205.695 342.967 206.582 342.835 207.47 343.272C208.526 343.792 209.208 344.92 208.982 345.767L204.52 362.415L197.064 358.657Z" fill="white"/>
<path d="M195.697 359.924C198.959 359.491 205.337 362.274 205.515 366.491C205.559 367.547 204.849 368.267 204.035 368.762C201.58 370.26 198.108 370.328 194.757 370.365C195.56 369.798 195.899 368.744 195.644 367.593C195.384 366.412 194.562 365.217 194.135 364.025C193.532 362.333 193.851 360.052 195.697 359.924Z" fill="white"/>
<path d="M178.431 392.99C177.467 390.887 176.251 389.584 175.421 388.872L172.92 392.86C173.89 393.674 175.298 395.153 176.387 397.526C177.36 399.647 178.24 401.159 178.88 402.124L181.333 398.215C180.53 397.089 179.478 395.276 178.431 392.99Z" fill="white"/>
<path d="M175.54 397.601C174.577 395.498 173.36 394.196 172.531 393.483L170.029 397.472C170.999 398.286 172.407 399.764 173.494 402.138C174.467 404.259 175.349 405.77 175.987 406.736L178.44 402.826C177.639 401.698 176.587 399.885 175.54 397.601Z" fill="white"/>
<path d="M179.276 392.915C180.248 395.036 181.128 396.547 181.768 397.513L185.381 391.754L177.302 385.869L175.809 388.251C176.779 389.065 178.189 390.544 179.276 392.915Z" fill="white"/>
<path d="M172.647 402.21C171.683 400.107 170.469 398.805 169.637 398.092L167.543 401.429L167.899 409.037C167.924 409.565 168.614 410.064 169.074 409.884L175.498 407.365C174.702 406.232 173.672 404.445 172.647 402.21ZM169.8 407.292L169.611 403.246L173.287 405.924L169.8 407.292Z" fill="white"/>
<path d="M204.343 396.583L201.586 400.976L215.802 411.334L218.559 406.94L219.421 407.567L225.92 397.21L209.981 385.598L203.482 395.956L204.343 396.583ZM214.867 408.824L204.098 400.978L206.067 397.839L216.839 405.684L214.867 408.824Z" fill="white"/>
<path d="M70.1635 137.387L70.6849 138.784L68.7093 141.209L72.4911 143.633L73.0106 145.028L67.0527 141.209L70.1635 137.387Z" fill="white"/>
<path d="M65.1989 137.387L65.7181 138.784L63.7425 141.209L67.5243 143.633L68.0457 145.028L62.0859 141.209L65.1989 137.387Z" fill="white"/>
<path d="M402.997 306.576H233.137L181.213 161.732H351.073L402.997 306.576Z" fill="#9391EC"/>
<path d="M390.949 298.676H239.523L193.264 169.633H344.69L390.949 298.676Z" fill="white"/>
<path d="M362.152 218.354L337.109 199.918L317.333 251.273L266.056 236.788L239.521 298.674H390.947L362.152 218.354Z" fill="#D4CCF3"/>
<path d="M257.821 197.285C254.301 187.468 243.491 179.509 233.672 179.509C223.856 179.509 218.749 187.466 222.269 197.285C225.789 207.103 236.6 215.061 246.419 215.061C256.235 215.061 261.341 207.103 257.821 197.285Z" fill="white"/>
<path d="M420.599 281.641H250.739L198.814 136.8H368.674L420.599 281.641Z" fill="#9391EC"/>
<path d="M408.549 273.741H257.123L210.863 144.7H362.289L408.549 273.741Z" fill="white"/>
<path d="M379.753 193.419L354.711 174.985L334.935 226.338L283.657 211.855L257.123 273.741H408.549L379.753 193.419Z" fill="#D4CCF3"/>
<path d="M275.423 172.352C271.903 162.536 261.092 154.576 251.273 154.576C241.457 154.576 236.351 162.536 239.871 172.352C243.391 182.171 254.202 190.128 264.02 190.128C273.837 190.128 278.943 182.171 275.423 172.352Z" fill="url(#paint18_linear_671_1583)"/>
<path d="M421.362 114.074L425.452 123.981H424.268C423.401 122.236 422.634 120.991 421.967 120.243C420.882 119.04 419.701 118.151 418.423 117.579C417.145 117.009 415.633 116.723 413.889 116.723H407.938L419.738 148.997C420.689 151.593 421.56 153.214 422.356 153.857C423.465 154.728 424.84 155.166 426.479 155.166H427.944L428.367 156.319H410.454L410.032 155.166H411.528C413.314 155.166 414.384 154.625 414.736 153.547C414.949 152.882 414.623 151.366 413.757 148.999L401.956 116.725H396.878C394.905 116.725 393.556 116.87 392.832 117.161C391.897 117.555 391.248 118.314 390.892 119.436C390.533 120.558 390.63 122.073 391.185 123.983H390.001L386.877 114.076L421.362 114.074Z" fill="url(#paint19_linear_671_1583)"/>
<path d="M447.076 133.975H460.008" stroke="#9391EC" stroke-width="0.5" stroke-miterlimit="10"/>
<path d="M459.587 168.227H394.551L370.463 102.357H435.499L459.587 168.227Z" stroke="#9391EC" stroke-width="0.5" stroke-miterlimit="10"/>
<path d="M385.288 136.411H380.415L378.633 131.538H383.506L385.288 136.411Z" fill="white" stroke="#9391EC" stroke-width="0.5" stroke-miterlimit="10"/>
<path d="M450.403 136.411H445.53L443.748 131.538H448.621L450.403 136.411Z" fill="white" stroke="#9391EC" stroke-width="0.5" stroke-miterlimit="10"/>
<path d="M373.856 105.151H368.983L367.201 100.278H372.074L373.856 105.151Z" fill="white" stroke="#9391EC" stroke-width="0.5" stroke-miterlimit="10"/>
<path d="M438.974 105.151H434.098L432.316 100.278H437.192L438.974 105.151Z" fill="white" stroke="#9391EC" stroke-width="0.5" stroke-miterlimit="10"/>
<path d="M406.438 105.151H401.565L399.783 100.278H404.656L406.438 105.151Z" fill="white" stroke="#9391EC" stroke-width="0.5" stroke-miterlimit="10"/>
<path d="M397.669 170.271H392.796L391.014 165.396H395.887L397.669 170.271Z" fill="white" stroke="#9391EC" stroke-width="0.5" stroke-miterlimit="10"/>
<path d="M462.786 170.271H457.913L456.131 165.396H461.004L462.786 170.271Z" fill="white" stroke="#9391EC" stroke-width="0.5" stroke-miterlimit="10"/>
<path d="M427.441 169.386L432.169 182.318" stroke="#9391EC" stroke-width="0.5" stroke-miterlimit="10"/>
<path d="M430.249 170.271H425.376L423.594 165.396H428.467L430.249 170.271Z" fill="white" stroke="#9391EC" stroke-width="0.5" stroke-miterlimit="10"/>
<path d="M435.55 184.751H430.677L428.895 179.878H433.768L435.55 184.751Z" fill="#9391EC"/>
<path d="M390.648 155.867H445.281" stroke="#9391EC" stroke-width="0.5" stroke-miterlimit="10"/>
<path d="M462.575 133.975C462.056 132.558 460.487 131.408 459.071 131.408C457.654 131.408 456.923 132.556 457.443 133.975C457.962 135.392 459.53 136.542 460.947 136.542C462.366 136.542 463.094 135.394 462.575 133.975Z" fill="#9391EC"/>
<path d="M167.644 808.592H163.845L158.143 478.572H173.347L167.644 808.592Z" fill="#517FC5"/>
<path d="M495.135 808.592H491.333L485.633 478.572H500.835L495.135 808.592Z" fill="#517FC5"/>
<path d="M518.33 473.471H152.338V482.037H518.33V473.471Z" fill="#84B4FE"/>
<path d="M296.397 372.893C296.397 375.19 294.219 377.051 291.53 377.051C288.842 377.051 286.664 375.19 286.664 372.893C286.664 370.596 288.842 368.735 291.53 368.735C294.219 368.735 296.397 370.596 296.397 372.893Z" fill="#808080" stroke="#263238" stroke-miterlimit="10" stroke-linecap="round" stroke-linejoin="round"/>
<path d="M301.069 385.565C301.069 387.862 298.891 389.723 296.202 389.723C293.514 389.723 291.336 387.862 291.336 385.565C291.336 383.268 293.514 381.407 296.202 381.407C298.891 381.407 301.069 383.268 301.069 385.565Z" fill="#808080" stroke="#263238" stroke-miterlimit="10" stroke-linecap="round" stroke-linejoin="round"/>
<path d="M305.743 398.235C305.743 400.531 303.562 402.393 300.876 402.393C298.19 402.393 296.01 400.531 296.01 398.235C296.01 395.938 298.188 394.077 300.876 394.077C303.565 394.077 305.743 395.94 305.743 398.235Z" fill="#808080" stroke="#263238" stroke-miterlimit="10" stroke-linecap="round" stroke-linejoin="round"/>
<path d="M310.414 410.911C310.414 413.208 308.236 415.069 305.548 415.069C302.86 415.069 300.682 413.208 300.682 410.911C300.682 408.614 302.86 406.753 305.548 406.753C308.234 406.753 310.414 408.614 310.414 410.911Z" fill="#808080" stroke="#263238" stroke-miterlimit="10" stroke-linecap="round" stroke-linejoin="round"/>
<path d="M343.118 473.283H283.16C278.96 473.283 275.559 469.88 275.559 465.682C275.559 461.484 278.96 458.081 283.16 458.081H343.118C347.318 458.081 350.719 461.484 350.719 465.682C350.719 469.88 347.318 473.283 343.118 473.283Z" fill="#4359B7"/>
<path d="M502.567 473.468H318.015L274 353.658H458.554L502.567 473.468Z" fill="#4359B7"/>
<path d="M490.859 461.01H333.27L295.686 358.705H453.276L490.859 461.01Z" fill="#EEEEFD"/>
<path d="M521.83 516.26C521.83 516.26 513.858 527.958 507.335 533.88C500.812 539.8 480.814 558.324 464.254 586.368C447.695 614.411 436.171 643.09 425.226 667.897C414.281 692.705 394.523 738.526 384.491 752.463C374.461 766.4 367.863 773.878 367.863 773.878C367.863 773.878 351.473 774.254 332.065 772.536C312.659 770.818 304.642 767.311 304.398 772.367C304.154 777.422 317.514 791.322 327.141 793.737C336.771 796.153 349.064 799.867 352.043 802.738C355.022 805.611 358.762 808.911 363.54 806.803C368.321 804.696 382.949 784.354 399.218 770.329C415.489 756.304 434.871 742.429 452.434 709.755C469.996 677.08 470.9 658.413 483.187 646.146C495.474 633.877 508.492 614.627 524.184 604.471C539.879 594.316 586.785 575.537 601.763 555.992C616.743 536.447 608.926 512.681 594.525 504.187C580.128 495.692 533.11 492.639 521.83 516.26Z" fill="#3A376B"/>
<path d="M396.085 731.86C391.654 740.744 387.604 748.14 384.493 752.463C374.463 766.4 367.865 773.878 367.865 773.878C367.865 773.878 351.475 774.254 332.067 772.536C312.661 770.818 304.644 767.311 304.4 772.367C304.156 777.422 317.516 791.322 327.143 793.738C336.771 796.153 349.066 799.867 352.045 802.738C355.024 805.611 358.762 808.911 363.542 806.803C368.323 804.696 382.951 784.355 399.22 770.33C406.79 763.804 415.036 757.286 423.457 748.917C410.171 745.716 401.193 737.783 396.085 731.86Z" fill="#FFB7D6"/>
<path d="M363.54 806.803C365.003 806.159 367.397 803.794 370.468 800.436C357.321 797.814 350.519 791.188 344.497 789.509C336.036 787.151 328.853 782.515 328.853 782.515L335.407 772.813C334.305 772.727 333.191 772.635 332.065 772.536C312.659 770.818 304.642 767.311 304.398 772.367C304.154 777.422 317.514 791.322 327.141 793.737C336.769 796.153 349.064 799.867 352.043 802.738C355.024 805.611 358.762 808.911 363.54 806.803Z" fill="#517FC4" stroke="#517FC4" stroke-miterlimit="10" stroke-linecap="round" stroke-linejoin="round"/>
<path d="M386.338 578.206C386.338 578.206 389.842 594.558 397.628 610.132C405.416 625.706 422.548 642.058 435.006 651.404C447.465 660.747 487.569 696.568 507.426 724.992C509.919 728.56 500.417 740.566 488.737 751.079C477.057 761.591 471.995 765.485 478.223 767.432C484.453 769.379 499.249 768.6 514.044 756.142C528.839 743.683 538.574 735.506 543.244 725.383C545.581 720.321 532.732 714.093 524.944 707.473C517.159 700.853 488.345 657.247 479.391 637.001C470.435 616.754 447.854 587.943 431.112 577.818" fill="#3A376B"/>
<path d="M543.245 725.381C545.581 720.319 532.733 714.089 524.945 707.471C518.398 701.905 496.99 670.194 485.015 648.203L458.512 671.629C474.983 686.87 495.1 707.352 507.424 724.992C509.917 728.56 500.415 740.566 488.735 751.08C477.056 761.591 471.993 765.485 478.221 767.432C484.452 769.379 499.247 768.6 514.042 756.142C528.839 743.681 538.572 735.506 543.245 725.381Z" fill="#FFB7D6"/>
<path d="M535.245 715.053C533.153 718.179 530.434 722.414 527.283 727.718C519.885 740.177 499.64 756.14 496.915 753.416C495.39 751.892 493.868 749.271 492.818 747.258C491.5 748.543 490.136 749.821 488.737 751.08C477.057 761.591 471.995 765.486 478.223 767.433C484.454 769.38 499.249 768.601 514.044 756.142C528.839 743.684 538.574 735.506 543.244 725.384C544.666 722.31 540.486 718.808 535.245 715.053Z" fill="#517FC4" stroke="#517FC4" stroke-miterlimit="10" stroke-linecap="round" stroke-linejoin="round"/>
<path d="M640.976 750.69H508.596V756.921H640.976V750.69Z" fill="#517FC5"/>
<path d="M520.665 583.655L497.497 805.114C497.394 806.161 498.216 807.069 499.27 807.069C500.155 807.069 500.903 806.423 501.032 805.547L535.462 583.653H520.665V583.655Z" fill="#517FC5"/>
<path d="M626.568 583.655L649.737 805.114C649.84 806.161 649.017 807.069 647.966 807.069C647.081 807.069 646.333 806.423 646.203 805.547L611.773 583.653H626.568V583.655Z" fill="#517FC5"/>
<path d="M584.518 583.655L585.677 805.281C585.681 806.269 584.883 807.072 583.897 807.072H583.871C582.925 807.072 582.142 806.331 582.093 805.385L569.723 583.655H584.518Z" fill="#517FC5"/>
<path d="M633.936 585.991H511.35C505.313 585.991 500.418 581.101 500.418 575.062V561.103C500.418 555.066 505.311 550.171 511.35 550.171H633.938C639.975 550.171 644.87 555.066 644.87 561.103V575.062C644.868 581.098 639.973 585.991 633.936 585.991Z" fill="#D0DCF8"/>
<path d="M389.452 592.224C386.727 583.268 375.436 565.358 429.556 527.98C458.246 508.164 520.275 492.938 520.275 492.938L526.116 486.318C526.116 486.318 542.858 503.839 575.564 502.671C608.269 501.503 628.515 487.097 632.409 488.265C636.303 489.434 636.693 499.556 635.135 518.634C633.578 537.713 631.631 547.445 616.446 552.118C601.262 556.791 567.778 558.349 543.637 557.959C519.497 557.57 507.817 556.012 507.817 556.012C507.817 556.012 456.033 588.717 423.717 591.054" fill="#3A376B"/>
<path d="M509.374 377.689C507.025 378.428 435.786 392.484 429.558 391.316C423.328 390.148 406.975 376.131 401.134 376.521C395.293 376.91 383.613 378.857 382.445 381.972C381.277 385.088 385.171 395.599 385.171 395.599C385.171 395.599 381.277 401.44 383.224 404.166C385.171 406.892 396.461 400.272 396.461 400.272C396.461 400.272 409.309 409.615 415.15 407.671C420.991 405.724 427.22 403.387 427.22 403.387C427.22 403.387 518.718 408.839 519.886 409.228C521.054 409.618 532.344 411.954 533.513 395.601C534.681 379.247 523.001 373.406 509.374 377.689Z" fill="#FFB7D6"/>
<path d="M391.01 389.76L399.577 362.894L403.079 363.673L398.798 383.141L391.01 389.76Z" fill="#4359B7"/>
<path d="M453.698 406.113C453.698 406.113 359.084 432.2 343.9 430.253C328.716 428.306 324.043 421.689 320.538 421.689C317.034 421.689 307.301 426.362 303.017 425.972C298.734 425.583 293.672 424.415 293.672 427.14C293.672 429.866 297.566 434.15 299.902 434.15C302.239 434.15 311.582 433.76 311.582 433.76C311.582 433.76 293.282 439.212 292.504 442.714C291.725 446.219 294.061 449.334 297.566 450.113C301.07 450.892 302.628 452.449 302.628 452.449C302.628 452.449 304.186 458.29 306.522 461.014C308.858 463.74 315.868 464.908 323.653 463.35C331.439 461.793 345.068 454.783 348.183 452.836C351.299 450.889 445.91 442.325 452.919 440.767C459.928 439.21 468.493 439.21 471.218 434.537C473.944 429.864 453.698 406.113 453.698 406.113Z" fill="#FFB7D6"/>
<path d="M533.512 310.719C533.512 310.719 524.945 334.08 514.044 349.654C503.143 365.228 498.47 381.581 505.48 399.101C512.489 416.622 527.673 420.516 527.673 420.516C527.673 420.516 522.222 471.91 523.779 485.537C525.337 499.164 546.362 515.127 577.899 516.295C609.436 517.464 636.692 506.173 636.692 495.27C636.692 484.369 614.498 426.355 614.498 414.284C614.498 402.214 616.445 364.447 605.934 330.574C595.42 296.702 558.431 285.801 533.512 310.719Z" fill="#B5A7E9"/>
<path d="M533.512 310.719C533.512 310.719 524.945 334.08 514.044 349.654C503.143 365.228 498.47 381.581 505.48 399.101C512.489 416.622 527.673 420.516 527.673 420.516C527.673 420.516 522.222 471.91 523.779 485.537C525.337 499.164 546.362 515.127 577.899 516.295C609.436 517.464 636.692 506.173 636.692 495.27C636.692 484.369 614.498 426.355 614.498 414.284C614.498 402.214 616.445 364.447 605.934 330.574C595.42 296.702 558.431 285.801 533.512 310.719Z" stroke="#B5A7E9" stroke-miterlimit="10" stroke-linecap="round" stroke-linejoin="round"/>
<path d="M538.301 405.198C538.301 405.198 566.901 451.398 608.701 464.598" stroke="#B5A7E9" stroke-miterlimit="10" stroke-linecap="round" stroke-linejoin="round"/>
<path d="M535 412.898C535 412.898 546 449.198 574.6 466.798" stroke="#B5A7E9" stroke-miterlimit="10" stroke-linecap="round" stroke-linejoin="round"/>
<path d="M540.9 383.818C540.9 383.818 566.742 372.554 577.341 365.266" stroke="#B5A7E9" stroke-miterlimit="10" stroke-linecap="round" stroke-linejoin="round"/>
<path d="M530.299 386.467C530.299 386.467 539.574 388.456 563.426 386.467" stroke="#B5A7E9" stroke-miterlimit="10" stroke-linecap="round" stroke-linejoin="round"/>
<path d="M531.176 316.56C531.176 316.56 523.777 320.843 514.823 330.186C505.869 339.53 462.65 404.942 462.65 404.942C462.65 404.942 475.498 431.809 479.392 432.585C483.286 433.364 551.033 375.35 557.264 368.343C563.494 361.334 567.388 348.486 565.441 343.037" fill="#8F80C7"/>
<mask id="mask0_671_1583" style="mask-type:luminance" maskUnits="userSpaceOnUse" x="462" y="316" width="104" height="117">
<path d="M531.176 316.56C531.176 316.56 523.777 320.843 514.823 330.186C505.869 339.53 462.65 404.942 462.65 404.942C462.65 404.942 475.498 431.809 479.392 432.585C483.286 433.364 551.033 375.35 557.264 368.343C563.494 361.334 567.388 348.486 565.441 343.037" fill="white"/>
</mask>
<g mask="url(#mask0_671_1583)">
<path d="M462.65 404.943L460.815 403.73L460.129 404.769L460.666 405.891L462.65 404.943ZM531.176 316.56C530.074 314.657 530.074 314.657 530.074 314.657C530.074 314.657 530.071 314.657 530.069 314.659C530.067 314.659 530.065 314.661 530.063 314.663C530.056 314.666 530.049 314.67 530.041 314.677C530.021 314.688 529.997 314.701 529.964 314.721C529.898 314.76 529.805 314.815 529.686 314.888C529.449 315.035 529.108 315.251 528.672 315.537C527.801 316.109 526.558 316.962 525.033 318.113C521.984 320.412 517.804 323.897 513.235 328.664L516.412 331.709C520.796 327.133 524.794 323.804 527.682 321.626C529.125 320.537 530.291 319.737 531.088 319.213C531.486 318.951 531.792 318.76 531.994 318.634C532.095 318.573 532.17 318.527 532.219 318.5C532.243 318.485 532.26 318.474 532.269 318.469C532.276 318.465 532.278 318.465 532.28 318.463C532.278 318.463 532.278 318.463 531.176 316.56ZM513.235 328.664C510.863 331.139 506.384 337.128 501.104 344.531C495.778 351.997 489.525 361.066 483.561 369.831C477.595 378.598 471.908 387.072 467.715 393.355C465.616 396.495 463.893 399.088 462.692 400.897C462.091 401.801 461.623 402.509 461.304 402.991C461.145 403.233 461.022 403.416 460.941 403.541C460.899 403.603 460.868 403.651 460.846 403.682C460.837 403.697 460.829 403.711 460.824 403.717C460.82 403.722 460.818 403.724 460.818 403.726C460.818 403.728 460.815 403.728 460.815 403.728C460.815 403.73 460.815 403.73 462.65 404.943C464.487 406.155 464.487 406.155 464.487 406.155V406.153C464.489 406.15 464.492 406.148 464.494 406.144C464.498 406.135 464.507 406.124 464.518 406.109C464.538 406.078 464.569 406.029 464.61 405.968C464.692 405.845 464.813 405.66 464.973 405.42C465.29 404.94 465.759 404.232 466.359 403.33C467.556 401.524 469.279 398.934 471.373 395.797C475.562 389.523 481.24 381.059 487.198 372.306C493.158 363.552 499.388 354.514 504.686 347.087C510.027 339.596 514.308 333.905 516.412 331.709L513.235 328.664ZM462.65 404.943C460.666 405.891 460.666 405.891 460.666 405.893C460.668 405.895 460.668 405.895 460.668 405.897C460.67 405.902 460.672 405.906 460.677 405.913C460.683 405.926 460.692 405.946 460.705 405.972C460.73 406.025 460.767 406.102 460.815 406.201C460.91 406.399 461.053 406.692 461.233 407.063C461.594 407.805 462.116 408.863 462.751 410.137C464.023 412.68 465.763 416.086 467.629 419.522C469.488 422.947 471.496 426.448 473.303 429.16C474.205 430.509 475.091 431.721 475.916 432.643C476.328 433.103 476.763 433.534 477.212 433.884C477.63 434.209 478.231 434.596 478.963 434.744L479.823 430.427C480.07 430.478 480.112 430.564 479.914 430.41C479.746 430.28 479.507 430.056 479.194 429.708C478.572 429.011 477.817 427.996 476.963 426.718C475.267 424.173 473.333 420.811 471.494 417.423C469.662 414.046 467.946 410.687 466.687 408.168C466.058 406.912 465.543 405.864 465.189 405.134C465.011 404.769 464.872 404.483 464.778 404.289C464.731 404.19 464.694 404.118 464.67 404.067C464.659 404.043 464.65 404.023 464.643 404.012C464.641 404.005 464.639 404.001 464.637 403.997V403.994H464.635C464.635 403.994 464.635 403.994 462.65 404.943ZM478.963 434.744C479.722 434.896 480.406 434.66 480.686 434.561C481.073 434.42 481.484 434.222 481.885 434.007C482.697 433.569 483.7 432.931 484.842 432.154C487.134 430.59 490.168 428.326 493.677 425.598C500.706 420.136 509.757 412.717 518.867 405.068C527.979 397.419 537.166 389.523 544.468 383.099C551.708 376.73 557.237 371.683 558.909 369.804L555.62 366.88C554.175 368.506 548.901 373.34 541.562 379.794C534.289 386.194 525.128 394.068 516.038 401.7C506.945 409.334 497.94 416.71 490.977 422.125C487.49 424.835 484.542 427.033 482.362 428.518C481.267 429.266 480.409 429.803 479.797 430.133C479.487 430.3 479.293 430.386 479.196 430.419C478.992 430.493 479.309 430.324 479.823 430.427L478.963 434.744ZM558.909 369.804C562.279 366.011 564.941 360.749 566.517 355.768C567.309 353.265 567.845 350.772 568.052 348.504C568.255 346.271 568.151 344.086 567.513 342.298L563.371 343.776C563.705 344.713 563.846 346.176 563.67 348.106C563.498 349.998 563.038 352.176 562.321 354.442C560.88 359 558.478 363.664 555.62 366.88L558.909 369.804Z" fill="#8F80C7"/>
</g>
<mask id="mask1_671_1583" style="mask-type:luminance" maskUnits="userSpaceOnUse" x="462" y="316" width="104" height="117">
<path d="M531.176 316.56C531.176 316.56 523.777 320.843 514.823 330.186C505.869 339.53 462.65 404.942 462.65 404.942C462.65 404.942 475.498 431.809 479.392 432.585C483.286 433.364 551.033 375.35 557.264 368.343C563.494 361.334 567.388 348.486 565.441 343.037" fill="white"/>
<mask id="mask2_671_1583" style="mask-type:luminance" maskUnits="userSpaceOnUse" x="462" y="316" width="104" height="117">
<path d="M531.176 316.56C531.176 316.56 523.777 320.843 514.823 330.186C505.869 339.53 462.65 404.942 462.65 404.942C462.65 404.942 475.498 431.809 479.392 432.585C483.286 433.364 551.033 375.35 557.264 368.343C563.494 361.334 567.388 348.486 565.441 343.037" fill="white"/>
</mask>
<g mask="url(#mask2_671_1583)">
<path d="M462.65 404.943L460.815 403.73L460.129 404.769L460.666 405.891L462.65 404.943ZM531.176 316.56C530.074 314.657 530.074 314.657 530.074 314.657C530.074 314.657 530.071 314.657 530.069 314.659C530.067 314.659 530.065 314.661 530.063 314.663C530.056 314.666 530.049 314.67 530.041 314.677C530.021 314.688 529.997 314.701 529.964 314.721C529.898 314.76 529.805 314.815 529.686 314.888C529.449 315.035 529.108 315.251 528.672 315.537C527.801 316.109 526.558 316.962 525.033 318.113C521.984 320.412 517.804 323.897 513.235 328.664L516.412 331.709C520.796 327.133 524.794 323.804 527.682 321.626C529.125 320.537 530.291 319.737 531.088 319.213C531.486 318.951 531.792 318.76 531.994 318.634C532.095 318.573 532.17 318.527 532.219 318.5C532.243 318.485 532.26 318.474 532.269 318.469C532.276 318.465 532.278 318.465 532.28 318.463C532.278 318.463 532.278 318.463 531.176 316.56ZM513.235 328.664C510.863 331.139 506.384 337.128 501.104 344.531C495.778 351.997 489.525 361.066 483.561 369.831C477.595 378.598 471.908 387.072 467.715 393.355C465.616 396.495 463.893 399.088 462.692 400.897C462.091 401.801 461.623 402.509 461.304 402.991C461.145 403.233 461.022 403.416 460.941 403.541C460.899 403.603 460.868 403.651 460.846 403.682C460.837 403.697 460.829 403.711 460.824 403.717C460.82 403.722 460.818 403.724 460.818 403.726C460.818 403.728 460.815 403.728 460.815 403.728C460.815 403.73 460.815 403.73 462.65 404.943C464.487 406.155 464.487 406.155 464.487 406.155V406.153C464.489 406.15 464.492 406.148 464.494 406.144C464.498 406.135 464.507 406.124 464.518 406.109C464.538 406.078 464.569 406.029 464.61 405.968C464.692 405.845 464.813 405.66 464.973 405.42C465.29 404.94 465.759 404.232 466.359 403.33C467.556 401.524 469.279 398.934 471.373 395.797C475.562 389.523 481.24 381.059 487.198 372.306C493.158 363.552 499.388 354.514 504.686 347.087C510.027 339.596 514.308 333.905 516.412 331.709L513.235 328.664ZM462.65 404.943C460.666 405.891 460.666 405.891 460.666 405.893C460.668 405.895 460.668 405.895 460.668 405.897C460.67 405.902 460.672 405.906 460.677 405.913C460.683 405.926 460.692 405.946 460.705 405.972C460.73 406.025 460.767 406.102 460.815 406.201C460.91 406.399 461.053 406.692 461.233 407.063C461.594 407.805 462.116 408.863 462.751 410.137C464.023 412.68 465.763 416.086 467.629 419.522C469.488 422.947 471.496 426.448 473.303 429.16C474.205 430.509 475.091 431.721 475.916 432.643C476.328 433.103 476.763 433.534 477.212 433.884C477.63 434.209 478.231 434.596 478.963 434.744L479.823 430.427C480.07 430.478 480.112 430.564 479.914 430.41C479.746 430.28 479.507 430.056 479.194 429.708C478.572 429.011 477.817 427.996 476.963 426.718C475.267 424.173 473.333 420.811 471.494 417.423C469.662 414.046 467.946 410.687 466.687 408.168C466.058 406.912 465.543 405.864 465.189 405.134C465.011 404.769 464.872 404.483 464.778 404.289C464.731 404.19 464.694 404.118 464.67 404.067C464.659 404.043 464.65 404.023 464.643 404.012C464.641 404.005 464.639 404.001 464.637 403.997V403.994H464.635C464.635 403.994 464.635 403.994 462.65 404.943ZM478.963 434.744C479.722 434.896 480.406 434.66 480.686 434.561C481.073 434.42 481.484 434.222 481.885 434.007C482.697 433.569 483.7 432.931 484.842 432.154C487.134 430.59 490.168 428.326 493.677 425.598C500.706 420.136 509.757 412.717 518.867 405.068C527.979 397.419 537.166 389.523 544.468 383.099C551.708 376.73 557.237 371.683 558.909 369.804L555.62 366.88C554.175 368.506 548.901 373.34 541.562 379.794C534.289 386.194 525.128 394.068 516.038 401.7C506.945 409.334 497.94 416.71 490.977 422.125C487.49 424.835 484.542 427.033 482.362 428.518C481.267 429.266 480.409 429.803 479.797 430.133C479.487 430.3 479.293 430.386 479.196 430.419C478.992 430.493 479.309 430.324 479.823 430.427L478.963 434.744ZM558.909 369.804C562.279 366.011 564.941 360.749 566.517 355.768C567.309 353.265 567.845 350.772 568.052 348.504C568.255 346.271 568.151 344.086 567.513 342.298L563.371 343.776C563.705 344.713 563.846 346.176 563.67 348.106C563.498 349.998 563.038 352.176 562.321 354.442C560.88 359 558.478 363.664 555.62 366.88L558.909 369.804Z" fill="white"/>
</g>
</mask>
<g mask="url(#mask1_671_1583)">
<path opacity="0.2" d="M479.615 431.507H479.613M546.198 337.189C546.214 336.995 546.225 336.828 546.231 336.692L550.167 332.624L564.5 343.699C564.834 344.827 564.933 346.365 564.766 348.204C564.586 350.191 564.106 352.448 563.371 354.774C561.895 359.435 559.429 364.251 556.441 367.613C554.941 369.3 549.602 374.186 542.289 380.621C535.009 387.028 525.839 394.906 516.745 402.542C507.65 410.181 498.634 417.568 491.654 422.993C488.162 425.708 485.194 427.921 482.986 429.428C481.879 430.183 480.986 430.746 480.324 431.103C479.991 431.283 479.743 431.395 479.576 431.457C479.558 431.461 479.545 431.466 479.532 431.47C479.461 431.433 479.345 431.36 479.177 431.221C478.953 431.037 478.691 430.779 478.394 430.449C477.855 426.095 477.631 422.232 477.631 420.199C477.631 418.587 478.029 417.419 478.709 416.512C479.4 415.59 480.456 414.842 481.93 414.211C484.713 413.019 488.642 412.367 493.572 411.549C493.964 411.485 494.364 411.419 494.769 411.351C496.155 411.12 497.279 410.852 498.168 410.517C499.054 410.185 499.783 409.763 500.304 409.18C501.413 407.939 501.254 406.386 500.971 404.971C500.876 404.494 500.755 403.985 500.627 403.444C499.97 400.663 499.094 396.961 500.181 391.52C500.839 388.231 501.778 385.829 503.047 383.899C504.312 381.972 505.949 380.452 508.092 378.978C510.255 377.493 512.886 376.081 516.144 374.34L516.267 374.277C519.484 372.558 523.263 370.541 527.663 367.866C536.793 362.32 541.44 354.411 543.8 347.916C544.979 344.671 545.591 341.769 545.908 339.675C546.066 338.628 546.152 337.781 546.198 337.189Z" stroke="#8F80C7"/>
</g>
<path d="M531.176 316.56C531.176 316.56 523.777 320.843 514.823 330.186C505.869 339.53 462.65 404.942 462.65 404.942C462.65 404.942 475.498 431.809 479.392 432.585C483.286 433.364 551.033 375.35 557.264 368.343C563.494 361.334 567.388 348.486 565.441 343.037" stroke="#8F80C7" stroke-miterlimit="10" stroke-linecap="round" stroke-linejoin="round"/>
<path d="M447.856 408.836C447.856 408.836 459.926 437.648 462.651 440.763C465.377 443.878 479.783 441.931 484.456 438.426C489.128 434.922 488.35 427.915 488.35 427.915C488.35 427.915 470.439 396.378 468.492 394.82C466.545 393.263 465.767 396.767 457.591 399.493C449.414 402.217 446.299 403.385 447.856 408.836Z" fill="#8F80C7" stroke="#8F80C7" stroke-miterlimit="10" stroke-linecap="round" stroke-linejoin="round"/>
<path d="M467.326 237.135C467.326 237.135 466.547 248.426 468.494 251.93C470.441 255.435 475.892 258.94 475.892 263.61C475.892 268.283 471.999 274.511 473.167 278.016C474.335 281.52 480.565 281.91 480.565 281.91C480.565 281.91 492.245 296.315 495.75 301.378C499.254 306.44 500.812 304.493 506.261 302.935C511.713 301.378 523.393 291.255 530.013 283.467C536.632 275.679 525.729 251.93 511.324 235.967C496.918 220.004 475.503 220.393 470.83 225.066C466.158 229.737 467.326 237.135 467.326 237.135Z" fill="#FFB7D6"/>
<mask id="mask3_671_1583" style="mask-type:luminance" maskUnits="userSpaceOnUse" x="467" y="222" width="65" height="83">
<path d="M467.326 237.135C467.326 237.135 466.547 248.426 468.494 251.93C470.441 255.435 475.892 258.94 475.892 263.61C475.892 268.283 471.999 274.511 473.167 278.016C474.335 281.52 480.565 281.91 480.565 281.91C480.565 281.91 492.245 296.315 495.75 301.378C499.254 306.44 500.812 304.493 506.261 302.935C511.713 301.378 523.393 291.255 530.013 283.467C536.632 275.679 525.729 251.93 511.324 235.967C496.918 220.004 475.503 220.393 470.83 225.066C466.158 229.737 467.326 237.135 467.326 237.135Z" fill="white"/>
</mask>
<g mask="url(#mask3_671_1583)">
<path d="M498.195 226.221C496.391 235.118 494.589 250.148 500.004 260.378C508.13 275.728 514.451 283.855 509.937 296.496C509.131 298.746 508.3 300.729 507.475 302.486C513.298 299.987 523.847 290.719 530.012 283.465C536.631 275.677 525.728 251.928 511.323 235.965C507.319 231.528 502.771 228.39 498.195 226.221Z" fill="#FFB7D6"/>
</g>
<path d="M467.326 237.135C467.326 237.135 466.547 248.426 468.494 251.93C470.441 255.435 475.892 258.94 475.892 263.61C475.892 268.283 471.999 274.511 473.167 278.016C474.335 281.52 480.565 281.91 480.565 281.91C480.565 281.91 492.245 296.315 495.75 301.378C499.254 306.44 500.812 304.493 506.261 302.935C511.713 301.378 523.393 291.255 530.013 283.467C536.632 275.679 525.729 251.93 511.324 235.967C496.918 220.004 475.503 220.393 470.83 225.066C466.158 229.737 467.326 237.135 467.326 237.135Z" stroke="#FFB7D6" stroke-miterlimit="10" stroke-linecap="round" stroke-linejoin="round"/>
<path d="M455.255 220.002L455.196 221.557L454.477 240.638L475.502 243.364L480.175 235.189V244.143C480.175 244.143 489.129 242.974 499.253 246.868C509.375 250.762 522.226 278.405 521.447 289.698C520.668 300.988 510.935 303.325 512.103 320.456C513.272 337.588 539.357 354.719 559.214 343.818C579.071 332.917 582.187 318.899 590.362 321.624C598.537 324.35 610.998 341.092 618.784 317.341C626.569 293.59 623.067 278.405 604.767 258.938C586.468 239.47 572.062 241.027 569.726 225.454C567.389 209.88 562.327 188.854 545.585 177.175C528.843 165.495 504.703 164.716 484.067 173.67C463.431 182.624 455.255 209.88 455.255 220.002Z" fill="#1C056D"/>
<path d="M455.255 220.002L455.196 221.557L454.477 240.638L475.502 243.364L480.175 235.189V244.143C480.175 244.143 489.129 242.974 499.253 246.868C509.375 250.762 522.226 278.405 521.447 289.698C520.668 300.988 510.935 303.325 512.103 320.456C513.272 337.588 539.357 354.719 559.214 343.818C579.071 332.917 582.187 318.899 590.362 321.624C598.537 324.35 610.998 341.092 618.784 317.341C626.569 293.59 623.067 278.405 604.767 258.938C586.468 239.47 572.062 241.027 569.726 225.454C567.389 209.88 562.327 188.854 545.585 177.175C528.843 165.495 504.703 164.716 484.067 173.67C463.431 182.624 455.255 209.88 455.255 220.002Z" stroke="#1C056D" stroke-miterlimit="10" stroke-linecap="round" stroke-linejoin="round"/>
<path d="M0.896484 808.59H805.97" stroke="#D4CCF3" stroke-miterlimit="10"/>
<defs>
<linearGradient id="paint0_linear_671_1583" x1="716.807" y1="472.691" x2="752.581" y2="472.691" gradientUnits="userSpaceOnUse">
<stop stop-color="#9942FF"/>
<stop offset="1" stop-color="#4D6DFF"/>
</linearGradient>
<linearGradient id="paint1_linear_671_1583" x1="697.801" y1="529.24" x2="733.573" y2="529.24" gradientUnits="userSpaceOnUse">
<stop stop-color="#9942FF"/>
<stop offset="1" stop-color="#4D6DFF"/>
</linearGradient>
<linearGradient id="paint2_linear_671_1583" x1="750.02" y1="490.232" x2="790.715" y2="490.232" gradientUnits="userSpaceOnUse">
<stop stop-color="#9942FF"/>
<stop offset="1" stop-color="#4D6DFF"/>
</linearGradient>
<linearGradient id="paint3_linear_671_1583" x1="725.719" y1="560.071" x2="771.419" y2="560.071" gradientUnits="userSpaceOnUse">
<stop stop-color="#9942FF"/>
<stop offset="1" stop-color="#4D6DFF"/>
</linearGradient>
<linearGradient id="paint4_linear_671_1583" x1="733" y1="630.44" x2="768.774" y2="630.44" gradientUnits="userSpaceOnUse">
<stop stop-color="#9942FF"/>
<stop offset="1" stop-color="#4D6DFF"/>
</linearGradient>
<linearGradient id="paint5_linear_671_1583" x1="702.2" y1="645.761" x2="733.922" y2="645.761" gradientUnits="userSpaceOnUse">
<stop stop-color="#9942FF"/>
<stop offset="1" stop-color="#4D6DFF"/>
</linearGradient>
<linearGradient id="paint6_linear_671_1583" x1="720.516" y1="701.782" x2="756.288" y2="701.782" gradientUnits="userSpaceOnUse">
<stop stop-color="#9942FF"/>
<stop offset="1" stop-color="#4D6DFF"/>
</linearGradient>
<linearGradient id="paint7_linear_671_1583" x1="728.855" y1="746.413" x2="757.611" y2="746.413" gradientUnits="userSpaceOnUse">
<stop stop-color="#9942FF"/>
<stop offset="1" stop-color="#4D6DFF"/>
</linearGradient>
<linearGradient id="paint8_linear_671_1583" x1="669.199" y1="599.31" x2="688.892" y2="599.31" gradientUnits="userSpaceOnUse">
<stop stop-color="#9942FF"/>
<stop offset="1" stop-color="#4D6DFF"/>
</linearGradient>
<linearGradient id="paint9_linear_671_1583" x1="686.141" y1="632.559" x2="705.833" y2="632.559" gradientUnits="userSpaceOnUse">
<stop stop-color="#9942FF"/>
<stop offset="1" stop-color="#4D6DFF"/>
</linearGradient>
<linearGradient id="paint10_linear_671_1583" x1="642.233" y1="613.302" x2="673.326" y2="613.302" gradientUnits="userSpaceOnUse">
<stop stop-color="#9942FF"/>
<stop offset="1" stop-color="#4D6DFF"/>
</linearGradient>
<linearGradient id="paint11_linear_671_1583" x1="662.6" y1="653.941" x2="696.684" y2="653.941" gradientUnits="userSpaceOnUse">
<stop stop-color="#9942FF"/>
<stop offset="1" stop-color="#4D6DFF"/>
</linearGradient>
<linearGradient id="paint12_linear_671_1583" x1="671.261" y1="698.946" x2="699.135" y2="698.946" gradientUnits="userSpaceOnUse">
<stop stop-color="#9942FF"/>
<stop offset="1" stop-color="#4D6DFF"/>
</linearGradient>
<linearGradient id="paint13_linear_671_1583" x1="699.133" y1="705.337" x2="716.546" y2="705.337" gradientUnits="userSpaceOnUse">
<stop stop-color="#9942FF"/>
<stop offset="1" stop-color="#4D6DFF"/>
</linearGradient>
<linearGradient id="paint14_linear_671_1583" x1="714.398" y1="756.106" x2="740.55" y2="756.106" gradientUnits="userSpaceOnUse">
<stop stop-color="#9942FF"/>
<stop offset="1" stop-color="#4D6DFF"/>
</linearGradient>
<linearGradient id="paint15_linear_671_1583" x1="687.128" y1="742.431" x2="715.004" y2="742.431" gradientUnits="userSpaceOnUse">
<stop stop-color="#9942FF"/>
<stop offset="1" stop-color="#4D6DFF"/>
</linearGradient>
<linearGradient id="paint16_linear_671_1583" x1="691.878" y1="770.934" x2="713.089" y2="770.934" gradientUnits="userSpaceOnUse">
<stop stop-color="#9942FF"/>
<stop offset="1" stop-color="#4D6DFF"/>
</linearGradient>
<linearGradient id="paint17_linear_671_1583" x1="87.3711" y1="188.384" x2="107.252" y2="188.384" gradientUnits="userSpaceOnUse">
<stop stop-color="#FB9004"/>
<stop offset="1" stop-color="#FC067D"/>
</linearGradient>
<linearGradient id="paint18_linear_671_1583" x1="238.758" y1="172.352" x2="276.536" y2="172.352" gradientUnits="userSpaceOnUse">
<stop stop-color="#9942FF"/>
<stop offset="1" stop-color="#FC067D"/>
</linearGradient>
<linearGradient id="paint19_linear_671_1583" x1="386.877" y1="135.196" x2="428.367" y2="135.196" gradientUnits="userSpaceOnUse">
<stop stop-color="#FB9004"/>
<stop offset="1" stop-color="#FC067D"/>
</linearGradient>
</defs>
</svg>
