<svg width="748" height="370" viewBox="0 0 748 370" fill="none" xmlns="http://www.w3.org/2000/svg">
<path opacity="0.16" d="M83.5142 367.77H747.633C739.119 278.091 763.358 122.023 652.879 84.3121C492.028 9.51675 476.137 22.3157 337.753 124.574C301.122 152.03 253.621 148.297 212.969 132.528C158.948 115.11 110.69 147.423 82.2384 191.906C39.2052 237.454 72.899 316.233 83.5142 367.77Z" fill="#B5A7E9"/>
<path d="M528.67 167.733H419.948C423.249 160.859 426.607 160.083 433.232 158.329C434.603 157.411 435.005 155.623 435.497 154.049C443.731 131.185 475.341 135.958 487.495 153.263C492.306 150.947 498.377 148.727 502.607 151.986C505.164 153.956 506.441 157.623 509.523 158.585C511.71 159.268 514.035 158.311 516.32 158.137C520.705 157.804 527.304 163.553 528.67 167.733Z" fill="white"/>
<path d="M560.495 83.7096H501.695C502.935 81.203 505.507 79.6779 508.281 79.3227C511.344 66.6187 528.501 67.3043 536.045 75.8049C538.746 71.7939 543.916 75.2308 545.958 78.3044C551.183 73.2049 558.464 77.5831 560.495 83.7096Z" fill="white"/>
<path d="M392.037 203.489H329.273C330.778 201.2 332.281 199.913 334.921 199.179C338.835 184.083 359.255 184.094 368.75 194.138C372.272 189.438 380.072 191.881 380.286 197.747C384.429 196.215 390.425 199.377 392.037 203.489Z" fill="white"/>
<path d="M418.22 367.772C397.525 367.676 381.217 371.652 370.676 348.748C379.131 348.557 386.569 353.948 393.283 359.089C385.425 352.187 383.378 340.7 384.007 330.259C392.732 337.672 401.068 346.065 405.556 356.597C404.884 348.755 404.242 340.644 406.792 333.198C415.495 341.346 420.195 356.015 418.22 367.772Z" fill="#324D90"/>
<path d="M560.637 158.648L527.357 204.183L479.178 214.061V287.683L401.659 367.77H564.448L599.034 208.296L560.637 158.648Z" fill="url(#paint0_linear_441_2864)"/>
<path d="M623.637 110.14L560.636 158.648L573.87 208.296L521.656 239.057L516.198 315.536L446.168 367.77H691.612L706.49 238.955L672.901 207.007L659.695 142.276L623.637 110.14Z" fill="#D7DCFF"/>
<path d="M659.695 142.276L609.463 193.821L620.004 209.707V274.243L655.821 284.426L657.517 278.478L632.077 264.348L639.243 207.861L620.004 195.716L663.94 163.085L659.695 142.276Z" fill="url(#paint1_linear_441_2864)"/>
<path d="M528.669 367.77L578.097 304.836L654.974 296.425L629.629 308.296L663.941 333.641L602.358 319.525L567.068 332.097L560.33 367.77H528.669Z" fill="url(#paint2_linear_441_2864)"/>
<path d="M573.87 208.296L588.499 201.169L596.305 220.878L568.759 275.009H576.329L611.163 219.081L596.305 184.719H574.608L560.637 158.648L573.87 208.296Z" fill="white"/>
<path d="M657.518 278.478L660.712 265.326L678.442 284.426L672.04 323.442L666.622 321.472L670.562 284.426L657.518 278.478Z" fill="white"/>
<path d="M532.882 232.444L539.996 284.426L528.669 323.442L495.466 360.129L516.199 315.536L521.656 239.057L532.882 232.444Z" fill="white"/>
<path d="M706.49 238.954L725.628 300.009L723.803 367.769H691.612L706.49 238.954Z" fill="url(#paint3_linear_441_2864)"/>
<path d="M716.738 367.77C716.738 367.77 739.672 362.512 744.311 344.215C744.311 344.215 727.32 347.587 722.149 353.235C722.149 353.235 735.806 337.773 734.776 318.188C734.776 318.188 714.16 329.527 712.872 344.215C712.872 344.215 712.248 324.183 696.325 308.172C696.325 308.172 691.998 333.134 698.441 349.369C698.441 349.369 685.556 337.773 671.898 335.196C671.898 335.196 671.64 355.296 692.256 358.646C692.256 358.646 681.69 354.008 668.548 354.781C681.542 367.885 693.842 368.638 716.738 367.77Z" fill="#324D90"/>
<path d="M627.484 108.725L645.436 148.077H636.46L621.362 115.524L627.484 108.725Z" fill="#2A437D"/>
<path d="M598.245 108.725L580.293 148.077H589.269L604.366 115.524L598.245 108.725Z" fill="#2A437D"/>
<path d="M635.489 50.3379C600.922 42.1147 562.636 134.99 604.615 144.454C639.181 152.676 677.466 59.8007 635.489 50.3379Z" fill="#D2176D"/>
<path d="M598.677 143.89C556.698 134.421 594.996 41.5392 629.555 49.7773C671.532 59.2444 633.234 152.126 598.677 143.89Z" fill="url(#paint4_linear_441_2864)"/>
<path d="M602.071 133.546C569.319 126.159 599.199 53.6937 626.162 60.1209C658.912 67.5069 629.032 139.972 602.071 133.546Z" fill="white"/>
<path d="M605.464 123.203C581.939 117.896 603.401 65.8482 622.767 70.4645C646.29 75.7695 624.829 127.818 605.464 123.203Z" fill="url(#paint5_linear_441_2864)"/>
<path d="M608.857 112.859C594.561 109.634 607.604 78.0025 619.373 80.808C633.669 84.0321 620.626 115.664 608.857 112.859Z" fill="white"/>
<path d="M617.749 97.3957C616.72 100.533 614.258 102.826 612.251 102.515C607.18 101.377 611.807 90.1518 615.98 91.1518C617.986 91.4619 618.779 94.2576 617.749 97.3957Z" fill="#F9CE68"/>
<path d="M174.176 115.742C174.176 115.742 177.724 126.37 180.085 132.277C182.445 138.184 183.762 148.726 170.427 152.574L171.071 155.521C171.071 155.521 164.146 155.134 159.139 157.952L156.449 145.25C156.449 145.25 148.365 141.274 149.395 133.579C150.426 125.883 159.783 130.704 160.298 135.224L160.813 139.744L163.374 139.1C163.374 139.1 164.661 134.866 164.275 128.844C163.889 122.822 164.275 115.37 168.51 114.097C172.745 112.81 174.19 115.756 174.19 115.756L174.176 115.742Z" fill="#FFB7D6"/>
<path d="M149.367 133.593C150.397 125.898 159.754 130.718 160.269 135.238L160.785 139.758L163.346 139.114C163.346 139.114 164.633 134.88 164.247 128.858C163.861 122.822 164.247 115.384 168.482 114.111C172.717 112.824 174.162 115.771 174.162 115.771C174.162 115.771 174.691 117.344 175.464 119.618C175.464 119.618 179.77 114.755 179.642 111.165C179.513 107.575 178.225 101.41 172.846 100.008C172.846 100.008 168.024 98.506 165.434 101.181C162.845 103.856 159.511 105.4 155.276 105.529C151.041 105.658 143.473 108.089 143.344 114.512C143.344 114.512 127.262 129.588 155.92 145.022C154.189 144.006 148.494 140.173 149.367 133.636V133.593Z" fill="#181670"/>
<path d="M159.125 157.966C159.125 157.966 154.575 160.856 155.334 170.668C156.106 180.481 158.839 189.52 157.179 198.575C155.52 207.629 152.286 218.4 157.179 221.475C157.179 221.475 153.774 226.481 165.435 225.709C177.081 224.936 195.566 223.406 197.684 219.744C199.801 216.082 195.952 196.844 194.407 188.963C192.862 181.067 185.808 161.957 171.057 155.549C171.057 155.549 164.447 155.292 159.125 157.981V157.966Z" fill="#B5A7E9"/>
<path d="M157.193 221.461C158.967 221.689 160.698 221.861 162.43 221.861C163.302 221.89 164.161 221.832 165.033 221.775C165.906 221.732 166.765 221.561 167.652 221.446C166.049 222.262 164.218 222.591 162.415 222.562C160.612 222.533 158.81 222.204 157.179 221.446L157.193 221.461Z" fill="#3C46B5"/>
<path d="M157.622 189.606C157.25 183.484 155.863 177.248 155.348 170.654C154.976 165.905 155.848 162.787 156.85 160.827C156.85 160.827 136.29 181.239 133.786 184.328C131.282 187.418 120.895 212.421 122.04 216.655C123.199 220.889 132.627 222.805 134.745 221.461C136.862 220.116 139.366 210.69 141.097 207.601C142.829 204.525 143.987 205.097 144.946 202.022C144.946 202.022 147.636 201.836 148.022 199.905C148.022 199.905 153.359 193.168 157.608 189.606H157.622Z" fill="#A190DF"/>
<path d="M144.946 202.036C144.302 202.093 143.73 201.893 143.201 201.593C142.943 201.421 142.7 201.235 142.514 200.978C142.328 200.735 142.156 200.434 142.156 200.105C142.671 200.463 143.101 200.692 143.587 200.978C144.045 201.278 144.517 201.564 144.96 202.022L144.946 202.036Z" fill="#3C46B5"/>
<path d="M157.986 164.798C157.986 164.798 158.981 179.827 167.427 197.964C175.872 216.1 189.449 213.821 197.676 214.696C205.889 215.577 213.286 215.95 215.829 215.572C218.367 215.181 220.997 206.686 219.404 203.178C217.811 199.669 192.784 197.797 192.784 197.797C192.784 197.797 190.959 193.549 188.805 194.404C188.805 194.404 184.365 189.809 181.848 176.877C179.331 163.945 178.738 162.41 178.738 162.41C178.738 162.41 174.42 151.378 163.059 157.689C158.925 160.3 158.018 164.8 158.018 164.8L157.986 164.798Z" fill="#D1C9F4"/>
<path d="M188.787 194.396C189.158 195.68 189.152 197.022 188.962 198.328C188.741 199.632 188.289 200.935 187.45 201.961C187.608 201.313 187.782 200.705 187.919 200.081C188.038 199.449 188.18 198.839 188.272 198.217C188.482 196.964 188.616 195.71 188.8 194.39L188.787 194.396Z" fill="#3C46B5"/>
<path d="M240.023 185.155L239.048 187.563L234.716 182.221L235.691 179.813L240.023 185.155Z" fill="#4292F3"/>
<path d="M241.005 182.734L240.03 185.141L235.698 179.799L236.673 177.392L241.005 182.734Z" fill="white"/>
<path d="M241.977 180.333L241.001 182.74L236.669 177.398L237.645 174.991L241.977 180.333Z" fill="#4292F3"/>
<path d="M242.939 177.958L241.963 180.366L237.631 175.024L238.606 172.616L242.939 177.958Z" fill="white"/>
<path d="M243.911 175.558L242.936 177.965L238.604 172.623L239.579 170.216L243.911 175.558Z" fill="#4292F3"/>
<path d="M250.301 177.362L251.276 174.954L244.448 175.775L243.473 178.183L250.301 177.362Z" fill="#4292F3"/>
<path d="M249.32 179.784L250.295 177.376L243.466 178.197L242.491 180.605L249.32 179.784Z" fill="white"/>
<path d="M248.348 182.184L249.324 179.777L242.495 180.598L241.52 183.005L248.348 182.184Z" fill="#4292F3"/>
<path d="M247.386 184.559L248.362 182.151L241.533 182.972L240.558 185.38L247.386 184.559Z" fill="white"/>
<path d="M246.413 186.96L247.389 184.552L240.56 185.373L239.585 187.781L246.413 186.96Z" fill="#4292F3"/>
<path d="M243.449 175.333L217.374 239.706L218.871 240.312L244.946 175.94L243.449 175.333Z" fill="#152E60"/>
<path d="M192.766 197.788C192.937 198.336 192.933 198.907 192.865 199.473C192.81 200.033 192.647 200.591 192.428 201.124C191.966 202.17 191.262 203.111 190.323 203.73C190.851 202.735 191.366 201.823 191.778 200.844C192.195 199.878 192.524 198.885 192.766 197.788Z" fill="#3C46B5"/>
<path d="M231.457 215.049C232.434 214.138 231.962 212.678 233.256 211.749C234.549 210.82 234.578 208.838 234.578 208.838C234.578 208.838 237.827 208.688 240.123 208.192C242.419 207.696 242.944 206.964 242.485 205.807C242.026 204.65 233.863 204.673 232.482 204.606C231.114 204.533 229.072 203.573 227.481 203.481C225.89 203.389 219.822 204.967 219.822 204.967C220.12 207.927 218.969 212.124 217.471 214.243C217.471 214.243 224.483 217.602 227.075 217.619C229.663 217.624 230.453 215.971 231.443 215.054L231.457 215.049Z" fill="#FFB7D6"/>
<path d="M131.64 221.847C129.107 221.646 125.817 220.674 123.785 219.043C123.785 219.043 121.024 221.461 120.766 223.649C120.509 225.823 121.281 228.269 121.024 230.572C120.766 232.875 120.537 234.734 118.878 235.507C117.204 236.279 115.158 236.408 116.188 238.968C117.218 241.529 123.442 238.325 124.844 237.423C126.26 236.522 127.949 232.875 127.949 232.875C127.949 232.875 128.85 234.92 130.123 234.291C131.411 233.647 131.54 231.473 131.926 229.156C132.312 226.853 131.654 221.847 131.654 221.847H131.64Z" fill="#FFB7D6"/>
<path d="M188.395 255.998L166.076 233.355C163.625 230.869 160.112 229.738 156.671 230.327L136.689 233.75L134.601 240.235L156.474 237.17C158.603 236.872 160.762 237.457 162.448 238.789L187.446 258.539C188.714 258.44 189.288 256.904 188.395 255.998Z" fill="#FF4D33"/>
<path d="M62.7642 215.533L94.1024 210.173C97.544 209.585 101.056 210.716 103.506 213.204L117.734 227.645L115.645 234.13L99.6726 218.874C98.118 217.389 96.024 216.605 93.8764 216.703L62.0515 218.15C61.0797 217.33 61.5103 215.748 62.7642 215.533Z" fill="#FF4D33"/>
<path d="M134.563 240.348L136.693 233.733L117.739 227.627L115.608 234.242L134.563 240.348Z" fill="#2A437D"/>
<path d="M128.431 235.529C127.56 234.767 127.615 229.314 127.751 226.683L129.656 225.186C130.337 225.639 131.698 227.309 131.698 230.357C131.698 234.168 129.52 236.482 128.431 235.529Z" fill="#FFB7D6"/>
<path d="M187.446 258.539C147.201 245.843 102.141 231.332 62.0527 218.151C102.298 230.844 147.357 245.36 187.446 258.539Z" fill="#324D90"/>
<path d="M165.434 225.695C161.428 225.952 159.21 225.537 158.008 224.88L157.608 225.766C157.608 225.766 152.443 253.015 151.284 269.178C150.125 285.341 148.394 285.728 142.141 295.726C135.889 305.738 127.033 322.66 119.722 345.76C119.722 345.76 122.397 353.456 132.026 351.911C132.026 351.911 159.754 308.428 167.637 299.187C174.505 291.149 188.783 236.48 192.389 222.362C185.55 224.193 173.746 225.137 165.42 225.681L165.434 225.695Z" fill="#3A376B"/>
<path d="M218.043 282.094C218.043 273.998 203.549 242.216 193.878 221.933C193.305 222.119 192.676 222.305 192.003 222.462C192.132 222.434 192.275 222.391 192.418 222.362C190.616 229.414 186.152 246.564 181.287 262.985C182.947 265.473 184.578 267.819 186.109 269.879C195.738 282.924 194.665 284.34 196.41 296.012C198.156 307.684 202.419 326.307 211.862 348.607C211.862 348.607 218.901 352.712 225.225 345.288C225.225 345.288 218.043 294.224 218.043 282.08V282.094Z" fill="#2D2D54"/>
<path d="M121.11 348.149L116.002 353.842C116.002 353.842 115.344 363.068 127.434 369.132C128.736 369.79 130.195 368.546 129.78 367.144C129.051 364.712 128.221 361.523 128.078 359.377C127.82 355.487 128.078 352.011 128.078 352.011C128.078 352.011 123.528 351.41 121.11 348.12V348.149Z" fill="#B5A7E9"/>
<path d="M236.07 352.997C233.68 352.139 230.604 350.938 228.802 349.779C226.899 348.563 225.225 347.319 224.137 346.461C221.162 349.336 218.128 349.894 215.811 349.722L217.184 356.216C217.184 356.216 224.238 362.195 236.284 356.044C237.586 355.386 237.443 353.47 236.07 352.983V352.997Z" fill="#B5A7E9"/>
<path d="M127.342 233.026C127.9 231.997 128.029 230.952 128.058 229.923C128.043 228.878 127.915 227.848 127.342 226.819C127.342 226.819 127.664 228.893 127.649 229.923C127.678 230.952 127.342 233.026 127.342 233.026Z" fill="#FF7EA0"/>
<path d="M261.555 311.122L260.843 313.62L255.965 308.771L256.677 306.273L261.555 311.122Z" fill="#4292F3"/>
<path d="M262.272 308.609L261.56 311.106L256.682 306.258L257.394 303.76L262.272 308.609Z" fill="white"/>
<path d="M262.982 306.118L262.27 308.616L257.392 303.767L258.104 301.269L262.982 306.118Z" fill="#4292F3"/>
<path d="M263.685 303.654L262.973 306.152L258.095 301.303L258.807 298.806L263.685 303.654Z" fill="white"/>
<path d="M264.395 301.164L263.683 303.662L258.805 298.813L259.517 296.315L264.395 301.164Z" fill="#4292F3"/>
<path d="M270.941 302.275L271.653 299.777L264.952 301.323L264.239 303.821L270.941 302.275Z" fill="#4292F3"/>
<path d="M270.224 304.787L270.937 302.29L264.235 303.835L263.522 306.333L270.224 304.787Z" fill="white"/>
<path d="M269.514 307.278L270.227 304.78L263.525 306.326L262.812 308.824L269.514 307.278Z" fill="#4292F3"/>
<path d="M268.812 309.742L269.525 307.244L262.823 308.79L262.11 311.288L268.812 309.742Z" fill="white"/>
<path d="M268.101 312.233L268.814 309.735L262.112 311.28L261.399 313.778L268.101 312.233Z" fill="#4292F3"/>
<path d="M265.459 301.436L246.539 367.769L244.856 367.781L263.905 300.992L265.459 301.436Z" fill="#152E60"/>
<path d="M253.267 283.393L253.445 280.802C244.967 284.533 248.731 284.774 240.853 279.941L240.676 282.533L240.502 285.081L240.325 287.665L240.148 290.256L245.431 293.663L245.43 293.679L240.147 290.272L239.97 292.864L245.252 296.27L241.38 367.769L242.958 367.77L246.864 296.38L252.561 293.724L252.739 291.132L252.915 288.548L253.09 285.992L253.266 283.408L247.569 286.065L247.57 286.049L253.267 283.393Z" fill="#152E60"/>
<path d="M372.599 0H315.442C308.954 0 303.699 5.25805 303.699 11.7503V49.664C303.699 56.1563 308.954 61.4144 315.442 61.4144H335.049L344.021 72.7082L351.379 61.4144H372.599C379.087 61.4144 384.342 56.1563 384.342 49.664V11.7503C384.342 5.25805 379.087 0 372.599 0Z" fill="#F94B6A"/>
<path d="M365.698 26.4423C365.698 20.3558 360.764 15.4189 354.682 15.4189C349.791 15.4189 345.651 18.6144 344.215 23.0271C342.779 18.6144 338.64 15.4189 333.748 15.4189C327.666 15.4189 322.732 20.3558 322.732 26.4423C322.732 27.9892 323.053 29.4601 323.628 30.8042C323.628 30.8042 323.628 30.8042 323.628 30.8127C327.404 44.3382 344.756 50.1288 344.756 50.1288C356.946 45.7753 362.091 37.4571 364.228 31.937C365.157 30.3224 365.698 28.4542 365.698 26.4507V26.4423Z" fill="white"/>
<path d="M35.1192 287.195C54.515 287.195 70.2384 271.461 70.2384 252.053C70.2384 232.644 54.515 216.91 35.1192 216.91C15.7234 216.91 0 232.644 0 252.053C0 271.461 15.7234 287.195 35.1192 287.195Z" fill="#F94B6A"/>
<path d="M37.6827 267.799V272.721H33.285V267.924C28.9289 267.653 24.7605 266.297 22.3428 264.399L24.7605 259.039C26.9489 260.666 30.1169 261.855 33.285 262.168V254.826C28.4079 253.637 22.9472 252.011 22.9472 245.712C22.9472 241.04 26.3236 237.036 33.285 236.243V231.363H37.6827V236.16C40.9758 236.431 44.1855 237.307 46.6032 238.85L44.3939 244.273C42.1429 243.001 39.8711 242.25 37.6618 241.979V249.466C42.5389 250.613 47.9162 252.24 47.9162 258.434C47.9162 263.002 44.5815 266.965 37.6618 267.799H37.6827ZM33.285 248.34V242.083C30.9506 242.605 30.0336 243.898 30.0336 245.337C30.0336 246.88 31.3466 247.714 33.285 248.319V248.34ZM40.8507 258.956C40.8507 257.412 39.5793 256.578 37.6827 255.911V261.98C39.8711 261.5 40.8507 260.353 40.8507 258.935V258.956Z" fill="white"/>
<path d="M719.88 130.328C735.41 130.328 748 117.73 748 102.189C748 86.6485 735.41 74.0502 719.88 74.0502C704.35 74.0502 691.76 86.6485 691.76 102.189C691.76 117.73 704.35 130.328 719.88 130.328Z" fill="#634AFF"/>
<path d="M721.933 114.798V118.739H718.412V114.898C714.924 114.681 711.586 113.595 709.65 112.076L711.586 107.784C713.339 109.086 715.875 110.038 718.412 110.289V104.41C714.507 103.458 710.134 102.156 710.134 97.1125C710.134 93.3718 712.855 90.1654 718.412 89.5308V85.623H721.933V89.464C724.57 89.6811 727.14 90.3825 729.076 91.6183L727.307 95.9602C725.505 94.9415 723.686 94.3403 721.917 94.1232V100.118C725.822 101.037 730.127 102.34 730.127 107.299C730.127 110.957 727.457 114.13 721.917 114.798H721.933ZM718.412 99.2167V94.2067C716.543 94.6242 715.808 95.6596 715.808 96.8119C715.808 98.0477 716.86 98.7157 718.412 99.2V99.2167ZM724.47 107.717C724.47 106.481 723.452 105.813 721.933 105.279V110.138C723.686 109.754 724.47 108.836 724.47 107.7V107.717Z" fill="white"/>
<defs>
<linearGradient id="paint0_linear_441_2864" x1="401.659" y1="263.209" x2="599.034" y2="263.209" gradientUnits="userSpaceOnUse">
<stop stop-color="#9942FF"/>
<stop offset="1" stop-color="#4D6DFF"/>
</linearGradient>
<linearGradient id="paint1_linear_441_2864" x1="609.463" y1="213.351" x2="663.94" y2="213.351" gradientUnits="userSpaceOnUse">
<stop stop-color="#9942FF"/>
<stop offset="1" stop-color="#4D6DFF"/>
</linearGradient>
<linearGradient id="paint2_linear_441_2864" x1="528.669" y1="332.097" x2="663.941" y2="332.097" gradientUnits="userSpaceOnUse">
<stop stop-color="#9942FF"/>
<stop offset="1" stop-color="#4D6DFF"/>
</linearGradient>
<linearGradient id="paint3_linear_441_2864" x1="691.612" y1="303.362" x2="725.628" y2="303.362" gradientUnits="userSpaceOnUse">
<stop stop-color="#9942FF"/>
<stop offset="1" stop-color="#4D6DFF"/>
</linearGradient>
<linearGradient id="paint4_linear_441_2864" x1="580.276" y1="96.8336" x2="647.955" y2="96.8336" gradientUnits="userSpaceOnUse">
<stop stop-color="#FB9004"/>
<stop offset="1" stop-color="#FC067D"/>
</linearGradient>
<linearGradient id="paint5_linear_441_2864" x1="595.152" y1="96.8335" x2="633.077" y2="96.8335" gradientUnits="userSpaceOnUse">
<stop stop-color="#FB9004"/>
<stop offset="1" stop-color="#FC067D"/>
</linearGradient>
</defs>
</svg>
