<svg width="38" height="45" viewBox="0 0 38 45" fill="none" xmlns="http://www.w3.org/2000/svg">
<path d="M17.6924 42.5715C9.68006 38.5403 4.06029 21.8557 2.25195 14.0173V35.8528C2.25195 39.2121 5.17312 42.1515 6.84236 42.5715C8.17775 42.9074 14.6321 42.7114 17.6924 42.5715Z" fill="#DDDFE8"/>
<path d="M15.6333 38.377C14.6919 38.377 13.9287 37.609 13.9287 36.6617C13.9287 35.7143 14.6919 34.9464 15.6333 34.9464C16.5748 34.9464 17.338 35.7143 17.338 36.6617C17.338 37.609 16.5748 38.377 15.6333 38.377Z" fill="white"/>
<path d="M21.3687 31.0872C22.1426 31.0872 22.9073 30.5739 23.1173 29.8309L26.9889 16.1259C27.2997 15.026 26.4711 13.9344 25.3257 13.9344C24.5518 13.9344 23.8723 14.4476 23.6624 15.1907L19.7907 28.8956C19.48 29.9956 20.2233 31.0872 21.3687 31.0872Z" fill="white"/>
<path fill-rule="evenodd" clip-rule="evenodd" d="M7.36587 41.2403C5.37875 41.2403 3.75195 39.6168 3.75195 37.5945V7.40559C3.75195 5.38326 5.37875 3.75977 7.36587 3.75977H23.9009C25.888 3.75977 27.5148 5.38326 27.5148 7.40559V10.0747C27.5148 10.9032 28.1864 11.5747 29.0148 11.5747C29.8432 11.5747 30.5148 10.9032 30.5148 10.0747V7.40559C30.5148 3.74402 27.5624 0.759766 23.9009 0.759766H7.36587C3.70433 0.759766 0.751953 3.74402 0.751953 7.40559V37.5945C0.751953 41.256 3.70433 44.2403 7.36587 44.2403H23.9009C27.5624 44.2403 30.5148 41.256 30.5148 37.5945V34.3459C30.5148 33.5175 29.8432 32.8459 29.0148 32.8459C28.1864 32.8459 27.5148 33.5175 27.5148 34.3459V37.5945C27.5148 39.6168 25.888 41.2403 23.9009 41.2403H7.36587ZM15.6334 38.3769C14.6919 38.3769 13.9287 37.609 13.9287 36.6616C13.9287 35.7143 14.6919 34.9464 15.6334 34.9464C16.5748 34.9464 17.338 35.7143 17.338 36.6616C17.338 37.609 16.5748 38.3769 15.6334 38.3769ZM13.9287 9.85945C13.1003 9.85945 12.4287 9.18788 12.4287 8.35945C12.4287 7.53103 13.1003 6.85945 13.9287 6.85945H17.338C18.1664 6.85945 18.838 7.53103 18.838 8.35945C18.838 9.18788 18.1664 9.85945 17.338 9.85945H13.9287Z" fill="url(#paint0_linear_218_705)"/>
<path fill-rule="evenodd" clip-rule="evenodd" d="M21.3682 31.0871C22.1421 31.0871 22.9068 30.5739 23.1167 29.8308L26.9884 16.1258C27.2991 15.0259 26.4706 13.9343 25.3252 13.9343C24.5512 13.9343 23.8718 14.4475 23.6618 15.1906L19.7901 28.8956C19.4794 29.9955 20.2227 31.0871 21.3682 31.0871ZM16.7797 28.881C17.3139 28.2478 17.2336 27.3015 16.6004 26.7673L12.3838 23.2098C12.0114 22.8888 12.0114 22.304 12.3838 21.9829L16.6004 18.4255C17.2336 17.8913 17.3139 16.945 16.7797 16.3118C16.2455 15.6786 15.2991 15.5983 14.6659 16.1325L10.4447 19.6938L10.4375 19.6999L10.4375 19.7C8.66016 21.2188 8.66016 23.974 10.4375 25.4928L10.4447 25.499L10.4447 25.499L14.6659 29.0602C15.2991 29.5944 16.2455 29.5142 16.7797 28.881ZM31.7832 29.0504C31.1554 29.591 30.2083 29.5203 29.6677 28.8925C29.1272 28.2647 29.1979 27.3176 29.8257 26.7771L33.9616 23.2158L33.9659 23.2122C34.3419 22.8909 34.3419 22.3019 33.9659 21.9806L33.9616 21.977L29.8257 18.4157C29.1979 17.8752 29.1272 16.9281 29.6677 16.3003C30.2083 15.6725 31.1554 15.6018 31.7832 16.1423L35.9149 19.7L35.9174 19.7021C37.6914 21.2207 37.6914 23.9722 35.9173 25.4908L31.7832 29.0504Z" fill="url(#paint1_linear_218_705)"/>
<defs>
<linearGradient id="paint0_linear_218_705" x1="0.751953" y1="22.5" x2="30.5148" y2="22.5" gradientUnits="userSpaceOnUse">
<stop stop-color="#9942FF"/>
<stop offset="1" stop-color="#FC067D"/>
</linearGradient>
<linearGradient id="paint1_linear_218_705" x1="9.10449" y1="22.5107" x2="37.2479" y2="22.5107" gradientUnits="userSpaceOnUse">
<stop stop-color="#FB9004"/>
<stop offset="1" stop-color="#FC067D"/>
</linearGradient>
</defs>
</svg>
