<svg width="111" height="32" viewBox="0 0 111 32" fill="none" xmlns="http://www.w3.org/2000/svg">
<path d="M94.6816 29.1324C96.2262 29.2821 97.7701 29.443 99.3103 29.6093L102.711 21.2125L105.943 30.3839C107.602 30.5916 109.26 30.8098 110.912 31.0375L105.245 14.9548L110.914 0.956187H106.113L106.063 1.02495L103.001 8.58734L100.312 0.957296H95.5718L100.466 14.8454L94.6819 29.1324H94.6816ZM91.0965 28.8034V0.956187H86.3579V28.4126C87.9384 28.5346 89.5197 28.6658 91.0965 28.8034ZM55.501 27.2462C56.7802 27.2462 58.0579 27.2558 59.3334 27.2661V17.0355H65.0258V12.6789H59.3337V5.31801H65.8898V0.956187H54.5767V27.2499C54.8839 27.2499 55.1926 27.245 55.501 27.2462ZM40.7888 27.5123C42.3674 27.4561 43.9476 27.4088 45.5299 27.3704V5.31875H49.959V0.957296H36.3597V5.31875H40.7895V27.5123H40.7888ZM4.54849 30.4486V13.8579L10.1592 29.7787C11.8846 29.5849 13.6126 29.4027 15.3455 29.2304V0.956557H10.7988V18.1417L4.74444 0.956557H0.00292969V31.0449H0.0313972C1.53352 30.8371 3.04082 30.6397 4.54849 30.4486ZM31.7905 5.31764V0.956557H20.4763V28.759C24.2406 28.4341 28.0093 28.1615 31.7812 27.9416V23.5764C29.594 23.7036 27.4113 23.85 25.2337 24.0131V17.0374H30.9261V12.6782H25.2337V5.31764H31.7905ZM75.2807 23.3679V0.955078H70.5215V27.5282C74.3073 27.6672 78.0783 27.861 81.8368 28.105V23.7372C79.6555 23.5964 77.4705 23.4744 75.2807 23.3679Z" fill="#5D616A"/>
</svg>
