<svg width="39" height="39" viewBox="0 0 39 39" fill="none" xmlns="http://www.w3.org/2000/svg">
<g clip-path="url(#clip0_613_799)">
<path d="M25.5354 19.0357C23.6783 29.8071 12.9997 34.3571 7.89258 35.2857L24.1426 36.6786L25.9997 34.8214L25.5354 19.0357Z" fill="#DDDFE8"/>
<path d="M23.7937 1.60278H3.57248C1.61391 1.60278 0.0204674 3.19615 0.0204674 5.15472C0.0204674 31.0691 -0.130814 29.4742 0.389202 29.9942C7.95996 37.5649 7.47995 37.1253 7.74471 37.2562C8.12335 37.4462 7.08724 37.3892 23.7936 37.3892C25.7522 37.3892 27.3456 35.7958 27.3456 33.8372V5.15472C27.3457 3.19615 25.7522 1.60278 23.7937 1.60278ZM7.04771 33.0962L4.31356 30.3621H7.04771V33.0962ZM24.8309 33.8372C24.8309 34.4091 24.3656 34.8744 23.7937 34.8744H9.56252V29.1046C9.56252 28.4101 8.99952 27.8472 8.30512 27.8472H2.53528V5.15472C2.53528 4.58283 3.00052 4.11759 3.57248 4.11759H23.7937C24.3656 4.11759 24.8309 4.58283 24.8309 5.15472V33.8372Z" fill="url(#paint0_linear_613_799)"/>
<path d="M33.1727 33.8373V5.15472C33.1727 3.19615 31.5793 1.60278 29.6207 1.60278C28.9263 1.60278 28.3633 2.16571 28.3633 2.86019C28.3633 3.55467 28.9263 4.11759 29.6207 4.11759C30.1926 4.11759 30.6579 4.58283 30.6579 5.15472V33.8373C30.6579 34.4092 30.1926 34.8744 29.6207 34.8744C28.9263 34.8744 28.3633 35.4374 28.3633 36.1318C28.3633 36.8263 28.9263 37.3892 29.6207 37.3892C31.5793 37.3892 33.1727 35.7959 33.1727 33.8373Z" fill="url(#paint1_linear_613_799)"/>
<path d="M38.9998 33.8373V5.15472C38.9998 3.19615 37.4065 1.60278 35.4478 1.60278C34.7534 1.60278 34.1904 2.16571 34.1904 2.86019C34.1904 3.55467 34.7534 4.11759 35.4478 4.11759C36.0198 4.11759 36.485 4.58283 36.485 5.15472V33.8373C36.485 34.4092 36.0197 34.8744 35.4478 34.8744C34.7534 34.8744 34.1904 35.4374 34.1904 36.1318C34.1904 36.8263 34.7534 37.3892 35.4478 37.3892C37.4065 37.3892 38.9998 35.7959 38.9998 33.8373Z" fill="url(#paint2_linear_613_799)"/>
</g>
<defs>
<linearGradient id="paint0_linear_613_799" x1="0" y1="19.5" x2="27.3456" y2="19.5" gradientUnits="userSpaceOnUse">
<stop stop-color="#9942FF"/>
<stop offset="1" stop-color="#FC067D"/>
</linearGradient>
<linearGradient id="paint1_linear_613_799" x1="28.3633" y1="19.496" x2="38.9998" y2="19.496" gradientUnits="userSpaceOnUse">
<stop stop-color="#FB9004"/>
<stop offset="1" stop-color="#FC067D"/>
</linearGradient>
<linearGradient id="paint2_linear_613_799" x1="28.3633" y1="19.496" x2="38.9998" y2="19.496" gradientUnits="userSpaceOnUse">
<stop stop-color="#FB9004"/>
<stop offset="1" stop-color="#FC067D"/>
</linearGradient>
<clipPath id="clip0_613_799">
<rect width="39" height="39" fill="white"/>
</clipPath>
</defs>
</svg>
