<svg width="51" height="55" viewBox="0 0 51 55" fill="none" xmlns="http://www.w3.org/2000/svg">
<path d="M30.5 34.5L39.5 23L49.5 34.5H45V53.5L35 54V35L30.5 34.5Z" fill="#DDDFE8"/>
<path d="M50.1569 33.7197L40.7591 21.9712C40.3023 21.4021 39.3458 21.4021 38.8891 21.9712L29.3239 33.9277C29.0369 34.2864 28.9819 34.7791 29.1804 35.1927C29.3813 35.6064 29.7997 35.8694 30.2588 35.8694H33.8458V53.8042C33.8458 54.4642 34.3815 54.9999 35.0415 54.9999H44.6067C45.2667 54.9999 45.8023 54.4642 45.8023 53.8042V35.8695H49.3893C49.3965 35.8695 49.406 35.8695 49.4132 35.8695C50.1114 35.9077 50.6351 35.3435 50.6327 34.6738C50.6329 34.2841 50.4463 33.9374 50.1569 33.7197ZM44.6068 33.4783C43.9468 33.4783 43.4111 34.0139 43.4111 34.6739V52.6087H36.2372V34.6739C36.2372 34.0139 35.7015 33.4783 35.0415 33.4783H32.7482L39.824 24.6305L46.8998 33.4783H44.6068Z" fill="url(#paint0_linear_613_827)"/>
<path fill-rule="evenodd" clip-rule="evenodd" d="M2.75845 52.6086H30.2585C30.9185 52.6086 31.4541 53.1443 31.4542 53.8043C31.4542 54.4643 30.9185 55 30.2585 55H1.56288C0.902877 55 0.367188 54.4643 0.367188 53.8043V13.1521C0.367188 12.9919 0.400703 12.8365 0.460448 12.693C0.520193 12.5472 0.608746 12.4156 0.718709 12.3056L12.6728 0.351521C12.7828 0.241559 12.9144 0.153006 13.0602 0.0932608C13.2037 0.0335156 13.3591 0 13.5193 0H39.8237C40.4837 0 41.0194 0.535689 41.0194 1.19569V17.9348C41.0194 18.5948 40.4837 19.1305 39.8237 19.1305C39.1637 19.1305 38.628 18.5948 38.628 17.9348V2.39127H14.715V13.1521C14.715 13.8121 14.1793 14.3478 13.5193 14.3478H2.75845V52.6086ZM12.3237 11.9566V4.08195L4.44914 11.9566H12.3237ZM33.8454 22.7174C33.8454 22.0574 33.3097 21.5217 32.6497 21.5217H8.7367C8.0767 21.5217 7.54102 22.0574 7.54102 22.7174C7.54102 23.3774 8.0767 23.9131 8.7367 23.9131H32.6497C33.3097 23.913 33.8454 23.3774 33.8454 22.7174ZM27.9603 28.6956C28.6203 28.6956 29.156 29.2313 29.156 29.8913C29.156 30.5513 28.6203 31.0869 27.9604 31.087H8.7367C8.0767 31.087 7.54102 30.5513 7.54102 29.8913C7.54102 29.2313 8.0767 28.6956 8.7367 28.6956H27.9603ZM8.7367 35.8695C8.0767 35.8695 7.54102 36.4052 7.54102 37.0652C7.54102 37.7252 8.0767 38.2609 8.7367 38.2609H25.4758C26.1358 38.2609 26.6715 37.7252 26.6715 37.0652C26.6715 36.4052 26.1358 35.8695 25.4758 35.8695H8.7367ZM30.2584 43.0435H8.7367C8.0767 43.0435 7.54102 43.5791 7.54102 44.2391C7.54102 44.8991 8.0767 45.4348 8.7367 45.4348H30.2584C30.9184 45.4348 31.4541 44.8991 31.4541 44.2391C31.454 43.5791 30.9184 43.0435 30.2584 43.0435Z" fill="url(#paint1_linear_613_827)"/>
<defs>
<linearGradient id="paint0_linear_613_827" x1="29.0625" y1="38.2721" x2="50.6327" y2="38.2721" gradientUnits="userSpaceOnUse">
<stop stop-color="#FB9004"/>
<stop offset="1" stop-color="#FC067D"/>
</linearGradient>
<linearGradient id="paint1_linear_613_827" x1="0.367188" y1="27.5" x2="41.0194" y2="27.5" gradientUnits="userSpaceOnUse">
<stop stop-color="#9942FF"/>
<stop offset="1" stop-color="#FC067D"/>
</linearGradient>
</defs>
</svg>
