<svg width="32" height="32" viewBox="0 0 32 32" fill="none" xmlns="http://www.w3.org/2000/svg">
<g clip-path="url(#clip0_474_778)">
<path d="M16 32C7.17706 32 0 24.8229 0 16C0 7.17706 7.17706 0 16 0C24.8229 0 32 7.17831 32 16C32 24.8217 24.8229 32 16 32ZM16 2.47869C8.54531 2.47869 2.47869 8.54406 2.47869 16C2.47869 23.4559 8.54531 29.5213 16 29.5213C23.4547 29.5213 29.5213 23.4559 29.5213 16C29.5213 8.54406 23.4559 2.47869 16 2.47869Z" fill="#AEA3C6"/>
<path d="M22.1954 17.3509H17.238V22.3082C17.238 22.9924 16.684 23.5476 15.9986 23.5476C15.3132 23.5476 14.7592 22.9924 14.7592 22.3082V17.3509H9.80187C9.1165 17.3509 8.5625 16.7956 8.5625 16.1115C8.5625 15.4274 9.1165 14.8721 9.80187 14.8721H14.7592V9.91473C14.7592 9.23061 15.3132 8.67536 15.9986 8.67536C16.684 8.67536 17.238 9.23061 17.238 9.91473V14.8721H22.1954C22.8807 14.8721 23.4347 15.4274 23.4347 16.1115C23.4347 16.7956 22.8807 17.3509 22.1954 17.3509Z" fill="#AEA3C6"/>
</g>
<defs>
<clipPath id="clip0_474_778">
<rect width="32" height="32" fill="white" transform="matrix(1 0 0 -1 0 32)"/>
</clipPath>
</defs>
</svg>
