<svg width="1245" height="815" viewBox="0 0 1245 815" fill="none" xmlns="http://www.w3.org/2000/svg">
<path opacity="0.16" d="M61.8762 795.306C61.8762 795.306 -34.7077 694.139 13.5842 541.345C61.8762 388.552 258.12 330.075 284.839 278.17C311.556 226.264 317.429 106.089 403.417 43.4337C504.286 -30.0643 649.799 -4.58097 717.414 88.6278C785.029 181.837 846.008 299.329 932.753 309.019C1019.5 318.707 1105.8 309.134 1175.67 443.854C1245.54 578.573 1158.21 764.485 1131.49 796.327" fill="#B5A7E9"/>
<path d="M1008.37 201.196C1008.29 200.457 1008.11 199.779 1007.84 199.121C1007.82 199.101 1007.82 199.101 1007.82 199.101C1007.63 198.669 1007.43 198.279 1007.2 197.909C1006.96 197.519 1006.67 197.17 1006.34 196.841C1006.17 196.677 1006.03 196.512 1005.87 196.369C1005.7 196.204 1005.54 196.061 1005.35 195.937C1005.33 195.937 1005.33 195.937 1005.33 195.937C1005.11 195.773 1004.86 195.609 1004.61 195.465C1004.06 195.116 1003.46 194.869 1002.85 194.725C1002.64 194.664 1002.43 194.623 1002.21 194.581C1001.41 194.438 1000.58 194.417 999.742 194.54L999.578 194.561C999.002 194.643 998.406 194.643 997.851 194.602C996.454 194.479 995.139 193.986 994.029 193.205C993.844 193.082 993.659 192.938 993.495 192.774C993.289 192.609 993.105 192.424 992.94 192.24C992.673 191.952 992.426 191.644 992.221 191.315C992.036 191.007 991.851 190.678 991.687 190.35C991.604 190.165 991.522 189.98 991.46 189.795C991.399 189.631 991.337 189.487 991.276 189.323C990.762 187.905 990.186 186.508 989.529 185.132C989.508 185.111 989.508 185.07 989.488 185.05C989.364 184.803 989.282 184.557 989.2 184.31C988.851 183.283 988.748 182.215 988.871 181.167C988.871 181.167 988.871 181.167 988.871 181.146C988.994 180.304 989.241 179.462 989.611 178.681C989.981 177.901 990.515 177.182 991.173 176.565C991.399 176.36 991.625 176.155 991.872 175.97L992.015 175.867C992.241 175.703 992.447 175.518 992.652 175.333C993.248 174.778 993.741 174.141 994.111 173.463C994.296 173.135 994.44 172.786 994.584 172.436V172.416C994.707 172.067 994.81 171.697 994.892 171.348C995.365 169.232 994.913 166.951 993.454 165.123C991.913 163.172 990.228 161.302 988.44 159.494C986.631 157.687 984.741 156.002 982.789 154.461C980.919 152.962 978.555 152.53 976.397 153.044C976.11 153.126 975.843 153.208 975.576 153.29C974.507 153.66 973.5 154.297 972.678 155.18C972.472 155.386 972.267 155.632 972.082 155.879L971.938 156.043C971.034 157.255 969.822 158.139 968.465 158.632C967.972 158.816 967.458 158.94 966.924 159.022C966.862 159.042 966.78 159.042 966.719 159.042C966.595 159.063 966.451 159.084 966.308 159.063C965.773 159.104 965.26 159.084 964.746 159.001C964.355 158.96 963.965 158.858 963.595 158.714C963.348 158.632 963.102 158.549 962.855 158.426C962.526 158.282 962.218 158.118 961.889 157.995C961.437 157.769 960.965 157.563 960.492 157.378C959.691 157.05 958.91 156.742 958.088 156.454C958.067 156.434 958.047 156.434 958.006 156.413C954.923 155.263 953.053 152.14 953.279 148.894L953.3 148.792L953.382 148.196V148.134C953.937 144.211 951.388 140.574 947.648 139.712C947.381 139.629 947.094 139.588 946.806 139.547C944.319 139.28 941.812 139.136 939.264 139.136C936.695 139.136 934.188 139.28 931.702 139.547C927.633 140.02 924.715 143.697 925.085 147.723C925.105 147.908 925.126 148.093 925.146 148.278C925.208 148.648 925.229 149.018 925.229 149.387C925.229 152.284 923.585 154.975 920.954 156.228C920.749 156.31 920.543 156.392 920.338 156.475C919.557 156.762 918.776 157.07 918.016 157.378C917.379 157.646 916.783 157.913 916.166 158.18C916.022 158.241 915.858 158.323 915.714 158.385C912.488 159.905 908.645 158.837 906.528 155.982L906.487 155.94C904.103 152.736 899.644 151.935 896.315 154.051C896.089 154.194 895.863 154.359 895.637 154.523C893.726 156.043 891.856 157.707 890.089 159.494C888.301 161.261 886.636 163.13 885.115 165.041C883.492 167.075 883.081 169.663 883.8 171.943C883.985 172.642 884.293 173.32 884.704 173.936C885.033 174.429 885.403 174.881 885.814 175.292C886.04 175.497 886.287 175.703 886.533 175.888L886.574 175.929C889.431 178.045 890.499 181.886 888.979 185.111C888.28 186.631 887.643 188.172 887.068 189.733C886.739 190.678 886.205 191.5 885.568 192.219C885.177 192.609 884.746 192.979 884.293 193.308C883.821 193.616 883.307 193.883 882.793 194.088C882.444 194.232 882.074 194.355 881.704 194.438C880.779 194.643 879.834 194.684 878.868 194.54C878.498 194.479 878.129 194.458 877.759 194.458C877.286 194.458 876.813 194.499 876.361 194.581C873.135 195.157 870.505 197.766 870.135 201.196C869.868 203.641 869.703 206.127 869.703 208.653C869.703 211.159 869.868 213.645 870.135 216.09C870.525 219.52 873.155 222.15 876.361 222.705C877.163 222.848 878.005 222.869 878.868 222.746C879.238 222.684 879.608 222.663 879.978 222.663C881.54 222.663 883.04 223.136 884.293 223.978C884.602 224.204 884.91 224.43 885.177 224.697C885.999 225.457 886.657 226.423 887.068 227.553C887.643 229.114 888.28 230.655 888.979 232.175C890.376 235.112 889.595 238.584 887.273 240.782C887.047 240.988 886.821 241.173 886.574 241.357V241.378L886.533 241.398C886.287 241.583 886.04 241.789 885.814 241.994C885.403 242.405 885.033 242.857 884.704 243.35C884.293 243.966 883.985 244.644 883.8 245.343C883.739 245.569 883.698 245.795 883.656 246.021C883.615 246.247 883.574 246.473 883.554 246.699C883.513 246.945 883.492 247.192 883.492 247.459C883.492 247.479 883.492 247.479 883.492 247.5C883.492 247.582 883.513 247.643 883.513 247.726C883.533 248.075 883.554 248.445 883.615 248.794C883.677 249.143 883.78 249.472 883.882 249.821C883.903 249.862 883.903 249.903 883.903 249.924C883.903 249.965 883.924 250.006 883.944 250.026C883.985 250.15 884.026 250.252 884.067 250.376C884.17 250.622 884.293 250.869 884.417 251.115C884.437 251.156 884.478 251.197 884.499 251.238C884.52 251.28 884.561 251.341 884.581 251.382C884.746 251.69 884.91 251.978 885.115 252.245C886.636 254.156 888.301 256.025 890.089 257.812C891.856 259.579 893.705 261.222 895.637 262.763C897.219 264.037 899.171 264.55 901.042 264.365C901.699 264.304 902.336 264.16 902.953 263.934C904.329 263.461 905.563 262.578 906.508 261.325L907.104 260.627C907.946 259.743 908.953 259.086 910.063 258.675L912.652 258.223C913.7 258.223 914.748 258.449 915.735 258.901C917.235 259.62 918.776 260.257 920.317 260.811C921.817 261.346 923.05 262.352 923.913 263.605C924.222 264.057 924.489 264.571 924.694 265.105C925.167 266.317 925.352 267.673 925.146 269.029V269.07C924.571 273.055 927.181 276.773 931.024 277.595C931.044 277.615 931.065 277.615 931.085 277.615C931.311 277.677 931.558 277.718 931.805 277.739C934.25 278.026 936.736 278.17 939.264 278.17C941.771 278.17 944.237 278.026 946.683 277.759C948.512 277.533 950.114 276.712 951.286 275.458C951.758 274.965 952.169 274.411 952.498 273.815C952.662 273.527 952.806 273.219 952.93 272.891C953.382 271.699 953.567 270.384 953.361 269.029C953.3 268.659 953.279 268.289 953.279 267.919C953.279 264.776 955.17 261.9 958.17 260.811C959.732 260.257 961.252 259.62 962.773 258.921L962.794 258.901C964.91 257.915 967.273 258.038 969.267 259.024C969.781 259.291 970.294 259.62 970.746 259.99C970.993 260.195 971.219 260.401 971.404 260.627C971.63 260.832 971.815 261.058 972 261.304L972.02 261.346C974.425 264.571 978.843 265.351 982.172 263.277C982.419 263.133 982.645 262.968 982.871 262.783C984.782 261.243 986.652 259.579 988.44 257.812C990.207 256.025 991.872 254.156 993.413 252.245C995.036 250.191 995.427 247.602 994.707 245.302C994.605 244.973 994.481 244.644 994.338 244.316C994.194 243.987 994.009 243.658 993.803 243.35C993.474 242.857 993.104 242.405 992.693 241.994C992.467 241.789 992.221 241.583 991.974 241.398L991.933 241.378V241.357C991.687 241.173 991.461 240.988 991.234 240.782C988.912 238.584 988.152 235.112 989.529 232.175C990.248 230.655 990.885 229.114 991.44 227.553C992.652 224.204 996.125 222.232 999.66 222.746C1001.53 223.013 1003.32 222.602 1004.78 221.718C1005.17 221.472 1005.52 221.205 1005.85 220.917C1006.01 220.753 1006.17 220.609 1006.34 220.445C1006.48 220.301 1006.61 220.137 1006.73 219.993C1007.61 218.925 1008.21 217.569 1008.37 216.09C1008.66 213.645 1008.8 211.159 1008.8 208.653C1008.8 206.127 1008.66 203.641 1008.37 201.196ZM975.987 212.413C975.966 212.536 975.945 212.659 975.945 212.782C975.863 213.399 975.781 213.994 975.699 214.59C975.596 215.227 975.493 215.864 975.329 216.501C975.329 216.542 975.308 216.562 975.308 216.583C975.041 217.815 974.713 219.027 974.322 220.219C974.096 220.917 973.829 221.616 973.562 222.314C973.315 222.93 973.048 223.547 972.76 224.143C972.555 224.594 972.329 225.046 972.103 225.478C971.507 226.669 970.829 227.84 970.048 228.97C969.863 229.258 969.657 229.566 969.452 229.853C969.39 229.977 969.287 230.12 969.164 230.244C968.938 230.572 968.691 230.901 968.424 231.23C968.136 231.641 967.808 232.031 967.458 232.421C966.801 233.222 966.102 234.003 965.342 234.722C965.033 235.051 964.705 235.359 964.376 235.667C964.027 235.975 963.677 236.283 963.348 236.571C962.855 236.982 962.362 237.393 961.848 237.803C960.615 238.748 959.321 239.632 957.985 240.433C957.574 240.679 957.142 240.926 956.731 241.152C956.238 241.419 955.745 241.666 955.231 241.912C954.759 242.138 954.286 242.364 953.793 242.569C953.012 242.898 952.21 243.206 951.388 243.494C950.936 243.658 950.484 243.823 950.012 243.946C949.005 244.254 947.998 244.5 946.97 244.726C946.477 244.85 945.963 244.952 945.45 245.014C944.936 245.117 944.422 245.199 943.908 245.24C941.34 245.548 938.73 245.61 936.141 245.404C935.627 245.384 935.113 245.322 934.599 245.24C934.086 245.199 933.572 245.117 933.058 245.014C932.544 244.932 932.031 244.85 931.517 244.726C929.77 244.336 928.023 243.843 926.318 243.206C925.866 243.042 925.414 242.878 924.982 242.672C924.941 242.672 924.879 242.631 924.818 242.61C924.324 242.405 923.831 242.179 923.359 241.953C923.317 241.933 923.256 241.912 923.194 241.871C922.68 241.645 922.167 241.378 921.673 241.09C920.625 240.536 919.619 239.919 918.632 239.241C918.591 239.241 918.571 239.221 918.55 239.2C918.077 238.892 917.625 238.564 917.173 238.214C916.762 237.906 916.351 237.598 915.961 237.269C915.385 236.797 914.851 236.324 914.317 235.831C913.782 235.359 913.269 234.845 912.775 234.332C912.344 233.9 911.933 233.448 911.542 232.996C910.083 231.353 908.809 229.607 907.7 227.779C907.391 227.265 907.083 226.772 906.816 226.238C906.487 225.663 906.179 225.067 905.912 224.451C905.747 224.101 905.583 223.773 905.439 223.424C905.336 223.198 905.234 222.992 905.151 222.746C905.028 222.458 904.905 222.15 904.782 221.842C904.638 221.451 904.494 221.061 904.371 220.65C904.309 220.506 904.247 220.342 904.206 220.178C904.042 219.685 903.877 219.192 903.754 218.678C903.528 217.939 903.343 217.179 903.179 216.418C903.076 215.966 902.994 215.494 902.912 215.042C902.768 214.179 902.644 213.316 902.542 212.433C902.418 211.18 902.357 209.906 902.357 208.653C902.357 208.653 902.357 208.633 902.357 208.592C902.357 207.359 902.418 206.106 902.542 204.873C902.562 204.75 902.562 204.627 902.583 204.504C902.644 203.908 902.727 203.292 902.829 202.696C902.932 202.059 903.035 201.422 903.199 200.785C903.199 200.765 903.199 200.724 903.22 200.703C903.487 199.471 903.816 198.259 904.206 197.067C904.371 196.574 904.556 196.061 904.74 195.568C904.884 195.198 905.028 194.807 905.193 194.438C905.295 194.191 905.398 193.924 905.521 193.678C905.665 193.349 905.809 193.02 905.974 192.692C906.426 191.747 906.898 190.843 907.453 189.939C907.72 189.507 907.967 189.097 908.234 188.665C908.254 188.624 908.275 188.583 908.316 188.542C908.604 188.131 908.871 187.72 909.159 187.33C909.529 186.796 909.919 186.282 910.33 185.769C910.741 185.276 911.152 184.762 911.584 184.29C912.015 183.796 912.447 183.324 912.899 182.852C915.18 180.551 917.748 178.517 920.543 176.853C920.995 176.607 921.447 176.339 921.9 176.093C922.352 175.846 922.824 175.62 923.297 175.394C923.728 175.169 924.181 174.963 924.633 174.778C925.496 174.388 926.359 174.059 927.242 173.772C927.653 173.607 928.064 173.484 928.496 173.361C929.01 173.217 929.503 173.073 930.017 172.929C930.53 172.786 931.024 172.662 931.537 172.58C932.051 172.457 932.544 172.354 933.058 172.293C933.572 172.19 934.086 172.108 934.599 172.067C935.113 172.005 935.627 171.943 936.161 171.902C938.216 171.738 940.292 171.738 942.367 171.902C942.881 171.923 943.395 171.984 943.908 172.067C944.422 172.108 944.936 172.19 945.45 172.293C945.963 172.354 946.477 172.457 946.991 172.58C948.265 172.847 949.518 173.176 950.772 173.607C951.121 173.71 951.45 173.813 951.799 173.936C953.526 174.552 955.211 175.312 956.855 176.216C957.389 176.504 957.903 176.791 958.396 177.1C958.889 177.387 959.382 177.695 959.855 178.024C960.328 178.353 960.8 178.681 961.252 179.031C961.314 179.072 961.396 179.133 961.458 179.174C961.91 179.524 962.362 179.873 962.814 180.243C963.246 180.592 963.677 180.962 964.088 181.352C965.033 182.194 965.897 183.077 966.698 183.981C967.047 184.351 967.356 184.7 967.664 185.091C968.198 185.728 968.712 186.364 969.164 187.042C969.411 187.371 969.637 187.7 969.863 188.028C970.664 189.179 971.363 190.37 971.979 191.603C972.247 192.075 972.493 192.568 972.719 193.061C972.76 193.164 972.801 193.246 972.842 193.328C973.089 193.842 973.315 194.376 973.521 194.91C973.562 194.992 973.582 195.074 973.623 195.157C973.808 195.609 973.973 196.061 974.116 196.533C974.219 196.78 974.301 197.067 974.384 197.334C974.774 198.526 975.103 199.738 975.37 200.95C975.432 201.319 975.514 201.669 975.576 202.038C975.74 202.983 975.884 203.928 975.987 204.873C976.11 206.127 976.171 207.38 976.171 208.653C976.171 209.906 976.11 211.159 975.987 212.413Z" fill="url(#paint0_linear_671_1724)"/>
<path d="M885.251 143.331C885.2 142.869 885.085 142.444 884.916 142.033C884.904 142.021 884.904 142.021 884.904 142.021C884.789 141.752 884.659 141.507 884.518 141.275C884.363 141.03 884.183 140.813 883.977 140.605C883.874 140.503 883.784 140.4 883.681 140.309C883.578 140.207 883.476 140.116 883.361 140.04C883.348 140.04 883.348 140.04 883.348 140.04C883.207 139.938 883.052 139.835 882.898 139.745C882.551 139.527 882.177 139.371 881.793 139.282C881.663 139.243 881.536 139.219 881.394 139.192C880.893 139.102 880.379 139.089 879.851 139.165L879.748 139.178C879.388 139.229 879.014 139.229 878.667 139.204C877.792 139.126 876.97 138.818 876.275 138.329C876.16 138.251 876.043 138.163 875.94 138.058C875.811 137.955 875.696 137.84 875.593 137.723C875.426 137.542 875.272 137.351 875.143 137.144C875.028 136.951 874.911 136.745 874.808 136.54C874.756 136.425 874.705 136.308 874.666 136.193C874.627 136.09 874.588 136 874.551 135.897C874.23 135.009 873.869 134.134 873.458 133.274C873.445 133.261 873.445 133.234 873.431 133.222C873.353 133.068 873.302 132.914 873.25 132.76C873.032 132.117 872.967 131.449 873.045 130.792C873.045 130.792 873.045 130.792 873.045 130.78C873.123 130.252 873.277 129.726 873.507 129.237C873.739 128.748 874.072 128.298 874.485 127.912C874.627 127.782 874.769 127.655 874.923 127.538L875.013 127.474C875.155 127.372 875.283 127.257 875.412 127.139C875.784 126.792 876.094 126.394 876.324 125.969C876.44 125.763 876.53 125.543 876.62 125.326V125.313C876.698 125.095 876.762 124.863 876.813 124.646C877.109 123.321 876.826 121.893 875.913 120.749C874.95 119.526 873.893 118.357 872.775 117.225C871.643 116.094 870.46 115.04 869.239 114.074C868.068 113.135 866.59 112.866 865.238 113.187C865.057 113.238 864.891 113.289 864.724 113.341C864.056 113.573 863.425 113.972 862.91 114.524C862.78 114.654 862.653 114.808 862.538 114.962L862.447 115.064C861.882 115.822 861.122 116.375 860.273 116.685C859.965 116.8 859.642 116.878 859.307 116.93C859.268 116.942 859.217 116.942 859.178 116.942C859.1 116.954 859.011 116.967 858.921 116.954C858.586 116.981 858.265 116.967 857.943 116.915C857.698 116.889 857.454 116.825 857.223 116.735C857.069 116.683 856.915 116.632 856.761 116.554C856.556 116.463 856.362 116.361 856.157 116.285C855.873 116.143 855.577 116.016 855.281 115.898C854.78 115.693 854.291 115.5 853.777 115.319C853.765 115.307 853.753 115.307 853.726 115.294C851.796 114.573 850.625 112.62 850.767 110.588L850.779 110.524L850.83 110.153V110.116C851.178 107.659 849.583 105.385 847.242 104.844C847.076 104.793 846.895 104.766 846.714 104.742C845.159 104.575 843.589 104.485 841.994 104.485C840.385 104.485 838.817 104.575 837.261 104.742C834.715 105.037 832.888 107.338 833.118 109.859C833.131 109.974 833.145 110.091 833.158 110.206C833.197 110.438 833.209 110.668 833.209 110.9C833.209 112.712 832.179 114.397 830.533 115.181C830.404 115.233 830.276 115.284 830.147 115.336C829.658 115.516 829.169 115.709 828.694 115.9C828.295 116.067 827.924 116.235 827.537 116.402C827.447 116.441 827.344 116.492 827.254 116.531C825.234 117.482 822.829 116.815 821.504 115.027L821.479 115.001C819.987 112.996 817.197 112.492 815.113 113.817C814.971 113.908 814.829 114.011 814.689 114.113C813.493 115.064 812.322 116.106 811.217 117.225C810.097 118.331 809.055 119.502 808.103 120.697C807.086 121.971 806.829 123.59 807.279 125.017C807.394 125.455 807.588 125.878 807.844 126.264C808.05 126.572 808.282 126.856 808.539 127.113C808.681 127.242 808.835 127.37 808.989 127.487L809.016 127.511C810.804 128.836 811.473 131.24 810.52 133.259C810.082 134.21 809.684 135.176 809.324 136.152C809.118 136.743 808.784 137.257 808.385 137.707C808.14 137.951 807.871 138.183 807.588 138.389C807.292 138.582 806.971 138.748 806.648 138.878C806.431 138.968 806.198 139.044 805.966 139.095C805.387 139.225 804.795 139.249 804.191 139.159C803.958 139.12 803.728 139.108 803.496 139.108C803.2 139.108 802.904 139.132 802.621 139.186C800.601 139.545 798.955 141.178 798.722 143.327C798.556 144.858 798.453 146.413 798.453 147.994C798.453 149.564 798.556 151.119 798.722 152.649C798.967 154.796 800.613 156.442 802.621 156.789C803.122 156.879 803.65 156.892 804.191 156.816C804.423 156.777 804.653 156.764 804.885 156.764C805.863 156.764 806.802 157.06 807.585 157.588C807.779 157.73 807.972 157.871 808.138 158.038C808.652 158.514 809.065 159.118 809.322 159.825C809.682 160.803 810.08 161.766 810.518 162.717C811.393 164.556 810.904 166.73 809.449 168.106C809.308 168.235 809.166 168.35 809.012 168.465V168.478L808.985 168.49C808.831 168.605 808.677 168.734 808.535 168.864C808.278 169.121 808.046 169.404 807.84 169.712C807.583 170.099 807.39 170.522 807.275 170.959C807.236 171.101 807.211 171.243 807.185 171.385C807.16 171.526 807.133 171.668 807.121 171.81C807.094 171.964 807.082 172.118 807.082 172.286C807.082 172.299 807.082 172.299 807.082 172.311C807.082 172.362 807.094 172.401 807.094 172.453C807.107 172.67 807.121 172.903 807.158 173.12C807.197 173.338 807.261 173.546 807.324 173.763C807.337 173.788 807.337 173.815 807.337 173.827C807.337 173.852 807.349 173.878 807.363 173.891C807.388 173.969 807.415 174.032 807.442 174.108C807.505 174.263 807.583 174.417 807.659 174.571C807.672 174.597 807.698 174.622 807.711 174.649C807.723 174.673 807.75 174.712 807.762 174.739C807.865 174.932 807.968 175.113 808.097 175.279C809.049 176.475 810.09 177.646 811.21 178.763C812.316 179.869 813.475 180.898 814.683 181.861C815.674 182.658 816.897 182.981 818.066 182.864C818.477 182.825 818.875 182.734 819.262 182.593C820.123 182.297 820.896 181.744 821.487 180.959L821.859 180.522C822.387 179.969 823.016 179.558 823.711 179.3L825.332 179.016C825.988 179.016 826.645 179.158 827.262 179.441C828.201 179.891 829.167 180.29 830.131 180.637C831.07 180.972 831.84 181.602 832.381 182.385C832.574 182.669 832.74 182.989 832.87 183.324C833.166 184.082 833.281 184.93 833.153 185.781V185.808C832.794 188.301 834.428 190.629 836.832 191.145C836.844 191.157 836.859 191.157 836.871 191.157C837.013 191.196 837.167 191.221 837.321 191.235C838.852 191.416 840.408 191.506 841.99 191.506C843.56 191.506 845.103 191.416 846.634 191.249C847.779 191.108 848.782 190.594 849.515 189.809C849.811 189.501 850.068 189.154 850.273 188.78C850.376 188.599 850.467 188.408 850.545 188.201C850.828 187.455 850.943 186.631 850.814 185.783C850.775 185.551 850.763 185.321 850.763 185.089C850.763 183.121 851.946 181.321 853.824 180.639C854.803 180.292 855.754 179.893 856.706 179.456L856.718 179.443C858.043 178.827 859.523 178.903 860.77 179.521C861.091 179.688 861.413 179.893 861.697 180.125C861.851 180.255 861.993 180.382 862.108 180.524C862.25 180.653 862.365 180.795 862.48 180.949L862.492 180.976C863.997 182.995 866.763 183.484 868.846 182.184C869 182.093 869.142 181.991 869.284 181.876C870.48 180.91 871.651 179.869 872.769 178.763C873.875 177.644 874.917 176.475 875.883 175.279C876.9 173.993 877.142 172.373 876.692 170.933C876.629 170.727 876.55 170.522 876.46 170.316C876.37 170.111 876.255 169.905 876.125 169.712C875.92 169.404 875.687 169.121 875.431 168.864C875.289 168.734 875.135 168.607 874.98 168.49L874.954 168.478V168.465C874.8 168.35 874.658 168.233 874.516 168.106C873.063 166.73 872.586 164.556 873.449 162.717C873.9 161.766 874.298 160.801 874.645 159.825C875.404 157.73 877.578 156.495 879.791 156.816C880.962 156.982 882.08 156.725 882.995 156.173C883.239 156.018 883.457 155.85 883.665 155.671C883.768 155.569 883.87 155.478 883.973 155.375C884.063 155.285 884.14 155.182 884.218 155.092C884.77 154.422 885.144 153.574 885.247 152.649C885.428 151.119 885.516 149.564 885.516 147.994C885.52 146.417 885.43 144.86 885.251 143.331ZM864.979 150.351C864.967 150.429 864.952 150.505 864.952 150.583C864.901 150.969 864.849 151.341 864.798 151.715C864.734 152.113 864.669 152.512 864.566 152.91C864.566 152.937 864.554 152.949 864.554 152.962C864.387 153.734 864.179 154.492 863.935 155.238C863.793 155.675 863.627 156.113 863.458 156.551C863.304 156.937 863.138 157.321 862.957 157.695C862.827 157.978 862.688 158.26 862.546 158.531C862.172 159.277 861.748 160.01 861.259 160.717C861.144 160.897 861.015 161.088 860.887 161.269C860.848 161.347 860.785 161.436 860.707 161.514C860.565 161.719 860.411 161.925 860.244 162.13C860.063 162.387 859.858 162.631 859.64 162.876C859.229 163.377 858.791 163.866 858.315 164.316C858.121 164.521 857.916 164.714 857.71 164.907C857.493 165.1 857.273 165.294 857.067 165.472C856.759 165.729 856.449 165.986 856.128 166.245C855.355 166.836 854.546 167.389 853.709 167.89C853.453 168.044 853.181 168.198 852.924 168.34C852.616 168.506 852.306 168.663 851.985 168.817C851.689 168.958 851.393 169.1 851.085 169.228C850.596 169.433 850.095 169.626 849.581 169.807C849.297 169.91 849.016 170.012 848.72 170.09C848.089 170.283 847.46 170.437 846.817 170.579C846.509 170.657 846.186 170.721 845.866 170.76C845.545 170.824 845.222 170.875 844.9 170.902C843.293 171.095 841.659 171.134 840.038 171.004C839.717 170.992 839.394 170.953 839.074 170.902C838.753 170.875 838.431 170.824 838.108 170.76C837.787 170.709 837.465 170.657 837.144 170.579C836.051 170.335 834.958 170.027 833.889 169.628C833.606 169.525 833.324 169.423 833.053 169.293C833.028 169.293 832.989 169.269 832.95 169.254C832.642 169.125 832.334 168.983 832.038 168.843C832.013 168.831 831.974 168.817 831.935 168.792C831.614 168.65 831.292 168.484 830.983 168.303C830.328 167.956 829.697 167.57 829.08 167.147C829.054 167.147 829.041 167.134 829.029 167.12C828.733 166.927 828.45 166.721 828.168 166.504C827.911 166.31 827.654 166.117 827.41 165.912C827.05 165.616 826.715 165.32 826.38 165.012C826.045 164.716 825.725 164.396 825.416 164.073C825.147 163.802 824.888 163.521 824.644 163.237C823.731 162.208 822.934 161.115 822.237 159.971C822.044 159.648 821.851 159.34 821.685 159.005C821.479 158.646 821.286 158.272 821.12 157.886C821.017 157.668 820.914 157.461 820.824 157.243C820.76 157.101 820.694 156.972 820.643 156.818C820.565 156.637 820.489 156.444 820.411 156.253C820.32 156.008 820.23 155.764 820.154 155.507C820.115 155.417 820.076 155.314 820.051 155.211C819.948 154.903 819.845 154.595 819.767 154.272C819.626 153.81 819.51 153.334 819.408 152.859C819.344 152.576 819.293 152.28 819.241 151.998C819.151 151.458 819.075 150.918 819.009 150.365C818.931 149.58 818.894 148.783 818.894 147.999C818.894 147.999 818.894 147.986 818.894 147.96C818.894 147.187 818.933 146.404 819.009 145.632C819.021 145.554 819.021 145.478 819.036 145.4C819.075 145.026 819.126 144.642 819.19 144.268C819.254 143.869 819.319 143.471 819.422 143.072C819.422 143.06 819.422 143.033 819.434 143.021C819.601 142.249 819.808 141.491 820.051 140.745C820.154 140.437 820.269 140.114 820.386 139.806C820.476 139.574 820.567 139.33 820.669 139.099C820.733 138.945 820.799 138.779 820.875 138.625C820.965 138.419 821.056 138.214 821.159 138.009C821.442 137.417 821.738 136.852 822.085 136.285C822.252 136.016 822.406 135.757 822.574 135.488C822.587 135.461 822.601 135.437 822.626 135.41C822.807 135.153 822.973 134.896 823.154 134.652C823.386 134.317 823.631 133.997 823.888 133.674C824.144 133.366 824.401 133.043 824.673 132.748C824.942 132.439 825.213 132.144 825.495 131.848C826.923 130.408 828.53 129.134 830.281 128.093C830.564 127.939 830.846 127.772 831.129 127.616C831.413 127.462 831.709 127.32 832.005 127.178C832.276 127.037 832.558 126.907 832.841 126.792C833.382 126.548 833.922 126.342 834.475 126.162C834.732 126.059 834.989 125.981 835.26 125.905C835.58 125.814 835.891 125.724 836.211 125.634C836.532 125.543 836.842 125.467 837.163 125.416C837.483 125.338 837.794 125.274 838.114 125.235C838.435 125.171 838.757 125.12 839.08 125.093C839.401 125.054 839.723 125.017 840.058 124.991C841.345 124.888 842.643 124.888 843.942 124.991C844.263 125.003 844.585 125.042 844.906 125.093C845.229 125.12 845.549 125.171 845.872 125.235C846.192 125.274 846.515 125.338 846.836 125.416C847.633 125.582 848.418 125.788 849.203 126.059C849.423 126.123 849.628 126.188 849.846 126.264C850.927 126.651 851.981 127.125 853.011 127.692C853.346 127.873 853.666 128.052 853.977 128.245C854.285 128.425 854.593 128.616 854.889 128.824C855.185 129.029 855.481 129.235 855.764 129.455C855.803 129.479 855.855 129.518 855.894 129.545C856.177 129.763 856.459 129.983 856.743 130.213C857.012 130.43 857.283 130.663 857.54 130.907C858.132 131.435 858.672 131.988 859.174 132.552C859.391 132.785 859.585 133.002 859.778 133.247C860.113 133.645 860.433 134.044 860.717 134.469C860.871 134.675 861.013 134.88 861.155 135.087C861.656 135.806 862.094 136.554 862.48 137.325C862.647 137.62 862.801 137.929 862.942 138.239C862.967 138.302 862.994 138.354 863.021 138.405C863.175 138.728 863.316 139.06 863.444 139.395C863.471 139.447 863.483 139.498 863.508 139.549C863.623 139.833 863.725 140.114 863.816 140.41C863.879 140.564 863.931 140.745 863.982 140.911C864.227 141.657 864.432 142.415 864.601 143.175C864.64 143.407 864.691 143.625 864.73 143.857C864.833 144.449 864.923 145.04 864.987 145.632C865.065 146.417 865.102 147.202 865.102 147.999C865.094 148.783 865.057 149.566 864.979 150.351Z" fill="#517FC4"/>
<path d="M1125.72 646.484H1003.67V789.422H1125.72V646.484Z" fill="#84B4FE"/>
<path d="M1125.72 646.484H1003.67V688.876H1125.72V646.484Z" fill="#84B4FE"/>
<path d="M1125.72 696.756H1003.67V739.148H1125.72V696.756Z" fill="#84B4FE"/>
<path d="M1125.72 747.03H1003.67V789.422H1125.72V747.03Z" fill="#84B4FE"/>
<path d="M1014.79 789.422H1003.67V796.327H1014.79V789.422Z" fill="#84B4FE"/>
<path d="M1125.72 789.422H1114.6V796.327H1125.72V789.422Z" fill="#84B4FE"/>
<path d="M1014.79 652.26H1010.66V684.11H1014.79V652.26Z" fill="white"/>
<path d="M1023.19 652.26H1019.06V684.11H1023.19V652.26Z" fill="white"/>
<path d="M1031.59 652.26H1027.46V684.11H1031.59V652.26Z" fill="white"/>
<path d="M1039.99 652.26H1035.86V684.11H1039.99V652.26Z" fill="white"/>
<path d="M1118.87 652.26H1045.38V684.11H1118.87V652.26Z" fill="#F3F1FB"/>
<path d="M1014.79 702.027H1010.66V733.877H1014.79V702.027Z" fill="white"/>
<path d="M1023.19 702.027H1019.06V733.877H1023.19V702.027Z" fill="white"/>
<path d="M1031.59 702.027H1027.46V733.877H1031.59V702.027Z" fill="white"/>
<path d="M1039.99 702.027H1035.86V733.877H1039.99V702.027Z" fill="white"/>
<path d="M1048.4 702.027H1044.26V733.877H1048.4V702.027Z" fill="white"/>
<path d="M1056.79 702.027H1052.66V733.877H1056.79V702.027Z" fill="white"/>
<path d="M1065.2 702.027H1061.06V733.877H1065.2V702.027Z" fill="white"/>
<path d="M1118.87 702.027H1070.33V733.877H1118.87V702.027Z" fill="#F3F1FB"/>
<path d="M1014.79 751.796H1010.66V783.646H1014.79V751.796Z" fill="white"/>
<path d="M1023.19 751.796H1019.06V783.646H1023.19V751.796Z" fill="white"/>
<path d="M1031.59 751.796H1027.46V783.646H1031.59V751.796Z" fill="white"/>
<path d="M1039.99 751.796H1035.86V783.646H1039.99V751.796Z" fill="white"/>
<path d="M1102.07 751.796H1097.93V783.646H1102.07V751.796Z" fill="white"/>
<path d="M1110.47 751.796H1106.33V783.646H1110.47V751.796Z" fill="white"/>
<path d="M1118.87 751.796H1114.73V783.646H1118.87V751.796Z" fill="white"/>
<path d="M1092.92 751.796H1045.38V783.646H1092.92V751.796Z" fill="#F3F1FB"/>
<path d="M653.852 653.252H526.082V773.96H653.852V653.252Z" fill="#517FC4"/>
<path d="M794.772 796.101H385.16V781.07C385.16 772.762 391.896 766.028 400.207 766.028H779.724C788.034 766.028 794.77 772.762 794.77 781.07L794.772 796.101Z" fill="#84B4FE"/>
<path d="M924.454 699.227H255.479C247.055 699.227 240.225 692.401 240.225 683.978V223.902C240.225 215.482 247.053 208.655 255.477 208.655H924.452C932.875 208.655 939.704 215.482 939.704 223.902V683.978C939.706 692.399 932.877 699.227 924.454 699.227Z" fill="#6880E4"/>
<path d="M918.034 232.403V633.669C918.034 636.654 915.622 639.066 912.636 639.066H265.158C262.172 639.066 259.76 636.654 259.76 633.669V232.403C259.76 229.418 262.172 226.988 265.158 226.988H912.636C915.622 226.988 918.034 229.418 918.034 232.403Z" fill="#F3F1FB"/>
<path d="M894.504 670.091C894.504 677.316 888.645 683.173 881.418 683.173C874.191 683.173 868.332 677.316 868.332 670.091C868.332 662.866 874.191 657.01 881.418 657.01C888.645 657.01 894.504 662.866 894.504 670.091Z" fill="white"/>
<g opacity="0.35">
<path d="M882.711 547.612H464.161C452.548 547.612 443.137 538.201 443.137 526.594V259.131C443.137 247.525 452.551 238.114 464.161 238.114H882.711C894.323 238.114 903.735 247.525 903.735 259.131V526.594C903.737 538.203 894.323 547.612 882.711 547.612Z" fill="white"/>
</g>
<path d="M826.752 226.988V588.428C826.752 606.434 812.141 621.021 794.147 621.021H324.733C306.742 621.021 292.129 606.434 292.129 588.428V226.988H826.752Z" fill="#EBE7FF"/>
<path d="M829.349 600.859H326.737C314.088 600.859 303.834 590.608 303.834 577.964V182.48C303.834 169.836 314.088 159.585 326.737 159.585H829.349C841.997 159.585 852.252 169.836 852.252 182.48V577.966C852.252 590.608 841.997 600.859 829.349 600.859Z" fill="white"/>
<path d="M829.351 159.585H326.739C314.09 159.585 303.836 169.836 303.836 182.48V202.519H852.254V182.48C852.254 169.836 841.999 159.585 829.351 159.585Z" fill="#6880E4"/>
<path d="M785.028 181.837C785.028 185.483 782.07 188.439 778.423 188.439C774.775 188.439 771.82 185.483 771.82 181.837C771.82 178.191 774.777 175.237 778.423 175.237C782.07 175.237 785.028 178.191 785.028 181.837Z" fill="white"/>
<path d="M811.94 181.837C811.94 185.483 808.983 188.439 805.335 188.439C801.688 188.439 798.73 185.483 798.73 181.837C798.73 178.191 801.688 175.237 805.335 175.237C808.983 175.237 811.94 178.191 811.94 181.837Z" fill="white"/>
<path d="M838.858 181.837C838.858 185.483 835.901 188.439 832.253 188.439C828.606 188.439 825.648 185.483 825.648 181.837C825.648 178.191 828.606 175.237 832.253 175.237C835.901 175.237 838.858 178.191 838.858 181.837Z" fill="white"/>
<path d="M828.547 227.325H659.5V236.548H828.547V227.325Z" fill="#F3F0FF"/>
<path d="M828.546 570.389V575.525H823.408" stroke="#8F80C7" stroke-miterlimit="10"/>
<path d="M813.293 575.525H332.922" stroke="#8F80C7" stroke-miterlimit="10" stroke-dasharray="4.92 4.92"/>
<path d="M327.868 575.525H322.73V570.389" stroke="#8F80C7" stroke-miterlimit="10"/>
<path d="M322.73 559.758V416.236" stroke="#8F80C7" stroke-miterlimit="10" stroke-dasharray="5.18 5.18"/>
<path d="M322.73 410.922V405.786H327.868" stroke="#8F80C7" stroke-miterlimit="10"/>
<path d="M337.98 405.786H818.352" stroke="#8F80C7" stroke-miterlimit="10" stroke-dasharray="4.92 4.92"/>
<path d="M823.408 405.786H828.546V410.922" stroke="#8F80C7" stroke-miterlimit="10"/>
<path d="M828.545 421.552V565.073" stroke="#8F80C7" stroke-miterlimit="10" stroke-dasharray="5.18 5.18"/>
<path d="M828.547 247.748H659.5V256.972H828.547V247.748Z" fill="#F3F0FF"/>
<path d="M828.545 268.172H537.244V277.396H828.545V268.172Z" fill="#F3F0FF"/>
<path d="M828.545 288.596H537.244V297.819H828.545V288.596Z" fill="#F3F0FF"/>
<path d="M828.545 309.019H537.244V318.243H828.545V309.019Z" fill="#F3F0FF"/>
<path d="M828.545 329.443H537.244V338.667H828.545V329.443Z" fill="#F3F0FF"/>
<path d="M828.545 349.866H537.244V359.09H828.545V349.866Z" fill="#F3F0FF"/>
<path d="M731.006 370.29H537.244V379.514H731.006V370.29Z" fill="#F3F0FF"/>
<path d="M521.905 374.378V379.514H516.768" stroke="#8F80C7" stroke-miterlimit="10"/>
<path d="M506.896 379.514H334.115" stroke="#8F80C7" stroke-miterlimit="10" stroke-dasharray="4.8 4.8"/>
<path d="M329.178 379.514H324.041V374.378" stroke="#8F80C7" stroke-miterlimit="10"/>
<path d="M324.041 363.46V237.918" stroke="#8F80C7" stroke-miterlimit="10" stroke-dasharray="5.31 5.31"/>
<path d="M324.041 232.46V227.325H329.178" stroke="#8F80C7" stroke-miterlimit="10"/>
<path d="M339.053 227.325H511.831" stroke="#8F80C7" stroke-miterlimit="10" stroke-dasharray="4.8 4.8"/>
<path d="M516.768 227.325H521.905V232.46" stroke="#8F80C7" stroke-miterlimit="10"/>
<path d="M521.904 243.377V368.92" stroke="#8F80C7" stroke-miterlimit="10" stroke-dasharray="5.31 5.31"/>
<path d="M564.043 256.442H539.574C538.288 256.442 537.246 255.401 537.246 254.115V229.652C537.246 228.366 538.288 227.325 539.574 227.325H564.043C565.329 227.325 566.371 228.368 566.371 229.652V254.115C566.371 255.398 565.329 256.442 564.043 256.442Z" fill="#517FC4"/>
<path d="M555.171 249.118L547.934 241.883L555.171 234.648" fill="#517FC4"/>
<path d="M555.171 249.118L547.934 241.883L555.171 234.648" stroke="white" stroke-width="1.5" stroke-miterlimit="10" stroke-linecap="round" stroke-linejoin="round"/>
<path d="M644.729 256.442H620.258C618.972 256.442 617.93 255.401 617.93 254.115V229.652C617.93 228.366 618.974 227.325 620.258 227.325H644.729C646.015 227.325 647.057 228.368 647.057 229.652V254.115C647.057 255.398 646.015 256.442 644.729 256.442Z" fill="#517FC4"/>
<path d="M630.094 249.118L637.331 241.883L630.094 234.648" fill="#517FC4"/>
<path d="M630.094 249.118L637.331 241.883L630.094 234.648" stroke="white" stroke-width="1.5" stroke-miterlimit="10" stroke-linecap="round" stroke-linejoin="round"/>
<path d="M603.828 256.729H579.36C578.073 256.729 577.031 255.687 577.031 254.401V229.939C577.031 228.653 578.073 227.611 579.36 227.611H603.828C605.115 227.611 606.156 228.655 606.156 229.939V254.401C606.156 255.685 605.115 256.729 603.828 256.729Z" fill="#517FC4"/>
<path d="M595.402 234.935L588.316 249.405" stroke="white" stroke-width="1.5" stroke-miterlimit="10" stroke-linecap="round" stroke-linejoin="round"/>
<path d="M330.959 223.44H320.361V234.034H330.959V223.44Z" fill="#B5A7E9"/>
<path d="M527.203 223.44H516.605V234.034H527.203V223.44Z" fill="#B5A7E9"/>
<path d="M330.959 300.208H320.361V310.802H330.959V300.208Z" fill="#B5A7E9"/>
<path d="M527.203 300.208H516.605V310.802H527.203V300.208Z" fill="#B5A7E9"/>
<path d="M429.08 223.44H418.482V234.034H429.08V223.44Z" fill="#B5A7E9"/>
<path d="M330.959 374.216H320.361V384.81H330.959V374.216Z" fill="#B5A7E9"/>
<path d="M527.203 374.216H516.605V384.81H527.203V374.216Z" fill="#B5A7E9"/>
<path d="M429.08 374.216H418.482V384.81H429.08V374.216Z" fill="#B5A7E9"/>
<path d="M328.029 400.061H317.432V410.655H328.029V400.061Z" fill="#B5A7E9"/>
<path d="M833.844 400.061H823.246V410.655H833.844V400.061Z" fill="#B5A7E9"/>
<path d="M328.029 476.829H317.432V487.423H328.029V476.829Z" fill="#B5A7E9"/>
<path d="M833.844 476.829H823.246V487.423H833.844V476.829Z" fill="#B5A7E9"/>
<path d="M589.082 400.061H578.484V410.655H589.082V400.061Z" fill="#B5A7E9"/>
<path d="M328.029 570.227H317.432V580.821H328.029V570.227Z" fill="#B5A7E9"/>
<path d="M833.844 570.227H823.246V580.821H833.844V570.227Z" fill="#B5A7E9"/>
<path d="M589.082 570.227H578.484V580.821H589.082V570.227Z" fill="#B5A7E9"/>
<path d="M578.047 537.603C602.636 537.603 622.57 517.676 622.57 493.095C622.57 468.514 602.636 448.587 578.047 448.587C553.457 448.587 533.523 468.514 533.523 493.095C533.523 517.676 553.457 537.603 578.047 537.603Z" fill="url(#paint1_linear_671_1724)"/>
<path d="M565.893 518.971V467.217L601.664 493.095L565.893 518.971Z" fill="white"/>
<path d="M272.349 661.126V789.416C272.349 792.662 269.718 795.312 266.471 795.312H122.623V676.78C122.623 673.452 125.336 670.741 128.665 670.741H220.111C223.44 670.741 226.153 668.049 226.153 664.721V661.126C226.153 657.799 228.845 655.087 232.194 655.087H266.328C269.657 655.087 272.349 657.799 272.349 661.126Z" fill="url(#paint2_linear_671_1724)"/>
<path d="M265.837 782.452H133.307C131.602 782.452 130.217 781.07 130.217 779.363V677.076C130.217 675.371 131.6 673.987 133.307 673.987H265.839C267.545 673.987 268.93 675.369 268.93 677.076V779.363C268.928 781.07 267.545 782.452 265.837 782.452Z" fill="#FCFCFC"/>
<path d="M262.239 786.561H129.71C128.004 786.561 126.619 785.178 126.619 783.471V681.184C126.619 679.479 128.002 678.095 129.71 678.095H262.241C263.947 678.095 265.332 679.477 265.332 681.184V783.471C265.33 785.178 263.947 786.561 262.239 786.561Z" fill="#E2DED0"/>
<path d="M266.736 795.306H121.542C118.844 795.306 116.526 793.387 116.022 790.735L97.3753 692.376C96.7198 688.917 99.3727 685.714 102.895 685.714H248.089C250.788 685.714 253.106 687.633 253.609 690.285L272.256 788.644C272.911 792.103 270.258 795.306 266.736 795.306Z" fill="url(#paint3_linear_671_1724)"/>
<path d="M40.3516 795.312H1181.84" stroke="#3A376B" stroke-miterlimit="10" stroke-linecap="round"/>
<path d="M32.0795 795.306H8.44727" stroke="#028E8E" stroke-miterlimit="10" stroke-linecap="round"/>
<path d="M1190.94 795.312H1244" stroke="#3A376B" stroke-miterlimit="10" stroke-linecap="round"/>
<path d="M929.113 800.748C928.389 802.155 924.927 805.407 920.126 807.551C915.332 809.692 905.162 810.698 910.811 812.584C916.46 814.47 923.044 813.328 926.384 812.794C929.717 812.256 932.812 813.301 936.749 813.277C941.938 813.242 942.117 811.806 941.418 805.955C940.454 797.902 931.447 796.197 929.113 800.748Z" fill="#222B70"/>
<path d="M1022.26 795.251C1021.97 796.876 1024.28 801.796 1020.15 805.409C1016.03 809.017 1006.66 812.823 1012.87 812.967C1019.08 813.111 1025.04 811.671 1028.2 810.112C1031.35 808.55 1028.84 806.098 1032.75 804.863C1037.91 803.232 1036.85 799.442 1034.17 797.094C1030.73 789.366 1023.19 789.998 1022.26 795.251Z" fill="#222B70"/>
<path d="M1003.35 633.965C1003.35 633.965 1015.72 597.621 980.635 567.678C980.635 567.678 961.832 575.161 946.773 576.063C934.916 576.774 927.855 575.287 927.855 575.287C927.855 575.287 925.035 607.744 924.994 625.148L1003.35 633.965Z" fill="#3A376B"/>
<path d="M932.652 595.612C929.894 596.651 926.499 600.819 924.993 625.15C924.639 630.855 922.326 674.833 921.516 685.546C921.378 687.358 921.395 688.977 921.512 690.452C921.387 691.421 921.333 692.471 921.38 693.624C922.108 710.999 929.448 766.653 929.06 800.259C929.06 800.259 930.145 801.798 931.898 802.599C934.44 803.758 938.543 803.647 941.069 802.669C943.471 775.614 961.424 718.912 948.923 693.328C953.89 677.391 964.954 643.097 967.194 629.844C970.821 608.431 946.439 590.41 932.652 595.612Z" fill="#3A376B"/>
<path d="M1003.66 697.882C1002.66 680.899 1005.68 637.685 1002.73 624.333C998.046 603.126 973.614 594.336 962.791 604.332C960.625 606.331 959.075 618.051 960.83 623.494C962.587 628.934 972.64 690.006 975.914 700.238C976.378 701.686 977.852 706.066 978.224 707.116C984.041 723.505 1011.52 766.682 1021.05 798.909C1021.05 798.909 1022.68 799.458 1024.6 799.54C1028.76 799.717 1032.17 798.581 1034.78 795.963C1029.09 769.367 1026.39 720.401 1003.66 697.882Z" fill="#3A376B"/>
<path d="M849.055 480.747C849.055 480.747 844.612 475.876 843.323 474.015C842.033 472.154 835.872 471.837 834.152 468.199C832.432 464.561 828.85 459.547 832.72 457.685C836.589 455.822 836.445 455.68 837.448 454.247C838.451 452.815 831 447.371 829.711 443.217C828.421 439.063 840.029 448.803 841.747 451.239C843.467 453.673 846.19 451.525 847.908 455.822C849.628 460.12 850.058 465.564 854.357 471.722" fill="#FFB7D6"/>
<path d="M920.709 465.87C912.22 473.144 898.016 493.288 891.302 502.539C878.601 487.111 853.444 466.971 853.444 466.971C853.444 466.971 842.028 475.519 843.81 477.259C845.592 478.999 880.906 529.846 889.765 530.522C890.828 530.602 891.981 530.284 893.107 529.688C893.088 529.709 905.753 524.717 924.26 504.205C929.206 498.722 933.795 503.508 933.795 503.508L939.251 459.892C939.251 459.892 927.46 460.781 920.709 465.87Z" fill="#B5A7E9"/>
<path d="M919.008 469.962C923.85 465.937 934.482 458.357 950.661 458.869C961.807 459.22 992.161 461.059 995.554 468.513C997.288 472.324 999.15 511.343 996.61 524.797C994.701 534.914 989.819 559.974 989.819 566.024C989.819 572.072 993.069 574.664 991.553 576.421C988.156 580.355 964.929 582.006 954.025 582.006C944.319 582.006 927.799 579.42 926.961 576.312C926.566 574.851 927.325 566.794 926.877 556.243C925.907 533.47 923.568 499.085 921.821 494.395C919.883 489.188 914.547 473.672 919.008 469.962Z" fill="#B5A7E9"/>
<path d="M922.131 484.418C922.131 484.418 922.688 488.666 923.341 495.053C923.639 498.247 924.054 501.972 924.375 505.969C924.7 509.967 925.047 514.23 925.394 518.494C925.655 522.751 925.994 527.044 926.157 531.048C926.358 535.054 926.424 538.797 926.543 542.004C926.722 548.419 926.716 552.702 926.716 552.702C926.716 552.702 926.224 548.444 925.676 542.049C925.178 535.654 924.519 527.129 923.857 518.601C923.58 514.332 923.302 510.064 923.043 506.062C922.78 502.06 922.649 498.317 922.478 495.115C922.197 488.701 922.131 484.418 922.131 484.418Z" fill="#8F80C7"/>
<path d="M968.869 460.631C968.869 460.631 957.205 468.643 949.394 468.15C945.593 466.361 943.289 460.463 943.289 460.463C943.289 460.463 945.796 459.269 946.308 458.758C946.598 458.468 946.768 454.173 946.836 450.559C946.852 449.433 946.887 448.377 946.887 447.525C946.922 446.35 946.922 445.565 946.922 445.565L970.045 435.729C970.045 435.729 967.386 441.183 966.856 445.514C966.173 451.19 966.276 457.975 966.276 458.554C966.278 459.575 968.869 460.631 968.869 460.631Z" fill="#FFB7D6"/>
<path d="M939.786 400.601C939.786 400.601 937.011 407.908 936.748 411.164C936.483 414.422 938.51 415.478 939.214 415.83C939.919 416.181 943.704 401.041 943.704 401.041" fill="#181670"/>
<path d="M955.126 396.616C952.304 397.384 944.867 395.846 942.814 398.923C940.763 401.998 938.967 409.435 938.197 411.487C936.666 415.571 935.667 419.934 934.553 424.143C933.102 429.63 930.712 439.678 936.082 444.267C937.623 445.586 938.314 446.021 940.223 446.366C942.763 446.827 945.292 447.348 947.834 447.804C951.774 448.511 956.137 449.335 960.049 448.065C965.277 446.369 968.142 439.185 969.486 434.306L977.18 406.359L955.126 396.616Z" fill="#FFB7D6"/>
<path d="M966.287 455.469C966.287 455.469 969.456 457.244 971.696 460.635C969.396 465.894 964.199 475.233 958.476 479.488C955.8 472.316 951.865 468.602 951.865 468.602C951.865 468.602 960.549 463.703 966.287 455.469Z" fill="#8F80C7"/>
<path d="M948.526 468.17C948.526 468.17 943.822 470.36 940.509 476.597C940.509 476.597 939.438 468.16 941.717 460.917C941.717 460.917 945.379 456.235 946.645 456.136C946.123 462.106 948.526 468.17 948.526 468.17Z" fill="#8F80C7"/>
<path d="M975.349 500.91L1044.91 584.714C1046.27 586.357 1046.06 588.777 1044.42 590.139L986.703 638.01C985.059 639.372 982.642 639.134 981.277 637.49L911.716 553.686C910.352 552.043 910.564 549.623 912.207 548.261L969.922 500.39C971.566 499.028 973.984 499.268 975.349 500.91Z" fill="#84B4FE"/>
<path d="M975.349 500.91L979.152 505.493L915.522 558.271L911.718 553.688C910.354 552.045 910.565 549.625 912.209 548.263L969.923 500.392C971.565 499.028 973.984 499.268 975.349 500.91Z" fill="#517FC4"/>
<path d="M957.653 517.052C958.461 518.024 958.325 519.466 957.353 520.273C956.381 521.081 954.938 520.945 954.131 519.973C953.323 519.002 953.459 517.56 954.431 516.752C955.403 515.945 956.845 516.08 957.653 517.052Z" fill="white"/>
<path d="M965.477 510.563C966.285 511.534 966.149 512.976 965.177 513.784C964.205 514.591 962.763 514.456 961.955 513.484C961.147 512.512 961.283 511.07 962.255 510.263C963.229 509.455 964.672 509.591 965.477 510.563Z" fill="white"/>
<path d="M973.301 504.073C974.109 505.045 973.973 506.487 973.001 507.294C972.029 508.102 970.587 507.966 969.781 506.995C968.974 506.023 969.109 504.581 970.081 503.773C971.053 502.966 972.496 503.1 973.301 504.073Z" fill="white"/>
<path opacity="0.5" d="M952.513 533.922L921.996 559.231L940.661 581.721L971.178 556.411L952.513 533.922Z" fill="white"/>
<path opacity="0.5" d="M999.979 537.584L943.15 584.716L983.997 633.933L1040.83 586.801L999.979 537.584Z" fill="white"/>
<path opacity="0.5" d="M978.888 511.99L955.805 531.137L957.428 533.093L980.512 513.945L978.888 511.99Z" fill="white"/>
<path opacity="0.5" d="M982.236 516.199L959.152 535.344L960.775 537.3L983.859 518.155L982.236 516.199Z" fill="white"/>
<path opacity="0.5" d="M985.642 520.312L962.559 539.457L964.182 541.412L987.265 522.268L985.642 520.312Z" fill="white"/>
<path opacity="0.5" d="M989.115 524.309L966.031 543.457L967.655 545.413L990.738 526.265L989.115 524.309Z" fill="white"/>
<path opacity="0.5" d="M992.521 528.411L969.438 547.559L971.061 549.514L994.145 530.366L992.521 528.411Z" fill="white"/>
<path opacity="0.5" d="M989.166 538.189L972.783 551.776L974.406 553.732L990.789 540.144L989.166 538.189Z" fill="white"/>
<path d="M946.952 577.458C941.414 578.292 937.438 580.969 934.316 584.05C934.061 584.303 933.792 584.617 933.85 584.973C933.922 585.414 934.439 585.609 934.881 585.681C937.454 586.094 937.873 584.451 940.276 583.448C941.899 582.77 943.512 582.068 945.125 581.365" fill="#F9A0C6"/>
<path d="M965.878 577.445C963.54 578.908 961.201 580.373 958.862 581.835C957.907 582.446 956.828 583.115 956.483 584.214C954.958 589.194 951.847 589.459 950.118 590.597C948.797 591.452 945.828 592.284 944.404 592.914C944.852 593.524 945.258 594.052 945.624 594.541C945.38 594.662 945.055 594.827 944.669 594.968C944.628 594.989 944.586 594.989 944.547 594.989C942.513 595.579 940.705 593.748 940.705 593.748H940.684C938.935 592 936.576 589.297 936.069 587.548C935.399 585.128 936.393 583.951 936.597 583.748C936.617 583.727 936.638 583.707 936.638 583.707C938.103 582.365 942.353 579.194 943.674 578.563C944.874 577.994 956.322 574.578 960.634 573.684L965.878 577.445Z" fill="#FFB7D6"/>
<path d="M987.018 493.146C988.639 516.062 996.417 544.633 996.417 544.633L952.961 574.697C952.961 574.697 953.61 577.228 954.582 579.97C955.363 582.175 957.289 584.868 957.289 584.868C957.289 584.868 1013.14 564.845 1017.16 553.129C1016.1 538.852 1017.84 488.594 1003.66 470.026C999.149 464.115 971.696 460.637 971.696 460.637" fill="#B5A7E9"/>
<path d="M982.1 403.736C981.782 403.403 981.395 403.103 981.286 402.651C981.414 395.856 977.922 394.625 973.728 392.746C967.67 390.034 943.995 389.56 941.613 380.671C939.776 381.499 938.044 382.554 938.578 389.165C938.089 388.352 937.711 387.485 937.439 386.581C936.083 388.841 935.179 391.425 935.216 394.046C935.253 396.667 936.282 399.342 938.29 401.041C939.519 402.089 941.056 402.721 942.612 403.21C946.3 404.385 950.188 404.782 953.986 405.542C957.765 406.318 961.598 407.549 964.547 410.061C965.344 410.762 966.082 411.571 966.554 412.53C965.829 414.846 964.567 419.17 964.567 421.265C964.567 423.003 965.434 424.332 966.145 425.138C965.829 428.702 965.623 431.611 966.065 431.481C967.097 431.173 967.475 429.926 968.091 429.022C969.248 427.323 970.605 428.426 972.376 429.456L971.616 431.101L974.437 429.764C974.433 429.764 991.348 413.358 982.1 403.736Z" fill="#181670"/>
<path d="M965.583 436.592C965.583 436.592 965.279 437.86 966.068 438.854C966.761 439.727 968.17 439.602 969.138 439.288C971.894 438.396 973.793 435.713 974.313 432.942C974.923 429.676 973.168 426.409 970.178 427.26C968.427 427.757 967.336 429.739 967.354 431.559" fill="#FFB7D6"/>
<path d="M956.747 448.682C956.747 448.682 953.506 450.557 946.84 450.557C946.856 449.431 946.891 448.375 946.891 447.523L956.747 448.682Z" fill="#F9A1C6"/>
<path d="M987.418 497.762C987.418 497.762 987.589 498.492 987.889 499.77C988.166 501.049 988.561 502.876 989.033 505.07C989.939 509.46 991.039 515.32 992.105 521.181C993.16 527.042 994.214 532.905 995.005 537.299C995.441 539.487 995.718 541.342 996.024 542.609C996.291 543.889 996.419 544.633 996.419 544.633C996.419 544.633 996.119 543.947 995.64 542.722C995.163 541.498 994.522 539.731 993.86 537.581C992.525 533.279 991.15 527.437 990.085 521.545C989.029 515.651 988.267 509.714 987.874 505.24C987.665 503.005 987.584 501.129 987.496 499.823C987.424 498.514 987.418 497.762 987.418 497.762Z" fill="#8F80C7"/>
<path d="M957.566 610.959C957.566 610.959 957.836 612.013 958.304 613.858C958.734 615.709 959.426 618.338 960.121 621.52C960.811 624.702 961.689 628.4 962.517 632.383C963.368 636.362 964.21 640.617 965.069 644.871C965.881 649.132 966.693 653.392 967.455 657.388C968.176 661.392 968.848 665.126 969.426 668.329C970.566 674.742 971.324 679.017 971.324 679.017C971.324 679.017 969.909 674.897 968.295 668.576C967.51 665.412 966.559 661.729 965.681 657.752C964.777 653.781 963.916 649.524 963.053 645.268C962.237 641.003 961.426 636.738 960.743 632.724C960.041 628.714 959.5 624.951 958.988 621.734C958.477 618.517 958.179 615.813 957.912 613.932C957.692 612.04 957.566 610.959 957.566 610.959Z" fill="#292B57"/>
<path d="M874.111 813.626H1040.84" stroke="#3A376B" stroke-miterlimit="10" stroke-linecap="round"/>
<path d="M1047.03 813.626H1070.88" stroke="#3A376B" stroke-miterlimit="10" stroke-linecap="round"/>
<path d="M270.456 813.626L316.193 500.223H293.326L247.588 813.626H270.456Z" fill="#93AAEB"/>
<path d="M274.413 813.626L320.148 500.223H297.28L251.545 813.626H274.413Z" fill="#D0DCF8"/>
<path d="M403.417 646.484H284.658" stroke="#8090D6" stroke-width="2" stroke-miterlimit="10" stroke-linecap="round"/>
<path d="M411.849 586.037H293.09" stroke="#8090D6" stroke-width="2" stroke-miterlimit="10" stroke-linecap="round"/>
<path d="M421.593 525.587H301.854" stroke="#222B54" stroke-width="2" stroke-miterlimit="10" stroke-linecap="round"/>
<path d="M395.083 706.931H276.324" stroke="#8090D6" stroke-width="2" stroke-miterlimit="10" stroke-linecap="round"/>
<path d="M385.464 767.378H266.705" stroke="#8090D6" stroke-width="2" stroke-miterlimit="10" stroke-linecap="round"/>
<path d="M432.325 285.392L226.293 260.938L207.471 419.409L413.503 443.863L432.325 285.392Z" fill="#3A376B"/>
<path d="M427.111 288.499L230.633 265.178L212.684 416.302L409.162 439.622L427.111 288.499Z" fill="url(#paint4_linear_671_1724)"/>
<path d="M361.377 341.462L294.113 407.049L297.393 407.44L295.18 426.084L409.202 439.614L411.415 420.967L361.377 341.462Z" fill="#FAFAFD"/>
<path d="M214.932 397.655L305.764 305.506L385.495 436.799L212.719 416.302L214.932 397.655Z" fill="#FAFAFD"/>
<path d="M398.472 319.939C403.129 309.316 398.29 296.93 387.663 292.275C377.036 287.619 364.646 292.456 359.989 303.079C355.332 313.703 360.171 326.088 370.798 330.744C381.425 335.4 393.815 330.562 398.472 319.939Z" fill="white"/>
<path d="M297.82 685.722C297.82 685.722 296.973 694.926 296.643 697.265C296.312 699.603 288.811 699.275 288.022 697.999C287.233 696.721 287.523 685.901 287.523 685.901" fill="#FFCCB0"/>
<path d="M285.906 699.938C285.741 702.389 286.155 706.425 286.155 706.425L294.783 707.005L295.305 705.593C295.305 705.593 298.006 707.22 300.204 707.368L307.487 707.857C312.818 708.215 315.89 707.74 316.089 706.811C316.915 702.931 310.535 702.68 308.876 702.569C304.115 702.249 299.109 699.675 298.147 697.183C297.451 695.375 297.841 694.956 296.832 695.217C296.832 695.217 295.932 695.349 295.268 696.394C294.249 697.999 292.451 698.999 290.604 698.545C289.547 698.286 288.503 697.806 287.782 696.943C287.782 696.943 286.07 697.487 285.906 699.938Z" fill="#3E89CC"/>
<path d="M384.209 622.3C384.209 622.3 383.094 628.732 382.224 630.928C381.353 633.124 374.14 631.05 373.674 629.624C373.205 628.198 376.023 617.746 376.023 617.746" fill="#FFCCB0"/>
<path d="M371.146 631.425C370.505 633.796 369.689 638.346 369.689 638.346L376.892 641.537L378.084 640.431C378.084 640.431 379.862 642.613 382.071 643.65C383.711 644.421 387.249 645.427 389.049 645.633C395.348 646.352 399.996 645.195 400.376 644.324C401.963 640.684 393.605 639.651 391.949 639.205C387.19 637.921 384.567 633.86 384.074 631.218C383.719 629.301 384.193 628.969 383.123 629.02C383.123 629.02 382.186 628.966 381.31 629.856C379.968 631.222 377.955 631.838 376.173 631.015C375.154 630.544 374.188 629.86 373.627 628.868C373.627 628.868 371.785 629.053 371.146 631.425Z" fill="#3E89CC"/>
<path d="M281.327 443.872C283.33 444.688 286.966 445.604 291.246 446.146C293.963 446.452 296.988 446.656 300.043 446.588C305.002 446.485 310.031 445.637 314.106 443.599C323.684 438.778 324.874 429.677 325.587 428.827C324.329 428.827 317.809 428.86 311.319 428.588C304.322 428.317 297.358 427.705 297.121 426.312C298.344 424.071 299.363 421.423 300.179 418.434C305.07 401.149 303.746 373.577 302.421 360.943C296.885 362.098 287.882 364.135 285.539 368.244C281.343 375.685 279.416 388.916 278.086 402.931C276.271 422.056 276.428 441.913 281.327 443.872Z" fill="#B5A7E9"/>
<path d="M332.376 470.448L300.787 470.167C300.787 470.167 291.225 485.352 292.281 500.681C293.368 515.986 296.617 517.076 296.666 524.48C296.973 554.491 297.961 574.461 298.619 584.812C298.968 590.297 298.259 595.784 296.506 600.992C294.387 607.29 291.652 616.103 290.693 622.255C288.274 637.732 286.098 689.093 286.098 689.093C286.098 689.093 294.013 691.427 298.399 690.478C298.399 690.478 318.145 625.298 323.983 599.418C323.985 599.414 328.911 579.58 328.911 579.576C331.492 570.138 346.062 507.836 346.062 507.836L332.376 470.448Z" fill="#3A376B"/>
<path d="M393.155 526.888C397.425 514.367 422.635 516.676 418.76 531.302C414.45 547.57 386.016 625.22 386.016 625.22C386.016 625.22 379.76 625.253 372.422 621.728C372.422 621.728 376.215 602.818 381.332 560.385C382.785 548.351 391.338 529.778 393.155 526.888Z" fill="#3A376B"/>
<path d="M331.364 459.902C353.238 466.913 390.104 497.09 409.941 509.644C423.281 518.085 421.882 539.289 408.806 540.452C393.197 541.843 323.831 527.619 301.037 487.384" fill="#3A376B"/>
<path d="M309.811 355.345C309.811 355.345 312.371 346.674 311.251 340.275C310.131 333.876 306.291 322.357 307.731 313.717C309.172 305.077 332.155 291.192 341.478 298.051C357.764 310.034 346.139 348.432 344.219 349.552C342.298 350.672 335.075 349.195 333.805 350.573C332.537 351.951 331.575 360.111 331.575 360.111" fill="#FFB7D6"/>
<path d="M305.652 362.106C305.652 362.106 305.759 357.757 307.212 356.216C311.075 352.118 332.063 357.428 333.086 358.141C334.112 358.854 335.065 363.069 335.065 363.069L305.652 362.106Z" fill="#8F80C7"/>
<path d="M307.948 340.671C309.092 343.617 309.624 347.631 311.221 348.377C311.221 348.377 324.137 349.642 327.431 349.236C334.463 345.943 336.456 329.504 336.456 329.504C336.456 329.504 336.456 329.504 336.491 329.504C336.356 327.331 335.988 324.393 336.904 323.068C339.011 320.046 342.469 322.509 342.775 325.396C343.082 328.282 343.036 331.651 343.784 332.025C344.804 332.567 345.654 328.233 345.247 322.698C344.908 317.877 348.268 310.149 351.055 305.837C354.248 300.845 352.723 288.295 342.473 289.503C342.37 290.929 340.638 293.443 337.073 294.427C330.108 296.33 317.507 294.734 311.392 298.298C308.776 299.826 306.466 303.255 307.724 305.87C307.724 305.87 301.37 305.132 302.356 315.073C304.487 336.552 306.279 336.378 307.948 340.671Z" fill="#181670"/>
<path d="M355.148 472.975C353.65 473.522 352.329 474.413 350.777 474.875C347.08 475.98 343.192 475.356 339.43 475.021C335.531 474.674 331.635 474.312 327.733 474.013C307.384 473.146 300.404 478.035 297.103 473.088C296.47 472.137 296.096 470.738 296.405 468.92C296.826 466.231 295.194 441.567 291.806 418.991C289.555 403.994 285.25 390.083 284.891 383.548C283.598 360.117 307.413 360.323 307.413 360.323C342.403 358.139 355.436 368.213 357.341 383.24C357.481 384.304 357.565 385.45 357.649 386.654C358.545 402.158 354.141 434.205 351.901 452.897C351.283 458.043 358.142 471.882 355.148 472.975Z" fill="#B5A7E9"/>
<path d="M426.55 335.811C426.581 335.133 426.594 334.622 426.575 334.404C426.472 333.157 425.139 333.666 424.793 334.694C424.715 334.924 424.606 335.569 424.481 336.415C424.504 335.969 424.512 335.624 424.495 335.47C424.391 334.447 423.211 334.702 422.866 335.544C422.753 335.819 422.691 336.323 422.498 337.526C422.336 338.551 422.036 339.653 421.89 340.686C421.758 341.623 420.601 346.031 418.4 346.471C415.028 347.145 417.239 341.325 414.884 339.979C414.147 339.558 413.294 344.082 413.203 346.647C413.113 349.211 413.082 350.497 413.302 352.011C413.491 353.525 414.295 355.674 414.169 356.588C414.044 357.502 413.002 359.932 413.002 359.932L420.764 363.149C420.764 363.149 421.805 358.513 422.847 357.441C425.461 354.904 426.92 351.999 427.812 348.412C429.208 342.812 426.972 335.053 426.55 335.811Z" fill="#FFB7D6"/>
<path d="M421.561 361.072C421.561 361.072 419.236 374.532 416.941 385.305C415.122 393.616 412.675 400.907 408.618 410.671C408.594 410.728 402.811 423.722 400.133 424.954C387.018 430.996 354.739 402.417 348.453 396.872C334.31 400.648 323.793 360.242 323.793 360.242C323.793 360.242 340.488 360.487 350.483 362.609C361.192 364.883 390.946 398.559 392.39 398.645C393.296 396.915 394.149 395.163 397.332 389.093C404.475 375.469 413.273 358.552 413.273 358.552C413.273 358.552 419.767 360.483 419.88 360.538L421.561 361.072Z" fill="#B5A7E9"/>
<path d="M385.184 813.626L430.92 500.223H408.052L362.316 813.626H385.184Z" fill="#97A6DD"/>
<path d="M389.139 813.626L434.875 500.223H412.007L366.271 813.626H389.139Z" fill="#D0DCF8"/>
<path d="M314.571 483.883C314.571 483.883 314.238 485.023 313.903 487.053C313.551 489.074 313.278 492.016 313.518 495.486C313.751 498.943 314.741 502.951 316.985 506.569C319.225 510.18 322.762 513.235 326.87 515.246C331.066 517.352 335.338 519.33 339.343 521.191C343.363 523.019 347.101 524.768 350.352 526.158C356.854 528.971 361.188 530.846 361.188 530.846C361.188 530.846 360.039 530.554 358.06 529.946C356.089 529.316 353.249 528.471 349.92 527.239C346.591 526.01 342.695 524.593 338.61 522.853C334.512 521.142 330.201 519.176 325.943 517.072C321.588 514.907 317.727 511.52 315.444 507.489C313.128 503.463 312.431 499.116 312.376 495.535C312.324 491.916 313.001 488.974 313.516 486.971C314.071 484.962 314.571 483.883 314.571 483.883Z" fill="#292B57"/>
<path d="M343.953 389.095C343.953 389.095 344.333 389.625 345.03 390.508C345.702 391.412 346.787 392.605 348.059 394.037C349.345 395.461 350.909 397.061 352.603 398.746C354.329 400.401 356.174 402.162 358.108 403.828C359.074 404.662 360.005 405.539 360.991 406.318C361.979 407.096 362.879 407.953 363.835 408.678C364.768 409.434 365.672 410.165 366.527 410.858C367.398 411.536 368.22 412.177 368.981 412.77C370.505 413.962 371.773 414.956 372.663 415.652C373.555 416.351 374.05 416.776 374.05 416.776C374.05 416.776 373.461 416.507 372.449 415.989C371.461 415.439 369.963 414.779 368.315 413.744C366.628 412.77 364.717 411.538 362.736 410.114C360.748 408.701 358.714 407.074 356.747 405.365C354.801 403.633 352.935 401.807 351.298 399.991C349.67 398.164 348.238 396.381 347.136 394.762C346.02 393.154 345.221 391.726 344.693 390.72C344.173 389.709 343.953 389.095 343.953 389.095Z" fill="#8F80C7"/>
<path d="M286.768 394.249C286.768 394.249 287.086 395.171 287.567 396.807C288.017 398.448 288.73 400.782 289.39 403.625C290.047 406.468 290.853 409.781 291.533 413.368C292.252 416.947 292.869 420.79 293.461 424.638C294.005 428.492 294.498 432.354 294.852 435.986C295.214 439.618 295.423 443.02 295.6 445.933C295.807 448.844 295.791 451.284 295.846 452.985C295.859 454.688 295.865 455.662 295.865 455.662C295.865 455.662 295.713 454.7 295.448 453.016C295.207 451.333 294.862 448.93 294.449 446.044C294.042 443.163 293.565 439.803 293.056 436.202C292.536 432.604 291.983 428.769 291.428 424.934C290.275 417.267 289.125 409.599 288.259 403.849C287.366 398.088 286.768 394.249 286.768 394.249Z" fill="#8F80C7"/>
<path d="M387.539 394.109C387.539 394.109 388.41 394.633 389.592 395.58C390.774 396.525 392.28 397.873 393.632 399.37C394.304 400.122 394.964 400.888 395.531 401.644C396.114 402.388 396.591 403.138 397.008 403.769C397.828 405.044 398.239 405.975 398.239 405.975C398.239 405.975 398.067 405.79 397.763 405.467C397.469 405.141 397.049 404.677 396.548 404.116C395.551 402.996 394.209 401.531 392.874 400.059C391.536 398.582 390.2 397.102 389.197 395.995C388.197 394.882 387.539 394.109 387.539 394.109Z" fill="#8F80C7"/>
<path d="M224.955 813.625H411.847" stroke="#3A376B" stroke-miterlimit="10" stroke-linecap="round"/>
<path d="M168.094 813.625H215.383" stroke="#3A376B" stroke-miterlimit="10" stroke-linecap="round"/>
<path d="M759.852 813.626H626.917C623.814 813.626 621.299 811.111 621.299 808.009V595.488C621.299 592.386 623.814 589.872 626.917 589.872H759.852C762.955 589.872 765.47 592.386 765.47 595.488V808.007C765.472 811.111 762.957 813.626 759.852 813.626Z" fill="#517FC4"/>
<path d="M750.602 781.063H636.171C633.068 781.063 630.553 778.549 630.553 775.447V606.858C630.553 603.756 633.068 601.242 636.171 601.242H750.602C753.705 601.242 756.221 603.756 756.221 606.858V775.447C756.221 778.549 753.705 781.063 750.602 781.063Z" fill="white"/>
<path d="M591.627 813.625H769.043" stroke="#D4CCF3" stroke-miterlimit="10" stroke-linecap="round"/>
<path d="M773.668 813.625H786.255" stroke="#D4CCF3" stroke-miterlimit="10" stroke-linecap="round"/>
<path d="M707.271 614.49V678.452C707.271 679.535 706.396 680.408 705.315 680.408H642.022C640.963 680.408 640.088 679.533 640.088 678.452V614.49C640.088 613.432 640.963 612.557 642.022 612.557H705.315C706.396 612.557 707.271 613.432 707.271 614.49Z" fill="#F3F1FB"/>
<path d="M707.27 666.465V678.452C707.27 679.535 706.395 680.408 705.314 680.408H673.92L675.256 666.465L690.031 650.13L707.27 666.465Z" fill="#D4CCF3"/>
<path d="M698.48 680.408H642.022C640.963 680.408 640.088 679.533 640.088 678.452V666.465L662.183 643.285L698.48 680.408Z" fill="#84B4FE"/>
<path d="M690.599 638.7C694.902 638.7 698.389 635.213 698.389 630.912C698.389 626.611 694.902 623.124 690.599 623.124C686.296 623.124 682.809 626.611 682.809 630.912C682.809 635.213 686.296 638.7 690.599 638.7Z" fill="#D4CCF3"/>
<path d="M746.09 690.127V754.089C746.09 755.169 744.717 756.044 743.02 756.044H643.713C642.052 756.044 640.68 755.169 640.68 754.089V690.127C640.68 689.069 642.052 688.194 643.713 688.194H743.02C744.719 688.194 746.09 689.069 746.09 690.127Z" fill="#F3F1FB"/>
<path d="M693.386 740.695C703.649 740.695 711.969 732.378 711.969 722.118C711.969 711.858 703.649 703.541 693.386 703.541C683.123 703.541 674.803 711.858 674.803 722.118C674.803 732.378 683.123 740.695 693.386 740.695Z" fill="#D4CCF3"/>
<path d="M688.314 732.919V711.319L703.244 722.118L688.314 732.919Z" fill="white"/>
<path d="M746.09 612.557H711.969V617.604H746.09V612.557Z" fill="#F3F1FB"/>
<path d="M746.092 760.981H640.682V766.028H746.092V760.981Z" fill="white"/>
<path d="M729.742 770.396H640.682V775.443H729.742V770.396Z" fill="white"/>
<path d="M746.09 621.53H711.969V626.577H746.09V621.53Z" fill="#F3F1FB"/>
<path d="M746.09 630.501H711.969V635.549H746.09V630.501Z" fill="#F3F1FB"/>
<path d="M746.09 639.474H711.969V644.522H746.09V639.474Z" fill="#F3F1FB"/>
<path d="M746.09 648.445H711.969V653.493H746.09V648.445Z" fill="#F3F1FB"/>
<path d="M746.09 657.418H711.969V662.466H746.09V657.418Z" fill="#F3F1FB"/>
<path d="M746.09 666.389H711.969V671.437H746.09V666.389Z" fill="#F3F1FB"/>
<path d="M735.264 675.363H711.969V680.41H735.264V675.363Z" fill="#F3F1FB"/>
<path d="M703.241 797.465C703.241 802.442 699.205 806.477 694.226 806.477C689.247 806.477 685.209 802.442 685.209 797.465C685.209 792.487 689.245 788.453 694.226 788.453C699.207 788.453 703.241 792.487 703.241 797.465Z" fill="white"/>
<path d="M280.575 193.228H238.951C231.857 193.228 226.107 187.48 226.107 180.389V138.779C226.107 131.688 231.857 125.94 238.951 125.94H280.575C287.668 125.94 293.418 131.688 293.418 138.779V180.389C293.418 187.48 287.668 193.228 280.575 193.228Z" fill="#84B4FE"/>
<path d="M270.368 162.976L256.367 148.981C257.384 145.425 256.497 141.441 253.696 138.639C250.868 135.813 246.834 134.929 243.246 135.994L249.828 142.573L248.361 148.184L242.747 149.65L236.165 143.071C235.1 146.657 235.984 150.69 238.814 153.517C241.617 156.319 245.601 157.206 249.158 156.187L263.159 170.183C262.142 173.739 263.029 177.722 265.832 180.524C268.66 183.351 272.694 184.234 276.282 183.17L269.7 176.59L271.167 170.98L276.779 169.513L283.361 176.093C284.426 172.506 283.542 168.474 280.715 165.647C277.91 162.847 273.925 161.96 270.368 162.976Z" fill="white"/>
<path d="M594.08 124.917H552.457C545.363 124.917 539.613 119.169 539.613 112.078V70.4681C539.613 63.3768 545.363 57.6289 552.457 57.6289H594.08C601.174 57.6289 606.924 63.3768 606.924 70.4681V112.078C606.924 119.169 601.174 124.917 594.08 124.917Z" fill="#84B4FE"/>
<path d="M579.571 105.902C579.571 109.374 576.755 112.188 573.282 112.188C569.809 112.188 566.994 109.374 566.994 105.902C566.994 102.431 569.809 99.6162 573.282 99.6162C576.755 99.6162 579.571 102.431 579.571 105.902Z" fill="white"/>
<path d="M573.266 84.4763C567.235 84.4763 561.785 86.9908 557.885 91.0213L562.174 95.1791C564.979 92.2456 568.914 90.4399 573.266 90.4399C577.619 90.4399 581.587 92.2456 584.359 95.1791L588.648 91.0213C584.778 86.9908 579.298 84.4763 573.266 84.4763Z" fill="white"/>
<path d="M573.268 70.3552C563.27 70.3552 554.177 74.5131 547.729 81.1874L552.017 85.3453C557.403 79.7679 564.949 76.3188 573.268 76.3188C581.619 76.3188 589.165 79.7679 594.518 85.3453L598.807 81.1874C592.358 74.5151 583.298 70.3552 573.268 70.3552Z" fill="white"/>
<defs>
<linearGradient id="paint0_linear_671_1724" x1="869.703" y1="208.653" x2="1008.8" y2="208.653" gradientUnits="userSpaceOnUse">
<stop stop-color="#9942FF"/>
<stop offset="1" stop-color="#FC067D"/>
</linearGradient>
<linearGradient id="paint1_linear_671_1724" x1="533.523" y1="493.095" x2="622.57" y2="493.095" gradientUnits="userSpaceOnUse">
<stop stop-color="#FB9004"/>
<stop offset="1" stop-color="#FC067D"/>
</linearGradient>
<linearGradient id="paint2_linear_671_1724" x1="122.623" y1="725.199" x2="272.349" y2="725.199" gradientUnits="userSpaceOnUse">
<stop stop-color="#9942FF"/>
<stop offset="1" stop-color="#FC067D"/>
</linearGradient>
<linearGradient id="paint3_linear_671_1724" x1="97.2754" y1="740.51" x2="272.356" y2="740.51" gradientUnits="userSpaceOnUse">
<stop stop-color="#9942FF"/>
<stop offset="1" stop-color="#FC067D"/>
</linearGradient>
<linearGradient id="paint4_linear_671_1724" x1="221.658" y1="340.74" x2="418.135" y2="364.076" gradientUnits="userSpaceOnUse">
<stop stop-color="#9942FF"/>
<stop offset="1" stop-color="#4D6DFF"/>
</linearGradient>
</defs>
</svg>
