<svg width="34" height="35" viewBox="0 0 34 35" fill="none" xmlns="http://www.w3.org/2000/svg">
<path d="M17.1163 33.6256C5.89329 31.1924 8.56217 17.1508 11.2995 10.4341H2.06104V30.9643L3.42969 33.6256L9.58866 34.386L17.1163 33.6256Z" fill="#DDDFE8" stroke="#DDDFE8" stroke-width="0.876599"/>
<path fill-rule="evenodd" clip-rule="evenodd" d="M33.9883 28.0569C34.0721 27.2706 33.6958 26.5088 33.03 26.1132L25.1453 21.4297C24.4938 21.0423 23.6825 21.0797 23.0658 21.5225C22.4506 21.9669 22.1391 22.7385 22.2704 23.502L23.8486 32.7323C23.9814 33.5104 24.5491 34.1339 25.2955 34.3227C26.0404 34.5099 26.8247 34.2267 27.2912 33.5999L28.6206 31.8164L30.4318 34.4791C30.8066 35.0309 31.5467 35.166 32.0828 34.7786C32.6189 34.3928 32.7501 33.6309 32.3738 33.0791L30.5626 30.4166L32.6457 29.7402C33.3779 29.5025 33.9045 28.8416 33.9883 28.0569ZM26.0135 31.3046L24.7689 24.0246L30.9869 27.7183L28.308 28.5876C28.0756 28.6641 27.8716 28.8106 27.7229 29.0092L26.0135 31.3046Z" fill="url(#paint0_linear_216_10)"/>
<path fill-rule="evenodd" clip-rule="evenodd" d="M33.9995 20.7558C33.9995 21.4298 33.4681 21.9767 32.8135 21.9767C32.1588 21.9767 31.6274 21.4298 31.6274 20.7558V11.3955H2.37206V29.7093C2.37206 30.4646 2.66303 31.1891 3.1833 31.723C3.70199 32.2586 4.4057 32.5581 5.13946 32.5581H20.1625C20.8172 32.5581 21.3485 33.1051 21.3485 33.7791C21.3485 34.453 20.8172 35 20.1625 35H5.13946C3.77631 35 2.46852 34.4433 1.50547 33.4502C0.540829 32.4588 0 31.1126 0 29.7093V5.2907C0 2.3686 2.3009 0 5.13946 0H28.86C30.2232 0 31.531 0.556744 32.494 1.54977C33.4587 2.54116 33.9995 3.88744 33.9995 5.2907V10.1691C33.9995 10.1709 33.9995 10.1727 33.9995 10.1746C33.9995 10.1764 33.9995 10.1782 33.9995 10.18V20.7558ZM31.6274 8.95362V5.2907C31.6274 4.53535 31.3365 3.81093 30.8162 3.27698C30.2975 2.7414 29.5938 2.44186 28.86 2.44186H5.13946C3.61027 2.44186 2.37206 3.71651 2.37206 5.2907V8.95362H31.6274ZM6.32548 6.91847C6.98051 6.91847 7.51151 6.37184 7.51151 5.69754C7.51151 5.02324 6.98051 4.47661 6.32548 4.47661C5.67045 4.47661 5.13945 5.02324 5.13945 5.69754C5.13945 6.37184 5.67045 6.91847 6.32548 6.91847ZM10.2789 6.91847C10.934 6.91847 11.465 6.37184 11.465 5.69754C11.465 5.02324 10.934 4.47661 10.2789 4.47661C9.62392 4.47661 9.09291 5.02324 9.09291 5.69754C9.09291 6.37184 9.62392 6.91847 10.2789 6.91847ZM15.4184 5.69754C15.4184 6.37184 14.8874 6.91847 14.2324 6.91847C13.5773 6.91847 13.0463 6.37184 13.0463 5.69754C13.0463 5.02324 13.5773 4.47661 14.2324 4.47661C14.8874 4.47661 15.4184 5.02324 15.4184 5.69754Z" fill="url(#paint1_linear_216_10)"/>
<defs>
<linearGradient id="paint0_linear_216_10" x1="22.2407" y1="28.0813" x2="33.9999" y2="28.0813" gradientUnits="userSpaceOnUse">
<stop stop-color="#FB9004"/>
<stop offset="1" stop-color="#FC067D"/>
</linearGradient>
<linearGradient id="paint1_linear_216_10" x1="0" y1="17.5" x2="33.9995" y2="17.5" gradientUnits="userSpaceOnUse">
<stop stop-color="#9942FF"/>
<stop offset="1" stop-color="#FC067D"/>
</linearGradient>
</defs>
</svg>
