<svg width="1337" height="798" viewBox="0 0 1337 798" fill="none" xmlns="http://www.w3.org/2000/svg">
<path d="M1326.31 403.554C1326.42 401.38 1326.67 399.241 1327.05 397.147L1326.31 403.554Z" stroke="white" stroke-width="2" stroke-miterlimit="10" stroke-linecap="round"/>
<path opacity="0.16" d="M1300.41 158.92C1267.58 95.2041 1195.51 47.2891 1125.36 61.9901C1083.36 70.7921 1041.61 100.321 1001.34 85.4971C972.309 74.8111 955.919 44.5101 931.519 25.4981C893.964 -3.765 840.655 -3.42439 794.884 9.68611C749.113 22.7971 707.216 46.9091 661.997 61.8141C584.933 87.2171 498.921 84.4601 423.643 54.1711C390.596 40.8751 359.663 22.5251 326.021 10.8191C292.378 -0.887697 254.223 -5.4336 221.749 9.2061C189.276 23.8461 165.974 62.1381 177.244 95.9291C179.491 102.667 183.016 109.306 182.555 116.393C181.817 127.758 170.838 136.083 159.733 138.611C148.628 141.139 137.055 139.488 125.669 139.776C74.575 141.071 28.915 187.682 28.673 238.791C28.472 281.174 54.612 318.417 76.959 354.43C99.307 390.443 119.391 433.654 106.079 473.892C98.186 497.753 79.667 516.418 67.535 538.428C36.083 595.491 52.895 671.03 96.814 719.159C140.732 767.29 206.506 790.84 271.421 796.447C336.336 802.054 401.438 791.528 465.759 781.125C530.08 770.722 595.233 760.374 660.116 766.335L656.629 764.44C783.389 795.757 915.987 803.275 1045.48 786.49C1072.58 782.976 1103.7 775.42 1115.16 750.602C1124.83 729.649 1116.15 705.088 1118.14 682.096C1121.01 648.962 1145.87 621.82 1172.98 602.556C1200.09 583.292 1230.85 568.955 1255.28 546.383C1303.06 502.227 1319.27 433.88 1326.4 369.211C1334.24 297.968 1333.23 222.637 1300.41 158.92Z" fill="#B5A7E9"/>
<path d="M320.021 720.167C320.021 720.167 275.298 663.173 235.661 670.863C196.025 678.553 136.42 712.242 68.2331 633.694C28.3141 587.709 10.1258 568.213 1.90658 559.951C-1.29972 556.729 -0.33632 551.182 3.85328 548.8C33.4891 531.954 133.052 481.208 195.275 520.605C269.041 567.312 320.021 720.167 320.021 720.167Z" fill="url(#paint0_linear_690_2695)"/>
<path d="M42.1726 549.904C48.7716 550.049 55.3126 550.561 61.8576 551.192C65.1236 551.545 68.3976 551.851 71.6536 552.29L76.5436 552.906C78.1736 553.119 79.7956 553.375 81.4216 553.615C94.4156 555.598 107.336 558.094 120.129 561.154C121.738 561.498 123.319 561.954 124.915 562.349L129.691 563.586L134.463 564.84L139.198 566.226C142.351 567.164 145.522 568.043 148.66 569.031L158.04 572.106L160.384 572.88L161.556 573.267L162.714 573.693L167.347 575.397C170.43 576.547 173.536 577.642 176.602 578.836L185.743 582.578L190.312 584.452L194.825 586.511C218.889 597.574 240.704 613.138 259.786 631.332C262.193 633.588 264.506 635.94 266.84 638.269C269.122 640.649 271.418 643.015 273.629 645.461C278.076 650.328 282.385 655.32 286.491 660.475C290.593 665.633 294.521 670.928 298.263 676.351C302.011 681.781 305.563 687.3 308.784 693.127C309.121 693.735 308.9 694.502 308.291 694.838C307.691 695.17 306.939 694.961 306.595 694.373L306.575 694.34C304.959 691.571 303.181 688.811 301.38 686.108C299.574 683.397 297.731 680.71 295.82 678.07C292.014 672.779 288.026 667.618 283.872 662.597C279.723 657.572 275.437 652.661 270.986 647.906C268.777 645.513 266.483 643.201 264.205 640.875C261.877 638.599 259.57 636.303 257.172 634.102C254.818 631.853 252.355 629.726 249.932 627.555C247.441 625.463 245 623.312 242.451 621.292C241.18 620.279 239.944 619.22 238.644 618.244L234.774 615.278C233.492 614.277 232.149 613.361 230.839 612.398C229.517 611.454 228.22 610.474 226.862 609.581L222.829 606.845C221.487 605.929 220.093 605.095 218.731 604.21C216.015 602.425 213.198 600.811 210.407 599.149L209.359 598.528L208.291 597.944L206.156 596.774C204.725 596.007 203.324 595.184 201.869 594.464C198.96 593.026 196.097 591.488 193.123 590.187L188.697 588.161L184.18 586.284L175.149 582.523C172.117 581.321 169.047 580.218 165.998 579.06L161.416 577.343L160.271 576.913L159.112 576.522L156.793 575.741L147.524 572.596C144.423 571.581 141.287 570.674 138.17 569.708L133.488 568.279L128.767 566.982C125.613 566.143 122.482 565.211 119.318 564.409C106.675 561.135 93.8846 558.414 81.0056 556.202C79.3956 555.93 77.7896 555.621 76.1766 555.366L71.3336 554.616C68.1066 554.088 64.8646 553.691 61.6256 553.248C60.0066 553.021 58.3816 552.863 56.7596 552.667C55.1366 552.473 53.5126 552.295 51.8856 552.147C50.2606 551.98 48.6346 551.813 47.0066 551.686C45.3826 551.542 43.7476 551.424 42.1326 551.332H42.1156C41.7216 551.309 41.4196 550.972 41.4426 550.577C41.4656 550.193 41.7896 549.896 42.1726 549.904Z" fill="white"/>
<path d="M250.279 575.418C250.279 575.418 220.075 509.597 188.067 503.295C156.059 496.992 105.934 507.293 59.132 414.404C31.733 360.023 19.1183 336.547 13.3676 326.429C11.1246 322.482 12.3854 317.843 15.9096 317.107C40.841 311.9 124.071 299.634 169.686 355.541C223.762 421.819 250.279 575.418 250.279 575.418Z" fill="url(#paint1_linear_690_2695)"/>
<path d="M45.8249 330.257C68.6469 340.8 89.9429 354.232 110.317 368.87C112.844 370.729 115.396 372.556 117.904 374.44L125.341 380.212C127.843 382.108 130.239 384.134 132.673 386.117L136.313 389.101L138.134 390.594C138.739 391.093 139.321 391.62 139.915 392.132C144.635 396.27 149.424 400.332 153.977 404.658C156.272 406.802 158.602 408.9 160.869 411.081C163.105 413.301 165.394 415.471 167.539 417.78C176.263 426.873 184.386 436.532 191.822 446.684C195.578 451.733 199.125 456.93 202.59 462.177L205.148 466.139C206.003 467.458 206.803 468.811 207.634 470.145C209.302 472.809 210.87 475.534 212.476 478.234C215.612 483.68 218.638 489.187 221.537 494.759C224.417 500.341 227.19 505.977 229.801 511.688C232.405 517.402 234.877 523.175 237.207 529.005C239.543 534.841 241.718 540.709 243.632 546.743C243.842 547.406 243.475 548.114 242.812 548.324C242.164 548.53 241.473 548.184 241.246 547.549L241.232 547.51C237.067 535.834 232.129 524.335 226.748 513.116C224.055 507.502 221.274 501.929 218.348 496.434C215.414 490.943 212.356 485.521 209.192 480.163C202.787 469.495 195.994 459.059 188.561 449.096C184.876 444.092 181.002 439.233 177.043 434.449C175.013 432.101 173.046 429.696 170.94 427.416L167.825 423.956L164.616 420.586C162.507 418.308 160.252 416.176 158.07 413.972C155.846 411.805 153.54 409.702 151.279 407.563C146.79 403.243 142.065 399.183 137.406 395.048C127.962 386.928 118.33 379.008 108.325 371.572C98.3559 364.091 88.1269 356.945 77.6039 350.254C67.1099 343.533 56.3429 337.155 45.2329 331.56L45.2019 331.544C44.8489 331.367 44.7079 330.938 44.8849 330.585C45.0599 330.239 45.4759 330.096 45.8249 330.257Z" fill="white"/>
<path d="M1046.46 500.137C1046.46 500.137 1060.87 285.365 1143.45 155.708C1149 146.993 1161.98 147.824 1166.31 157.205C1195.29 219.93 1263.14 413.541 1046.46 500.137Z" fill="url(#paint2_linear_690_2695)"/>
<path d="M1064.81 478.118C1064.39 478.695 1065.19 479.364 1065.68 478.848C1083.96 459.843 1151.88 370.117 1156.27 213.194C1156.29 212.69 1155.54 212.624 1155.48 213.125C1151.24 250.039 1131.54 386.832 1064.81 478.118Z" fill="white"/>
<path d="M983.921 438.57C983.921 438.57 956.821 232.003 1010.57 93.2732C1014.18 83.9472 1026.66 82.2732 1032.55 90.3532C1078.9 153.881 1166.19 319.761 983.921 438.57Z" fill="url(#paint3_linear_690_2695)"/>
<path d="M998.159 419.178C997.869 419.806 998.749 420.288 999.129 419.705C1012.86 398.199 1060.29 300.147 1034.66 150.385C1034.57 149.904 1033.85 149.984 1033.89 150.47C1036.87 186.309 1044.15 319.874 998.159 419.178Z" fill="white"/>
<path d="M1335.98 269.877C1337.33 269.04 1336.63 266.95 1335.05 267.122C1309.78 269.858 1217.92 285.428 1148.99 370.231C1085.93 447.822 1054.39 512.59 1043.63 537.157C1041.5 542.015 1045.39 547.37 1050.67 546.844C1081.95 543.729 1169.07 530.426 1205.52 477.247C1249.07 413.699 1271.32 309.805 1335.98 269.877Z" fill="url(#paint4_linear_690_2695)"/>
<path d="M1261.77 313.761C1261.77 313.761 1179.5 344.805 1050.21 537.928C1050.21 537.928 1190.43 350.725 1261.77 313.761Z" fill="white"/>
<path d="M571.926 592.711L553.91 754.284H762.923L735.699 592.711H571.926Z" fill="#6880E4"/>
<path d="M249.273 141.099C226.45 141.611 208.227 160.254 208.227 183.082V563.86C208.227 595.184 233.188 620.8 264.501 621.607C403.58 625.193 890.011 633.89 1022.4 631.938C1045.16 631.602 1063.59 613.393 1064.25 590.645C1066.8 502.185 1070.95 289.469 1055.6 190.712C1052.37 169.916 1034.82 154.364 1013.78 153.691C897.253 149.964 381.605 138.127 249.273 141.099Z" fill="#6880E4"/>
<path d="M258.555 155.427C244.059 155.074 232.117 166.729 232.117 181.229V542.994C232.117 561.283 246.798 576.185 265.085 576.459L1003.36 585.58C1021.49 585.851 1036.35 571.265 1036.42 553.133L1037.65 194.6C1037.7 181.635 1027.37 171.012 1014.41 170.697L258.555 155.427Z" fill="#EEEEFD"/>
<path d="M645.034 616.819C640.066 616.819 636.023 612.777 636.023 607.809C636.023 602.84 640.066 598.798 645.034 598.798C650.003 598.798 654.044 602.84 654.044 607.809C654.044 612.777 650.002 616.819 645.034 616.819ZM645.034 599.966C640.71 599.966 637.192 603.484 637.192 607.809C637.192 612.133 640.71 615.651 645.034 615.651C649.358 615.651 652.876 612.133 652.876 607.809C652.876 603.484 649.358 599.966 645.034 599.966Z" fill="white"/>
<path d="M807.947 787.341H502.042C493.731 787.341 487.49 781.424 489.097 775.07L493.023 759.546C494.203 754.877 499.339 751.45 505.439 751.259L800.343 742.057C806.716 741.858 812.359 745.241 813.748 750.093L820.824 774.819C822.662 781.243 816.391 787.341 807.947 787.341Z" fill="#6880E4"/>
<path d="M773.642 384.668H496.127C486.907 384.668 479.434 378.407 479.434 370.683V320.525C479.434 312.941 486.65 306.738 495.7 306.544L773.215 300.603C782.599 300.402 790.335 306.72 790.335 314.584V370.683C790.335 378.406 782.861 384.668 773.642 384.668Z" fill="#9391EC"/>
<path d="M773.643 387.523H496.127C485.348 387.523 476.578 379.968 476.578 370.682V320.525C476.578 311.311 484.951 303.917 495.64 303.689L773.154 297.746C778.966 297.589 784.495 299.701 788.328 303.453C791.464 306.522 793.191 310.475 793.191 314.584V370.682C793.192 379.968 784.422 387.523 773.643 387.523ZM773.651 303.453C773.526 303.453 773.402 303.454 773.277 303.457L495.762 309.399C488.334 309.557 482.29 314.549 482.29 320.525V370.682C482.29 376.818 488.497 381.811 496.127 381.811H773.642C781.272 381.811 787.479 376.818 787.479 370.682V314.584C787.479 311.304 785.768 308.94 784.332 307.536C781.671 304.93 777.795 303.453 773.651 303.453Z" fill="#9391EC"/>
<path d="M979.368 518.552L693.008 512.047C685.566 511.878 679.621 505.797 679.621 498.353V421.78C679.621 414.216 685.754 408.083 693.319 408.083H979.678C987.248 408.083 993.378 414.216 993.378 421.78V504.858C993.378 512.545 987.058 518.727 979.368 518.552Z" fill="#DFDEFF"/>
<path d="M676.77 578.9L997.37 583.032L994.41 552.285C993.82 546.143 988.77 541.391 982.599 541.178L691.611 531.104C684.943 530.873 679.308 536.004 678.914 542.664L676.77 578.9Z" fill="#DFDEFF"/>
<path d="M280.367 575.042L618.012 580.819L615.264 425.445C615.093 415.783 607.255 408.017 597.593 407.934L304.261 405.42C292.84 405.321 283.468 414.436 283.247 425.855L280.367 575.042Z" fill="#DFDEFF"/>
<path opacity="0.75" d="M597.426 210.789C597.426 200.515 589.182 192.142 578.909 191.983L531.036 191.241C520.535 191.079 511.938 199.546 511.938 210.048V250.845C511.938 261.352 520.545 269.82 531.049 269.651L578.922 268.879C589.19 268.713 597.427 260.342 597.427 250.073L597.426 210.789Z" fill="#DFDEFF"/>
<path opacity="0.75" d="M413.057 271.555L460.93 270.783C471.198 270.617 479.435 262.246 479.435 251.977V208.962C479.435 198.688 471.19 190.315 460.918 190.155L413.045 189.413C402.544 189.251 393.945 197.718 393.945 208.22V252.749C393.945 263.255 402.552 271.724 413.057 271.555Z" fill="#DFDEFF"/>
<path opacity="0.75" d="M983.602 212.546C983.602 204.616 977.232 198.154 969.312 198.031L648.231 193.057C638.168 192.901 629.926 201.016 629.926 211.081V249.736C629.926 259.805 638.175 267.922 648.243 267.76L969.312 262.579C977.242 262.451 983.602 255.99 983.602 248.064V212.546Z" fill="#DFDEFF"/>
<path opacity="0.75" d="M361.442 205.262C361.442 196.027 354.031 188.5 344.797 188.357L286.191 187.449C278.222 187.326 271.644 193.65 271.454 201.618L270.09 258.763C269.893 267.006 276.592 273.757 284.836 273.625L344.808 272.657C354.038 272.508 361.442 264.984 361.442 255.752V205.262Z" fill="#DFDEFF"/>
<path d="M629.651 467.91L645.246 350.954C645.665 347.811 641.692 344.633 638.718 345.733L528.05 386.654C525.524 387.587 525.622 391.024 528.235 393.114L543.647 405.439C545.628 407.024 546.26 409.527 545.059 411.03L477.191 495.891C475.989 497.393 476.622 499.896 478.603 501.481L528.5 541.386C530.481 542.97 533.061 543.037 534.263 541.535L602.132 456.673C603.333 455.171 605.914 455.238 607.895 456.822L623.308 469.149C625.921 471.239 629.295 470.58 629.651 467.91Z" fill="url(#paint5_linear_690_2695)"/>
<path d="M531.787 547.207C529.711 547.207 527.53 546.463 525.645 544.955L475.748 505.05C474.016 503.666 472.781 501.791 472.272 499.775C471.655 497.337 472.147 494.88 473.621 493.038L540.811 409.025C540.804 409.019 540.797 409.014 540.79 409.008L525.379 396.684C522.633 394.487 521.24 391.194 521.743 388.087C522.172 385.44 523.937 383.301 526.465 382.368L637.132 341.447C640.046 340.372 643.401 341.02 646.107 343.184C648.814 345.348 650.184 348.479 649.775 351.557L634.18 468.514C633.824 471.185 632.126 473.377 629.637 474.376C626.717 475.548 623.198 474.912 620.454 472.719L605.04 460.391C605.034 460.386 605.028 460.381 605.022 460.377L537.832 544.389C536.336 546.26 534.128 547.207 531.787 547.207ZM481.438 497.897C481.444 497.902 481.45 497.906 481.456 497.912L531.353 537.817C531.36 537.823 531.366 537.827 531.372 537.833L598.562 453.82C601.382 450.294 606.735 450.045 610.749 453.254L625.428 464.995L640.681 350.609C640.55 350.421 640.269 350.196 640.057 350.11L531.822 390.132L546.5 401.87C550.513 405.081 551.447 410.357 548.627 413.884L481.438 497.897ZM625.122 467.301C625.122 467.301 625.121 467.305 625.121 467.307L625.122 467.301Z" fill="url(#paint6_linear_690_2695)"/>
<path d="M741.172 292.301C762.354 292.301 779.524 275.13 779.524 253.949C779.524 232.767 762.354 215.597 741.172 215.597C719.991 215.597 702.82 232.767 702.82 253.949C702.82 275.13 719.991 292.301 741.172 292.301Z" fill="url(#paint7_linear_690_2695)"/>
<path d="M741.17 291.025C761.647 291.025 778.247 274.425 778.247 253.949C778.247 233.472 761.647 216.872 741.17 216.872C720.694 216.872 704.094 233.472 704.094 253.949C704.094 274.425 720.694 291.025 741.17 291.025Z" fill="url(#paint8_linear_690_2695)"/>
<path opacity="0.58" d="M710.599 239.131C710.511 239.131 710.421 239.111 710.337 239.068C710.049 238.923 709.933 238.571 710.078 238.284C716.04 226.474 727.955 219.139 741.173 219.139C743.283 219.139 745.396 219.328 747.452 219.704C747.77 219.762 747.98 220.066 747.922 220.384C747.864 220.701 747.563 220.914 747.243 220.853C745.255 220.491 743.213 220.307 741.173 220.307C728.398 220.307 716.883 227.397 711.121 238.81C711.019 239.013 710.813 239.131 710.599 239.131Z" fill="white"/>
<path opacity="0.7" d="M772.805 260.652C776.083 243.633 764.943 227.179 747.923 223.902C730.904 220.624 714.451 231.764 711.173 248.784C707.896 265.803 719.036 282.256 736.055 285.534C753.074 288.811 769.528 277.671 772.805 260.652Z" fill="url(#paint9_linear_690_2695)"/>
<path d="M738.898 278.085V274.672C735.339 274.529 731.819 273.689 729.319 272.595C728.426 272.204 727.971 271.202 728.227 270.262L729.094 267.082C729.412 265.915 730.681 265.311 731.796 265.779C734.277 266.819 737.339 267.641 740.641 267.641C744.069 267.641 746.626 266.479 746.626 264.097C746.626 261.947 744.65 260.669 739.886 259.391C733.088 257.532 728.207 254.568 728.207 248.584C728.207 243.18 732.159 239.055 739.015 237.951V234.537C739.015 233.438 739.906 232.548 741.004 232.548H743.01C744.108 232.548 744.999 233.438 744.999 234.537V237.603C748.292 237.735 750.69 238.297 752.592 238.966C753.566 239.309 754.099 240.358 753.829 241.356L753.031 244.297C752.724 245.431 751.512 246.052 750.413 245.637C748.661 244.974 746.185 244.285 742.965 244.285C738.898 244.285 737.736 245.97 737.736 247.48C737.736 249.339 740.177 250.618 745.464 252.245C753.017 254.511 756.155 257.649 756.155 263.284C756.155 268.455 752.32 273.104 744.883 274.266V278.086C744.883 279.185 743.992 280.075 742.894 280.075H740.887C739.789 280.075 738.898 279.184 738.898 278.085Z" fill="white"/>
<path d="M829.246 236.057C856.093 236.057 877.856 214.294 877.856 187.447C877.856 160.601 856.093 138.838 829.246 138.838C802.4 138.838 780.637 160.601 780.637 187.447C780.637 214.294 802.4 236.057 829.246 236.057Z" fill="url(#paint10_linear_690_2695)"/>
<path d="M829.248 234.44C855.201 234.44 876.241 213.4 876.241 187.447C876.241 161.493 855.201 140.453 829.248 140.453C803.294 140.453 782.254 161.493 782.254 187.447C782.254 213.4 803.294 234.44 829.248 234.44Z" fill="url(#paint11_linear_690_2695)"/>
<path opacity="0.58" d="M790.494 168.51C790.405 168.51 790.315 168.49 790.231 168.448C789.943 168.302 789.827 167.95 789.973 167.663C797.502 152.748 812.549 143.482 829.245 143.482C831.91 143.482 834.578 143.722 837.176 144.196C837.493 144.254 837.703 144.558 837.645 144.876C837.588 145.193 837.283 145.408 836.966 145.345C834.438 144.885 831.84 144.651 829.245 144.651C812.993 144.651 798.345 153.671 791.016 168.189C790.913 168.393 790.707 168.51 790.494 168.51Z" fill="white"/>
<path opacity="0.7" d="M869.757 193.343C872.442 171.541 856.944 151.691 835.142 149.006C813.34 146.322 793.49 161.82 790.806 183.622C788.121 205.424 803.619 225.274 825.421 227.958C847.223 230.642 867.073 215.144 869.757 193.343Z" fill="url(#paint12_linear_690_2695)"/>
<path d="M826.369 218.039V213.712C821.858 213.532 817.396 212.467 814.227 211.08C813.096 210.584 812.519 209.315 812.844 208.122L813.943 204.091C814.347 202.613 815.955 201.848 817.368 202.44C820.512 203.758 824.393 204.801 828.579 204.801C832.924 204.801 836.164 203.328 836.164 200.308C836.164 197.584 833.66 195.964 827.622 194.344C819.006 191.987 812.819 188.232 812.819 180.646C812.819 173.797 817.827 168.569 826.517 167.17V162.842C826.517 161.45 827.646 160.321 829.038 160.321H831.581C832.973 160.321 834.102 161.45 834.102 162.842V166.728C838.276 166.895 841.314 167.609 843.726 168.456C844.961 168.89 845.636 170.221 845.293 171.485L844.283 175.212C843.893 176.65 842.356 177.437 840.963 176.91C838.743 176.071 835.605 175.197 831.524 175.197C826.369 175.197 824.897 177.332 824.897 179.247C824.897 181.603 827.99 183.223 834.691 185.285C844.264 188.157 848.241 192.134 848.241 199.277C848.241 205.831 843.381 211.723 833.955 213.196V218.039C833.955 219.431 832.826 220.56 831.433 220.56H828.891C827.498 220.561 826.369 219.432 826.369 218.039Z" fill="white"/>
<path d="M852.542 304.83C868.68 304.83 881.763 291.747 881.763 275.608C881.763 259.47 868.68 246.387 852.542 246.387C836.403 246.387 823.32 259.47 823.32 275.608C823.32 291.747 836.403 304.83 852.542 304.83Z" fill="url(#paint13_linear_690_2695)"/>
<path d="M852.539 303.858C868.141 303.858 880.789 291.21 880.789 275.608C880.789 260.006 868.141 247.358 852.539 247.358C836.937 247.358 824.289 260.006 824.289 275.608C824.289 291.21 836.937 303.858 852.539 303.858Z" fill="url(#paint14_linear_690_2695)"/>
<path opacity="0.58" d="M829.244 264.458C829.155 264.458 829.065 264.438 828.981 264.396C828.693 264.25 828.577 263.899 828.723 263.611C833.288 254.566 842.414 248.947 852.539 248.947C854.156 248.947 855.774 249.093 857.349 249.38C857.666 249.438 857.876 249.742 857.818 250.06C857.76 250.377 857.454 250.589 857.139 250.529C855.634 250.255 854.086 250.116 852.539 250.116C842.858 250.116 834.132 255.488 829.766 264.137C829.663 264.34 829.457 264.458 829.244 264.458Z" fill="white"/>
<path opacity="0.7" d="M862.332 298.306C874.533 293.252 880.326 279.265 875.273 267.065C870.219 254.866 856.232 249.072 844.032 254.126C831.832 259.18 826.038 273.166 831.092 285.366C836.145 297.566 850.132 303.36 862.332 298.306Z" fill="url(#paint15_linear_690_2695)"/>
<path d="M850.81 293.998V291.397C848.097 291.289 845.416 290.649 843.511 289.815C842.831 289.517 842.484 288.754 842.679 288.037L843.34 285.615C843.582 284.726 844.549 284.266 845.399 284.622C847.289 285.414 849.622 286.041 852.138 286.041C854.75 286.041 856.698 285.155 856.698 283.341C856.698 281.703 855.193 280.729 851.563 279.755C846.383 278.338 842.665 276.081 842.665 271.521C842.665 267.404 845.675 264.261 850.899 263.42V260.818C850.899 259.981 851.577 259.303 852.415 259.303H853.943C854.78 259.303 855.458 259.981 855.458 260.818V263.154C857.968 263.254 859.794 263.683 861.244 264.193C861.986 264.454 862.392 265.254 862.186 266.013L861.578 268.254C861.344 269.119 860.42 269.592 859.583 269.275C858.249 268.77 856.362 268.245 853.909 268.245C850.81 268.245 849.925 269.529 849.925 270.68C849.925 272.096 851.784 273.07 855.813 274.31C861.568 276.037 863.959 278.427 863.959 282.721C863.959 286.661 861.037 290.203 855.37 291.088V293.999C855.37 294.836 854.692 295.515 853.855 295.515H852.326C851.488 295.515 850.81 294.836 850.81 293.998Z" fill="white"/>
<path d="M935.722 291.826C963.812 291.826 986.592 269.051 986.592 240.956C986.592 212.862 963.812 190.087 935.722 190.087C907.627 190.087 884.852 212.862 884.852 240.956C884.852 269.051 907.627 291.826 935.722 291.826Z" fill="url(#paint16_linear_690_2695)"/>
<path d="M935.721 290.134C962.881 290.134 984.901 268.117 984.901 240.957C984.901 213.797 962.881 191.779 935.721 191.779C908.56 191.779 886.543 213.797 886.543 240.957C886.543 268.117 908.56 290.134 935.721 290.134Z" fill="url(#paint17_linear_690_2695)"/>
<path opacity="0.58" d="M895.165 221.112C895.077 221.112 894.987 221.092 894.903 221.05C894.615 220.904 894.499 220.552 894.645 220.265C902.519 204.666 918.257 194.975 935.719 194.975C938.509 194.975 941.299 195.227 944.009 195.722C944.329 195.779 944.539 196.083 944.479 196.4C944.429 196.718 944.119 196.932 943.799 196.871C941.159 196.389 938.439 196.144 935.719 196.144C918.701 196.144 903.362 205.588 895.688 220.791C895.585 220.995 895.379 221.112 895.165 221.112Z" fill="white"/>
<path opacity="0.7" d="M936.79 283.649C959.78 283.649 978.41 265.014 978.41 242.027C978.41 219.039 959.78 200.404 936.79 200.404C913.803 200.404 895.168 219.039 895.168 242.027C895.168 265.014 913.803 283.649 936.79 283.649Z" fill="url(#paint18_linear_690_2695)"/>
<path d="M932.709 272.97V268.442C927.989 268.252 923.315 267.139 919.999 265.687C918.815 265.169 918.211 263.84 918.551 262.592L919.702 258.374C920.123 256.827 921.807 256.027 923.285 256.646C926.579 258.026 930.639 259.117 935.019 259.117C939.559 259.117 942.959 257.575 942.959 254.415C942.959 251.564 940.329 249.869 934.019 248.173C924.998 245.707 918.525 241.776 918.525 233.839C918.525 226.671 923.766 221.2 932.859 219.736V215.207C932.859 213.75 934.039 212.568 935.499 212.568H938.159C939.619 212.568 940.799 213.75 940.799 215.207V219.273C945.169 219.448 948.349 220.195 950.869 221.081C952.159 221.535 952.869 222.928 952.509 224.251L951.449 228.152C951.039 229.656 949.439 230.48 947.979 229.928C945.659 229.05 942.369 228.135 938.099 228.135C932.709 228.135 931.159 230.37 931.159 232.374C931.159 234.84 934.399 236.536 941.409 238.693C951.429 241.699 955.589 245.86 955.589 253.336C955.589 260.195 950.509 266.359 940.639 267.901V272.969C940.639 274.426 939.459 275.607 938.009 275.607H935.339C933.889 275.609 932.709 274.427 932.709 272.97Z" fill="white"/>
<path d="M970.799 406.918C999.709 406.918 1023.15 383.483 1023.15 354.574C1023.15 325.666 999.709 302.23 970.799 302.23C941.889 302.23 918.457 325.666 918.457 354.574C918.457 383.483 941.889 406.918 970.799 406.918Z" fill="url(#paint19_linear_690_2695)"/>
<path d="M970.8 405.178C998.75 405.178 1021.41 382.522 1021.41 354.575C1021.41 326.627 998.75 303.972 970.8 303.972C942.85 303.972 920.199 326.627 920.199 354.575C920.199 382.522 942.85 405.178 970.8 405.178Z" fill="url(#paint20_linear_690_2695)"/>
<path opacity="0.58" d="M929.081 334.137C928.991 334.137 928.901 334.117 928.811 334.075C928.531 333.929 928.411 333.577 928.561 333.29C936.651 317.244 952.841 307.277 970.801 307.277C973.671 307.277 976.541 307.535 979.341 308.046C979.651 308.103 979.861 308.407 979.811 308.725C979.751 309.042 979.451 309.257 979.131 309.195C976.401 308.698 973.601 308.446 970.801 308.446C953.291 308.446 937.501 318.168 929.601 333.817C929.491 334.02 929.291 334.137 929.081 334.137Z" fill="white"/>
<path opacity="0.7" d="M1002.18 385.965C1018.91 369.24 1018.91 342.122 1002.18 325.396C985.451 308.67 958.341 308.67 941.611 325.396C924.885 342.122 924.885 369.24 941.611 385.965C958.341 402.691 985.451 402.691 1002.18 385.965Z" fill="url(#paint21_linear_690_2695)"/>
<path d="M967.7 387.517V382.857C962.84 382.663 958.04 381.516 954.63 380.023C953.41 379.489 952.79 378.121 953.14 376.838L954.32 372.498C954.75 370.906 956.49 370.082 958.01 370.72C961.39 372.139 965.57 373.262 970.08 373.262C974.76 373.262 978.25 371.676 978.25 368.425C978.25 365.491 975.55 363.747 969.05 362.002C959.77 359.465 953.11 355.42 953.11 347.252C953.11 339.878 958.5 334.247 967.86 332.741V328.081C967.86 326.582 969.08 325.366 970.57 325.366H973.31C974.81 325.366 976.03 326.582 976.03 328.081V332.265C980.52 332.445 983.79 333.214 986.39 334.126C987.72 334.593 988.45 336.026 988.08 337.387L986.99 341.401C986.57 342.949 984.92 343.797 983.42 343.229C981.03 342.325 977.65 341.384 973.25 341.384C967.7 341.384 966.12 343.683 966.12 345.745C966.12 348.282 969.45 350.027 976.66 352.248C986.97 355.34 991.25 359.623 991.25 367.315C991.25 374.372 986.02 380.716 975.87 382.302V387.517C975.87 389.016 974.65 390.232 973.15 390.232H970.42C968.92 390.232 967.7 389.016 967.7 387.517Z" fill="white"/>
<path d="M1105.66 421.371C1133.75 421.371 1156.53 398.596 1156.53 370.501C1156.53 342.407 1133.75 319.632 1105.66 319.632C1077.56 319.632 1054.79 342.407 1054.79 370.501C1054.79 398.596 1077.56 421.371 1105.66 421.371Z" fill="url(#paint22_linear_690_2695)"/>
<path d="M1105.66 419.679C1132.82 419.679 1154.83 397.661 1154.83 370.502C1154.83 343.342 1132.82 321.324 1105.66 321.324C1078.5 321.324 1056.48 343.342 1056.48 370.502C1056.48 397.661 1078.5 419.679 1105.66 419.679Z" fill="url(#paint23_linear_690_2695)"/>
<path opacity="0.58" d="M1065.1 350.658C1065.02 350.658 1064.93 350.638 1064.84 350.595C1064.55 350.449 1064.44 350.097 1064.58 349.81C1072.46 334.211 1088.2 324.52 1105.66 324.52C1108.44 324.52 1111.23 324.772 1113.95 325.267C1114.27 325.325 1114.48 325.629 1114.42 325.947C1114.36 326.264 1114.06 326.478 1113.74 326.416C1111.09 325.934 1108.37 325.689 1105.66 325.689C1088.64 325.689 1073.3 335.133 1065.63 350.336C1065.52 350.54 1065.32 350.658 1065.1 350.658Z" fill="white"/>
<path opacity="0.7" d="M1122.69 410.018C1143.93 401.221 1154.01 376.872 1145.22 355.634C1136.42 334.396 1112.07 324.311 1090.83 333.108C1069.59 341.905 1059.51 366.254 1068.3 387.492C1077.1 408.73 1101.45 418.816 1122.69 410.018Z" fill="url(#paint24_linear_690_2695)"/>
<path d="M1102.64 402.516V397.988C1097.92 397.798 1093.25 396.685 1089.94 395.233C1088.75 394.715 1088.15 393.386 1088.49 392.138L1089.64 387.92C1090.06 386.373 1091.75 385.572 1093.22 386.192C1096.51 387.571 1100.58 388.663 1104.96 388.663C1109.5 388.663 1112.89 387.121 1112.89 383.961C1112.89 381.11 1110.27 379.415 1103.95 377.719C1094.94 375.253 1088.46 371.322 1088.46 363.385C1088.46 356.217 1093.7 350.746 1102.8 349.282V344.753C1102.8 343.296 1103.98 342.114 1105.44 342.114H1108.1C1109.55 342.114 1110.74 343.296 1110.74 344.753V348.819C1115.1 348.994 1118.28 349.741 1120.81 350.627C1122.1 351.081 1122.81 352.474 1122.45 353.797L1121.39 357.698C1120.98 359.202 1119.37 360.026 1117.92 359.474C1115.59 358.596 1112.31 357.681 1108.04 357.681C1102.64 357.681 1101.1 359.916 1101.1 361.92C1101.1 364.386 1104.34 366.082 1111.35 368.24C1121.37 371.245 1125.53 375.407 1125.53 382.882C1125.53 389.741 1120.45 395.906 1110.58 397.448V402.516C1110.58 403.973 1109.4 405.154 1107.94 405.154H1105.28C1103.82 405.155 1102.64 403.973 1102.64 402.516Z" fill="white"/>
<path d="M1036.1 482.325C1057.28 482.325 1074.45 465.154 1074.45 443.973C1074.45 422.792 1057.28 405.621 1036.1 405.621C1014.92 405.621 997.75 422.792 997.75 443.973C997.75 465.154 1014.92 482.325 1036.1 482.325Z" fill="url(#paint25_linear_690_2695)"/>
<path d="M1036.1 481.05C1056.58 481.05 1073.18 464.45 1073.18 443.973C1073.18 423.496 1056.58 406.896 1036.1 406.896C1015.62 406.896 999.02 423.496 999.02 443.973C999.02 464.45 1015.62 481.05 1036.1 481.05Z" fill="url(#paint26_linear_690_2695)"/>
<path opacity="0.58" d="M1005.53 429.155C1005.44 429.155 1005.35 429.135 1005.27 429.092C1004.98 428.947 1004.86 428.595 1005.01 428.308C1010.97 416.498 1022.88 409.162 1036.1 409.162C1038.21 409.162 1040.32 409.352 1042.38 409.728C1042.7 409.785 1042.91 410.089 1042.85 410.407C1042.79 410.725 1042.49 410.937 1042.17 410.877C1040.18 410.515 1038.14 410.331 1036.1 410.331C1023.33 410.331 1011.81 417.421 1006.05 428.833C1005.95 429.038 1005.74 429.155 1005.53 429.155Z" fill="white"/>
<path opacity="0.7" d="M1067.74 450.662C1071.02 433.643 1059.88 417.19 1042.86 413.912C1025.84 410.635 1009.39 421.775 1006.11 438.794C1002.83 455.813 1013.97 472.267 1030.99 475.544C1048.01 478.822 1064.46 467.682 1067.74 450.662Z" fill="url(#paint27_linear_690_2695)"/>
<path d="M1033.83 468.11V464.696C1030.27 464.553 1026.75 463.713 1024.25 462.619C1023.36 462.228 1022.9 461.226 1023.16 460.286L1024.03 457.106C1024.34 455.939 1025.61 455.336 1026.73 455.804C1029.21 456.844 1032.27 457.666 1035.57 457.666C1039 457.666 1041.56 456.504 1041.56 454.122C1041.56 451.972 1039.58 450.694 1034.82 449.416C1028.02 447.557 1023.14 444.593 1023.14 438.608C1023.14 433.205 1027.09 429.079 1033.95 427.976V424.561C1033.95 423.463 1034.84 422.572 1035.94 422.572H1037.94C1039.04 422.572 1039.93 423.463 1039.93 424.561V427.627C1043.22 427.759 1045.62 428.322 1047.52 428.991C1048.5 429.333 1049.03 430.383 1048.76 431.38L1047.96 434.321C1047.66 435.455 1046.44 436.077 1045.34 435.661C1043.59 434.998 1041.12 434.309 1037.9 434.309C1033.83 434.309 1032.67 435.994 1032.67 437.505C1032.67 439.364 1035.11 440.642 1040.4 442.269C1047.95 444.535 1051.09 447.672 1051.09 453.309C1051.09 458.48 1047.25 463.128 1039.81 464.29V468.11C1039.81 469.209 1038.92 470.1 1037.82 470.1H1035.82C1034.72 470.099 1033.83 469.208 1033.83 468.11Z" fill="white"/>
<path d="M1037.95 321.624C1059.13 321.624 1076.3 304.453 1076.3 283.272C1076.3 262.091 1059.13 244.92 1037.95 244.92C1016.77 244.92 999.602 262.091 999.602 283.272C999.602 304.453 1016.77 321.624 1037.95 321.624Z" fill="url(#paint28_linear_690_2695)"/>
<path d="M1037.95 320.348C1058.43 320.348 1075.03 303.749 1075.03 283.272C1075.03 262.795 1058.43 246.195 1037.95 246.195C1017.48 246.195 1000.88 262.795 1000.88 283.272C1000.88 303.749 1017.48 320.348 1037.95 320.348Z" fill="url(#paint29_linear_690_2695)"/>
<path opacity="0.58" d="M1007.38 268.454C1007.29 268.454 1007.2 268.434 1007.12 268.391C1006.83 268.246 1006.71 267.894 1006.86 267.607C1012.82 255.798 1024.73 248.462 1037.95 248.462C1040.06 248.462 1042.18 248.652 1044.23 249.027C1044.55 249.085 1044.76 249.389 1044.7 249.707C1044.64 250.025 1044.34 250.237 1044.02 250.177C1042.04 249.814 1039.99 249.63 1037.95 249.63C1025.18 249.63 1013.66 256.721 1007.9 268.133C1007.8 268.337 1007.59 268.454 1007.38 268.454Z" fill="white"/>
<path opacity="0.7" d="M1050.8 313.062C1066.81 306.429 1074.41 288.072 1067.78 272.06C1061.15 256.047 1042.79 248.444 1026.78 255.076C1010.77 261.709 1003.16 280.066 1009.8 296.079C1016.43 312.091 1034.79 319.695 1050.8 313.062Z" fill="url(#paint30_linear_690_2695)"/>
<path d="M1035.68 307.409V303.995C1032.12 303.852 1028.6 303.012 1026.1 301.918C1025.21 301.527 1024.75 300.525 1025.01 299.585L1025.88 296.405C1026.19 295.238 1027.46 294.635 1028.58 295.103C1031.06 296.143 1034.12 296.965 1037.42 296.965C1040.85 296.965 1043.41 295.803 1043.41 293.421C1043.41 291.271 1041.43 289.993 1036.67 288.715C1029.87 286.856 1024.99 283.892 1024.99 277.907C1024.99 272.504 1028.94 268.378 1035.8 267.275V263.86C1035.8 262.762 1036.69 261.871 1037.79 261.871H1039.79C1040.89 261.871 1041.78 262.762 1041.78 263.86V266.926C1045.07 267.058 1047.47 267.621 1049.37 268.289C1050.35 268.632 1050.88 269.682 1050.61 270.679L1049.81 273.62C1049.51 274.754 1048.29 275.375 1047.19 274.96C1045.44 274.297 1042.97 273.608 1039.75 273.608C1035.68 273.608 1034.52 275.293 1034.52 276.804C1034.52 278.663 1036.96 279.941 1042.25 281.568C1049.8 283.834 1052.94 286.971 1052.94 292.607C1052.94 297.779 1049.1 302.427 1041.66 303.589V307.41C1041.66 308.508 1040.77 309.399 1039.67 309.399H1037.67C1036.57 309.399 1035.68 308.508 1035.68 307.409Z" fill="white"/>
<path d="M1118.05 541.646C1139.24 541.646 1156.41 524.476 1156.41 503.294C1156.41 482.113 1139.24 464.942 1118.05 464.942C1096.87 464.942 1079.7 482.113 1079.7 503.294C1079.7 524.476 1096.87 541.646 1118.05 541.646Z" fill="url(#paint31_linear_690_2695)"/>
<path d="M1118.05 540.372C1138.53 540.372 1155.13 523.772 1155.13 503.295C1155.13 482.818 1138.53 466.219 1118.05 466.219C1097.58 466.219 1080.98 482.818 1080.98 503.295C1080.98 523.772 1097.58 540.372 1118.05 540.372Z" fill="url(#paint32_linear_690_2695)"/>
<path opacity="0.58" d="M1087.48 488.477C1087.39 488.477 1087.3 488.458 1087.22 488.415C1086.93 488.269 1086.81 487.918 1086.96 487.63C1092.92 475.821 1104.84 468.485 1118.05 468.485C1120.16 468.485 1122.28 468.675 1124.33 469.05C1124.65 469.108 1124.86 469.412 1124.8 469.729C1124.75 470.047 1124.44 470.261 1124.13 470.199C1122.14 469.838 1120.09 469.654 1118.05 469.654C1105.28 469.654 1093.76 476.744 1088 488.157C1087.9 488.36 1087.69 488.477 1087.48 488.477Z" fill="white"/>
<path opacity="0.7" d="M1149.43 511.4C1153.41 494.534 1142.97 477.632 1126.1 473.649C1109.23 469.666 1092.33 480.111 1088.35 496.978C1084.37 513.844 1094.81 530.746 1111.68 534.729C1128.54 538.711 1145.45 528.267 1149.43 511.4Z" fill="url(#paint33_linear_690_2695)"/>
<path d="M1115.78 527.431V524.016C1112.22 523.874 1108.7 523.034 1106.2 521.939C1105.31 521.549 1104.85 520.547 1105.11 519.607L1105.98 516.426C1106.3 515.26 1107.57 514.656 1108.68 515.124C1111.16 516.164 1114.22 516.987 1117.53 516.987C1120.95 516.987 1123.51 515.825 1123.51 513.442C1123.51 511.293 1121.53 510.014 1116.77 508.736C1109.97 506.877 1105.09 503.914 1105.09 497.929C1105.09 492.525 1109.04 488.4 1115.9 487.296V483.882C1115.9 482.783 1116.79 481.892 1117.89 481.892H1119.89C1120.99 481.892 1121.88 482.783 1121.88 483.882V486.947C1125.18 487.079 1127.57 487.643 1129.48 488.311C1130.45 488.653 1130.98 489.703 1130.71 490.701L1129.92 493.642C1129.61 494.776 1128.4 495.397 1127.3 494.981C1125.54 494.319 1123.07 493.629 1119.85 493.629C1115.78 493.629 1114.62 495.314 1114.62 496.825C1114.62 498.684 1117.06 499.962 1122.35 501.589C1129.9 503.855 1133.04 506.993 1133.04 512.628C1133.04 517.799 1129.2 522.448 1121.77 523.61V527.431C1121.77 528.529 1120.88 529.42 1119.78 529.42H1117.77C1116.67 529.42 1115.78 528.53 1115.78 527.431Z" fill="white"/>
<path d="M897.751 496.094C925.12 496.094 947.309 473.907 947.309 446.538C947.309 419.169 925.12 396.982 897.751 396.982C870.382 396.982 848.195 419.169 848.195 446.538C848.195 473.907 870.382 496.094 897.751 496.094Z" fill="url(#paint34_linear_690_2695)"/>
<path d="M897.752 494.447C924.211 494.447 945.66 472.997 945.66 446.538C945.66 420.079 924.211 398.63 897.752 398.63C871.293 398.63 849.844 420.079 849.844 446.538C849.844 472.997 871.293 494.447 897.752 494.447Z" fill="url(#paint35_linear_690_2695)"/>
<path opacity="0.58" d="M858.247 427.221C858.159 427.221 858.069 427.201 857.985 427.158C857.697 427.013 857.581 426.661 857.727 426.374C865.4 411.172 880.737 401.728 897.753 401.728C900.467 401.728 903.187 401.973 905.836 402.456C906.154 402.514 906.365 402.817 906.307 403.135C906.249 403.453 905.944 403.669 905.628 403.605C903.047 403.135 900.398 402.897 897.753 402.897C881.181 402.897 866.243 412.094 858.77 426.899C858.667 427.103 858.461 427.221 858.247 427.221Z" fill="white"/>
<path opacity="0.7" d="M898.795 488.132C921.189 488.132 939.339 469.977 939.339 447.583C939.339 425.188 921.189 407.034 898.795 407.034C876.4 407.034 858.246 425.188 858.246 447.583C858.246 469.977 876.4 488.132 898.795 488.132Z" fill="url(#paint36_linear_690_2695)"/>
<path d="M894.818 477.727V473.315C890.219 473.131 885.671 472.046 882.44 470.631C881.286 470.126 880.698 468.831 881.029 467.617L882.15 463.507C882.561 462 884.201 461.22 885.641 461.824C888.846 463.168 892.803 464.23 897.07 464.23C901.5 464.23 904.803 462.729 904.803 459.65C904.803 456.873 902.251 455.221 896.095 453.57C887.311 451.167 881.004 447.338 881.004 439.606C881.004 432.623 886.109 427.293 894.968 425.867V421.454C894.968 420.035 896.119 418.884 897.539 418.884H900.13C901.55 418.884 902.701 420.035 902.701 421.454V425.416C906.957 425.586 910.054 426.314 912.512 427.177C913.772 427.62 914.46 428.976 914.111 430.265L913.08 434.065C912.683 435.531 911.117 436.333 909.696 435.796C907.433 434.94 904.233 434.049 900.073 434.049C894.818 434.049 893.316 436.226 893.316 438.178C893.316 440.581 896.47 442.232 903.301 444.334C913.061 447.262 917.115 451.316 917.115 458.599C917.115 465.281 912.16 471.287 902.55 472.788V477.725C902.55 479.145 901.399 480.296 899.98 480.296H897.387C895.968 480.298 894.818 479.147 894.818 477.727Z" fill="white"/>
<path d="M354.281 487.233C354.022 487.723 337.734 499.708 337.734 499.708C337.734 499.708 341.332 525.442 355.939 535.604C371.998 546.776 394.678 526.401 394.678 526.401C394.678 526.401 412.728 530.692 422.326 493.12C424.528 484.5 411.817 483.772 396.475 485.359C376.69 487.407 354.281 487.233 354.281 487.233Z" fill="#1C056D"/>
<path d="M323.836 575.028C330.208 570.646 337.253 567.343 344.723 565.31C347.528 564.547 362.676 568.95 372.04 568.734C384.894 568.439 397.978 562.589 408.573 565.229C419.098 567.852 427.712 571.278 432.685 574.816C447.573 585.404 456.314 605.148 461.641 624.705C451.554 635.058 438.862 639.66 438.862 639.66L436.516 734.721L380.304 763.481L316.145 731.27L318.444 638.372C318.444 638.372 298.07 628.884 296.575 625.433C295.081 621.982 305.86 587.387 323.836 575.028Z" fill="#B5A7E9"/>
<path d="M297.527 625.018C297.527 625.018 270.225 700.709 332.483 731.819C345.41 730.101 340.438 708.633 340.438 708.633C340.438 708.633 313.387 702.647 321.511 639.505C314.032 633.352 297.527 625.018 297.527 625.018Z" fill="#FFB7D6"/>
<path d="M460.328 625.018C460.328 625.018 479.114 704.03 425.371 731.819C412.445 730.101 417.416 708.633 417.416 708.633C417.416 708.633 439.219 697.896 436.344 639.505C443.824 633.352 460.328 625.018 460.328 625.018Z" fill="#FFB7D6"/>
<path d="M433.801 737.134H320.275C317.597 737.134 315.406 734.943 315.406 732.265V658.758C315.406 656.079 317.597 653.889 320.275 653.889H433.801C436.479 653.889 438.67 656.079 438.67 658.758V732.265C438.671 734.943 436.479 737.134 433.801 737.134Z" fill="#6880E4"/>
<path d="M492.737 761.813C478.631 758.575 446.026 760.316 446.026 760.316L444.7 763.907L442.504 781.758C442.504 781.758 473.553 787.354 488.858 787.341C490.42 787.34 491.848 787.105 493.152 786.699C493.619 786.28 494.076 785.846 494.507 785.375C501.001 778.283 499.126 767.866 492.737 761.813Z" fill="#517FC4"/>
<path d="M436.659 759.311L442.18 759.547C445.147 759.674 447.942 761.119 449.936 763.557C451.931 765.995 452.956 769.221 452.781 772.508C452.642 775.128 451.567 777.579 449.794 779.318C448.021 781.056 445.696 781.939 443.334 781.771L434.887 781.17L436.659 759.311Z" fill="#FFB7D6"/>
<path d="M251.017 760.096C265.199 757.292 297.747 760.032 297.747 760.032L298.983 763.663L300.733 781.574C300.733 781.574 269.556 786.215 254.257 785.733C252.696 785.684 251.275 785.406 249.981 784.959C249.525 784.526 249.08 784.078 248.66 783.594C242.346 776.306 244.48 765.95 251.017 760.096Z" fill="#517FC4"/>
<path d="M307.139 759.315L301.614 759.381C298.646 759.417 295.816 760.776 293.761 763.152C291.707 765.528 290.601 768.722 290.693 772.012C290.766 774.636 291.78 777.118 293.509 778.911C295.239 780.703 297.541 781.657 299.906 781.561L308.365 781.22L307.139 759.315Z" fill="#FFB7D6"/>
<path d="M496.683 705.854C490.285 691.13 474.638 688.74 461.321 695.624C461.089 695.929 376.749 739.154 302.371 758.099C304.5 764.925 305.595 772.188 305.834 779.328C305.877 780.918 305.85 782.487 305.757 784.035C362.795 781.105 424.697 762.084 477.89 745.367C494.384 740.048 503.773 722.173 496.683 705.854Z" fill="#3A376B"/>
<path d="M437.066 780.447C436.844 772.218 438.443 764.557 441.866 757.464C441.964 757.14 442.081 756.828 442.184 756.507C437.937 755.192 432.45 753.409 425.242 750.964C372.426 732.889 332.134 714.638 293.679 693.629C278.74 685.467 261.754 690.937 256.972 708.614C252.703 724.394 262.078 737.867 276.306 742.601C318.873 756.766 296.71 752.832 310.612 757.306C347.948 768.851 394.408 779.368 437.154 782.239C437.123 781.641 437.086 781.043 437.066 780.447Z" fill="#3A376B"/>
<path d="M344.723 565.31C344.723 565.31 350.403 589.926 377.981 589.415C406.069 588.903 408.573 565.23 408.573 565.23L390.225 561.304L388.692 540.859L361.092 542.904L360.581 562.325L344.723 565.31Z" fill="#FFB7D6"/>
<path d="M364.966 482.933C364.966 482.933 333.337 544.201 370.857 559.066C397.321 569.55 413.914 518.379 408.965 504.52C401.313 483.09 396.274 485.633 396.274 485.633L364.966 482.933Z" fill="#FFB7D6"/>
<path d="M416.578 477.359C432.204 481.654 418.85 515.542 395.325 507.528C371.799 499.514 362.555 499.631 358.889 506.091C355.223 512.551 354.435 535.491 346.481 524.152C337.761 511.721 332.898 486.769 343.59 478.726C353.146 471.538 355.376 460.392 366.837 460.778C382.05 461.291 393.814 454.548 400.681 459.41C408.568 464.996 405.081 474.199 416.578 477.359Z" fill="#1C056D"/>
<path d="M357.443 511.36C357.443 511.36 350.697 504.102 349.617 512.85C348.538 521.598 352.004 532.864 356.066 526.689C360.127 520.513 357.443 511.36 357.443 511.36Z" fill="#FFB7D6"/>
<path d="M384.309 676.433C384.962 680.849 382.596 684.858 378.179 685.511C373.763 686.165 369.653 683.114 368.999 678.698C368.345 674.281 370.367 669.895 374.784 669.241C379.201 668.588 383.655 672.016 384.309 676.433Z" fill="white"/>
<defs>
<linearGradient id="paint0_linear_690_2695" x1="7.94403e-05" y1="613.067" x2="320.021" y2="613.067" gradientUnits="userSpaceOnUse">
<stop stop-color="#9942FF"/>
<stop offset="1" stop-color="#4D6DFF"/>
</linearGradient>
<linearGradient id="paint1_linear_690_2695" x1="12.2461" y1="443.829" x2="250.279" y2="443.829" gradientUnits="userSpaceOnUse">
<stop stop-color="#9942FF"/>
<stop offset="1" stop-color="#4D6DFF"/>
</linearGradient>
<linearGradient id="paint2_linear_690_2695" x1="1046.46" y1="324.891" x2="1199.59" y2="324.891" gradientUnits="userSpaceOnUse">
<stop stop-color="#9942FF"/>
<stop offset="1" stop-color="#4D6DFF"/>
</linearGradient>
<linearGradient id="paint3_linear_690_2695" x1="977.091" y1="261.872" x2="1094.56" y2="261.872" gradientUnits="userSpaceOnUse">
<stop stop-color="#9942FF"/>
<stop offset="1" stop-color="#4D6DFF"/>
</linearGradient>
<linearGradient id="paint4_linear_690_2695" x1="1043.04" y1="406.997" x2="1336.7" y2="406.997" gradientUnits="userSpaceOnUse">
<stop stop-color="#9942FF"/>
<stop offset="1" stop-color="#4D6DFF"/>
</linearGradient>
<linearGradient id="paint5_linear_690_2695" x1="476.582" y1="444.065" x2="645.277" y2="444.065" gradientUnits="userSpaceOnUse">
<stop stop-color="#9942FF"/>
<stop offset="1" stop-color="#FC067D"/>
</linearGradient>
<linearGradient id="paint6_linear_690_2695" x1="472.012" y1="444.072" x2="649.846" y2="444.072" gradientUnits="userSpaceOnUse">
<stop stop-color="#9942FF"/>
<stop offset="1" stop-color="#FC067D"/>
</linearGradient>
<linearGradient id="paint7_linear_690_2695" x1="702.82" y1="253.949" x2="779.524" y2="253.949" gradientUnits="userSpaceOnUse">
<stop stop-color="#FB9004"/>
<stop offset="1" stop-color="#FC067D"/>
</linearGradient>
<linearGradient id="paint8_linear_690_2695" x1="704.094" y1="253.949" x2="778.247" y2="253.949" gradientUnits="userSpaceOnUse">
<stop stop-color="#FB9004"/>
<stop offset="1" stop-color="#FC067D"/>
</linearGradient>
<linearGradient id="paint9_linear_690_2695" x1="736.055" y1="285.534" x2="747.923" y2="223.902" gradientUnits="userSpaceOnUse">
<stop stop-color="#FB9004"/>
<stop offset="1" stop-color="#FC067D"/>
</linearGradient>
<linearGradient id="paint10_linear_690_2695" x1="780.637" y1="187.447" x2="877.856" y2="187.447" gradientUnits="userSpaceOnUse">
<stop stop-color="#FB9004"/>
<stop offset="1" stop-color="#FC067D"/>
</linearGradient>
<linearGradient id="paint11_linear_690_2695" x1="782.254" y1="187.447" x2="876.241" y2="187.447" gradientUnits="userSpaceOnUse">
<stop stop-color="#FB9004"/>
<stop offset="1" stop-color="#FC067D"/>
</linearGradient>
<linearGradient id="paint12_linear_690_2695" x1="825.421" y1="227.958" x2="835.142" y2="149.006" gradientUnits="userSpaceOnUse">
<stop stop-color="#FB9004"/>
<stop offset="1" stop-color="#FC067D"/>
</linearGradient>
<linearGradient id="paint13_linear_690_2695" x1="823.32" y1="275.608" x2="881.763" y2="275.608" gradientUnits="userSpaceOnUse">
<stop stop-color="#FB9004"/>
<stop offset="1" stop-color="#FC067D"/>
</linearGradient>
<linearGradient id="paint14_linear_690_2695" x1="824.289" y1="275.608" x2="880.789" y2="275.608" gradientUnits="userSpaceOnUse">
<stop stop-color="#FB9004"/>
<stop offset="1" stop-color="#FC067D"/>
</linearGradient>
<linearGradient id="paint15_linear_690_2695" x1="831.092" y1="285.366" x2="875.273" y2="267.065" gradientUnits="userSpaceOnUse">
<stop stop-color="#FB9004"/>
<stop offset="1" stop-color="#FC067D"/>
</linearGradient>
<linearGradient id="paint16_linear_690_2695" x1="884.852" y1="240.956" x2="986.592" y2="240.956" gradientUnits="userSpaceOnUse">
<stop stop-color="#FB9004"/>
<stop offset="1" stop-color="#FC067D"/>
</linearGradient>
<linearGradient id="paint17_linear_690_2695" x1="886.543" y1="240.957" x2="984.901" y2="240.957" gradientUnits="userSpaceOnUse">
<stop stop-color="#FB9004"/>
<stop offset="1" stop-color="#FC067D"/>
</linearGradient>
<linearGradient id="paint18_linear_690_2695" x1="895.168" y1="242.027" x2="978.41" y2="242.027" gradientUnits="userSpaceOnUse">
<stop stop-color="#FB9004"/>
<stop offset="1" stop-color="#FC067D"/>
</linearGradient>
<linearGradient id="paint19_linear_690_2695" x1="918.457" y1="354.574" x2="1023.15" y2="354.574" gradientUnits="userSpaceOnUse">
<stop stop-color="#FB9004"/>
<stop offset="1" stop-color="#FC067D"/>
</linearGradient>
<linearGradient id="paint20_linear_690_2695" x1="920.199" y1="354.575" x2="1021.41" y2="354.575" gradientUnits="userSpaceOnUse">
<stop stop-color="#FB9004"/>
<stop offset="1" stop-color="#FC067D"/>
</linearGradient>
<linearGradient id="paint21_linear_690_2695" x1="941.611" y1="385.965" x2="1002.18" y2="325.396" gradientUnits="userSpaceOnUse">
<stop stop-color="#FB9004"/>
<stop offset="1" stop-color="#FC067D"/>
</linearGradient>
<linearGradient id="paint22_linear_690_2695" x1="1054.79" y1="370.501" x2="1156.53" y2="370.501" gradientUnits="userSpaceOnUse">
<stop stop-color="#FB9004"/>
<stop offset="1" stop-color="#FC067D"/>
</linearGradient>
<linearGradient id="paint23_linear_690_2695" x1="1056.48" y1="370.502" x2="1154.83" y2="370.502" gradientUnits="userSpaceOnUse">
<stop stop-color="#FB9004"/>
<stop offset="1" stop-color="#FC067D"/>
</linearGradient>
<linearGradient id="paint24_linear_690_2695" x1="1068.3" y1="387.492" x2="1145.22" y2="355.634" gradientUnits="userSpaceOnUse">
<stop stop-color="#FB9004"/>
<stop offset="1" stop-color="#FC067D"/>
</linearGradient>
<linearGradient id="paint25_linear_690_2695" x1="997.75" y1="443.973" x2="1074.45" y2="443.973" gradientUnits="userSpaceOnUse">
<stop stop-color="#FB9004"/>
<stop offset="1" stop-color="#FC067D"/>
</linearGradient>
<linearGradient id="paint26_linear_690_2695" x1="999.02" y1="443.973" x2="1073.18" y2="443.973" gradientUnits="userSpaceOnUse">
<stop stop-color="#FB9004"/>
<stop offset="1" stop-color="#FC067D"/>
</linearGradient>
<linearGradient id="paint27_linear_690_2695" x1="1030.99" y1="475.544" x2="1042.86" y2="413.912" gradientUnits="userSpaceOnUse">
<stop stop-color="#FB9004"/>
<stop offset="1" stop-color="#FC067D"/>
</linearGradient>
<linearGradient id="paint28_linear_690_2695" x1="999.602" y1="283.272" x2="1076.3" y2="283.272" gradientUnits="userSpaceOnUse">
<stop stop-color="#FB9004"/>
<stop offset="1" stop-color="#FC067D"/>
</linearGradient>
<linearGradient id="paint29_linear_690_2695" x1="1000.88" y1="283.272" x2="1075.03" y2="283.272" gradientUnits="userSpaceOnUse">
<stop stop-color="#FB9004"/>
<stop offset="1" stop-color="#FC067D"/>
</linearGradient>
<linearGradient id="paint30_linear_690_2695" x1="1009.8" y1="296.079" x2="1067.78" y2="272.06" gradientUnits="userSpaceOnUse">
<stop stop-color="#FB9004"/>
<stop offset="1" stop-color="#FC067D"/>
</linearGradient>
<linearGradient id="paint31_linear_690_2695" x1="1079.7" y1="503.294" x2="1156.41" y2="503.294" gradientUnits="userSpaceOnUse">
<stop stop-color="#FB9004"/>
<stop offset="1" stop-color="#FC067D"/>
</linearGradient>
<linearGradient id="paint32_linear_690_2695" x1="1080.98" y1="503.295" x2="1155.13" y2="503.295" gradientUnits="userSpaceOnUse">
<stop stop-color="#FB9004"/>
<stop offset="1" stop-color="#FC067D"/>
</linearGradient>
<linearGradient id="paint33_linear_690_2695" x1="1111.68" y1="534.729" x2="1126.1" y2="473.649" gradientUnits="userSpaceOnUse">
<stop stop-color="#FB9004"/>
<stop offset="1" stop-color="#FC067D"/>
</linearGradient>
<linearGradient id="paint34_linear_690_2695" x1="848.195" y1="446.538" x2="947.309" y2="446.538" gradientUnits="userSpaceOnUse">
<stop stop-color="#FB9004"/>
<stop offset="1" stop-color="#FC067D"/>
</linearGradient>
<linearGradient id="paint35_linear_690_2695" x1="849.844" y1="446.538" x2="945.66" y2="446.538" gradientUnits="userSpaceOnUse">
<stop stop-color="#FB9004"/>
<stop offset="1" stop-color="#FC067D"/>
</linearGradient>
<linearGradient id="paint36_linear_690_2695" x1="858.246" y1="447.583" x2="939.339" y2="447.583" gradientUnits="userSpaceOnUse">
<stop stop-color="#FB9004"/>
<stop offset="1" stop-color="#FC067D"/>
</linearGradient>
</defs>
</svg>
