<svg width="1163" height="615" viewBox="0 0 1163 615" fill="none" xmlns="http://www.w3.org/2000/svg">
<path opacity="0.16" d="M526.623 52.654C505.042 63.28 431.749 45.9474 404.964 46.4069C365.304 47.088 325.737 51.599 287.577 61.718C211.21 81.961 144.583 123.527 97.678 182.321C70.871 215.921 44.998 256.3 29.323 295.46C4.98904 356.264 -17.715 449.506 41.046 500.805C93.445 546.546 155.781 529.661 219.577 525.855C254.903 523.749 290.255 522.087 325.644 521.1C401.267 518.988 476.899 520.136 552.496 522.526C698.682 527.148 856.598 544.602 999.698 508.805C1285.31 437.359 1140.78 132.945 951.968 37.2471C822.556 -28.3523 650.56 2.99103 521.061 55.193" fill="#B5A7E9"/>
<path d="M205.448 409.138C93.8198 404.229 -79.6066 495.205 42.3698 560.927C163.658 626.279 377.755 556.053 509.295 541.573C654.041 525.636 804.742 551.658 948.37 556.289C1004.99 558.113 1073.07 567.309 1121.08 545.301C1183.23 516.812 1170.86 464.44 1114.54 432.814C1082.67 414.912 1043.35 415.074 1003.61 413.456C951.67 411.335 900.57 403.63 848.33 402.653C741.69 400.655 636.707 383.885 530.409 389.791C455.033 393.975 380.56 398.037 305.653 404.869C270.502 408.078 198.62 391.906 179.378 411.299" fill="#D4DFFF"/>
<path d="M229.68 278.427H199.383V446.155H229.68V278.427Z" fill="#12121C"/>
<path d="M885.092 430.534H209.219V454.789H885.092V430.534Z" fill="#517FC5"/>
<path d="M873.092 314.165H209.219V333.936H873.092V314.165Z" fill="#517FC5"/>
<path d="M229.682 446.154H169.086V477.692H229.682V446.154Z" fill="#517FC5"/>
<path d="M901.038 285.47H870.738V457.581H901.038V285.47Z" fill="#517FC5"/>
<path d="M975.468 457.579H870.738V489.117H975.468V457.579Z" fill="#517FC5"/>
<path d="M981.852 415.389H955.262V489.116H981.852V415.389Z" fill="#517FC5"/>
<path d="M1062.1 111.709H137.188V145.182H1062.1V111.709Z" fill="#4359B7"/>
<path opacity="0.3" d="M994.41 135.347C914.02 127.335 833.629 132.799 753.068 134.764C700.57 136.047 648.566 134.118 596.168 131.104C545.549 128.197 494.835 125.82 444.12 126.875C392.22 127.951 340.491 135.487 288.588 135.14C238.594 134.811 187.968 124.01 139.625 111.709H137.188V145.186H1062.1V141.44C1039.48 140.43 1016.87 137.585 994.41 135.347Z" fill="#4359B7"/>
<path d="M846.83 141.997H311.016V157.938H846.83V141.997Z" fill="#F2F5FC"/>
<path d="M846.83 157.939H311.016V213.736H846.83V157.939Z" fill="#4359B7"/>
<path d="M846.822 157.939H797.387V213.736H846.822V157.939Z" fill="#6880E4"/>
<path d="M797.386 170.695H311.016V180.258H797.386V170.695Z" fill="#6880E4"/>
<path d="M797.386 193.01H311.016V200.98H797.386V193.01Z" fill="#6880E4"/>
<path d="M846.83 213.736H311.016V357.209H846.83V213.736Z" fill="#517FC5"/>
<path d="M1033.4 144.788H1007.89V289.855H1033.4V144.788Z" fill="#4359B7"/>
<path d="M927.021 289.813H922.23V378.058H927.021V289.813Z" fill="#32436B"/>
<path d="M936.859 374.169V347.582H917.399V374.169C905.459 378.223 896.859 389.498 896.859 402.807V447.272C896.859 453.156 898.569 458.635 901.479 463.278H952.789C955.699 458.633 957.409 453.154 957.409 447.272V402.807C957.399 389.502 948.789 378.223 936.859 374.169Z" fill="#D1F3FD"/>
<path d="M939.532 426.914C919.562 416.688 910.342 398.071 912.192 376.531C903.042 381.736 896.852 391.529 896.852 402.807V447.272C896.852 453.158 898.562 458.637 901.472 463.28H952.792C955.692 458.633 957.402 453.154 957.402 447.272V437.469C952.002 432.93 945.842 430.147 939.532 426.914Z" fill="#517FC5"/>
<path d="M1064.8 285.472H955.262V415.391H1064.8V285.472Z" fill="#4359B7"/>
<path opacity="0.3" d="M955.649 289.813C954.859 291.951 955.709 299.124 955.709 299.955L956.169 301.409C959.229 296.137 973.429 293.338 978.899 293.151C987.109 292.875 995.639 296.295 1003.56 298.377C1014.73 301.314 1026.03 300.532 1037.12 296.935C1043.25 294.945 1049.04 291.5 1055.3 289.877C1055.4 289.853 1055.5 289.831 1055.6 289.812L955.649 289.813Z" fill="#4359B7"/>
<path d="M911.859 498.289C911.859 506.654 918.649 513.434 927.009 513.434C935.379 513.434 942.159 506.654 942.159 498.289C942.159 489.926 935.379 483.146 927.009 483.146C918.649 483.144 911.859 489.926 911.859 498.289Z" fill="#32436B"/>
<path opacity="0.4" d="M921.329 484.267C915.779 486.514 911.859 491.936 911.859 498.285C911.859 506.652 918.649 513.431 927.009 513.431C931.609 513.431 935.679 511.342 938.449 508.111C936.439 507.481 919.279 493.088 921.329 484.267Z" fill="#6E80B4"/>
<path d="M184.23 489.12C184.23 497.485 191.015 504.265 199.381 504.265C207.744 504.265 214.525 497.485 214.525 489.12C214.525 480.757 207.744 473.977 199.381 473.977C191.015 473.977 184.23 480.757 184.23 489.12Z" fill="#32436B"/>
<path opacity="0.4" d="M193.696 475.1C188.15 477.349 184.23 482.769 184.23 489.12C184.23 497.485 191.015 504.265 199.381 504.265C203.971 504.265 208.044 502.175 210.821 498.946C208.803 498.314 191.648 483.921 193.696 475.1Z" fill="#6E80B4"/>
<path d="M311.014 218.516H124.434V287.068H311.014V218.516Z" fill="#4359B7"/>
<path d="M169.09 245.42H311.019" stroke="#6880E4" stroke-miterlimit="10"/>
<path d="M146.766 264.745H288.685" stroke="#6880E4" stroke-miterlimit="10"/>
<path d="M311.016 218.515H124.434L137.192 141.995H311.016V218.515Z" fill="#6880E4"/>
<path d="M288.392 202.044C277.261 195.417 266.84 191.808 253.732 192.244C242.806 192.612 231.749 194.712 220.818 194.194C190.465 192.754 156.633 172.278 147.887 142.03H137.563L124.805 218.549H310.55C303.635 212.499 296.298 206.747 288.392 202.044Z" fill="#6880E4"/>
<path d="M846.828 221.307H1030.21L1020.64 144.79H846.828V221.307Z" fill="#6880E4"/>
<path d="M1033.4 221.307H846.828V289.855H1033.4V221.307Z" fill="#4359B7"/>
<path d="M856.379 252.793H995.659" stroke="#4359B7" stroke-miterlimit="10"/>
<path d="M878.711 200.98C878.711 200.98 992.881 203.854 997.781 199.704C1003.38 194.966 1000.49 169.919 997.781 165.906" stroke="#4359B7" stroke-miterlimit="10"/>
<path opacity="0.2" d="M1004.69 213.61C997.02 212.503 989.74 210.588 982.91 206.862C974.93 202.509 966.8 196.388 957.79 194.505C935.59 189.865 913.78 201.549 891.53 197.751C874.18 194.786 859.49 185.11 846.82 173.327V221.307H1030.2L1029.95 219.281C1021.72 215.643 1013.65 214.906 1004.69 213.61Z" fill="#6E80B4"/>
<path d="M1066.89 200.982H1030.6V289.855H1066.89V200.982Z" fill="#4359B7"/>
<path d="M1066.89 144.79H1030.21V200.982H1066.89V144.79Z" fill="#6880E4"/>
<path d="M1047.15 154.179H1036.59V163.024H1047.15V154.179Z" fill="#4359B7"/>
<path d="M1047.15 168.772H1036.59V177.618H1047.15V168.772Z" fill="#4359B7"/>
<path d="M1047.15 183.368H1036.59V192.215H1047.15V183.368Z" fill="#4359B7"/>
<path d="M1061.6 154.179H1051.03V163.024H1061.6V154.179Z" fill="#4359B7"/>
<path d="M1061.6 168.772H1051.03V177.618H1061.6V168.772Z" fill="#4359B7"/>
<path d="M1061.6 183.368H1051.03V192.215H1061.6V183.368Z" fill="#4359B7"/>
<path opacity="0.2" d="M1056.68 273.337C1052.65 271.101 1048.89 268.973 1045.63 265.697C1039 259.05 1038.95 247.91 1038.97 239.258C1039 225.994 1034.82 213.458 1030.78 200.98H1030.59V289.853H1066.88V283.669C1064.5 279.369 1061.44 275.982 1056.68 273.337Z" fill="#4359B7"/>
<path d="M1072.19 308.584H953.391V415.388H1072.19V308.584Z" fill="#517FC5"/>
<path d="M981.851 318.55H975.461V405.431H981.851V318.55Z" fill="#32436B"/>
<path d="M1015.98 318.55H1009.6V405.431H1015.98V318.55Z" fill="#32436B"/>
<path d="M1050.11 318.55H1043.73V405.431H1050.11V318.55Z" fill="#4359B7"/>
<path d="M817.718 578.468C817.718 578.468 650.055 573.661 593.241 573.661C526.664 573.661 324.164 576.87 324.164 576.87V216.599H817.718V578.468Z" fill="#EEEEFD"/>
<path d="M743.013 541.857C716.796 532.833 689.65 525.512 664.861 512.839C640.387 500.33 621.802 483.65 609.592 458.869C596.429 432.156 581.919 403.904 558.185 384.955C532.324 364.325 499.981 357.794 468.139 352.454C435.603 346.993 401.86 339.735 373.234 322.563C351.265 309.387 334.662 291.12 324.164 268.831V576.882C324.164 576.882 526.668 573.669 593.241 573.669C648.563 573.669 808.966 578.227 817.347 578.464C794.633 562.456 769.241 550.89 743.013 541.857Z" fill="#EEEEFD"/>
<path d="M689.081 486.118C675.645 484.665 662.577 489.464 649.171 487.716C640.786 486.625 632.592 483.89 624.784 480.362C624.266 479.964 623.757 479.576 623.237 479.186C623.014 479.021 622.754 479.105 622.614 479.279C606.705 469.75 592.335 457.532 580.069 443.297C576.824 439.532 573.7 435.633 570.709 431.618C579.019 437.619 587.546 443.241 596.883 447.768C610.597 454.417 626.542 457.573 641.753 456.823C653.575 456.243 647.955 435.6 637.213 441.366C630.759 444.823 625.097 446.914 617.652 446.677C610.77 446.464 604.054 444.94 597.565 442.68C587.318 439.116 577.659 433.691 568.202 428.173C562.406 420.011 557.237 411.377 552.953 402.346C557.454 406.826 562.158 410.959 568.107 413.664C575.758 417.139 584.176 418.837 592.516 419.467C601.138 420.12 610.008 418.075 618.438 419.98C622.736 420.957 626.977 421.258 631.271 421.205C636.344 421.14 641.671 418.794 646.453 417.119C657.635 413.195 650.075 395.711 638.981 400.187C635.536 401.578 632.058 402.858 628.538 404.011C625.316 405.069 621.686 408.229 618.561 410.335C617.108 411.314 615.772 412.503 614.266 413.396C612.57 414.397 610.232 414.604 608.325 414.974C604.058 415.799 599.5 415.76 595.171 415.669C587.057 415.527 579.021 414.089 571.402 411.27C564.854 408.849 558.039 405.798 552.49 401.359C550.647 397.409 548.968 393.391 547.494 389.291C539.373 366.77 537.909 342.243 533.264 318.893C533.045 317.843 532.837 316.797 532.606 315.753C533.51 316.846 534.498 317.898 535.414 318.964C538.092 322.063 540.92 325.016 543.675 328.044C549.004 333.91 554.999 339.355 559.525 345.89C561.876 349.274 564.407 352.493 566.432 356.085C568.316 359.44 569.854 362.988 571.588 366.423C575.308 373.783 578.414 381.496 581.277 389.22C585.093 399.496 601.175 392.469 596.858 382.325C593.509 374.473 588.833 367.347 583.051 361.094C577.45 355.05 570.677 350.222 564.464 344.844C558.152 339.375 552.068 333.895 546.156 327.965C543.332 325.128 540.642 322.171 538.006 319.155C545.457 326.426 554.279 332.319 564.263 336.692C572.394 340.254 580.964 342.405 588.782 346.599C595.387 350.145 601.079 355.529 609.007 355.984C613.098 356.219 616.954 354.073 618.417 350.121C620.017 345.793 617.863 339.736 613.078 338.433C606.236 336.556 599.599 337.125 592.638 337.85C585.049 338.644 576.745 336.733 569.617 334.293C553.777 328.867 540.699 319.149 530.519 306.575C538.404 309.975 546.82 311.464 555.432 312.321C560.741 312.849 565.985 313.621 571.322 313.678C577.094 313.745 585.838 314.498 588.098 307.609C588.979 304.92 588.057 302.668 586.021 300.858C582.009 297.282 575.97 299.969 571.818 301.953C567.52 304.002 562.458 306.36 557.771 307.211C548.174 308.935 538.662 307.835 529.79 304.112C525.874 289.548 520.551 275.392 514.09 261.747C511.457 256.194 508.603 250.753 505.486 245.459C514.501 254.204 523.783 262.604 534.783 268.932C539.759 271.794 544.999 274.178 550.161 276.658C554.729 278.861 559.791 280.484 563.949 283.469C568.285 286.591 573.897 288.793 579.2 289.049C584.976 289.329 594.024 287.909 595.638 281.238C596.834 276.296 595.161 272.653 590.654 270.305C586.307 268.041 581.898 270.687 577.628 271.207C573.188 271.747 568.612 273.41 564.135 273.167C559.208 272.894 555.024 271.589 550.46 269.803C544.753 267.576 539.158 265.646 533.784 262.632C521.732 255.879 511.575 246.543 501.322 237.321C503.718 238.748 506.311 239.825 509.405 240.775C516.811 243.046 524.564 244.007 532.222 244.92C536.321 245.408 540.445 245.57 544.548 246.019C548.365 246.429 551.936 247.768 555.74 248.227C562.956 249.098 573.925 246.113 578.16 239.691C582.511 233.098 575.748 223.949 568.171 227.459C566.76 228.112 565.591 229.039 564.349 229.938C565.144 229.343 562.523 231.001 562.079 231.236C559.312 232.69 556.394 233.748 553.696 235.335C550.673 237.105 547.766 239.025 544.379 240.012C540.601 241.1 536.498 241.086 532.602 241.129C525.123 241.216 517.605 240.075 510.391 238.133C507.468 237.351 504.666 236.289 501.897 235.081C500.506 234.475 498.935 233.968 497.542 233.23C495.831 230.862 493.947 228.507 491.906 226.301C497.171 225.57 502.403 224.652 507.509 223.624C507.801 223.565 507.722 223.171 507.437 223.181C501.826 223.383 496.289 224.237 490.749 225.093C487.158 221.453 483.077 218.354 478.401 216.63C476.607 215.972 474.897 218.222 476.194 219.719C478.125 221.939 480.025 224.142 481.891 226.354C478.619 226.756 475.329 227.052 472.008 227.091C471.478 227.097 471.389 227.926 471.927 227.918C475.496 227.877 479.1 227.668 482.715 227.349C487.286 232.8 491.63 238.336 495.435 244.401C495.65 246.291 495.368 248.343 494.812 250.603C493.248 257.043 490.361 263.449 486.613 268.898C484.772 271.578 482.902 274.111 480.338 276.128C479.668 276.65 478.976 277.159 478.247 277.566C478.275 277.482 477.764 277.549 476.069 278.006C475.005 278.299 473.927 278.514 472.964 279.062C469.351 281.106 465.284 283.128 464.782 287.83C464.041 294.891 471.338 298.117 477.08 295.738C480.748 294.221 484.534 290.507 484.947 286.412C484.983 286.087 485.006 285.809 485.028 285.559C485.296 284.749 485.418 285.058 485.83 283.784C486.317 282.275 487.06 280.894 487.673 279.422C490.329 273.104 494.018 267.269 496.462 260.819C497.575 257.878 498.604 254.59 499.065 251.291C499.737 255.124 500.214 259.009 500.393 262.973C500.908 274.548 500.261 285.992 498.05 297.387C496.937 303.111 495.163 308.738 493.177 314.216C491.23 319.571 489.013 324.732 484.388 328.258C482.474 329.724 480.917 332.24 479.337 334.068C477.611 336.068 475.693 337.685 473.636 339.32C471.73 340.847 470.246 342.823 468.611 344.574C466.392 346.952 463.952 349.081 461.824 351.552C459.216 354.576 459.823 359.672 462.202 362.58C465.438 366.545 471.036 366.849 475.001 363.868C479.709 360.336 484.859 354.511 487.172 349.024C489.178 344.296 492.919 338.193 493.212 333.01C493.534 326.99 495.725 321.531 497.483 315.82C499.178 310.32 500.425 304.685 501.404 299.014C503.395 287.493 504.274 275.514 502.985 263.857C502.713 261.367 502.398 258.855 502.021 256.334C506.778 265.792 510.919 275.573 514.503 285.529C522.999 309.197 526.164 333.627 531.116 358.12C531.92 362.085 532.817 365.99 533.802 369.859C530.645 375.32 524.715 379.604 518.991 381.159C514.241 382.449 509.518 383.253 504.814 384.774C501.418 385.871 497.558 386.712 494.521 386.681C483.69 386.568 485.753 402.965 494.913 400.555C499.583 399.324 504.295 397.957 508.85 396.361C514.825 394.261 518.924 390.715 523.519 386.507C526.899 383.414 530.168 380.308 532.685 376.827C523.632 393.436 508.105 406.729 503.176 425.462C501.487 431.869 500.62 438.46 499.079 444.902C498.176 448.687 497.694 452.473 497.54 456.36C497.469 458.111 497.475 459.882 497.56 461.627C497.467 459.756 497.53 461.385 497.526 461.769C497.536 462.402 497.562 463.018 497.595 463.649C497.558 462.744 497.542 462.595 497.554 463.227C497.554 463.556 497.579 463.891 497.613 464.218V464.22C498.184 470.274 503.753 475.047 510.014 472.273C516.37 469.452 516.714 461.194 511.945 457.211C511.863 456.929 511.707 456.387 511.658 456.224C511.518 455.641 511.417 455.048 511.305 454.465C510.663 451.08 510.312 447.633 509.801 444.23C508.885 438.279 509.315 431.995 510.127 426.057C511.463 416.394 517.233 407.155 522.138 398.946C527.068 390.672 531.567 382.567 534.785 373.555C537.728 384.24 541.488 394.563 546.302 404.501C540.422 415.388 537.568 428.084 536.12 440.271C535.361 446.669 535.388 453.184 535.727 459.614C535.925 463.215 536.246 466.659 535.903 470.268C535.544 473.983 534.48 477.787 534.514 481.507C534.559 486.341 538.021 490.608 543.269 489.791C547.8 489.077 551.434 483.557 549.031 479.19C545.679 473.079 541.689 468.591 540.962 461.344C540.272 454.498 540.353 447.607 540.904 440.747C541.862 428.961 544.887 417.704 547.049 406.166C546.956 412.677 545.943 419.16 546.525 425.738C547.333 434.729 549.753 443.551 552.565 452.089C555.507 461.042 559.645 469.527 562.511 478.491C565.356 487.403 568.212 497.925 574.069 505.359C580.814 513.913 594.091 503.049 587.138 494.66C584.099 490.99 580.113 488.339 576.642 485.096C573.438 482.104 570.415 478.723 567.637 475.337C561.701 468.109 558.636 457.888 555.665 449.126C552.715 440.414 550.697 431.39 549.66 422.257C549.29 418.969 549.8 414.887 549.648 411.038C551.382 414.231 553.219 417.387 555.19 420.494C564.273 434.808 575.742 447.246 588.591 458.184C591.454 462.045 594.329 465.894 597.423 469.643C602.255 475.492 607.326 481.099 611.77 487.277C616.381 493.675 620.033 501.142 621.682 508.876C623.194 515.997 623.684 524.092 627.021 530.654C631.455 539.362 643.235 533.617 640.535 524.671C638.458 517.804 633.691 511.197 629.756 505.251C625.369 498.622 620.965 492.123 616.06 485.866C611.371 479.903 606.053 474.409 600.728 469.029C598.738 467.033 596.676 465.083 594.609 463.119C595.464 463.792 596.316 464.468 597.181 465.122C602.368 469.113 607.773 472.852 613.352 476.324C618.342 480.551 623.706 484.212 629.427 487.259C635.885 493.762 642.867 499.771 649.21 506.392C653.68 511.061 657.558 516.007 660.244 521.917C662.997 527.981 664.099 534.697 666.867 540.79C671.162 550.236 685.163 543.887 681.482 534.318C679.099 528.137 674.34 522.345 669.039 518.381C663.561 514.285 658.569 509.51 653.615 504.806C648.848 500.285 643.913 495.862 638.854 491.591C641.01 492.43 643.204 493.197 645.448 493.87C658.949 497.944 672.915 504.569 687.268 504.238C692.22 504.118 696.684 501.483 697.228 496.091C697.722 491.124 694.011 486.656 689.081 486.118Z" fill="url(#paint0_linear_353_89)"/>
<path d="M272.764 313.672L309.68 224.585C318.822 195.651 320.385 177.376 267.991 158.42C221.836 141.724 216.535 158.535 200.342 207.341L174.453 281.079L272.764 313.672Z" fill="#B5A7E9"/>
<path opacity="0.4" d="M276.813 286.023C271.686 274.893 264.103 265.762 255.834 256.838C249.112 249.576 241.146 241.807 237.447 232.41C226.021 203.366 246.156 168.054 276.25 161.59C273.652 160.532 270.919 159.476 267.995 158.416C221.84 141.721 216.539 158.531 200.346 207.338L174.457 281.075L272.768 313.668L280.246 295.615C279.377 292.367 278.266 289.161 276.813 286.023Z" fill="#B5A7E9"/>
<path d="M289.766 111.81C278.831 120.273 279.659 153.6 295.696 158.661C310.935 163.473 318.972 148.395 322.58 132.192C324.704 122.65 322.087 116.282 313.623 111.469C305.626 106.926 294.486 108.162 289.766 111.81Z" fill="#FFB7D6"/>
<path d="M284.917 131.186L266.645 166.604C266.645 166.604 272.225 171.7 277.458 174.675C282.696 177.654 289.727 178.589 290.99 178.948C292.259 179.305 307.244 145.988 307.244 145.988L284.917 131.186Z" fill="#FFB7D6"/>
<path d="M330.839 122.177C330.457 118.514 333.907 114.17 332.199 110.554C330.453 106.88 327.4 105.893 323.668 104.651C318.4 102.897 315.631 96.6861 310.827 93.8651C307.506 91.9151 302.722 92.4691 299.058 92.4811C295.107 92.4931 291.869 92.0421 288.359 94.0131C286.247 95.1921 285.547 96.8811 285.127 98.6861C283.973 98.2031 282.623 97.9071 280.617 98.4491C280.593 98.4521 280.565 98.4611 280.548 98.4671C275.477 98.7041 270.832 102.962 269.77 108.273C269.212 110.987 271.053 113.612 270.2 116.354C269.606 118.25 268.363 119.874 268.03 121.898C267.689 123.975 267.949 125.67 268.724 127.14C268.7 128.302 268.93 129.493 269.518 130.755C270.259 132.335 271.768 133.76 272.852 135.1C275.65 138.57 274.586 136.993 275.043 141.927C275.233 143.981 276.523 146.049 278.817 146.378C279.375 146.455 280.222 146.278 280.705 145.937C282 145.031 283.109 144.887 284.195 144.861C289.341 143.495 288.472 140.167 288.052 135.867C287.849 133.781 288.095 131.843 289.211 130.249C289.353 127.108 290.939 125.291 293.93 123.969C294.066 123.907 294.196 123.907 294.332 123.883C295.454 123.344 296.949 122.971 298.942 122.817C302.473 122.544 306.578 117.459 310.07 117.894C316.435 116.265 319.758 123.584 323.792 128.429C323.973 128.497 324.151 128.586 324.308 128.728C326.176 130.391 328.488 128.402 330.606 125.866C330.874 124.743 330.981 123.507 330.839 122.177Z" fill="#1C056D"/>
<path d="M290.915 130.616C292.712 133.722 292.278 137.34 289.945 138.691C287.606 140.04 284.254 138.617 282.458 135.509C280.663 132.4 281.097 128.788 283.432 127.436C285.771 126.085 289.121 127.508 290.915 130.616Z" fill="#FFB7D6"/>
<path d="M290.531 148.557C292.356 152.558 296.607 158.204 301.137 159.222C300.455 161.238 299.316 163.588 298.339 165.528C295.436 164.33 293.361 160.075 292.449 157.205C291.907 155.501 289.802 149.841 291.026 148.712" fill="#FFB7D6"/>
<path d="M271.987 565.222C268.989 561.902 266.786 557.927 261.666 558.303C257.672 558.599 253.981 559.798 252.195 563.108C251.87 563.088 251.519 563.246 251.365 563.551C250.554 565.106 250.159 567.202 250.67 568.931C250.335 570.377 250.408 571.829 251.229 573.151C253.762 577.223 259.043 578.963 263.024 581.307C267.08 583.698 283.753 594.699 286.763 585.509C289.003 578.632 275.768 569.418 271.987 565.222Z" fill="#FFB7D6"/>
<path d="M294.564 508.467C299.17 490.891 304.341 473.894 305.289 455.599C305.689 447.847 305.626 440.118 305.294 432.396C302.498 419.766 299.168 407.274 297.122 394.68C294.338 377.547 290.355 359.859 285.137 343.383C283.154 337.127 277.092 321.895 275.206 315.675C272.361 306.273 273.224 315.453 263.974 312.125C252.069 307.835 236.439 297.175 223.882 296.57C223.459 312.466 222.725 328.051 222.759 343.756C222.767 350.278 222.584 355.416 224.684 361.003C227.134 367.516 230.742 374.161 233.824 380.451C241.409 395.925 246.699 412.434 254.928 427.437C260.363 437.345 259.733 443.528 257.029 451.552C255.675 457.086 254.502 462.653 252.995 468.157C249.404 481.222 245.91 494.151 244.994 507.739C243.65 527.669 245.116 547.538 246.324 567.426C253.432 568.214 273.866 568.647 280.32 568.564C279.593 546.723 288.95 529.873 294.564 508.467Z" fill="#3A376B"/>
<path opacity="0.3" d="M280.728 558.255C271.084 547.012 264.561 533.989 265.629 517.583C266.652 501.868 272.373 488.344 278.7 474.132C285.475 458.918 290.097 444.163 283.109 428.127C270.697 399.651 235.97 343.054 278.775 325.846C277.276 321.81 275.935 318.073 275.206 315.679C272.361 306.276 273.224 315.457 263.974 312.129C252.069 307.839 236.439 297.179 223.882 296.574C223.459 312.47 222.725 328.055 222.759 343.76C222.767 350.282 222.584 355.42 224.684 361.007C227.134 367.52 230.742 374.163 233.824 380.455C241.409 395.929 246.699 412.438 254.928 427.441C260.363 437.348 259.733 443.532 257.029 451.556C255.675 457.09 254.502 462.657 252.995 468.161C249.404 481.226 245.91 494.155 244.994 507.742C243.65 527.673 245.116 547.542 246.324 567.429C253.432 568.217 273.866 568.651 280.32 568.566C280.198 565.002 280.373 561.586 280.728 558.255Z" fill="#3A376B"/>
<path d="M213.637 603.733C210.728 600.378 206.946 597.24 205.624 595.874C203.322 593.5 201.357 591.085 198.922 589.218C197.834 587.52 196.488 586.06 194.413 585.244C190.509 583.712 184.961 585.274 181.493 587.214C180.845 587.583 180.851 588.335 181.188 588.893C180.622 589.738 180.445 590.91 180.356 591.95C178.927 597.563 179.641 604.944 184.386 607.698C186.029 608.65 186.883 608.321 188.869 608.112C193.378 607.641 198.025 611.16 202.126 612.631C207.108 614.422 213.039 615.856 218.153 613.86C223.037 611.955 218.776 607.553 213.637 603.733Z" fill="#FFB7D6"/>
<path d="M161.85 327.868C161.062 341.989 166.558 370.14 167.989 383.916C170.251 405.679 170.147 427.895 168.895 450.221C167.138 481.617 168.265 513.804 169.569 545.192C170.198 560.235 171.816 574.476 173.607 588.67C179.001 591.231 205.022 594.716 211.627 594.687C215.795 554.067 217.985 513.111 224.033 472.559C228.622 441.821 225.227 410.374 228.483 379.419C231.098 354.55 239.558 326.436 243.503 302.658C230.901 299.002 189.172 275.574 178.026 270.892C178.026 270.892 163.786 293.001 161.85 327.868Z" fill="#3A376B"/>
<path d="M172.715 281.301C187.272 287.942 199.165 294.076 211.458 297.567C226.362 301.793 257.743 310.25 272.764 313.67" stroke="#3A376B" stroke-width="0.25" stroke-miterlimit="10"/>
<path opacity="0.3" d="M200.676 531.856C197.985 524.106 194.187 516.184 193.263 507.955C192.317 499.463 193.093 490.943 194.544 482.55C197.673 464.415 205.266 447.343 204.22 428.61C202.558 399.026 190.112 370.946 192.955 340.834C193.811 331.822 196.097 319.521 205.26 315.057C215.078 310.28 238.172 312.441 238.937 312.504C239.828 312.575 240.711 312.752 241.586 312.959C242.291 309.46 242.949 306.007 243.503 302.658C230.901 299.002 189.172 275.574 178.026 270.892C178.026 270.892 163.784 293.005 161.85 327.87C161.062 341.991 166.558 370.142 167.989 383.918C170.251 405.683 170.147 427.899 168.895 450.225C167.138 481.621 168.265 513.808 169.569 545.196C170.198 560.237 171.816 574.478 173.607 588.674C179.001 591.233 205.022 594.718 211.627 594.689C211.653 594.446 211.671 594.206 211.698 593.964C208.63 590.162 205.93 586.094 203.946 581.511C197.111 565.714 206.242 547.883 200.676 531.856Z" fill="#3A376B"/>
<path d="M202.195 294.455L258.97 197.712L307.39 215.328L274.596 313.776L202.195 294.455Z" fill="#B5A7E9"/>
<path d="M256.578 156.104C256.578 156.104 259.207 177.297 260.847 187.36C262.49 197.424 259.711 207.558 259.711 207.558L269.1 208.088L262.581 156.551L256.578 156.104Z" fill="#B5A7E9"/>
<path d="M296.547 211.382L298.687 173.245L305.368 178.787L302.995 213.731L296.547 211.382Z" fill="#B5A7E9"/>
<path d="M288.267 293.921C294.027 297.363 298.802 301.033 305.967 299.445C307.831 299.033 311.704 296.132 313.31 298.08C315.462 300.696 309.349 302.272 308.401 303.683C312.902 306.563 319.675 306.379 323.902 309.766C326.917 312.173 324.545 312.514 321.803 312.14C319.135 311.775 316.678 311.104 314.013 310.239C316.213 311.411 324.684 313.513 325.284 316.119C326.289 320.542 315.598 315.29 314.013 314.748C315.503 315.928 325.751 318.609 323.715 322.007C321.6 325.546 312.908 318.972 310.559 318.479C312.786 319.173 321.88 325.896 315.46 325.965C311.538 326.009 306.55 321.679 302.893 320.292C295.467 317.482 287.066 311.811 282.425 305.286C280.77 302.964 282.845 301.303 284.414 298.923C285.742 296.918 287.212 295.206 288.753 293.314C288.734 293.738 288.7 294.177 288.625 294.597" fill="#FFB7D6"/>
<path d="M300.728 285.949C287.44 278.762 276.536 270.307 263.784 262.456C254.13 256.515 244.542 250.747 242.209 240.985C238.67 226.145 241.988 213.242 247.688 200.336C252.392 189.679 258.051 176.85 251.69 164.502C249.264 159.774 242.245 152.518 234.902 152.532C219.032 152.58 204.457 171.178 199.103 182.248C187.314 206.64 180.35 239.981 203.653 266.091C212.815 276.361 226.229 283.563 238.792 290.885C242.842 293.243 277.583 317.106 285.018 321.824C281.354 319.433 300.728 285.949 300.728 285.949Z" fill="#8F80C7"/>
<path d="M284.732 319.102C284.545 318.501 284.348 317.91 284.175 317.303C281.25 306.896 280.064 292.197 272.626 283.923C265.465 275.961 255.225 275.949 245.354 274.603C236.748 273.431 228.899 271.152 222.026 265.632C208.493 254.756 208.089 234.12 213.936 219.134C222.126 198.13 242.479 185.782 252.329 165.891C252.12 165.426 251.932 164.961 251.686 164.496C249.262 159.768 242.241 152.513 234.9 152.526C219.028 152.574 204.453 171.172 199.099 182.244C187.31 206.634 180.346 239.975 203.649 266.085C212.811 276.355 226.225 283.557 238.788 290.879C242.838 293.238 277.579 317.102 285.014 321.818C284.498 321.487 284.456 320.506 284.732 319.102Z" fill="#8F80C7"/>
<path d="M906.06 217.921C899.37 217.2 892.39 219.56 885.61 217.887C884.25 227.235 882.34 235.917 881.68 245.518C877.52 244.203 865.77 224.688 865.96 224.54C864.22 220.086 862.39 218.297 862.65 213.541C862.81 210.821 864.67 202.088 862.11 200.212C860.57 201.755 860.2 204.245 858.86 206.105C853.33 203.071 854.85 192.167 847.76 191.259C847.69 196.493 850.79 200.612 852.18 205.273C851.15 203.069 846.82 191.426 843.34 193.983C840.831 195.819 847.43 205.699 848.3 208.085C846.17 205.831 844.19 198.059 840.814 198.37C839.174 202.226 844.58 209.363 846.36 212.722C844.35 211.311 843.89 207.178 840.989 207.596C840.739 210.78 844.9 217.751 848.27 221.959C848.68 222.869 849.06 223.752 849.44 224.428C850.34 226.021 851.06 229.16 852.07 230.655C857.63 247.91 865.44 277.433 888.49 272.165C901.34 269.233 901.97 256.55 904.13 248.066C906.74 237.81 906.75 228.622 906.06 217.921ZM845.24 217.641C846.19 218.108 846.94 219.266 847.6 220.559L845.24 217.641Z" fill="#FFB7D6"/>
<path d="M1065.02 202.146C1061.41 198.502 1059.07 195.137 1058.72 189.804C1058.59 187.941 1058.11 185.76 1056.5 184.666C1056.19 184.452 1055.77 184.44 1055.47 184.69C1052.84 186.806 1053.9 190.821 1054.33 193.679C1054.45 194.617 1054.59 195.553 1054.74 196.486C1054.8 196.943 1054.85 197.397 1054.91 197.852C1055.91 200.214 1055.23 201.378 1052.89 201.352C1052.19 200.064 1051.8 199.101 1050.73 198.139C1050.31 197.761 1049.68 198.06 1049.48 198.508C1046.95 204.114 1051.02 210.887 1053.37 216.368C1053.28 225.12 1052.01 230.615 1051.52 240.5C1044.01 234.476 1030.3 197.58 1026.22 197.444L1005.95 213.383C1011.56 223.966 1031.07 257.389 1035.66 263.348C1046.48 277.39 1061.67 270.773 1065.39 256.404C1068.51 244.367 1067.55 231.485 1066.7 219.153C1067.91 213.072 1068.78 205.939 1065.02 202.146Z" fill="#FFB7D6"/>
<path d="M962.162 128.043C959.262 126.953 953.762 126.224 948.632 126.698C944.482 126.71 940.202 127.904 936.202 129.252C935.762 129.404 935.702 129.813 935.852 130.13C935.722 130.183 935.612 130.287 935.642 130.488C936.802 138.454 938.112 146.391 939.012 154.394C939.612 159.671 938.422 167.116 941.162 171.948C945.852 180.212 957.502 174.722 964.592 173.219C965.072 173.118 965.402 172.811 965.382 172.297C964.802 157.938 959.962 143.396 962.652 129.036C962.722 128.666 962.532 128.186 962.162 128.043Z" fill="#FFB7D6"/>
<path d="M927.329 85.6938C927.179 85.5868 926.999 85.5338 926.839 85.6728C924.959 87.2408 923.689 88.6688 922.419 90.7578C920.789 93.4188 921.789 95.9998 918.999 98.0658C914.429 101.459 912.289 107.872 911.039 113.149C908.389 124.336 916.329 133.457 924.509 140.175C927.499 142.646 930.839 143.562 934.499 142.08C939.669 139.991 941.659 138.486 946.909 142.074C948.969 143.488 950.879 144.682 953.349 145.21C957.639 146.12 963.759 142.006 967.329 140.116C972.319 137.469 976.089 134.63 979.149 129.913C999.179 99.0998 945.119 66.6398 927.329 85.6938Z" fill="#1C056D"/>
<path d="M1039.82 212.351C1038.71 207.536 1034.17 201.924 1031.72 197.588C1027.04 189.261 1023.09 180.845 1018.63 172.486C1017.51 170.39 1007.85 158.084 1004.23 159.098C1000.51 156.673 995.679 155.72 990.619 155.186C972.509 153.273 949.629 151.141 931.029 157.085C919.579 160.743 907.669 161.484 900.969 170.195C892.289 174.742 884.519 193.589 883.259 202.017C881.569 213.395 881.769 225.038 879.699 235.845C886.809 239.1 899.969 238.83 908.699 237.796C909.959 244.354 910.909 250.967 911.489 257.626C912.049 264.172 911.359 270.73 912.279 277.257C913.779 287.881 926.169 286.6 934.319 287.903C951.389 290.619 966.829 287.875 983.839 286.242C989.809 285.667 996.609 285.665 1001.88 282.328C1006.03 279.7 1006.03 276.158 1006.03 271.585C1006.04 263.11 1007.27 254.478 1007.77 246.007C1008.19 239.001 1008.58 231.992 1009.11 224.999C1010.45 228.759 1012.06 232.398 1014.12 235.847C1019.67 235.117 1028.58 225.357 1033.94 221.947C1039.35 218.502 1041.15 218.098 1039.82 212.351Z" fill="#B5A7E9"/>
<path d="M1039.71 603.329C1037.18 597.372 1025.35 596.365 1019.84 595.412C1012.86 594.196 1009.33 593.568 1002.55 595.938C998.821 597.24 996.261 599.669 996.861 603.7C996.901 603.936 996.991 604.113 997.111 604.263C999.131 625.563 1042.11 609.001 1039.71 603.329Z" fill="#FFB7D6"/>
<path d="M970.742 599.613C968.212 593.658 956.382 592.65 950.882 591.696C943.882 590.484 940.362 589.852 933.582 592.226C929.852 593.528 927.292 595.955 927.892 599.984C927.932 600.222 928.022 600.399 928.142 600.553C930.162 621.849 973.142 605.283 970.742 599.613Z" fill="#FFB7D6"/>
<path d="M1027.17 440.522C1026.7 387.626 1019.58 332.446 1007.31 280.775C1007.18 280.214 1006.8 279.847 1006.34 279.688C1006.35 279.459 1006.36 279.213 1006.37 278.917C1006.4 278.157 1005.76 277.397 1004.94 277.578C1003.02 277.995 1001.09 278.38 999.162 278.748C998.702 278.401 998.002 278.336 997.642 278.906C997.612 278.955 997.572 278.994 997.542 279.042C995.912 279.341 994.292 279.631 992.652 279.9C990.212 280.111 987.882 280.454 986.072 280.639C982.302 281.023 978.532 281.565 974.782 282.174C971.062 282.505 967.342 282.767 963.612 283.068C961.472 283.244 959.522 283.746 957.572 284.183C952.642 283.85 947.652 284.171 942.662 284.219C932.812 284.315 922.102 281.421 912.632 278.931C912.822 278.291 911.882 277.986 911.552 278.594C911.462 278.768 911.392 278.953 911.302 279.126C910.832 279.414 910.542 279.918 910.662 280.517C905.862 290.824 905.972 303.034 905.222 314.139C904.242 328.581 902.262 342.712 902.832 357.237C903.392 371.574 905.192 385.798 907.262 399.992C908.342 412.456 909.802 424.891 911.052 437.327C912.852 455.353 913.272 473.4 914.102 491.484C914.942 509.595 916.122 527.685 917.102 545.789C917.722 557.3 916.952 568.823 917.812 580.32C918.302 586.744 918.952 595.329 926.092 597.484C935.482 600.317 962.342 594.604 962.412 593.725C963.412 580.53 960.172 572.495 960.242 559.274C960.322 546.333 958.812 534.495 959.982 521.617C962.312 496.019 964.252 470.514 964.602 444.807C964.952 419.079 964.282 393.357 964.342 367.636C964.342 367.577 964.342 367.518 964.342 367.457C966.282 377.744 968.612 387.953 970.102 398.333C972.092 412.284 973.662 426.283 974.892 440.323C976.042 453.371 976.642 466.398 978.572 479.369C980.592 492.903 983.522 506.291 985.892 519.764C990.692 547.121 988.902 575.152 994.202 602.368C994.342 603.081 995.012 603.607 995.762 603.481C1005.83 601.753 1026.2 597.078 1026.21 596.44C1026.45 584.772 1027.41 467.653 1027.17 440.522Z" fill="#3A376B"/>
<defs>
<linearGradient id="paint0_linear_353_89" x1="460.125" y1="380.98" x2="697.273" y2="380.98" gradientUnits="userSpaceOnUse">
<stop stop-color="#9942FF"/>
<stop offset="1" stop-color="#4D6DFF"/>
</linearGradient>
</defs>
</svg>
