<svg width="46" height="46" viewBox="0 0 46 46" fill="none" xmlns="http://www.w3.org/2000/svg">
<rect x="14" y="2" width="17" height="4" fill="#DDDFE8"/>
<path fill-rule="evenodd" clip-rule="evenodd" d="M35.5833 2.69531C36.9029 2.69531 38.1431 3.21003 39.0756 4.14458C40.0082 5.07905 40.5211 6.32123 40.5195 7.6422L40.4825 41.0641C40.4796 43.7857 38.2652 46 35.5463 46H10.4167C9.09713 46 7.85684 45.4853 6.92426 44.5507C5.99177 43.6162 5.47903 42.374 5.48047 41.0531L5.5174 7.63124C5.52045 4.9096 7.73483 2.69531 10.4536 2.69531H12.6904V2.24609C12.6904 1.0076 13.698 0 14.9365 0H31.1084C32.3469 0 33.3545 1.0076 33.3545 2.24609V2.69531H35.5833ZM30.6592 2.69531H15.3857V5.39062H30.6592V2.69531ZM35.5463 43.3047C36.7821 43.3047 37.7886 42.2983 37.7901 41.061L37.8271 7.63914C37.8278 7.03881 37.5947 6.47414 37.1708 6.04936C36.7469 5.62458 36.1831 5.39062 35.5833 5.39062H33.3545V5.83984C33.3545 7.07834 32.3469 8.08594 31.1084 8.08594H14.9365C13.698 8.08594 12.6904 7.07834 12.6904 5.83984V5.39062H10.4536C9.2177 5.39062 8.21118 6.39705 8.20983 7.63429L8.17291 41.0562C8.17228 41.6565 8.40534 42.2211 8.82922 42.646C9.2531 43.0707 9.81687 43.3047 10.4167 43.3047H35.5463ZM33.0337 17.9688H23.459C22.7147 17.9688 22.1113 17.3654 22.1113 16.6211C22.1113 15.8768 22.7147 15.2734 23.459 15.2734H33.0337C33.778 15.2734 34.3814 15.8768 34.3814 16.6211C34.3814 17.3654 33.778 17.9688 33.0337 17.9688ZM23.459 26.9531H33.0337C33.778 26.9531 34.3814 26.3497 34.3814 25.6055C34.3814 24.8612 33.778 24.2578 33.0337 24.2578H23.459C22.7147 24.2578 22.1113 24.8612 22.1113 25.6055C22.1113 26.3497 22.7147 26.9531 23.459 26.9531ZM23.459 33.2422H33.0723C33.8166 33.2422 34.4199 33.8456 34.4199 34.5898C34.4199 35.3341 33.8165 35.9375 33.0723 35.9375H23.459C22.7147 35.9375 22.1113 35.3341 22.1113 34.5898C22.1113 33.8456 22.7147 33.2422 23.459 33.2422Z" fill="url(#paint0_linear_613_838)"/>
<path d="M17.7213 12.9516L14.6134 16.0595L13.8807 15.3266C13.3544 14.8003 12.5011 14.8003 11.9748 15.3266C11.4485 15.8528 11.4485 16.7062 11.9748 17.2325L13.6605 18.9183C13.9133 19.171 14.256 19.3131 14.6135 19.3131C14.9709 19.3131 15.3137 19.1711 15.5664 18.9183L19.6272 14.8575C20.1536 14.3313 20.1536 13.478 19.6272 12.9517C19.1009 12.4253 18.2477 12.4253 17.7213 12.9516Z" fill="url(#paint1_linear_613_838)"/>
<path d="M17.7213 22.6221L14.6134 25.73L13.8807 24.9972C13.3544 24.4709 12.5011 24.4709 11.9748 24.9972C11.4485 25.5235 11.4485 26.3767 11.9748 26.9031L13.6605 28.5889C13.9133 28.8417 14.256 28.9837 14.6135 28.9837C14.9709 28.9837 15.3138 28.8417 15.5664 28.5889L19.6272 24.5281C20.1536 24.0019 20.1536 23.1485 19.6272 22.6222C19.1009 22.0959 18.2476 22.0959 17.7213 22.6221Z" fill="url(#paint2_linear_613_838)"/>
<path d="M17.7213 31.6064L14.6134 34.7143L13.8807 33.9816C13.3544 33.4552 12.5011 33.4552 11.9748 33.9816C11.4485 34.5078 11.4485 35.361 11.9748 35.8874L13.6605 37.5732C13.9133 37.826 14.256 37.968 14.6135 37.968C14.9709 37.968 15.3138 37.8261 15.5664 37.5732L19.6272 33.5124C20.1536 32.9862 20.1536 32.1328 19.6272 31.6065C19.1009 31.0802 18.2476 31.0802 17.7213 31.6064Z" fill="url(#paint3_linear_613_838)"/>
<defs>
<linearGradient id="paint0_linear_613_838" x1="5.48047" y1="23" x2="40.5195" y2="23" gradientUnits="userSpaceOnUse">
<stop stop-color="#9942FF"/>
<stop offset="1" stop-color="#FC067D"/>
</linearGradient>
<linearGradient id="paint1_linear_613_838" x1="11.5801" y1="15.935" x2="20.022" y2="15.935" gradientUnits="userSpaceOnUse">
<stop stop-color="#FB9004"/>
<stop offset="1" stop-color="#FC067D"/>
</linearGradient>
<linearGradient id="paint2_linear_613_838" x1="11.5801" y1="25.6056" x2="20.022" y2="25.6056" gradientUnits="userSpaceOnUse">
<stop stop-color="#FB9004"/>
<stop offset="1" stop-color="#FC067D"/>
</linearGradient>
<linearGradient id="paint3_linear_613_838" x1="11.5801" y1="34.5899" x2="20.022" y2="34.5899" gradientUnits="userSpaceOnUse">
<stop stop-color="#FB9004"/>
<stop offset="1" stop-color="#FC067D"/>
</linearGradient>
</defs>
</svg>
