<svg width="191" height="163" viewBox="0 0 191 163" fill="none" xmlns="http://www.w3.org/2000/svg">
<path d="M66.1148 74.1545H40.403C37.3419 74.1545 34.7395 73.0835 32.5967 70.9407C30.455 68.7978 29.3828 66.1962 29.3828 63.1343V59.4629C29.3828 51.351 32.2529 44.4263 37.9928 38.6865C43.7323 32.9486 50.6581 30.0785 58.7692 30.0785H66.1148C68.1041 30.0785 69.8252 29.3512 71.2797 27.8978C72.7335 26.4436 73.4604 24.7225 73.4604 22.7328V8.0392C73.4604 6.04992 72.7331 4.3272 71.2797 2.87303C69.8256 1.42087 68.1045 0.692383 66.1148 0.692383H58.7692C50.8101 0.692383 43.2168 2.24344 35.9846 5.34114C28.7532 8.44084 22.4983 12.6309 17.2176 17.9116C11.9372 23.19 7.74844 29.4452 4.64914 36.6775C1.54985 43.9089 0 51.5042 0 59.4625V140.268C0 146.393 2.14164 151.594 6.42694 155.881C10.7126 160.165 15.9174 162.308 22.0388 162.308H66.1176C72.2386 162.308 77.4417 160.165 81.7279 155.881C86.0124 151.594 88.1552 146.393 88.1552 140.268V96.1934C88.1552 90.0696 86.0124 84.8688 81.725 80.5815C77.4409 76.2974 72.2358 74.1545 66.1148 74.1545Z" fill="#9747FF"/>
<path d="M184.576 80.5815C180.292 76.2974 175.088 74.1545 168.965 74.1545H143.254C140.195 74.1545 137.59 73.0835 135.451 70.9407C133.307 68.7978 132.237 66.1962 132.237 63.1343V59.4629C132.237 51.351 135.107 44.4263 140.844 38.6865C146.581 32.9486 153.507 30.0785 161.622 30.0785H168.966C170.956 30.0785 172.678 29.3512 174.131 27.8978C175.584 26.4436 176.313 24.7225 176.313 22.7328V8.0392C176.313 6.04992 175.584 4.3272 174.131 2.87303C172.678 1.42087 170.956 0.692383 168.966 0.692383H161.622C153.658 0.692383 146.067 2.24344 138.832 5.34114C131.602 8.44084 125.349 12.6309 120.069 17.9116C114.788 23.19 110.597 29.4452 107.499 36.6775C104.4 43.9089 102.849 51.5042 102.849 59.4625V140.268C102.849 146.393 104.992 151.594 109.276 155.881C113.561 160.165 118.764 162.308 124.887 162.308H168.963C175.086 162.308 180.289 160.165 184.573 155.881C188.86 151.594 190.999 146.393 190.999 140.268V96.1934C191 90.0692 188.86 84.8688 184.576 80.5815Z" fill="#9747FF"/>
</svg>
