<svg width="32" height="32" viewBox="0 0 32 32" fill="none" xmlns="http://www.w3.org/2000/svg">
<path fill-rule="evenodd" clip-rule="evenodd" d="M8.76889 13.63C8.74023 13.5608 8.72549 13.4866 8.72551 13.4117C8.71948 12.8608 8.49638 12.3344 8.10466 11.947C7.71293 11.5595 7.18419 11.3422 6.63321 11.3422C6.08223 11.3422 5.55349 11.5595 5.16176 11.947C4.77003 12.3344 4.54694 12.8608 4.5409 13.4117C4.54092 13.4866 4.52618 13.5608 4.49753 13.63C4.46888 13.6992 4.42687 13.7621 4.37391 13.815C4.32094 13.868 4.25807 13.91 4.18886 13.9387C4.11966 13.9673 4.04549 13.982 3.97059 13.982H0.632812C0.557912 13.982 0.483742 13.9673 0.41454 13.9387C0.345337 13.91 0.282458 13.868 0.229496 13.815C0.176533 13.7621 0.134525 13.6992 0.105871 13.63C0.0772177 13.5608 0.0624798 13.4866 0.0625 13.4117V3.34992C0.0632459 2.68451 0.327927 2.04658 0.798467 1.57609C1.26901 1.10561 1.90697 0.841001 2.57238 0.840332H12.6336C12.7085 0.840312 12.7827 0.85505 12.8519 0.883703C12.9211 0.912357 12.984 0.954365 13.0369 1.00733C13.0899 1.06029 13.1319 1.12317 13.1605 1.19237C13.1892 1.26157 13.2039 1.33574 13.2039 1.41064V4.22823C13.9506 4.36211 14.6264 4.75426 15.1132 5.33607C15.6 5.91788 15.8667 6.65231 15.8667 7.4109C15.8667 8.16948 15.6 8.90391 15.1132 9.48573C14.6264 10.0675 13.9506 10.4597 13.2039 10.5936V13.4117C13.2039 13.4866 13.1892 13.5608 13.1605 13.63C13.1319 13.6992 13.0899 13.7621 13.0369 13.815C12.984 13.868 12.9211 13.91 12.8519 13.9387C12.7827 13.9673 12.7085 13.982 12.6336 13.982H9.29583C9.22093 13.982 9.14676 13.9673 9.07755 13.9386C9.00835 13.91 8.94547 13.868 8.89251 13.815C8.83955 13.7621 8.79754 13.6992 8.76889 13.63ZM1.20312 12.8414H3.45069C3.5899 12.0991 3.98419 11.4288 4.56535 10.9465C5.14651 10.4642 5.87798 10.2002 6.63321 10.2002C7.38843 10.2002 8.1199 10.4642 8.70106 10.9465C9.28223 11.4288 9.67652 12.0991 9.81573 12.8414H12.0633V10.0734C12.0633 9.99848 12.078 9.92432 12.1067 9.85512C12.1353 9.78592 12.1773 9.72304 12.2303 9.67008C12.2832 9.61712 12.3461 9.57511 12.4153 9.54645C12.4845 9.51779 12.5586 9.50305 12.6335 9.50307C13.1844 9.49691 13.7105 9.27377 14.0979 8.88209C14.4852 8.49041 14.7024 7.96178 14.7024 7.41093C14.7024 6.86007 14.4852 6.33144 14.0979 5.93975C13.7106 5.54805 13.1844 5.3249 12.6336 5.31873C12.5587 5.31875 12.4845 5.30401 12.4153 5.27536C12.3461 5.2467 12.2832 5.2047 12.2303 5.15173C12.1773 5.09877 12.1353 5.03589 12.1067 4.96669C12.078 4.89749 12.0633 4.82332 12.0633 4.74842V1.98096H2.57238C2.20941 1.98137 1.86142 2.12573 1.60473 2.38236C1.34805 2.63899 1.20362 2.98695 1.20312 3.34992V12.8414ZM19.4289 6.84086H29.4901C30.1555 6.84153 30.7935 7.10614 31.264 7.57663C31.7346 8.04712 31.9993 8.68505 32 9.35046V29.1098C31.9993 29.7752 31.7346 30.4131 31.264 30.8836C30.7935 31.3541 30.1555 31.6187 29.4901 31.6194H9.36739C8.70199 31.6187 8.06402 31.3541 7.59348 30.8836C7.12294 30.4131 6.85826 29.7752 6.85752 29.1098V19.048C6.8575 18.9731 6.87223 18.8989 6.90089 18.8297C6.92954 18.7605 6.97155 18.6977 7.02451 18.6447C7.07748 18.5917 7.14035 18.5497 7.20956 18.5211C7.27876 18.4924 7.35293 18.4777 7.42783 18.4777H10.246C10.3799 17.7312 10.7721 17.0555 11.3538 16.5688C11.9356 16.0821 12.6699 15.8155 13.4284 15.8155C14.1868 15.8155 14.9212 16.0821 15.5029 16.5688C16.0847 17.0555 16.4768 17.7312 16.6108 18.4777H18.8586V16.0739C18.8586 15.999 18.8733 15.9248 18.9019 15.8556C18.9306 15.7865 18.9726 15.7236 19.0256 15.6706C19.0785 15.6177 19.1414 15.5756 19.2106 15.547C19.2798 15.5183 19.3539 15.5036 19.4288 15.5036C19.9797 15.4975 20.5059 15.2744 20.8933 14.8827C21.2807 14.491 21.498 13.9624 21.498 13.4115C21.498 12.8606 21.2807 12.3319 20.8934 11.9402C20.506 11.5485 19.9798 11.3254 19.4289 11.3193C19.354 11.3193 19.2798 11.3045 19.2106 11.2759C19.1414 11.2472 19.0785 11.2052 19.0256 11.1523C18.9726 11.0993 18.9306 11.0364 18.902 10.9672C18.8733 10.898 18.8586 10.8239 18.8586 10.749V7.41118C18.8586 7.33628 18.8733 7.26211 18.902 7.1929C18.9306 7.1237 18.9726 7.06082 19.0256 7.00786C19.0785 6.9549 19.1414 6.91289 19.2106 6.88424C19.2798 6.85558 19.354 6.84084 19.4289 6.84086ZM21.9073 11.3378C22.3938 11.9194 22.6608 12.6534 22.6617 13.4117C22.6607 14.17 22.3937 14.9038 21.9071 15.4854C21.4206 16.0669 20.7454 16.4593 19.9992 16.5941V18.4777H22.7667C22.8416 18.4777 22.9157 18.4924 22.9849 18.5211C23.0541 18.5497 23.117 18.5917 23.17 18.6447C23.2229 18.6976 23.2649 18.7605 23.2936 18.8297C23.3223 18.8989 23.337 18.973 23.337 19.0479C23.3431 19.5988 23.5663 20.125 23.958 20.5124C24.3497 20.8997 24.8784 21.117 25.4293 21.117C25.9802 21.117 26.5088 20.8997 26.9005 20.5124C27.2923 20.1251 27.5154 19.5989 27.5216 19.048C27.5216 18.9731 27.5363 18.8989 27.565 18.8297C27.5936 18.7605 27.6356 18.6977 27.6886 18.6447C27.7416 18.5917 27.8044 18.5497 27.8736 18.5211C27.9428 18.4924 28.017 18.4777 28.0919 18.4777H30.8594V9.35046C30.8589 8.98749 30.7145 8.63953 30.4578 8.3829C30.2011 8.12627 29.8531 7.98191 29.4901 7.98149H19.9992V10.2288C20.7455 10.3636 21.4207 10.7561 21.9073 11.3378ZM7.99814 19.6183V29.1098C7.99864 29.4728 8.14306 29.8207 8.39975 30.0774C8.65643 30.334 9.00442 30.4783 9.36739 30.4788H18.8586V28.2315C18.1119 28.0976 17.436 27.7055 16.9493 27.1236C16.4625 26.5418 16.1958 25.8074 16.1958 25.0488C16.1958 24.2902 16.4625 23.5558 16.9493 22.974C17.436 22.3922 18.1119 22 18.8586 21.8661V19.6183H16.0908C16.0159 19.6183 15.9418 19.6036 15.8726 19.5749C15.8034 19.5463 15.7405 19.5043 15.6875 19.4513C15.6345 19.3984 15.5925 19.3355 15.5639 19.2663C15.5352 19.1971 15.5205 19.1229 15.5205 19.048C15.5196 18.4937 15.2988 17.9625 14.9065 17.5709C14.5143 17.1792 13.9826 16.9593 13.4283 16.9593C12.8741 16.9593 12.3424 17.1792 11.9502 17.5709C11.5579 17.9625 11.3371 18.4937 11.3362 19.048C11.3362 19.1229 11.3215 19.1971 11.2928 19.2663C11.2642 19.3355 11.2221 19.3984 11.1692 19.4513C11.1162 19.5043 11.0533 19.5463 10.9841 19.5749C10.9149 19.6036 10.8408 19.6183 10.7659 19.6183H7.99814ZM19.9992 30.4788H29.4901C29.8531 30.4784 30.2011 30.334 30.4578 30.0774C30.7145 29.8207 30.8589 29.4728 30.8594 29.1098V19.982H28.6118C28.478 20.7287 28.0859 21.4045 27.5041 21.8913C26.9223 22.378 26.1879 22.6448 25.4293 22.6448C24.6707 22.6448 23.9363 22.378 23.3545 21.8913C22.7727 21.4045 22.3806 20.7287 22.2468 19.982H19.9992V22.3863C19.9992 22.4612 19.9845 22.5354 19.9558 22.6046C19.9272 22.6738 19.8852 22.7367 19.8322 22.7897C19.7793 22.8426 19.7164 22.8846 19.6472 22.9133C19.578 22.9419 19.5038 22.9567 19.4289 22.9566C18.874 22.9566 18.3419 23.1771 17.9495 23.5694C17.5572 23.9618 17.3367 24.4939 17.3367 25.0488C17.3367 25.6037 17.5572 26.1358 17.9495 26.5282C18.3419 26.9206 18.874 27.141 19.4289 27.141C19.5038 27.141 19.578 27.1557 19.6472 27.1844C19.7164 27.213 19.7793 27.255 19.8322 27.308C19.8852 27.3609 19.9272 27.4238 19.9558 27.493C19.9845 27.5622 19.9992 27.6364 19.9992 27.7113V30.4788Z" fill="url(#paint0_linear_158_2552)"/>
<defs>
<linearGradient id="paint0_linear_158_2552" x1="0.0625" y1="16.2299" x2="32" y2="16.2299" gradientUnits="userSpaceOnUse">
<stop stop-color="#9942FF"/>
<stop offset="1" stop-color="#FC067D"/>
</linearGradient>
</defs>
</svg>
