<svg width="54" height="54" viewBox="0 0 54 54" fill="none" xmlns="http://www.w3.org/2000/svg">
<g clip-path="url(#clip0_613_884)">
<path d="M37.8031 46.575C30.2431 49.815 13.5031 34.425 6.07812 26.325C6.07812 33.075 9.45312 37.8 12.8281 43.2C16.2031 48.6 24.3031 52.65 27.6781 52.65C30.3781 52.65 35.5531 48.6 37.8031 46.575Z" fill="#DDDFE8"/>
<path fill-rule="evenodd" clip-rule="evenodd" d="M49.1924 9.32461C41.7627 7.28885 34.2893 4.11899 27.5801 0.157807C27.2237 -0.0526024 26.7815 -0.0526024 26.4252 0.157807C19.5225 4.2328 12.453 7.23116 4.8123 9.32461C4.3187 9.45971 3.97656 9.90837 3.97656 10.4202V22.0266C3.97656 33.9786 9.49035 41.89 14.116 46.4221C19.0958 51.3016 24.8966 54 27.0027 54C29.1086 54 34.9093 51.3016 39.8891 46.4221C44.5147 41.8901 50.0281 33.9787 50.0281 22.0266V10.4201C50.0281 9.90837 49.686 9.45971 49.1924 9.32461ZM47.7563 22.0265C47.7563 33.1896 42.6136 40.5719 38.2991 44.7993C33.4021 49.5976 28.1663 51.728 27.0027 51.728C25.839 51.728 20.6029 49.5976 15.7058 44.7993C11.3914 40.5718 6.24846 33.1896 6.24846 22.0265V11.2824C13.5551 9.20785 20.3597 6.31264 27.0029 2.45217C33.4801 6.21023 40.6242 9.24941 47.7563 11.282V22.0265ZM16.9345 11.1554C16.7046 10.5716 16.0451 10.2848 15.4613 10.5149C13.432 11.3144 11.3492 12.0504 9.27078 12.7024C8.79712 12.8511 8.4748 13.2899 8.4748 13.7862V18.1727C8.4748 18.8001 8.98348 19.3086 9.6107 19.3086C10.2379 19.3086 10.7466 18.8001 10.7466 18.1727V14.6163C12.6112 14.0131 14.4737 13.3458 16.294 12.6285C16.8778 12.3986 17.1646 11.7392 16.9345 11.1554ZM19.5478 11.2753C19.3994 11.3401 19.2447 11.3708 19.0923 11.3708C18.6541 11.3708 18.2359 11.1169 18.0495 10.6902C17.7984 10.1154 18.0581 9.44692 18.6331 9.1958L18.6514 9.18789C19.2255 8.93624 19.8983 9.19622 20.1504 9.77092C20.4022 10.3454 20.1434 11.0144 19.5687 11.2663L19.5478 11.2753ZM40.5364 36.6275C40.0115 36.2844 39.3076 36.432 38.964 36.9571C38.028 38.3898 36.9299 39.7617 35.6997 41.0344C34.688 42.0809 33.5918 43.0562 32.4414 43.9332C31.9427 44.3135 31.8467 45.0263 32.2269 45.5253C32.4506 45.8184 32.7889 45.9725 33.131 45.9725C33.3713 45.9725 33.6133 45.8967 33.819 45.7398C35.0598 44.7936 36.2421 43.7418 37.3329 42.6135C38.6629 41.2377 39.8516 39.7528 40.866 38.1997C41.2093 37.6745 41.0615 36.9706 40.5364 36.6275ZM29.7375 45.753L29.8026 45.7147C30.3437 45.3979 31.0396 45.5794 31.3568 46.1206C31.6739 46.662 31.492 47.3577 30.9507 47.6748L30.8755 47.719C30.6965 47.8229 30.5005 47.8721 30.3075 47.8721C29.9153 47.8721 29.534 47.669 29.3234 47.3051C29.0091 46.7623 29.1946 46.0674 29.7375 45.753Z" fill="url(#paint0_linear_613_884)"/>
<path d="M19.2606 24.6816C18.5632 23.984 17.6356 23.6001 16.649 23.6001C15.6625 23.6001 14.7348 23.9841 14.037 24.6816C12.597 26.1219 12.597 28.4654 14.037 29.9056L20.7444 36.6127C21.4419 37.3101 22.3695 37.6941 23.3562 37.6941C24.3429 37.6941 25.2705 37.3101 25.9681 36.6125L39.9702 22.6103C41.4101 21.1697 41.4101 18.8265 39.97 17.3868C39.2725 16.6892 38.3449 16.3053 37.3581 16.3053C36.3714 16.3053 35.4438 16.6893 34.7462 17.3868L23.3561 28.7768L19.2606 24.6816ZM36.3527 18.9933C36.6211 18.7249 36.9783 18.5771 37.3582 18.5771C37.7383 18.5771 38.0952 18.7249 38.3638 18.9933C38.9181 19.5475 38.9181 20.4497 38.3636 21.0041L24.3617 35.0061C24.0933 35.2746 23.7361 35.4223 23.3562 35.4223C22.9763 35.4223 22.6191 35.2746 22.3506 35.0061L15.6434 28.2992C15.0889 27.7447 15.0889 26.8426 15.6432 26.2883C15.9117 26.0199 16.2689 25.8719 16.6489 25.8719C17.0289 25.8719 17.3859 26.0197 17.6544 26.2881L22.5528 31.1867C22.766 31.3996 23.0548 31.5193 23.3561 31.5193C23.6574 31.5193 23.9462 31.3997 24.1591 31.1867L36.3527 18.9933Z" fill="url(#paint1_linear_613_884)"/>
</g>
<defs>
<linearGradient id="paint0_linear_613_884" x1="3.97656" y1="27" x2="50.0281" y2="27" gradientUnits="userSpaceOnUse">
<stop stop-color="#9942FF"/>
<stop offset="1" stop-color="#FC067D"/>
</linearGradient>
<linearGradient id="paint1_linear_613_884" x1="12.957" y1="26.9997" x2="41.0501" y2="26.9997" gradientUnits="userSpaceOnUse">
<stop stop-color="#FB9004"/>
<stop offset="1" stop-color="#FC067D"/>
</linearGradient>
<clipPath id="clip0_613_884">
<rect width="54" height="54" fill="white"/>
</clipPath>
</defs>
</svg>
