<svg width="1304" height="882" viewBox="0 0 1304 882" fill="none" xmlns="http://www.w3.org/2000/svg">
<path opacity="0.16" d="M67.0526 861.892C67.0526 861.892 -37.7171 752.153 14.6678 586.412C67.0526 420.672 279.929 357.24 308.912 300.936C337.893 244.632 344.264 114.273 437.54 46.3085C546.958 -33.4175 704.803 -5.77476 778.149 95.3323C851.494 196.439 917.642 323.888 1011.74 334.399C1105.83 344.908 1199.46 334.524 1275.25 480.659C1351.04 626.795 1256.3 828.461 1227.32 863" fill="#B5A7E9"/>
<path d="M1239.97 812.693H1148.95V813.381H1239.97V812.693Z" fill="#EBEBEB"/>
<path d="M913.818 820.151H889.928V820.839H913.818V820.151Z" fill="#EBEBEB"/>
<path d="M1146.2 787.173H1093.46V787.861H1146.2V787.173Z" fill="#EBEBEB"/>
<path d="M308.314 791.791H290.91V792.478H308.314V791.791Z" fill="#EBEBEB"/>
<path d="M1228.21 157.796C1235.5 112.877 1205 70.5534 1160.08 63.264C1115.16 55.9733 1072.84 86.4783 1065.55 131.396C1058.26 176.314 1088.76 218.638 1133.68 225.927C1178.6 233.218 1220.92 202.715 1228.21 157.796Z" fill="#84B4FE"/>
<path d="M1147.09 228.833C1100.64 228.833 1062.84 191.039 1062.84 144.587C1062.84 98.1315 1100.64 60.3372 1147.09 60.3372V64.0444C1102.68 64.0444 1066.55 100.173 1066.55 144.587C1066.55 188.997 1102.68 225.126 1147.09 225.126V228.833Z" fill="#669CF0"/>
<path d="M1147.09 228.833V225.126C1191.5 225.126 1227.63 188.997 1227.63 144.587C1227.63 100.176 1191.5 64.0444 1147.09 64.0444V60.3372C1193.54 60.3372 1231.34 98.1315 1231.34 144.587C1231.34 191.039 1193.55 228.833 1147.09 228.833Z" fill="#669CF0"/>
<path d="M1190.14 144.602H1186.43C1186.43 117.298 1172.58 80.7606 1146.09 63.7689L1148.09 60.647C1175.7 78.361 1190.14 116.291 1190.14 144.602Z" fill="#669CF0"/>
<path d="M1148.09 226.044L1146.09 222.922C1172.58 205.93 1186.43 169.396 1186.43 142.089H1190.14C1190.14 170.403 1175.7 208.331 1148.09 226.044Z" fill="#669CF0"/>
<path d="M1107.75 144.586H1104.04C1104.04 116.272 1118.49 78.3447 1146.09 60.6294L1148.09 63.7514C1121.61 80.7431 1107.75 117.28 1107.75 144.586Z" fill="#669CF0"/>
<path d="M1146.09 226.024C1118.48 208.31 1104.04 170.38 1104.04 142.068H1107.75C1107.75 169.374 1121.61 205.908 1148.09 222.902L1146.09 226.024Z" fill="#669CF0"/>
<path d="M1148.95 62.1889H1145.24V226.979H1148.95V62.1889Z" fill="#669CF0"/>
<path d="M1216.83 98.8402H1077.35V102.547H1216.83V98.8402Z" fill="#669CF0"/>
<path d="M1229.45 144.136H1064.73V147.843H1229.45V144.136Z" fill="#669CF0"/>
<path d="M1214.99 189.388H1079.19V193.096H1214.99V189.388Z" fill="#669CF0"/>
<path d="M266.281 114.174C266.281 108.487 265.443 102.988 263.863 97.8194L278.212 85.1973L269.178 69.5464L251.071 75.6719C243.576 67.6749 233.785 61.8687 222.746 59.3041L218.985 40.5698H200.916L197.17 59.3041C186.131 61.8687 176.327 67.6749 168.832 75.6719L150.725 69.5464L141.691 85.1973L156.04 97.8194C154.473 102.988 153.622 108.487 153.622 114.174C153.622 119.874 154.47 125.362 156.04 130.542L141.691 143.151L150.725 158.801L168.832 152.676C176.327 160.673 186.129 166.479 197.17 169.057L200.916 187.789H218.985L222.746 169.057C233.785 166.479 243.576 160.676 251.071 152.676L269.178 158.801L278.212 143.151L263.863 130.542C265.443 125.362 266.281 119.874 266.281 114.174ZM209.949 144.584C193.782 144.584 180.682 131.473 180.682 115.303C180.682 99.1362 193.782 86.022 209.949 86.022C226.118 86.022 239.232 99.1336 239.232 115.303C239.232 131.473 226.12 144.584 209.949 144.584Z" fill="url(#paint0_linear_686_2598)"/>
<path d="M343.757 192.042C343.757 187.711 343.118 183.524 341.914 179.588L352.842 169.978L345.963 158.061L332.172 162.725C326.467 156.635 319.011 152.214 310.602 150.263L307.739 135.996H293.979L291.127 150.263C282.72 152.214 275.252 156.635 269.547 162.725L255.757 158.061L248.879 169.978L259.805 179.588C258.613 183.524 257.964 187.711 257.964 192.042C257.964 196.382 258.613 200.562 259.805 204.506L248.879 214.107L255.757 226.027L269.547 221.363C275.252 227.453 282.72 231.874 291.127 233.836L293.979 248.102H307.739L310.602 233.836C319.009 231.874 326.464 227.453 332.172 221.363L345.963 226.027L352.842 214.107L341.914 204.506C343.118 200.559 343.757 196.382 343.757 192.042ZM300.864 215.199C288.551 215.199 278.575 205.215 278.575 192.9C278.575 180.588 288.551 170.602 300.864 170.602C313.174 170.602 323.161 180.585 323.161 192.9C323.159 205.215 313.174 215.199 300.864 215.199Z" fill="url(#paint1_linear_686_2598)"/>
<path d="M549.391 121.17L556.671 106.385L563.977 121.157L580.288 123.514L568.496 135.029L571.296 151.268L556.701 143.611L542.119 151.292L544.892 135.048L533.08 123.552L549.391 121.17Z" fill="url(#paint2_linear_686_2598)"/>
<path d="M615.804 121.17L623.087 106.385L630.391 121.157L646.701 123.514L634.912 135.029L637.709 151.268L623.116 143.611L608.535 151.292L611.308 135.048L599.496 123.552L615.804 121.17Z" fill="url(#paint3_linear_686_2598)"/>
<path d="M682.219 121.17L689.502 106.385L696.807 121.157L713.119 123.514L701.327 135.029L704.128 151.268L689.532 143.611L674.951 151.292L677.723 135.048L665.912 123.552L682.219 121.17Z" fill="url(#paint4_linear_686_2598)"/>
<path d="M748.63 121.17L755.91 106.385L763.217 121.157L779.528 123.514L767.736 135.029L770.536 151.268L755.941 143.611L741.361 151.292L744.132 135.048L732.322 123.552L748.63 121.17Z" fill="url(#paint5_linear_686_2598)"/>
<path d="M815.044 121.17L822.327 106.385L829.631 121.157L845.944 123.514L834.152 135.029L836.952 151.268L822.356 143.611L807.775 151.292L810.548 135.048L798.736 123.552L815.044 121.17Z" fill="url(#paint6_linear_686_2598)"/>
<path d="M677.365 882C971.642 882 1210.2 868.069 1210.2 850.883C1210.2 833.697 971.642 819.765 677.365 819.765C383.087 819.765 144.529 833.697 144.529 850.883C144.529 868.069 383.087 882 677.365 882Z" fill="#D4DFFF"/>
<path d="M497.319 823.511L496.767 829.822C496.695 830.631 496.795 831.415 497.017 832.126C497.017 832.126 497.017 832.126 497.04 832.15C497.152 832.483 497.29 832.815 497.476 833.124C497.664 833.431 497.875 833.717 498.136 834C498.35 834.261 498.636 834.522 498.95 834.736C499.817 835.377 500.925 835.756 502.16 835.756H728.584C729.132 835.756 729.659 835.684 730.195 835.52C730.561 835.401 730.883 835.259 731.228 835.094C732.022 834.69 732.742 834.074 733.303 833.362C733.518 833.076 733.71 832.769 733.883 832.436C734.227 831.771 734.43 831.059 734.495 830.301L735.026 824.225C735.092 823.467 735.013 822.755 734.787 822.09C734.675 821.758 734.534 821.449 734.369 821.163C733.933 820.451 733.322 819.833 732.6 819.432C732.281 819.265 731.984 819.124 731.641 819.007C731.133 818.839 730.618 818.77 730.071 818.77H673.757C673.02 818.77 672.313 818.698 671.662 818.556H671.638C671.36 818.484 671.079 818.437 670.826 818.342C670.78 818.342 670.733 818.316 670.712 818.294C670.689 818.294 670.665 818.294 670.643 818.27C670.343 818.174 670.065 818.08 669.769 817.937C669.493 817.841 669.219 817.7 668.975 817.533C668.588 817.344 668.208 817.082 667.872 816.821C667.452 816.489 667.034 816.11 666.688 815.705C666.495 815.47 666.278 815.23 666.111 814.97C665.963 814.779 665.837 814.591 665.71 814.4C665.669 814.328 665.628 814.258 665.587 814.186C665.561 814.186 665.564 814.161 665.567 814.14C665.399 813.878 665.281 813.617 665.162 813.331C665.041 813.095 664.943 812.856 664.847 812.595C664.827 812.547 664.811 812.477 664.789 812.428C664.773 812.356 664.754 812.284 664.734 812.237C664.715 812.191 664.695 812.144 664.695 812.119C664.618 811.905 664.566 811.691 664.539 811.479C664.471 811.171 664.404 810.863 664.386 810.531C664.363 810.506 664.366 810.484 664.366 810.459C664.344 810.173 664.322 809.866 664.3 809.58C664.303 809.272 664.306 808.987 664.33 808.701L664.35 808.486C664.352 808.2 664.402 807.893 664.451 807.61C664.5 807.301 664.572 807.016 664.649 806.708L664.652 806.684L686.802 721.7L691.053 705.395L694.378 692.603H565.777L558.868 705.395L550.085 721.7L500.059 814.444C499.889 814.777 499.719 815.084 499.546 815.417C499.543 815.463 499.541 815.488 499.515 815.514C499.34 815.893 499.191 816.249 499.013 816.628C498.861 817.009 498.711 817.388 498.579 817.791C498.484 818.053 498.391 818.288 498.323 818.55C497.803 820.165 497.468 821.825 497.319 823.511Z" fill="#263238"/>
<path d="M735.028 824.208L734.496 830.31C734.232 833.329 731.596 835.75 728.58 835.75H502.178C498.908 835.75 496.468 833.076 496.751 829.836L497.303 823.514C497.449 821.846 497.782 820.179 498.303 818.544C498.774 817.129 499.334 815.747 500.048 814.425L565.782 692.608H694.395L664.661 806.688C664.473 807.381 664.355 808.041 664.328 808.701C664.004 813.483 667.103 817.603 671.643 818.544C672.322 818.701 673.009 818.765 673.762 818.765H730.063C733.084 818.768 735.29 821.218 735.028 824.208Z" fill="#6880E4"/>
<path d="M492.787 814.436L558.506 692.597H565.786L500.067 814.436C498.528 817.29 497.587 820.386 497.316 823.519L496.763 829.832C496.478 833.101 498.896 835.751 502.166 835.751H494.886C491.616 835.751 489.198 833.101 489.484 829.832L490.036 823.519C490.307 820.386 491.248 817.29 492.787 814.436Z" fill="#1C056D"/>
<path opacity="0.3" d="M565.787 692.597H694.381L686.794 721.714H550.082L565.787 692.597Z" fill="#6880E4"/>
<path d="M347.6 288.859L347.61 642.463V685.323C347.613 696.407 356.581 705.402 367.664 705.402H916.34C927.398 705.402 936.396 696.407 936.392 685.323V642.463L936.382 288.859C936.404 277.776 927.41 268.806 916.326 268.806H367.675C363.094 268.806 358.853 270.347 355.47 272.936C354.986 273.316 354.503 273.695 354.086 274.124C352.743 275.358 351.554 276.759 350.609 278.323C349.949 279.342 349.405 280.437 348.971 281.598C348.086 283.853 347.61 286.297 347.6 288.859Z" fill="#6880E4"/>
<path d="M936.385 642.455V685.328C936.385 696.406 927.404 705.387 916.326 705.387H367.663C356.584 705.387 347.604 696.406 347.604 685.328V642.455H936.385Z" fill="#407BFF"/>
<path d="M936.385 642.455V685.328C936.385 696.406 927.404 705.387 916.326 705.387H367.663C356.584 705.387 347.604 696.406 347.604 685.328V642.455H936.385Z" fill="#DBDCFD"/>
<path d="M368.031 630.346H915.967C921.974 630.346 926.844 625.477 926.844 619.469V291.791C926.844 285.784 921.974 280.914 915.967 280.914H368.031C362.023 280.914 357.154 285.784 357.154 291.791V619.469C357.154 625.477 362.023 630.346 368.031 630.346Z" fill="#DBDCFD"/>
<path d="M355.532 268.806H367.666C356.588 268.806 347.606 277.787 347.606 288.865V685.332C347.606 696.41 356.588 705.39 367.666 705.39H355.534C344.457 705.39 335.477 696.41 335.477 685.332V288.865C335.474 277.787 344.451 268.806 355.532 268.806Z" fill="#263238"/>
<g opacity="0.2">
<path d="M355.532 268.806H367.666C356.588 268.806 347.606 277.787 347.606 288.865V685.332C347.606 696.41 356.588 705.39 367.666 705.39H355.534C344.457 705.39 335.477 696.41 335.477 685.332V288.865C335.474 277.787 344.451 268.806 355.532 268.806Z" fill="#1C056D"/>
</g>
<path d="M930.185 489.583C916.081 486.874 893.696 495.997 889.515 509.738C890.568 501.395 886.215 492.62 878.935 488.41C871.655 484.2 862.13 481.22 855.424 486.296C862.141 459.472 852.014 429.173 830.515 411.781C809.019 394.388 777.681 392.499 752.847 404.666C760.24 390.689 760.852 373.315 754.458 358.853C748.062 344.393 736.63 334.55 721.702 329.333C687.361 317.337 650.096 313.804 614.112 319.132C593.202 322.23 571.874 328.765 556.667 343.447C541.464 358.131 537.527 384.584 547.64 403.146C524.243 395.228 496.588 401.78 479.228 419.354C461.868 436.928 456.107 464.267 464.307 487.567C457.885 483.667 449.437 483.35 442.74 486.761C436.047 490.171 431.388 496.935 430.767 504.42C422.017 492.893 407.49 485.989 393.023 486.487C378.558 486.981 364.539 494.863 356.598 506.962V630.349H926.838L930.185 489.583Z" fill="url(#paint7_linear_686_2598)"/>
<path d="M803.086 489.553H509.255C494.305 489.553 482.186 477.434 482.186 462.484C482.186 447.534 494.305 435.415 509.255 435.415H803.086C818.036 435.415 830.156 447.534 830.156 462.484C830.156 477.434 818.036 489.553 803.086 489.553Z" fill="white"/>
<path d="M519.454 456.849C519.454 463.403 514.142 468.715 507.587 468.715C501.033 468.715 495.721 463.403 495.721 456.849C495.721 450.294 501.033 444.982 507.587 444.982C514.142 444.982 519.454 450.294 519.454 456.849Z" stroke="url(#paint8_linear_686_2598)" stroke-width="3" stroke-miterlimit="10"/>
<path d="M515.762 465.426L534.699 484.388" stroke="url(#paint9_linear_686_2598)" stroke-width="3" stroke-miterlimit="10"/>
<g opacity="0.1">
<path d="M741.357 280.914H762.434L806.137 630.346H785.059L741.357 280.914Z" fill="white"/>
<path d="M827.435 630.346L783.734 280.914H862.917L906.62 630.346H827.435Z" fill="white"/>
</g>
<path opacity="0.2" d="M536.37 824.25L535.862 830.046C535.587 833.195 537.917 835.751 541.067 835.751H728.573C731.586 835.751 734.237 833.31 734.501 830.299L735.031 824.22C735.296 821.211 733.069 818.77 730.057 818.77H673.742C673.014 818.77 672.318 818.696 671.653 818.544H542.573C539.424 818.544 536.648 821.098 536.37 824.25Z" fill="#6880E4"/>
<path opacity="0.2" d="M498.32 818.546H671.66C667.095 817.616 664.014 813.496 664.333 808.698H503.604L498.32 818.546Z" fill="#6880E4"/>
<path d="M586.922 402.933L590.72 394.51C594.795 397.478 600.871 399.55 606.672 399.55C613.303 399.55 615.997 397.341 615.997 394.369C615.997 385.322 587.889 391.538 587.889 373.582C587.889 365.366 594.52 358.525 608.263 358.525C614.34 358.525 620.557 359.976 625.046 362.809L621.593 371.304C617.105 368.748 612.477 367.506 608.195 367.506C601.564 367.506 599.008 369.991 599.008 373.03C599.008 381.94 627.119 375.794 627.119 393.542C627.119 401.621 620.418 408.53 606.607 408.53C598.94 408.527 591.204 406.25 586.922 402.933Z" fill="white"/>
<path d="M672.22 398.72V407.699H634.787V359.353H671.322V368.331H645.903V378.828H668.35V387.532H645.903V398.72H672.22Z" fill="white"/>
<path d="M677.961 383.525C677.961 369.161 689.149 358.523 704.416 358.523C719.609 358.523 730.866 369.089 730.866 383.525C730.866 397.959 719.609 408.527 704.416 408.527C689.149 408.527 677.961 397.892 677.961 383.525ZM719.538 383.525C719.538 374.338 713.047 368.053 704.416 368.053C695.78 368.053 689.289 374.338 689.289 383.525C689.289 392.713 695.78 398.995 704.416 398.995C713.047 398.995 719.538 392.713 719.538 383.525Z" fill="white"/>
<path d="M641.757 570.758H525.794C519.948 570.758 515.211 566.022 515.211 560.175V535.664C515.211 529.819 519.948 525.081 525.794 525.081H641.757C647.602 525.081 652.34 529.819 652.34 535.664V560.175C652.34 566.022 647.602 570.758 641.757 570.758Z" fill="#DFDEFF"/>
<path d="M809.921 570.758H693.958C688.112 570.758 683.375 566.022 683.375 560.175V535.664C683.375 529.819 688.112 525.081 693.958 525.081H809.921C815.766 525.081 820.504 529.819 820.504 535.664V560.175C820.504 566.022 815.766 570.758 809.921 570.758Z" fill="#DFDEFF"/>
<path d="M953.26 490.513L950.096 491.191C947.222 491.807 945.054 494.171 944.685 497.087L944.405 499.312C944.121 501.567 944.943 503.833 946.655 505.329C951.852 509.871 964.098 518.275 978.937 512.847L990.796 503.932L988.844 487.927L964.214 484.354C962.716 484.413 961.278 484.957 960.118 485.904L953.26 490.513Z" fill="#FFB7D6"/>
<path d="M990.799 503.936L1023.68 502.278L1018.6 484.391L988.848 487.927L990.799 503.936Z" fill="#FFB7D6"/>
<path d="M1010.39 484.519C1009.27 486.671 1008.48 489.505 1009.06 492.874C1009.6 496.023 1010.92 501.572 1014.38 505.367C1008.83 505.432 1003.37 506.777 998.425 509.296L998.159 509.433C981.008 497.713 990.915 483.833 990.915 483.833L992.042 483.994C998.126 484.8 1004.28 484.986 1010.39 484.519Z" fill="#8F80C7"/>
<path d="M1077.74 499.286C1047.19 506.316 1009.17 505.633 1009.17 505.633C1007.83 503.359 1007.41 500.967 1007.55 498.639C1007.84 493.511 1008.52 487.112 1010.39 484.522C1012.4 481.753 1025.4 480.57 1025.4 480.57C1025.4 480.57 1050.92 468.723 1055.76 464.851C1060.54 460.995 1060.41 442.926 1059.5 430.956C1054.64 367.006 1065.89 362.2 1076.09 359.331C1097.27 353.37 1104.79 493.052 1077.74 499.286Z" fill="#407BFF"/>
<path d="M868.375 512.998H953.776C956.557 512.998 957.808 510.745 956.571 507.963L935.142 459.783C933.904 457.001 930.648 454.748 927.867 454.748H842.465C839.684 454.748 838.434 457.001 839.671 459.783L861.1 507.963C862.337 510.745 865.593 512.998 868.375 512.998Z" fill="#407BFF"/>
<path d="M868.375 512.998H953.776C956.557 512.998 957.808 510.745 956.571 507.963L935.142 459.783C933.904 457.001 930.648 454.748 927.867 454.748H842.465C839.684 454.748 838.434 457.001 839.671 459.783L861.1 507.963C862.337 510.745 865.593 512.998 868.375 512.998Z" fill="#6880E4"/>
<path d="M838.781 454.748H842.471C839.689 454.748 838.439 457.001 839.676 459.783L861.106 507.963C862.343 510.745 865.6 512.998 868.381 512.998H864.693C861.911 512.998 858.655 510.745 857.418 507.963L835.989 459.783C834.749 457.001 835.999 454.748 838.781 454.748Z" fill="#407BFF"/>
<path d="M838.781 454.748H842.471C839.689 454.748 838.439 457.001 839.676 459.783L861.106 507.963C862.343 510.745 865.6 512.998 868.381 512.998H864.693C861.911 512.998 858.655 510.745 857.418 507.963L835.989 459.783C834.749 457.001 835.999 454.748 838.781 454.748Z" fill="#1C056D"/>
<path d="M869.956 507.458H947.261L926.281 460.288H848.977L869.956 507.458Z" fill="#263238"/>
<path d="M869.956 507.458H947.261L926.281 460.288H848.977L869.956 507.458Z" fill="#DBDCFD"/>
<path d="M1124.32 509.242C1124.32 509.242 1126.45 537.415 1126.75 547.327C1128.8 613.407 1074.85 618.453 1035.16 611.164L891.461 570.983C885.756 590.086 819.314 695.26 819.314 695.26L784.385 675.204C784.385 675.204 820.6 588.377 843.975 527.959C857.324 493.464 965.953 517.321 1005.96 524.416C1018.12 527.695 1015.77 508.706 1015.77 508.706L1124.32 509.242Z" fill="#3A376B"/>
<path d="M810.397 693.285L797.061 715.521L772.176 703.139L785.12 677.823L810.397 693.285Z" fill="#FFB7D6"/>
<path d="M771.749 699.062L800.577 712.247C801.662 712.745 802.262 713.927 802.014 715.098L796.498 740.932C796.026 743.227 793.783 744.706 791.486 744.234C791.192 744.173 790.903 744.08 790.628 743.959C780.321 739.025 771.339 734.23 758.393 728.33C743.123 721.352 746.16 724.949 728.094 716.996C717.214 712.193 720.858 698.993 725.719 700.486C747.916 707.444 752.995 702.104 764.526 698.295C766.947 697.655 769.517 697.926 771.749 699.062Z" fill="#517FC4"/>
<path d="M824.85 693.162L781.542 666.142C781.542 666.142 774.572 669.99 776.105 677.49L817.699 704.061C817.699 704.061 823.3 703.808 824.85 693.162Z" fill="#3A376B"/>
<path d="M884.109 803.881L878.877 828.532L852.096 825.016L855.99 797.659L884.109 803.881Z" fill="#FFB7D6"/>
<path d="M850.415 821.404L881.074 824.413C882.23 824.526 883.152 825.424 883.294 826.578L886.388 852.064C886.68 854.324 885.083 856.39 882.825 856.682C882.536 856.717 882.242 856.725 881.951 856.702C870.917 855.423 861.15 853.854 847.387 852.523C831.149 850.935 835.078 853.282 815.962 851.68C804.444 850.705 803.623 837.423 808.561 837.258C831.159 836.64 834.139 830.126 843.534 822.981C845.557 821.629 848.006 821.069 850.415 821.404Z" fill="#517FC4"/>
<path d="M892.041 794.129L891.262 797.245L850.229 794.005L850.666 790.888L892.041 794.129Z" fill="#3A376B"/>
<path d="M893.722 806.998L883.628 806.094L855.152 803.538L845.959 802.697C841.285 796.902 845.556 790.485 845.556 790.485L850.664 790.888L892.04 794.128L895.03 794.378C898.457 804.255 893.722 806.998 893.722 806.998Z" fill="#3A376B"/>
<path d="M1060.32 635.667C1023.18 638.938 937.559 640.309 925.968 638.624L892.037 794.129L850.66 790.888C850.66 790.888 855.044 656.422 873.28 600.83C887.942 556.138 1122.69 565.406 1122.69 565.406L1123.54 577.992C1125.16 621.366 1102.82 631.897 1060.32 635.667Z" fill="#3A376B"/>
<path opacity="0.1" d="M1060.32 635.667C1023.18 638.938 937.559 640.309 925.968 638.624L892.037 794.129L850.66 790.888C850.66 790.888 855.044 656.422 873.28 600.83C887.942 556.138 1122.69 565.406 1122.69 565.406L1123.54 577.992C1125.16 621.366 1102.82 631.897 1060.32 635.667Z" fill="black"/>
<path d="M872.629 617.065C872.629 617.065 872.66 616.784 872.753 616.317L872.66 617.065C872.629 617.065 872.629 617.065 872.629 617.065Z" fill="#3A376B"/>
<path d="M875.405 596.845L874.998 599.898C874.998 599.898 875.029 598.807 875.405 596.845Z" fill="#3A376B"/>
<path d="M1006.81 354.025L1018.22 370.679L1043.87 348.751L1027.84 329.057L1006.81 354.025Z" fill="#FAB27B"/>
<path opacity="0.2" d="M1012.52 361.895C1017.49 354.631 1015.22 343.326 1015.22 343.326L1010.71 349.061L1006.81 354.025L1012.52 361.895Z" fill="black"/>
<path d="M968.897 317.831L965.254 333.385C965.254 333.385 970.552 334.885 975.708 330.598L968.897 317.831Z" fill="#FFB7D6"/>
<path d="M1023.88 289.16C1032.22 310.403 1036.21 319.222 1030.57 334.905C1019.43 353.477 993.781 364.737 979.177 346.541C966.029 330.176 954.638 298.261 971.278 280.039C983.145 267.056 1003.09 265.858 1015.83 277.361C1019.41 280.596 1022.17 284.636 1023.88 289.16Z" fill="#FFB7D6"/>
<path d="M1044 295.502C1042.75 302.628 1042.2 309.831 1041.89 317.059C1041.7 321.452 1040.71 325.814 1038.93 329.837C1035.37 337.884 1028.17 343.979 1020.1 347.469C1020.1 347.469 990.145 347.114 977.402 309.426C970.398 310.086 963.152 307.057 958.703 301.614C954.254 296.167 952.728 288.464 954.773 281.733C957.206 273.715 967.351 268.704 975.724 268.408C981.015 261.06 990.207 257.396 999.254 257.74C1008.3 258.083 1016.92 261.725 1024.78 266.218C1031.5 270.057 1038.06 274.791 1041.82 281.552C1044.06 285.579 1044.83 290.756 1044 295.502Z" fill="#1C056D"/>
<path d="M983.652 313.994C981.737 318.337 981.619 323.217 983.323 327.557C985.628 333.295 991.784 332.32 995.329 327.518C998.541 323.168 1001.16 314.97 996.821 310.743C992.482 306.517 986.053 308.713 983.652 313.994Z" fill="#FFB7D6"/>
<path d="M1044.08 336.356C1035.93 336.694 1023.65 342.282 1007.4 353.505C1005.59 354.75 1004.98 357.369 1005.19 359.551C1005.4 361.733 1007.59 363.811 1009.66 363.113C1010.76 365.764 1011.47 368.873 1012.56 371.525C1017.27 368.617 1023.25 367.081 1028.34 364.933C1036.47 361.499 1044.99 359.081 1053.48 356.673C1051.2 353.19 1048.15 349.795 1047.25 345.727C1049.22 345.183 1050.19 342.567 1049.8 340.558C1049.42 338.55 1046.12 336.271 1044.08 336.356Z" fill="#407BFF"/>
<path d="M1044.08 336.356C1035.93 336.694 1023.65 342.282 1007.4 353.505C1005.59 354.75 1004.98 357.369 1005.19 359.551C1005.4 361.733 1007.59 363.811 1009.66 363.113C1010.76 365.764 1011.47 368.873 1012.56 371.525C1017.27 368.617 1023.25 367.081 1028.34 364.933C1036.47 361.499 1044.99 359.081 1053.48 356.673C1051.2 353.19 1048.15 349.795 1047.25 345.727C1049.22 345.183 1050.19 342.567 1049.8 340.558C1049.42 338.55 1046.12 336.271 1044.08 336.356Z" fill="#B5A7E9"/>
<path d="M1019.96 546.847C1019.96 546.847 992.777 483.248 975.508 418.751C962.77 371.177 999.188 370.353 1043.12 358.525C1077.95 349.146 1092.85 357.542 1102.8 375.209C1112.76 392.877 1128.8 542.426 1128.8 542.426L1019.96 546.847Z" fill="#407BFF"/>
<path d="M1019.96 546.847C1019.96 546.847 992.777 483.248 975.508 418.751C962.77 371.177 999.188 370.353 1043.12 358.525C1077.95 349.146 1092.85 357.542 1102.8 375.209C1112.76 392.877 1128.8 542.426 1128.8 542.426L1019.96 546.847Z" fill="#407BFF"/>
<path d="M1019.96 546.847C1019.96 546.847 992.777 483.248 975.508 418.751C962.77 371.177 999.188 370.353 1043.12 358.525C1077.95 349.146 1092.85 357.542 1102.8 375.209C1112.76 392.877 1128.8 542.426 1128.8 542.426L1019.96 546.847Z" fill="#B5A7E9"/>
<path d="M861.06 478.27L857.971 478.383C855.165 478.484 852.728 480.347 851.898 483.03L851.263 485.078C850.62 487.153 851.019 489.422 852.378 491.115C856.515 496.254 866.642 506.205 881.512 503.564L894.156 497.148L894.984 481.757L872.393 474.296C870.975 474.101 869.529 474.376 868.279 475.071L861.06 478.27Z" fill="#FFB7D6"/>
<path d="M894.156 497.148L925.377 501.061L923.575 483.379L894.98 481.758L894.156 497.148Z" fill="#FFB7D6"/>
<path d="M915.826 482.134C914.413 483.972 913.196 486.509 913.179 489.776C913.163 492.832 913.484 498.273 916.112 502.42C910.876 501.557 905.514 501.915 900.438 503.465L900.164 503.55C885.972 489.664 897.605 478.247 897.605 478.247L898.638 478.586C904.236 480.358 909.997 481.557 915.826 482.134Z" fill="#8F80C7"/>
<path d="M976.759 507.239C946.834 508.773 911.165 501.805 911.165 501.805C910.281 499.44 910.276 497.12 910.801 494.952C911.925 490.173 913.632 484.261 915.824 482.137C918.172 479.861 930.609 480.917 930.609 480.917C930.609 480.917 956.595 474.011 961.792 471.172C966.937 468.339 969.822 451.312 970.957 439.892C977.023 378.891 988.412 376.24 998.489 375.237C1019.42 373.149 1003.26 505.875 976.759 507.239Z" fill="#8F80C7"/>
<path d="M886.389 852.062L914.326 679.47C917.278 661.236 933.022 647.837 951.492 647.837H1020.07C1039.13 647.837 1055.19 662.086 1057.45 681.014L1078.2 854.426" stroke="#517FC5" stroke-width="2" stroke-miterlimit="10"/>
<path d="M982.291 852.062L1010.23 679.47C1013.18 661.236 1028.92 647.837 1047.4 647.837H1115.97C1135.03 647.837 1151.09 662.086 1153.35 681.014L1174.1 854.426" stroke="#517FC5" stroke-width="2" stroke-miterlimit="10"/>
<path d="M893.725 806.998H988.113" stroke="#517FC5" stroke-width="2" stroke-miterlimit="10"/>
<path d="M1057.45 681.014H1155.05" stroke="#517FC5" stroke-width="2" stroke-miterlimit="10"/>
<path d="M1075.3 651.764H1147.11C1174.79 651.764 1197.82 630.481 1200.01 602.885L1210.23 473.887C1211.88 452.975 1195.36 435.094 1174.39 435.094H1134.72C1088.42 435.094 1047.62 465.491 1034.36 509.851L1006.85 601.96C1002.24 617.402 988.037 627.983 971.922 627.983H921.732C908.599 627.983 897.949 638.632 897.949 651.766H1032.99H1075.3V651.764Z" fill="#D0DCF8"/>
<path d="M304.39 494.457H168.877V587.75H304.39V494.457Z" fill="url(#paint10_linear_686_2598)"/>
<path d="M304.39 494.457H168.877V503.003H304.39V494.457Z" fill="#6880E4"/>
<path d="M193.705 546.056L215.86 558.335C216.971 558.959 217.712 559.517 218.077 560.003C218.443 560.492 218.627 561.116 218.627 561.872C218.627 562.828 218.284 563.658 217.593 564.359C216.904 565.06 216.102 565.409 215.192 565.409C214.59 565.409 213.692 565.076 212.491 564.408L183.91 548.513C181.983 547.442 181.983 544.671 183.91 543.599L212.491 527.705C213.692 527.058 214.579 526.736 215.159 526.736C216.093 526.736 216.904 527.084 217.597 527.77C218.286 528.46 218.629 529.285 218.629 530.239C218.629 530.994 218.446 531.618 218.08 532.106C217.712 532.596 216.973 533.152 215.863 533.776L193.705 546.056Z" fill="white"/>
<path d="M250.711 523.167L228.789 570.414C228.231 571.592 227.731 572.358 227.286 572.716C226.706 573.183 226.008 573.417 225.183 573.417C224.249 573.417 223.443 573.085 222.762 572.414C222.084 571.747 221.746 570.99 221.746 570.146C221.746 569.548 222.012 568.669 222.546 567.511L244.533 520.298C245.088 519.119 245.58 518.352 246.001 517.995C246.603 517.527 247.303 517.294 248.104 517.294C249.037 517.294 249.837 517.622 250.505 518.277C251.172 518.934 251.507 519.685 251.507 520.532C251.51 521.131 251.244 522.01 250.711 523.167Z" fill="white"/>
<path d="M278.277 546.056L256.122 533.777C255.008 533.157 254.269 532.598 253.904 532.109C253.536 531.621 253.354 530.997 253.354 530.24C253.354 529.285 253.698 528.463 254.387 527.772C255.077 527.083 255.888 526.739 256.823 526.739C257.403 526.739 258.292 527.061 259.494 527.707L288.074 543.601C290 544.674 290 547.444 288.074 548.515L259.494 564.411C258.292 565.078 257.403 565.411 256.823 565.411C255.877 565.411 255.055 565.057 254.363 564.354C253.709 563.688 253.354 562.809 253.354 561.874C253.354 561.119 253.538 560.497 253.904 560.008C254.269 559.52 255.008 558.964 256.122 558.34L278.277 546.056Z" fill="white"/>
<defs>
<linearGradient id="paint0_linear_686_2598" x1="141.691" y1="114.179" x2="278.212" y2="114.179" gradientUnits="userSpaceOnUse">
<stop stop-color="#FB9004"/>
<stop offset="1" stop-color="#FC067D"/>
</linearGradient>
<linearGradient id="paint1_linear_686_2598" x1="248.879" y1="192.05" x2="352.842" y2="192.05" gradientUnits="userSpaceOnUse">
<stop stop-color="#FB9004"/>
<stop offset="1" stop-color="#FC067D"/>
</linearGradient>
<linearGradient id="paint2_linear_686_2598" x1="533.08" y1="128.838" x2="580.288" y2="128.838" gradientUnits="userSpaceOnUse">
<stop stop-color="#FB9004"/>
<stop offset="1" stop-color="#FC067D"/>
</linearGradient>
<linearGradient id="paint3_linear_686_2598" x1="599.496" y1="128.838" x2="646.701" y2="128.838" gradientUnits="userSpaceOnUse">
<stop stop-color="#FB9004"/>
<stop offset="1" stop-color="#FC067D"/>
</linearGradient>
<linearGradient id="paint4_linear_686_2598" x1="665.912" y1="128.838" x2="713.119" y2="128.838" gradientUnits="userSpaceOnUse">
<stop stop-color="#FB9004"/>
<stop offset="1" stop-color="#FC067D"/>
</linearGradient>
<linearGradient id="paint5_linear_686_2598" x1="732.322" y1="128.838" x2="779.528" y2="128.838" gradientUnits="userSpaceOnUse">
<stop stop-color="#FB9004"/>
<stop offset="1" stop-color="#FC067D"/>
</linearGradient>
<linearGradient id="paint6_linear_686_2598" x1="798.736" y1="128.838" x2="845.944" y2="128.838" gradientUnits="userSpaceOnUse">
<stop stop-color="#FB9004"/>
<stop offset="1" stop-color="#FC067D"/>
</linearGradient>
<linearGradient id="paint7_linear_686_2598" x1="356.598" y1="473.535" x2="930.185" y2="473.535" gradientUnits="userSpaceOnUse">
<stop stop-color="#9942FF"/>
<stop offset="1" stop-color="#4D6DFF"/>
</linearGradient>
<linearGradient id="paint8_linear_686_2598" x1="495.721" y1="456.849" x2="519.454" y2="456.849" gradientUnits="userSpaceOnUse">
<stop stop-color="#9942FF"/>
<stop offset="1" stop-color="#FC067D"/>
</linearGradient>
<linearGradient id="paint9_linear_686_2598" x1="515.762" y1="474.906" x2="534.699" y2="474.906" gradientUnits="userSpaceOnUse">
<stop stop-color="#9942FF"/>
<stop offset="1" stop-color="#FC067D"/>
</linearGradient>
<linearGradient id="paint10_linear_686_2598" x1="168.877" y1="541.103" x2="304.39" y2="541.103" gradientUnits="userSpaceOnUse">
<stop stop-color="#FB9004"/>
<stop offset="1" stop-color="#FC067D"/>
</linearGradient>
</defs>
</svg>
