<svg width="50" height="50" viewBox="0 0 50 50" fill="none" xmlns="http://www.w3.org/2000/svg">
<path d="M37.726 29.343C35.7139 31.3551 28.5039 36.8884 25.1504 39.4035L29.3423 48.6256L32.6958 46.9489L38.5644 39.4035L39.4028 35.2116L37.726 29.343Z" fill="#DDDFE8"/>
<path d="M12.9478 42.425C10.1795 44.0145 7.05904 44.5846 5.21127 44.7892C5.41583 42.9414 5.98593 39.821 7.57381 37.051C7.98964 36.3283 7.73981 35.4061 7.01713 34.9903C6.28774 34.5728 5.37056 34.826 4.9564 35.5486C2.11264 40.5085 2.0791 46.1725 2.0791 46.4123C2.0791 47.2456 2.75483 47.9214 3.58818 47.9214C3.82795 47.9214 9.49201 47.8878 14.4518 45.0441C15.1745 44.6282 15.4243 43.7077 15.0085 42.9833C14.596 42.2607 13.6755 42.0091 12.9478 42.425Z" fill="url(#paint0_linear_497_944)"/>
<path fill-rule="evenodd" clip-rule="evenodd" d="M48.9456 1.04797C49.6431 1.74382 50.0171 2.67274 49.9986 3.6637C49.9198 7.84383 48.7192 19.1149 39.1484 29.7791C39.8878 31.6805 40.9894 34.5293 40.7061 36.7241C40.2969 39.9217 35.9441 44.6468 31.2995 49.2763C30.8267 49.7474 30.2046 50.0006 29.559 50.0006C29.3612 50.0006 29.1633 49.9772 28.9671 49.9302C28.117 49.724 27.4514 49.1036 27.1848 48.2719L24.8189 40.9127C23.8095 41.466 22.7732 42.0126 21.68 42.5408C21.1837 42.7806 20.6505 42.8963 20.1223 42.8963C19.1884 42.8963 18.2628 42.5307 17.572 41.8382L8.16038 32.4266C7.0772 31.3468 6.7955 29.6952 7.4595 28.3203C7.98767 27.227 8.53429 26.1908 9.08929 25.1781L1.72837 22.8138C0.896702 22.5472 0.276304 21.8816 0.0717412 21.0331C-0.134499 20.188 0.110306 19.3161 0.723996 18.7008C5.3535 14.0562 10.0803 9.70334 13.2795 9.29254C15.4542 9.01252 18.3198 10.1108 20.2212 10.8502C30.8853 1.27768 42.1565 0.0788072 46.3349 0C47.2437 0.00838374 48.2498 0.352117 48.9456 1.04797ZM13.6635 12.2872C11.2758 12.5941 5.94036 17.7635 3.48392 20.2098L10.6403 22.507C12.8972 18.8332 15.3184 15.7447 17.8117 13.1675C16.3999 12.6561 14.7282 12.1514 13.6635 12.2872ZM19.7065 39.7054C19.8808 39.8798 20.1542 39.9267 20.3671 39.8228C44.6481 28.1023 46.8765 9.14163 46.9838 3.60836C46.9872 3.39039 46.8782 3.24954 46.8145 3.18582C46.7373 3.10869 46.6065 3.01982 46.407 3.01982H46.3936C40.8603 3.12378 21.8997 5.3505 10.1775 29.6315C10.0719 29.8478 10.1205 30.1194 10.2932 30.2921L19.7065 39.7054ZM29.7904 46.5164C32.2368 44.0616 37.4062 38.7245 37.7131 36.3385C37.8506 35.267 37.3459 33.5987 36.8328 32.1885C34.2556 34.6819 31.167 37.1048 27.4899 39.3617L29.7904 46.5164ZM38.6273 11.3719C41.0955 13.8417 41.0955 17.8592 38.6273 20.3291C37.4301 21.5246 35.8405 22.1836 34.1487 22.1836C32.4569 22.1836 30.8656 21.5246 29.6701 20.3291C28.4762 19.1336 27.8156 17.5423 27.8156 15.8505C27.8156 14.1586 28.4746 12.5674 29.6701 11.3719C32.0611 8.98085 36.2329 8.98085 38.6273 11.3719ZM31.8046 18.1946C33.0538 19.4488 35.2386 19.4488 36.4911 18.1946C37.7839 16.9018 37.7839 14.7992 36.4894 13.5064C35.864 12.881 35.0307 12.5356 34.147 12.5356C33.2617 12.5356 32.43 12.881 31.8046 13.5064C31.1775 14.1335 30.8321 14.9652 30.8321 15.8505C30.8321 16.7358 31.1775 17.5692 31.8046 18.1946Z" fill="url(#paint1_linear_497_944)"/>
<defs>
<linearGradient id="paint0_linear_497_944" x1="2.0791" y1="41.3551" x2="15.2096" y2="41.3551" gradientUnits="userSpaceOnUse">
<stop stop-color="#FB9004"/>
<stop offset="1" stop-color="#FC067D"/>
</linearGradient>
<linearGradient id="paint1_linear_497_944" x1="0" y1="25.0003" x2="49.9993" y2="25.0003" gradientUnits="userSpaceOnUse">
<stop stop-color="#9942FF"/>
<stop offset="1" stop-color="#FC067D"/>
</linearGradient>
</defs>
</svg>
