<svg width="731" height="452" viewBox="0 0 731 452" fill="none" xmlns="http://www.w3.org/2000/svg">
<path opacity="0.16" d="M622.623 34.5335H57.5605V392.254H622.623V34.5335Z" fill="#B5A7E9"/>
<path d="M447.662 197.185H235.942C230.369 197.185 225.842 192.667 225.842 187.106V84.2642C225.842 78.7035 230.369 74.1854 235.942 74.1854H447.662C453.234 74.1854 457.762 78.7035 457.762 84.2642V187.138C457.73 192.667 453.234 197.185 447.662 197.185Z" fill="white"/>
<path d="M583.934 186.727H493.034C489.013 186.727 485.752 183.473 485.752 179.46V81.4522C485.752 77.4397 489.013 74.1854 493.034 74.1854H583.934C587.955 74.1854 591.216 77.4397 591.216 81.4522V179.46C591.216 183.473 587.955 186.727 583.934 186.727Z" fill="white"/>
<path d="M584.028 357.215H372.909C368.952 357.215 365.754 354.024 365.754 350.074V225.021C365.754 221.071 368.952 217.88 372.909 217.88H584.028C587.986 217.88 591.184 221.071 591.184 225.021V350.043C591.215 353.992 587.986 357.215 584.028 357.215Z" fill="white"/>
<path d="M321.809 238.954H227.901C226.064 238.954 224.576 237.469 224.576 235.637V235.321C224.576 233.488 226.064 232.003 227.901 232.003H321.84C323.677 232.003 325.165 233.488 325.165 235.321V235.637C325.165 237.469 323.645 238.954 321.809 238.954Z" fill="white"/>
<path d="M321.809 260.849H227.901C226.064 260.849 224.576 259.364 224.576 257.532V257.216C224.576 255.383 226.064 253.898 227.901 253.898H321.84C323.677 253.898 325.165 255.383 325.165 257.216V257.532C325.165 259.364 323.645 260.849 321.809 260.849Z" fill="white"/>
<path d="M292.49 282.745H227.901C226.064 282.745 224.576 281.26 224.576 279.427V279.111C224.576 277.279 226.064 275.794 227.901 275.794H292.49C294.326 275.794 295.814 277.279 295.814 279.111V279.427C295.814 281.228 294.326 282.745 292.49 282.745Z" fill="white"/>
<path d="M292.49 304.609H227.901C226.064 304.609 224.576 303.124 224.576 301.291V300.975C224.576 299.143 226.064 297.658 227.901 297.658H292.49C294.326 297.658 295.814 299.143 295.814 300.975V301.291C295.814 303.124 294.326 304.609 292.49 304.609Z" fill="white"/>
<path d="M292.49 348.558H227.901C226.064 348.558 224.576 347.073 224.576 345.24V344.924C224.576 343.092 226.064 341.607 227.901 341.607H292.49C294.326 341.607 295.814 343.092 295.814 344.924V345.24C295.814 347.073 294.326 348.558 292.49 348.558Z" fill="white"/>
<path d="M321.809 326.504H227.901C226.064 326.504 224.576 325.019 224.576 323.187V322.871C224.576 321.038 226.064 319.553 227.901 319.553H321.84C323.677 319.553 325.165 321.038 325.165 322.871V323.187C325.165 325.019 323.645 326.504 321.809 326.504Z" fill="white"/>
<path d="M382.692 162.241H253.703C251.867 162.241 250.379 160.756 250.379 158.924V158.608C250.379 156.775 251.867 155.29 253.703 155.29H382.661C384.497 155.29 385.985 156.775 385.985 158.608V158.924C386.017 160.756 384.529 162.241 382.692 162.241Z" fill="#D7E8F7"/>
<path d="M320.952 178.639H253.703C251.867 178.639 250.379 177.154 250.379 175.321V175.005C250.379 173.173 251.867 171.688 253.703 171.688H320.952C322.789 171.688 324.277 173.173 324.277 175.005V175.321C324.277 177.122 322.789 178.639 320.952 178.639Z" fill="#D7E8F7"/>
<path d="M509.75 178.639H504.24C502.404 178.639 500.916 177.154 500.916 175.321V175.005C500.916 173.173 502.404 171.688 504.24 171.688H509.75C511.586 171.688 513.074 173.173 513.074 175.005V175.321C513.074 177.122 511.586 178.639 509.75 178.639Z" fill="#D7E8F7"/>
<path d="M573.104 163.6H504.24C502.404 163.6 500.916 162.115 500.916 160.282V159.966C500.916 158.134 502.404 156.649 504.24 156.649H573.104C574.94 156.649 576.429 158.134 576.429 159.966V160.282C576.429 162.083 574.94 163.6 573.104 163.6Z" fill="#D7E8F7"/>
<path d="M672.87 395.919H19.0922C18.0791 395.919 17.2559 395.097 17.2559 394.086C17.2559 393.075 18.0791 392.254 19.0922 392.254H672.87C673.883 392.254 674.706 393.075 674.706 394.086C674.706 395.129 673.883 395.919 672.87 395.919Z" fill="#CADFEF"/>
<path d="M193.452 34.5335H47.0176V392.254H193.452V34.5335Z" fill="#D4CCF3"/>
<path d="M609.736 0H59.9034C52.8112 0 47.0488 5.75031 47.0488 12.8276V34.5335H622.623V12.8276C622.591 5.75031 616.829 0 609.736 0Z" fill="#214A81"/>
<path d="M92.7053 17.2825C92.7053 21.1371 89.5708 24.2651 85.7081 24.2651C81.8454 24.2651 78.7109 21.1371 78.7109 17.2825C78.7109 13.4279 81.8454 10.3 85.7081 10.3C89.5708 10.3 92.7053 13.4279 92.7053 17.2825Z" fill="#DAEAFF"/>
<path d="M113.412 17.2825C113.412 21.1371 110.278 24.2651 106.415 24.2651C102.552 24.2651 99.418 21.1371 99.418 17.2825C99.418 13.4279 102.552 10.3 106.415 10.3C110.278 10.3 113.412 13.4279 113.412 17.2825Z" fill="#FFD474"/>
<path d="M134.119 17.2825C134.119 21.1371 130.985 24.2651 127.122 24.2651C123.259 24.2651 120.125 21.1371 120.125 17.2825C120.125 13.4279 123.259 10.3 127.122 10.3C130.985 10.3 134.119 13.4279 134.119 17.2825Z" fill="#DAEAFF"/>
<path d="M120.251 165.274C145.449 165.274 165.875 144.89 165.875 119.746C165.875 94.6008 145.449 74.217 120.251 74.217C95.0536 74.217 74.627 94.6008 74.627 119.746C74.627 144.89 95.0536 165.274 120.251 165.274Z" fill="white"/>
<path d="M132.6 107.992C132.6 114.69 127.154 120.156 120.41 120.156C113.698 120.156 108.221 114.722 108.221 107.992C108.221 101.294 113.666 95.828 120.41 95.828C127.154 95.828 132.6 101.294 132.6 107.992Z" fill="#4B4E54"/>
<path d="M93.6875 140.156L98.0568 132.036C100.558 127.392 105.434 124.485 110.753 124.485H128.483C133.264 124.485 137.729 126.854 140.42 130.804L146.752 140.156H93.6875Z" fill="#4B4E54"/>
<path d="M667.836 233.456H667.773C674.612 226.316 671.414 218.449 670.147 216.048C669.894 215.574 669.736 215.321 669.736 215.321H669.799C667.804 211.435 666.665 207.011 666.665 202.335C666.665 194.405 669.894 187.201 675.118 181.988C679.899 175.669 676.29 167.233 676.29 167.233C675.53 165.116 675.118 162.841 675.118 160.472C675.118 149.224 684.237 140.124 695.508 140.124C706.78 140.124 715.898 149.224 715.898 160.472C715.898 162.841 715.455 165.116 714.727 167.233C714.727 167.233 711.086 175.637 715.898 181.988C721.122 187.201 724.352 194.373 724.352 202.335C724.352 207.011 723.212 211.403 721.217 215.289H721.249C721.249 215.289 721.217 215.352 721.154 215.447C720.996 215.763 720.837 216.079 720.647 216.395C719.381 219.049 716.911 226.095 722.547 232.698C722.705 232.888 722.895 233.109 723.054 233.298C723.117 233.362 723.149 233.425 723.212 233.456H723.18C728.056 239.523 731.001 247.2 731.001 255.573C731.001 275.13 715.107 290.991 695.508 290.991C675.91 290.991 660.016 275.13 660.016 255.573C660.016 247.2 662.96 239.523 667.836 233.456Z" fill="url(#paint0_linear_500_1066)"/>
<path d="M685.092 252.572L693.767 261.165V231.024L683.097 220.502C682.559 219.965 682.527 219.081 683.097 218.512C683.636 217.943 684.522 217.943 685.092 218.512L693.767 227.106V185.463C693.767 184.674 694.4 184.042 695.192 184.042C695.984 184.042 696.617 184.674 696.617 185.463V210.518L705.07 202.146C705.609 201.609 706.527 201.609 707.065 202.146C707.603 202.683 707.603 203.599 707.065 204.136L696.617 214.499V244.768L705.957 235.352C706.495 234.783 707.382 234.783 707.952 235.352C708.49 235.889 708.521 236.774 707.952 237.343L696.617 248.78V329.095C696.617 329.885 695.984 330.517 695.192 330.517C694.4 330.517 693.767 329.885 693.767 329.095V265.115L683.097 254.594C682.559 254.056 682.527 253.172 683.097 252.603C683.636 252.034 684.522 252.003 685.092 252.572Z" fill="#3E3F48"/>
<path d="M725.27 332.033H668.121C667.044 332.033 666.189 331.18 666.189 330.106C666.189 329.032 667.044 328.179 668.121 328.179H725.27C726.346 328.179 727.201 329.032 727.201 330.106C727.201 331.18 726.346 332.033 725.27 332.033Z" fill="#CADFEF"/>
<path d="M587.353 452C586.593 452 585.865 451.589 585.485 450.863L474.67 237.058C474.132 236.016 474.543 234.752 475.588 234.215C476.633 233.678 477.9 234.088 478.438 235.131L589.253 448.935C589.791 449.978 589.38 451.242 588.335 451.779C588.018 451.905 587.67 452 587.353 452Z" fill="#A7C8F9"/>
<path d="M628.513 452C627.754 452 627.025 451.589 626.645 450.863L515.83 237.058C515.292 236.016 515.704 234.752 516.748 234.215C517.793 233.678 519.06 234.088 519.598 235.131L630.413 448.935C630.951 449.978 630.54 451.242 629.495 451.779C629.178 451.905 628.83 452 628.513 452Z" fill="#A7C8F9"/>
<path d="M615.469 426.819H574.309C573.137 426.819 572.188 425.871 572.188 424.702C572.188 423.533 573.137 422.585 574.309 422.585H615.469C616.64 422.585 617.59 423.533 617.59 424.702C617.59 425.871 616.64 426.819 615.469 426.819Z" fill="#A7C8F9"/>
<path d="M590.52 380.374H550.405C549.233 380.374 548.283 379.426 548.283 378.257C548.283 377.088 549.233 376.14 550.405 376.14H590.52C591.691 376.14 592.641 377.088 592.641 378.257C592.641 379.426 591.691 380.374 590.52 380.374Z" fill="#A7C8F9"/>
<path d="M566.615 333.897H526.5C525.329 333.897 524.379 332.95 524.379 331.781C524.379 330.612 525.329 329.664 526.5 329.664H566.615C567.787 329.664 568.737 330.612 568.737 331.781C568.737 332.981 567.787 333.897 566.615 333.897Z" fill="#A7C8F9"/>
<path d="M542.711 287.453H502.596C501.424 287.453 500.475 286.505 500.475 285.336C500.475 284.167 501.424 283.219 502.596 283.219H542.711C543.882 283.219 544.832 284.167 544.832 285.336C544.832 286.505 543.882 287.453 542.711 287.453Z" fill="#A7C8F9"/>
<path d="M402.64 452C402.323 452 401.975 451.937 401.659 451.779C400.614 451.242 400.202 449.978 400.74 448.935L511.556 235.131C512.094 234.088 513.36 233.678 514.405 234.215C515.45 234.752 515.862 236.016 515.323 237.058L404.508 450.863C404.16 451.558 403.432 452 402.64 452Z" fill="#68A0F2"/>
<path d="M361.48 452C361.163 452 360.815 451.937 360.498 451.779C359.454 451.242 359.042 449.978 359.58 448.935L470.395 235.131C470.934 234.088 472.2 233.678 473.245 234.215C474.29 234.752 474.701 236.016 474.163 237.058L363.348 450.863C363 451.558 362.271 452 361.48 452Z" fill="#68A0F2"/>
<path d="M415.684 426.819H374.524C373.352 426.819 372.402 425.871 372.402 424.702C372.402 423.533 373.352 422.585 374.524 422.585H415.684C416.855 422.585 417.805 423.533 417.805 424.702C417.805 425.871 416.855 426.819 415.684 426.819Z" fill="#68A0F2"/>
<path d="M439.588 380.374H399.473C398.301 380.374 397.352 379.426 397.352 378.257C397.352 377.088 398.301 376.14 399.473 376.14H439.588C440.759 376.14 441.709 377.088 441.709 378.257C441.709 379.426 440.759 380.374 439.588 380.374Z" fill="#68A0F2"/>
<path d="M463.492 333.897H423.377C422.206 333.897 421.256 332.95 421.256 331.781C421.256 330.612 422.206 329.664 423.377 329.664H463.492C464.664 329.664 465.614 330.612 465.614 331.781C465.614 332.981 464.664 333.897 463.492 333.897Z" fill="#68A0F2"/>
<path d="M487.398 287.453H447.283C446.112 287.453 445.162 286.505 445.162 285.336C445.162 284.167 446.112 283.219 447.283 283.219H487.398C488.57 283.219 489.52 284.167 489.52 285.336C489.488 286.505 488.57 287.453 487.398 287.453Z" fill="#68A0F2"/>
<path d="M522.067 236.079H467.926C466.279 236.079 464.918 234.72 464.918 233.077V228.559C464.918 226.916 466.279 225.558 467.926 225.558H522.067C523.713 225.558 525.075 226.916 525.075 228.559V233.077C525.075 234.752 523.745 236.079 522.067 236.079Z" fill="#214A81"/>
<path d="M268.427 137.47C280.685 137.47 290.622 127.554 290.622 115.322C290.622 103.09 280.685 93.174 268.427 93.174C256.169 93.174 246.232 103.09 246.232 115.322C246.232 127.554 256.169 137.47 268.427 137.47Z" fill="#D7E8F7"/>
<path d="M562.588 122.158C565.35 108.314 556.344 94.8559 542.47 92.099C528.597 89.342 515.111 98.33 512.348 112.174C509.585 126.018 518.592 139.476 532.465 142.233C546.339 144.99 559.825 136.002 562.588 122.158Z" fill="#D7E8F7"/>
<path d="M563.334 114.451C566.773 100.758 558.437 86.8755 544.715 83.4437C530.993 80.012 517.082 88.3305 513.643 102.024C510.204 115.717 518.54 129.599 532.262 133.031C545.984 136.463 559.895 128.144 563.334 114.451Z" fill="#84B4FE"/>
<path d="M176.26 249.317L33.3084 313.361C30.9972 314.403 28.3059 313.361 27.2928 311.086L0.412171 251.339C-0.632658 249.064 0.412171 246.347 2.6918 245.336L145.643 181.261C147.923 180.219 150.646 181.261 151.659 183.536L178.54 243.314C179.584 245.621 178.571 248.306 176.26 249.317Z" fill="white"/>
<path d="M145.516 245.652L102.994 264.704C101.95 265.178 100.746 264.704 100.272 263.661L85.0107 229.76C84.5358 228.717 85.0107 227.517 86.0555 227.043L128.577 207.991C129.622 207.517 130.825 207.991 131.3 209.033L146.561 242.935C147.036 243.978 146.561 245.178 145.516 245.652Z" fill="#EBF5FF"/>
<path d="M73.0439 254.688C77.6665 265.115 72.9489 277.311 62.5007 281.923C52.0524 286.536 39.831 281.829 35.2085 271.402C30.5859 260.976 35.3035 248.78 45.7517 244.167C56.2 239.554 68.4214 244.262 73.0439 254.688Z" fill="#EBF5FF"/>
<path d="M145.549 266.853C145.549 270.265 142.795 273.014 139.375 273.014C135.956 273.014 133.201 270.265 133.201 266.853C133.201 263.44 135.956 260.691 139.375 260.691C142.795 260.691 145.549 263.44 145.549 266.853Z" fill="#FFBDA1"/>
<path d="M54.8695 354.624C54.8695 358.036 52.1149 360.785 48.6955 360.785C45.276 360.785 42.5215 358.036 42.5215 354.624C42.5215 351.212 45.276 348.463 48.6955 348.463C52.1149 348.463 54.8695 351.243 54.8695 354.624Z" fill="#FFBDA1"/>
<path d="M133.043 447.166C133.17 446.408 133.17 424.955 133.17 424.955H143.143V447.166H133.043Z" fill="#FFBDA1"/>
<path d="M160.905 451.368L133.043 451.494V442.964L152.293 442.869C157.011 442.837 160.873 446.629 160.905 451.368Z" fill="#1E1A1E"/>
<path d="M33.4355 423.628C34.1321 423.312 51.9575 411.305 51.9575 411.305L57.5616 419.552L39.103 432L33.4355 423.628Z" fill="#FFBDA1"/>
<path d="M45.5615 448.998L29.8574 426.029L36.9496 421.258L47.7778 437.119C50.469 441.005 49.4875 446.313 45.5615 448.998Z" fill="#1E1A1E"/>
<path d="M116.07 261.576L112.999 260.249L111.258 264.262L114.234 264.957L116.229 263.725C117.084 263.251 116.989 261.987 116.07 261.576Z" fill="#FFBDA1"/>
<path d="M114.265 267.958C112.555 275.067 105.4 279.459 98.2442 277.753C91.1204 276.047 86.7195 268.906 88.4292 261.766C90.1389 254.657 97.2944 250.265 104.45 251.971C111.574 253.677 115.975 260.849 114.265 267.958Z" fill="#FFBDA1"/>
<mask id="mask0_500_1066" style="mask-type:luminance" maskUnits="userSpaceOnUse" x="88" y="251" width="27" height="28">
<path d="M114.265 267.958C112.555 275.067 105.4 279.459 98.2442 277.753C91.1204 276.047 86.7195 268.906 88.4292 261.766C90.1389 254.657 97.2944 250.265 104.45 251.971C111.574 253.677 115.975 260.849 114.265 267.958Z" fill="white"/>
</mask>
<g mask="url(#mask0_500_1066)">
<path d="M105.843 248.117L90.2657 279.617L84.25 257.216L105.843 248.117Z" fill="#072042"/>
</g>
<path d="M99.1314 265.526C98.6565 267.516 96.6302 268.748 94.6355 268.274C92.6408 267.8 91.406 265.778 91.8809 263.788C92.3559 261.797 94.3822 260.565 96.3769 261.039C98.4032 261.545 99.6063 263.535 99.1314 265.526Z" fill="#FFBDA1"/>
<path d="M89.4433 273.709C86.4988 279.396 79.4699 281.607 73.7708 278.669C68.0718 275.731 65.8555 268.717 68.8 263.029C71.7445 257.342 78.7734 255.131 84.4724 258.069C90.2032 261.039 92.4195 268.022 89.4433 273.709Z" fill="#072042"/>
<path d="M106.288 276.331C106.288 277.089 106.288 294.719 106.288 294.719L94.7637 287.042L95.9985 275.889L106.288 276.331Z" fill="#FFBDA1"/>
<path d="M97.6453 352.191H98.0253C108.505 352.191 117.022 343.692 117.022 333.234V332.286H78.6484V333.234C78.6484 343.692 87.1654 352.191 97.6453 352.191Z" fill="#0E2C58"/>
<path d="M95.8398 344.924L110.056 366.409L117.18 377.151L118.921 379.805C119.048 379.995 119.206 380.279 119.396 380.563C119.554 380.848 119.713 381.132 119.839 381.416C120.409 382.554 120.852 383.755 121.137 385.018C121.201 385.334 121.264 385.65 121.327 385.966L121.359 386.219L121.422 386.598L121.517 387.388L121.961 390.579L122.847 396.961L124.588 409.726L128.103 435.286L147.448 433.138L145.232 407.419L144.124 394.56L143.585 388.146L143.3 384.924L143.237 384.134L143.142 383.123C143.047 382.364 142.952 381.638 142.825 380.879C142.319 377.909 141.464 375.003 140.261 372.222C139.976 371.527 139.659 370.832 139.311 370.169C138.963 369.505 138.614 368.842 138.203 368.115L136.525 365.303L129.939 354.181L116.768 331.938L95.8398 344.924Z" fill="#0E2C58"/>
<path d="M78.6484 332.918L77.6036 359.016L77.1287 372.064L76.8754 378.605L76.7488 381.859L76.7171 382.586C76.7171 382.68 76.7171 382.775 76.7171 382.87C76.6854 383.091 76.6854 383.344 76.6538 383.565C76.5271 384.481 76.2422 385.429 75.7673 386.282C75.5456 386.724 75.2607 387.135 74.9757 387.514C74.6591 387.894 74.3741 388.241 73.9309 388.62L63.7992 396.961C57.0553 402.522 50.3431 408.114 43.6309 413.738L53.7942 427.135C61.013 422.237 68.2318 417.277 75.419 412.317L86.1839 404.86C91.598 401.005 95.7773 395.034 97.4237 388.399C97.6453 387.578 97.8036 386.724 97.9619 385.871L98.1519 384.513L98.2469 383.597L98.5952 380.342L99.2601 373.834L100.622 360.785L103.281 334.719L78.6484 332.918Z" fill="#0E2C58"/>
<path d="M158.656 291.876L147.891 268.116L135.29 273.803L141.559 287.611L118.541 287.2V287.042H94.3516C89.8873 287.042 85.8663 288.938 83.0168 291.907C82.1936 292.508 81.4337 293.203 80.7688 293.993L58.6375 313.898C58.1625 314.466 57.7826 315.098 57.4977 315.762L44.4531 348.115L57.276 353.265L69.9089 321.923L78.6475 313.392V332.95H113.982C116.515 332.95 118.573 330.896 118.573 328.368V300.912L152.26 301.512C152.292 301.512 152.355 301.512 152.387 301.512C154.698 301.512 156.883 300.343 158.149 298.416C159.448 296.52 159.638 294.024 158.656 291.876Z" fill="#B5A7E9"/>
<path d="M530.837 129.919C530.964 133.205 528.399 135.985 525.106 136.08C521.813 136.207 519.027 133.647 518.932 130.362C518.806 127.076 521.37 124.295 524.663 124.2C527.924 124.043 530.71 126.633 530.837 129.919Z" fill="#FFBDA1"/>
<path d="M370.504 260.786C373.808 260.786 376.488 258.113 376.488 254.815C376.488 251.517 373.808 248.843 370.504 248.843C367.199 248.843 364.52 251.517 364.52 254.815C364.52 258.113 367.199 260.786 370.504 260.786Z" fill="#FFBDA1"/>
<path d="M383.463 243.421L377.732 239.306L369.466 250.769L375.197 254.885L383.463 243.421Z" fill="#FFBDA1"/>
<path d="M438.068 156.396L439.493 178.133L450.67 175.479L449.245 155.511L438.068 156.396Z" fill="#FFBDA1"/>
<path d="M467.577 212.161V172.509C467.577 168.307 463.556 165.243 459.472 166.348L448.422 169.35C445.002 170.298 441.646 171.53 438.448 173.11L426.955 178.702C425.309 179.524 424.232 181.198 424.232 183.031V219.586L467.577 212.161Z" fill="#B5A7E9"/>
<path d="M460.265 178.923L457.193 166.949L493.319 157.723L516.812 130.109L526.247 138.102L501.488 167.233C500.665 168.213 499.556 168.908 498.29 169.224L460.265 178.923Z" fill="#B5A7E9"/>
<path d="M379.654 252.572L369.775 245.115L397.194 208.939C397.353 208.749 397.511 208.559 397.701 208.37L425.943 179.366L434.871 187.865L406.851 216.711L379.654 252.572Z" fill="#B5A7E9"/>
<path d="M435.092 320.659L442.786 305.335H451.872L443.925 321.228L435.092 320.659Z" fill="#FFBDA1"/>
<path d="M464.221 329.632L434.617 329.758V320.691L455.039 320.596C460.073 320.596 464.189 324.64 464.221 329.632Z" fill="#1E1A1E"/>
<path d="M391.686 325.43L398.461 311.054L406.535 313.834L398.144 331.465L391.686 325.43Z" fill="#FFBDA1"/>
<path d="M424.232 218.512V220.534C424.232 232.382 436.517 233.551 449.815 231.403C460.105 229.76 467.577 224.768 467.577 215.605V212.193L424.232 218.512Z" fill="#03345F"/>
<path d="M449.245 216.869L434.617 270.802L434.364 271.718C434.206 272.255 433.984 272.792 433.731 273.235L407.642 318.479L392.223 315.098L418.248 264.988L417.362 267.453L424.201 218.48L449.245 216.869Z" fill="#03345F"/>
<path d="M467.576 212.161L475.776 260.47L475.903 261.355C476.156 262.998 475.903 264.609 475.301 266.031L453.867 311.054L436.928 310.233L458.964 259.017L458.489 264.578L443.26 218.859L467.576 212.161Z" fill="#03345F"/>
<path d="M433.637 175.416C433.637 175.416 437.341 163.22 453.425 167.644L433.637 175.416Z" fill="#FFD474"/>
<path d="M432.053 151.246C432.211 153.173 430.786 154.879 428.823 155.037C426.86 155.195 425.182 153.774 425.024 151.815C424.865 149.856 426.29 148.181 428.253 148.023C430.185 147.865 431.894 149.319 432.053 151.246Z" fill="#FFBDA1"/>
<path d="M460.326 148.876C460.484 150.804 459.06 152.51 457.097 152.668C455.134 152.826 453.455 151.404 453.297 149.445C453.139 147.518 454.564 145.812 456.527 145.654C458.458 145.496 460.168 146.949 460.326 148.876Z" fill="#FFBDA1"/>
<path d="M456.876 146.127C457.541 154.089 451.62 161.104 443.641 161.767C435.663 162.431 428.634 156.522 427.969 148.56C427.304 140.598 433.225 133.584 441.203 132.921C449.182 132.226 456.211 138.166 456.876 146.127Z" fill="#072042"/>
<path d="M395.232 350.106C391.939 350.106 389.279 347.452 389.279 344.166V327.01C389.279 323.724 391.939 321.07 395.232 321.07C398.524 321.07 401.184 323.724 401.184 327.01V344.166C401.184 347.452 398.524 350.106 395.232 350.106Z" fill="#1E1A1E"/>
<defs>
<linearGradient id="paint0_linear_500_1066" x1="660.016" y1="215.558" x2="731.001" y2="215.558" gradientUnits="userSpaceOnUse">
<stop stop-color="#9942FF"/>
<stop offset="1" stop-color="#4D6DFF"/>
</linearGradient>
</defs>
</svg>
