<svg width="695" height="442" viewBox="0 0 695 442" fill="none" xmlns="http://www.w3.org/2000/svg">
<path opacity="0.16" d="M678.236 321.806C681.216 315.598 683.863 309.215 686.15 302.678C703.063 254.332 695.76 193.999 664.023 152.542C647.926 131.516 625.429 116.281 599.353 110.887C560.227 102.794 522.011 120.118 482.878 117.857C457.326 116.381 433.095 106.308 410.08 95.1097C347.921 64.8654 289.071 25.8071 221.597 7.88368C168.713 -6.164 106.109 -3.15378 61.2061 30.9706C-14.5717 88.5589 -10.2653 195.987 21.9959 275.71C31.374 298.885 43.7078 321.112 59.7136 340.387C115.062 407.043 197.028 431.968 281.074 437.456C354.331 442.24 430.011 439.631 503.402 436.968C577.027 434.297 646.493 387.951 678.236 321.806Z" fill="#B5A7E9"/>
<path d="M610.286 354.511C610.946 353.37 611.581 352.218 612.192 351.057C630.772 315.727 641.451 276.269 643.224 236.391C624.098 253.939 604.856 272.028 588.655 292.309C576.277 307.803 565.657 325.004 558.909 343.579C570.796 299.674 577.035 254.093 575.764 208.678C530.593 271.364 500.206 344.456 487.144 420.609L592.707 419.415C631.537 396.302 661.723 359.023 676.254 316.234C652.098 324.385 629.299 337.432 610.286 354.511Z" fill="#EAF2FC"/>
<mask id="mask0_483_2123" style="mask-type:luminance" maskUnits="userSpaceOnUse" x="487" y="208" width="190" height="213">
<path d="M610.284 354.511C610.944 353.371 611.579 352.218 612.19 351.057C630.77 315.727 641.449 276.269 643.222 236.391C624.096 253.939 604.854 272.028 588.653 292.309C576.275 307.803 565.655 325.005 558.907 343.579C570.794 299.674 577.034 254.093 575.762 208.678C530.591 271.364 500.204 344.456 487.142 420.609L592.705 419.416C631.535 396.302 661.721 359.023 676.252 316.234C652.096 324.385 629.297 337.432 610.284 354.511Z" fill="white"/>
</mask>
<g mask="url(#mask0_483_2123)">
<path d="M548.309 417.716L548.563 417.205C552.337 409.639 641.101 231.785 650.388 222.498C650.512 222.375 650.711 222.375 650.835 222.498C650.958 222.622 650.958 222.821 650.835 222.945C641.864 231.915 554.846 406.038 549.389 416.965C565.008 414.869 598.254 387.889 623.553 365.467C651.337 340.844 675.784 316.258 676.028 316.012C676.151 315.888 676.351 315.888 676.475 316.01C676.599 316.133 676.599 316.333 676.476 316.457C676.232 316.703 651.773 341.301 623.975 365.938C607.644 380.411 593.373 392.066 581.556 400.579C566.75 411.246 555.755 416.993 548.877 417.661L548.309 417.716Z" fill="#6880E4"/>
</g>
<path d="M610.285 354.511C610.945 353.371 611.58 352.218 612.191 351.057C630.771 315.727 641.45 276.269 643.223 236.391C624.097 253.939 604.855 272.028 588.654 292.309C576.276 307.803 565.656 325.005 558.908 343.579C570.795 299.674 577.034 254.093 575.763 208.678C530.592 271.364 500.205 344.456 487.143 420.609L592.706 419.416C631.536 396.302 661.722 359.023 676.253 316.234C652.097 324.385 629.298 337.432 610.285 354.511Z" fill="url(#paint0_linear_483_2123)"/>
<path d="M523.791 426.112C523.619 426.112 523.479 425.975 523.475 425.803C523.244 414.016 531.92 373.886 549.262 306.527C562.176 256.368 575.327 209.066 575.458 208.593C575.505 208.425 575.68 208.327 575.847 208.374C576.016 208.421 576.114 208.595 576.067 208.763C575.936 209.235 562.786 256.533 549.874 306.685C537.961 352.956 523.82 411.18 524.107 425.79C524.11 425.964 523.971 426.109 523.797 426.112C523.795 426.112 523.793 426.112 523.791 426.112Z" fill="#F5F5F5"/>
<path d="M161.932 276.282L142.424 257.07L132.301 267.348L151.809 286.56L161.932 276.282Z" fill="#2E385B"/>
<path d="M239.433 286.596C299.07 286.596 347.415 238.25 347.415 178.613C347.415 118.976 299.07 70.6306 239.433 70.6306C179.796 70.6306 131.45 118.976 131.45 178.613C131.45 238.25 179.796 286.596 239.433 286.596Z" fill="#EAF2FC"/>
<mask id="mask1_483_2123" style="mask-type:luminance" maskUnits="userSpaceOnUse" x="131" y="70" width="217" height="217">
<path d="M239.432 286.596C299.069 286.596 347.414 238.25 347.414 178.613C347.414 118.976 299.069 70.6306 239.432 70.6306C179.795 70.6306 131.449 118.976 131.449 178.613C131.449 238.25 179.795 286.596 239.432 286.596Z" fill="white"/>
</mask>
<g mask="url(#mask1_483_2123)">
<path opacity="0.2" d="M156.309 225.871C135.452 223.025 116.533 225.957 116.506 225.871C116.443 225.667 115.953 150.18 115.953 150.18L275.186 157.091L131.052 134.774L160.902 71.9138L362.732 110.803L348.955 219.513H266.533L348.49 229.279L321.645 280.983L168.113 282.35L128.788 236.411L219.654 230.013C219.654 230.013 184.845 229.764 156.309 225.871Z" fill="#6880E4"/>
</g>
<path d="M150.542 268.878C138.36 256.881 128.889 242.851 122.393 227.179C116.121 212.047 112.877 196.033 112.751 179.584C112.625 163.136 115.623 147.075 121.662 131.848C127.917 116.078 137.171 101.905 149.168 89.7223C161.165 77.5395 175.195 68.0688 190.867 61.5733C205.999 55.3012 222.012 52.057 238.461 51.9306C254.91 51.8044 270.971 54.8026 286.198 60.842C301.968 67.0963 316.141 76.3506 328.324 88.3479C340.506 100.345 349.977 114.374 356.473 130.047C362.745 145.179 365.989 161.192 366.115 177.641C366.241 194.09 363.243 210.151 357.204 225.378C350.95 241.148 341.695 255.321 329.698 267.504C317.701 279.686 303.672 289.157 287.999 295.653C272.867 301.925 256.853 305.169 240.405 305.295C223.956 305.421 207.895 302.423 192.668 296.384C176.898 290.13 162.725 280.875 150.542 268.878ZM314.3 102.589C293.993 82.5909 267.114 71.6985 238.615 71.917C210.115 72.1357 183.406 83.4392 163.409 103.746C143.411 124.053 132.519 150.932 132.737 179.431C132.956 207.931 144.259 234.639 164.566 254.637C184.873 274.635 211.752 285.527 240.251 285.309C268.751 285.09 295.46 273.786 315.457 253.48C335.455 233.173 346.348 206.294 346.129 177.795C345.91 149.295 334.607 122.587 314.3 102.589Z" fill="#3B4971"/>
<path d="M69.0443 370.468L50.2159 351.926C46.769 348.532 46.7263 342.985 50.1207 339.539L122.421 266.12C125.816 262.673 131.362 262.63 134.809 266.025L153.637 284.567C157.084 287.961 157.127 293.507 153.732 296.954L81.4315 370.373C78.0374 373.82 72.4912 373.862 69.0443 370.468Z" fill="#3B4971"/>
<path d="M239.411 296.225C224.459 296.225 209.865 293.443 196.015 287.949C181.38 282.145 168.223 273.553 156.911 262.413C145.598 251.273 136.806 238.249 130.777 223.705C124.954 209.657 121.943 194.79 121.826 179.515C121.709 164.241 124.492 149.329 130.098 135.193C135.902 120.559 144.494 107.402 155.635 96.0893C166.775 84.7766 179.798 75.9842 194.342 69.9558C208.39 64.1332 223.258 61.1218 238.532 61.0045C253.806 60.885 268.719 63.6704 282.854 69.2769C297.489 75.0815 310.645 83.6732 321.958 94.8136C333.271 105.954 342.064 118.977 348.092 133.522C353.914 147.569 356.925 162.437 357.043 177.711C357.16 192.986 354.377 207.898 348.771 222.033C342.967 236.668 334.375 249.824 323.234 261.137C312.094 272.45 299.07 281.243 284.526 287.27C270.479 293.093 255.611 296.104 240.337 296.222C240.029 296.224 239.719 296.225 239.411 296.225ZM239.458 62.4601C239.152 62.4601 238.849 62.4612 238.543 62.4635C223.458 62.579 208.774 65.5534 194.901 71.3035C180.538 77.2566 167.677 85.9403 156.674 97.1128C145.671 108.286 137.186 121.279 131.454 135.731C125.917 149.691 123.169 164.418 123.284 179.504C123.4 194.59 126.374 209.273 132.124 223.146C138.078 237.509 146.761 250.371 157.934 261.373C169.107 272.376 182.1 280.861 196.552 286.593C210.512 292.13 225.239 294.87 240.325 294.763C255.411 294.647 270.094 291.673 283.968 285.923C298.33 279.969 311.192 271.286 322.194 260.113C333.197 248.94 341.682 235.947 347.414 221.495C352.951 207.535 355.7 192.808 355.584 177.722C355.468 162.636 352.494 147.953 346.744 134.08C340.79 119.717 332.107 106.856 320.934 95.8528C309.762 84.85 296.769 76.365 282.316 70.6329C268.639 65.2085 254.223 62.4601 239.458 62.4601Z" fill="#2E385B"/>
<path d="M81.6069 367.403L53.0875 339.318C51.7034 337.954 51.6862 335.727 53.0494 334.344L55.3073 332.051C56.6702 330.667 58.8975 330.65 60.2816 332.013L88.801 360.098C90.1851 361.461 90.2023 363.688 88.8391 365.072L86.5812 367.365C85.218 368.749 82.991 368.766 81.6069 367.403Z" fill="#2E385B"/>
<path d="M371.413 441.565C519.721 441.565 639.948 431.754 639.948 419.652C639.948 407.55 519.721 397.739 371.413 397.739C223.105 397.739 102.878 407.55 102.878 419.652C102.878 431.754 223.105 441.565 371.413 441.565Z" fill="#D4DFFF"/>
<path d="M412.274 196.406C412.274 196.406 400.376 210.572 393.84 234.245C387.806 256.103 370.212 336.8 370.212 336.8H415.353L412.274 196.406Z" fill="#8F80C7"/>
<path d="M237.741 378.17C237.741 378.17 229.644 377.876 225.471 382.484C221.455 386.92 220.411 399.095 226.586 407.966C226.586 407.966 230.911 412.575 237.361 414.477C237.361 414.477 231.859 401.701 232.075 393.034C232.292 384.368 237.741 378.17 237.741 378.17Z" fill="#B5A7E9"/>
<path d="M232.346 409.081C225.489 398.004 227.407 377.115 237.74 378.17C252.636 379.691 291.573 391.912 291.573 391.912L293.865 416.944C293.865 416.944 259.141 418.731 238.342 414.769C235.535 414.234 233.825 411.469 232.346 409.081Z" fill="#B5A7E9"/>
<path d="M290.885 394.262C290.885 394.262 274.012 388.974 272.249 394.262C270.486 399.551 271.842 409.038 276.375 411.808C280.908 414.578 292.139 412.847 292.139 412.847L290.885 394.262Z" fill="#B5A7E9"/>
<path d="M332.069 344.656C332.069 344.656 311.609 342.029 301.711 361.039C292.58 378.574 301.181 407.9 337.717 411.077C374.252 414.254 474.857 406.047 474.857 406.047V351.723L332.069 344.656Z" fill="#2F2F5B"/>
<path d="M523.381 348.557C523.381 348.557 556.573 362.709 540.677 405.318C525.701 445.46 292.991 426.557 291.739 423.122C290.232 418.986 285.596 386.138 290.43 384.215C295.263 382.292 468.826 347.141 468.826 347.141L523.381 348.557Z" fill="#3A376B"/>
<mask id="mask2_483_2123" style="mask-type:luminance" maskUnits="userSpaceOnUse" x="288" y="347" width="257" height="84">
<path d="M523.384 348.558C523.384 348.558 556.576 362.71 540.68 405.318C525.704 445.46 292.994 426.557 291.742 423.122C290.235 418.986 285.599 386.139 290.432 384.215C295.266 382.292 468.829 347.142 468.829 347.142L523.384 348.558Z" fill="white"/>
</mask>
<g mask="url(#mask2_483_2123)">
<path opacity="0.47" d="M404.529 355.096C404.529 355.096 447.579 365.876 484.906 363.622C522.233 361.368 539.633 353.683 539.633 353.683L530.427 344.656L410.555 347.142L404.529 355.096Z" fill="#3A376B"/>
</g>
<mask id="mask3_483_2123" style="mask-type:luminance" maskUnits="userSpaceOnUse" x="288" y="347" width="257" height="84">
<path d="M523.384 348.558C523.384 348.558 556.576 362.71 540.68 405.318C525.704 445.46 292.994 426.557 291.742 423.122C290.235 418.986 285.599 386.139 290.432 384.215C295.266 382.292 468.829 347.142 468.829 347.142L523.384 348.558Z" fill="white"/>
</mask>
<g mask="url(#mask3_483_2123)">
<path d="M288.286 404.322C287.905 404.322 287.592 404.017 287.583 403.634C287.575 403.246 287.882 402.923 288.271 402.915C288.792 402.903 341.002 401.713 398.881 397.996C475.43 393.08 527.079 385.999 548.244 377.517C548.604 377.372 549.014 377.548 549.159 377.909C549.303 378.27 549.128 378.679 548.767 378.823C536.866 383.593 515.756 387.9 486.025 391.624C462.274 394.6 432.983 397.216 398.967 399.4C341.058 403.119 288.823 404.31 288.302 404.321C288.297 404.322 288.292 404.322 288.286 404.322Z" fill="#3A376B"/>
</g>
<path d="M483.687 163.07C483.687 163.07 521.103 178.718 532.114 201.264C543.125 223.81 503.8 340.734 496.46 342.831C489.119 344.929 413.092 346.502 407.324 342.831C401.557 339.161 404.409 207.417 412.274 196.406C420.139 185.395 449.836 163.07 449.836 163.07H483.687V163.07Z" fill="#B5A7E9"/>
<mask id="mask4_483_2123" style="mask-type:luminance" maskUnits="userSpaceOnUse" x="404" y="163" width="131" height="183">
<path d="M483.687 163.07C483.687 163.07 521.103 178.718 532.114 201.264C543.125 223.81 503.8 340.734 496.46 342.831C489.119 344.929 413.092 346.502 407.324 342.831C401.557 339.161 404.409 207.417 412.274 196.406C420.139 185.395 449.836 163.07 449.836 163.07H483.687V163.07Z" fill="white"/>
</mask>
<g mask="url(#mask4_483_2123)">
<path d="M462.418 233.441C462.417 233.031 462.744 232.696 463.154 232.689C467.551 232.609 490.17 232.258 491.644 233.452C493.277 234.774 491.198 271.815 488.553 272.004C485.907 272.193 463.985 273.326 463.229 271.437C462.537 269.706 462.431 238.649 462.418 233.441Z" fill="#D2C8F9"/>
</g>
<path d="M468.514 84.9732C463.605 79.7475 446.375 74.6189 432.841 77.8599C425.211 79.687 419.501 86.0423 418.223 93.7825C416.632 103.419 415.194 113.104 414.565 122.857C414.04 131.001 413.112 141.555 417.315 148.974C420.078 153.85 426.997 154.228 431.967 154.31C432.795 154.323 440.643 153.526 440.457 152.437C442.244 162.921 448.449 186.685 449.515 189.851C451.012 194.302 480.32 177.524 485.014 171.674C489.708 165.824 463.548 131.71 463.548 131.71C466.13 124.425 475.343 92.2439 468.514 84.9732Z" fill="#FFB7D6"/>
<path d="M432.46 104.157C432.46 104.157 421.11 120.185 423.718 121.809C426.325 123.432 434.417 119.437 434.417 119.437C434.354 120.566 433.634 121.55 432.577 121.952C429.517 123.114 423.572 125.109 422.233 122.678C419.879 118.406 432.46 104.157 432.46 104.157Z" fill="#F1A1C3"/>
<path d="M440.458 152.437C440.458 152.437 447.452 148.084 451.345 142.861C451.345 142.861 453.555 158.992 443.25 165.611L440.458 152.437Z" fill="#F1A1C3"/>
<path d="M476.008 80.229C481.964 83.3126 490.258 96.395 484.753 107.114C478.598 119.101 465.329 131.426 463.548 131.71C461.767 131.995 459.374 117.773 459.374 117.773C472.218 115.213 466.382 102.586 464.372 102.665C462.362 102.743 458.366 111.018 457.164 109.47C456.243 108.285 457.632 95.3719 458.332 89.3996C458.332 89.3996 431.284 106.121 413.719 99.5526C413.719 99.5526 405.162 70.6095 430.77 64.7545C456.377 58.8998 476.008 80.229 476.008 80.229Z" fill="#181670"/>
<mask id="mask5_483_2123" style="mask-type:luminance" maskUnits="userSpaceOnUse" x="412" y="63" width="75" height="69">
<path d="M476.007 80.229C481.963 83.3126 490.257 96.395 484.752 107.114C478.597 119.101 465.328 131.426 463.547 131.71C461.766 131.995 459.373 117.773 459.373 117.773C472.218 115.213 466.381 102.586 464.371 102.665C462.362 102.743 458.365 111.017 457.163 109.47C456.242 108.284 457.631 95.3718 458.331 89.3995C458.331 89.3995 431.283 106.121 413.718 99.5525C413.718 99.5525 405.161 70.6095 430.769 64.7545C456.376 58.8997 476.007 80.229 476.007 80.229Z" fill="white"/>
</mask>
<g mask="url(#mask5_483_2123)">
<path opacity="0.5" d="M410.155 93.527C412.596 93.47 443.393 87.0717 445.866 86.5221C448.338 85.9728 442.707 92.4282 446.278 91.0546C449.849 89.6811 462.073 85.5606 462.485 86.2475C462.897 86.9341 457.163 109.47 457.163 109.47C457.163 109.47 454.656 93.1148 454.244 93.2521C453.832 93.3894 431.17 105.751 422.928 105.888C414.688 106.025 411.391 104.789 410.704 100.257C410.017 95.7248 410.155 93.527 410.155 93.527Z" fill="#1C056D"/>
</g>
<path d="M460.664 104.586L451.913 105.186C451.534 101.004 448.023 97.7259 443.742 97.7259C440.345 97.7259 437.431 99.7887 436.183 102.73C433.203 101 430.869 101.609 429.597 102.254C429.016 98.2893 425.611 95.2421 421.485 95.2421C416.952 95.2421 413.276 98.9174 413.276 103.451C413.276 107.985 416.951 111.66 421.485 111.66C425.91 111.66 429.506 108.158 429.678 103.776C430.338 103.287 432.532 102.047 435.756 104.06C435.615 104.663 435.533 105.289 435.533 105.935C435.533 110.469 439.208 114.144 443.742 114.144C448.068 114.144 451.604 110.795 451.92 106.549L460.757 105.944C461.132 105.918 461.415 105.593 461.389 105.218C461.363 104.843 461.031 104.559 460.664 104.586Z" fill="white"/>
<path d="M451.544 190.567L457.055 198.899C459.928 203.243 466.024 203.969 469.818 200.402C478.59 192.156 491.59 177.519 488.72 165.384L483.688 163.07C483.688 163.07 467.673 186.742 451.544 190.567Z" fill="white"/>
<path d="M449.516 189.851L442.741 195.214C439.426 197.838 434.497 195.892 433.901 191.706C432.979 185.221 432.728 176.538 436.258 170.264L443.431 166.378L449.516 189.851Z" fill="white"/>
<path d="M450.504 216.597C451.882 215.219 451.882 212.985 450.504 211.607C449.126 210.229 446.892 210.229 445.514 211.607C444.137 212.985 444.136 215.219 445.514 216.597C446.892 217.975 449.126 217.975 450.504 216.597Z" fill="#8F80C7"/>
<path d="M447.088 243.646C449.036 243.646 450.616 242.067 450.616 240.118C450.616 238.169 449.036 236.59 447.088 236.59C445.139 236.59 443.56 238.169 443.56 240.118C443.56 242.067 445.139 243.646 447.088 243.646Z" fill="#8F80C7"/>
<path d="M445.731 269.664C447.68 269.664 449.26 268.085 449.26 266.136C449.26 264.188 447.68 262.608 445.731 262.608C443.783 262.608 442.203 264.188 442.203 266.136C442.203 268.085 443.783 269.664 445.731 269.664Z" fill="#8F80C7"/>
<path d="M444.487 295.682C446.436 295.682 448.016 294.102 448.016 292.154C448.016 290.205 446.436 288.626 444.487 288.626C442.539 288.626 440.959 290.205 440.959 292.154C440.959 294.102 442.539 295.682 444.487 295.682Z" fill="#8F80C7"/>
<path d="M444.487 321.7C446.436 321.7 448.016 320.12 448.016 318.172C448.016 316.223 446.436 314.644 444.487 314.644C442.539 314.644 440.959 316.223 440.959 318.172C440.959 320.12 442.539 321.7 444.487 321.7Z" fill="#8F80C7"/>
<path d="M532.114 201.264C532.114 201.264 561.528 269.664 558.394 305.695C556.127 331.763 441.412 348.557 441.412 348.557L428.695 328.06L513.755 286.424C513.755 286.424 480.876 212.572 532.114 201.264Z" fill="#B5A7E9"/>
<path d="M456.105 314.644L513.756 286.425C513.756 286.425 499.219 256.444 502.28 236.59C502.28 236.59 494.444 265.857 507.08 283.388C507.08 283.388 457.169 312.088 456.105 314.644Z" fill="#8F80C7"/>
<path d="M532.114 201.264C532.114 201.264 508.203 196.209 502.281 236.59C502.281 236.59 499.997 198.221 529.281 196.406L532.114 201.264Z" fill="#8F80C7"/>
<path d="M500.874 336.428L465.825 343.752C465.825 343.752 492.249 344.384 496.459 342.832C496.459 342.832 500.067 339.72 500.874 336.428Z" fill="#8F80C7"/>
<path d="M326.558 343.476C326.558 343.476 526.02 339.134 527.095 341.121C528.17 343.108 527.802 350.157 525.897 350.488C523.991 350.82 331.25 354.948 328.601 353.292C325.951 351.636 326.558 343.476 326.558 343.476Z" fill="#1B3D9E"/>
<mask id="mask6_483_2123" style="mask-type:luminance" maskUnits="userSpaceOnUse" x="326" y="340" width="202" height="14">
<path d="M326.558 343.476C326.558 343.476 526.02 339.134 527.095 341.121C528.17 343.108 527.802 350.158 525.897 350.489C523.991 350.82 331.25 354.948 328.601 353.292C325.951 351.637 326.558 343.476 326.558 343.476Z" fill="white"/>
</mask>
<g mask="url(#mask6_483_2123)">
<path d="M453.68 338.463C453.68 338.463 454.692 353.289 453.68 353.683C452.667 354.076 329.836 356.532 326.497 354.952C323.158 353.372 321.994 342.599 324.354 341.862C326.714 341.126 453.68 338.463 453.68 338.463Z" fill="#1C056D"/>
</g>
<path d="M275.567 264.838C275.195 264.042 275.773 263.128 276.651 263.119C292.517 262.949 405.454 261.803 409.066 263.628C412.951 265.592 455.578 340.553 453.615 341.862C451.651 343.171 330.754 345.096 326.558 343.477C319.046 340.576 283.528 281.887 275.567 264.838Z" fill="#6880E4"/>
<path d="M372.954 316.557C376.886 313.576 377.316 307.523 373.915 303.037C370.513 298.551 364.568 297.332 360.637 300.313C356.705 303.294 356.275 309.348 359.676 313.833C363.078 318.319 369.023 319.539 372.954 316.557Z" fill="white"/>
<path d="M113.434 171.87C103.984 171.87 96.2949 164.181 96.2949 154.731V113.173C96.2949 103.722 103.984 96.0333 113.434 96.0333H216.76C226.211 96.0333 233.899 103.722 233.899 113.173V154.731C233.899 164.181 226.211 171.87 216.76 171.87H113.434Z" fill="white"/>
<path d="M216.76 166.06H113.434C107.178 166.06 102.105 160.987 102.105 154.731V113.172C102.105 106.916 107.178 101.844 113.434 101.844H216.76C223.017 101.844 228.089 106.916 228.089 113.172V154.731C228.089 160.987 223.017 166.06 216.76 166.06Z" fill="#6889FD"/>
<path d="M134.313 121.823C134.419 121.328 134.64 120.953 134.975 120.697C135.311 120.441 135.677 120.308 136.075 120.299C136.472 120.291 136.847 120.401 137.201 120.63C137.554 120.86 137.801 121.213 137.943 121.69C138.42 125.894 138.751 130.054 138.936 134.169C139.122 138.285 139.223 142.462 139.241 146.701C139.223 147.09 139.117 147.412 138.923 147.668C138.728 147.924 138.486 148.114 138.194 148.238C137.903 148.361 137.585 148.423 137.241 148.423C136.896 148.423 136.574 148.357 136.274 148.225C135.973 148.092 135.717 147.903 135.505 147.655C135.293 147.408 135.161 147.09 135.108 146.701C135.09 144.705 135.125 142.749 135.214 140.833C135.302 138.916 135.302 136.96 135.214 134.964C135.125 135 135.029 135.035 134.922 135.07C134.816 135.106 134.701 135.141 134.578 135.176C133.589 135.159 132.635 135.115 131.717 135.044C130.798 134.973 129.888 134.92 128.988 134.885C128.087 134.85 127.182 134.858 126.272 134.911C125.362 134.964 124.43 135.097 123.477 135.308L123.212 145.906C123.176 146.489 122.986 146.922 122.642 147.204C122.298 147.487 121.918 147.628 121.503 147.628C121.087 147.628 120.695 147.487 120.324 147.204C119.953 146.922 119.732 146.498 119.661 145.932V121.822C119.767 121.328 119.988 120.966 120.324 120.736C120.659 120.507 121.026 120.396 121.423 120.405C121.82 120.414 122.2 120.547 122.562 120.802C122.924 121.059 123.176 121.425 123.318 121.902L123.477 131.679C124.448 131.502 125.389 131.396 126.298 131.361C127.208 131.326 128.113 131.33 129.014 131.374C129.915 131.418 130.824 131.476 131.743 131.546C132.661 131.617 133.615 131.661 134.604 131.679C134.675 131.714 134.737 131.736 134.79 131.745C134.843 131.754 134.904 131.776 134.975 131.811C134.869 130.062 134.776 128.398 134.697 126.817C134.618 125.236 134.489 123.571 134.313 121.823Z" fill="white"/>
<path d="M143.612 124.154C143.117 124.084 142.729 123.916 142.446 123.651C142.164 123.386 142 123.09 141.956 122.763C141.912 122.437 141.991 122.11 142.195 121.783C142.398 121.457 142.738 121.205 143.215 121.028C145.052 120.799 146.712 120.648 148.196 120.578C149.68 120.507 151.128 120.476 152.541 120.485C153.954 120.494 155.406 120.529 156.899 120.591C158.392 120.653 160.056 120.693 161.893 120.71C162.37 120.852 162.723 121.077 162.953 121.386C163.182 121.695 163.293 122.017 163.284 122.353C163.275 122.688 163.143 122.998 162.887 123.28C162.631 123.562 162.255 123.757 161.761 123.863C161.019 123.863 160.357 123.867 159.774 123.876C159.191 123.885 158.622 123.894 158.065 123.902C157.509 123.912 156.939 123.925 156.356 123.942C155.773 123.96 155.111 123.969 154.369 123.969C154.386 125.823 154.4 127.665 154.409 129.492C154.418 131.321 154.44 133.14 154.475 134.95C154.51 136.761 154.564 138.58 154.634 140.408C154.705 142.237 154.82 144.078 154.979 145.933C154.961 146.427 154.797 146.842 154.489 147.178C154.179 147.513 153.826 147.743 153.429 147.867C153.031 147.99 152.629 147.981 152.223 147.84C151.817 147.699 151.508 147.399 151.296 146.939C151.119 145.032 151.018 143.12 150.991 141.203C150.965 139.287 150.969 137.371 151.005 135.454C151.04 133.538 151.088 131.622 151.15 129.705C151.212 127.789 151.243 125.876 151.243 123.969C150.448 123.987 149.75 123.987 149.15 123.969C148.549 123.951 147.971 123.938 147.414 123.929C146.858 123.92 146.284 123.929 145.692 123.955C145.1 123.982 144.407 124.048 143.612 124.154Z" fill="white"/>
<path d="M181.447 145.641C181.076 146.277 180.705 146.661 180.334 146.794C179.963 146.926 179.623 146.926 179.314 146.794C179.005 146.661 178.745 146.458 178.532 146.184C178.321 145.91 178.179 145.685 178.108 145.508C177.79 144.767 177.486 143.897 177.194 142.899C176.903 141.901 176.621 140.845 176.347 139.733C176.073 138.62 175.79 137.477 175.499 136.302C175.207 135.127 174.907 133.992 174.598 132.897C174.289 131.802 173.962 130.774 173.618 129.811C173.273 128.848 172.898 128.014 172.492 127.307C172.068 128.844 171.737 130.389 171.498 131.943C171.26 133.498 171.065 135.056 170.915 136.62C170.765 138.183 170.633 139.742 170.518 141.296C170.403 142.851 170.249 144.396 170.054 145.933C169.966 146.569 169.767 147.037 169.458 147.337C169.149 147.637 168.796 147.792 168.399 147.8C168.002 147.81 167.604 147.677 167.207 147.403C166.809 147.129 166.487 146.727 166.239 146.198C166.31 144.025 166.469 141.817 166.716 139.574C166.963 137.331 167.25 135.159 167.577 133.056C167.904 130.954 168.244 128.972 168.597 127.108C168.95 125.245 169.26 123.624 169.525 122.247C169.684 121.858 169.953 121.554 170.333 121.333C170.712 121.112 171.123 120.984 171.564 120.949C172.006 120.914 172.434 120.962 172.849 121.094C173.264 121.227 173.569 121.452 173.763 121.77C174.77 123.13 175.614 124.587 176.294 126.142C176.973 127.696 177.543 129.242 178.003 130.778C178.462 132.315 178.846 133.785 179.155 135.189C179.464 136.594 179.769 137.825 180.069 138.885C180.457 137.208 180.921 135.547 181.46 133.904C181.998 132.262 182.533 130.712 183.063 129.255C183.593 127.797 184.083 126.473 184.533 125.281C184.984 124.088 185.306 123.104 185.5 122.326C185.606 121.92 185.827 121.567 186.163 121.267C186.498 120.967 186.865 120.776 187.262 120.697C187.659 120.618 188.039 120.666 188.401 120.843C188.763 121.02 189.024 121.373 189.183 121.903C189.501 124.058 189.867 126.164 190.282 128.221C190.697 130.279 191.108 132.306 191.514 134.302C191.92 136.298 192.3 138.285 192.653 140.263C193.007 142.242 193.263 144.22 193.422 146.198C193.475 146.781 193.346 147.227 193.038 147.536C192.728 147.845 192.371 148.009 191.965 148.026C191.558 148.044 191.156 147.916 190.759 147.642C190.362 147.368 190.101 146.931 189.978 146.331C189.624 144.777 189.293 143.262 188.984 141.787C188.675 140.312 188.388 138.846 188.123 137.389C187.858 135.931 187.615 134.461 187.394 132.977C187.173 131.494 186.974 129.966 186.798 128.394C186.409 129.789 186.038 131.189 185.686 132.593C185.332 133.997 184.957 135.411 184.559 136.832C184.162 138.254 183.711 139.698 183.208 141.164C182.705 142.63 182.118 144.122 181.447 145.641Z" fill="white"/>
<path d="M198.483 122.273C198.589 121.779 198.828 121.416 199.199 121.187C199.569 120.957 199.976 120.851 200.417 120.869C200.859 120.887 201.278 121.028 201.676 121.293C202.073 121.557 202.342 121.928 202.484 122.405C202.484 124.384 202.466 126.291 202.431 128.128C202.395 129.965 202.356 131.789 202.312 133.599C202.267 135.41 202.228 137.238 202.192 139.084C202.157 140.93 202.13 142.841 202.113 144.82C203.102 144.961 204.157 145.049 205.279 145.084C206.401 145.12 207.54 145.133 208.697 145.124C209.854 145.116 210.993 145.094 212.115 145.058C213.236 145.023 214.3 145.005 215.307 145.005C215.784 145.147 216.138 145.372 216.367 145.681C216.597 145.99 216.707 146.312 216.698 146.648C216.689 146.983 216.557 147.293 216.301 147.575C216.045 147.858 215.669 148.052 215.175 148.158C214.062 148.158 212.861 148.193 211.572 148.264C210.282 148.334 208.975 148.387 207.65 148.423C206.326 148.458 205.023 148.463 203.743 148.436C202.462 148.41 201.274 148.317 200.179 148.158C199.773 148.246 199.38 148.154 199 147.88C198.62 147.606 198.386 147.151 198.298 146.515C198.298 144.431 198.306 142.387 198.324 140.382C198.342 138.377 198.364 136.381 198.39 134.394C198.417 132.407 198.439 130.411 198.457 128.406C198.474 126.402 198.483 124.358 198.483 122.273Z" fill="white"/>
<path d="M253.178 218.218C247.1 218.218 242.155 213.273 242.155 207.195V174.907C242.155 168.829 247.1 163.885 253.178 163.885H326.076C332.154 163.885 337.098 168.829 337.098 174.907V207.195C337.098 213.273 332.154 218.218 326.076 218.218H253.178Z" fill="white"/>
<path d="M326.077 213.615H253.178C249.633 213.615 246.759 210.741 246.759 207.195V174.907C246.759 171.362 249.633 168.488 253.178 168.488H326.077C329.622 168.488 332.496 171.362 332.496 174.907V207.195C332.496 210.741 329.622 213.615 326.077 213.615Z" fill="#6889FD"/>
<path d="M262.494 183.75C262.103 183.694 261.795 183.561 261.571 183.351C261.347 183.141 261.218 182.907 261.182 182.648C261.147 182.39 261.21 182.131 261.371 181.872C261.532 181.613 261.802 181.413 262.179 181.274C262.753 181.231 263.386 181.175 264.079 181.106C264.772 181.036 265.464 180.991 266.157 180.969C266.849 180.948 267.517 180.973 268.161 181.043C268.804 181.113 269.364 181.26 269.84 181.484C270.218 181.749 270.452 182.061 270.543 182.418C270.634 182.774 270.624 183.096 270.512 183.383C270.399 183.67 270.197 183.876 269.903 184.002C269.609 184.128 269.252 184.093 268.832 183.897C268.497 183.743 268.035 183.667 267.447 183.667C267.517 184.45 267.611 185.311 267.731 186.248C267.849 187.186 267.965 188.162 268.077 189.176C268.189 190.19 268.276 191.215 268.339 192.251C268.402 193.286 268.413 194.294 268.371 195.273C268.329 196.252 268.213 197.18 268.025 198.054C267.836 198.929 267.545 199.709 267.153 200.394C266.86 200.898 266.454 201.3 265.936 201.601C265.418 201.902 264.848 202.112 264.226 202.23C263.603 202.35 262.952 202.385 262.274 202.336C261.595 202.287 260.941 202.168 260.312 201.979C259.682 201.79 259.105 201.538 258.58 201.223C258.055 200.908 257.639 200.541 257.331 200.121C257.093 199.799 256.911 199.442 256.786 199.051C256.659 198.659 256.565 198.253 256.502 197.834C256.439 197.414 256.401 196.998 256.387 196.585C256.373 196.172 256.359 195.777 256.345 195.399C256.429 195.007 256.607 194.717 256.88 194.528C257.153 194.339 257.45 194.245 257.772 194.245C258.094 194.245 258.402 194.343 258.695 194.539C258.989 194.735 259.192 195.021 259.304 195.399C259.318 195.959 259.315 196.438 259.294 196.837C259.272 197.236 259.304 197.582 259.388 197.876C259.472 198.17 259.64 198.429 259.892 198.653C260.144 198.876 260.556 199.093 261.13 199.303C262.319 199.709 263.236 199.709 263.879 199.303C264.523 198.897 264.971 198.072 265.223 196.826C265.419 195.861 265.517 194.833 265.517 193.741C265.517 192.65 265.468 191.545 265.37 190.425C265.272 189.306 265.149 188.186 265.002 187.067C264.855 185.948 264.74 184.871 264.656 183.835C264.25 183.891 263.852 183.884 263.46 183.814C263.068 183.743 262.746 183.722 262.494 183.75Z" fill="white"/>
<path d="M271.897 201.338C272.148 200.75 272.386 200.012 272.61 199.124C272.834 198.235 273.058 197.259 273.281 196.196C273.505 195.132 273.743 194.02 273.995 192.859C274.247 191.697 274.516 190.554 274.803 189.427C275.09 188.301 275.408 187.231 275.758 186.216C276.108 185.202 276.5 184.31 276.934 183.54C277.367 182.771 277.85 182.159 278.381 181.704C278.913 181.249 279.508 181.022 280.165 181.022C280.544 181.022 280.917 181.249 281.288 181.704C281.659 182.159 282.023 182.767 282.38 183.53C282.737 184.293 283.094 185.178 283.45 186.185C283.807 187.192 284.16 188.249 284.51 189.354C284.86 190.46 285.209 191.586 285.56 192.733C285.909 193.881 286.255 194.972 286.598 196.007C286.941 197.043 287.284 197.995 287.627 198.861C287.969 199.73 288.316 200.436 288.665 200.981C288.777 201.359 288.763 201.691 288.623 201.978C288.483 202.265 288.284 202.479 288.025 202.619C287.766 202.759 287.469 202.804 287.133 202.755C286.797 202.706 286.49 202.542 286.209 202.262C285.874 201.744 285.566 201.192 285.286 200.604C285.006 200.016 284.765 199.45 284.562 198.904C284.359 198.358 284.195 197.865 284.069 197.424C283.943 196.984 283.859 196.645 283.817 196.407C283.117 196.407 282.446 196.403 281.802 196.396C281.158 196.389 280.522 196.385 279.892 196.385C279.262 196.385 278.629 196.382 277.993 196.374C277.356 196.368 276.681 196.357 275.968 196.343C275.8 196.987 275.67 197.55 275.579 198.033C275.488 198.515 275.4 198.981 275.316 199.428C275.233 199.876 275.128 200.338 275.002 200.814C274.876 201.289 274.694 201.835 274.456 202.451C274.204 202.758 273.914 202.947 273.585 203.017C273.256 203.087 272.956 203.062 272.683 202.944C272.41 202.825 272.189 202.626 272.022 202.346C271.854 202.066 271.813 201.73 271.897 201.338ZM279.914 184.275C279.718 184.22 279.522 184.345 279.327 184.653C279.13 184.961 278.938 185.381 278.749 185.912C278.56 186.444 278.375 187.053 278.193 187.738C278.011 188.423 277.833 189.116 277.658 189.816C277.483 190.515 277.318 191.183 277.164 191.82C277.01 192.457 276.864 192.999 276.724 193.447C277.325 193.461 277.881 193.475 278.392 193.488C278.903 193.503 279.406 193.52 279.903 193.541C280.4 193.562 280.904 193.583 281.414 193.604C281.925 193.625 282.474 193.643 283.062 193.656C282.726 192.831 282.443 192.03 282.212 191.253C281.981 190.477 281.757 189.704 281.54 188.934C281.323 188.165 281.089 187.395 280.837 186.625C280.585 185.856 280.278 185.072 279.914 184.275Z" fill="white"/>
<path d="M298.216 202.388C298.007 202.625 297.789 202.783 297.566 202.86C297.342 202.936 297.128 202.954 296.925 202.912C296.723 202.87 296.537 202.775 296.369 202.629C296.201 202.482 296.055 202.303 295.928 202.094C294.767 198.792 293.592 195.574 292.402 192.439C291.213 189.305 289.989 186.122 288.73 182.89C288.688 182.498 288.779 182.176 289.003 181.924C289.226 181.672 289.507 181.504 289.842 181.421C290.178 181.337 290.524 181.35 290.881 181.462C291.238 181.575 291.535 181.792 291.773 182.113C292.291 183.54 292.794 184.873 293.284 186.111C293.773 187.35 294.246 188.581 294.701 189.805C295.155 191.029 295.596 192.282 296.023 193.562C296.45 194.842 296.866 196.238 297.272 197.749C297.818 196.406 298.342 195.077 298.845 193.761C299.349 192.446 299.835 191.131 300.304 189.815C300.773 188.501 301.231 187.182 301.679 185.859C302.127 184.537 302.574 183.197 303.022 181.84C303.218 181.504 303.477 181.294 303.799 181.21C304.12 181.126 304.428 181.148 304.722 181.273C305.016 181.399 305.264 181.609 305.467 181.903C305.67 182.197 305.764 182.54 305.751 182.931C305.289 184.568 304.764 186.195 304.176 187.811C303.589 189.427 302.962 191.043 302.298 192.659C301.633 194.275 300.955 195.891 300.262 197.507C299.57 199.124 298.888 200.75 298.216 202.388Z" fill="white"/>
<path d="M307.744 201.338C307.996 200.75 308.234 200.012 308.458 199.124C308.681 198.235 308.905 197.259 309.129 196.196C309.353 195.132 309.591 194.02 309.843 192.859C310.095 191.697 310.364 190.554 310.651 189.427C310.938 188.301 311.256 187.231 311.606 186.216C311.956 185.202 312.347 184.31 312.781 183.54C313.215 182.771 313.697 182.159 314.229 181.704C314.761 181.249 315.356 181.022 316.013 181.022C316.391 181.022 316.765 181.249 317.136 181.704C317.507 182.159 317.871 182.767 318.228 183.53C318.584 184.293 318.941 185.178 319.298 186.185C319.655 187.192 320.008 188.249 320.358 189.354C320.707 190.46 321.057 191.586 321.407 192.733C321.757 193.881 322.103 194.972 322.446 196.007C322.789 197.043 323.132 197.995 323.475 198.861C323.817 199.73 324.164 200.436 324.513 200.981C324.625 201.359 324.611 201.691 324.471 201.978C324.331 202.265 324.132 202.479 323.873 202.619C323.614 202.759 323.317 202.804 322.981 202.755C322.645 202.706 322.338 202.542 322.057 202.262C321.722 201.744 321.414 201.192 321.134 200.604C320.854 200.016 320.613 199.45 320.41 198.904C320.207 198.358 320.043 197.865 319.917 197.424C319.791 196.984 319.707 196.645 319.665 196.407C318.965 196.407 318.294 196.403 317.65 196.396C317.007 196.389 316.37 196.385 315.74 196.385C315.11 196.385 314.478 196.382 313.841 196.374C313.204 196.368 312.529 196.357 311.816 196.343C311.648 196.987 311.518 197.55 311.427 198.033C311.336 198.515 311.249 198.981 311.165 199.428C311.081 199.876 310.976 200.338 310.85 200.814C310.724 201.289 310.542 201.835 310.304 202.451C310.053 202.758 309.762 202.947 309.433 203.017C309.105 203.087 308.804 203.062 308.531 202.944C308.258 202.825 308.037 202.626 307.87 202.346C307.702 202.066 307.66 201.73 307.744 201.338ZM315.761 184.275C315.565 184.22 315.37 184.345 315.174 184.653C314.978 184.961 314.786 185.381 314.596 185.912C314.407 186.444 314.222 187.053 314.04 187.738C313.858 188.423 313.68 189.116 313.506 189.816C313.33 190.515 313.166 191.183 313.012 191.82C312.858 192.457 312.711 192.999 312.571 193.447C313.173 193.461 313.729 193.475 314.24 193.488C314.75 193.503 315.254 193.52 315.751 193.541C316.247 193.562 316.751 193.583 317.262 193.604C317.772 193.625 318.322 193.643 318.91 193.656C318.574 192.831 318.29 192.03 318.06 191.253C317.828 190.477 317.605 189.704 317.388 188.934C317.171 188.165 316.937 187.395 316.685 186.625C316.433 185.856 316.125 185.072 315.761 184.275Z" fill="white"/>
<path d="M266.9 142.902C259.875 142.902 254.16 137.187 254.16 130.162V95.7674C254.16 88.743 259.875 83.0281 266.9 83.0281H347.961C354.986 83.0281 360.701 88.743 360.701 95.7674V130.163C360.701 137.187 354.986 142.902 347.961 142.902H266.9V142.902Z" fill="white"/>
<path d="M347.96 137.202H266.899C263.011 137.202 259.859 134.05 259.859 130.162V95.7673C259.859 91.8795 263.011 88.728 266.899 88.728H347.96C351.848 88.728 354.999 91.8795 354.999 95.7673V130.162C354.999 134.05 351.848 137.202 347.96 137.202Z" fill="#6889FD"/>
<path d="M278.476 102.904C278.441 102.384 278.532 101.96 278.749 101.631C278.965 101.302 279.23 101.085 279.542 100.981C279.853 100.877 280.178 100.89 280.516 101.02C280.854 101.15 281.127 101.423 281.335 101.839C281.855 101.44 282.582 101.154 283.518 100.981C284.454 100.808 285.476 100.756 286.585 100.825C287.694 100.894 288.824 101.097 289.976 101.435C291.129 101.773 292.177 102.267 293.121 102.917C294.065 103.567 294.845 104.377 295.46 105.347C296.075 106.318 296.4 107.47 296.435 108.804C296.47 110.433 296.253 111.88 295.785 113.144C295.317 114.409 294.685 115.484 293.888 116.367C293.091 117.251 292.173 117.953 291.133 118.472C290.093 118.992 289.036 119.313 287.962 119.434C286.888 119.555 285.831 119.477 284.791 119.2C283.752 118.923 282.824 118.446 282.01 117.771C281.975 118.516 281.967 119.231 281.984 119.915C282.001 120.6 282.019 121.275 282.036 121.942C282.053 122.61 282.07 123.285 282.088 123.969C282.105 124.654 282.105 125.369 282.088 126.113C282.053 126.685 281.889 127.119 281.594 127.413C281.3 127.708 280.97 127.859 280.607 127.868C280.243 127.876 279.9 127.747 279.58 127.478C279.259 127.21 279.064 126.798 278.995 126.243C278.995 124.164 278.991 122.137 278.982 120.162C278.973 118.186 278.952 116.237 278.917 114.314C278.882 112.39 278.83 110.484 278.761 108.595C278.692 106.708 278.597 104.81 278.476 102.904ZM281.907 105.244C281.976 106.093 282.028 106.899 282.063 107.661C282.097 108.423 282.119 109.181 282.128 109.935C282.136 110.689 282.136 111.447 282.128 112.209C282.119 112.972 282.106 113.778 282.088 114.627C282.331 114.592 282.608 114.618 282.92 114.704C283.44 115.207 284.047 115.549 284.739 115.731C285.432 115.913 286.139 115.965 286.858 115.887C287.577 115.809 288.287 115.61 288.989 115.289C289.691 114.969 290.315 114.549 290.861 114.029C291.406 113.509 291.848 112.903 292.186 112.209C292.524 111.517 292.693 110.754 292.693 109.923C292.693 109.039 292.502 108.255 292.121 107.571C291.74 106.886 291.242 106.301 290.627 105.816C290.012 105.331 289.314 104.954 288.534 104.686C287.755 104.417 286.966 104.257 286.17 104.205C285.372 104.153 284.601 104.214 283.856 104.387C283.111 104.559 282.461 104.845 281.907 105.244Z" fill="white"/>
<path d="M314.629 101.943C314.733 101.458 314.949 101.089 315.279 100.838C315.608 100.587 315.967 100.457 316.357 100.448C316.747 100.44 317.115 100.548 317.462 100.773C317.808 100.999 318.051 101.345 318.19 101.813C318.657 105.937 318.983 110.017 319.164 114.055C319.346 118.092 319.446 122.19 319.463 126.348C319.446 126.73 319.342 127.046 319.152 127.297C318.961 127.549 318.723 127.735 318.437 127.856C318.151 127.977 317.839 128.038 317.501 128.038C317.163 128.038 316.847 127.973 316.552 127.843C316.258 127.713 316.006 127.527 315.799 127.284C315.591 127.042 315.461 126.73 315.409 126.349C315.392 124.391 315.426 122.472 315.513 120.592C315.599 118.712 315.599 116.793 315.513 114.834C315.426 114.869 315.331 114.904 315.227 114.938C315.123 114.973 315.01 115.008 314.889 115.042C313.919 115.025 312.983 114.982 312.082 114.912C311.181 114.843 310.289 114.792 309.405 114.756C308.521 114.722 307.633 114.731 306.741 114.782C305.848 114.834 304.934 114.964 303.999 115.172L303.739 125.568C303.704 126.14 303.518 126.565 303.18 126.842C302.842 127.119 302.469 127.258 302.062 127.258C301.655 127.258 301.27 127.119 300.906 126.842C300.542 126.565 300.325 126.149 300.256 125.595V101.943C300.36 101.458 300.576 101.103 300.906 100.877C301.235 100.653 301.594 100.544 301.984 100.552C302.374 100.561 302.747 100.691 303.102 100.942C303.457 101.194 303.704 101.553 303.843 102.021L303.999 111.612C304.951 111.439 305.874 111.335 306.767 111.3C307.659 111.265 308.547 111.27 309.431 111.313C310.314 111.356 311.207 111.413 312.108 111.482C313.009 111.551 313.944 111.595 314.915 111.612C314.984 111.646 315.045 111.668 315.097 111.677C315.149 111.685 315.209 111.707 315.279 111.742C315.175 110.026 315.084 108.393 315.006 106.842C314.928 105.291 314.802 103.658 314.629 101.943Z" fill="white"/>
<path d="M323.258 102.904C323.223 102.384 323.314 101.96 323.531 101.631C323.747 101.302 324.012 101.085 324.324 100.981C324.635 100.877 324.961 100.89 325.299 101.02C325.637 101.15 325.909 101.423 326.117 101.839C326.637 101.44 327.365 101.154 328.3 100.981C329.236 100.808 330.258 100.756 331.367 100.825C332.476 100.894 333.606 101.097 334.759 101.435C335.911 101.773 336.959 102.267 337.904 102.917C338.848 103.567 339.627 104.377 340.243 105.347C340.858 106.318 341.182 107.47 341.217 108.804C341.252 110.433 341.035 111.88 340.568 113.144C340.1 114.409 339.467 115.484 338.67 116.367C337.873 117.251 336.955 117.953 335.915 118.472C334.876 118.992 333.819 119.313 332.744 119.434C331.67 119.555 330.613 119.477 329.573 119.2C328.534 118.923 327.607 118.446 326.792 117.771C326.757 118.516 326.749 119.231 326.766 119.915C326.783 120.6 326.801 121.275 326.818 121.942C326.835 122.61 326.853 123.285 326.87 123.969C326.887 124.654 326.887 125.369 326.87 126.113C326.835 126.685 326.671 127.119 326.376 127.413C326.082 127.708 325.753 127.859 325.389 127.868C325.025 127.876 324.682 127.747 324.362 127.478C324.041 127.21 323.846 126.798 323.777 126.243C323.777 124.164 323.773 122.137 323.764 120.162C323.755 118.186 323.734 116.237 323.699 114.314C323.664 112.39 323.612 110.484 323.543 108.595C323.475 106.708 323.379 104.81 323.258 102.904ZM326.689 105.244C326.758 106.093 326.81 106.899 326.845 107.661C326.88 108.423 326.901 109.181 326.91 109.935C326.919 110.689 326.919 111.447 326.91 112.209C326.901 112.972 326.888 113.778 326.871 114.627C327.114 114.592 327.391 114.618 327.703 114.704C328.223 115.207 328.829 115.549 329.522 115.731C330.215 115.913 330.921 115.965 331.64 115.887C332.359 115.809 333.07 115.61 333.772 115.289C334.474 114.969 335.097 114.549 335.643 114.029C336.189 113.509 336.631 112.903 336.969 112.209C337.306 111.517 337.476 110.754 337.476 109.923C337.476 109.039 337.285 108.255 336.904 107.571C336.522 106.886 336.024 106.301 335.409 105.816C334.794 105.331 334.097 104.954 333.317 104.686C332.537 104.417 331.748 104.257 330.952 104.205C330.155 104.153 329.383 104.214 328.639 104.387C327.893 104.559 327.243 104.845 326.689 105.244Z" fill="white"/>
<path d="M138.204 226.746V197.302C138.204 191.642 142.792 187.054 148.452 187.054H209.122C214.782 187.054 219.37 191.642 219.37 197.302V226.746C219.37 232.406 214.782 236.994 209.122 236.994H148.451C142.792 236.994 138.204 232.406 138.204 226.746Z" fill="white"/>
<path d="M210.253 232.001H147.154C144.501 232.001 142.35 229.85 142.35 227.197V196.852C142.35 194.198 144.501 192.047 147.154 192.047H210.253C212.906 192.047 215.058 194.198 215.058 196.852V227.197C215.057 229.85 212.906 232.001 210.253 232.001Z" fill="#6889FD"/>
<path d="M165.265 201.019C165.204 200.538 165.283 200.151 165.502 199.857C165.72 199.564 165.983 199.384 166.291 199.316C166.599 199.248 166.912 199.309 167.227 199.497C167.543 199.685 167.769 200.012 167.904 200.478C168.04 201.26 168.137 202.042 168.197 202.824C168.257 203.607 168.288 204.404 168.288 205.216C168.257 205.712 168.096 206.095 167.803 206.366C167.509 206.637 167.182 206.792 166.821 206.829C166.46 206.866 166.122 206.78 165.806 206.569C165.49 206.359 165.302 206.013 165.242 205.532V205.351C164.52 204.404 163.696 203.735 162.772 203.344C161.847 202.953 160.899 202.791 159.929 202.858C158.959 202.926 158 203.197 157.053 203.671C156.105 204.144 155.248 204.765 154.481 205.532C154 206.013 153.605 206.592 153.297 207.269C152.988 207.946 152.755 208.664 152.597 209.423C152.439 210.183 152.352 210.957 152.338 211.747C152.323 212.536 152.364 213.296 152.462 214.025C152.559 214.755 152.71 215.428 152.913 216.044C153.116 216.661 153.36 217.165 153.646 217.556C154.082 218.172 154.627 218.684 155.282 219.09C155.936 219.496 156.639 219.801 157.391 220.004C158.143 220.206 158.921 220.312 159.726 220.319C160.53 220.327 161.312 220.24 162.072 220.06C162.831 219.879 163.534 219.605 164.181 219.236C164.828 218.868 165.377 218.406 165.828 217.849C166.038 217.578 166.189 217.274 166.279 216.935C166.369 216.597 166.482 216.27 166.617 215.954C166.858 215.533 167.125 215.266 167.418 215.153C167.711 215.04 167.978 215.048 168.219 215.176C168.46 215.304 168.659 215.54 168.817 215.886C168.975 216.232 169.046 216.653 169.031 217.15C169.001 218.217 168.64 219.172 167.948 220.015C167.256 220.857 166.365 221.552 165.275 222.101C164.184 222.651 162.97 223.042 161.632 223.275C160.293 223.507 158.958 223.545 157.627 223.388C156.296 223.23 155.044 222.865 153.871 222.293C152.698 221.722 151.735 220.903 150.984 219.834C150.562 219.233 150.201 218.507 149.9 217.657C149.599 216.808 149.378 215.89 149.235 214.905C149.092 213.92 149.028 212.897 149.043 211.837C149.058 210.777 149.167 209.739 149.37 208.724C149.573 207.709 149.878 206.75 150.284 205.847C150.69 204.945 151.209 204.155 151.84 203.479C152.337 202.953 152.931 202.464 153.623 202.012C154.314 201.561 155.059 201.178 155.856 200.862C156.653 200.546 157.484 200.306 158.349 200.14C159.213 199.975 160.063 199.907 160.898 199.937C161.733 199.967 162.534 200.11 163.3 200.365C164.068 200.621 164.752 201.012 165.353 201.539C165.338 201.448 165.323 201.362 165.308 201.279C165.294 201.196 165.279 201.109 165.265 201.019Z" fill="white"/>
<path d="M187.057 205.734C187.177 206.14 187.136 206.475 186.933 206.738C186.73 207.001 186.452 207.178 186.098 207.268C185.745 207.358 185.358 207.355 184.937 207.257C184.515 207.159 184.154 206.96 183.854 206.659C183.824 206.193 183.711 205.715 183.515 205.226C183.32 204.738 183.057 204.298 182.726 203.907C182.395 203.516 182.004 203.192 181.553 202.937C181.102 202.681 180.62 202.561 180.109 202.576C179.402 202.606 178.77 202.79 178.214 203.128C177.657 203.466 177.221 203.911 176.906 204.459C176.59 205.008 176.409 205.629 176.364 206.32C176.319 207.012 176.462 207.719 176.793 208.441C176.913 208.727 177.24 208.945 177.774 209.095C178.308 209.246 178.943 209.408 179.68 209.58C180.417 209.753 181.207 209.968 182.049 210.223C182.891 210.479 183.692 210.855 184.452 211.351C185.211 211.847 185.873 212.498 186.437 213.302C187.001 214.107 187.38 215.141 187.576 216.404C187.726 217.473 187.625 218.412 187.272 219.224C186.918 220.036 186.395 220.724 185.703 221.288C185.012 221.852 184.199 222.289 183.267 222.597C182.335 222.905 181.364 223.078 180.357 223.116C179.349 223.153 178.356 223.056 177.379 222.822C176.401 222.589 175.525 222.217 174.751 221.706C173.976 221.195 173.349 220.536 172.867 219.732C172.386 218.928 172.138 217.976 172.123 216.878C172.123 216.578 172.138 216.288 172.168 216.01C172.198 215.732 172.266 215.48 172.371 215.254C172.477 215.028 172.627 214.836 172.823 214.679C173.018 214.521 173.281 214.419 173.612 214.374C173.913 214.359 174.169 214.412 174.379 214.532C174.589 214.652 174.759 214.814 174.886 215.017C175.014 215.22 175.097 215.461 175.134 215.739C175.172 216.017 175.176 216.314 175.146 216.63C175.07 217.292 175.165 217.86 175.428 218.333C175.691 218.807 176.048 219.198 176.499 219.507C176.951 219.815 177.462 220.04 178.033 220.183C178.605 220.327 179.161 220.383 179.703 220.352C180.244 220.323 180.793 220.244 181.35 220.116C181.906 219.988 182.41 219.785 182.861 219.507C183.312 219.228 183.673 218.864 183.944 218.413C184.215 217.961 184.32 217.397 184.26 216.721C184.23 216.36 184.128 215.984 183.955 215.593C183.782 215.202 183.553 214.837 183.267 214.499C182.981 214.16 182.658 213.856 182.297 213.585C181.936 213.314 181.553 213.119 181.147 212.999C180.545 212.818 179.921 212.645 179.274 212.48C178.628 212.314 178 212.126 177.391 211.915C176.782 211.705 176.206 211.457 175.665 211.171C175.124 210.886 174.646 210.532 174.232 210.111C173.819 209.69 173.492 209.182 173.251 208.588C173.01 207.994 172.882 207.284 172.868 206.456C172.853 205.449 173.037 204.539 173.42 203.727C173.804 202.915 174.312 202.223 174.943 201.651C175.575 201.08 176.281 200.64 177.064 200.332C177.846 200.024 178.62 199.869 179.387 199.869C180.44 199.869 181.403 200.005 182.275 200.275C183.147 200.546 183.914 200.938 184.576 201.448C185.238 201.96 185.779 202.581 186.2 203.31C186.621 204.039 186.906 204.847 187.057 205.734Z" fill="white"/>
<path d="M204.045 205.734C204.166 206.14 204.125 206.475 203.922 206.738C203.718 207.001 203.44 207.178 203.087 207.268C202.733 207.358 202.346 207.355 201.925 207.257C201.504 207.159 201.143 206.96 200.842 206.659C200.812 206.193 200.699 205.715 200.504 205.226C200.308 204.738 200.045 204.298 199.714 203.907C199.383 203.516 198.992 203.192 198.541 202.937C198.09 202.681 197.608 202.561 197.097 202.576C196.39 202.606 195.759 202.79 195.202 203.128C194.646 203.466 194.21 203.911 193.894 204.459C193.578 205.008 193.398 205.629 193.353 206.32C193.307 207.012 193.45 207.719 193.781 208.441C193.902 208.727 194.229 208.945 194.763 209.095C195.296 209.246 195.932 209.408 196.669 209.58C197.405 209.753 198.195 209.968 199.037 210.223C199.88 210.479 200.68 210.855 201.44 211.351C202.199 211.847 202.861 212.498 203.425 213.302C203.989 214.107 204.369 215.141 204.564 216.404C204.715 217.473 204.613 218.412 204.26 219.224C203.906 220.036 203.383 220.724 202.692 221.288C202 221.852 201.188 222.289 200.255 222.597C199.323 222.905 198.353 223.078 197.345 223.116C196.337 223.153 195.345 223.056 194.367 222.822C193.39 222.589 192.514 222.217 191.739 221.706C190.965 221.195 190.337 220.536 189.856 219.732C189.374 218.928 189.126 217.976 189.111 216.878C189.111 216.578 189.126 216.288 189.157 216.01C189.186 215.732 189.254 215.48 189.36 215.254C189.465 215.028 189.615 214.836 189.811 214.679C190.006 214.521 190.269 214.419 190.6 214.374C190.901 214.359 191.157 214.412 191.367 214.532C191.578 214.652 191.747 214.814 191.875 215.017C192.002 215.22 192.085 215.461 192.123 215.739C192.16 216.017 192.164 216.314 192.134 216.63C192.059 217.292 192.153 217.86 192.416 218.333C192.679 218.807 193.036 219.198 193.488 219.507C193.939 219.815 194.45 220.04 195.022 220.183C195.593 220.327 196.15 220.383 196.691 220.352C197.233 220.323 197.782 220.244 198.338 220.116C198.894 219.988 199.398 219.785 199.849 219.507C200.301 219.228 200.662 218.864 200.933 218.413C201.203 217.961 201.308 217.397 201.248 216.721C201.218 216.36 201.116 215.984 200.943 215.593C200.771 215.202 200.541 214.837 200.255 214.499C199.97 214.16 199.646 213.856 199.286 213.585C198.924 213.314 198.541 213.119 198.135 212.999C197.533 212.818 196.909 212.645 196.262 212.48C195.616 212.314 194.988 212.126 194.379 211.915C193.77 211.705 193.194 211.457 192.653 211.171C192.112 210.886 191.634 210.532 191.22 210.111C190.807 209.69 190.48 209.182 190.239 208.588C189.998 207.994 189.87 207.284 189.856 206.456C189.841 205.449 190.025 204.539 190.408 203.727C190.792 202.915 191.3 202.223 191.931 201.651C192.563 201.08 193.269 200.64 194.052 200.332C194.834 200.024 195.608 199.869 196.375 199.869C197.428 199.869 198.391 200.005 199.263 200.275C200.135 200.546 200.902 200.938 201.564 201.448C202.226 201.96 202.767 202.581 203.188 203.31C203.609 204.039 203.895 204.847 204.045 205.734Z" fill="white"/>
<path d="M490.962 39.0168C495.766 36.3948 574.076 23.2676 575.662 32.1561C575.662 32.1561 585.105 82.005 580.369 83.728C577.391 84.8114 545.055 89.1877 520.608 91.1205C515.52 99.0692 509.207 107.227 507.308 108.283C505.244 109.431 506.413 100.53 507.967 91.9109C499.821 92.2409 494.091 91.9995 493.224 90.8086C489.808 86.1138 486.157 41.6388 490.962 39.0168Z" fill="#F94B6A"/>
<path d="M562.418 61.473C564.428 60.0671 564.917 57.2982 563.511 55.2884C562.105 53.2786 559.336 52.7891 557.327 54.195C555.317 55.6009 554.827 58.3698 556.233 60.3796C557.639 62.3894 560.408 62.8789 562.418 61.473Z" fill="white"/>
<path d="M532.166 61.4134C532.861 63.7657 535.331 65.1094 537.683 64.4151C540.035 63.7204 541.379 61.2506 540.685 58.8983C539.99 56.5461 537.52 55.2021 535.168 55.8967C532.816 56.5914 531.472 59.0612 532.166 61.4134Z" fill="white"/>
<path d="M507.853 63.9623C508.547 66.3146 511.017 67.6583 513.369 66.9639C515.722 66.2696 517.066 63.7995 516.371 61.4472C515.676 59.0949 513.207 57.7512 510.854 58.4456C508.502 59.1399 507.158 61.61 507.853 63.9623Z" fill="white"/>
<path d="M69.9514 166.476H54.9714C54.4272 166.476 53.9863 166.035 53.9863 165.491V161.244C53.9863 160.7 54.4272 160.259 54.9714 160.259H69.9514C70.4955 160.259 70.9364 160.7 70.9364 161.244V165.491C70.9361 166.035 70.4952 166.476 69.9514 166.476Z" fill="#F6F9FF"/>
<defs>
<linearGradient id="paint0_linear_483_2123" x1="487.143" y1="314.644" x2="676.253" y2="314.644" gradientUnits="userSpaceOnUse">
<stop stop-color="#9942FF"/>
<stop offset="1" stop-color="#4D6DFF"/>
</linearGradient>
</defs>
</svg>
