<svg width="36" height="44" viewBox="0 0 36 44" fill="none" xmlns="http://www.w3.org/2000/svg">
<path d="M11.232 22H9.76805C9.34409 22 9 22.448 9 23C9 23.552 9.34409 24 9.76805 24H11.232C11.6559 24 12 23.552 12 23C12 22.448 11.6559 22 11.232 22Z" fill="url(#paint0_linear_601_1757)"/>
<path d="M27.5 43.5C21.9 43.1 8.16667 34 2 29.5L2.5 40L3.5 42.5L5.5 43.5H27.5Z" fill="#DDDFE8"/>
<path fill-rule="evenodd" clip-rule="evenodd" d="M32 26.2727C32 26.6742 31.552 27 31 27C30.448 27 30 26.6742 30 26.2727V25.7273C30 25.3258 30.448 25 31 25C31.552 25 32 25.3258 32 25.7273V26.2727ZM32 37.3166C32 37.6938 31.552 38 31 38C30.448 38 30 37.6938 30 37.3166V28.6834C30 28.3062 30.448 28 31 28C31.552 28 32 28.3062 32 28.6834V37.3166Z" fill="url(#paint1_linear_601_1757)"/>
<path d="M13.674 0H4.17445C3.77798 0 3.45621 0.328533 3.45621 0.733333V17.1864H1.26627C0.568133 17.1864 0 17.7643 0 18.4734V22.3307C0 23.0406 0.568133 23.6177 1.26627 23.6177H1.74606V40.4683C1.74606 42.416 3.30106 44 5.2116 44H30.7884C32.6989 44 34.2539 42.4153 34.2539 40.4683V23.6177H34.7337C35.4319 23.6177 36 23.0399 36 22.3307V18.4734C36 17.7635 35.4319 17.1864 34.7337 17.1864H28.0059C28.6028 14.9329 28.7708 13.1773 28.5151 11.9629C28.5216 11.9629 28.5274 11.9636 28.5338 11.9636C30.1204 11.9636 31.6395 11.0315 32.3319 9.46C33.1701 7.55773 32.4181 1.34273 32.3298 0.6402C32.2982 0.3872 32.1394 0.1694 31.9117 0.0645334C31.6848 -0.0396 31.419 -0.0161332 31.2129 0.126867C30.6397 0.525067 25.5861 4.07513 24.7487 5.9774C24.0864 7.48147 24.3586 9.17327 25.3067 10.3789C23.4953 11.3828 21.6279 14.3616 20.1777 17.1857H14.393V0.733333C14.393 0.328533 14.0705 0 13.674 0ZM4.8927 16.9723H6.97131C7.36778 16.9723 7.68956 16.6437 7.68956 16.2389C7.68956 15.8341 7.36778 15.5056 6.97131 15.5056H4.8927V14.0059H8.43438C8.83085 14.0059 9.15263 13.6774 9.15263 13.2726C9.15263 12.8678 8.83085 12.5393 8.43438 12.5393H4.8927V11.0396H6.97131C7.36778 11.0396 7.68956 10.7111 7.68956 10.3063C7.68956 9.90147 7.36778 9.57293 6.97131 9.57293H4.8927V8.07327H6.97131C7.36778 8.07327 7.68956 7.74473 7.68956 7.33993C7.68956 6.93513 7.36778 6.6066 6.97131 6.6066H4.8927V5.10693H8.43438C8.83085 5.10693 9.15263 4.7784 9.15263 4.3736C9.15263 3.9688 8.83085 3.64027 8.43438 3.64027H4.8927V1.46667H12.955V17.1864H4.8927V16.9723ZM34.5628 22.1511H14.8117C14.4152 22.1511 14.0935 22.4796 14.0935 22.8844C14.0935 23.2892 14.4152 23.6177 14.8117 23.6177H32.8167V40.4683C32.8167 41.6071 31.9067 42.5333 30.7877 42.5333H5.2116C4.09257 42.5333 3.18255 41.6064 3.18255 40.4683V23.6177H6.52241C6.91888 23.6177 7.24065 23.2892 7.24065 22.8844C7.24065 22.4796 6.91888 22.1511 6.52241 22.1511H1.43649V18.6523H4.16368C4.16727 18.6523 4.17015 18.6545 4.17445 18.6545C4.17876 18.6545 4.18092 18.6523 4.18523 18.6523H13.6632C13.6668 18.6523 13.6697 18.6545 13.674 18.6545C13.6783 18.6545 13.6805 18.6523 13.6848 18.6523H20.5541H20.5649H27.0363C27.042 18.6523 27.047 18.6545 27.0528 18.6545C27.0578 18.6545 27.0628 18.6523 27.0679 18.6523H34.5635L34.5628 22.1511ZM26.0573 6.57947C26.489 5.59973 29.0359 3.51267 31.0398 2.0416C31.2912 4.54813 31.4521 7.8782 31.0197 8.85867C30.4041 10.2549 28.7902 10.8805 27.4227 10.2527C26.0544 9.625 25.4418 7.97647 26.0573 6.57947ZM26.6973 11.5265C27.2087 11.7619 27.5505 13.4677 26.5127 17.1864H21.8031C24.5662 12.012 26.2613 11.3263 26.6973 11.5265Z" fill="url(#paint2_linear_601_1757)"/>
<defs>
<linearGradient id="paint0_linear_601_1757" x1="9" y1="23" x2="12" y2="23" gradientUnits="userSpaceOnUse">
<stop stop-color="#FB9004"/>
<stop offset="1" stop-color="#FC067D"/>
</linearGradient>
<linearGradient id="paint1_linear_601_1757" x1="30" y1="31.5" x2="32" y2="31.5" gradientUnits="userSpaceOnUse">
<stop stop-color="#FB9004"/>
<stop offset="1" stop-color="#FC067D"/>
</linearGradient>
<linearGradient id="paint2_linear_601_1757" x1="0" y1="22" x2="36" y2="22" gradientUnits="userSpaceOnUse">
<stop stop-color="#9942FF"/>
<stop offset="1" stop-color="#FC067D"/>
</linearGradient>
</defs>
</svg>
