<svg width="1149" height="769" viewBox="0 0 1149 769" fill="none" xmlns="http://www.w3.org/2000/svg">
<path opacity="0.16" d="M59.037 758.871C59.037 758.871 -33.2083 662.249 12.9143 516.319C59.037 370.389 246.466 314.539 271.984 264.965C297.501 215.391 303.11 100.614 385.236 40.7733C481.574 -29.4231 620.55 -5.08451 685.128 83.9373C749.705 172.959 807.945 285.174 890.794 294.428C973.64 303.681 1056.07 294.538 1122.8 423.206C1189.53 551.874 1106.12 729.435 1080.6 759.846" fill="#B5A7E9"/>
<path d="M1018.56 529.521C1010.51 528.063 1000.08 538.476 996.629 544.914C996.389 545.364 993.959 551.489 993.119 553.818C993.119 553.741 993.129 553.661 993.129 553.583C993.469 545.769 992.829 538.271 991.879 531.188C990.939 524.12 989.449 517.544 987.929 511.53C986.419 505.507 984.669 500.093 983.079 495.314C982.199 492.742 981.339 490.383 980.529 488.211C980.629 488.251 980.689 488.274 980.689 488.274C980.829 488.326 981.399 478.413 981.359 477.783C980.949 470.494 975.859 456.656 967.949 454.594C962.249 453.108 957.029 457.281 956.169 462.866C955.279 468.568 959.029 474.613 962.819 478.528C966.709 482.541 977.409 486.973 980.079 488.036C980.879 490.305 981.719 492.775 982.579 495.482C984.059 500.283 985.689 505.717 987.059 511.745C987.449 513.444 987.829 515.198 988.209 516.981C987.019 514.257 985.259 510.374 985.049 510.023C981.329 503.746 970.439 493.805 962.469 495.622C956.729 496.93 954.019 503.038 955.819 508.392C957.669 513.861 963.769 517.499 968.939 519.226C974.329 521.022 986.129 519.966 988.749 519.701C989.469 523.429 990.109 527.307 990.559 531.358C991.349 538.344 991.819 545.83 991.319 553.493C991.289 553.944 991.229 554.399 991.199 554.849C990.859 553.448 988.319 545.579 988.089 545.054C985.069 538.406 975.339 527.33 967.219 528.26C961.369 528.931 957.999 534.703 959.209 540.225C960.439 545.865 966.109 550.148 971.059 552.435C976.739 555.057 990.539 555.087 991.179 555.087C990.619 562.255 989.459 569.576 987.899 576.944C986.779 582.301 985.439 587.675 984.019 593.057C983.529 591.236 981.179 583.942 980.949 583.44C977.939 576.792 968.209 565.715 960.079 566.646C954.229 567.317 950.869 573.089 952.069 578.611C953.299 584.248 958.979 588.536 963.929 590.82C969.359 593.325 982.229 593.465 983.909 593.47C983.269 595.907 982.619 598.347 981.949 600.786C979.789 608.75 977.589 616.724 975.659 624.658C974.999 627.372 974.399 630.079 973.829 632.784C972.979 629.989 971.389 625.088 971.199 624.678C968.189 618.03 958.459 606.953 950.329 607.884C944.661 608.532 941.366 613.977 942.264 619.338C935.419 621.498 930.375 632.984 929.594 639.297C929.567 639.519 929.539 641.036 929.522 642.792C929.041 640.222 928.588 637.633 928.191 635.011C927.085 627.745 926.186 620.309 925.251 612.861C925.058 611.309 924.86 609.756 924.658 608.204C927.307 607.341 937.03 604.024 940.743 600.668C944.416 597.348 948.177 592.097 947.716 586.875C947.268 581.761 942.787 577.665 937.533 578.668C930.24 580.059 924.798 592.297 923.982 598.879C923.952 599.112 923.922 600.773 923.907 602.642C923.344 598.617 922.729 594.608 921.996 590.653C920.722 583.712 919.111 576.929 917.017 570.502C918.558 570.014 929.592 566.428 933.602 562.803C937.278 559.483 941.036 554.231 940.578 549.01C940.13 543.895 935.649 539.8 930.395 540.803C923.101 542.194 917.66 554.431 916.844 561.014C916.786 561.475 916.724 567.459 916.771 569.711C916.749 569.644 916.731 569.573 916.709 569.506C914.445 562.773 911.45 556.626 908.33 550.934C905.222 545.252 901.814 540.163 898.559 535.564C895.312 530.953 892.057 526.937 889.149 523.407C887.566 521.515 886.069 519.794 884.666 518.22C884.766 518.22 884.818 518.22 884.818 518.22C884.953 518.22 882.199 509.631 881.964 509.108C879.231 503.065 870.399 492.997 863.021 493.835C857.704 494.438 854.644 499.68 855.735 504.697C856.849 509.818 861.998 513.716 866.494 515.796C871.1 517.927 881.618 518.185 884.223 518.215C885.644 519.876 887.16 521.695 888.774 523.709C891.599 527.295 894.756 531.368 897.889 536.029C898.775 537.34 899.673 538.704 900.571 540.095C898.674 538.173 895.915 535.456 895.624 535.226C890.415 531.123 877.938 526.256 871.775 530.402C867.337 533.387 867.034 539.449 870.314 543.398C873.664 547.431 880.029 548.517 884.976 548.291C890.125 548.056 899.78 543.305 901.915 542.224C903.746 545.149 905.557 548.224 907.261 551.509C910.211 557.174 913.058 563.363 915.138 570.021C915.26 570.412 915.36 570.817 915.478 571.21C914.732 570.131 910.011 564.292 909.638 563.927C904.912 559.275 893.042 553.07 886.465 556.511C881.723 558.99 880.76 564.982 883.585 569.268C886.47 573.644 892.677 575.423 897.621 575.743C903.291 576.109 914.998 571.625 915.538 571.417C917.404 577.675 918.816 584.26 919.904 591.013C920.702 595.92 921.323 600.914 921.88 605.938C920.872 604.551 916.494 599.14 916.136 598.789C911.41 594.138 899.54 587.933 892.962 591.373C888.221 593.853 887.258 599.845 890.083 604.131C892.967 608.507 899.175 610.286 904.119 610.604C909.538 610.952 920.497 606.863 921.926 606.318C922.178 608.595 922.421 610.874 922.656 613.158C923.427 620.614 924.167 628.09 925.123 635.449C925.448 637.966 925.826 640.458 926.229 642.932C924.598 640.84 921.645 637.208 921.353 636.92C916.626 632.269 904.759 626.064 898.179 629.506C893.438 631.986 892.474 637.978 895.299 642.264C898.184 646.64 904.392 648.419 909.335 648.739C914.272 649.057 923.774 645.702 926.519 644.686C927.232 648.849 928.05 652.958 929.029 656.971C929.489 658.692 929.847 660.479 930.382 662.105C930.885 663.756 931.386 665.393 931.878 667.011C933.019 670.324 934.068 673.407 935.209 676.464C935.744 677.93 936.282 679.374 936.82 680.795C935.489 678.443 933.422 674.92 933.195 674.615C929.226 669.303 918.435 661.369 911.41 663.776C906.348 665.51 904.487 671.287 906.631 675.951C908.82 680.715 914.687 683.415 919.524 684.475C924.725 685.619 935.817 683.354 937.653 682.964C939.069 686.637 940.483 690.157 941.866 693.465C943.378 697.1 944.836 700.463 946.232 703.598H934.168V711.542H937.058L941.751 767.15H979.299L983.999 711.542H986.169V703.598H975.509C975.209 699.625 974.939 695.324 974.719 690.703C974.539 687.145 974.399 683.394 974.309 679.516C976.309 679.331 988.769 678.075 993.879 675.158C998.609 672.453 1003.89 667.694 1004.63 661.97C1005.35 656.365 1001.5 650.906 995.619 650.743C987.439 650.521 978.699 662.395 976.279 669.281C976.119 669.726 974.849 675.243 974.269 677.998C974.219 675.646 974.189 673.264 974.179 670.814C974.139 667.309 974.209 663.604 974.259 660.011C974.349 658.149 974.439 656.27 974.539 654.371C974.589 652.452 974.879 650.633 975.039 648.732C975.339 645.947 975.739 643.11 976.179 640.258C979.799 640.433 990.309 640.748 995.219 638.864C1000.31 636.907 1006.25 633.002 1007.85 627.457C1009.41 622.028 1006.43 616.046 1000.63 614.995C992.589 613.536 982.149 623.949 978.709 630.387C978.589 630.605 977.969 632.151 977.249 633.95C977.779 631.12 978.339 628.28 978.969 625.428C980.709 617.527 982.729 609.533 984.719 601.514C985.139 599.843 985.549 598.171 985.959 596.497C989.019 596.66 1000.32 597.103 1005.47 595.126C1010.56 593.172 1016.5 589.264 1018.1 583.72C1019.66 578.29 1016.68 572.308 1010.89 571.257C1002.84 569.799 992.409 580.212 988.959 586.65C988.839 586.877 988.149 588.571 987.389 590.485C988.409 586.127 989.359 581.766 990.179 577.412C991.619 569.779 992.649 562.175 993.039 554.742C994.819 554.849 1007.57 555.537 1013.13 553.403C1018.22 551.446 1024.16 547.541 1025.75 541.996C1027.33 536.552 1024.35 530.572 1018.56 529.521ZM951.379 703.591C949.66 699.998 947.829 696.045 945.92 691.721C944.606 688.764 943.265 685.631 941.917 682.374C943.243 681.716 950.149 678.22 954.529 674.715C960.219 676.837 968.119 678.165 969.719 678.42C969.719 682.754 969.769 686.93 969.879 690.875C969.999 695.437 970.179 699.655 970.389 703.591H951.379ZM971.149 648.306C970.939 650.258 970.599 652.235 970.509 654.119C970.369 656.015 970.239 657.894 970.099 659.751C969.959 663.606 969.819 667.189 969.779 670.779C969.749 672.498 969.729 674.195 969.719 675.866C969.279 672.921 968.549 668.485 968.439 668.082C966.469 661.054 958.529 648.632 950.359 648.321C944.471 648.096 940.27 653.295 940.625 658.935C940.721 660.429 941.133 661.872 941.756 663.253C940.68 666.816 940.163 670.432 940.238 673.059C940.25 673.487 940.973 678.578 941.389 681.103C940.578 679.126 939.77 677.119 938.959 675.045C937.778 672.088 936.627 668.923 935.494 665.863C934.966 664.257 934.431 662.63 933.89 660.992C933.31 659.348 932.959 657.711 932.474 656.048C931.816 653.588 931.228 651.056 930.67 648.494C933.797 647.458 942.807 644.291 946.348 641.091C949.052 638.646 951.789 635.156 952.869 631.4C953.299 631.628 953.739 631.861 954.169 632.058C959.119 634.34 970.209 634.658 973.429 634.701C972.519 639.254 971.729 643.795 971.149 648.306Z" fill="url(#paint0_linear_679_2497)"/>
<path d="M1008.81 511.754C1013.2 508.524 1017.9 503.188 1017.98 497.418C1018.05 491.768 1013.6 486.787 1007.73 487.302C999.591 488.018 992.271 500.821 990.651 507.936C990.511 508.552 989.431 518.422 989.581 518.395C989.591 518.395 1003.65 515.547 1008.81 511.754Z" fill="url(#paint1_linear_679_2497)"/>
<path d="M902.202 540.838C902.209 540.833 913.203 533.823 916.335 528.924C919.003 524.75 921.242 518.693 919.42 513.777C917.636 508.963 912.235 506.195 907.431 508.55C900.763 511.817 898.746 525.058 899.7 531.621C899.782 532.191 902.089 540.913 902.202 540.838Z" fill="url(#paint2_linear_679_2497)"/>
<path d="M1016.04 64H494V378.684H1016.04V64Z" fill="#EEEEFD" stroke="#6880E4" stroke-miterlimit="10" stroke-linecap="round" stroke-linejoin="round"/>
<path d="M1016.04 369.019H494V378.684H1016.04V369.019Z" fill="#EEEEFD" stroke="#6880E4" stroke-miterlimit="10" stroke-linecap="round" stroke-linejoin="round"/>
<path d="M931.844 277.326C932.014 277.621 935.905 274.576 936.08 274.879C936.48 275.572 919.997 289.27 920.4 289.966C921.293 291.512 952.539 269.469 953.379 270.926C954.379 272.649 915.641 296.311 916.657 298.07C917.94 300.294 961.289 269.907 962.329 271.701C963.399 273.563 914.185 300.712 915.311 302.661C916.524 304.763 965.799 270.73 967.009 272.815C968.279 275.021 913.251 303.914 914.583 306.221C916.016 308.706 969.139 271.809 970.399 273.993C971.659 276.175 912.989 311.993 914.212 314.11C915.884 317.005 976.029 275.066 977.479 277.583C979.029 280.263 912.969 313.497 914.357 315.902C915.763 318.336 977.379 275.827 978.979 278.594C980.339 280.954 912.961 315.927 914.587 318.744C916.024 321.231 979.669 277.368 981.319 280.218C982.769 282.735 914.633 322.905 916.046 325.354C917.743 328.291 984.609 281.974 986.249 284.822C987.839 287.581 915.763 326.342 917.595 329.512C919.216 332.322 987.239 284.889 989.149 288.202C990.739 290.959 916.559 327.994 918.03 330.541C919.774 333.563 988.119 286.07 989.849 289.073C991.479 291.89 916.939 329.02 918.613 331.922C920.527 335.239 988.949 287.406 990.639 290.339C992.109 292.881 917.71 330.573 919.314 333.345C921.103 336.443 989.829 288.83 991.469 291.682C993.279 294.807 920.925 335.645 922.757 338.817C924.323 341.53 992.669 294.274 994.479 297.407C996.159 300.319 923.304 338.542 924.923 341.344C926.727 344.469 994.189 297.722 995.769 300.444C997.249 303.009 925.031 340.634 926.51 343.193C928.329 346.341 994.889 300.116 996.439 302.819C998.069 305.633 929.752 344.777 931.371 347.579C932.965 350.342 995.949 306.081 997.779 309.239C999.219 311.746 930.095 344.97 931.751 347.835C933.553 350.955 996.189 306.887 997.819 309.694C999.469 312.559 930.488 345.42 931.966 347.98C933.51 350.652 996.169 307.064 997.839 309.949C999.279 312.446 937.143 349.466 938.599 351.99C939.93 354.297 996.479 314.943 998.049 317.668C999.229 319.715 942.8 352 944.111 354.275C945.467 356.624 996.089 321.526 997.279 323.58C998.579 325.829 943.831 352.476 945.062 354.605C946.193 356.567 995.649 322.104 997.069 324.576C998.259 326.623 954.179 354.765 955.159 356.451C956.109 358.103 992.599 332.347 993.679 334.211C994.429 335.52 964.939 354.76 965.649 355.986C966.219 356.979 987.199 342.027 987.859 343.166C988.149 343.676 974.329 352.716 974.669 353.304C974.889 353.677 981.109 349.018 981.349 349.446C981.459 349.639 976.139 352.443 976.249 352.636C976.459 352.999 980.279 349.841 980.479 350.194" stroke="url(#paint3_linear_679_2497)" stroke-width="0.72" stroke-linecap="round" stroke-linejoin="round"/>
<path d="M949.584 330.53C950.92 330.253 952.09 329.737 953.07 328.982C953.94 328.326 954.68 327.516 955.26 326.555C956.17 325.101 956.63 323.462 956.63 321.631C956.63 319.859 956.23 318.351 955.43 317.107C954.63 315.864 953.44 314.955 951.86 314.382C952.9 313.852 953.68 313.267 954.22 312.624C955.17 311.48 955.65 309.964 955.65 308.08C955.65 306.251 955.17 304.68 954.23 303.369C952.66 301.234 949.992 300.139 946.229 300.081H931.307V330.951H945.218C946.789 330.951 948.245 330.811 949.584 330.53ZM937.469 305.443H944.184C945.663 305.443 946.879 305.603 947.832 305.926C948.938 306.386 949.491 307.334 949.491 308.773C949.491 310.072 949.073 310.977 948.235 311.485C947.399 311.996 946.311 312.248 944.97 312.248H937.467V305.443H937.469ZM937.469 325.589V317.36H945.068C946.396 317.375 947.422 317.548 948.155 317.883C949.466 318.483 950.12 319.584 950.12 321.19C950.12 323.089 949.446 324.375 948.093 325.046C947.35 325.409 946.304 325.589 944.968 325.589H937.469Z" fill="url(#paint4_linear_679_2497)"/>
<path d="M961.861 328.917C964.181 330.791 966.861 331.727 969.901 331.727C973.581 331.727 976.451 330.618 978.491 328.396C979.801 326.998 980.541 325.624 980.701 324.271H974.611C974.251 324.941 973.841 325.464 973.381 325.839C972.531 326.537 971.421 326.888 970.071 326.888C968.781 326.888 967.691 326.6 966.781 326.027C965.281 325.106 964.481 323.5 964.391 321.208H981.011C981.041 319.239 980.981 317.728 980.821 316.679C980.541 314.891 979.941 313.317 979.001 311.961C977.961 310.422 976.651 309.296 975.051 308.583C973.471 307.87 971.671 307.515 969.691 307.515C966.341 307.515 963.621 308.568 961.531 310.68C959.431 312.786 958.381 315.821 958.381 319.774C958.381 323.998 959.541 327.045 961.861 328.917ZM966.121 313.742C966.971 312.874 968.161 312.439 969.691 312.439C971.101 312.439 972.281 312.849 973.231 313.667C974.181 314.488 974.711 315.691 974.821 317.275H964.541C964.751 315.789 965.281 314.613 966.121 313.742Z" fill="url(#paint5_linear_679_2497)"/>
<path d="M976 301.857H962.59V304.972H976V301.857Z" fill="url(#paint6_linear_679_2497)"/>
<path d="M921.971 87.2109C922.159 87.5359 926.04 84.4739 926.207 84.7669C926.623 85.4849 909.381 100.281 909.839 101.075C910.635 102.453 944.084 79.2549 944.97 80.7909C945.813 82.2499 908.158 101.337 908.986 102.771C909.907 104.365 945.913 79.3099 946.839 80.9159C947.669 82.3549 906.284 105.346 907.162 106.867C908.358 108.936 950.339 79.6269 951.339 81.3609C952.389 83.1849 903.564 113.862 904.75 115.916C906.036 118.146 958.859 81.2489 960.349 83.8179C961.509 85.8269 903.114 116.302 904.48 118.666C905.966 121.238 961.409 82.3399 962.909 84.9339C964.179 87.1359 903.121 122.001 904.352 124.138C905.733 126.53 966.259 85.0219 967.719 87.5509C969.389 90.4309 903.051 123.437 904.497 125.942C905.944 128.446 967.509 85.5969 969.229 88.5699C970.829 91.3439 903.304 125.619 904.663 127.974C906.269 130.758 969.439 87.1329 970.929 89.7159C972.419 92.3029 903.166 126.36 904.755 129.109C906.391 131.944 970.209 87.6709 971.779 90.4089C973.509 93.3929 903.064 126.653 904.798 129.655C906.544 132.682 970.659 88.1169 972.179 90.7539C973.629 93.2709 903.877 129.605 905.461 132.347C907.177 135.319 972.739 89.9359 974.289 92.6099C976.059 95.6879 904.065 130.263 905.603 132.93C907.497 136.21 973.219 90.3659 974.739 93.0129C976.409 95.8999 905.03 134.008 906.564 136.666C908.351 139.758 975.519 92.6929 977.319 95.8129C978.869 98.4879 907.145 139.13 908.863 142.105C910.795 145.453 979.219 97.5369 980.929 100.497C982.639 103.446 910.455 144.692 911.958 147.297C913.655 150.236 982.159 102.633 983.949 105.736C985.739 108.846 910.477 144.699 912.241 147.754C914.165 151.087 982.559 103.459 984.159 106.234C985.639 108.803 912.674 147.639 914.14 150.179C915.842 153.126 983.729 106.244 985.349 109.063C987.039 111.983 914.783 149.971 916.48 152.906C918.083 155.683 984.889 109.659 986.509 112.474C988.309 115.584 916.392 151.54 918.118 154.53C919.812 157.465 985.269 111.603 987.069 114.723C988.729 117.61 921.746 155.868 923.425 158.776C924.901 161.335 986.679 118.991 988.089 121.441C989.599 124.048 927.045 159.309 928.457 161.753C929.905 164.265 986.709 124.696 988.199 127.263C989.469 129.475 928.469 160.167 929.765 162.411C931.116 164.75 986.699 126.312 988.099 128.734C989.389 130.981 933.025 162.043 934.259 164.18C935.735 166.735 985.959 131.001 987.399 133.501C988.609 135.59 939.696 164.027 940.736 165.831C941.762 167.608 984.379 137.829 985.589 139.933C986.469 141.459 942.833 164.378 943.919 166.257C945.05 168.218 983.359 141.022 984.429 142.87C985.199 144.212 952.969 164.648 953.819 166.102C954.509 167.305 978.799 150.164 979.459 151.297C979.769 151.838 965.839 162.083 966.149 162.626C966.359 162.992 970.559 159.674 970.739 159.979C970.849 160.174 966.279 162.359 966.379 162.531C966.589 162.881 970.409 159.726 970.609 160.089" stroke="url(#paint7_linear_679_2497)" stroke-width="0.72" stroke-linecap="round" stroke-linejoin="round"/>
<path d="M939.309 150.297H950.04V123.423H957.53L958.33 114.425H950.04C950.04 114.425 950.04 111.065 950.04 109.301C950.04 107.18 950.47 106.341 952.52 106.341C954.17 106.341 958.32 106.341 958.32 106.341V97.0039C958.32 97.0039 952.2 97.0039 950.89 97.0039C942.907 97.0039 939.307 100.522 939.307 107.252C939.307 113.117 939.307 114.425 939.307 114.425H933.725V123.535H939.307V150.297H939.309Z" fill="url(#paint8_linear_679_2497)"/>
<path d="M799.344 160.912C799.519 161.215 803.382 158.125 803.58 158.465C803.903 159.023 789.994 169.401 790.322 169.967C791.045 171.218 815.785 153.674 816.473 154.867C817.303 156.306 785.248 175.889 785.998 177.19C786.947 178.831 823.931 152.801 825.009 154.667C826.18 156.696 781.692 183.941 782.868 185.975C784.209 188.297 833.001 154.152 834.249 156.311C835.63 158.703 780.421 191.667 781.747 193.966C783.186 196.456 840.352 156.994 841.71 159.346C843.254 162.021 780.446 192.59 781.695 194.754C783.319 197.566 840.772 156.856 842.413 159.699C843.697 161.92 780.211 194.089 781.625 196.533C783.256 199.36 842.316 157.579 844.012 160.514C845.461 163.021 780.782 200.346 782.12 202.668C783.699 205.4 847.618 161.515 849.064 164.02C850.46 166.439 782.205 206.996 783.719 209.619C785.383 212.501 852.454 165.906 854.198 168.926C855.669 171.473 783.063 209.368 784.78 212.341C786.731 215.721 854.526 168.411 856.112 171.158C857.756 174.005 783.494 210.457 785.318 213.614C787.094 216.689 855.176 169.019 857.02 172.216C858.516 174.806 784.102 211.84 785.841 214.855C787.424 217.597 856.162 170.545 857.768 173.327C859.384 176.124 785.313 214.317 786.927 217.117C788.791 220.347 857.425 172.579 859.087 175.454C860.773 178.374 785.623 214.813 787.334 217.773C789.238 221.07 857.728 173.049 859.495 176.109C861.308 179.249 789.519 220.67 791.067 223.352C792.639 226.072 860.873 179.379 862.462 182.132C864.281 185.282 790.817 222.051 792.596 225.133C794.242 227.986 861.606 181.221 863.368 184.273C864.856 186.85 794.022 225.419 795.794 228.491C797.528 231.496 862.682 185.599 864.534 188.804C866.13 191.569 795.794 227.125 797.397 229.902C798.884 232.479 863.363 187.949 865.036 190.851C866.728 193.781 798.313 229.142 799.877 231.851C801.416 234.516 863.753 191.234 865.372 194.036C866.64 196.235 804.753 233.285 806.074 235.572C807.473 237.996 863.901 198.39 865.544 201.237C866.986 203.731 806.467 234.018 807.888 236.483C809.349 239.012 864.083 200.979 865.407 203.273C866.645 205.418 812.109 236.257 813.398 238.489C814.609 240.588 863.002 206.651 864.388 209.051C865.522 211.017 812.925 236.618 814.138 238.717C815.377 240.861 863.132 207.88 864.238 209.791C865.442 211.875 814.889 237.101 816.045 239.105C817.216 241.134 862.464 209.544 863.66 211.613C864.601 213.241 817.774 237.771 818.877 239.683C819.885 241.429 861.461 212.238 862.697 214.382C863.628 215.994 828.705 238.407 829.581 239.923C830.341 241.239 856.963 222.414 857.698 223.69C858.108 224.398 841.247 236.45 841.633 237.116C841.915 237.608 848.866 232.304 849.141 232.78C849.291 233.04 841.935 236.61 842.108 236.913C842.366 237.358 848.618 232.554 848.879 233.005C848.999 233.215 843.634 236.03 843.744 236.222C843.935 236.555 847.785 233.45 847.975 233.78" stroke="url(#paint9_linear_679_2497)" stroke-width="0.72" stroke-linecap="round" stroke-linejoin="round"/>
<path d="M800.176 212.108C804.442 214.842 809.508 216.439 814.95 216.439C832.844 216.439 842.955 201.324 842.345 187.768C844.226 186.41 845.86 184.713 847.153 182.779C845.424 183.545 843.566 184.065 841.619 184.296C843.608 183.105 845.137 181.216 845.855 178.964C843.993 180.07 841.929 180.87 839.735 181.303C837.976 179.429 835.472 178.261 832.699 178.261C826.479 178.261 821.908 184.065 823.312 190.095C815.3 189.695 808.2 185.857 803.446 180.025C800.921 184.358 802.137 190.025 806.428 192.895C804.847 192.845 803.361 192.41 802.06 191.689C801.955 196.155 805.155 200.331 809.791 201.262C808.435 201.632 806.949 201.714 805.44 201.427C806.664 205.257 810.224 208.042 814.442 208.12C810.394 211.292 805.29 212.711 800.176 212.108Z" fill="url(#paint10_linear_679_2497)"/>
<path d="M681.544 86.573C681.716 86.871 685.579 83.778 685.779 84.126C686.255 84.952 668.818 99.826 669.299 100.657C670.164 102.155 703.836 78.516 704.79 80.168C705.758 81.844 667.15 102.06 667.923 103.401C668.858 105.02 706.674 78.401 707.809 80.373C708.783 82.057 666.196 103.501 667.125 105.108C668.148 106.879 708.55 78.439 709.741 80.503C710.769 82.287 663.489 112.273 664.557 114.125C665.821 116.314 717.46 80.45 718.813 82.8C720.024 84.899 662.368 119.079 663.812 121.581C665.293 124.145 724.07 83.16 725.641 85.882C727.318 88.785 662.824 126.139 664.35 128.782C666.136 131.877 729.832 86.946 731.578 89.968C733.297 92.945 662.826 126.64 664.495 129.53C666.256 132.582 730.61 87.806 732.149 90.471C733.525 92.858 662.859 126.87 664.572 129.837C666.376 132.962 730.533 87.461 732.392 90.681C733.825 93.166 664.235 132.6 666.011 135.675C667.745 138.677 734.799 91.682 736.65 94.889C738.234 97.634 665.085 134.696 666.917 137.869C668.653 140.879 736.39 93.556 738.209 96.708C739.753 99.383 666.639 138.337 668.413 141.414C669.959 144.094 738.617 96.596 740.473 99.811C741.994 102.448 667.75 140.366 669.414 143.248C671.225 146.386 739.727 98.385 741.574 101.585C743.098 104.227 668.303 141.284 669.767 143.816C671.663 147.104 740.313 99.358 741.927 102.153C743.621 105.088 671.911 146.613 673.372 149.143C674.968 151.908 742.945 104.867 744.724 107.947C746.305 110.687 674.173 149.19 675.736 151.898C677.513 154.975 744.088 108.105 745.962 111.353C747.549 114.1 674.375 149.476 675.854 152.035C677.47 154.832 744.246 108.48 746.008 111.533C747.791 114.623 676.55 151.402 678.293 154.422C679.76 156.964 745.079 111.828 746.826 114.855C748.51 117.77 678.068 152.771 679.775 155.726C681.221 158.23 745.522 113.677 747.291 116.744C748.722 119.224 678.394 153.066 680.087 156.003C681.539 158.515 745.522 113.965 747.366 117.16C748.815 119.669 681.904 155.886 683.337 158.37C685.074 161.375 746.07 118.401 747.694 121.216C748.987 123.457 684.086 157.397 685.487 159.821C687.176 162.746 746.375 121.14 747.902 123.785C749.295 126.2 691.652 161.077 692.888 163.217C694.179 165.453 745.715 129.357 747.169 131.877C748.397 134.003 694.064 161.996 695.239 164.035C696.663 166.499 745.257 131.907 746.663 134.346C747.857 136.415 699.255 163.199 700.421 165.221C701.537 167.155 743.981 137.448 745.117 139.415C746.065 141.059 707.872 164.33 708.745 165.841C709.558 167.25 740.651 145.307 741.566 146.894C742.29 148.147 711.848 164.282 712.571 165.533C713.249 166.707 738.779 148.818 739.465 150.006C739.858 150.684 725.619 161.33 725.946 161.896C726.152 162.248 729.98 159.108 730.177 159.454" stroke="url(#paint11_linear_679_2497)" stroke-width="0.72" stroke-linecap="round" stroke-linejoin="round"/>
<path d="M693.768 112.143H684.645V141.619H693.768V112.143Z" fill="url(#paint12_linear_679_2497)"/>
<path d="M689.162 108.285C692.142 108.285 694.559 105.848 694.559 102.846C694.559 99.843 692.144 97.406 689.162 97.406C686.182 97.406 683.768 99.841 683.768 102.846C683.768 105.848 686.182 108.285 689.162 108.285Z" fill="url(#paint13_linear_679_2497)"/>
<path d="M708.354 126.147C708.354 122.004 710.26 119.534 713.913 119.534C717.268 119.534 718.88 121.904 718.88 126.147C718.88 130.393 718.88 141.619 718.88 141.619H727.959C727.959 141.619 727.959 130.853 727.959 122.957C727.959 115.061 723.483 111.245 717.236 111.245C710.983 111.245 708.354 116.117 708.354 116.117V112.146H699.602V141.622H708.354C708.354 141.622 708.354 130.688 708.354 126.147Z" fill="url(#paint14_linear_679_2497)"/>
<path d="M707.429 277.002C707.624 277.34 711.487 274.25 711.665 274.555C711.92 274.998 701.599 281.486 701.874 281.961C702.347 282.779 718.693 271.083 719.198 271.958C719.811 273.022 695.594 288.241 696.21 289.307C696.963 290.611 727.635 269.043 728.553 270.635C729.434 272.158 691.624 294.967 692.612 296.681C693.79 298.722 735.664 269.149 736.825 271.155C737.813 272.864 691.188 296.4 692.139 298.047C693.383 300.198 737.078 269.456 738.223 271.44C739.297 273.299 690.345 297.611 691.559 299.716C692.887 302.017 738.666 269.604 739.927 271.788C741.118 273.85 688.699 305.853 689.965 308.05C691.541 310.779 746.653 272.199 748.006 274.54C749.282 276.75 688.531 308.58 689.785 310.752C691.228 313.251 748.829 273.009 750.413 275.749C751.774 278.106 688.681 313.537 689.96 315.751C691.371 318.195 753.193 275.754 754.704 278.371C756.408 281.323 689.184 318.791 690.773 321.543C692.627 324.753 757.551 278.999 759.28 281.991C760.772 284.576 690.323 323.202 691.821 325.801C693.345 328.441 760.807 282.439 762.338 285.089C763.934 287.856 691.416 326.069 693.075 328.941C694.699 331.756 762.776 284.591 764.554 287.673C766.326 290.741 693.1 329.937 694.576 332.494C696.548 335.909 765.125 288.054 766.731 290.836C768.253 293.471 694.363 331.979 695.882 334.613C697.709 337.776 766.429 290.155 768.042 292.953C769.586 295.625 697.296 336.355 698.937 339.202C700.886 342.575 768.868 295.244 770.419 297.932C772.236 301.077 700.263 339.737 702.045 342.825C703.653 345.612 770.114 299.15 772.008 302.433C773.539 305.087 703.869 343.39 705.27 345.815C706.951 348.725 771.382 303.781 773.054 306.679C774.6 309.356 704.477 343.806 706.015 346.47C707.664 349.328 771.588 304.757 773.257 307.649C774.683 310.121 707.136 345.652 708.78 348.5C710.239 351.024 772.143 308.698 773.537 311.112C774.83 313.354 712.245 348.802 713.796 351.487C715.448 354.347 772.363 314.677 773.659 316.924C775.078 319.381 719.371 352.005 720.705 354.314C721.925 356.428 771.217 321.853 772.646 324.325C773.869 326.442 726.134 353.819 727.307 355.848C728.423 357.782 769.686 329.099 770.674 330.81C771.723 332.629 728.466 354.467 729.379 356.048C730.367 357.757 768.808 330.798 769.884 332.662C770.532 333.785 743.78 353.611 744.504 354.867C745.039 355.795 761.039 344.246 761.505 345.052C761.72 345.427 751.602 351.915 751.837 352.32C752.01 352.62 755.87 349.533 756.068 349.878" stroke="url(#paint15_linear_679_2497)" stroke-width="0.72" stroke-linecap="round" stroke-linejoin="round"/>
<path d="M731.749 293.624C738.205 293.624 738.968 293.649 741.517 293.764C743.874 293.871 745.155 294.264 746.006 294.597C747.134 295.035 747.94 295.56 748.786 296.406C749.631 297.251 750.154 298.057 750.595 299.185C750.925 300.039 751.32 301.317 751.428 303.674C751.543 306.224 751.568 306.987 751.568 313.442C751.568 319.897 751.543 320.66 751.428 323.21C751.32 325.567 750.927 326.848 750.595 327.698C750.157 328.827 749.634 329.632 748.786 330.478C747.94 331.324 747.134 331.847 746.006 332.287C745.153 332.617 743.874 333.013 741.517 333.12C738.968 333.235 738.205 333.26 731.749 333.26C725.294 333.26 724.531 333.235 721.982 333.12C719.625 333.013 718.346 332.62 717.493 332.287C716.365 331.849 715.559 331.324 714.713 330.478C713.868 329.632 713.345 328.827 712.904 327.698C712.574 326.848 712.179 325.567 712.071 323.21C711.956 320.66 711.931 319.897 711.931 313.442C711.931 306.987 711.956 306.224 712.071 303.674C712.179 301.317 712.574 300.036 712.904 299.185C713.342 298.057 713.868 297.251 714.713 296.406C715.559 295.56 716.365 295.037 717.493 294.597C718.346 294.267 719.625 293.871 721.982 293.764C724.531 293.649 725.294 293.624 731.749 293.624ZM731.749 289.268C725.184 289.268 724.361 289.295 721.784 289.413C719.212 289.53 717.453 289.938 715.917 290.536C714.325 291.154 712.979 291.98 711.636 293.323C710.292 294.667 709.467 296.015 708.849 297.604C708.251 299.143 707.843 300.899 707.725 303.471C707.608 306.051 707.58 306.872 707.58 313.437C707.58 320.002 707.608 320.825 707.725 323.402C707.843 325.974 708.251 327.731 708.849 329.27C709.467 330.858 710.292 332.207 711.636 333.55C712.979 334.894 714.328 335.722 715.917 336.338C717.453 336.936 719.212 337.343 721.784 337.461C724.361 337.579 725.184 337.606 731.749 337.606C738.315 337.606 739.138 337.579 741.715 337.461C744.287 337.343 746.046 336.936 747.582 336.338C749.171 335.72 750.519 334.894 751.863 333.55C753.207 332.207 754.032 330.858 754.65 329.27C755.248 327.731 755.656 325.974 755.774 323.402C755.891 320.823 755.919 320 755.919 313.437C755.919 306.872 755.891 306.048 755.774 303.471C755.656 300.899 755.248 299.143 754.65 297.604C754.032 296.015 753.207 294.667 751.863 293.323C750.519 291.98 749.171 291.152 747.582 290.536C746.043 289.938 744.287 289.53 741.715 289.413C739.138 289.295 738.315 289.268 731.749 289.268Z" fill="url(#paint16_linear_679_2497)"/>
<path d="M731.748 301.027C724.893 301.027 719.336 306.584 719.336 313.44C719.336 320.295 724.893 325.852 731.748 325.852C738.604 325.852 744.161 320.295 744.161 313.44C744.161 306.584 738.604 301.027 731.748 301.027ZM731.748 321.499C727.297 321.499 723.692 317.891 723.692 313.442C723.692 308.991 727.3 305.383 731.748 305.383C736.197 305.383 739.805 308.991 739.805 313.442C739.805 317.891 736.199 321.499 731.748 321.499Z" fill="url(#paint17_linear_679_2497)"/>
<path d="M747.554 300.537C747.554 302.138 746.255 303.439 744.654 303.439C743.052 303.439 741.754 302.14 741.754 300.537C741.754 298.933 743.052 297.637 744.654 297.637C746.255 297.637 747.554 298.935 747.554 300.537Z" fill="url(#paint18_linear_679_2497)"/>
<path d="M664.592 310.089C664.592 310.089 670.261 320.485 670.261 325.211C670.261 329.937 643.8 387.113 643.327 389.004C642.855 390.893 646.162 401.289 644.273 408.85C642.384 416.411 635.294 424.445 635.294 424.445L626.316 385.697C626.316 385.697 636.239 375.774 631.516 362.07C626.789 348.367 626.789 319.069 626.789 319.069L664.592 310.089Z" fill="#FFB7D6"/>
<path d="M618.757 741.01C618.757 741.01 616.4 764.99 618.292 766.41C620.181 767.83 629.816 767.62 636.471 766.41C645.561 764.76 650.515 766.82 657.13 766.82C663.745 766.82 677.919 768.63 679.443 765.58C682.335 759.8 665.066 754.24 655.616 748.57C646.166 742.9 637.187 738.17 637.187 738.17L618.757 741.01Z" fill="#517FC4"/>
<path d="M546.932 380.968C546.932 380.968 538.426 426.332 537.956 434.836C537.483 443.343 513.855 731.08 513.855 731.08L535.594 732.97L589.935 460.352L593.714 459.406L618.759 741L639.078 737.22L640.024 426.8L633.881 380.018L546.932 380.968Z" fill="#3A376B"/>
<path d="M568.668 236.373C568.668 236.373 530.865 228.339 521.886 225.977C512.908 223.615 510.544 244.88 507.709 251.965C504.874 259.053 477.938 308.198 479.829 311.978C481.718 315.759 488.807 325.682 502.983 315.759C517.159 305.836 525.664 289.298 525.664 289.298C525.664 289.298 544.566 342.695 545.509 348.838C546.455 354.98 543.148 380.498 545.509 385.695C547.871 390.891 571.498 394.199 590.873 393.729C610.246 393.256 631.511 392.783 634.345 385.695C637.18 378.607 633.873 326.155 633.873 326.155C633.873 326.155 663.171 320.955 667.895 313.87C672.621 306.782 662.225 296.859 652.773 278.429C643.323 259.999 640.958 237.791 633.87 233.538C626.782 229.285 580.472 237.319 576.221 237.319C571.971 237.319 568.668 236.373 568.668 236.373Z" fill="#B5A7E9"/>
<path d="M575.758 249.131L582.373 266.142L573.396 369.63L595.13 406.487L607.891 363.958L588.988 264.726L599.384 244.407L585.207 238.265L574.339 246.769L575.758 249.131Z" fill="#8F80C7"/>
<path d="M558.273 233.538L556.854 263.78L588.515 248.187L616.395 264.726L601.271 233.065C601.271 233.065 590.877 226.923 578.119 226.923C565.361 226.923 558.273 233.538 558.273 233.538Z" fill="white"/>
<path d="M564.889 200.459C564.889 200.459 566.778 211.328 566.305 224.558C565.832 237.789 567.723 234.954 573.866 244.877C580.008 254.8 584.262 258.58 589.461 252.911C594.657 247.241 594.657 235.427 595.603 233.065C596.549 230.703 597.492 203.296 597.492 203.296C597.492 203.296 590.879 208.02 564.889 200.459Z" fill="#FFB7D6"/>
<path d="M598.842 144.719C598.842 144.719 604.935 161.775 604.935 182.484C604.935 203.194 604.935 210.099 598.032 213.752C591.129 217.407 580.57 217.813 574.072 213.752C567.575 209.691 560.672 204.412 556.206 199.538C551.74 194.664 539.555 179.64 537.931 169.487C536.307 159.333 555.798 146.341 572.043 139.843C588.286 133.35 598.842 144.719 598.842 144.719Z" fill="#FFB7D6"/>
<path d="M550.112 188.982C550.112 188.982 553.767 188.169 553.767 183.298C553.767 178.424 551.33 175.582 551.33 168.679C551.33 161.776 572.852 150.812 583.816 152.03C594.78 153.249 604.933 153.249 611.023 147.156C617.113 141.064 618.331 134.161 615.897 134.569C613.46 134.974 607.37 137.817 607.37 137.817C607.37 137.817 611.025 125.229 602.496 113.047C593.969 100.864 591.938 108.986 593.156 111.015C594.374 113.047 598.03 122.384 598.03 122.384C598.03 122.384 584.629 112.231 576.102 113.044C567.576 113.857 540.366 126.04 533.869 135.38C527.371 144.72 526.966 159.339 528.589 167.46C530.213 175.582 535.087 176.395 535.087 176.395L546.051 190.201L550.112 188.982Z" fill="#1C056D"/>
<path d="M556.205 193.043C556.205 193.043 550.925 180.455 542.399 184.108C533.872 187.764 543.212 204.817 552.144 204.412C561.079 204.007 562.297 198.728 562.297 198.728" fill="#FFB7D6"/>
<path d="M557.507 253.086C557.507 253.086 557.507 227.931 560.154 223.077C562.801 218.223 571.185 214.25 576.042 211.603C580.895 208.956 583.102 211.603 580.895 215.573C578.689 219.544 572.952 224.841 572.952 224.841C572.952 224.841 596.34 213.807 598.547 216.897C600.754 219.987 601.194 223.958 598.547 226.164C595.9 228.371 593.253 229.695 591.927 231.461C590.603 233.225 593.25 246.466 590.603 250.879C587.956 255.293 576.042 260.146 569.862 264.117C563.682 268.088 519.554 316.632 507.639 322.369C495.725 328.106 488.664 331.636 482.487 323.692C476.309 315.748 477.633 307.805 485.577 298.097C493.521 288.389 557.507 253.086 557.507 253.086Z" fill="#FFB7D6"/>
<path d="M513.855 731.09C513.855 731.09 506.767 744.79 502.041 749.52C497.315 754.24 487.607 763.63 488.553 766C489.498 768.36 534.004 766 534.004 766C534.004 766 537.722 767.65 536.539 756.6C535.983 751.43 535.593 732.98 535.593 732.98L513.855 731.09Z" fill="#517FC4"/>
<path d="M633.879 326.155C633.879 326.155 634.352 272.757 631.518 266.142L633.879 326.155Z" fill="white"/>
<path d="M255.399 753.44C255.399 747.04 250.21 741.85 243.81 741.85C237.41 741.85 232.221 747.04 232.221 753.44C232.221 759.84 237.41 765.03 243.81 765.03C250.21 765.03 255.399 759.85 255.399 753.44Z" fill="#517FC5"/>
<path d="M243.81 759.24C247.011 759.24 249.605 756.64 249.605 753.44C249.605 750.24 247.011 747.65 243.81 747.65C240.61 747.65 238.016 750.24 238.016 753.44C238.016 756.64 240.61 759.24 243.81 759.24Z" fill="white"/>
<path d="M379.524 753.44C379.524 747.04 374.335 741.85 367.935 741.85C361.535 741.85 356.346 747.04 356.346 753.44C356.346 759.84 361.535 765.03 367.935 765.03C374.335 765.03 379.524 759.85 379.524 753.44Z" fill="#517FC5"/>
<path d="M373.73 753.44C373.73 750.24 371.135 747.65 367.935 747.65C364.735 747.65 362.141 750.24 362.141 753.44C362.141 756.64 364.735 759.24 367.935 759.24C371.135 759.24 373.73 756.65 373.73 753.44Z" fill="white"/>
<path d="M408.496 765.03C414.896 765.03 420.085 759.84 420.085 753.44C420.085 747.04 414.896 741.85 408.496 741.85C402.095 741.85 396.906 747.04 396.906 753.44C396.906 759.84 402.095 765.03 408.496 765.03Z" fill="#517FC5"/>
<path d="M408.496 759.24C411.696 759.24 414.29 756.64 414.29 753.44C414.29 750.24 411.696 747.65 408.496 747.65C405.295 747.65 402.701 750.24 402.701 753.44C402.701 756.64 405.295 759.24 408.496 759.24Z" fill="white"/>
<path d="M349.969 740.19H325.457V571.435C325.457 571.385 325.497 571.345 325.547 571.345H349.879C349.929 571.345 349.969 571.385 349.969 571.435V740.19Z" fill="#517FC5"/>
<path d="M356.497 651.576H318.93V740.19H356.497V651.576Z" fill="#517FC5"/>
<path d="M312.601 550.333H281.266C281.216 550.333 281.176 550.293 281.176 550.243V482.816H312.691V550.243C312.691 550.293 312.651 550.333 312.601 550.333Z" fill="#517FC5"/>
<path d="M358.986 482.847H236.278C224.188 482.847 214.473 472.886 214.77 460.802L217.733 340.998C218.02 329.327 227.566 320.017 239.24 320.017H340.563C351.182 320.017 360.214 327.765 361.828 338.261L380.25 458.064C382.254 471.095 372.171 482.847 358.986 482.847Z" fill="#D0DCF8"/>
<path d="M318.893 575.721L265.055 611.177" stroke="#517FC5" stroke-miterlimit="10" stroke-linecap="round" stroke-linejoin="round"/>
<path d="M263.015 605.81L253.845 611.99C250.69 614.117 250.282 618.603 253 621.265L253.635 621.888C255.829 624.037 259.29 624.182 261.659 622.231L270.086 615.283C272.75 613.086 272.976 609.083 270.571 606.601C268.577 604.539 265.392 604.206 263.015 605.81Z" fill="#517FC5"/>
<path d="M438.334 581.848H237.093C226.91 581.848 218.656 573.594 218.656 563.411V561.77C218.656 551.587 226.91 543.33 237.093 543.33H438.334C448.517 543.33 456.772 551.584 456.772 561.767V563.409C456.772 573.594 448.517 581.848 438.334 581.848Z" fill="#D0DCF8"/>
<path d="M456.635 560.251C455.479 550.428 446.597 543.33 436.707 543.33H333.269C323.379 543.33 314.497 550.428 313.341 560.251C311.967 571.933 321.057 581.848 332.464 581.848H437.515C448.922 581.848 458.011 571.933 456.635 560.251Z" fill="#D0DCF8"/>
<path d="M423.806 747.2H232.158V746.7C232.158 741.18 236.634 736.71 242.154 736.71H413.811C419.33 736.71 423.806 741.18 423.806 746.7V747.2Z" fill="#517FC5"/>
<path d="M389.681 747.2H327.309V736.71H379.685C385.205 736.71 389.681 741.18 389.681 746.7V747.2Z" fill="#517FC5"/>
<path d="M526.99 459.238H368.158V465.648H526.99V459.238Z" fill="#1C056D"/>
<path d="M509.286 346.73H376.84V447.844H509.286V346.73Z" fill="#1C056D"/>
<path d="M514.764 346.73H382.318V447.844H514.764V346.73Z" fill="#6880E4"/>
<path d="M474.188 400.849H440.008V465.648H474.188V400.849Z" fill="#6880E4" stroke="#1C056D" stroke-miterlimit="10" stroke-linecap="round" stroke-linejoin="round"/>
<path d="M213.75 502.513L220.618 761.81C220.708 765.24 223.518 767.98 226.953 767.98C230.421 767.98 233.246 765.19 233.291 761.72L236.678 502.513H213.75Z" fill="#517FC5"/>
<path d="M297.521 502.513L304.388 761.81C304.479 765.24 307.288 767.98 310.724 767.98C314.191 767.98 317.016 765.19 317.061 761.72L320.449 502.513H297.521Z" fill="#517FC5"/>
<path d="M643.082 502.513L649.95 761.81C650.04 765.24 652.85 767.98 656.285 767.98C659.753 767.98 662.578 765.19 662.623 761.72L666.01 502.513H643.082Z" fill="#517FC5"/>
<path d="M726.852 502.513L733.72 761.81C733.81 765.24 736.619 767.98 740.055 767.98C743.522 767.98 746.347 765.19 746.392 761.72L749.78 502.513H726.852Z" fill="#517FC5"/>
<path d="M757.433 474.192H205.6V505.222H757.433V474.192Z" fill="#84B4FE"/>
<path d="M321.069 474.192H205.6V505.222H321.069V474.192Z" fill="#84B4FE"/>
<path d="M757.433 474.192H205.6V489.707H757.433V474.192Z" fill="#517FC5"/>
<path d="M763.841 463.512H199.189V480.603H763.841V463.512Z" fill="#84B4FE"/>
<path d="M763.841 463.512H328.738V480.603H763.841V463.512Z" fill="#84B4FE"/>
<path d="M79.3535 767.55H1085.16" stroke="#D4DFFF" stroke-miterlimit="10" stroke-linecap="round" stroke-linejoin="round"/>
<defs>
<linearGradient id="paint0_linear_679_2497" x1="855.516" y1="610.721" x2="1026.17" y2="610.721" gradientUnits="userSpaceOnUse">
<stop stop-color="#9942FF"/>
<stop offset="1" stop-color="#4D6DFF"/>
</linearGradient>
<linearGradient id="paint1_linear_679_2497" x1="989.561" y1="502.83" x2="1017.98" y2="502.83" gradientUnits="userSpaceOnUse">
<stop stop-color="#9942FF"/>
<stop offset="1" stop-color="#4D6DFF"/>
</linearGradient>
<linearGradient id="paint2_linear_679_2497" x1="899.477" y1="524.268" x2="920.082" y2="524.268" gradientUnits="userSpaceOnUse">
<stop stop-color="#9942FF"/>
<stop offset="1" stop-color="#4D6DFF"/>
</linearGradient>
<linearGradient id="paint3_linear_679_2497" x1="914.193" y1="313.692" x2="998.069" y2="313.692" gradientUnits="userSpaceOnUse">
<stop stop-color="#FB9004"/>
<stop offset="1" stop-color="#FC067D"/>
</linearGradient>
<linearGradient id="paint4_linear_679_2497" x1="931.307" y1="315.516" x2="956.63" y2="315.516" gradientUnits="userSpaceOnUse">
<stop stop-color="#FB9004"/>
<stop offset="1" stop-color="#FC067D"/>
</linearGradient>
<linearGradient id="paint5_linear_679_2497" x1="958.381" y1="319.621" x2="981.021" y2="319.621" gradientUnits="userSpaceOnUse">
<stop stop-color="#FB9004"/>
<stop offset="1" stop-color="#FC067D"/>
</linearGradient>
<linearGradient id="paint6_linear_679_2497" x1="962.59" y1="303.415" x2="976" y2="303.415" gradientUnits="userSpaceOnUse">
<stop stop-color="#FB9004"/>
<stop offset="1" stop-color="#FC067D"/>
</linearGradient>
<linearGradient id="paint7_linear_679_2497" x1="904.334" y1="123.538" x2="988.219" y2="123.538" gradientUnits="userSpaceOnUse">
<stop stop-color="#FB9004"/>
<stop offset="1" stop-color="#FC067D"/>
</linearGradient>
<linearGradient id="paint8_linear_679_2497" x1="933.725" y1="123.65" x2="958.33" y2="123.65" gradientUnits="userSpaceOnUse">
<stop stop-color="#FB9004"/>
<stop offset="1" stop-color="#FC067D"/>
</linearGradient>
<linearGradient id="paint9_linear_679_2497" x1="781.602" y1="197.28" x2="865.57" y2="197.28" gradientUnits="userSpaceOnUse">
<stop stop-color="#FB9004"/>
<stop offset="1" stop-color="#FC067D"/>
</linearGradient>
<linearGradient id="paint10_linear_679_2497" x1="800.176" y1="197.35" x2="847.153" y2="197.35" gradientUnits="userSpaceOnUse">
<stop stop-color="#FB9004"/>
<stop offset="1" stop-color="#FC067D"/>
</linearGradient>
<linearGradient id="paint11_linear_679_2497" x1="663.785" y1="122.996" x2="747.926" y2="122.996" gradientUnits="userSpaceOnUse">
<stop stop-color="#FB9004"/>
<stop offset="1" stop-color="#FC067D"/>
</linearGradient>
<linearGradient id="paint12_linear_679_2497" x1="684.645" y1="126.881" x2="693.768" y2="126.881" gradientUnits="userSpaceOnUse">
<stop stop-color="#FB9004"/>
<stop offset="1" stop-color="#FC067D"/>
</linearGradient>
<linearGradient id="paint13_linear_679_2497" x1="683.768" y1="102.846" x2="694.559" y2="102.846" gradientUnits="userSpaceOnUse">
<stop stop-color="#FB9004"/>
<stop offset="1" stop-color="#FC067D"/>
</linearGradient>
<linearGradient id="paint14_linear_679_2497" x1="699.602" y1="126.434" x2="727.959" y2="126.434" gradientUnits="userSpaceOnUse">
<stop stop-color="#FB9004"/>
<stop offset="1" stop-color="#FC067D"/>
</linearGradient>
<linearGradient id="paint15_linear_679_2497" x1="689.766" y1="313.338" x2="773.686" y2="313.338" gradientUnits="userSpaceOnUse">
<stop stop-color="#FB9004"/>
<stop offset="1" stop-color="#FC067D"/>
</linearGradient>
<linearGradient id="paint16_linear_679_2497" x1="707.58" y1="313.437" x2="755.919" y2="313.437" gradientUnits="userSpaceOnUse">
<stop stop-color="#FB9004"/>
<stop offset="1" stop-color="#FC067D"/>
</linearGradient>
<linearGradient id="paint17_linear_679_2497" x1="719.336" y1="313.44" x2="744.161" y2="313.44" gradientUnits="userSpaceOnUse">
<stop stop-color="#FB9004"/>
<stop offset="1" stop-color="#FC067D"/>
</linearGradient>
<linearGradient id="paint18_linear_679_2497" x1="741.754" y1="300.538" x2="747.554" y2="300.538" gradientUnits="userSpaceOnUse">
<stop stop-color="#FB9004"/>
<stop offset="1" stop-color="#FC067D"/>
</linearGradient>
</defs>
</svg>
