<svg width="1001" height="664" viewBox="0 0 1001 664" fill="none" xmlns="http://www.w3.org/2000/svg">
<path opacity="0.16" d="M663.099 7.4553C466.106 -26.2135 214.627 53.7424 216.024 255.737C-8.90793 309.039 -28.4675 484.38 24.6214 598H970.462C1083.63 251.528 860.087 41.1195 663.099 7.4553Z" fill="#B5A7E9"/>
<path d="M26.5401 349.925C35.1131 345.823 43.6456 373.116 43.6456 373.116C58.2162 392.37 78.5785 366.756 76.5883 395.537C73.1038 445.901 134.56 411.374 106.207 463.956C77.8532 516.539 131.241 493.689 113.621 536.087C96.0027 578.486 118.839 629.054 92.3293 608.275C92.3293 608.275 68.9851 557.083 44.9123 541.246C20.8394 525.409 59.3344 506.618 51.802 485.106C40.8611 453.862 14.5029 455.088 33.5075 421.513C52.5138 387.936 -2.60091 363.861 26.5401 349.925Z" fill="url(#paint0_linear_645_775)"/>
<path d="M100.727 589.009C89.236 580.928 75.787 524.608 74.9842 491.063C74.5727 473.878 69.4943 466.72 65.0114 460.404C60.7274 454.368 57.0287 449.153 59.1842 437.179C63.3028 414.302 52.4749 404.424 52.3652 404.326L53.6201 402.898C54.1008 403.319 65.3773 413.505 61.0563 437.515C59.0425 448.701 62.3617 453.379 66.563 459.301C70.9735 465.518 76.4617 473.249 76.8867 491.014C77.7469 527.016 91.4977 580.191 101.821 587.452L100.727 589.009Z" fill="white"/>
<path d="M105.025 593.181C103.542 593.181 101.932 593.013 100.166 592.653C95.7367 591.76 92.8324 589.422 91.5337 585.71C88.4354 576.85 95.6136 562.458 101.439 555.523C101.535 555.407 111.285 543.489 110.247 526.972C110.071 524.203 109.784 521.641 109.531 519.379C108.798 512.842 108.268 508.119 111.076 504.965C113.551 502.184 118.327 500.982 127.047 500.94C142.341 500.867 148.387 494.537 153.248 489.447C155.311 487.287 157.26 485.246 159.628 483.952C167.25 479.791 175.322 479.181 178.824 482.5C180.487 484.075 181.892 487.163 179.136 492.922C176.619 498.182 173.354 501.516 170.73 504.191C167.2 507.794 164.869 510.174 166.083 514.915C166.368 516.03 166.697 517.153 167.026 518.281C169.384 526.345 172.055 535.485 158.256 541.688C155.328 543.003 152.658 544.051 150.303 544.975C140.669 548.755 134.854 551.038 128.29 564.894C127.018 567.577 125.896 570.121 124.812 572.578C119.636 584.312 115.72 593.181 105.025 593.181ZM160.539 485.624C158.431 486.776 156.667 488.622 154.623 490.763C149.516 496.111 143.161 502.766 127.059 502.842C119.04 502.879 114.551 503.927 112.498 506.23C110.253 508.752 110.744 513.122 111.422 519.168C111.677 521.452 111.967 524.039 112.144 526.853C113.233 544.152 103.32 556.238 102.898 556.744C97.1315 563.61 90.601 577.278 93.3299 585.086C94.3908 588.122 96.8178 590.043 100.544 590.795C113.542 593.423 117.13 585.29 123.075 571.816C124.164 569.346 125.291 566.791 126.573 564.086C133.461 549.547 139.885 547.028 149.612 543.211C151.946 542.293 154.591 541.256 157.478 539.957C169.77 534.434 167.552 526.849 165.204 518.819C164.867 517.669 164.533 516.525 164.243 515.392C162.764 509.612 165.682 506.635 169.375 502.866C172.032 500.154 175.042 497.082 177.424 492.105C178.672 489.496 179.701 485.952 177.518 483.883C174.644 481.159 167.345 481.908 160.539 485.624Z" fill="url(#paint1_linear_645_775)"/>
<path d="M100.37 604.154L98.4727 604.053C98.5654 602.27 100.96 560.24 117.835 547.94C136.35 534.446 142.186 519.943 144.965 510.209C148.241 498.739 164.915 495.672 165.623 495.548L165.953 497.418C165.792 497.448 149.742 500.405 146.794 510.73C143.937 520.735 137.942 535.638 118.955 549.478C102.804 561.249 100.392 603.726 100.37 604.154Z" fill="url(#paint2_linear_645_775)"/>
<path d="M138.956 392.339C126.962 388.226 129.453 411.344 124.385 428.45C119.317 445.555 68.0021 435.911 89.5416 478.742C111.081 521.577 62.3014 493.067 76.8719 530.443C91.4424 567.822 78.1368 607.796 93.9757 597.627C109.815 587.46 102.874 540.391 119.346 534.8C135.817 529.207 138.505 522.682 122.196 507.479C105.888 492.274 164.929 477.18 150.359 446.479C135.788 415.78 152.814 397.091 138.956 392.339Z" fill="url(#paint3_linear_645_775)"/>
<path d="M101.324 595.839C99.816 589.441 86.9337 533.13 98.9524 526.323C109.548 520.324 109.286 496.99 107.632 474.956C106.169 455.45 131.219 446.334 132.286 445.956L132.922 447.749C132.674 447.837 108.173 456.761 109.527 474.816C111.224 497.443 111.406 521.455 99.8885 527.979C90.7606 533.149 99.1632 578.403 103.172 595.406L101.324 595.839Z" fill="white"/>
<path d="M128.591 575.787L111.465 640.757H73.1943L56.0703 575.787H128.591Z" fill="#3B4971"/>
<path d="M783.574 567.903H614.483H445.393L421.205 658.301H614.483H807.762L783.574 567.903Z" fill="#D4CCF3"/>
<path d="M448.054 591.911H470.183C471.107 591.911 471.805 592.63 471.631 593.406L469.489 603.031C469.356 603.627 468.749 604.055 468.039 604.055H445.533C444.589 604.055 443.887 603.309 444.093 602.522L446.614 592.896C446.766 592.32 447.365 591.911 448.054 591.911Z" fill="white"/>
<path d="M480.33 591.911H497.058L494.832 604.055H477.785L480.33 591.911Z" fill="white"/>
<path d="M505.423 591.911H522.15L520.4 604.055L503.352 604.072L505.423 591.911Z" fill="white"/>
<path d="M530.512 591.911H547.24L545.968 604.055H528.922L530.512 591.911Z" fill="white"/>
<path d="M555.605 591.911H572.335L571.539 604.055H554.492L555.605 591.911Z" fill="white"/>
<path d="M580.698 591.911H597.428L597.109 604.055L580.062 604.072L580.698 591.911Z" fill="white"/>
<path d="M781.488 591.911H756.398L759.1 604.055H784.669L781.488 591.911Z" fill="white"/>
<path d="M748.034 591.911H731.305L733.531 604.055H750.577L748.034 591.911Z" fill="white"/>
<path d="M722.941 591.911H706.215L707.964 604.055L725.01 604.072L722.941 591.911Z" fill="white"/>
<path d="M697.852 591.911H681.123L682.395 604.055H699.441L697.852 591.911Z" fill="white"/>
<path d="M672.759 591.911H656.031L656.827 604.055H673.87L672.759 591.911Z" fill="white"/>
<path d="M647.663 591.911H630.936L631.253 604.055L648.301 604.072L647.663 591.911Z" fill="white"/>
<path d="M605.789 591.911H622.517L622.795 604.055H605.789V591.911Z" fill="white"/>
<path d="M440.694 613.102H475.649L473.659 625.628H438.041L440.694 613.102Z" fill="white"/>
<path d="M786.949 613.102H743.742L746.203 625.628H790.23L786.949 613.102Z" fill="white"/>
<path d="M735.099 613.102H717.816L719.785 625.628H737.396L735.099 613.102Z" fill="white"/>
<path d="M709.173 613.102H691.887L693.364 625.628H710.976L709.173 613.102Z" fill="white"/>
<path d="M683.245 613.102H665.961L666.946 625.628H684.557L683.245 613.102Z" fill="white"/>
<path d="M657.324 613.102H640.041L640.533 625.628H658.145L657.324 613.102Z" fill="white"/>
<path d="M435.473 635.429H471.209L468.602 647.871H432.215L435.473 635.429Z" fill="white"/>
<path d="M480.143 635.429H498.011L495.894 647.871H477.699L480.143 635.429Z" fill="white"/>
<path d="M506.949 635.429H524.815H640.946L641.445 647.871H504.992L506.949 635.429Z" fill="white"/>
<path d="M649.891 635.429H667.758L668.737 647.871H650.543L649.891 635.429Z" fill="white"/>
<path d="M676.693 635.429H694.56L696.029 647.871H677.834L676.693 635.429Z" fill="white"/>
<path d="M703.492 635.429H721.36L723.315 647.871H705.123L703.492 635.429Z" fill="white"/>
<path d="M730.293 635.429H748.161L750.606 647.871H732.411L730.293 635.429Z" fill="white"/>
<path d="M757.1 635.429H792.834L796.094 647.871H759.704L757.1 635.429Z" fill="white"/>
<path d="M631.438 613.102H614.295V625.628H631.766L631.438 613.102Z" fill="white"/>
<path d="M605.513 613.102H588.231L587.738 625.628H605.35L605.513 613.102Z" fill="white"/>
<path d="M579.588 613.102H562.306L561.322 625.628H578.932L579.588 613.102Z" fill="white"/>
<path d="M553.662 613.102H536.38L534.902 625.628H552.514L553.662 613.102Z" fill="white"/>
<path d="M527.737 613.102H510.455L508.486 625.628H526.098L527.737 613.102Z" fill="white"/>
<path d="M501.815 613.102H484.531L482.07 625.628H499.682L501.815 613.102Z" fill="white"/>
<path d="M448.871 584.28L451.711 573.438H459.834L457.183 584.28H448.871Z" fill="white"/>
<path d="M467.957 573.438H484.199L481.929 584.28H465.4L467.957 573.438Z" fill="white"/>
<path d="M492.322 573.438H508.567L506.72 584.28H490.191L492.322 573.438Z" fill="white"/>
<path d="M516.69 573.438H532.933L531.515 584.28H514.986L516.69 573.438Z" fill="white"/>
<path d="M541.056 573.438H557.301L556.306 584.28H539.777L541.056 573.438Z" fill="white"/>
<path d="M565.422 573.438H581.666L581.097 584.28H564.57L565.422 573.438Z" fill="white"/>
<path d="M589.785 573.438H606.03L605.888 584.28H589.361L589.785 573.438Z" fill="white"/>
<path d="M614.154 573.438H630.398L630.683 584.28H614.154V573.438Z" fill="white"/>
<path d="M638.52 573.438H654.767L655.475 584.28H638.948L638.52 573.438Z" fill="white"/>
<path d="M662.887 573.438H679.132L680.269 584.28H663.74L662.887 573.438Z" fill="white"/>
<path d="M687.25 573.438H703.494L705.055 584.28H688.53L687.25 573.438Z" fill="white"/>
<path d="M711.619 573.438H727.863L729.85 584.28H713.321L711.619 573.438Z" fill="white"/>
<path d="M735.982 573.438H752.228L754.64 584.28H738.114L735.982 573.438Z" fill="white"/>
<path d="M760.35 573.438H776.593L779.435 584.28H762.905L760.35 573.438Z" fill="white"/>
<path d="M807.762 658.301H421.205V663.636H807.762V658.301Z" fill="#A393E4"/>
<path d="M589.04 538.029H642.24V376.443H589.04V538.029Z" fill="#214A81"/>
<path d="M402.117 454.282H829.158C838.087 454.282 845.328 447.043 845.328 438.112V146.383C845.328 137.452 838.087 130.213 829.158 130.213H402.117C393.186 130.213 385.947 137.452 385.947 146.383V438.112C385.947 447.043 393.186 454.282 402.117 454.282Z" fill="#6880E4"/>
<path d="M402.189 395.377H828.278V146.086H402.189V395.377Z" fill="#EEEEFD"/>
<path d="M600.822 426.734C600.822 434.919 607.456 441.554 615.641 441.554C623.824 441.554 630.459 434.918 630.459 426.734C630.459 418.551 623.824 411.918 615.641 411.918C607.456 411.918 600.822 418.551 600.822 426.734Z" fill="#EEEEFD"/>
<path d="M735.306 531.931H495.969V544.13H735.306V531.931Z" fill="#D4CCF3"/>
<path d="M474.398 165.173H426.678V170.061H474.398V165.173Z" fill="#E0E0E0"/>
<path d="M522.209 201.966H487.754V206.852H522.209V201.966Z" fill="#E0E0E0"/>
<path d="M550.44 201.966H527.576V206.852H550.44V201.966Z" fill="#1487E3"/>
<path d="M597.151 349.679H574.287V354.566H597.151V349.679Z" fill="#1487E3"/>
<path d="M450.08 294.491H427.217V299.376H450.08V294.491Z" fill="#1487E3"/>
<path d="M610.159 201.966H554.957V206.852H610.159V201.966Z" fill="#E0E0E0"/>
<path d="M462.689 275.961H427.217V280.843H462.689V275.961Z" fill="#E0E0E0"/>
<path d="M558.006 312.887H522.533V317.773H558.006V312.887Z" fill="#E0E0E0"/>
<path d="M690.508 349.679H655.035V354.566H690.508V349.679Z" fill="#E0E0E0"/>
<path d="M498.32 312.887H476.666V317.773H498.32V312.887Z" fill="#E0E0E0"/>
<path d="M470.121 312.887H427.217V317.773H470.121V312.887Z" fill="#1487E3"/>
<path d="M450.88 331.283H427.217V336.171H450.88V331.283Z" fill="#E0E0E0"/>
<path d="M517.559 165.173H483.682V170.061H517.559V165.173Z" fill="#78C2FF"/>
<path d="M517.559 220.362H483.682V225.25H517.559V220.362Z" fill="#1487E3"/>
<path d="M481.219 238.759H466.744V243.646H481.219V238.759Z" fill="#E0E0E0"/>
<path d="M484.78 257.427H452.27V262.313H484.78V257.427Z" fill="#78C2FF"/>
<path d="M534.577 257.427H489.693V262.313H534.577V257.427Z" fill="#1487E3"/>
<path d="M676.716 331.283H631.834V336.171H676.716V331.283Z" fill="#1487E3"/>
<path d="M461.094 238.894H427.217V243.781H461.094V238.894Z" fill="#1487E3"/>
<path d="M447.318 257.427H427.217V262.313H447.318V257.427Z" fill="#1487E3"/>
<path d="M507.007 238.894H488.043V243.781H507.007V238.894Z" fill="#FF8761"/>
<path d="M446.749 349.679H427.785V354.566H446.749V349.679Z" fill="#FF8761"/>
<path d="M460.959 201.966H427.082V206.852H460.959V201.966Z" fill="#78C2FF"/>
<path d="M490.92 294.491H457.043V299.376H490.92V294.491Z" fill="#78C2FF"/>
<path d="M491.334 331.283H457.457V336.171H491.334V331.283Z" fill="#78C2FF"/>
<path d="M551.52 331.283H517.643V336.171H551.52V331.283Z" fill="#78C2FF"/>
<path d="M475.374 220.362H427.082V225.25H475.374V220.362Z" fill="#78C2FF"/>
<path d="M687.258 165.173H653.381V170.061H687.258V165.173Z" fill="#78C2FF"/>
<path d="M566.57 349.679H532.693V354.566H566.57V349.679Z" fill="#78C2FF"/>
<path d="M720.473 165.173H697.797V170.061H720.473V165.173Z" fill="#78C2FF"/>
<path d="M797.198 183.571H774.521V188.455H797.198V183.571Z" fill="#78C2FF"/>
<path d="M569.84 165.173H526.68V170.061H569.84V165.173Z" fill="#1487E3"/>
<path d="M740.959 349.679H697.797V354.566H740.959V349.679Z" fill="#1487E3"/>
<path d="M497.07 349.679H453.91V354.566H497.07V349.679Z" fill="#1487E3"/>
<path d="M738.008 183.571H694.848V188.455H738.008V183.571Z" fill="#1487E3"/>
<path d="M685.076 201.966H641.914V206.852H685.076V201.966Z" fill="#1487E3"/>
<path d="M647.568 349.679H604.408V354.566H647.568V349.679Z" fill="#1487E3"/>
<path d="M640.929 312.887H597.768V317.773H640.929V312.887Z" fill="#1487E3"/>
<path d="M514.401 312.887H505.098V317.773H514.401V312.887Z" fill="#FF8761"/>
<path d="M742.901 215.522L697.279 211.034L696.801 215.897L742.423 220.385L742.901 215.522Z" fill="#78C2FF"/>
<path d="M644.924 165.173H601.764V170.061H644.924V165.173Z" fill="#FF8761"/>
<path d="M558.001 294.763H532.693V299.647H558.001V294.763Z" fill="#FF8761"/>
<path d="M593.621 165.173H577.822V170.061H593.621V165.173Z" fill="#E0E0E0"/>
<path d="M542.478 220.362H526.68V225.25H542.478V220.362Z" fill="#E0E0E0"/>
<path d="M764.216 183.571H748.418V188.455H764.216V183.571Z" fill="#E0E0E0"/>
<path d="M451.393 183.571H426.678V188.455H451.393V183.571Z" fill="#1487E3"/>
<path d="M512.139 276.096H492.625V280.98H512.139V276.096Z" fill="#1487E3"/>
<path d="M465.438 183.571H457.457V188.455H465.438V183.571Z" fill="#1487E3"/>
<path d="M687.256 183.571H621.293V188.455H687.256V183.571Z" fill="#E0E0E0"/>
<path d="M623.965 331.283H558.004V336.171H623.965V331.283Z" fill="#E0E0E0"/>
<path d="M479.447 183.571H471.303V188.455H479.447V183.571Z" fill="#FF8761"/>
<path d="M615.199 183.571H593.617V188.455H615.199V183.571Z" fill="#1487E3"/>
<path d="M636.781 201.966H615.201V206.852H636.781V201.966Z" fill="#FF8761"/>
<path d="M588.609 312.887H567.029V317.773H588.609V312.887Z" fill="#FF8761"/>
<path d="M525.812 349.679H504.232V354.566H525.812V349.679Z" fill="#FF8761"/>
<path d="M587.904 183.571H541.986V188.455H587.904V183.571Z" fill="#1487E3"/>
<path d="M694.746 312.887H648.828V317.773H694.746V312.887Z" fill="#1487E3"/>
<path d="M526.079 294.763H499.252V299.647H526.079V294.763Z" fill="#1487E3"/>
<path d="M510.939 331.283H497.525V336.171H510.939V331.283Z" fill="#1487E3"/>
<path d="M535.476 183.571H519.678V188.455H535.476V183.571Z" fill="#78C2FF"/>
<path d="M698.4 331.283H682.604V336.171H698.4V331.283Z" fill="#FF8761"/>
<path d="M482.298 201.966H466.5V206.852H482.298V201.966Z" fill="#FF8761"/>
<path d="M485.447 276.096H469.648V280.98H485.447V276.096Z" fill="#FF8761"/>
<path d="M513.648 183.571H486.123V188.455H513.648V183.571Z" fill="#1487E3"/>
<path d="M420.631 368.742C420.624 368.739 420.619 368.737 420.609 368.739C420.697 368.779 420.708 368.782 420.631 368.742Z" fill="#323657"/>
<path d="M823.258 453.661C823.258 453.661 824.742 459.49 824.944 460.369C825.147 461.247 834.286 458.83 834.286 458.83L834.278 451.699C834.278 451.699 824.332 452.7 823.258 453.661Z" fill="#5C544D"/>
<path d="M824.763 459.625C824.763 459.625 822.205 463.511 819.526 465.373C816.848 467.235 806.507 469.643 804.998 471.436C803.908 472.729 802.392 477.624 818.985 475.389C830.771 473.802 836.588 474.202 837.647 472.148C838.706 470.093 834.286 458.193 834.286 458.193C834.286 458.193 831.763 459.564 824.763 459.625Z" fill="#3C4145"/>
<path d="M821.314 619.556L788.197 282.124L792.372 281.721L825.488 619.153L821.314 619.556Z" fill="#214A81"/>
<path d="M859.88 275.133L855.705 275.543L888.831 612.969L893.005 612.559L859.88 275.133Z" fill="#214A81"/>
<path d="M858.325 281.082L790.811 287.635L791.216 291.808L858.73 285.255L858.325 281.082Z" fill="#214A81"/>
<path d="M861.424 312.505L793.902 319.024L794.305 323.199L861.827 316.681L861.424 312.505Z" fill="#214A81"/>
<path d="M864.472 343.792L796.957 350.351L797.363 354.526L864.877 347.967L864.472 343.792Z" fill="#214A81"/>
<path d="M867.533 375.281L800.012 381.807L800.415 385.98L867.936 379.455L867.533 375.281Z" fill="#214A81"/>
<path d="M870.575 406.604L803.062 413.184L803.469 417.358L870.982 410.779L870.575 406.604Z" fill="#214A81"/>
<path d="M873.577 438.023L806.064 444.575L806.47 448.75L873.982 442.197L873.577 438.023Z" fill="#214A81"/>
<path d="M876.62 469.419L809.107 475.971L809.512 480.144L877.025 473.592L876.62 469.419Z" fill="#214A81"/>
<path d="M879.691 500.782L812.178 507.335L812.583 511.51L880.096 504.957L879.691 500.782Z" fill="#214A81"/>
<path d="M882.718 532.206L815.203 538.758L815.608 542.931L883.123 536.379L882.718 532.206Z" fill="#214A81"/>
<path d="M885.788 563.61L818.275 570.19L818.682 574.363L886.195 567.784L885.788 563.61Z" fill="#214A81"/>
<path d="M888.829 594.961L821.314 601.514L821.72 605.689L889.234 599.136L888.829 594.961Z" fill="#214A81"/>
<path d="M811.979 330.935C811.979 330.935 805.329 355.631 803.574 364.46C802.048 372.153 798.973 392.636 798.538 397.507C798.101 402.378 818.17 449.522 820.258 458.038L838.543 455.103C838.543 455.103 819.253 406.035 824.284 395.132C831.768 378.916 832.744 379.405 838.639 366.047C844.534 352.688 858.033 352.372 861.656 327.586C861.656 327.586 816.885 323.076 811.979 330.935Z" fill="#3C4145"/>
<path d="M844.482 210.948C844.482 210.948 832.342 206.414 826.742 215.655C821.146 224.897 821.684 243.399 827.805 245.673C833.924 247.948 843.118 246.759 846.251 240.976C849.385 235.194 852.212 226.834 852.077 221.246C851.94 215.66 847.671 212.562 844.482 210.948Z" fill="#EEA886"/>
<path d="M829.858 245.106C829.858 245.106 830.349 248.29 829.539 249.857C828.728 251.424 844.81 251.466 844.81 251.466C844.81 251.466 846.115 242.939 848.591 235.734C851.066 228.528 829.858 245.106 829.858 245.106Z" fill="#EEA886"/>
<path d="M848.59 235.734C848.59 235.734 847.48 237.564 842.948 236.855C838.416 236.144 832.889 230.117 830.999 229.455C829.108 228.792 829.089 227.682 829.089 227.682L827.904 229.412L825.897 229.539C825.897 229.539 827.728 224.147 824.964 221.949C822.198 219.75 827.833 204.496 842.363 209.575C842.363 209.575 853.522 212.651 853.117 218.998C852.71 225.343 851.086 232.571 848.59 235.734Z" fill="#3A3F47"/>
<path d="M829.394 225.373C829.646 224.309 832.355 221.266 833.391 224.523C834.428 227.78 831.824 232.162 830.373 231.787C828.923 231.411 828.749 228.072 829.394 225.373Z" fill="#EEA886"/>
<path d="M875.69 291.526C875.556 293.119 873.738 294.842 872.499 295.694C871.703 296.239 870.751 296.569 869.729 296.603L869.007 296.628L856.39 297.058C856.39 297.058 847.011 266.744 864.605 255.184C865.15 255.236 876.912 276.915 875.69 291.526Z" fill="#8F80C7"/>
<path d="M837.633 472.148C836.572 474.204 830.757 473.804 818.969 475.388C815.748 475.823 813.21 475.99 811.218 475.961L810.531 468.871C813.979 467.671 817.988 466.435 819.512 465.374C822.192 463.512 824.749 459.626 824.749 459.626C831.749 459.567 834.272 458.193 834.272 458.193C834.272 458.193 838.692 470.093 837.633 472.148Z" fill="#3C4145"/>
<path d="M829.846 248.933C829.846 248.933 839.744 246.629 845.325 248.513L846.168 249.292C846.168 249.292 847.863 252.544 841.481 252.824C835.096 253.102 825.059 253.568 829.846 248.933Z" fill="#FFD255"/>
<path d="M868.537 480.921C868.537 480.921 870.021 486.748 870.224 487.629C870.426 488.506 879.564 486.089 879.564 486.089L879.556 478.958C879.556 478.958 869.611 479.962 868.537 480.921Z" fill="#5C544D"/>
<path d="M861.652 327.586C861.652 327.586 864.985 341.332 865.971 355.093C866.884 367.811 868.543 381.759 869.862 395.062C871.333 409.889 875.529 433.86 875.749 441.791C875.968 449.723 882.643 484.389 882.643 484.389L865.567 486.351C865.567 486.351 854.47 425.092 851.849 418.829C849.229 412.569 836.233 367.926 835.796 362.917C835.358 357.906 861.652 327.586 861.652 327.586Z" fill="#3C4145"/>
<path d="M870.034 486.885C870.034 486.885 867.474 490.769 864.797 492.631C862.117 494.493 851.777 496.904 850.267 498.695C849.178 499.988 847.662 504.883 864.254 502.648C876.04 501.061 881.859 501.463 882.917 499.407C883.976 497.352 879.555 485.45 879.555 485.45C879.555 485.45 877.034 486.823 870.034 486.885Z" fill="#3C4145"/>
<path d="M808.524 361.782C807.07 361.574 812.135 318.215 811.747 315.496C811.489 313.683 811.529 299.592 811.635 290.808L810.052 281.918C809.17 281.275 807.986 280.533 806.572 279.717C804.37 278.445 801.609 276.993 798.539 275.46C798.895 273.36 799.143 271.707 799.239 270.741C800.005 262.932 805.248 258.793 808.222 257.052C809.436 256.342 810.271 256.03 810.271 256.03C811.401 255.55 812.511 255.087 813.587 254.644C820.75 251.696 829.846 248.931 829.846 248.931H844.458C844.458 248.931 855.583 251.154 862.213 253.866C863.063 254.216 863.859 254.659 864.608 255.18L862.621 296.841C862.62 296.851 862.62 296.859 862.618 296.87C862.616 296.883 862.613 296.9 862.61 296.922C861.716 302.786 860.775 309.7 860.461 314.545C860.333 316.525 862.596 327.152 863.778 336.909L867.911 360.255C867.911 360.255 865.521 369.931 808.524 361.782Z" fill="#8F80C7"/>
<path d="M733.925 226.663C733.925 226.663 734.788 227.733 735.392 228.016C735.392 228.016 736.534 228.446 737.325 228.802C737.574 228.915 737.79 229.019 737.923 229.102C738.478 229.445 739.591 230.364 741.155 230.812C742.715 231.263 749.775 232.87 749.775 232.87L751.416 228.682L752.593 225.299C752.593 225.299 746.06 216.832 744.653 216.247C744.515 216.19 744.376 216.139 744.243 216.102C743.005 215.721 741.922 215.957 741.249 215.83C741.001 215.785 738.514 215.506 737.976 216.024C737.227 216.744 737.001 217.547 737.129 218.247C737.129 218.247 735.726 219.723 735.625 221.091C735.625 221.091 734.284 222.41 734.643 224.147C734.643 224.147 733.437 225.636 733.925 226.663Z" fill="#EEA886"/>
<path d="M809.582 281.586C807.951 280.535 805.839 279.113 798.538 275.46C784.942 268.658 768.157 256.327 764.966 254.546C760.06 251.807 744.555 232.867 744.555 232.867C745.356 230.014 752.704 224.288 752.704 224.288C752.704 224.288 776.207 246.548 781.343 249.289C785.758 251.643 807.574 254.025 813.584 254.642C814.56 254.742 815.119 254.797 815.119 254.797C821.398 263.36 813.085 283.842 809.582 281.586Z" fill="#8F80C7"/>
<path d="M231.923 421.653C157.395 382.164 64.5181 589.437 195.387 654.923C196.645 655.552 312.348 655.097 344.36 654.959C350.064 654.937 355.594 652.85 359.792 648.984C391.248 619.999 396.328 567.903 396.328 567.903C396.328 567.903 372.215 501.36 369.294 498.432C366.369 495.513 231.923 421.653 231.923 421.653Z" fill="#D0DCF8"/>
<path d="M244.197 514.573C244.197 517.409 243.063 531.3 249.58 531.3C256.097 531.3 261.76 532.858 263.317 536.544C264.874 540.23 266.293 546.183 263.602 546.891C260.91 547.599 259.496 541.646 258.784 539.945C258.077 538.245 254.678 537.817 254.678 537.817C254.678 537.817 257.934 541.219 258.361 544.197C258.788 547.176 258.926 551.57 256.235 550.72C252.551 552.42 248.725 550.435 248.725 550.435C246.034 549.727 245.042 544.482 238.245 545.19C231.447 545.898 225.922 544.625 225.215 536.117C224.507 527.613 225.215 517.262 225.215 517.262L244.197 514.573Z" fill="#FFB7D6"/>
<path d="M357.902 624.975L360.134 637.96C357.452 645.117 358.692 654.163 358.692 654.163L411.822 653.956C406.031 643.219 381.101 642.525 378.455 637.386C375.81 632.247 374.584 616.973 374.584 616.973L357.902 624.975Z" fill="#FFB7D6"/>
<path d="M369.901 638.599C369.809 636.738 371.15 630.032 375.959 628.014C376.574 631.672 377.401 635.331 378.457 637.381C381.103 642.52 406.033 643.219 411.824 653.952L358.694 654.158C358.694 654.158 357.454 645.117 360.137 637.956C360.137 637.96 369.749 641.959 369.901 638.599Z" fill="#517FC4"/>
<path d="M410.391 651.906C410.947 652.545 411.434 653.225 411.829 653.951L358.699 654.158C358.699 654.158 358.589 653.359 358.506 652.053L410.391 651.906Z" fill="#517FC4"/>
<path d="M374.594 639.955C374.713 639.951 374.823 639.872 374.869 639.753C374.878 639.73 375.659 637.56 377.202 636.871C377.841 636.586 378.534 636.6 379.26 636.903C379.416 636.968 379.595 636.894 379.66 636.738C379.724 636.581 379.65 636.402 379.494 636.338C378.603 635.966 377.744 635.961 376.95 636.315C375.163 637.11 374.327 639.45 374.29 639.551C374.235 639.712 374.318 639.886 374.479 639.941C374.52 639.951 374.557 639.955 374.594 639.955Z" fill="#517FC4"/>
<path d="M379.637 643.458C379.756 643.453 379.866 643.375 379.912 643.256C379.921 643.233 380.702 641.063 382.245 640.374C382.884 640.089 383.577 640.098 384.303 640.406C384.459 640.47 384.638 640.397 384.702 640.24C384.767 640.084 384.693 639.905 384.537 639.84C383.646 639.468 382.792 639.459 381.993 639.817C380.206 640.613 379.37 642.952 379.333 643.053C379.278 643.214 379.361 643.389 379.522 643.444C379.558 643.458 379.595 643.462 379.637 643.458Z" fill="#517FC4"/>
<path d="M387.885 645.77C388.004 645.765 388.114 645.687 388.16 645.568C388.169 645.545 388.95 643.375 390.493 642.686C391.132 642.401 391.825 642.414 392.551 642.718C392.707 642.782 392.886 642.708 392.951 642.552C393.015 642.396 392.941 642.217 392.785 642.152C391.894 641.78 391.035 641.775 390.241 642.129C388.454 642.925 387.618 645.264 387.582 645.365C387.526 645.526 387.609 645.701 387.77 645.756C387.807 645.765 387.848 645.77 387.885 645.77Z" fill="#517FC4"/>
<path d="M322.814 482.554L325.96 493.581C357.632 498.21 403.074 505.297 405.733 523.012C408.387 540.732 384.192 588.866 384.192 588.866L382.718 627.255H354.095L336.983 548.408C336.983 548.408 269.702 551.359 263.8 533.644C257.898 515.924 257.311 496.137 257.311 496.137L295.376 471.923L322.814 482.554Z" fill="#3A376B"/>
<path d="M383.408 586.88C383.412 586.88 383.412 586.88 383.417 586.88C383.624 586.875 383.789 586.701 383.784 586.494C383.729 584.127 382.338 528.399 376.454 518.581C370.52 508.685 312.531 503.27 310.065 503.045C309.853 503.027 309.674 503.179 309.656 503.385C309.637 503.592 309.789 503.776 309.996 503.794C310.597 503.85 370.07 509.402 375.807 518.967C381.589 528.615 383.017 585.929 383.031 586.508C383.036 586.719 383.201 586.88 383.408 586.88Z" fill="#27254D"/>
<path d="M274.572 516.154C274.613 516.154 274.65 516.15 274.691 516.136C276.193 515.635 277.97 513.603 279.008 511.195C279.909 509.103 281.075 504.852 278.751 499.823C278.664 499.635 278.439 499.552 278.251 499.639C278.062 499.727 277.98 499.952 278.067 500.14C280.271 504.902 279.169 508.924 278.319 510.896C277.249 513.378 275.564 515.051 274.457 515.423C274.259 515.488 274.154 515.704 274.218 515.901C274.264 516.053 274.411 516.154 274.572 516.154Z" fill="#E0C9C0"/>
<path d="M362.353 626.455C362.367 626.455 362.376 626.455 362.39 626.455C362.597 626.437 362.748 626.253 362.73 626.042C361.945 617.814 354.917 545.59 350.71 543.636C349.544 543.094 348.91 542.565 348.768 542.023C348.589 541.32 349.204 540.474 349.989 539.399C350.361 538.888 350.789 538.305 351.17 537.675C351.289 537.477 351.298 537.252 351.197 537.045C350.242 535.073 334.139 532.872 309.687 529.737C299.436 528.422 290.581 527.287 286.59 526.478C275.475 524.226 268.007 515.115 268.007 503.813C268.007 503.606 267.837 503.436 267.631 503.436C267.424 503.436 267.254 503.606 267.254 503.813C267.254 515.304 275.144 524.929 286.443 527.218C290.457 528.031 299.326 529.167 309.591 530.486C325.427 532.518 349.291 535.574 350.49 537.335C350.136 537.918 349.751 538.447 349.379 538.957C348.51 540.143 347.762 541.164 348.033 542.212C348.235 542.998 348.984 543.669 350.389 544.321C353.278 545.663 358.899 593.972 361.977 626.115C361.995 626.308 362.16 626.455 362.353 626.455Z" fill="#27254D"/>
<path d="M312.843 400.604C327.761 405.894 341.172 426.119 344.759 433.115C348.346 440.106 367.852 449.772 367.852 449.772C367.852 449.772 361.376 459.2 361.188 460.523C351.556 468.085 342.113 481.313 320.963 472.621C299.813 463.92 312.843 400.604 312.843 400.604Z" fill="#8F80C7"/>
<path d="M298.968 398.149C300.383 397.772 312.848 400.609 312.848 400.609C328.146 413.083 326.066 447.102 324.936 459.958C323.802 472.81 332.491 487.55 332.491 487.55C304.539 515.525 256.948 520.815 256.948 520.815C249.016 503.05 241.085 419.509 244.86 413.083C248.635 406.657 274.888 398.154 274.888 398.154H298.968V398.149Z" fill="#B5A7E9"/>
<path d="M301.703 364.315C304.96 362.187 302.268 357.793 302.695 357.655C306.801 353.26 298.727 346.738 296.748 346.738C294.764 346.738 295.898 349.432 293.349 348.439C290.8 347.446 279.042 346.311 278.05 353.968C273.095 354.819 277.003 373.071 277.003 373.071C277.003 373.071 286.267 376.79 286.974 376.509C287.681 376.224 301.703 364.315 301.703 364.315Z" fill="#181670"/>
<path d="M279.707 356L284.428 359.59C283.105 360.629 283.202 362.706 283.294 364.692C283.39 366.677 282.729 369.132 279.798 368.852C278.191 371.591 279.045 379.249 279.045 379.249L274.889 398.149C278.664 405.237 297.081 410.247 298.969 398.149C295.382 394.84 295.855 389.361 295.855 389.361C303.41 387.187 303.599 365.262 301.614 358.459C298.592 360.348 293.967 358.363 292.268 357.324C290.569 356.285 287.17 359.498 285.374 358.836C283.578 358.174 279.707 356 279.707 356Z" fill="#FFB7D6"/>
<path d="M277.559 378.026C279.511 377.565 280.721 375.607 280.26 373.653C279.798 371.698 277.842 370.488 275.889 370.95C273.936 371.411 272.727 373.369 273.188 375.324C273.649 377.278 275.606 378.488 277.559 378.026Z" fill="#F1A1C3"/>
<path d="M248.308 409.677C256.713 416.2 266.578 430.375 258.647 457.306C250.715 484.241 251.28 529.599 251.28 529.599L222.386 530.734C216.718 488.208 221.821 424.041 248.308 409.677Z" fill="#8F80C7"/>
<path d="M253.476 537.316C253.586 537.316 253.692 537.247 253.733 537.137C253.783 536.995 253.71 536.838 253.572 536.788L248.685 535.018C248.543 534.968 248.387 535.041 248.336 535.179C248.286 535.321 248.359 535.478 248.497 535.528L253.384 537.298C253.416 537.307 253.444 537.316 253.476 537.316Z" fill="#C57195"/>
<path d="M255.882 550.072C255.91 550.072 255.942 550.067 255.97 550.058C256.112 550.012 256.19 549.855 256.14 549.713C256.052 549.451 253.99 543.278 253.053 542.051C252.112 540.819 246.674 538.847 246.058 538.631C245.916 538.58 245.76 538.654 245.709 538.796C245.659 538.939 245.732 539.095 245.875 539.146C247.51 539.729 251.905 541.449 252.622 542.386C253.503 543.54 255.602 549.828 255.625 549.892C255.667 549.998 255.772 550.072 255.882 550.072Z" fill="#C57195"/>
<path d="M251.917 549.079C251.954 549.079 251.986 549.07 252.023 549.056C252.161 548.996 252.225 548.84 252.165 548.702C251.32 546.702 248.689 543.659 245.947 543.154C245.8 543.126 245.657 543.223 245.63 543.37C245.602 543.517 245.699 543.659 245.846 543.687C248.367 544.151 250.889 547.07 251.665 548.913C251.711 549.019 251.812 549.079 251.917 549.079Z" fill="#C57195"/>
<path d="M383.899 446.467H314.533L302.5 497.672H371.866L383.899 446.467Z" fill="#4359B7"/>
<path d="M386.911 446.467H317.545L305.512 497.672H374.877L386.911 446.467Z" fill="#6880E4"/>
<path d="M350.148 475.917H339.934V470.562C339.934 469.266 340.981 468.218 342.276 468.218H352.49V473.573C352.486 474.869 351.439 475.917 350.148 475.917Z" fill="white"/>
<path d="M374.564 497.672H278.514V502.227H374.564V497.672Z" fill="#4359B7"/>
<path d="M386.43 481.019C393.085 476.197 395.776 459.613 384.73 456.069C384.303 456.635 383.738 460.891 383.738 460.891C383.738 460.891 367.167 462.449 366.46 467.551C363.911 470.245 366.745 473.223 366.745 473.223C366.46 476.202 373.685 478.045 373.685 478.045C373.685 478.045 369.294 477.195 369.436 479.323C369.574 481.442 381.474 483.143 386.43 481.019Z" fill="#FFB7D6"/>
<path d="M371.697 469.073C375.436 469.073 381.145 468.691 384.961 466.646C385.049 466.6 385.081 466.49 385.035 466.402C384.989 466.315 384.879 466.283 384.791 466.329C378.816 469.528 368.073 468.586 367.968 468.576C367.867 468.567 367.779 468.641 367.77 468.742C367.761 468.843 367.835 468.93 367.936 468.94C367.972 468.94 369.493 469.073 371.697 469.073Z" fill="#C57195"/>
<path d="M380.42 475.388C380.457 475.388 380.48 475.388 380.48 475.388C380.581 475.388 380.659 475.306 380.659 475.205C380.659 475.103 380.59 475.025 380.475 475.025C380.411 475.025 374.05 475.071 367.496 473.118C367.399 473.09 367.298 473.145 367.271 473.242C367.243 473.338 367.298 473.439 367.395 473.467C373.659 475.333 379.75 475.388 380.42 475.388Z" fill="#C57195"/>
<path d="M377.799 478.735C378.139 478.735 378.346 478.721 378.369 478.716C378.47 478.707 378.544 478.62 378.534 478.523C378.525 478.422 378.438 478.348 378.341 478.358C378.323 478.358 376.569 478.491 374.364 477.939C374.268 477.916 374.167 477.976 374.144 478.073C374.121 478.169 374.18 478.27 374.277 478.293C375.802 478.67 377.097 478.735 377.799 478.735Z" fill="#C57195"/>
<defs>
<linearGradient id="paint0_linear_645_775" x1="17.8535" y1="481.3" x2="117.273" y2="481.3" gradientUnits="userSpaceOnUse">
<stop stop-color="#9942FF"/>
<stop offset="1" stop-color="#4D6DFF"/>
</linearGradient>
<linearGradient id="paint1_linear_645_775" x1="90.7871" y1="536.775" x2="180.696" y2="536.775" gradientUnits="userSpaceOnUse">
<stop stop-color="#9942FF"/>
<stop offset="1" stop-color="#4D6DFF"/>
</linearGradient>
<linearGradient id="paint2_linear_645_775" x1="98.4727" y1="549.851" x2="165.953" y2="549.851" gradientUnits="userSpaceOnUse">
<stop stop-color="#9942FF"/>
<stop offset="1" stop-color="#4D6DFF"/>
</linearGradient>
<linearGradient id="paint3_linear_645_775" x1="74.1055" y1="495.546" x2="152.694" y2="495.546" gradientUnits="userSpaceOnUse">
<stop stop-color="#9942FF"/>
<stop offset="1" stop-color="#4D6DFF"/>
</linearGradient>
</defs>
</svg>
