<svg width="50" height="48" viewBox="0 0 50 48" fill="none" xmlns="http://www.w3.org/2000/svg">
<path d="M10.5845 36.9336C6.52003 27.1112 13.9715 17.317 18.2053 13.6477H1.2701L0.42334 31.8531L2.54024 36.0869L7.19743 37.357L10.5845 36.9336Z" fill="#DDDFE8"/>
<path fill-rule="evenodd" clip-rule="evenodd" d="M23.4805 3.08679C23.0238 2.97741 22.5648 3.25933 22.4557 3.71623L20.7686 10.7762C20.6595 11.233 20.9412 11.6918 21.398 11.8009C21.4645 11.8168 21.531 11.8245 21.5964 11.8245C21.9809 11.8245 22.3295 11.5619 22.4228 11.1715L24.1099 4.11157C24.2191 3.65475 23.9373 3.196 23.4805 3.08679ZM26.6026 10.9711C26.7647 11.1154 26.9667 11.1864 27.1679 11.1864C27.4021 11.1864 27.6353 11.0903 27.8034 10.9017L30.188 8.2247C30.5815 7.78669 30.5815 7.10075 30.1905 6.66552L27.8033 3.98577C27.4908 3.63496 26.9531 3.60409 26.6026 3.91637C26.2518 4.22881 26.2207 4.76641 26.5332 5.11706L28.6058 7.44363L26.5332 9.7703C26.2208 10.1211 26.2519 10.6587 26.6026 10.9711ZM17.0753 3.98596C17.3877 3.6354 17.9252 3.60411 18.276 3.91655C18.6268 4.22891 18.6578 4.76651 18.3455 5.11733L16.273 7.44399L18.3455 9.77057C18.658 10.1212 18.6269 10.6588 18.2761 10.9713C18.1141 11.1156 17.912 11.1866 17.7108 11.1866C17.4765 11.1866 17.2434 11.0906 17.0754 10.9019L14.6882 8.2221C14.2969 7.78704 14.2969 7.10077 14.6908 6.66267L17.0753 3.98596Z" fill="url(#paint0_linear_216_115)"/>
<path fill-rule="evenodd" clip-rule="evenodd" d="M47.3875 31.9597H47.7528C48.9693 31.9597 49.9589 32.9477 49.9587 34.1621V35.9446C49.9587 37.1591 48.9691 38.1471 47.7526 38.1471H47.3808C47.1908 38.7591 46.945 39.3515 46.6455 39.9187L46.9081 40.1812C47.325 40.598 47.5541 41.1528 47.5532 41.7437C47.5523 42.3333 47.3225 42.8858 46.9061 43.2996L45.6508 44.5571C45.2341 44.9736 44.6804 45.2024 44.0908 45.2024H44.0874C43.4978 45.2014 42.9452 44.9718 42.5314 44.5557L42.269 44.2943C41.6979 44.5958 41.101 44.8431 40.4832 45.0337V45.4122C40.4832 46.6283 39.4949 47.6177 38.2799 47.6177H36.4965C35.2815 47.6177 34.2932 46.6283 34.2932 45.4122V45.0313C33.6812 44.8421 33.0867 44.5958 32.5149 44.2944L32.2513 44.5578C31.8353 44.9736 31.2817 45.2024 30.6919 45.2024H30.6887C30.0992 45.2015 29.5465 44.9718 29.1326 44.5558L27.8739 43.2976C27.0166 42.441 27.0158 41.0438 27.8718 40.1832L28.1377 39.9184C27.8377 39.3517 27.5917 38.7597 27.4014 38.147H27.0239H19.1079C18.5645 38.147 18.124 37.7065 18.124 37.1631C18.124 36.6197 18.5645 36.1791 19.1079 36.1791H24.8332C24.825 36.102 24.8206 36.0238 24.8206 35.9446V34.1621C24.8206 32.9475 25.809 31.9595 27.024 31.9595H27.3977C27.5851 31.3525 27.8274 30.7652 28.1224 30.2022L27.8506 29.9297C27.4374 29.5191 27.2077 28.9665 27.2068 28.377C27.2059 27.7861 27.435 27.2312 27.8518 26.8146L29.1098 25.5571C29.5258 25.1414 30.0795 24.9126 30.6691 24.9126H30.6724C31.262 24.9135 31.8147 25.1432 32.2286 25.5592L32.4834 25.8132C33.0511 25.5111 33.6451 25.2624 34.2602 25.0691V24.6946C34.2602 23.4784 35.2486 22.4891 36.4635 22.4891H38.2441C39.4606 22.4891 40.4502 23.4784 40.4502 24.6946V25.0451C41.0772 25.2367 41.6852 25.4875 42.2689 25.796L42.5349 25.5311C42.9455 25.1183 43.4981 24.8888 44.0877 24.8878H44.0911C44.2067 24.8878 44.3203 24.8992 44.4324 24.9164V14.9729H1.96801V32.8249C1.96801 34.6432 3.18117 36.1795 4.6171 36.1795H10.3903C10.9337 36.1795 11.3742 36.6201 11.3742 37.1635C11.3742 37.7069 10.9337 38.1474 10.3903 38.1474H4.6171C2.07115 38.1474 0 35.7598 0 32.8248V5.32267C0 2.38768 2.07115 0 4.6171 0H41.7834C44.3294 0 46.4005 2.38768 46.4005 5.32267V26.282L46.9085 26.7897C47.3253 27.2064 47.5543 27.7612 47.5535 28.3522C47.5526 28.9417 47.3228 29.4943 46.9064 29.9081L46.6457 30.1697C46.9482 30.7415 47.1961 31.3399 47.3875 31.9597ZM1.96801 5.32267V13.0049L44.4325 13.005V5.32267C44.4325 3.50434 43.2193 1.96801 41.7834 1.96801H4.6171C3.18117 1.96801 1.96801 3.50434 1.96801 5.32267ZM47.7527 36.1793C47.8797 36.1793 47.9909 36.0697 47.9909 35.9448V34.1626C47.9909 34.0377 47.8796 33.928 47.7527 33.928H46.6329C46.1736 33.928 45.7755 33.6103 45.6735 33.1627C45.46 32.2261 45.0935 31.3417 44.584 30.5341C44.339 30.1457 44.3952 29.6395 44.7195 29.3143L45.5158 28.5156C45.5737 28.4581 45.5852 28.3938 45.5853 28.3495C45.5853 28.3125 45.5765 28.2414 45.517 28.1819L44.2589 26.9246C44.1994 26.8651 44.1283 26.8561 44.0908 26.8561H44.0905C44.0459 26.8562 43.9814 26.8677 43.927 26.9225L43.1246 27.7216C42.7999 28.045 42.2951 28.1012 41.9072 27.858C41.0818 27.3402 40.1886 26.972 39.2524 26.7634C38.8023 26.6632 38.4822 26.264 38.4822 25.803V24.6949C38.4822 24.5662 38.3731 24.4574 38.244 24.4574H36.4634C36.3358 24.4574 36.2281 24.5662 36.2281 24.6949V25.8196C36.2281 26.2766 35.9134 26.6736 35.4685 26.7777C34.5359 26.996 33.6552 27.3652 32.8512 27.8749C32.463 28.1212 31.9559 28.0656 31.6299 27.741L30.8365 26.9506C30.7788 26.8925 30.7142 26.881 30.6696 26.8809H30.6693C30.6318 26.8809 30.5607 26.8899 30.5011 26.9494L29.2431 28.2068C29.1836 28.2662 29.1748 28.3372 29.1748 28.3743C29.1749 28.4186 29.1864 28.4829 29.2411 28.5372L30.0461 29.3445C30.3692 29.6685 30.4263 30.1723 30.1842 30.5603C29.6825 31.3641 29.3217 32.2395 29.1117 33.1623C29.0097 33.6101 28.6114 33.9279 28.1521 33.9279H27.0241C26.8965 33.9279 26.7887 34.0354 26.7887 34.1625V35.945C26.7887 36.0721 26.8965 36.1795 27.0241 36.1795H28.155C28.6139 36.1795 29.0118 36.4966 29.1142 36.9438C29.327 37.8726 29.6925 38.7515 30.2007 39.5563C30.4467 39.9459 30.3897 40.4538 30.0632 40.779L29.2641 41.5748C29.178 41.6614 29.177 41.8178 29.2653 41.906L30.5261 43.1662C30.5826 43.2229 30.6472 43.2346 30.6917 43.2346H30.692C30.7295 43.2346 30.8006 43.2256 30.8603 43.1661L31.6564 42.3703C31.8462 42.1804 32.0981 42.0822 32.3523 42.0822C32.5321 42.0822 32.713 42.1314 32.874 42.2322C33.6911 42.7435 34.5728 43.1085 35.4944 43.3169C35.9429 43.4183 36.2614 43.8169 36.2614 44.2767V45.4125C36.2614 45.539 36.3714 45.65 36.4967 45.65H38.2801C38.4054 45.65 38.5154 45.5389 38.5154 45.4125V44.2795C38.5154 43.8201 38.8332 43.422 39.281 43.3199C40.2145 43.1075 41.0977 42.7419 41.9064 42.2332C42.2944 41.9893 42.7997 42.0454 43.1247 42.3691L43.9238 43.1649C43.9815 43.2229 44.046 43.2346 44.0907 43.2346H44.0909C44.1284 43.2346 44.1995 43.2256 44.2591 43.1661L45.5163 41.9066C45.5737 41.8497 45.5853 41.7854 45.5854 41.7411C45.5854 41.704 45.5766 41.6329 45.5171 41.5734L44.7208 40.7777C44.3959 40.4531 44.3388 39.9468 44.5833 39.558C45.0907 38.7506 45.4558 37.871 45.6683 36.9435C45.7708 36.4964 46.1687 36.1793 46.6275 36.1793H47.7527ZM31.3764 35.0549C31.3764 31.7406 34.074 29.0442 37.3899 29.0442C40.7042 29.0442 43.4005 31.7407 43.4005 35.0549C43.4005 38.3678 40.7042 41.063 37.3899 41.063C34.074 41.063 31.3764 38.3677 31.3764 35.0549ZM33.3445 35.0549C33.3445 37.2826 35.1593 39.095 37.3899 39.095C39.6189 39.095 41.4325 37.2826 41.4325 35.0549C41.4325 32.8257 39.619 31.0122 37.3899 31.0122C35.1593 31.0122 33.3445 32.8257 33.3445 35.0549Z" fill="url(#paint1_linear_216_115)"/>
<defs>
<linearGradient id="paint0_linear_216_115" x1="14.395" y1="7.44385" x2="30.4835" y2="7.44385" gradientUnits="userSpaceOnUse">
<stop stop-color="#FB9004"/>
<stop offset="1" stop-color="#FC067D"/>
</linearGradient>
<linearGradient id="paint1_linear_216_115" x1="0" y1="23.8088" x2="49.9587" y2="23.8088" gradientUnits="userSpaceOnUse">
<stop stop-color="#9942FF"/>
<stop offset="1" stop-color="#FC067D"/>
</linearGradient>
</defs>
</svg>
