<svg width="149" height="46" viewBox="0 0 149 46" fill="none" xmlns="http://www.w3.org/2000/svg">
<path d="M22.5528 0.726868C10.252 0.726868 0.279785 10.6988 0.279785 22.9996C0.279785 35.3017 10.252 45.2731 22.5528 45.2731C34.8541 45.2731 44.8258 35.3017 44.8258 22.9996C44.8258 10.6996 34.8546 0.727931 22.5525 0.727931L22.5528 0.726868ZM32.767 32.8505C32.367 33.5067 31.5122 33.7123 30.8582 33.3125C25.6279 30.1158 19.0446 29.3937 11.2917 31.1648C10.5446 31.3361 9.79984 30.8677 9.62964 30.1209C9.45861 29.3738 9.92485 28.6291 10.6738 28.4589C19.1582 26.5191 26.4359 27.354 32.3066 30.9414C32.9609 31.343 33.1684 32.1968 32.7668 32.8511L32.767 32.8505ZM35.4932 26.7867C34.9894 27.604 33.9208 27.8604 33.1045 27.3585C27.1189 23.6791 17.9917 22.6134 10.9103 24.763C9.99187 25.0404 9.02189 24.5228 8.74316 23.606C8.46655 22.6876 8.9844 21.7195 9.90119 21.4402C17.9901 18.9859 28.0458 20.1747 34.9211 24.3997C35.7376 24.9023 35.9956 25.9715 35.4929 26.787L35.4932 26.7867ZM35.7272 20.4716C28.5477 16.2078 16.7052 15.8158 9.85143 17.8959C8.75086 18.2297 7.58698 17.6084 7.25346 16.5078C6.91993 15.4067 7.5407 14.2436 8.64207 13.909C16.5097 11.5207 29.5887 11.9821 37.8534 16.8884C38.8433 17.4759 39.1681 18.7544 38.5813 19.7431C37.9962 20.733 36.7142 21.0593 35.7275 20.4716H35.7272ZM60.8772 21.2886C57.0316 20.3716 56.347 19.7279 56.347 18.3755C56.347 17.0978 57.5499 16.2379 59.3388 16.2379C61.073 16.2379 62.7924 16.8908 64.5952 18.235C64.6497 18.2757 64.7181 18.2919 64.7854 18.2813C64.8527 18.2712 64.9122 18.2342 64.9516 18.1786L66.8293 15.5317C66.9065 15.4227 66.8854 15.2724 66.7815 15.1892C64.6359 13.4675 62.2198 12.6305 59.3958 12.6305C55.2435 12.6305 52.3431 15.1224 52.3431 18.6877C52.3431 22.511 54.8451 23.8648 59.1687 24.9098C62.8486 25.7574 63.4696 26.4676 63.4696 27.737C63.4696 29.1437 62.2137 30.0182 60.1926 30.0182C57.9479 30.0182 56.1169 29.2621 54.0687 27.4883C54.0179 27.4444 53.9482 27.4245 53.8839 27.4282C53.816 27.4338 53.7541 27.4652 53.711 27.5171L51.6056 30.0228C51.5173 30.1267 51.5285 30.2821 51.6306 30.372C54.0137 32.4995 56.9446 33.6232 60.1075 33.6232C64.5819 33.6232 67.4733 31.1784 67.4733 27.3945C67.4812 24.2002 65.5689 22.4315 60.8852 21.2921L60.8772 21.2886ZM77.596 17.4959C75.6566 17.4959 74.0658 18.2598 72.754 19.825V18.0632C72.754 17.9241 72.6413 17.8108 72.5024 17.8108H69.0589C68.9198 17.8108 68.8073 17.9241 68.8073 18.0632V37.639C68.8073 37.7781 68.9198 37.8914 69.0589 37.8914H72.5024C72.6413 37.8914 72.754 37.7781 72.754 37.639V31.4598C74.0661 32.9322 75.6571 33.6516 77.596 33.6516C81.1996 33.6516 84.8476 30.8776 84.8476 25.5747C84.853 20.2705 81.2039 17.4956 77.6 17.4956L77.596 17.4959ZM80.8435 25.5747C80.8435 28.2751 79.1801 30.1595 76.7983 30.1595C74.4437 30.1595 72.6676 28.1894 72.6676 25.5747C72.6676 22.9602 74.4437 20.9899 76.7983 20.9899C79.1415 20.9897 80.8438 22.9174 80.8438 25.5744L80.8435 25.5747ZM94.1978 17.4959C89.5569 17.4959 85.9211 21.0695 85.9211 25.6324C85.9211 30.1456 89.5319 33.6817 94.1408 33.6817C98.7982 33.6817 102.445 30.1201 102.445 25.5747C102.445 21.045 98.8227 17.4964 94.1975 17.4964L94.1978 17.4959ZM94.1978 30.1863C91.7293 30.1863 89.8683 28.203 89.8683 25.5734C89.8683 22.9325 91.6649 21.0162 94.1408 21.0162C96.6253 21.0162 98.4987 22.9996 98.4987 25.6311C98.4987 28.2713 96.6901 30.1863 94.198 30.1863H94.1978ZM112.355 17.8108H108.566V13.9367C108.566 13.7979 108.454 13.6846 108.315 13.6846H104.872C104.732 13.6846 104.619 13.7979 104.619 13.9367V17.8108H102.964C102.825 17.8108 102.713 17.9241 102.713 18.0632V21.0226C102.713 21.1615 102.825 21.275 102.964 21.275H104.619V28.9325C104.619 32.0271 106.16 33.596 109.197 33.596C110.432 33.596 111.457 33.341 112.423 32.7934C112.501 32.7495 112.55 32.6649 112.55 32.575V29.7568C112.55 29.6698 112.505 29.5876 112.43 29.5422C112.355 29.4951 112.262 29.4927 112.185 29.5307C111.522 29.8645 110.881 30.0185 110.164 30.0185C109.059 30.0185 108.566 29.5169 108.566 28.3926V21.2764H112.355C112.494 21.2764 112.606 21.1631 112.606 21.024V18.0648C112.612 17.9257 112.5 17.8124 112.359 17.8124L112.355 17.8108ZM125.558 17.826V17.3501C125.558 15.9503 126.095 15.3261 127.299 15.3261C128.016 15.3261 128.593 15.4687 129.239 15.6841C129.318 15.7091 129.401 15.6966 129.466 15.649C129.532 15.6014 129.57 15.5251 129.57 15.4442V12.5425C129.57 12.4316 129.499 12.3334 129.392 12.3007C128.71 12.0978 127.837 11.8895 126.53 11.8895C123.349 11.8895 121.668 13.6806 121.668 17.0671V17.7959H120.014C119.875 17.7959 119.761 17.9092 119.761 18.048V21.0226C119.761 21.1615 119.875 21.275 120.014 21.275H121.668V33.0864C121.668 33.2255 121.78 33.3388 121.919 33.3388H125.363C125.502 33.3388 125.615 33.2255 125.615 33.0864V21.2758H128.83L133.755 33.0843C133.196 34.3251 132.646 34.5719 131.896 34.5719C131.289 34.5719 130.65 34.3907 129.997 34.0333C129.935 33.9995 129.863 33.9939 129.796 34.0144C129.731 34.0375 129.675 34.0865 129.647 34.1503L128.48 36.7108C128.425 36.8318 128.472 36.9738 128.589 37.0366C129.807 37.6965 130.907 37.9781 132.266 37.9781C134.809 37.9781 136.214 36.7938 137.453 33.6075L143.427 18.1707C143.457 18.093 143.448 18.0052 143.401 17.9363C143.353 17.868 143.277 17.8268 143.193 17.8268H139.609C139.501 17.8268 139.405 17.8951 139.37 17.9959L135.698 28.4852L131.676 17.989C131.639 17.8914 131.545 17.8267 131.441 17.8267H125.557L125.558 17.826ZM117.904 17.8108H114.46C114.321 17.8108 114.208 17.9241 114.208 18.0632V33.0864C114.208 33.2255 114.321 33.3388 114.46 33.3388H117.904C118.042 33.3388 118.156 33.2255 118.156 33.0864V18.0643C118.156 18.0311 118.149 17.9982 118.137 17.9675C118.124 17.9368 118.106 17.909 118.082 17.8855C118.059 17.8621 118.031 17.8435 118 17.8309C117.969 17.8182 117.936 17.8118 117.903 17.8119L117.904 17.8108ZM116.201 10.9704C114.837 10.9704 113.73 12.0747 113.73 13.4388C113.73 14.8038 114.837 15.9094 116.201 15.9094C117.565 15.9094 118.671 14.8038 118.671 13.4388C118.671 12.0749 117.564 10.9704 116.203 10.9704H116.201ZM146.367 22.6411C145.005 22.6411 143.944 21.5466 143.944 20.2175C143.944 18.8885 145.018 17.7815 146.38 17.7815C147.743 17.7815 148.803 18.8757 148.803 20.2037C148.803 21.5328 147.729 22.6411 146.367 22.6411H146.367ZM146.381 18.0225C145.139 18.0225 144.2 19.0093 144.2 20.2175C144.2 21.4253 145.133 22.3988 146.368 22.3988C147.609 22.3988 148.549 21.4128 148.549 20.2037C148.549 18.996 147.616 18.0225 146.382 18.0225H146.381ZM146.918 20.4529L147.603 21.4126H147.026L146.408 20.5322H145.878V21.4126H145.394V18.8688H146.528C147.119 18.8688 147.508 19.1712 147.508 19.6803C147.511 20.0973 147.269 20.3521 146.92 20.4529L146.918 20.4529ZM146.508 19.3053H145.878V20.1099H146.508C146.823 20.1099 147.011 19.9559 147.011 19.7072C147.011 19.4455 146.823 19.3053 146.509 19.3053L146.508 19.3053Z" fill="#5D616A"/>
</svg>
