<svg width="60" height="61" viewBox="0 0 60 61" fill="none" xmlns="http://www.w3.org/2000/svg">
<g clip-path="url(#clip0_613_1053)">
<path d="M58.6957 31.6205C59.4157 31.6205 60 31.0362 60 30.3162C60 29.5962 59.4157 29.0118 58.6957 29.0118H54.7826V21.1857H58.6957C59.4157 21.1857 60 20.6014 60 19.8814C60 19.1614 59.4157 18.577 58.6957 18.577H54.7826V12.0553C54.7826 8.45921 51.857 5.53355 48.2609 5.53355H41.7391V1.62051C41.7391 0.90051 41.1548 0.316162 40.4348 0.316162C39.7148 0.316162 39.1304 0.90051 39.1304 1.62051V5.53355H31.3043V1.62051C31.3043 0.90051 30.72 0.316162 30 0.316162C29.28 0.316162 28.6957 0.90051 28.6957 1.62051V5.53355H20.8696V1.62051C20.8696 0.90051 20.2852 0.316162 19.5652 0.316162C18.8452 0.316162 18.2609 0.90051 18.2609 1.62051V5.53355H11.7378C8.14304 5.53355 5.21739 8.45921 5.21739 12.0553V18.577H1.30435C0.584348 18.577 0 19.1614 0 19.8814C0 20.6014 0.584348 21.1857 1.30435 21.1857H5.21739V29.0118H1.30435C0.584348 29.0118 0 29.5962 0 30.3162C0 31.0362 0.584348 31.6205 1.30435 31.6205H5.21739V39.4466H1.30435C0.584348 39.4466 0 40.0296 0 40.7509C0 41.4723 0.584348 42.0553 1.30435 42.0553H5.21739V48.577C5.21739 52.1731 8.14304 55.0988 11.7391 55.0988H18.2609V59.0118C18.2609 59.7331 18.8452 60.3162 19.5652 60.3162C20.2852 60.3162 20.8696 59.7331 20.8696 59.0118V55.0988H28.6957V59.0118C28.6957 59.7331 29.28 60.3162 30 60.3162C30.72 60.3162 31.3043 59.7331 31.3043 59.0118V55.0988H39.1304V59.0118C39.1304 59.7331 39.7148 60.3162 40.4348 60.3162C41.1548 60.3162 41.7391 59.7331 41.7391 59.0118V55.0988H48.2609C51.857 55.0988 54.7826 52.1731 54.7826 48.577V42.0553H58.6957C59.4157 42.0553 60 41.4723 60 40.7509C60 40.0296 59.4157 39.4466 58.6957 39.4466H54.7826V31.6205H58.6957ZM52.1739 48.577C52.1739 50.7344 50.4183 52.4901 48.2609 52.4901H11.7391C9.58174 52.4901 7.82609 50.7344 7.82609 48.577V12.0553C7.82609 9.8979 9.58043 8.14225 11.7378 8.14225H48.2609C50.4183 8.14225 52.1739 9.8979 52.1739 12.0553V48.577Z" fill="url(#paint0_linear_613_1053)"/>
<path d="M43.043 13.3596H16.9547C14.7973 13.3596 13.043 15.1153 13.043 17.2727V43.3596C13.043 45.517 14.7986 47.2727 16.956 47.2727H43.043C45.2004 47.2727 46.956 45.517 46.956 43.3596V17.2727C46.956 15.1153 45.2004 13.3596 43.043 13.3596ZM36.5212 44.664H23.4778V39.4466H36.5212V44.664ZM44.3473 43.3596C44.3473 44.0796 43.7617 44.664 43.043 44.664H39.1299V38.1422C39.1299 37.4209 38.5456 36.8379 37.8256 36.8379H22.1734C21.4534 36.8379 20.8691 37.4209 20.8691 38.1422V44.664H16.956C16.2373 44.664 15.6517 44.0796 15.6517 43.3596V23.7944H44.3473V43.3596ZM44.3473 21.1857H15.6517V17.2727C15.6517 16.554 16.236 15.9683 16.9547 15.9683H43.043C43.7617 15.9683 44.3473 16.554 44.3473 17.2727V21.1857Z" fill="url(#paint1_linear_613_1053)"/>
</g>
<defs>
<linearGradient id="paint0_linear_613_1053" x1="0" y1="30.3162" x2="60" y2="30.3162" gradientUnits="userSpaceOnUse">
<stop stop-color="#9942FF"/>
<stop offset="1" stop-color="#FC067D"/>
</linearGradient>
<linearGradient id="paint1_linear_613_1053" x1="13.043" y1="30.3161" x2="46.956" y2="30.3161" gradientUnits="userSpaceOnUse">
<stop stop-color="#FB9004"/>
<stop offset="1" stop-color="#FC067D"/>
</linearGradient>
<clipPath id="clip0_613_1053">
<rect width="60" height="60" fill="white" transform="translate(0 0.316162)"/>
</clipPath>
</defs>
</svg>
