<svg width="46" height="53" viewBox="0 0 46 53" fill="none" xmlns="http://www.w3.org/2000/svg">
<path fill-rule="evenodd" clip-rule="evenodd" d="M23.675 2.37512C23.675 2.80295 23.3283 3.14961 22.9005 3.14961C22.4727 3.14961 22.126 2.80284 22.126 2.37512V0.902662C22.126 0.474835 22.4727 0.128174 22.9005 0.128174C23.3283 0.128174 23.675 0.474835 23.675 0.902662V2.37512ZM27.4982 4.60013C27.3469 4.75142 27.1486 4.82701 26.9505 4.82701C26.7523 4.82701 26.554 4.75131 26.403 4.60024C26.1004 4.29788 26.1004 3.80747 26.4029 3.50501L27.444 2.46378C27.7464 2.16122 28.2368 2.16132 28.5392 2.46368C28.8418 2.76604 28.8418 3.25645 28.5393 3.55891L27.4982 4.60013ZM18.3029 4.60013C18.4542 4.75142 18.6524 4.82701 18.8507 4.82701C19.0488 4.82701 19.2471 4.75142 19.3983 4.60024C19.7008 4.29777 19.7008 3.80737 19.3984 3.50501L18.3573 2.46378C18.0548 2.16122 17.5644 2.16132 17.262 2.46368C16.9595 2.76614 16.9595 3.25655 17.2619 3.55891L18.3029 4.60013ZM43.9024 10.3855H44.4518C44.8797 10.3855 45.2263 10.7321 45.2263 11.16C45.2263 11.5878 44.8797 11.9344 44.4518 11.9344H43.9024V12.4839C43.9024 12.9117 43.5557 13.2584 43.1279 13.2584C42.7 13.2584 42.3534 12.9117 42.3534 12.4839V11.9344H41.8039C41.3761 11.9344 41.0294 11.5878 41.0294 11.16C41.0294 10.7321 41.3761 10.3855 41.8039 10.3855H42.3534V9.83599C42.3534 9.40817 42.7 9.06151 43.1279 9.06151C43.5557 9.06151 43.9024 9.40817 43.9024 9.83599V10.3855ZM3.99712 35.9149H3.44764V35.3654C3.44764 34.9376 3.10098 34.5909 2.67316 34.5909C2.24533 34.5909 1.89867 34.9376 1.89867 35.3654V35.9149H1.3492C0.921368 35.9149 0.574707 36.2615 0.574707 36.6894C0.574707 37.1172 0.921368 37.4639 1.3492 37.4639H1.89867V38.0133C1.89867 38.4412 2.24533 38.7878 2.67316 38.7878C3.10098 38.7878 3.44764 38.4412 3.44764 38.0133V37.4639H3.99712C4.42495 37.4639 4.77161 37.1172 4.77161 36.6894C4.77161 36.2615 4.42495 35.9149 3.99712 35.9149ZM26.8734 15.245C27.1755 14.9429 27.5771 14.7766 28.0044 14.7766C28.4316 14.7766 28.8333 14.943 29.1354 15.2451L30.1592 16.2689C30.7827 16.8926 30.7827 17.9072 30.1593 18.5308L22.3169 26.3733C21.8782 26.812 21.2947 27.0538 20.6739 27.0538C20.0531 27.0538 19.4696 26.812 19.0309 26.3731L15.6418 22.9841C15.0184 22.3604 15.0184 21.3458 15.6418 20.7222L16.6659 19.6982C16.9678 19.3961 17.3694 19.2298 17.7967 19.2298C18.2241 19.2298 18.6257 19.3961 18.9277 19.6983L20.6739 21.4445L26.8734 15.245ZM21.2214 25.2781L29.064 17.4357C29.0836 17.416 29.0836 17.3839 29.0641 17.3643L28.0402 16.3405C28.0364 16.3367 28.0254 16.3257 28.0045 16.3257C27.984 16.3257 27.973 16.3364 27.9691 16.3402L27.9689 16.3404L21.2216 23.0877C20.9191 23.3901 20.4288 23.3899 20.1263 23.0877L17.8324 20.7937C17.8287 20.7899 17.8176 20.7789 17.7967 20.7789C17.7759 20.7789 17.7648 20.79 17.7611 20.7936L16.737 21.8176C16.7175 21.8371 16.7175 21.8693 16.7371 21.889L20.1263 25.278C20.2725 25.4243 20.467 25.5049 20.6739 25.5049C20.8809 25.5049 21.0753 25.4243 21.2214 25.2781ZM34.5354 13.0037C34.172 13.2294 34.0604 13.7069 34.2861 14.0702C35.5994 16.1846 36.2936 18.6246 36.2936 21.1268C36.2936 24.4943 35.0371 27.7134 32.7555 30.191C31.537 31.5141 30.617 33.1855 30.0941 35.0253L28.8594 38.7526H16.3823C15.9545 38.7526 15.6078 39.0993 15.6078 39.5271V45.3354C15.6078 47.1576 16.902 48.6829 18.6193 49.0413V50.198C18.6193 51.743 19.8761 52.9999 21.421 52.9999H24.38C25.9249 52.9999 27.1818 51.743 27.1818 50.198V49.0413C28.8991 48.6829 30.1932 47.1576 30.1932 45.3354V39.652L31.5697 35.4963C31.5719 35.4897 31.5739 35.4832 31.5759 35.4767C31.5773 35.4723 31.5786 35.4679 31.5798 35.4635C32.0362 33.8499 32.8368 32.3895 33.8951 31.2403C36.4406 28.4759 37.8427 24.8842 37.8427 21.1268C37.8427 18.3356 37.0679 15.6129 35.602 13.253C35.3762 12.8895 34.8985 12.778 34.5354 13.0037ZM28.6442 40.3016V41.6504H23.107C22.6792 41.6504 22.3326 41.9971 22.3326 42.4249C22.3326 42.8528 22.6792 43.1994 23.107 43.1994H28.6442V44.561H17.1568V43.1994H19.3534C19.7812 43.1994 20.1278 42.8528 20.1278 42.4249C20.1278 41.9971 19.7812 41.6504 19.3534 41.6504H17.1568V40.3016H28.6442ZM25.6328 50.198C25.6328 50.8888 25.0708 51.4509 24.38 51.4509H21.421C20.7303 51.4509 20.1682 50.889 20.1682 50.198V49.1213H25.6328V50.198ZM26.4073 47.5723H19.3937C18.4324 47.5723 17.611 46.9627 17.2952 46.1098H28.5058C28.1901 46.9627 27.3686 47.5723 26.4073 47.5723ZM15.748 35.1701L15.9264 35.7058C16.0615 36.1116 15.842 36.5502 15.4361 36.6854C15.3549 36.7124 15.2724 36.7252 15.1914 36.7252C14.867 36.7252 14.5648 36.5199 14.4566 36.1952L14.2728 35.643C14.269 35.6318 14.2656 35.6205 14.2624 35.6091C13.7855 33.9227 12.9477 32.387 11.8398 31.1678C9.256 28.325 7.87886 24.6421 7.96188 20.7972C8.04481 16.9564 9.59895 13.3296 12.3379 10.585C15.0773 7.84022 18.7008 6.27906 22.5414 6.1888C26.5321 6.09793 30.315 7.55572 33.1999 10.301C33.5098 10.5959 33.5218 11.0861 33.227 11.3959C32.9321 11.7058 32.4419 11.718 32.1321 11.4231C29.546 8.96219 26.1546 7.65465 22.5777 7.73726C19.1377 7.81801 15.8906 9.21798 13.4344 11.6791C10.9784 14.1401 9.5849 17.3903 9.51055 20.8305C9.4362 24.2769 10.6704 27.5781 12.986 30.126C14.2505 31.5172 15.2054 33.2613 15.748 35.1701Z" fill="url(#paint0_linear_158_3044)"/>
<defs>
<linearGradient id="paint0_linear_158_3044" x1="0.574707" y1="26.564" x2="45.2263" y2="26.564" gradientUnits="userSpaceOnUse">
<stop stop-color="#9942FF"/>
<stop offset="1" stop-color="#FC067D"/>
</linearGradient>
</defs>
</svg>
