<svg width="42" height="39" viewBox="0 0 42 39" fill="none" xmlns="http://www.w3.org/2000/svg">
<path d="M16.4902 36.5752C10.0902 30.5752 9.49022 12.7419 9.99022 4.5752L9.49023 3.5752L5.99023 7.0752L5.49023 12.0752L2.99023 13.5752L0.990234 18.5752L3.99023 23.0752L5.49023 24.5752V25.5752L4.99023 31.0752L9.49023 34.5752L12.9902 35.0752L14.9902 37.0752L16.4902 36.5752Z" fill="#DDDFE8"/>
<path d="M38.5992 15.9888C37.9419 15.99 37.3021 16.2007 36.7727 16.5904C36.2433 16.98 35.8518 17.5282 35.6552 18.1554H22.5958V16.9364V14.9906H31.3772C31.5592 14.9901 31.7368 14.9357 31.8878 14.8342L36.0738 12.042C36.5018 12.2576 36.9746 12.3695 37.4538 12.3686C38.13 12.3697 38.7879 12.149 39.3267 11.7404C39.8654 11.3318 40.2554 10.7578 40.4367 10.1064C40.6181 9.455 40.5808 8.76209 40.3306 8.13387C40.0805 7.50566 39.6313 6.97679 39.0518 6.62832C38.4723 6.27985 37.7946 6.131 37.1224 6.20458C36.4502 6.27816 35.8207 6.57011 35.3303 7.03569C34.84 7.50127 34.5158 8.11479 34.4075 8.78225C34.2991 9.4497 34.4127 10.1343 34.7306 10.731L31.1104 13.1506H22.5958V9.80642H27.044C27.1912 9.80596 27.3361 9.77021 27.4665 9.70217C27.597 9.63414 27.7092 9.5358 27.7938 9.41542L29.7304 6.71062C30.4467 6.58929 31.097 6.21845 31.5661 5.66376C32.0353 5.10906 32.2931 4.40627 32.2939 3.67978C32.2947 2.95329 32.0384 2.24994 31.5705 1.69423C31.1025 1.13852 30.453 0.766276 29.737 0.643389C29.021 0.520501 28.2846 0.654894 27.6581 1.02278C27.0317 1.39066 26.5556 1.96832 26.3141 2.6535C26.0726 3.33868 26.0813 4.0872 26.3386 4.76659C26.596 5.44597 27.0854 6.0124 27.7202 6.36562L26.584 7.96642H22.5958V5.66642C22.5958 5.63882 22.5958 5.60662 22.5958 5.57442C22.4677 4.32861 21.9658 3.15066 21.1561 2.1952C20.3464 1.23974 19.2668 0.551416 18.0589 0.220585C16.851 -0.110245 15.5713 -0.0681251 14.3877 0.341418C13.2042 0.75096 12.1721 1.50879 11.427 2.51542C9.52813 2.65788 7.75286 3.51149 6.45584 4.90572C5.15882 6.29995 4.43553 8.13218 4.43044 10.0364C4.43123 10.4837 4.47125 10.9301 4.55004 11.3704C3.2677 11.9944 2.18876 12.9695 1.43862 14.1823C0.688482 15.3952 0.297946 16.796 0.312399 18.2221C0.326852 19.6481 0.7457 21.0407 1.52027 22.2381C2.29483 23.4356 3.39331 24.3886 4.68804 24.9864C4.17695 26.0171 3.91239 27.1525 3.91524 28.303C3.91767 30.3031 4.71327 32.2205 6.12751 33.6347C7.54176 35.049 9.45919 35.8446 11.4592 35.847H11.9192C12.4753 36.566 13.1894 37.1475 14.0062 37.5463C14.823 37.9451 15.7207 38.1507 16.6296 38.147C17.9922 38.1519 19.3175 37.7022 20.3956 36.869C21.4738 36.0358 22.2432 34.8668 22.582 33.547C22.5968 33.4774 22.6045 33.4065 22.605 33.3354V30.1844H26.5794L27.7156 31.7852C27.0774 32.1394 26.585 32.708 26.3257 33.3904C26.0665 34.0727 26.0571 34.8248 26.2992 35.5135C26.5413 36.2021 27.0193 36.7829 27.6485 37.1529C28.2778 37.5229 29.0177 37.6583 29.7371 37.5351C30.4566 37.4119 31.1093 37.038 31.5796 36.4797C32.0499 35.9215 32.3074 35.2148 32.3066 34.4848C32.3058 33.7549 32.0467 33.0487 31.5752 32.4915C31.1037 31.9342 30.4502 31.5618 29.7304 31.4402L27.7938 28.7354C27.7087 28.6159 27.5963 28.5184 27.4658 28.4512C27.3354 28.384 27.1908 28.349 27.044 28.349H22.5958V28.2432V25.0232H31.1104L34.7352 27.4428C34.3838 28.0965 34.2778 28.8543 34.4363 29.5793C34.5948 30.3043 35.0074 30.9487 35.5995 31.3961C36.1916 31.8436 36.9242 32.0645 37.6649 32.0189C38.4057 31.9734 39.1057 31.6645 39.6385 31.1479C40.1714 30.6314 40.502 29.9413 40.5705 29.2023C40.639 28.4633 40.441 27.7242 40.0122 27.1185C39.5834 26.5128 38.9521 26.0804 38.2324 25.8994C37.5126 25.7185 36.7519 25.8009 36.0876 26.1318L31.9016 23.3396C31.7506 23.2382 31.573 23.1837 31.391 23.1832H22.5958V19.9954H35.6552C35.8254 20.5403 36.1433 21.0274 36.5737 21.4024C37.004 21.7774 37.5299 22.0258 38.093 22.1198C38.656 22.2139 39.2341 22.15 39.763 21.9352C40.2919 21.7204 40.7509 21.3631 41.0889 20.9031C41.4269 20.4431 41.6307 19.8983 41.6777 19.3294C41.7246 18.7605 41.6129 18.1897 41.355 17.6805C41.097 17.1713 40.7028 16.7436 40.2164 16.4449C39.7299 16.1463 39.1701 15.9884 38.5992 15.9888ZM37.4446 8.03542C37.6912 8.03542 37.9322 8.10853 38.1372 8.24551C38.3422 8.38249 38.502 8.57718 38.5963 8.80497C38.6907 9.03275 38.7154 9.2834 38.6673 9.52522C38.6192 9.76704 38.5005 9.98916 38.3261 10.1635C38.1518 10.3378 37.9297 10.4566 37.6878 10.5047C37.446 10.5528 37.1954 10.5281 36.9676 10.4337C36.7398 10.3394 36.5451 10.1796 36.4081 9.97459C36.2711 9.76959 36.198 9.52857 36.198 9.28202C36.1992 8.95177 36.331 8.6354 36.5645 8.40188C36.798 8.16836 37.1144 8.03663 37.4446 8.03542ZM29.2106 2.42342C29.4572 2.42342 29.6982 2.49653 29.9032 2.63351C30.1082 2.77049 30.268 2.96518 30.3623 3.19297C30.4567 3.42075 30.4814 3.6714 30.4333 3.91322C30.3852 4.15504 30.2665 4.37716 30.0921 4.5515C29.9178 4.72584 29.6957 4.84457 29.4538 4.89267C29.212 4.94077 28.9614 4.91608 28.7336 4.82173C28.5058 4.72738 28.3111 4.5676 28.1741 4.36259C28.0371 4.15759 27.964 3.91657 27.964 3.67002C27.9653 3.33977 28.097 3.0234 28.3305 2.78988C28.564 2.55636 28.8804 2.42463 29.2106 2.42342ZM29.2106 35.7274C28.9641 35.7274 28.7231 35.6543 28.5181 35.5173C28.3131 35.3804 28.1533 35.1857 28.0589 34.9579C27.9646 34.7301 27.9399 34.4794 27.988 34.2376C28.0361 33.9958 28.1548 33.7737 28.3292 33.5993C28.5035 33.425 28.7256 33.3063 28.9674 33.2582C29.2093 33.2101 29.4599 33.2348 29.6877 33.3291C29.9155 33.4235 30.1102 33.5832 30.2472 33.7882C30.3841 33.9932 30.4572 34.2343 30.4572 34.4808C30.456 34.8111 30.3243 35.1274 30.0908 35.361C29.8573 35.5945 29.5409 35.7262 29.2106 35.7274ZM38.6912 28.8688C38.6912 29.1154 38.6181 29.3564 38.4812 29.5614C38.3442 29.7664 38.1495 29.9262 37.9217 30.0205C37.6939 30.1149 37.4433 30.1396 37.2014 30.0915C36.9596 30.0434 36.7375 29.9246 36.5632 29.7503C36.3888 29.576 36.2701 29.3538 36.222 29.112C36.1739 28.8702 36.1986 28.6196 36.2929 28.3918C36.3873 28.164 36.5471 27.9693 36.7521 27.8323C36.9571 27.6953 37.1981 27.6222 37.4446 27.6222C37.7749 27.6234 38.0913 27.7552 38.3248 27.9887C38.5583 28.2222 38.69 28.5386 38.6912 28.8688ZM20.7512 33.2112C20.4852 34.1031 19.9388 34.8854 19.193 35.4422C18.4473 35.9991 17.5419 36.3007 16.6112 36.3024C15.9132 36.3001 15.2271 36.1214 14.6167 35.7828C14.0062 35.4442 13.4913 34.9568 13.1198 34.3658C13.0368 34.2347 12.922 34.1268 12.7861 34.052C12.6502 33.9772 12.4976 33.938 12.3424 33.938H12.2136C11.9547 33.9771 11.6935 33.9986 11.4316 34.0024C9.92593 34 8.48204 33.4034 7.41391 32.3421C6.34577 31.2809 5.73976 29.8409 5.72764 28.3352C5.72957 28.3015 5.72957 28.2677 5.72764 28.234C5.72885 27.5601 5.86286 26.893 6.12202 26.2709C6.38118 25.6488 6.7604 25.0838 7.23802 24.6083C7.71563 24.1329 8.28227 23.7562 8.90554 23.4998C9.52882 23.2434 10.1965 23.1124 10.8704 23.1142C11.1144 23.1142 11.3484 23.0173 11.521 22.8448C11.6935 22.6722 11.7904 22.4382 11.7904 22.1942C11.7904 21.9502 11.6935 21.7162 11.521 21.5437C11.3484 21.3711 11.1144 21.2742 10.8704 21.2742C9.92135 21.2743 8.98241 21.4695 8.11194 21.8478C7.24148 22.226 6.45809 22.7792 5.81044 23.473C4.72023 23.0602 3.78297 22.3227 3.12526 21.3602C2.46754 20.3978 2.12106 19.2566 2.13259 18.0909C2.14413 16.9252 2.51313 15.7911 3.18977 14.8418C3.8664 13.8926 4.81807 13.1738 5.91624 12.7826C6.13804 12.704 6.32126 12.5433 6.42822 12.3337C6.53517 12.124 6.55773 11.8814 6.49124 11.6556C6.33838 11.1297 6.26397 10.5841 6.27044 10.0364C6.27397 8.72711 6.72676 7.45867 7.55313 6.44308C8.3795 5.42749 9.52939 4.72627 10.8106 4.45662C10.6686 5.45446 10.76 6.47164 11.0774 7.42822C11.1406 7.60311 11.2553 7.75475 11.4064 7.86315C11.5575 7.97154 11.7379 8.03161 11.9238 8.03542C12.032 8.035 12.1393 8.01634 12.2412 7.98022C12.355 7.93824 12.4594 7.87418 12.5483 7.79172C12.6373 7.70926 12.709 7.61002 12.7595 7.49972C12.8099 7.38942 12.8381 7.27024 12.8423 7.14902C12.8465 7.02781 12.8267 6.90696 12.784 6.79342C12.5152 5.82113 12.5152 4.79411 12.784 3.82182C13.2791 3.07699 13.9911 2.50221 14.8235 2.17524C15.656 1.84826 16.5688 1.78486 17.4385 1.99362C18.3081 2.20238 19.0927 2.67322 19.686 3.34245C20.2793 4.01168 20.6528 4.84701 20.7558 5.73542V12.2352C20.1062 11.5222 19.3148 10.9526 18.4324 10.5629C17.55 10.1732 16.596 9.97197 15.6314 9.97202C15.3874 9.97202 15.1534 10.0689 14.9809 10.2415C14.8084 10.414 14.7114 10.648 14.7114 10.892C14.7114 11.136 14.8084 11.37 14.9809 11.5426C15.1534 11.7151 15.3874 11.812 15.6314 11.812C16.9893 11.8132 18.2914 12.3529 19.252 13.3126C20.2126 14.2724 20.7534 15.5739 20.7558 16.9318V23.5374C20.1054 22.8253 19.314 22.2563 18.4317 21.8667C17.5495 21.4771 16.5959 21.2753 15.6314 21.2742C15.3874 21.2742 15.1534 21.3711 14.9809 21.5437C14.8084 21.7162 14.7114 21.9502 14.7114 22.1942C14.7114 22.4382 14.8084 22.6722 14.9809 22.8448C15.1534 23.0173 15.3874 23.1142 15.6314 23.1142C16.9898 23.1167 18.2918 23.6573 19.2523 24.6178C20.2127 25.5783 20.7534 26.8803 20.7558 28.2386L20.7512 33.2112ZM38.5946 20.3312C38.3489 20.3294 38.1091 20.255 37.9056 20.1173C37.702 19.9796 37.5436 19.7848 37.4504 19.5574C37.3572 19.33 37.3333 19.0801 37.3817 18.8392C37.4301 18.5982 37.5486 18.377 37.7224 18.2032C37.8962 18.0294 38.1175 17.9109 38.3584 17.8625C38.5994 17.8141 38.8493 17.838 39.0767 17.9312C39.3041 18.0244 39.4988 18.1827 39.6365 18.3863C39.7742 18.5899 39.8486 18.8297 39.8504 19.0754C39.8492 19.4065 39.7169 19.7235 39.4823 19.9572C39.2478 20.1908 38.9303 20.322 38.5992 20.322L38.5946 20.3312Z" fill="url(#paint0_linear_158_2622)"/>
<defs>
<linearGradient id="paint0_linear_158_2622" x1="0.312012" y1="19.0735" x2="41.6881" y2="19.0735" gradientUnits="userSpaceOnUse">
<stop stop-color="#9942FF"/>
<stop offset="1" stop-color="#FC067D"/>
</linearGradient>
</defs>
</svg>
