<svg width="111" height="40" viewBox="0 0 111 40" fill="none" xmlns="http://www.w3.org/2000/svg">
<path d="M17.0313 0.264282C17.2937 0.38624 17.4599 0.638868 17.6699 0.839227C18.011 1.13541 18.2648 1.52742 18.5971 1.83231C19.0083 2.22432 19.2707 2.72086 19.6118 3.16514C20.2066 4.0624 20.7314 5.02064 21.0026 6.06599C21.2825 6.78032 21.3263 7.55562 21.3088 8.32222C21.3263 9.01912 21.1338 9.70731 20.8188 10.3345C20.2766 11.2841 19.2969 11.92 18.2734 12.2597C16.9963 12.5646 15.588 12.6169 14.3547 12.0768C13.9085 11.8329 13.4013 11.6673 13.0426 11.284C12.2117 10.6046 11.7306 9.49824 11.888 8.42675C12.1329 6.51898 13.2788 4.88126 14.5034 3.47003C14.6171 3.6791 14.5208 3.92302 14.5996 4.1408C14.7046 4.6025 14.8708 5.09033 15.2207 5.42136C15.6493 5.02935 16.1042 4.63734 16.4716 4.18436C16.804 3.69653 17.0751 3.15643 17.1888 2.58148C17.2151 1.84974 17.2851 1.08314 17.0051 0.38624L17.0313 0.264282ZM1.00657 8.96685C3.0534 8.98427 5.10898 8.94943 7.15589 8.98427C7.15589 11.014 7.1733 13.0437 7.14706 15.0735C8.59917 15.0996 10.0511 15.0822 11.5119 15.0822C11.5294 15.239 11.5381 15.3958 11.5381 15.5526C11.5206 17.2251 11.5469 18.889 11.5206 20.5616C10.0599 20.579 8.60783 20.5616 7.14706 20.5703C7.1733 23.5757 7.13831 26.5723 7.16455 29.5777C7.21704 29.8391 7.25203 30.1004 7.24328 30.3705C7.21695 30.6145 7.36565 30.8148 7.41822 31.0412C7.53193 31.5639 7.82059 32.0343 8.15289 32.4438C8.64282 32.9317 9.27253 33.2714 9.94606 33.4194C10.5584 33.5153 11.1707 33.5675 11.7918 33.5239C11.8267 33.6285 11.8443 33.733 11.8443 33.8463C11.8355 35.4143 11.8355 36.9823 11.8443 38.5416C11.8443 38.7594 11.8005 38.9772 11.7655 39.1862C10.8821 39.1862 9.99871 39.2472 9.11516 39.1862C8.59034 39.0729 8.03061 39.1252 7.52319 38.8987C6.1149 38.5677 4.76784 37.8708 3.76192 36.8167C2.28365 35.3969 1.48766 33.3933 1.16402 31.4071C1.07655 31.1893 1.12903 30.9367 1.09396 30.7015C0.971583 30.2224 1.02398 29.717 1.00648 29.2293C0.997824 22.478 0.997824 15.7181 1.00657 8.96685ZM30.8868 14.6118C31.2541 14.5159 31.6477 14.5856 32.0151 14.5072C32.7848 14.4114 33.5458 14.5334 34.3068 14.5595C34.8404 14.5508 35.3565 14.7076 35.8813 14.8121C37.8319 15.2825 39.6776 16.3192 41.0159 17.8349C41.2521 18.2269 41.6107 18.5144 41.838 18.9151C42.4066 19.8124 42.7828 20.8142 43.1064 21.8247C43.3076 22.5652 43.4125 23.3317 43.5088 24.0896C43.5525 25.7709 43.5263 27.4609 43.5351 29.1422C43.5263 32.496 43.5438 35.8499 43.5263 39.2037C41.4795 39.1776 39.4414 39.195 37.4033 39.1863C37.3858 39.1776 37.3421 39.1427 37.3246 39.1253C37.3158 34.43 37.3246 29.7345 37.3246 25.0479C37.3333 24.4729 37.2284 23.9154 37.1059 23.3666C36.8872 22.8091 36.6073 22.2777 36.2224 21.8247C35.9949 21.5546 35.6801 21.3804 35.4264 21.1452C35.0328 20.8839 34.5692 20.7619 34.1231 20.64C33.887 20.6225 33.6508 20.64 33.4321 20.5616C32.4962 20.5006 31.5427 20.579 30.668 20.9361C30.0294 21.241 29.4346 21.6592 29.0148 22.2428C28.3238 23.0617 28.0964 24.1767 28.1139 25.2221C28.1139 29.8739 28.1226 34.5345 28.1139 39.1863C26.0494 39.2037 23.9852 39.1776 21.9209 39.2037C21.8859 34.7174 21.9209 30.2224 21.9034 25.7361C21.9121 25.161 21.8946 24.5862 21.9384 24.0111C22.0521 23.7237 21.9733 23.4102 22.0607 23.1313C22.2182 22.0685 22.6206 21.058 23.0667 20.0911C23.504 19.2461 24.0289 18.4359 24.7111 17.7652C25.2448 17.2251 25.7958 16.6588 26.4694 16.2842C27.7728 15.3784 29.3123 14.8295 30.8868 14.6118ZM104.188 14.5595C104.949 14.5421 105.701 14.394 106.462 14.5159C106.873 14.5682 107.293 14.5595 107.704 14.5769C107.783 15.3348 107.722 16.1014 107.739 16.8593V19.9082C107.739 20.0999 107.765 20.3002 107.687 20.4832C107.485 20.3352 107.214 20.3873 106.987 20.3264C106.059 20.248 105.106 20.2916 104.231 20.6401C103.191 20.9972 102.281 21.7551 101.773 22.7395C101.625 22.9224 101.625 23.1837 101.458 23.358C101.187 24.3336 101.17 25.3529 101.187 26.3547C101.178 30.6406 101.214 34.9178 101.17 39.2038C99.1317 39.1777 97.0849 39.2038 95.038 39.1864C95.0205 39.1689 94.9943 39.1341 94.9768 39.1167V25.1351C94.9505 24.5514 95.0817 23.9852 95.0731 23.4102C95.213 23.1315 95.1781 22.8092 95.2655 22.5217C95.7029 20.3177 96.8662 18.2357 98.6332 16.8158C98.9742 16.4325 99.4641 16.2496 99.8665 15.9447C101.17 15.1519 102.683 14.7686 104.188 14.5595ZM13.5237 15.0735C15.588 15.1083 17.6524 15.0647 19.7167 15.0909C19.7167 23.0617 19.7079 31.0237 19.7167 38.9859C19.7167 39.0643 19.7167 39.2211 19.5942 39.195H13.5413C13.4887 37.8796 13.5325 36.5555 13.515 35.2401C13.5237 28.5237 13.515 21.7986 13.5237 15.0735ZM78.2962 31.2416C78.8211 31.0412 79.3284 30.7799 79.8619 30.597C80.6316 30.3009 81.3839 29.9437 82.1536 29.6475C83.7456 28.9159 85.3901 28.3061 86.9996 27.6178C87.3843 27.4087 87.8217 27.3129 88.1978 27.0864C88.6264 26.9209 89.0551 26.7727 89.475 26.5811C89.8424 26.3633 90.2622 26.2762 90.6384 26.0846C91.137 25.8842 91.618 25.6577 92.1254 25.4748C92.6415 25.1873 93.2188 25.048 93.7349 24.7691C93.8748 24.6733 94.1021 24.6994 94.1896 24.5339C94.041 24.3249 94.1196 24.0636 94.041 23.837C93.9272 23.4277 93.8135 23.0269 93.7174 22.6262C93.3237 21.4154 92.7552 20.2568 91.9854 19.2462C91.0495 17.896 89.7637 16.8071 88.3379 16.0056C87.4019 15.4394 86.3523 15.1171 85.3026 14.8383C84.6553 14.7599 84.0343 14.5334 83.3783 14.5422C82.7834 14.4638 82.1711 14.4289 81.5851 14.5334C80.5442 14.5509 79.547 14.8035 78.5586 15.091C76.8354 15.692 75.1997 16.6067 73.8789 17.8699C73.4852 18.2357 73.1616 18.6626 72.7855 19.0372C72.1994 19.7863 71.6657 20.5791 71.2635 21.4328C70.6949 22.7133 70.1526 24.0549 70.0913 25.4748C69.899 26.1543 69.9601 26.8686 69.9514 27.5655C69.9339 28.0098 70.0039 28.4454 70.0913 28.8722C70.0651 29.3251 70.2401 29.7433 70.3013 30.1789C70.45 31.1023 70.8611 31.9559 71.2372 32.8096C72.2694 34.9178 73.8963 36.7471 75.9344 37.9406C77.2728 38.7594 78.7598 39.3431 80.3167 39.5609C81.5851 39.7613 82.8884 39.7961 84.1655 39.6306C84.6028 39.6654 85.0227 39.4737 85.4601 39.4476C87.3232 39.0121 89.1514 38.228 90.5596 36.9126C90.9796 36.5816 91.3732 36.1896 91.7056 35.7714C92.2653 35.2051 92.6678 34.517 93.0702 33.8376C93.455 33.1144 93.7699 32.3478 93.9974 31.5552C93.875 31.5028 93.735 31.5204 93.6126 31.5204C91.5657 31.5292 89.5277 31.5116 87.4808 31.5204C87.2884 31.5204 87.2884 31.7817 87.1658 31.8862C86.816 32.3915 86.3699 32.8183 85.8975 33.2191C85.2152 33.707 84.4105 33.9683 83.6145 34.2034C83.4046 34.2296 83.2034 34.2208 83.011 34.2993C82.5211 34.3341 82.0225 34.3168 81.5239 34.3081C80.9729 34.2035 80.4218 34.0816 79.8882 33.9073C79.0661 33.4892 78.2613 33.0101 77.6403 32.3305C77.4828 32.1389 77.2292 31.9908 77.1766 31.7381C77.3167 31.6772 77.4479 31.5813 77.6052 31.5552C77.8589 31.5116 78.0512 31.3113 78.2962 31.2416ZM75.777 26.8337C75.6546 26.5288 75.7682 26.1716 75.7507 25.8493C75.8908 25.4049 75.9345 24.9346 76.1006 24.4903C76.5205 23.5059 77.0366 22.539 77.7888 21.7636C78.1387 21.4762 78.4361 21.1277 78.8385 20.9099C79.1359 20.7531 79.4245 20.5789 79.7307 20.4395C80.2993 20.2741 80.8503 20.0128 81.4452 20.0128C81.9874 19.8821 82.5474 19.9518 83.0983 19.9604C84.5416 20.1608 85.9937 20.7793 86.9296 21.9204C87.0259 22.147 86.7022 22.1644 86.571 22.2516C86.0024 22.5652 85.3638 22.7219 84.7953 23.0443C84.5416 23.0878 84.3229 23.2446 84.078 23.323C82.2674 24.1071 80.4217 24.7952 78.6286 25.6141C77.6665 25.9887 76.713 26.3894 75.777 26.8337ZM69.2604 4.42827C67.3448 4.41085 65.4291 4.42827 63.5136 4.41956C63.3736 4.43698 63.2074 4.37601 63.0936 4.48054C63.1111 8.57484 63.0936 12.6779 63.1025 16.7722C63.0936 16.9202 63.1287 17.0683 63.0675 17.2077C62.8925 17.1816 62.8051 17.0161 62.6739 16.9202C61.7904 16.1624 60.8021 15.5177 59.6998 15.1431C58.9563 14.8557 58.1779 14.7076 57.3907 14.5682C56.4985 14.5508 55.5975 14.5246 54.6965 14.5769C54.6003 14.603 54.5128 14.6292 54.4167 14.6379C52.4136 14.9167 50.5416 15.8488 49.0022 17.1293C48.145 17.9308 47.2877 18.767 46.6842 19.7775C45.9757 20.7793 45.5208 21.9292 45.0835 23.0617C44.8823 23.776 44.681 24.4816 44.5935 25.2134C44.4273 26.3371 44.4973 27.487 44.5148 28.6195C44.5586 28.9157 44.6548 29.1944 44.6635 29.4906C44.821 30.4489 45.1009 31.3897 45.4857 32.2869C45.8093 33.1494 46.3341 33.9334 46.8152 34.7174C47.1564 35.153 47.4888 35.6059 47.8999 35.9892C48.5122 36.5903 49.1156 37.2437 49.8854 37.6618C50.7951 38.35 51.871 38.7595 52.9206 39.1601C53.3055 39.2298 53.6641 39.4476 54.0578 39.4563C54.3902 39.4825 54.6963 39.6393 55.0288 39.6218C55.2037 39.6043 55.3612 39.7263 55.5448 39.7089C56.3932 39.735 57.2505 39.735 58.0989 39.7089C58.2389 39.7089 58.3788 39.6479 58.5275 39.6392C59.1135 39.6479 59.6558 39.4214 60.2244 39.343C60.9679 39.0729 61.764 38.8987 62.4549 38.4981C63.4783 38.0277 64.4055 37.3656 65.2365 36.6164C66.2862 35.7105 67.1346 34.578 67.7644 33.3409C68.0356 32.7921 68.3418 32.2607 68.5167 31.6684C68.8492 30.8495 68.9978 29.9784 69.1116 29.116C69.3039 28.3581 69.2428 27.5653 69.2602 26.7813C69.2604 19.3333 69.2604 11.8851 69.2604 4.42827ZM63.0412 28.0184C62.9888 28.9419 62.6389 29.8217 62.2278 30.6492C61.5367 31.9472 60.3734 32.9403 59.0526 33.5675C58.8513 33.672 58.5889 33.6634 58.449 33.855C58.2041 33.855 57.9592 33.8638 57.723 33.9509C56.9706 33.9683 56.1922 34.038 55.4575 33.8289C55.1426 33.6808 54.7927 33.6199 54.4778 33.4543C54.0842 33.2366 53.6381 33.0885 53.3144 32.7574C52.7021 32.3306 52.2299 31.7469 51.8012 31.1459C51.46 30.5622 51.1189 29.9611 50.9615 29.2991C50.7865 28.9506 50.8039 28.5586 50.7078 28.1927C50.6815 27.2607 50.6291 26.3025 50.8477 25.3964C50.944 25.1089 51.0053 24.804 51.1102 24.5166C51.3638 24.0548 51.5213 23.5409 51.8537 23.1228C52.0286 22.7569 52.3348 22.4868 52.5798 22.1732C53.2358 21.4241 54.1368 20.9449 55.0464 20.5704C55.3875 20.492 55.7199 20.3178 56.0786 20.3178C56.8046 20.1348 57.5568 20.283 58.2741 20.4136C59.2188 20.7534 60.1548 21.2238 60.8895 21.9207C61.1607 22.1733 61.3618 22.4869 61.633 22.7396C62.7526 24.2377 63.2686 26.1629 63.0412 28.0184ZM104.135 36.1373H106.427C106.436 36.3116 106.436 36.4858 106.427 36.66C106.165 36.6949 105.902 36.6513 105.649 36.6861C105.614 37.4702 105.649 38.2455 105.631 39.0295C105.395 39.0121 105.159 39.0121 104.931 39.0208C104.905 38.4022 104.914 37.775 104.923 37.1566C104.923 36.991 104.958 36.7994 104.809 36.6861C104.581 36.6514 104.354 36.6949 104.127 36.66C104.118 36.4858 104.118 36.3116 104.135 36.1373ZM106.847 36.146C107.171 36.1372 107.494 36.1198 107.818 36.1634C107.8 36.416 108.01 36.5902 108.072 36.8255C108.159 37.1216 108.29 37.4005 108.378 37.6967C108.448 37.8273 108.57 37.9406 108.526 38.1061C108.701 37.4265 108.972 36.782 109.244 36.146C109.55 36.1372 109.865 36.1286 110.18 36.146C110.197 37.0781 110.18 38.0277 110.18 38.9598C109.97 38.9772 109.76 38.9772 109.541 38.9598C109.55 38.3064 109.541 37.6531 109.558 37.0085C109.48 37.0781 109.401 37.1391 109.34 37.2262C109.226 37.8186 108.92 38.3587 108.771 38.9511C108.596 38.9773 108.43 38.9773 108.255 38.9599C108.203 38.6288 107.966 38.3588 107.966 38.0191C107.73 37.7315 107.722 37.3222 107.538 36.9998C107.415 37.235 107.512 37.5137 107.485 37.7664C107.45 38.1759 107.529 38.594 107.45 39.0034C107.241 39.0034 107.004 39.0731 106.838 38.925C106.864 38.0015 106.838 37.0782 106.847 36.146Z" fill="#5D616A" stroke="#5D616A" stroke-width="0.0547638"/>
</svg>
