<svg width="44" height="54" viewBox="0 0 44 54" fill="none" xmlns="http://www.w3.org/2000/svg">
<path d="M17.5115 38.8816C16.6519 39.1313 16.018 39.9169 16.018 40.8552V43.0835C16.018 43.5897 16.4284 44.0001 16.9346 44.0001C17.4407 44.0001 17.8512 43.5897 17.8512 43.0835V40.8552C17.8512 40.7281 17.955 40.6242 18.0821 40.6242C18.8144 40.6242 16.4394 40.625 30.8445 40.6229C30.972 40.6229 31.0754 40.7263 31.0754 40.8538V43.0817C31.0754 43.5879 31.4858 43.9983 31.992 43.9983C32.4982 43.9983 32.9086 43.5879 32.9086 43.0817V40.8538C32.9086 39.909 32.2667 39.119 31.3988 38.8749C31.4489 38.1223 31.6361 37.2423 31.885 36.6867C32.3353 35.6824 32.6575 34.8719 32.7081 33.5525V25.0087C32.7081 23.4801 31.3565 22.3058 29.8272 22.5356C29.3748 22.603 28.9644 22.7997 28.6275 23.0859C28.123 22.6697 27.4735 22.46 26.8107 22.5176C26.3023 22.5629 25.8421 22.7752 25.4674 23.093C24.961 22.6715 24.3051 22.4596 23.6411 22.5176C23.4904 22.531 23.3443 22.5609 23.2025 22.6015V18.9395C23.2025 17.5601 22.0805 16.4381 20.7012 16.4381C19.3218 16.4381 18.1998 17.5601 18.1998 18.9395V24.3055C18.1217 24.2828 18.0488 24.2458 17.9684 24.2304C16.2192 23.8932 14.6328 25.2258 14.6328 26.9708V32.0988C14.6328 33.1157 15.0848 34.1092 15.8819 34.9077C16.8052 36.0349 17.3694 37.4245 17.5115 38.8816ZM16.466 26.9708C16.466 26.3924 16.9848 25.91 17.6229 26.0305C17.8579 26.0757 18.0592 26.2247 18.1998 26.4402V29.9636C18.1998 30.4697 18.6102 30.8801 19.1164 30.8801C19.6226 30.8801 20.033 30.4697 20.033 29.9636V18.9395C20.033 18.5711 20.3328 18.2713 20.7012 18.2713C21.0695 18.2713 21.3694 18.5711 21.3694 18.9395V25.0951V26.5608C21.3694 27.067 21.7798 27.4774 22.2859 27.4774C22.7921 27.4774 23.2025 27.067 23.2025 26.5608V25.0951C23.2025 24.7102 23.472 24.3732 23.8054 24.3437C24.1875 24.3024 24.5376 24.5989 24.5376 25.0087V26.5608C24.5376 27.067 24.948 27.4774 25.4542 27.4774H25.4555C25.9617 27.4774 26.3721 27.067 26.3721 26.5608V25.0951C26.3721 24.7102 26.6415 24.3732 26.9749 24.3437C27.3543 24.3021 27.7071 24.5972 27.7071 25.0087C27.7071 25.1191 27.7071 26.6549 27.7071 26.5608C27.7071 27.067 28.1175 27.4774 28.6237 27.4774C29.1299 27.4774 29.5403 27.067 29.5403 26.5608V25.0951C29.5403 24.7232 29.7851 24.3956 30.0975 24.349C30.5348 24.2828 30.8749 24.6125 30.8749 25.0087C30.8749 25.1043 30.8759 34.0658 30.8758 33.5171C30.8382 34.4762 30.6001 35.0715 30.2121 35.937C29.8724 36.6956 29.6209 37.8123 29.5587 38.7893C28.5107 38.7894 33.341 38.7887 19.3473 38.791C19.1833 36.9418 18.4642 35.168 17.242 33.6814C16.7269 33.1622 16.466 32.6296 16.466 32.0988V26.9708Z" fill="url(#paint0_linear_578_773)"/>
<path fill-rule="evenodd" clip-rule="evenodd" d="M39.4176 0H4.5874C2.06263 0 0 2.05822 0 4.5874L0.00447551 32.0805C0.00447551 34.6074 2.06053 36.6634 4.5874 36.6634H13.0381C13.5442 36.6634 13.9547 36.253 13.9547 35.7468C13.9547 35.2406 13.5442 34.8302 13.0381 34.8302H4.5874C3.0711 34.8302 1.83765 33.5968 1.83765 32.0805V9.50152H42.1674V32.0805C42.1674 33.5968 40.9339 34.8302 39.4176 34.8302H35.1552C34.649 34.8302 34.2386 35.2406 34.2386 35.7468C34.2386 36.253 34.649 36.6634 35.1552 36.6634H39.4176C41.9445 36.6634 44.0006 34.6074 44.0006 32.0805V4.58293C44.0006 2.05605 41.9445 0 39.4176 0ZM42.1629 7.66835H1.83765V4.58293C1.83765 3.06708 3.06882 1.83765 4.58293 1.83765H39.4132C40.9295 1.83765 42.1629 3.0711 42.1629 4.5874V7.66835ZM6.61788 3.83639H23.5291C24.0352 3.83639 24.4456 4.24679 24.4456 4.75297C24.4456 5.25915 24.0352 5.66956 23.5291 5.66956H6.61788C6.1117 5.66956 5.7013 5.25915 5.7013 4.75297C5.7013 4.24679 6.1117 3.83639 6.61788 3.83639ZM37.0131 3.83639H37.3757C37.8818 3.83639 38.2922 4.24679 38.2922 4.75297C38.2922 5.25915 37.8818 5.66956 37.3757 5.66956H37.0131C36.507 5.66956 36.0965 5.25915 36.0965 4.75297C36.0965 4.24679 36.507 3.83639 37.0131 3.83639ZM33.7909 3.83639H33.428C32.9218 3.83639 32.5114 4.24679 32.5114 4.75297C32.5114 5.25915 32.9218 5.66956 33.428 5.66956H33.7909C34.2971 5.66956 34.7075 5.25915 34.7075 4.75297C34.7075 4.24679 34.2971 3.83639 33.7909 3.83639ZM29.8428 3.83639H30.2053C30.7115 3.83639 31.1219 4.24679 31.1219 4.75297C31.1219 5.25915 30.7115 5.66956 30.2053 5.66956H29.8428C29.3366 5.66956 28.9262 5.25915 28.9262 4.75297C28.9262 4.24679 29.3366 3.83639 29.8428 3.83639ZM25.035 18.9395C25.035 19.4457 25.4454 19.8561 25.9516 19.8561H27.5372C28.0434 19.8561 28.4538 19.4457 28.4538 18.9395C28.4538 18.4334 28.0434 18.023 27.5372 18.023H25.9516C25.4454 18.023 25.035 18.4334 25.035 18.9395ZM24.7909 15.5197L26.164 14.7271C26.6026 14.4733 27.1625 14.6237 27.4163 15.0627C27.6691 15.5013 27.5188 16.0617 27.0806 16.315L25.7075 17.1076C25.2667 17.3614 24.7075 17.2079 24.4553 16.7719C24.2024 16.3333 24.3528 15.773 24.7909 15.5197ZM24.5768 12.2253C24.1382 11.9706 23.5779 12.1214 23.325 12.5605L22.5319 13.9336C22.2786 14.3717 22.4286 14.9325 22.8672 15.1854C23.3 15.4367 23.8639 15.2923 24.119 14.8502L24.912 13.4771C25.1653 13.0389 25.0154 12.4781 24.5768 12.2253ZM21.6157 12.1026V13.6882C21.6157 14.1944 21.2053 14.6048 20.6992 14.6048C20.193 14.6048 19.7826 14.1944 19.7826 13.6882V12.1026C19.7826 11.5964 20.193 11.186 20.6992 11.186C21.2053 11.186 21.6157 11.5964 21.6157 12.1026ZM18.5345 15.1854C18.9731 14.9325 19.123 14.3717 18.8697 13.9336L18.0766 12.5605C17.8238 12.1214 17.2625 11.9706 16.8248 12.2253C16.3862 12.4781 16.2363 13.0389 16.4896 13.4771L17.2827 14.8502C17.5378 15.2924 18.1017 15.4367 18.5345 15.1854ZM14.324 16.315C13.8858 16.0617 13.7355 15.5013 13.9883 15.0627C14.2412 14.6237 14.8011 14.4733 15.2406 14.7271L16.6137 15.5197C17.0518 15.773 17.2022 16.3333 16.9493 16.7719C16.6975 17.2073 16.1386 17.3619 15.6971 17.1076L14.324 16.315ZM13.864 19.8561C13.3578 19.8561 12.9474 19.4457 12.9474 18.9395C12.9474 18.4334 13.3578 18.023 13.864 18.023H15.4497C15.9559 18.023 16.3663 18.4334 16.3663 18.9395C16.3663 19.4457 15.9559 19.8561 15.4497 19.8561H13.864Z" fill="url(#paint1_linear_578_773)"/>
<path d="M15.6751 47.5423L14.6631 44.0001H29.338L28.3259 47.5423L29.338 50.0725V53.1087H14.6631V49.5665L15.6751 47.5423Z" fill="#DDDFE8"/>
<defs>
<linearGradient id="paint0_linear_578_773" x1="14.6328" y1="30.2191" x2="32.9086" y2="30.2191" gradientUnits="userSpaceOnUse">
<stop stop-color="#FB9004"/>
<stop offset="1" stop-color="#FC067D"/>
</linearGradient>
<linearGradient id="paint1_linear_578_773" x1="0" y1="18.3317" x2="44.0006" y2="18.3317" gradientUnits="userSpaceOnUse">
<stop stop-color="#9942FF"/>
<stop offset="1" stop-color="#FC067D"/>
</linearGradient>
</defs>
</svg>
