<svg width="748" height="374" viewBox="0 0 748 374" fill="none" xmlns="http://www.w3.org/2000/svg">
<path opacity="0.16" d="M83.5142 367.77H747.633C739.119 278.091 763.358 122.023 652.879 84.3121C492.028 9.51675 476.137 22.3157 337.753 124.574C301.122 152.03 253.621 148.297 212.969 132.528C158.948 115.11 110.69 147.423 82.2384 191.906C39.2052 237.454 72.899 316.233 83.5142 367.77Z" fill="#B5A7E9"/>
<path d="M528.67 167.733H419.948C423.249 160.859 426.607 160.083 433.232 158.329C434.603 157.411 435.005 155.623 435.497 154.049C443.731 131.185 475.341 135.958 487.495 153.263C492.306 150.947 498.377 148.727 502.607 151.986C505.164 153.956 506.441 157.623 509.523 158.585C511.71 159.268 514.035 158.311 516.32 158.137C520.705 157.804 527.304 163.553 528.67 167.733Z" fill="white"/>
<path d="M560.495 83.7096H501.695C502.935 81.203 505.507 79.6779 508.281 79.3227C511.344 66.6187 528.501 67.3043 536.045 75.8049C538.746 71.7939 543.916 75.2308 545.958 78.3044C551.183 73.2049 558.464 77.5831 560.495 83.7096Z" fill="white"/>
<path d="M392.037 203.489H329.273C330.778 201.2 332.281 199.913 334.921 199.179C338.835 184.083 359.255 184.094 368.75 194.138C372.272 189.438 380.072 191.881 380.286 197.747C384.429 196.215 390.425 199.377 392.037 203.489Z" fill="white"/>
<path d="M418.22 367.772C397.525 367.676 381.217 371.652 370.676 348.748C379.131 348.557 386.569 353.948 393.283 359.089C385.425 352.187 383.378 340.7 384.007 330.259C392.732 337.672 401.068 346.065 405.556 356.597C404.884 348.755 404.242 340.644 406.792 333.198C415.495 341.346 420.195 356.015 418.22 367.772Z" fill="#324D90"/>
<path d="M560.637 158.648L527.357 204.183L479.178 214.061V287.683L401.659 367.77H564.448L599.034 208.296L560.637 158.648Z" fill="url(#paint0_linear_441_2963)"/>
<path d="M623.637 110.14L560.636 158.648L573.87 208.296L521.656 239.057L516.198 315.536L446.168 367.77H691.612L706.49 238.955L672.901 207.007L659.695 142.276L623.637 110.14Z" fill="#D7DCFF"/>
<path d="M659.695 142.276L609.463 193.821L620.004 209.707V274.243L655.821 284.426L657.517 278.478L632.077 264.348L639.243 207.861L620.004 195.716L663.94 163.085L659.695 142.276Z" fill="url(#paint1_linear_441_2963)"/>
<path d="M528.669 367.77L578.097 304.836L654.974 296.425L629.629 308.296L663.941 333.641L602.358 319.525L567.068 332.097L560.33 367.77H528.669Z" fill="url(#paint2_linear_441_2963)"/>
<path d="M573.87 208.296L588.499 201.169L596.305 220.878L568.759 275.009H576.329L611.163 219.081L596.305 184.719H574.608L560.637 158.648L573.87 208.296Z" fill="white"/>
<path d="M657.518 278.478L660.712 265.326L678.442 284.426L672.04 323.442L666.622 321.472L670.562 284.426L657.518 278.478Z" fill="white"/>
<path d="M532.882 232.444L539.996 284.426L528.669 323.442L495.466 360.129L516.199 315.536L521.656 239.057L532.882 232.444Z" fill="white"/>
<path d="M706.49 238.954L725.628 300.009L723.803 367.769H691.612L706.49 238.954Z" fill="url(#paint3_linear_441_2963)"/>
<path d="M716.738 367.77C716.738 367.77 739.672 362.512 744.311 344.215C744.311 344.215 727.32 347.587 722.149 353.235C722.149 353.235 735.806 337.773 734.776 318.188C734.776 318.188 714.16 329.527 712.872 344.215C712.872 344.215 712.248 324.183 696.325 308.172C696.325 308.172 691.998 333.134 698.441 349.369C698.441 349.369 685.556 337.773 671.898 335.196C671.898 335.196 671.64 355.296 692.256 358.646C692.256 358.646 681.69 354.008 668.548 354.781C681.542 367.885 693.842 368.638 716.738 367.77Z" fill="#324D90"/>
<g clip-path="url(#clip0_441_2963)">
<path d="M622.155 123C620.797 123 619.697 121.888 619.697 120.515V26.4855C619.697 25.1123 620.797 24 622.155 24C623.512 24 624.613 25.1123 624.613 26.4855V120.516C624.613 121.888 623.512 123 622.155 123Z" fill="#3C46B5"/>
<path d="M685 73.306C657.004 65.5187 648.211 74.8826 633.866 74.8826C625.778 74.8826 621.285 72.9797 619.683 72.1305C619.262 71.9088 619 71.4698 619 70.9918V26.3323C619 25.9807 619.369 25.752 619.677 25.9164C621.276 26.7644 625.769 28.6719 633.865 28.6719C649.598 28.6719 657.003 19.3068 684.999 27.0953V73.306H685Z" fill="url(#paint4_linear_441_2963)"/>
</g>
<path d="M372.599 0H315.442C308.954 0 303.699 5.25805 303.699 11.7503V49.664C303.699 56.1563 308.954 61.4144 315.442 61.4144H335.049L344.021 72.7082L351.379 61.4144H372.599C379.087 61.4144 384.342 56.1563 384.342 49.664V11.7503C384.342 5.25805 379.087 0 372.599 0Z" fill="#F94B6A"/>
<path d="M365.698 26.4423C365.698 20.3558 360.764 15.4189 354.682 15.4189C349.791 15.4189 345.651 18.6144 344.215 23.0271C342.779 18.6144 338.64 15.4189 333.748 15.4189C327.666 15.4189 322.732 20.3558 322.732 26.4423C322.732 27.9892 323.053 29.4601 323.628 30.8042C323.628 30.8042 323.628 30.8042 323.628 30.8127C327.404 44.3382 344.756 50.1288 344.756 50.1288C356.946 45.7753 362.091 37.4571 364.228 31.937C365.157 30.3224 365.698 28.4542 365.698 26.4507V26.4423Z" fill="white"/>
<path d="M35.1192 287.195C54.515 287.195 70.2384 271.461 70.2384 252.053C70.2384 232.644 54.515 216.91 35.1192 216.91C15.7234 216.91 0 232.644 0 252.053C0 271.461 15.7234 287.195 35.1192 287.195Z" fill="#F94B6A"/>
<path d="M37.6827 267.799V272.721H33.285V267.924C28.9289 267.653 24.7605 266.297 22.3428 264.399L24.7605 259.039C26.9489 260.666 30.1169 261.855 33.285 262.168V254.826C28.4079 253.637 22.9472 252.011 22.9472 245.712C22.9472 241.04 26.3236 237.036 33.285 236.243V231.363H37.6827V236.16C40.9758 236.431 44.1855 237.307 46.6032 238.85L44.3939 244.273C42.1429 243.001 39.8711 242.25 37.6618 241.979V249.466C42.5389 250.613 47.9162 252.24 47.9162 258.434C47.9162 263.002 44.5815 266.965 37.6618 267.799H37.6827ZM33.285 248.34V242.083C30.9506 242.605 30.0336 243.898 30.0336 245.337C30.0336 246.88 31.3466 247.714 33.285 248.319V248.34ZM40.8507 258.956C40.8507 257.412 39.5793 256.578 37.6827 255.911V261.98C39.8711 261.5 40.8507 260.353 40.8507 258.935V258.956Z" fill="white"/>
<path d="M719.88 130.328C735.41 130.328 748 117.73 748 102.189C748 86.6484 735.41 74.05 719.88 74.05C704.35 74.05 691.76 86.6484 691.76 102.189C691.76 117.73 704.35 130.328 719.88 130.328Z" fill="#634AFF"/>
<path d="M721.933 114.798V118.739H718.412V114.898C714.924 114.681 711.586 113.595 709.65 112.076L711.586 107.784C713.339 109.086 715.875 110.038 718.412 110.289V104.41C714.507 103.458 710.134 102.156 710.134 97.1125C710.134 93.3718 712.855 90.1654 718.412 89.5308V85.623H721.933V89.464C724.57 89.6811 727.14 90.3825 729.076 91.6183L727.307 95.9602C725.505 94.9415 723.686 94.3403 721.917 94.1232V100.118C725.822 101.037 730.127 102.34 730.127 107.299C730.127 110.957 727.457 114.13 721.917 114.798H721.933ZM718.412 99.2167V94.2067C716.543 94.6242 715.808 95.6596 715.808 96.8119C715.808 98.0477 716.86 98.7157 718.412 99.2V99.2167ZM724.47 107.717C724.47 106.481 723.452 105.813 721.933 105.279V110.138C723.686 109.754 724.47 108.836 724.47 107.7V107.717Z" fill="white"/>
<path d="M157.053 185.334C154.688 179.513 151.299 173.912 148.641 167.68C146.725 163.191 146.552 159.878 146.883 157.648C146.883 157.648 133.604 184.193 132.185 188.012C130.765 191.831 128.865 219.504 131.362 223.239C133.872 226.97 143.653 225.745 145.269 223.747C146.884 221.748 146.23 211.778 146.899 208.212C147.573 204.66 148.886 204.836 148.81 201.536C148.81 201.536 151.36 200.476 151.103 198.474C151.103 198.474 154.079 190.187 157.039 185.339L157.053 185.334Z" fill="#A190DF"/>
<path d="M148.815 201.55C148.209 201.817 147.588 201.81 146.975 201.691C146.669 201.609 146.372 201.508 146.107 201.319C145.847 201.144 145.582 200.908 145.475 200.589C146.092 200.767 146.583 200.849 147.149 200.968C147.692 201.109 148.244 201.233 148.824 201.532L148.815 201.55Z" fill="#3C46B5"/>
<path d="M142.382 225.138C139.858 225.772 136.345 225.905 133.838 224.987C133.838 224.987 131.949 228.237 132.415 230.446C132.877 232.641 134.427 234.763 134.931 237.083C135.435 239.403 135.821 241.283 134.463 242.576C133.091 243.874 131.146 244.669 132.985 246.817C134.823 248.966 139.816 243.818 140.882 242.484C141.962 241.146 142.408 237.052 142.408 237.052C142.408 237.052 143.952 238.743 144.982 237.715C146.022 236.669 145.435 234.516 145.052 232.14C144.673 229.778 142.395 225.133 142.395 225.133L142.382 225.138Z" fill="#FFB7D6"/>
<path d="M142.407 237.052C141.528 236.235 141.061 235.263 140.697 234.273C140.369 233.254 140.157 232.213 140.375 231.025C141.268 231.838 141.735 232.809 142.086 233.805C142.395 234.814 142.612 235.87 142.407 237.052Z" fill="#FF7EA0"/>
<path d="M163.288 113.724C163.288 113.724 166.923 124.612 169.342 130.664C171.76 136.716 173.109 147.516 159.448 151.458L160.107 154.477C160.107 154.477 153.013 154.081 147.883 156.968L145.127 143.955C145.127 143.955 136.845 139.881 137.901 131.997C138.956 124.113 148.542 129.052 149.07 133.683L149.598 138.313L152.221 137.654C152.221 137.654 153.541 133.316 153.145 127.147C152.749 120.977 153.145 113.343 157.484 112.038C161.822 110.719 163.303 113.738 163.303 113.738L163.288 113.724Z" fill="#FFB7D6"/>
<path d="M269.333 88.4777L216.914 100.741L222.6 125.045L275.019 112.781L269.333 88.4777Z" fill="#324D90"/>
<path d="M217.803 104.077L186.163 111.479L190.277 129.063L221.916 121.661L217.803 104.077Z" fill="#2A437D"/>
<path d="M187.238 116.071L163.138 121.709L165.103 130.11L189.203 124.472L187.238 116.071Z" fill="#152E60"/>
<path d="M272.077 84.3939L266.749 85.6404L273.916 116.275L279.244 115.029L272.077 84.3939Z" fill="#152E60"/>
<path d="M137.87 132.012C138.926 124.128 148.512 129.066 149.04 133.697L149.567 138.328L152.191 137.668C152.191 137.668 153.51 133.331 153.114 127.161C152.719 120.977 153.114 113.357 157.453 112.053C161.792 110.734 163.272 113.753 163.272 113.753C163.272 113.753 163.815 115.365 164.606 117.695C164.606 117.695 169.018 112.712 168.886 109.034C168.754 105.356 167.435 99.04 161.924 97.6039C161.924 97.6039 156.984 96.0652 154.331 98.8055C151.678 101.546 148.263 103.129 143.924 103.26C139.585 103.392 131.831 105.883 131.699 112.463C131.699 112.463 115.224 127.909 144.583 143.721C142.81 142.68 136.976 138.753 137.87 132.056V132.012Z" fill="#181670"/>
<path d="M147.867 156.983C147.867 156.983 143.206 159.943 143.983 169.996C144.774 180.048 147.574 189.31 145.874 198.586C144.173 207.862 140.861 218.897 145.874 222.047C145.874 222.047 142.385 227.176 154.331 226.385C166.263 225.594 185.201 224.026 187.37 220.274C189.54 216.523 185.597 196.813 184.014 188.738C182.431 180.649 175.204 161.071 160.092 154.506C160.092 154.506 153.32 154.242 147.867 156.997V156.983Z" fill="#B5A7E9"/>
<path d="M152.865 175.124C152.865 175.124 167.553 179.858 188.015 178.671C208.478 177.484 211.439 163.694 215.382 156.191C219.325 148.703 222.476 141.801 223.077 139.236C223.663 136.672 216.569 130.957 212.626 131.147C208.683 131.338 197.44 154.462 197.44 154.462C197.44 154.462 192.706 154.594 192.706 156.968C192.706 156.968 186.652 159.459 173.387 156.968C160.121 154.477 158.435 154.462 158.435 154.462C158.435 154.462 146.299 154.403 148.014 167.607C148.937 172.531 152.88 175.095 152.88 175.095L152.865 175.124Z" fill="#D1C9F4"/>
<path d="M192.691 156.983C194.055 157.115 195.33 157.627 196.502 158.302C197.66 159.005 198.73 159.928 199.39 161.115C198.833 160.719 198.32 160.324 197.778 159.957C197.221 159.606 196.693 159.239 196.136 158.917C195.022 158.243 193.879 157.642 192.691 156.968V156.983Z" fill="#3C46B5"/>
<path d="M197.426 154.477C198.012 154.521 198.554 154.74 199.067 155.019C199.581 155.283 200.05 155.649 200.475 156.059C201.295 156.895 201.926 157.92 202.16 159.049C201.413 158.169 200.738 157.334 199.962 156.572C199.199 155.81 198.379 155.121 197.426 154.477Z" fill="#3C46B5"/>
<path d="M145.889 222.033C147.706 222.267 149.48 222.443 151.253 222.443C152.148 222.472 153.027 222.414 153.921 222.355C154.815 222.311 155.695 222.135 156.604 222.018C154.962 222.853 153.086 223.19 151.239 223.161C149.392 223.132 147.545 222.795 145.874 222.018L145.889 222.033Z" fill="#3C46B5"/>
<path d="M228.487 124.157C228.348 123.802 227.38 123.291 227.488 122.266C227.567 121.515 229.152 116.557 229.278 115.679C229.298 115.542 229.37 114.738 229.278 114.111C228.882 112.528 223.752 118.838 223.752 118.838C223.752 118.838 224.837 115.687 225.233 113.313C225.628 110.939 225.13 110.162 223.855 110.162C222.579 110.162 219.516 117.944 218.93 119.233C218.343 120.508 216.658 122.091 215.969 123.571C215.28 125.051 214.488 131.426 214.488 131.426C217.42 132.261 220.982 134.943 222.433 137.17C222.433 137.17 228.281 131.763 229.278 129.301C230.26 126.839 228.985 125.461 228.487 124.172V124.157Z" fill="#FFB7D6"/>
<path d="M154.331 226.37C150.227 226.634 147.955 226.209 146.724 225.535L146.313 226.444C146.313 226.444 141.022 254.36 139.834 270.919C138.647 287.478 136.874 287.874 130.468 298.117C124.063 308.375 114.989 325.711 107.499 349.377C107.499 349.377 110.24 357.261 120.105 355.679C120.105 355.679 148.512 311.13 156.589 301.663C163.624 293.428 178.253 237.419 181.947 222.956C174.94 224.832 162.847 225.799 154.317 226.356L154.331 226.37Z" fill="#3A376B"/>
<path d="M208.23 284.152C208.23 275.857 193.381 243.296 183.472 222.516C182.886 222.707 182.241 222.897 181.552 223.058C181.684 223.029 181.831 222.985 181.977 222.956C180.13 230.18 175.557 247.751 170.573 264.574C172.274 267.123 173.945 269.527 175.513 271.637C185.378 285.002 184.278 286.452 186.067 298.41C187.855 310.368 192.223 329.448 201.897 352.294C201.897 352.294 209.109 356.499 215.588 348.894C215.588 348.894 208.23 296.578 208.23 284.137V284.152Z" fill="#2D2D54"/>
<path d="M108.921 351.825L103.688 357.657C103.688 357.657 103.014 367.109 115.4 373.322C116.734 373.997 118.229 372.722 117.804 371.285C117.056 368.794 116.206 365.526 116.059 363.328C115.796 359.342 116.059 355.781 116.059 355.781C116.059 355.781 111.398 355.166 108.921 351.795V351.825Z" fill="#B5A7E9"/>
<path d="M226.698 356.793C224.25 355.913 221.099 354.682 219.252 353.495C217.302 352.25 215.587 350.975 214.473 350.096C211.424 353.041 208.317 353.613 205.942 353.437L207.35 360.09C207.35 360.09 214.576 366.215 226.918 359.914C228.252 359.24 228.105 357.276 226.698 356.778V356.793Z" fill="#B5A7E9"/>
<defs>
<linearGradient id="paint0_linear_441_2963" x1="401.659" y1="263.209" x2="599.034" y2="263.209" gradientUnits="userSpaceOnUse">
<stop stop-color="#9942FF"/>
<stop offset="1" stop-color="#4D6DFF"/>
</linearGradient>
<linearGradient id="paint1_linear_441_2963" x1="609.463" y1="213.351" x2="663.94" y2="213.351" gradientUnits="userSpaceOnUse">
<stop stop-color="#9942FF"/>
<stop offset="1" stop-color="#4D6DFF"/>
</linearGradient>
<linearGradient id="paint2_linear_441_2963" x1="528.669" y1="332.097" x2="663.941" y2="332.097" gradientUnits="userSpaceOnUse">
<stop stop-color="#9942FF"/>
<stop offset="1" stop-color="#4D6DFF"/>
</linearGradient>
<linearGradient id="paint3_linear_441_2963" x1="691.612" y1="303.362" x2="725.628" y2="303.362" gradientUnits="userSpaceOnUse">
<stop stop-color="#9942FF"/>
<stop offset="1" stop-color="#4D6DFF"/>
</linearGradient>
<linearGradient id="paint4_linear_441_2963" x1="619" y1="49.4413" x2="685" y2="49.4413" gradientUnits="userSpaceOnUse">
<stop stop-color="#FB9004"/>
<stop offset="1" stop-color="#FC067D"/>
</linearGradient>
<clipPath id="clip0_441_2963">
<rect width="66" height="99" fill="white" transform="translate(619 24)"/>
</clipPath>
</defs>
</svg>
