<svg width="55" height="49" viewBox="0 0 55 49" fill="none" xmlns="http://www.w3.org/2000/svg">
<path d="M12.5426 35.4436C9.16084 26.599 14.8188 14.8495 18.0705 10.0803L14.1685 10.7307L8.96574 14.3075L7.01472 19.8354L3.43784 22.1116L1.48682 26.3389L2.13716 31.5416L6.36438 34.4681L10.5916 35.7688L12.5426 35.4436Z" fill="#DDDFE8"/>
<path d="M39.1634 32.4015L36.9786 32.0035C36.8913 31.7663 36.7953 31.5325 36.691 31.3045L37.9538 29.4806C38.1065 29.26 38.1769 28.9927 38.1528 28.7255C38.1287 28.4582 38.0115 28.2079 37.8218 28.0182L35.003 25.2005C34.8136 25.0104 34.5633 24.893 34.296 24.8689C34.0288 24.8448 33.7615 24.9154 33.5411 25.0685L31.7169 26.3299C31.4887 26.2258 31.2554 26.13 31.0169 26.0423L30.6203 23.8581C30.5723 23.5941 30.4332 23.3553 30.2273 23.1833C30.0213 23.0113 29.7615 22.9171 29.4932 22.917H25.5073C25.2389 22.917 24.9791 23.0112 24.7731 23.1832C24.5671 23.3552 24.428 23.594 24.38 23.8581L23.9833 26.0423C23.745 26.1296 23.5117 26.2255 23.2833 26.3299L21.4588 25.0677C21.2383 24.9149 20.9711 24.8444 20.7039 24.8685C20.4367 24.8926 20.1865 25.0099 19.9969 25.1997L17.1787 28.0174C16.989 28.2071 16.8718 28.4574 16.8477 28.7247C16.8236 28.9919 16.894 29.2592 17.0467 29.4798L18.3095 31.3037C18.2054 31.5321 18.1092 31.766 18.0219 32.0027L15.8371 32.401C15.5729 32.4488 15.334 32.5878 15.162 32.7939C14.99 32.9999 14.8958 33.2599 14.896 33.5283V37.5142C14.8959 37.7825 14.9901 38.0424 15.1621 38.2483C15.3341 38.4543 15.573 38.5933 15.8371 38.641L18.0219 39.0393C18.1092 39.2765 18.2052 39.5104 18.3095 39.7383L17.0467 41.5611C16.894 41.7817 16.8235 42.049 16.8477 42.3163C16.8718 42.5836 16.9889 42.8339 17.1787 43.0236L19.9969 45.8424C20.1867 46.0318 20.4369 46.1488 20.704 46.1729C20.9711 46.197 21.2381 46.1268 21.4588 45.9744L23.2836 44.7126C23.5118 44.8167 23.7451 44.9125 23.9835 45.0002L24.3802 47.1844C24.4282 47.4484 24.5673 47.6872 24.7732 47.8592C24.9792 48.0312 25.239 48.1254 25.5073 48.1255H29.4932C29.7616 48.1255 30.0214 48.0312 30.2274 47.8593C30.4334 47.6873 30.5725 47.4485 30.6205 47.1844L31.0172 45.0002C31.2555 44.9129 31.4888 44.817 31.7172 44.7126L33.5417 45.9748C33.7624 46.1271 34.0294 46.1973 34.2965 46.1732C34.5636 46.1491 34.8137 46.0322 35.0036 45.8428L37.8223 43.024C38.0121 42.8342 38.1293 42.5839 38.1534 42.3166C38.1775 42.0494 38.1071 41.7821 37.9543 41.5614L36.6916 39.7386C36.7957 39.5103 36.8919 39.2764 36.9792 39.0397L39.164 38.6414C39.428 38.5935 39.6668 38.4544 39.8387 38.2484C40.0106 38.0424 40.1047 37.7825 40.1045 37.5142V33.5283C40.1046 33.2599 40.0104 33.0001 39.8384 32.7942C39.6664 32.5882 39.4275 32.4492 39.1634 32.4015ZM37.8128 36.5574L35.8993 36.9066C35.6897 36.9444 35.4948 37.0399 35.3365 37.1824C35.1783 37.325 35.0629 37.5088 35.0034 37.7134C34.8463 38.2579 34.63 38.7836 34.3585 39.2811C34.2559 39.4677 34.2074 39.6793 34.2185 39.892C34.2296 40.1047 34.2998 40.31 34.4211 40.485L35.5255 42.0796L34.0596 43.5463L32.4635 42.4421C32.2885 42.321 32.0833 42.251 31.8708 42.24C31.6583 42.2289 31.4469 42.2773 31.2603 42.3796C30.7626 42.6516 30.2366 42.8681 29.6916 43.0251C29.4871 43.0846 29.3032 43.1999 29.1606 43.358C29.018 43.5161 28.9223 43.7109 28.8842 43.9204L28.537 45.8338H26.463L26.1156 43.9203C26.0775 43.7108 25.9818 43.516 25.8392 43.3579C25.6966 43.1997 25.5127 43.0845 25.3083 43.025C24.7633 42.868 24.2372 42.6515 23.7395 42.3794C23.5529 42.2771 23.3415 42.2288 23.129 42.2398C22.9165 42.2509 22.7113 42.3209 22.5364 42.442L20.9407 43.5465L19.4748 42.0798L20.5794 40.485C20.7007 40.31 20.7707 40.1046 20.7817 39.8919C20.7927 39.6792 20.7441 39.4677 20.6415 39.2811C20.3699 38.7836 20.1536 38.2579 19.9965 37.7134C19.937 37.5088 19.8217 37.325 19.6634 37.1824C19.5052 37.0399 19.3103 36.9444 19.1007 36.9066L17.1877 36.5574V34.4851L19.1012 34.1359C19.3108 34.0981 19.5057 34.0026 19.664 33.86C19.8222 33.7175 19.9376 33.5336 19.9971 33.3291C20.1542 32.7846 20.3704 32.2589 20.642 31.7615C20.7446 31.5748 20.7931 31.3633 20.782 31.1506C20.7709 30.9379 20.7008 30.7325 20.5794 30.5575L19.475 28.9618L20.9409 27.4959L22.5366 28.6004C22.7118 28.721 22.9169 28.7906 23.1293 28.8017C23.3417 28.8127 23.553 28.7647 23.7397 28.6629C24.2374 28.3909 24.7635 28.1745 25.3085 28.0174C25.513 27.9579 25.6968 27.8426 25.8394 27.6845C25.982 27.5264 26.0777 27.3316 26.1158 27.1221L26.4635 25.2087H28.5375L28.8849 27.1222C28.923 27.3317 29.0187 27.5265 29.1613 27.6846C29.3039 27.8427 29.4878 27.958 29.6922 28.0175C30.2372 28.1746 30.7633 28.3911 31.261 28.663C31.4478 28.7648 31.659 28.8128 31.8714 28.8017C32.0838 28.7907 32.289 28.721 32.4641 28.6005L34.0598 27.496L35.5257 28.9619L34.4211 30.5575C34.2998 30.7325 34.2298 30.938 34.2188 31.1507C34.2078 31.3633 34.2564 31.5749 34.359 31.7615C34.6306 32.2589 34.8469 32.7846 35.004 33.3291C35.0635 33.5336 35.1788 33.7175 35.3371 33.86C35.4953 34.0026 35.6902 34.0981 35.8998 34.1359L37.8134 34.4851L37.8128 36.5574Z" fill="url(#paint0_linear_216_252)"/>
<path d="M27.5002 29.7917C26.3671 29.7917 25.2594 30.1278 24.3172 30.7573C23.3751 31.3868 22.6407 32.2816 22.2071 33.3285C21.7735 34.3754 21.66 35.5273 21.8811 36.6387C22.1021 37.75 22.6478 38.7709 23.449 39.5721C24.2503 40.3734 25.2711 40.919 26.3825 41.1401C27.4938 41.3611 28.6458 41.2477 29.6927 40.814C30.7396 40.3804 31.6343 39.6461 32.2639 38.7039C32.8934 37.7618 33.2294 36.6541 33.2294 35.521C33.2276 34.002 32.6234 32.5458 31.5494 31.4718C30.4753 30.3977 29.0191 29.7935 27.5002 29.7917ZM27.5002 38.9585C26.8203 38.9585 26.1557 38.7569 25.5904 38.3791C25.0251 38.0014 24.5845 37.4646 24.3243 36.8364C24.0642 36.2083 23.9961 35.5171 24.1287 34.8503C24.2614 34.1835 24.5888 33.571 25.0695 33.0903C25.5503 32.6095 26.1628 32.2821 26.8296 32.1495C27.4964 32.0168 28.1876 32.0849 28.8157 32.3451C29.4438 32.6053 29.9807 33.0459 30.3584 33.6112C30.7361 34.1765 30.9377 34.8411 30.9377 35.521C30.9367 36.4323 30.5742 37.3061 29.9298 37.9505C29.2854 38.595 28.4116 38.9575 27.5002 38.9585Z" fill="url(#paint1_linear_216_252)"/>
<path d="M46.9586 14.276C46.7986 11.9585 45.7659 9.78778 44.0686 8.20167C42.3712 6.61556 40.1357 5.73201 37.8126 5.72917C37.1033 5.72952 36.3965 5.81329 35.7067 5.97873C34.7622 3.93618 33.175 2.25901 31.1876 1.20354C29.2001 0.148065 26.9217 -0.227665 24.7006 0.133766C22.4795 0.495197 20.4378 1.57391 18.8875 3.20506C17.3372 4.83621 16.3637 6.93008 16.1155 9.16669H16.0416C13.3903 9.16988 10.8418 10.1929 8.92406 12.0238C7.00636 13.8546 5.86646 16.3531 5.74053 19.0014C3.7665 19.7966 2.13072 21.2539 1.11386 23.1234C0.0970043 24.9929 -0.237531 27.158 0.167656 29.2472C0.572842 31.3364 1.69249 33.2195 3.33448 34.5733C4.97648 35.9272 7.03845 36.6674 9.16659 36.6669H11.4583C11.7622 36.6669 12.0536 36.5462 12.2685 36.3313C12.4834 36.1164 12.6041 35.8249 12.6041 35.521C12.6041 35.2171 12.4834 34.9257 12.2685 34.7108C12.0536 34.4959 11.7622 34.3752 11.4583 34.3752H9.16659C7.51412 34.3755 5.91685 33.7805 4.66732 32.6992C3.41779 31.6178 2.59966 30.1225 2.36278 28.4871C2.12589 26.8517 2.48611 25.1857 3.37746 23.7942C4.26881 22.4027 5.63161 21.379 7.21626 20.9104C7.46002 20.8385 7.67295 20.6875 7.82153 20.4813C7.97011 20.2751 8.04592 20.0253 8.03702 19.7713L8.02075 19.4793C8.01353 18.3389 8.2511 17.2102 8.71742 16.1695C9.18374 15.1289 9.86794 14.2003 10.7238 13.4467C11.5797 12.6931 12.5874 12.1319 13.6787 11.801C14.7701 11.4702 15.9197 11.3774 17.05 11.5288C17.2136 11.5417 17.378 11.52 17.5327 11.4653C17.6874 11.4106 17.8289 11.324 17.948 11.2111C18.0702 11.0956 18.1675 10.9563 18.2338 10.8018C18.3001 10.6472 18.3339 10.4807 18.3333 10.3125C18.3325 8.41095 19.0076 6.57099 20.2381 5.12118C21.4686 3.67137 23.1743 2.70612 25.0507 2.39777C26.9271 2.08942 28.8521 2.45806 30.4818 3.43785C32.1115 4.41765 33.3399 5.94481 33.9477 7.74665C33.9967 7.89177 34.0744 8.02558 34.1761 8.14015C34.2777 8.25472 34.4014 8.34772 34.5396 8.41365C34.6777 8.48035 34.8279 8.5183 34.9811 8.52522C35.1343 8.53213 35.2873 8.50786 35.4309 8.45387C36.4755 8.06385 37.5995 7.93454 38.7054 8.07714C39.8113 8.21974 40.8657 8.62996 41.7772 9.27221C42.6887 9.91447 43.4298 10.7694 43.9362 11.7628C44.4426 12.7562 44.699 13.8582 44.6832 14.9731C44.6832 14.9846 44.6754 15.1007 44.6754 15.113C44.6652 15.3804 44.7488 15.6428 44.9118 15.8549C45.0748 16.0671 45.3069 16.2155 45.5678 16.2745C47.7665 16.7721 49.7046 18.0628 51.0115 19.8997C52.3183 21.7366 52.9022 23.9907 52.6514 26.2311C52.4007 28.4714 51.3329 30.5407 49.6523 32.0432C47.9716 33.5457 45.7962 34.376 43.5418 34.3752C43.2379 34.3752 42.9465 34.4959 42.7316 34.7108C42.5167 34.9257 42.396 35.2171 42.396 35.521C42.396 35.8249 42.5167 36.1164 42.7316 36.3313C42.9465 36.5462 43.2379 36.6669 43.5418 36.6669C46.281 36.6674 48.9298 35.6865 51.0078 33.9019C53.0859 32.1172 54.4557 29.6471 54.8689 26.9392C55.2821 24.2314 54.7113 21.4651 53.2601 19.1419C51.8089 16.8187 49.5733 15.0924 46.9586 14.276Z" fill="url(#paint2_linear_216_252)"/>
<defs>
<linearGradient id="paint0_linear_216_252" x1="14.896" y1="35.5212" x2="40.1045" y2="35.5212" gradientUnits="userSpaceOnUse">
<stop stop-color="#FB9004"/>
<stop offset="1" stop-color="#FC067D"/>
</linearGradient>
<linearGradient id="paint1_linear_216_252" x1="21.771" y1="35.521" x2="33.2294" y2="35.521" gradientUnits="userSpaceOnUse">
<stop stop-color="#FB9004"/>
<stop offset="1" stop-color="#FC067D"/>
</linearGradient>
<linearGradient id="paint2_linear_216_252" x1="0" y1="18.3334" x2="55" y2="18.3334" gradientUnits="userSpaceOnUse">
<stop stop-color="#9942FF"/>
<stop offset="1" stop-color="#FC067D"/>
</linearGradient>
</defs>
</svg>
