<svg width="1138" height="618" viewBox="0 0 1138 618" fill="none" xmlns="http://www.w3.org/2000/svg">
<path opacity="0.16" d="M741.347 7.37689C545.796 -25.9378 296.158 53.1772 297.545 253.047C74.2588 305.789 54.8425 479.286 107.543 591.711H1046.46C1158.8 248.882 936.893 40.687 741.347 7.37689Z" fill="#B5A7E9"/>
<path d="M881.861 235.131C878.127 235.131 875.094 232.09 875.094 228.358C875.094 228.19 875.103 228.026 875.116 227.862L859.47 216.687C858.233 217.789 856.664 218.39 854.99 218.39C851.256 218.39 848.223 215.349 848.223 211.616C848.223 207.879 851.261 204.843 854.99 204.843C856.673 204.843 858.306 205.485 859.548 206.619L874.903 195.653C874.862 195.353 874.843 195.052 874.843 194.747C874.843 191.01 877.882 187.974 881.611 187.974C885.341 187.974 888.379 191.01 888.379 194.747C888.379 198.484 885.341 201.521 881.611 201.521C880.215 201.521 878.846 201.084 877.709 200.282L861.754 211.371C861.758 211.453 861.758 211.535 861.758 211.616C861.758 211.739 861.754 211.862 861.749 211.985L877.668 223.051C878.864 222.104 880.333 221.585 881.861 221.585C885.595 221.585 888.629 224.626 888.629 228.358C888.629 232.09 885.595 235.131 881.861 235.131ZM859.32 214.889L876.576 227.211L876.522 227.621C876.49 227.862 876.467 228.103 876.467 228.353C876.467 231.335 878.891 233.756 881.866 233.756C884.845 233.756 887.265 231.33 887.265 228.353C887.265 225.372 884.84 222.95 881.866 222.95C880.497 222.95 879.192 223.469 878.186 224.407L877.782 224.785L860.307 212.641L860.353 212.235C860.376 212.031 860.394 211.821 860.394 211.612C860.394 211.434 860.385 211.261 860.366 211.093L860.325 210.692L877.763 198.571L878.164 198.903C879.128 199.704 880.351 200.146 881.607 200.146C884.586 200.146 887.005 197.72 887.005 194.743C887.005 191.761 884.581 189.34 881.607 189.34C878.632 189.34 876.208 191.766 876.208 194.743C876.208 195.107 876.244 195.467 876.317 195.822L876.403 196.259L859.375 208.417L858.966 207.97C857.942 206.851 856.491 206.209 854.986 206.209C852.007 206.209 849.587 208.635 849.587 211.612C849.587 214.593 852.011 217.015 854.986 217.015C856.478 217.015 857.869 216.414 858.902 215.322L859.32 214.889Z" fill="#D0DCF8"/>
<path d="M789.74 513.101C786.006 513.101 782.973 510.06 782.973 506.328C782.973 506.159 782.982 505.995 782.995 505.832L767.349 494.657C766.112 495.758 764.543 496.359 762.869 496.359C759.135 496.359 756.102 493.319 756.102 489.586C756.102 485.854 759.14 482.813 762.869 482.813C764.552 482.813 766.185 483.455 767.427 484.588L782.781 473.623C782.741 473.323 782.722 473.022 782.722 472.717C782.722 468.98 785.761 465.944 789.49 465.944C793.224 465.944 796.258 468.985 796.258 472.717C796.258 476.454 793.22 479.49 789.49 479.49C788.094 479.49 786.725 479.053 785.588 478.252L769.633 489.34C769.637 489.422 769.637 489.504 769.637 489.586C769.637 489.709 769.633 489.832 769.628 489.955L785.547 501.02C786.743 500.074 788.212 499.555 789.74 499.555C793.474 499.555 796.508 502.595 796.508 506.328C796.508 510.06 793.474 513.101 789.74 513.101ZM767.199 492.863L784.455 505.185L784.401 505.595C784.369 505.836 784.346 506.077 784.346 506.328C784.346 509.309 786.77 511.731 789.745 511.731C792.724 511.731 795.144 509.305 795.144 506.328C795.144 503.346 792.719 500.925 789.745 500.925C788.376 500.925 787.07 501.444 786.065 502.381L785.661 502.759L768.186 490.615L768.232 490.21C768.254 490.005 768.273 489.796 768.273 489.586C768.273 489.409 768.264 489.236 768.245 489.067L768.204 488.667L785.642 476.545L786.043 476.878C787.007 477.679 788.23 478.12 789.486 478.12C792.465 478.12 794.884 475.694 794.884 472.717C794.884 469.736 792.46 467.314 789.486 467.314C786.506 467.314 784.087 469.74 784.087 472.717C784.087 473.081 784.123 473.441 784.196 473.796L784.282 474.233L767.254 486.391L766.844 485.945C765.821 484.825 764.37 484.183 762.865 484.183C759.886 484.183 757.466 486.609 757.466 489.586C757.466 492.568 759.89 494.989 762.865 494.989C764.357 494.989 765.748 494.388 766.781 493.296L767.199 492.863Z" fill="#D0DCF8"/>
<path d="M861.796 152.548H811.625C811.174 152.548 810.811 152.184 810.811 151.733V111.308C810.811 110.858 811.174 110.494 811.625 110.494H822.04C822.381 110.494 822.681 110.703 822.804 111.022L825.651 118.578H861.796C862.246 118.578 862.61 118.942 862.61 119.392V151.733C862.61 152.184 862.246 152.548 861.796 152.548ZM812.439 150.918H860.982V120.212H825.087C824.746 120.212 824.446 120.002 824.323 119.684L821.476 112.128H812.439V150.918Z" fill="#D0DCF8"/>
<path d="M861.795 152.548C861.754 152.548 861.709 152.543 861.663 152.539C861.217 152.466 860.917 152.047 860.99 151.601L867.107 113.93H822.785C822.335 113.93 821.971 113.566 821.971 113.115C821.971 112.665 822.335 112.301 822.785 112.301H868.067C868.303 112.301 868.531 112.405 868.686 112.587C868.84 112.769 868.908 113.011 868.867 113.247L862.595 151.865C862.536 152.265 862.191 152.548 861.795 152.548Z" fill="#D0DCF8"/>
<path d="M492.804 372.814H449.846C446.221 372.814 443.273 369.865 443.273 366.232V345.153C443.273 341.525 446.221 338.571 449.846 338.571H492.804C496.429 338.571 499.38 341.521 499.38 345.153V366.232C499.376 369.865 496.429 372.814 492.804 372.814ZM449.846 339.946C446.976 339.946 444.638 342.285 444.638 345.157V366.237C444.638 369.109 446.971 371.449 449.846 371.449H492.804C495.674 371.449 498.011 369.109 498.011 366.237V345.157C498.011 342.285 495.678 339.946 492.804 339.946H449.846Z" fill="#D0DCF8"/>
<path d="M449.584 356.61L463.956 349.199V351.339L451.844 357.415V357.479L463.956 363.556V365.695L449.584 358.285V356.61Z" fill="#D0DCF8"/>
<path d="M465.984 366.933L474.626 344.456H476.732L468.058 366.933H465.984Z" fill="#D0DCF8"/>
<path d="M493.06 358.317L478.688 365.695V363.556L490.89 357.479V357.415L478.688 351.339V349.199L493.06 356.578V358.317Z" fill="#D0DCF8"/>
<path d="M666.359 109.929H634.34V132.197L670.339 133.644L666.359 109.929Z" fill="#D0DCF8"/>
<path d="M729.313 45.1159L667.266 111.017L692.772 122.06L748.488 70.2829L729.313 45.1159Z" fill="#D0DCF8"/>
<path d="M897.909 48.0154L746.499 33.8912L745.953 71.5483L884.701 97.4389L897.909 48.0154Z" fill="#84B4FE"/>
<path d="M1012.78 246.793L878.912 92.5503L917.986 60.6876L1066.32 212.759L1012.78 246.793Z" fill="#84B4FE"/>
<path d="M1016.4 235.932L901.344 519.077L967.193 537.908L1082.24 254.763L1016.4 235.932Z" fill="#D0DCF8"/>
<path d="M931.553 524.662C931.467 524.662 931.376 524.644 931.289 524.612C930.934 524.467 930.766 524.062 930.912 523.707L1000.55 353.86C1001.42 351.726 1001.38 349.4 1000.42 347.301C999.458 345.207 997.725 343.651 995.537 342.918C993.022 342.08 991.017 340.296 989.884 337.897C988.752 335.498 988.651 332.813 989.602 330.341L1022.08 245.641C1022.21 245.282 1022.61 245.104 1022.97 245.241C1023.33 245.377 1023.51 245.778 1023.37 246.137L990.898 330.837C990.084 332.959 990.171 335.253 991.139 337.306C992.108 339.358 993.827 340.883 995.979 341.602C998.535 342.454 1000.56 344.274 1001.68 346.723C1002.8 349.172 1002.86 351.894 1001.83 354.388L932.194 524.235C932.085 524.499 931.826 524.662 931.553 524.662Z" fill="#84B4FE"/>
<path d="M910.389 520.315C910.307 520.315 910.225 520.302 910.143 520.27C909.784 520.133 909.607 519.733 909.743 519.373L934.099 455.197C935.482 451.551 939.475 449.621 943.186 450.805C946.17 451.756 949.399 450.213 950.541 447.291L984.098 361.212C984.712 359.632 984.625 357.857 983.857 356.341C983.088 354.83 981.705 353.715 980.063 353.282L976.966 352.468C976.598 352.372 976.375 351.99 976.47 351.621C976.57 351.248 976.948 351.029 977.316 351.125L980.414 351.94C982.438 352.472 984.139 353.847 985.089 355.713C986.035 357.579 986.144 359.764 985.385 361.717L951.832 447.796C950.427 451.397 946.443 453.299 942.768 452.129C939.752 451.169 936.519 452.735 935.395 455.693L911.039 519.869C910.93 520.147 910.667 520.315 910.389 520.315Z" fill="#84B4FE"/>
<path d="M1000.75 430.7C1000.67 430.7 1000.58 430.686 1000.5 430.649L996.645 429.138C991.533 427.135 988.972 421.337 990.928 416.207L1021.17 336.978C1022 334.811 1021.93 332.449 1020.98 330.332C1020.02 328.216 1018.3 326.6 1016.13 325.785C1011.05 323.882 1008.39 318.17 1010.19 313.049L1022.62 277.695C1022.75 277.335 1023.14 277.144 1023.5 277.272C1023.86 277.399 1024.05 277.795 1023.93 278.155L1011.5 313.509C1009.94 317.919 1012.24 322.84 1016.62 324.483C1019.14 325.43 1021.13 327.301 1022.24 329.759C1023.34 332.212 1023.43 334.952 1022.47 337.469L992.22 416.698C990.532 421.118 992.743 426.12 997.146 427.846L1001 429.357C1001.35 429.498 1001.53 429.898 1001.39 430.258C1001.29 430.536 1001.03 430.7 1000.75 430.7Z" fill="#84B4FE"/>
<path d="M1012.96 398.113C1012.87 398.113 1012.79 398.095 1012.7 398.063C1012.34 397.922 1012.17 397.517 1012.31 397.162L1049.69 303.995C1050.95 300.868 1050.81 297.345 1049.32 294.323C1047.83 291.305 1045.11 289.052 1041.87 288.151C1035.99 286.516 1029.88 289.575 1027.66 295.265L1023.1 306.968C1022.96 307.323 1022.56 307.5 1022.21 307.364C1021.85 307.223 1021.67 306.822 1021.81 306.467L1026.37 294.764C1028.85 288.41 1035.67 284.992 1042.24 286.817C1045.87 287.823 1048.89 290.335 1050.56 293.708C1052.23 297.081 1052.38 301.019 1050.98 304.51L1013.6 397.676C1013.5 397.949 1013.24 398.113 1012.96 398.113Z" fill="#84B4FE"/>
<path d="M966.467 508.549C966.385 508.549 966.304 508.535 966.222 508.503C965.862 508.367 965.68 507.971 965.817 507.611L974.527 484.37C975.027 483.032 974.968 481.58 974.358 480.282C973.749 478.99 972.666 478.02 971.316 477.551C969.601 476.964 968.237 475.735 967.463 474.092C966.695 472.449 966.622 470.614 967.263 468.916L983.182 426.862C983.318 426.503 983.719 426.325 984.078 426.457C984.437 426.594 984.615 426.994 984.483 427.354L968.564 469.408C968.055 470.751 968.114 472.203 968.719 473.505C969.328 474.802 970.411 475.776 971.766 476.24C973.476 476.827 974.841 478.052 975.614 479.691C976.382 481.329 976.46 483.159 975.823 484.857L967.113 508.098C967.009 508.376 966.745 508.549 966.467 508.549Z" fill="#84B4FE"/>
<path d="M791.723 460.3H541.361C534.766 460.3 529.422 454.952 529.422 448.351V151.446C529.422 144.846 534.766 139.498 541.361 139.498H791.723C798.318 139.498 803.662 144.846 803.662 151.446V448.351C803.662 454.952 798.318 460.3 791.723 460.3Z" fill="url(#paint0_linear_622_807)"/>
<path d="M567.087 178.734C568.671 172.021 564.518 165.294 557.81 163.709C551.102 162.124 544.38 166.281 542.796 172.994C541.212 179.707 545.366 186.434 552.074 188.02C558.782 189.605 565.503 185.448 567.087 178.734Z" fill="white"/>
<path d="M712.074 187.232H584.464C583.136 187.232 582.062 186.154 582.062 184.829V174.974C582.062 173.645 583.14 172.571 584.464 172.571H712.074C713.402 172.571 714.475 173.65 714.475 174.974V184.829C714.48 186.158 713.402 187.232 712.074 187.232Z" fill="white"/>
<path d="M567.087 207.884C568.671 201.17 564.518 194.443 557.81 192.858C551.102 191.273 544.38 195.43 542.796 202.143C541.212 208.856 545.366 215.584 552.074 217.169C558.782 218.754 565.503 214.597 567.087 207.884Z" fill="white"/>
<path d="M660.246 216.382H584.464C583.136 216.382 582.062 215.303 582.062 213.979V204.124C582.062 202.795 583.14 201.721 584.464 201.721H660.246C661.575 201.721 662.648 202.8 662.648 204.124V213.979C662.652 215.303 661.575 216.382 660.246 216.382Z" fill="white"/>
<path d="M760.104 216.382H684.321C682.993 216.382 681.92 215.303 681.92 213.979V204.124C681.92 202.795 682.998 201.721 684.321 201.721H760.104C761.432 201.721 762.505 202.8 762.505 204.124V213.979C762.505 215.303 761.432 216.382 760.104 216.382Z" fill="white"/>
<path d="M554.928 246.611C561.82 246.611 567.408 241.019 567.408 234.121C567.408 227.222 561.82 221.63 554.928 221.63C548.035 221.63 542.447 227.222 542.447 234.121C542.447 241.019 548.035 246.611 554.928 246.611Z" fill="white"/>
<path d="M712.074 245.527H584.464C583.136 245.527 582.062 244.449 582.062 243.124V233.269C582.062 231.94 583.14 230.866 584.464 230.866H712.074C713.402 230.866 714.475 231.945 714.475 233.269V243.124C714.48 244.453 713.402 245.527 712.074 245.527Z" fill="white"/>
<path d="M653.092 269.065H635.727V286.444H653.092V269.065Z" fill="#D4CCF3"/>
<path d="M724.46 267.071H661.508V273.589H724.46V267.071Z" fill="#D4CCF3"/>
<path d="M771.402 282.338H661.508V288.856H771.402V282.338Z" fill="#D4CCF3"/>
<path d="M653.092 312.089H635.727V329.467H653.092V312.089Z" fill="#D4CCF3"/>
<path d="M724.46 310.099H661.508V316.618H724.46V310.099Z" fill="#D4CCF3"/>
<path d="M771.402 325.366H661.508V331.884H771.402V325.366Z" fill="#D4CCF3"/>
<path d="M653.092 355.117H635.727V372.496H653.092V355.117Z" fill="#D4CCF3"/>
<path d="M724.46 353.128H661.508V359.646H724.46V353.128Z" fill="#D4CCF3"/>
<path d="M771.402 368.394H661.508V374.913H771.402V368.394Z" fill="#D4CCF3"/>
<path d="M968.999 513.647H852.864C827.69 513.647 807.277 534.071 807.277 559.27H1014.59C1014.59 534.071 994.178 513.647 968.999 513.647Z" fill="#D0DCF8"/>
<path d="M1009.88 551.304H813.428C797.045 551.304 783.76 564.595 783.76 580.996H1039.55C1039.55 564.595 1026.27 551.304 1009.88 551.304Z" fill="#B2C5F1"/>
<path d="M1075.77 269.296C1090.18 254.872 1090.18 231.488 1075.77 217.065C1061.35 202.641 1037.99 202.641 1023.58 217.065C1009.16 231.488 1009.16 254.873 1023.58 269.296C1037.99 283.719 1061.35 283.719 1075.77 269.296Z" fill="#517FC5"/>
<path d="M894.829 101.235C909.615 101.235 921.6 89.24 921.6 74.4432C921.6 59.6464 909.615 47.6513 894.829 47.6513C880.044 47.6513 868.059 59.6464 868.059 74.4432C868.059 89.24 880.044 101.235 894.829 101.235Z" fill="#517FC5"/>
<path d="M764.838 57.0869C767.225 46.9681 760.964 36.8282 750.853 34.4389C740.743 32.0495 730.611 38.3155 728.223 48.4343C725.836 58.5531 732.097 68.693 742.208 71.0823C752.319 73.4717 762.45 67.2057 764.838 57.0869Z" fill="#517FC5"/>
<path d="M689.335 125.86H673.957V152.652H689.335V125.86Z" fill="#D0DCF8"/>
<path d="M683.905 132.094C693.044 128.305 697.384 117.819 693.599 108.673C689.813 99.5267 679.335 95.1834 670.196 98.972C661.057 102.761 656.717 113.246 660.503 122.393C664.289 131.539 674.766 135.882 683.905 132.094Z" fill="#517FC5"/>
<path d="M1059.11 508.701C1059.89 507.342 1060.65 505.968 1061.38 504.585C1083.52 462.488 1096.24 415.473 1098.35 367.957C1075.56 388.866 1052.64 410.42 1033.33 434.585C1018.58 453.047 1005.93 473.543 997.889 495.674C1012.05 443.361 1019.49 389.05 1017.97 334.937C964.15 409.628 927.943 496.72 912.379 587.458L1038.16 586.036C1084.43 558.495 1120.39 514.076 1137.71 463.093C1108.93 472.805 1081.76 488.351 1059.11 508.701Z" fill="#EAF2FC"/>
<mask id="mask0_622_807" style="mask-type:luminance" maskUnits="userSpaceOnUse" x="912" y="334" width="226" height="254">
<path d="M1059.1 508.701C1059.89 507.342 1060.65 505.968 1061.37 504.585C1083.51 462.488 1096.24 415.473 1098.35 367.957C1075.56 388.867 1052.63 410.42 1033.33 434.585C1018.58 453.047 1005.93 473.543 997.887 495.674C1012.05 443.361 1019.49 389.05 1017.97 334.937C964.148 409.628 927.941 496.72 912.377 587.458L1038.16 586.036C1084.43 558.495 1120.39 514.077 1137.71 463.093C1108.92 472.805 1081.76 488.351 1059.1 508.701Z" fill="white"/>
</mask>
<g mask="url(#mask0_622_807)">
<path d="M985.262 584.01L985.565 583.402C990.062 574.386 1095.83 362.47 1106.89 351.404C1107.04 351.257 1107.28 351.257 1107.42 351.404C1107.57 351.551 1107.57 351.789 1107.42 351.936C1096.74 362.625 993.051 570.096 986.55 583.116C1005.16 580.619 1044.77 548.471 1074.92 521.755C1108.02 492.415 1137.15 463.121 1137.44 462.828C1137.59 462.68 1137.83 462.68 1137.97 462.826C1138.12 462.972 1138.12 463.211 1137.98 463.358C1137.69 463.651 1108.54 492.961 1075.42 522.316C1055.96 539.561 1038.96 553.448 1024.88 563.592C1007.24 576.302 994.135 583.15 985.939 583.945L985.262 584.01Z" fill="#6880E4"/>
</g>
<path d="M1059.1 508.701C1059.89 507.342 1060.65 505.968 1061.37 504.585C1083.51 462.488 1096.24 415.473 1098.35 367.957C1075.56 388.866 1052.63 410.42 1033.33 434.585C1018.58 453.047 1005.93 473.543 997.887 495.674C1012.05 443.361 1019.49 389.05 1017.97 334.937C964.148 409.628 927.941 496.72 912.377 587.458L1038.16 586.036C1084.43 558.495 1120.39 514.076 1137.71 463.093C1108.92 472.805 1081.76 488.351 1059.1 508.701Z" fill="url(#paint1_linear_622_807)"/>
<path d="M956.048 594.015C955.843 594.015 955.675 593.852 955.671 593.646C955.396 579.603 965.734 531.786 986.398 451.526C1001.78 391.761 1017.45 335.399 1017.61 334.836C1017.67 334.636 1017.87 334.519 1018.07 334.574C1018.27 334.63 1018.39 334.838 1018.34 335.038C1018.18 335.6 1002.51 391.957 987.126 451.715C972.932 506.848 956.083 576.224 956.424 593.631C956.428 593.839 956.263 594.011 956.055 594.015C956.053 594.015 956.05 594.015 956.048 594.015Z" fill="#F5F5F5"/>
<path d="M1049.93 617.387H104.077C93.7385 617.387 85.3516 608.998 85.3516 598.648C85.3516 588.301 93.7339 579.908 104.077 579.908H1049.93C1060.26 579.908 1068.65 588.297 1068.65 598.648C1068.65 608.998 1060.26 617.387 1049.93 617.387Z" fill="#D4CCF3"/>
<path d="M78.603 502.416C77.8167 501.056 77.0597 499.683 76.3321 498.3C54.1927 456.203 41.4689 409.188 39.3558 361.672C62.1453 382.581 85.0732 404.135 104.377 428.3C119.125 446.762 131.779 467.258 139.82 489.389C125.656 437.076 118.222 382.765 119.737 328.652C173.559 403.343 209.766 490.435 225.33 581.173L99.5483 579.751C53.2812 552.21 17.3147 507.791 -4.57764e-05 456.808C28.7824 466.52 55.9485 482.065 78.603 502.416Z" fill="#EAF2FC"/>
<mask id="mask1_622_807" style="mask-type:luminance" maskUnits="userSpaceOnUse" x="0" y="328" width="226" height="254">
<path d="M78.6069 502.416C77.8206 501.057 77.0636 499.683 76.336 498.3C54.1966 456.203 41.4728 409.188 39.3597 361.672C62.1492 382.581 85.0771 404.135 104.381 428.3C119.129 446.762 131.783 467.258 139.824 489.389C125.66 437.076 118.225 382.765 119.74 328.652C173.563 403.343 209.77 490.435 225.334 581.173L99.5522 579.751C53.2852 552.21 17.3186 507.791 0.00386047 456.808C28.7863 466.52 55.9524 482.066 78.6069 502.416Z" fill="white"/>
</mask>
<g mask="url(#mask1_622_807)">
<path d="M152.449 577.725L152.146 577.117C147.649 568.101 41.8851 356.184 30.8192 345.118C30.6716 344.972 30.4342 344.972 30.2866 345.118C30.1397 345.266 30.1397 345.504 30.2866 345.651C40.9755 356.34 144.66 563.811 151.161 576.831C132.551 574.334 92.9385 542.186 62.7931 515.47C29.6877 486.13 0.558609 456.835 0.2686 456.543C0.121704 456.395 -0.116409 456.394 -0.263977 456.541C-0.411545 456.687 -0.412521 456.926 -0.265976 457.073C0.0247192 457.366 29.1682 486.675 62.2913 516.031C81.7492 533.276 98.7542 547.163 112.834 557.306C130.476 570.017 143.576 576.864 151.772 577.66L152.449 577.725Z" fill="#6880E4"/>
</g>
<path d="M78.605 502.416C77.8186 501.056 77.0617 499.683 76.3341 498.3C54.1946 456.203 41.4709 409.188 39.3577 361.672C62.1473 382.581 85.0751 404.135 104.379 428.3C119.127 446.762 131.781 467.258 139.822 489.389C125.658 437.076 118.224 382.765 119.739 328.652C173.561 403.343 209.768 490.435 225.332 581.173L99.5502 579.751C53.2832 552.21 17.3167 507.791 0.00190735 456.808C28.7844 466.52 55.9504 482.065 78.605 502.416Z" fill="url(#paint2_linear_622_807)"/>
<path d="M181.663 587.73C181.868 587.73 182.035 587.566 182.04 587.361C182.315 573.318 171.977 525.501 151.313 445.241C135.926 385.476 120.257 329.114 120.1 328.551C120.044 328.35 119.836 328.234 119.637 328.289C119.436 328.345 119.319 328.553 119.375 328.753C119.531 329.315 135.199 385.672 150.584 445.43C164.779 500.563 181.628 569.938 181.287 587.346C181.283 587.554 181.448 587.726 181.656 587.73C181.658 587.73 181.661 587.73 181.663 587.73Z" fill="#F5F5F5"/>
<path d="M252.032 349.947C178.227 310.843 86.2532 516.102 215.85 580.952C217.097 581.575 331.675 581.124 363.377 580.988C369.026 580.965 374.502 578.899 378.659 575.071C409.809 546.367 414.84 494.777 414.84 494.777C414.84 494.777 390.962 428.88 388.069 425.981C385.172 423.09 252.032 349.947 252.032 349.947Z" fill="#D0DCF8"/>
<path d="M401.699 579.366H691.512C693.805 579.366 695.665 577.504 695.665 575.21V422.761C695.665 420.467 693.805 418.605 691.512 418.605H401.699C399.407 418.605 397.547 420.467 397.547 422.761V575.21C397.547 577.504 399.407 579.366 401.699 579.366Z" fill="white"/>
<path d="M724.95 461.474H573.376C570.078 461.474 567.408 464.151 567.408 467.451V553.685C567.408 556.985 570.083 559.661 573.376 559.661H724.95C728.247 559.661 730.921 556.985 730.921 553.685V467.451C730.921 464.151 728.247 461.474 724.95 461.474Z" fill="#6F9EE8"/>
<path d="M719.303 451.187H559.706C558.623 451.187 557.75 452.066 557.75 453.144V547.412C557.75 548.496 558.628 549.37 559.706 549.37H719.303C720.385 549.37 721.259 548.491 721.259 547.412V453.144C721.263 452.066 720.385 451.187 719.303 451.187Z" fill="#84B4FE"/>
<path d="M574.572 503.014L617.508 480.883V487.274L581.326 505.427V505.613L617.508 523.761V530.152L574.572 508.021V503.014Z" fill="white"/>
<path d="M623.547 533.848L649.363 466.709H655.657L629.746 533.848H623.547Z" fill="white"/>
<path d="M704.439 508.108L661.504 530.147V523.757L697.962 505.609V505.422L661.504 487.269V480.879L704.439 502.919V508.108Z" fill="white"/>
<path d="M483.595 463.259H433.305C428.612 463.259 424.805 459.449 424.805 454.751C424.805 450.054 428.612 446.244 433.305 446.244H483.595C488.289 446.244 492.096 450.054 492.096 454.751C492.096 459.449 488.289 463.259 483.595 463.259Z" fill="#D4CCF3"/>
<path d="M529.782 506.287H433.305C428.612 506.287 424.805 502.477 424.805 497.78C424.805 493.082 428.612 489.272 433.305 489.272H529.782C534.476 489.272 538.283 493.082 538.283 497.78C538.287 502.477 534.481 506.287 529.782 506.287Z" fill="#D4CCF3"/>
<path d="M529.782 549.31H433.305C428.612 549.31 424.805 545.501 424.805 540.803C424.805 536.106 428.612 532.296 433.305 532.296H529.782C534.476 532.296 538.283 536.106 538.283 540.803C538.287 545.501 534.481 549.31 529.782 549.31Z" fill="#D4CCF3"/>
<path d="M910.086 549.242L907.839 562.629C910.627 569.994 909.386 579.312 909.386 579.312L854.652 579.298C860.579 568.214 886.253 567.404 888.96 562.101C891.666 556.794 892.871 541.058 892.871 541.058L910.086 549.242Z" fill="#FFB7D6"/>
<path d="M897.779 563.326C897.865 561.409 896.46 554.504 891.498 552.447C890.879 556.22 890.038 559.989 888.96 562.106C886.253 567.413 860.579 568.223 854.652 579.303L909.386 579.316C909.386 579.316 910.627 569.994 907.839 562.634C907.839 562.629 897.951 566.79 897.779 563.326Z" fill="#517FC4"/>
<path d="M856.122 577.186C855.554 577.846 855.053 578.547 854.648 579.302L909.382 579.316C909.382 579.316 909.491 578.492 909.573 577.145L856.122 577.186Z" fill="#517FC4"/>
<path d="M892.947 564.737C892.825 564.732 892.711 564.65 892.665 564.527C892.656 564.505 891.842 562.27 890.25 561.569C889.591 561.277 888.877 561.291 888.126 561.61C887.967 561.678 887.781 561.6 887.712 561.441C887.644 561.282 887.722 561.095 887.881 561.027C888.799 560.64 889.677 560.631 890.5 560.995C892.342 561.81 893.216 564.213 893.252 564.318C893.311 564.482 893.225 564.664 893.061 564.718C893.029 564.732 892.988 564.741 892.947 564.737Z" fill="#517FC4"/>
<path d="M887.773 568.369C887.65 568.364 887.536 568.282 887.491 568.16C887.482 568.137 886.668 565.902 885.076 565.201C884.416 564.91 883.702 564.923 882.956 565.242C882.797 565.31 882.611 565.233 882.542 565.073C882.474 564.914 882.552 564.727 882.711 564.659C883.629 564.272 884.507 564.263 885.331 564.627C887.173 565.442 888.046 567.846 888.082 567.95C888.141 568.114 888.055 568.296 887.891 568.351C887.85 568.364 887.814 568.369 887.773 568.369Z" fill="#517FC4"/>
<path d="M879.283 570.782C879.16 570.777 879.046 570.695 879.001 570.572C878.992 570.549 878.177 568.314 876.586 567.614C875.926 567.322 875.212 567.336 874.466 567.654C874.307 567.723 874.12 567.645 874.052 567.486C873.984 567.327 874.061 567.14 874.221 567.072C875.139 566.685 876.017 566.676 876.84 567.04C878.682 567.855 879.556 570.258 879.592 570.363C879.651 570.527 879.565 570.709 879.401 570.763C879.36 570.777 879.324 570.782 879.283 570.782Z" fill="#517FC4"/>
<path d="M899.915 349.099C891.746 434.764 884.742 557.818 884.742 557.818L918.203 558.988L934.545 459.69L924.817 347.156L899.915 349.099Z" fill="#3A376B"/>
<path d="M970.49 549.242L968.244 562.629C971.032 569.994 969.79 579.312 969.79 579.312L915.057 579.298C920.983 568.214 946.658 567.404 949.364 562.101C952.07 556.794 953.275 541.058 953.275 541.058L970.49 549.242Z" fill="#FFB7D6"/>
<path d="M958.183 563.326C958.269 561.409 956.864 554.504 951.902 552.447C951.283 556.22 950.442 559.989 949.364 562.106C946.658 567.413 920.983 568.223 915.057 579.302L969.79 579.316C969.79 579.316 971.032 569.994 968.244 562.634C968.244 562.629 958.356 566.79 958.183 563.326Z" fill="#517FC4"/>
<path d="M916.53 577.186C915.962 577.846 915.461 578.547 915.057 579.302L969.79 579.316C969.79 579.316 969.899 578.492 969.981 577.145L916.53 577.186Z" fill="#517FC4"/>
<path d="M953.352 564.737C953.229 564.732 953.115 564.65 953.07 564.527C953.061 564.505 952.246 562.27 950.655 561.569C949.995 561.277 949.281 561.291 948.531 561.61C948.371 561.678 948.185 561.6 948.117 561.441C948.048 561.282 948.126 561.095 948.285 561.027C949.204 560.64 950.081 560.631 950.905 560.995C952.747 561.81 953.62 564.213 953.656 564.318C953.715 564.482 953.629 564.664 953.465 564.718C953.434 564.732 953.393 564.741 953.352 564.737Z" fill="#517FC4"/>
<path d="M948.177 568.369C948.054 568.364 947.941 568.283 947.895 568.16C947.886 568.137 947.072 565.902 945.48 565.201C944.821 564.91 944.107 564.923 943.361 565.242C943.202 565.31 943.015 565.233 942.947 565.074C942.879 564.914 942.956 564.728 943.115 564.659C944.034 564.272 944.912 564.263 945.735 564.627C947.577 565.442 948.45 567.846 948.487 567.95C948.546 568.114 948.459 568.296 948.295 568.351C948.259 568.365 948.218 568.369 948.177 568.369Z" fill="#517FC4"/>
<path d="M939.686 570.782C939.563 570.777 939.449 570.695 939.404 570.572C939.395 570.549 938.58 568.314 936.989 567.614C936.329 567.322 935.615 567.336 934.865 567.654C934.705 567.723 934.519 567.645 934.451 567.486C934.382 567.327 934.46 567.14 934.619 567.072C935.538 566.685 936.416 566.676 937.239 567.04C939.081 567.855 939.954 570.258 939.99 570.363C940.049 570.527 939.963 570.709 939.799 570.763C939.768 570.777 939.727 570.782 939.686 570.782Z" fill="#517FC4"/>
<path d="M961.001 343.255C968.006 374.016 975.788 558.979 975.788 558.979H944.273C944.273 558.979 901.083 367.398 902.252 349.095C903.416 330.797 961.001 343.255 961.001 343.255Z" fill="#3A376B"/>
<path d="M964.114 551.864C964.123 551.864 964.128 551.864 964.137 551.864C964.291 551.85 964.405 551.718 964.396 551.564C964.282 550.116 952.939 406.056 938.316 352.14C938.275 351.99 938.121 351.903 937.975 351.944C937.825 351.985 937.739 352.14 937.78 352.286C952.389 406.152 963.727 550.157 963.841 551.605C963.85 551.75 963.973 551.864 964.114 551.864Z" fill="#1B2348"/>
<path d="M974.183 553.812C974.338 553.812 974.46 553.689 974.46 553.535C974.46 553.38 974.338 553.252 974.183 553.252L946.02 553.107C945.861 553.102 945.738 553.23 945.738 553.384C945.738 553.539 945.861 553.667 946.016 553.667L974.183 553.812Z" fill="#D4D4D4"/>
<path d="M803.615 312.885H839.61C841.757 312.885 843.499 311.142 843.499 308.993V255.446C843.499 253.297 841.757 251.554 839.61 251.554H803.615C801.469 251.554 799.727 253.297 799.727 255.446V308.993C799.727 311.142 801.464 312.885 803.615 312.885Z" fill="#517FC4"/>
<path d="M838.806 252.892H803.98V305.265H838.806V252.892Z" fill="white"/>
<path d="M884.153 295.798C882.193 295.807 880.896 301.67 878.9 301.346C864.941 299.089 853.803 291.059 853.803 289.712C853.803 288.173 850.387 275.114 849.755 274.026C849.123 272.938 843.96 272.756 843.324 272.306C842.691 271.851 841.873 269.948 841.873 269.948C840.604 270.221 838.794 271.942 839.79 273.935C840.786 275.929 843.501 277.29 843.501 277.29L843.51 292.22C842.787 299.289 874.961 327.31 886.191 328.216C890.339 326.987 906.021 310.673 904.77 303.731C903.351 295.825 884.153 295.798 884.153 295.798Z" fill="#FFB7D6"/>
<path d="M907.616 303.927C910.568 306.995 906.77 312.881 903.054 314.06C899.339 315.238 877.657 301.123 876.929 296.731C876.202 292.338 880.222 289.047 884.698 291.665C889.164 294.291 907.616 303.927 907.616 303.927Z" fill="#8F80C7"/>
<path d="M941.836 263.157C941.422 242.182 914.529 244.585 905.555 257.298C899.856 265.373 881.199 293.972 881.199 293.972C884.01 298.533 900.77 309.239 906.315 306.963C914.906 292.807 943.624 277.513 941.836 263.157Z" fill="#8F80C7"/>
<path d="M936.612 243.302C956.238 258.559 963.824 348.221 963.824 348.221C932.309 355.813 898.748 351.143 898.748 351.143C898.748 323.691 899.476 267.326 913.12 251.991C926.765 236.661 936.612 243.302 936.612 243.302Z" fill="#B5A7E9"/>
<path d="M905.677 217.384C905.386 217.347 902.502 217.93 902.502 217.93L905.349 218.585L905.677 217.384Z" fill="#517FC4"/>
<path d="M934.057 233.301C934.13 237.462 936.609 242.938 936.609 243.306C932.816 248.418 911.73 253.234 913.117 251.996C914.505 250.753 914.505 245.864 912.899 241.044C906.918 242.359 904.73 238.122 903.925 233.16C903.12 228.199 905.094 209.068 905.094 209.068L905.604 207.024C905.604 207.024 907.791 206.514 908.155 206.514C908.519 206.514 919.244 210.601 919.244 210.601C919.244 210.601 926.466 217.101 926.685 217.393C926.903 217.684 931.133 223.524 931.133 224.038C931.133 224.553 931.133 229.15 931.133 229.733C931.133 230.315 934.057 233.301 934.057 233.301Z" fill="#FFB7D6"/>
<path d="M906.047 207.529C905.537 211.981 908.598 213.223 912.687 215.631C916.771 218.039 913.101 225.122 913.756 224.758C914.411 224.393 917.499 221.835 917.499 221.835C917.499 221.835 922.679 223.661 922.971 224.025C924.067 226.36 923.116 227.53 923.407 229.646C923.698 231.763 932.017 235.705 934.496 234.904C936.975 234.102 934.35 233.661 933.768 232.204C933.186 230.748 935.883 224.175 937.707 221.18C939.531 218.185 941.209 207.602 934.277 203.583C927.346 199.568 919.323 198.835 919.323 195.699C919.032 192.34 903.49 192.194 901.084 200.883C898.678 209.573 905.096 213.587 904.659 212.418C904.145 210.52 906.047 207.529 906.047 207.529Z" fill="#181670"/>
<path d="M950.982 321.606C948.076 331.406 927.605 356.728 926.035 356.564C924.466 356.4 920.828 351.252 917.453 351.762C914.083 352.272 906.001 357.771 907.833 359.55C909.666 361.33 914.101 356.387 916.539 356.86C909.553 361.535 907.333 365.686 908.679 366.751C910.026 367.812 911.145 367.498 911.145 367.498C913.523 369.05 918.422 366.697 921.255 366.51C924.089 366.323 929.315 369.582 933.899 369.2C938.484 368.818 940.371 364.252 941.176 363.797C941.982 363.342 976.675 332.831 976.962 319.872C977.248 306.909 958.392 295.11 958.392 295.11L950.982 321.606Z" fill="#FFB7D6"/>
<path d="M964.749 296.353C968.556 294.446 973.036 299.826 973.058 303.727C973.081 307.628 953.164 324.146 948.757 323.536C944.35 322.926 942.408 318.102 946.237 314.61C950.067 311.119 964.749 296.353 964.749 296.353Z" fill="#8F80C7"/>
<path d="M936.041 251.527C915.91 245.682 910.202 272.096 919.658 284.45C925.666 292.297 947.402 318.629 947.402 318.629C952.592 317.3 967.792 304.469 967.264 298.497C956.312 286.08 950.263 254.089 936.041 251.527Z" fill="#8F80C7"/>
<path d="M922.101 358.303C922.073 358.298 922.042 358.294 922.014 358.28C921.991 358.271 919.954 357.347 918.03 356.933C917.88 356.901 917.789 356.755 917.821 356.605C917.853 356.455 917.998 356.364 918.148 356.396C920.127 356.824 922.16 357.739 922.242 357.78C922.378 357.843 922.442 358.007 922.378 358.144C922.328 358.253 922.214 358.317 922.101 358.303Z" fill="#E0B3A8"/>
<path d="M912.276 366.647C912.221 366.642 912.167 366.619 912.126 366.583C912.012 366.483 911.998 366.31 912.099 366.196C914.122 363.87 917.042 361.08 919.471 361.011C921.682 360.952 922.75 361.426 922.796 361.448C922.932 361.512 922.996 361.671 922.932 361.812C922.869 361.949 922.709 362.013 922.568 361.949C922.559 361.944 921.55 361.508 919.485 361.562C917.256 361.621 914.464 364.311 912.512 366.555C912.453 366.624 912.362 366.656 912.276 366.647Z" fill="#E0B3A8"/>
<path d="M923.642 225.3C923.973 223.258 922.587 221.334 920.547 221.002C918.506 220.671 916.583 222.058 916.252 224.1C915.921 226.142 917.307 228.067 919.347 228.398C921.388 228.729 923.311 227.343 923.642 225.3Z" fill="#FFB7D6"/>
<path d="M814.586 256.224H826.352C829.144 256.224 831.409 253.957 831.409 251.163V249.069H809.523V251.163C809.523 253.957 811.788 256.224 814.586 256.224Z" fill="#707070"/>
<path d="M820.445 257.735C821.841 257.735 822.974 256.602 822.974 255.205C822.974 253.807 821.841 252.674 820.445 252.674C819.048 252.674 817.916 253.807 817.916 255.205C817.916 256.602 819.048 257.735 820.445 257.735Z" fill="#808080"/>
<path d="M928.513 488.193C928.54 488.193 928.567 488.189 928.595 488.184C928.795 488.139 928.922 487.938 928.877 487.738C928.686 486.882 909.833 401.623 902.911 353.132C902.883 352.927 902.692 352.786 902.488 352.814C902.283 352.841 902.142 353.032 902.169 353.237C909.096 401.755 927.958 487.042 928.144 487.898C928.185 488.075 928.34 488.193 928.513 488.193Z" fill="#1B2348"/>
<path d="M605.756 158.124H410.942C400.554 158.124 392.131 149.694 392.131 139.297V41.9797C392.131 31.5834 400.554 23.1534 410.942 23.1534H605.756C616.145 23.1534 624.568 31.5834 624.568 41.9797V139.297C624.572 149.694 616.149 158.124 605.756 158.124Z" fill="#899ED0"/>
<path d="M365.567 105.332H293.51C290.667 105.332 288.361 103.024 288.361 100.179V79.0678C288.361 76.223 290.667 73.9152 293.51 73.9152H365.567C368.41 73.9152 370.716 76.223 370.716 79.0678V100.179C370.712 103.024 368.406 105.332 365.567 105.332Z" fill="#84B4FE"/>
<path d="M211.449 147.158C211.449 145.442 247.762 101.581 266.969 78.4989C273.546 70.5924 285.04 68.9674 293.554 74.73C302.764 80.966 305.129 93.5153 298.821 102.678L247.339 177.482L211.449 147.158Z" fill="#84B4FE"/>
<path d="M297.862 97.1171C300.011 88.0062 294.374 78.8765 285.27 76.7251C276.166 74.5738 267.044 80.2156 264.894 89.3264C262.745 98.4373 268.382 107.567 277.486 109.718C286.589 111.87 295.712 106.228 297.862 97.1171Z" fill="#517FC4"/>
<path d="M242.687 198.94H147.584C142.181 198.94 137.801 194.556 137.801 189.149V149.02C137.801 143.612 142.181 139.229 147.584 139.229H242.687C248.091 139.229 252.471 143.612 252.471 149.02V189.149C252.471 194.556 248.091 198.94 242.687 198.94Z" fill="#84B4FE"/>
<path d="M594.908 146.539H400.089C389.701 146.539 381.277 138.109 381.277 127.713V30.3954C381.277 19.999 389.701 11.5691 400.089 11.5691H594.903C605.291 11.5691 613.714 19.999 613.714 30.3954V127.713C613.719 138.109 605.296 146.539 594.908 146.539Z" fill="#D0DCF8"/>
<path d="M416.676 53.737V74.9166H441.141V53.737H447.745V104.362H441.141V80.6291H416.676V104.362H410.145V53.737H416.676Z" fill="white"/>
<path d="M468.68 59.2948H453.293V53.737H490.743V59.2948H475.284V104.362H468.68V59.2948Z" fill="white"/>
<path d="M539.001 82.1312C538.628 75.0713 538.178 66.5822 538.25 60.2734H538.028C536.299 66.209 534.198 72.5178 531.646 79.5003L522.714 104.062H517.761L509.578 79.9509C507.177 72.8137 505.148 66.2818 503.725 60.2734H503.575C503.425 66.5822 503.052 75.0714 502.601 82.6547L501.251 104.362H495.02L498.549 53.737H506.881L515.514 78.2212C517.615 84.4572 519.343 90.0149 520.617 95.2723H520.844C522.118 90.1651 523.924 84.6074 526.175 78.2212L535.18 53.737H543.513L546.665 104.362H540.283L539.001 82.1312Z" fill="white"/>
<path d="M556.707 53.737H563.238V98.8773H584.851V104.362H556.707V53.737Z" fill="white"/>
<path d="M373.139 99.8112C378.848 97.4445 381.559 90.8942 379.195 85.1806C376.83 79.467 370.285 76.7538 364.575 79.1205C358.866 81.4872 356.155 88.0375 358.52 93.7511C360.885 99.4647 367.43 102.178 373.139 99.8112Z" fill="#517FC4"/>
<path d="M371.952 93.356V112.637H401.32V99.5783H381.899V67.5427H371.643L371.952 93.356Z" fill="#517FC4"/>
<path d="M162.936 175.235C165.645 161.765 156.93 148.647 143.47 145.936C130.01 143.225 116.903 151.947 114.194 165.417C111.485 178.888 120.2 192.005 133.66 194.716C147.12 197.427 160.227 188.705 162.936 175.235Z" fill="#517FC4"/>
<path d="M155.18 173.639C157.014 164.459 151.064 155.53 141.891 153.695C132.718 151.86 123.796 157.814 121.962 166.994C120.129 176.174 126.079 185.104 135.252 186.939C144.424 188.774 153.347 182.819 155.18 173.639Z" fill="#517FC4"/>
<path d="M264.187 441.965C264.187 444.774 263.064 458.529 269.518 458.529C275.972 458.529 281.58 460.072 283.122 463.723C284.663 467.373 286.069 473.268 283.403 473.969C280.738 474.67 279.337 468.775 278.632 467.091C277.932 465.407 274.566 464.984 274.566 464.984C274.566 464.984 277.791 468.352 278.214 471.302C278.637 474.251 278.773 478.603 276.108 477.761C272.46 479.445 268.672 477.478 268.672 477.478C266.007 476.777 265.024 471.584 258.293 472.285C251.561 472.986 246.09 471.725 245.389 463.299C244.689 454.879 245.389 444.628 245.389 444.628L264.187 441.965Z" fill="#FFB7D6"/>
<path d="M376.789 551.295L378.999 564.154C376.343 571.241 377.571 580.199 377.571 580.199L430.185 579.994C424.45 569.361 399.762 568.674 397.142 563.585C394.523 558.496 393.308 543.37 393.308 543.37L376.789 551.295Z" fill="#FFB7D6"/>
<path d="M388.668 564.787C388.577 562.943 389.905 556.302 394.667 554.304C395.277 557.927 396.095 561.55 397.142 563.58C399.761 568.669 424.449 569.361 430.184 579.99L377.571 580.194C377.571 580.194 376.343 571.241 378.999 564.149C378.999 564.154 388.518 568.114 388.668 564.787Z" fill="#517FC4"/>
<path d="M428.766 577.964C429.316 578.597 429.799 579.27 430.19 579.99L377.576 580.194C377.576 580.194 377.467 579.402 377.385 578.11L428.766 577.964Z" fill="#517FC4"/>
<path d="M393.317 566.129C393.435 566.125 393.544 566.047 393.59 565.929C393.599 565.906 394.372 563.758 395.9 563.075C396.533 562.793 397.219 562.806 397.938 563.107C398.093 563.171 398.27 563.098 398.334 562.943C398.397 562.788 398.325 562.611 398.17 562.547C397.288 562.178 396.437 562.174 395.65 562.524C393.881 563.312 393.053 565.629 393.017 565.729C392.962 565.888 393.044 566.061 393.203 566.116C393.244 566.125 393.281 566.129 393.317 566.129Z" fill="#517FC4"/>
<path d="M398.311 569.598C398.429 569.593 398.539 569.516 398.584 569.398C398.593 569.375 399.366 567.226 400.895 566.544C401.527 566.261 402.214 566.27 402.932 566.575C403.087 566.639 403.264 566.566 403.328 566.412C403.392 566.257 403.319 566.079 403.164 566.016C402.282 565.647 401.436 565.638 400.644 565.993C398.875 566.78 398.047 569.097 398.011 569.197C397.956 569.357 398.038 569.53 398.197 569.584C398.234 569.598 398.27 569.602 398.311 569.598Z" fill="#517FC4"/>
<path d="M406.479 571.887C406.597 571.883 406.707 571.806 406.752 571.687C406.761 571.664 407.534 569.516 409.063 568.833C409.695 568.551 410.382 568.565 411.1 568.865C411.255 568.929 411.432 568.856 411.496 568.701C411.56 568.546 411.487 568.369 411.332 568.305C410.45 567.936 409.599 567.932 408.812 568.282C407.043 569.07 406.215 571.387 406.179 571.487C406.124 571.646 406.206 571.819 406.365 571.874C406.402 571.883 406.443 571.887 406.479 571.887Z" fill="#517FC4"/>
<path d="M342.039 410.257L345.154 421.177C376.519 425.761 421.519 432.78 424.152 450.322C426.781 467.87 402.821 515.536 402.821 515.536L401.361 553.553H373.017L356.07 475.471C356.07 475.471 289.443 478.393 283.599 460.851C277.754 443.303 277.172 423.708 277.172 423.708L314.868 399.729L342.039 410.257Z" fill="#3A376B"/>
<path d="M402.045 513.57C402.049 513.57 402.049 513.57 402.054 513.57C402.258 513.565 402.422 513.392 402.418 513.187C402.363 510.843 400.985 455.657 395.159 445.934C389.282 436.134 331.857 430.772 329.414 430.549C329.205 430.531 329.027 430.681 329.009 430.886C328.991 431.091 329.141 431.273 329.346 431.291C329.942 431.346 388.837 436.844 394.517 446.317C400.244 455.871 401.658 512.627 401.672 513.201C401.676 513.41 401.84 513.57 402.045 513.57Z" fill="#27254D"/>
<path d="M294.267 443.531C294.308 443.531 294.345 443.526 294.386 443.513C295.873 443.017 297.633 441.005 298.661 438.62C299.552 436.549 300.708 432.338 298.406 427.358C298.32 427.172 298.097 427.09 297.91 427.176C297.724 427.263 297.642 427.486 297.728 427.673C299.912 432.388 298.82 436.371 297.979 438.324C296.919 440.782 295.25 442.439 294.154 442.807C293.958 442.871 293.853 443.085 293.917 443.281C293.963 443.431 294.108 443.531 294.267 443.531Z" fill="#E0C9C0"/>
<path d="M381.199 552.761C381.213 552.761 381.222 552.761 381.235 552.761C381.44 552.743 381.59 552.56 381.572 552.351C380.794 544.203 373.835 472.681 369.669 470.746C368.514 470.209 367.886 469.686 367.745 469.149C367.568 468.452 368.177 467.615 368.955 466.549C369.324 466.044 369.747 465.466 370.124 464.843C370.242 464.647 370.251 464.424 370.151 464.219C369.205 462.266 353.259 460.086 329.045 456.982C318.893 455.68 310.124 454.555 306.171 453.754C295.165 451.524 287.769 442.502 287.769 431.309C287.769 431.105 287.601 430.936 287.396 430.936C287.192 430.936 287.023 431.105 287.023 431.309C287.023 442.689 294.837 452.22 306.026 454.487C310.001 455.293 318.784 456.417 328.949 457.724C344.631 459.735 368.264 462.762 369.451 464.506C369.101 465.084 368.719 465.607 368.35 466.112C367.491 467.287 366.749 468.297 367.018 469.335C367.218 470.114 367.959 470.778 369.351 471.424C372.212 472.754 377.779 520.593 380.826 552.424C380.844 552.615 381.008 552.761 381.199 552.761Z" fill="#27254D"/>
<path d="M332.17 329.103C346.943 334.342 360.223 354.37 363.776 361.298C367.328 368.221 386.644 377.794 386.644 377.794C386.644 377.794 380.231 387.13 380.045 388.44C370.507 395.928 361.156 409.028 340.211 400.421C319.267 391.804 332.17 329.103 332.17 329.103Z" fill="#8F80C7"/>
<path d="M318.425 326.672C319.826 326.299 332.17 329.108 332.17 329.108C347.32 341.461 345.26 375.149 344.141 387.881C343.018 400.607 351.623 415.205 351.623 415.205C323.942 442.907 276.814 448.147 276.814 448.147C268.959 430.554 261.104 347.825 264.843 341.461C268.581 335.098 294.579 326.677 294.579 326.677H318.425V326.672Z" fill="#B5A7E9"/>
<path d="M321.137 293.167C324.361 291.059 321.696 286.708 322.119 286.571C326.185 282.22 318.189 275.76 316.229 275.76C314.264 275.76 315.388 278.428 312.863 277.445C310.339 276.461 298.696 275.337 297.713 282.92C292.806 283.763 296.676 301.838 296.676 301.838C296.676 301.838 305.85 305.52 306.55 305.243C307.251 304.96 321.137 293.167 321.137 293.167Z" fill="#181670"/>
<path d="M299.351 284.932L304.027 288.487C302.717 289.516 302.812 291.573 302.903 293.54C302.999 295.506 302.344 297.937 299.442 297.659C297.85 300.372 298.696 307.955 298.696 307.955L294.58 326.672C298.319 333.691 316.557 338.653 318.426 326.672C314.874 323.395 315.343 317.969 315.343 317.969C322.825 315.816 323.011 294.104 321.046 287.368C318.053 289.238 313.473 287.272 311.791 286.243C310.108 285.215 306.742 288.396 304.964 287.741C303.185 287.085 299.351 284.932 299.351 284.932Z" fill="#FFB7D6"/>
<path d="M297.225 306.745C299.159 306.288 300.356 304.349 299.9 302.414C299.443 300.478 297.505 299.28 295.572 299.737C293.638 300.194 292.44 302.133 292.897 304.068C293.354 306.004 295.291 307.202 297.225 306.745Z" fill="#F1A1C3"/>
<path d="M268.259 338.088C276.582 344.547 286.352 358.585 278.497 385.254C270.642 411.928 271.201 456.845 271.201 456.845L242.589 457.969C236.976 415.856 242.029 352.313 268.259 338.088Z" fill="#8F80C7"/>
<path d="M273.375 464.488C273.484 464.488 273.589 464.419 273.63 464.31C273.68 464.169 273.607 464.014 273.47 463.964L268.631 462.212C268.49 462.162 268.335 462.234 268.285 462.371C268.235 462.512 268.308 462.667 268.445 462.717L273.284 464.469C273.316 464.478 273.343 464.488 273.375 464.488Z" fill="#C57195"/>
<path d="M275.758 477.119C275.785 477.119 275.817 477.114 275.844 477.105C275.985 477.06 276.063 476.905 276.013 476.764C275.926 476.504 273.884 470.391 272.956 469.176C272.024 467.956 266.639 466.003 266.029 465.789C265.888 465.739 265.734 465.812 265.684 465.953C265.634 466.094 265.706 466.249 265.847 466.299C267.467 466.877 271.819 468.58 272.529 469.508C273.402 470.651 275.481 476.878 275.503 476.941C275.544 477.046 275.649 477.119 275.758 477.119Z" fill="#C57195"/>
<path d="M271.833 476.136C271.869 476.136 271.901 476.126 271.937 476.113C272.074 476.054 272.137 475.899 272.078 475.762C271.241 473.782 268.635 470.769 265.92 470.268C265.775 470.241 265.634 470.337 265.606 470.482C265.579 470.628 265.674 470.769 265.82 470.796C268.317 471.256 270.814 474.146 271.583 475.972C271.628 476.076 271.728 476.136 271.833 476.136Z" fill="#C57195"/>
<path d="M402.534 374.521H333.842L321.926 425.228H390.618L402.534 374.521Z" fill="#4359B7"/>
<path d="M405.514 374.521H336.823L324.906 425.228H393.598L405.514 374.521Z" fill="#6880E4"/>
<path d="M369.109 403.684H358.994V398.382C358.994 397.098 360.031 396.06 361.314 396.06H371.429V401.363C371.424 402.647 370.387 403.684 369.109 403.684Z" fill="white"/>
<path d="M393.287 425.228H298.17V429.739H393.287V425.228Z" fill="#4359B7"/>
<path d="M405.036 408.737C411.626 403.962 414.292 387.539 403.353 384.03C402.93 384.59 402.371 388.805 402.371 388.805C402.371 388.805 385.961 390.348 385.26 395.4C382.736 398.068 385.542 401.017 385.542 401.017C385.26 403.967 392.415 405.792 392.415 405.792C392.415 405.792 388.066 404.95 388.207 407.057C388.344 409.156 400.128 410.84 405.036 408.737Z" fill="#FFB7D6"/>
<path d="M390.446 396.907C394.148 396.907 399.802 396.529 403.581 394.503C403.668 394.458 403.7 394.349 403.654 394.262C403.609 394.176 403.5 394.144 403.413 394.189C397.496 397.357 386.858 396.424 386.753 396.415C386.653 396.406 386.567 396.479 386.557 396.579C386.548 396.679 386.621 396.766 386.721 396.775C386.758 396.775 388.263 396.907 390.446 396.907Z" fill="#C57195"/>
<path d="M399.087 403.161C399.124 403.161 399.146 403.161 399.146 403.161C399.246 403.161 399.324 403.079 399.324 402.979C399.324 402.879 399.255 402.801 399.142 402.801C399.078 402.801 392.779 402.847 386.288 400.912C386.193 400.885 386.093 400.94 386.066 401.035C386.038 401.131 386.093 401.231 386.188 401.258C392.392 403.106 398.423 403.161 399.087 403.161Z" fill="#C57195"/>
<path d="M396.49 406.475C396.827 406.475 397.032 406.461 397.054 406.457C397.155 406.447 397.227 406.361 397.218 406.265C397.209 406.165 397.123 406.092 397.027 406.102C397.009 406.102 395.272 406.234 393.088 405.687C392.993 405.665 392.893 405.724 392.87 405.819C392.847 405.915 392.906 406.015 393.002 406.038C394.512 406.411 395.795 406.475 396.49 406.475Z" fill="#C57195"/>
<path d="M439.207 204.402H349.23C340.374 204.402 333.197 211.585 333.197 220.442V274.263C333.197 283.125 340.374 290.308 349.23 290.308H435.237L455.24 316.185V274.268V220.442C455.24 211.585 448.063 204.402 439.207 204.402Z" fill="#E0B3A8"/>
<path d="M447.48 196.468H357.507C348.652 196.468 341.475 203.651 341.475 212.509V266.329C341.475 275.192 348.652 282.374 357.507 282.374H443.514L463.517 308.251V266.334V212.509C463.513 203.651 456.335 196.468 447.48 196.468Z" fill="url(#paint3_linear_622_807)"/>
<path d="M379.017 209.878H386.84V250.462C386.84 266.57 378.931 271.518 368.497 271.518C365.618 271.518 362.111 270.89 360.133 270.08L361.306 263.689C362.925 264.317 365.259 264.859 367.869 264.859C374.883 264.859 379.017 261.709 379.017 249.829V209.878Z" fill="white"/>
<path d="M398.818 260.994C402.324 263.152 407.45 264.955 412.844 264.955C420.849 264.955 425.52 260.726 425.52 254.608C425.52 248.937 422.282 245.7 414.1 242.551C404.207 239.041 398.094 233.911 398.094 225.363C398.094 215.913 405.913 208.894 417.693 208.894C423.897 208.894 428.395 210.333 431.092 211.862L428.931 218.253C426.953 217.174 422.91 215.372 417.42 215.372C409.151 215.372 405.999 220.319 405.999 224.462C405.999 230.133 409.688 232.923 418.048 236.16C428.299 240.12 433.516 245.072 433.516 253.98C433.516 263.339 426.594 271.436 412.294 271.436C406.45 271.436 400.068 269.729 396.83 267.567L398.818 260.994Z" fill="white"/>
<defs>
<linearGradient id="paint0_linear_622_807" x1="529.422" y1="299.899" x2="803.662" y2="299.899" gradientUnits="userSpaceOnUse">
<stop stop-color="#9942FF"/>
<stop offset="1" stop-color="#4D6DFF"/>
</linearGradient>
<linearGradient id="paint1_linear_622_807" x1="912.377" y1="461.198" x2="1137.71" y2="461.198" gradientUnits="userSpaceOnUse">
<stop stop-color="#9942FF"/>
<stop offset="1" stop-color="#4D6DFF"/>
</linearGradient>
<linearGradient id="paint2_linear_622_807" x1="225.332" y1="454.913" x2="0.00192261" y2="454.913" gradientUnits="userSpaceOnUse">
<stop stop-color="#9942FF"/>
<stop offset="1" stop-color="#4D6DFF"/>
</linearGradient>
<linearGradient id="paint3_linear_622_807" x1="341.475" y1="252.36" x2="463.517" y2="252.36" gradientUnits="userSpaceOnUse">
<stop stop-color="#FB9004"/>
<stop offset="1" stop-color="#FC067D"/>
</linearGradient>
</defs>
</svg>
