<svg width="1222" height="765" viewBox="0 0 1222 765" fill="none" xmlns="http://www.w3.org/2000/svg">
<path opacity="0.16" d="M809.497 9.10096C569.013 -31.9997 262.012 65.6053 263.718 312.187C-10.8746 377.255 -34.7525 591.3 30.0573 730H1184.72C1322.87 307.049 1049.98 50.196 809.497 9.10096Z" fill="#B5A7E9"/>
<path d="M1194.5 513.386L1170.93 513.887L1158.96 514.089C1154.97 514.173 1150.95 514.155 1146.94 514.187L1146.14 514.193L1146.14 513.386L1146.04 493.289L1146.04 492.388L1146.94 492.391L1170.72 492.504C1178.64 492.513 1186.57 492.705 1194.5 492.799L1194.99 492.804L1194.99 493.289C1194.95 496.7 1194.83 500.091 1194.75 503.444L1194.5 513.386ZM1194.5 513.386L1194.25 503.232C1194.16 499.886 1194.04 496.578 1194.01 493.289L1194.5 493.779C1186.57 493.871 1178.65 494.065 1170.72 494.074L1146.94 494.187L1147.84 493.291L1147.74 513.388L1146.94 512.587C1150.86 512.619 1154.77 512.601 1158.7 512.686L1170.51 512.887L1194.5 513.386Z" fill="#BAB2DC"/>
<path d="M1167.97 538.728L1144.4 539.229L1132.43 539.43C1128.44 539.515 1124.42 539.497 1120.41 539.529L1119.61 539.536L1119.61 538.73L1119.51 518.632L1119.51 517.731L1120.41 517.734L1144.19 517.848C1152.11 517.857 1160.04 518.049 1167.97 518.142L1168.46 518.147L1168.46 518.632C1168.42 522.043 1168.3 525.434 1168.22 528.787L1167.97 538.728ZM1167.97 538.728L1167.71 528.573C1167.63 525.227 1167.51 521.919 1167.48 518.631L1167.97 519.121C1160.04 519.213 1152.12 519.406 1144.19 519.415L1120.41 519.529L1121.31 518.632L1121.21 538.73L1120.41 537.929C1124.33 537.961 1128.24 537.943 1132.17 538.027L1143.98 538.229L1167.97 538.728Z" fill="#BAB2DC"/>
<path d="M1221.03 538.728L1197.46 539.229L1185.49 539.43C1181.5 539.515 1177.48 539.497 1173.47 539.529L1172.67 539.536L1172.67 538.73L1172.57 518.632L1172.57 517.731L1173.47 517.734L1197.25 517.848C1205.17 517.857 1213.1 518.049 1221.03 518.142L1221.52 518.147L1221.52 518.632C1221.48 522.043 1221.36 525.434 1221.28 528.787L1221.03 538.728ZM1221.03 538.728L1220.77 528.573C1220.69 525.227 1220.57 521.919 1220.54 518.631L1221.03 519.121C1213.1 519.213 1205.18 519.406 1197.25 519.415L1173.47 519.529L1174.37 518.632L1174.27 538.73L1173.47 537.929C1177.39 537.961 1181.3 537.943 1185.23 538.027L1197.04 538.229L1221.03 538.728Z" fill="#BAB2DC"/>
<path d="M516.366 274.236L492.793 274.737L480.83 274.939C476.832 275.023 472.815 275.005 468.806 275.037L468.008 275.045L468.005 274.238L467.908 254.141L467.904 253.239L468.806 253.243L492.585 253.356C500.511 253.365 508.438 253.559 516.364 253.651L516.86 253.656L516.854 254.141C516.82 257.552 516.7 260.942 516.619 264.295L516.366 274.236ZM516.366 274.236L516.111 264.082C516.03 260.736 515.91 257.428 515.875 254.139L516.366 254.629C508.44 254.721 500.512 254.915 492.587 254.924L468.808 255.037L469.704 254.141L469.607 274.238L468.806 273.437C472.725 273.469 476.633 273.451 480.563 273.536L492.378 273.737L516.366 274.236Z" fill="#BAB2DC"/>
<path d="M489.838 299.578L466.266 300.079L454.303 300.28C450.305 300.365 446.287 300.347 442.279 300.379L441.481 300.386L441.478 299.58L441.381 279.482L441.377 278.581L442.279 278.584L466.058 278.698C473.983 278.707 481.911 278.901 489.837 278.992L490.332 278.998L490.327 279.482C490.293 282.893 490.172 286.284 490.092 289.637L489.838 299.578ZM489.838 299.578L489.583 289.423C489.503 286.077 489.382 282.769 489.348 279.481L489.838 279.971C481.913 280.063 473.985 280.257 466.059 280.266L442.28 280.379L443.177 279.482L443.08 299.58L442.279 298.779C446.197 298.811 450.106 298.793 454.035 298.877L465.851 299.079L489.838 299.578Z" fill="#BAB2DC"/>
<path d="M542.897 299.578L519.325 300.079L507.361 300.28C503.364 300.365 499.346 300.347 495.337 300.379L494.54 300.386L494.536 299.58L494.439 279.482L494.436 278.581L495.337 278.584L519.116 278.698C527.042 278.707 534.969 278.901 542.895 278.992L543.391 278.998L543.386 279.482C543.351 282.893 543.231 286.284 543.15 289.637L542.897 299.578ZM542.897 299.578L542.642 289.423C542.561 286.077 542.441 282.769 542.407 279.481L542.897 279.971C534.971 280.063 527.044 280.257 519.118 280.266L495.339 280.379L496.235 279.482L496.138 299.58L495.337 298.779C499.256 298.811 503.164 298.793 507.094 298.877L518.91 299.079L542.897 299.578Z" fill="#BAB2DC"/>
<path d="M128.588 407.212L105.016 407.713L93.0528 407.914C89.0549 407.999 85.0372 407.981 81.0285 408.013L80.2311 408.019L80.2275 407.212L80.1305 387.115L80.127 386.213L81.0285 386.217L104.808 386.33C112.733 386.339 120.661 386.533 128.587 386.625L129.082 386.63L129.077 387.115C129.043 390.526 128.922 393.916 128.842 397.27L128.588 407.212ZM128.588 407.212L128.333 397.058C128.253 393.712 128.132 390.403 128.098 387.115L128.588 387.605C120.663 387.697 112.735 387.891 104.809 387.9L81.0303 388.013L81.9265 387.117L81.8296 407.214L81.0285 406.413C84.9474 406.445 88.8555 406.427 92.7852 406.512L104.601 406.713L128.588 407.212Z" fill="#BAB2DC"/>
<path d="M917 274.222L893.428 274.723L881.465 274.924C877.467 275.009 873.449 274.991 869.441 275.023L868.643 275.028L868.639 274.222L868.543 254.125L868.537 253.223L869.439 253.227L893.218 253.34C901.143 253.349 909.071 253.543 916.997 253.634L917.492 253.64L917.487 254.125C917.453 257.535 917.333 260.926 917.252 264.279L917 274.222ZM917 274.222L916.745 264.067C916.664 260.721 916.544 257.413 916.51 254.125L917 254.615C909.075 254.707 901.147 254.901 893.221 254.91L869.442 255.023L870.339 254.127L870.242 274.224L869.441 273.423C873.359 273.455 877.267 273.437 881.197 273.522L893.013 273.723L917 274.222Z" fill="#BAB2DC"/>
<path d="M484.398 62.5813H271.508V206.044H484.398V62.5813Z" fill="white"/>
<path d="M485.296 206.942H270.609V61.6833H485.296V206.942ZM272.405 205.146H483.5V63.4793H272.405V205.146Z" fill="#BAB2DC"/>
<path d="M292.08 73.4363C292.08 76.1447 289.885 78.3394 287.177 78.3394C284.468 78.3394 282.273 76.1447 282.273 73.4363C282.273 70.7298 284.468 68.5333 287.177 68.5333C289.885 68.5333 292.08 70.728 292.08 73.4363Z" fill="#37474F"/>
<path d="M312.099 73.4363C312.099 76.1447 309.904 78.3394 307.196 78.3394C304.489 78.3394 302.293 76.1447 302.293 73.4363C302.293 70.7298 304.488 68.5333 307.196 68.5333C309.904 68.5333 312.099 70.728 312.099 73.4363Z" fill="#BAB2DC"/>
<path d="M332.119 73.4363C332.119 76.1447 329.924 78.3394 327.216 78.3394C324.507 78.3394 322.312 76.1447 322.312 73.4363C322.312 70.7298 324.507 68.5333 327.216 68.5333C329.924 68.5333 332.119 70.728 332.119 73.4363Z" fill="#BAB2DC"/>
<path d="M484.398 83.2946H271.508V85.0906H484.398V83.2946Z" fill="#BAB2DC"/>
<path d="M310.207 251.815C310.207 249.572 310.505 243.591 310.505 241.048C310.505 230.13 306.617 225.193 296.448 224.895C291.662 224.596 288.82 221.755 288.82 217.718C288.82 213.677 291.66 210.837 296.448 210.539C306.617 210.092 310.505 205.304 310.505 194.237C310.505 191.696 310.207 185.713 310.207 183.47C310.207 168.962 316.339 159.689 339.52 154.606C344.155 153.557 347.745 156.401 347.745 160.738C347.745 164.328 345.353 166.271 343.559 166.869C329.053 171.356 326.957 175.993 326.957 186.162C326.957 189.154 327.258 194.088 327.258 197.231C327.258 208.896 321.576 214.58 311.701 217.721C321.725 221.01 327.258 226.543 327.258 238.208C327.258 241.35 326.957 246.283 326.957 249.275C326.957 259.444 329.053 264.082 343.559 268.568C345.353 269.164 347.745 271.109 347.745 274.699C347.745 279.039 344.155 281.878 339.52 280.833C316.337 275.745 310.207 266.472 310.207 251.815Z" fill="#BAB2DC"/>
<path d="M397.845 183.47C397.845 185.713 397.547 191.696 397.547 194.237C397.547 205.304 401.584 210.092 411.757 210.539C416.392 210.838 419.235 213.679 419.235 217.718C419.235 221.755 416.392 224.597 411.757 224.895C401.584 225.193 397.547 230.13 397.547 241.048C397.547 243.589 397.845 249.572 397.845 251.815C397.845 266.472 391.713 275.745 368.532 280.831C363.897 281.876 360.307 279.037 360.307 274.698C360.307 271.108 362.699 269.164 364.644 268.566C379.003 264.08 381.097 259.443 381.097 249.274C381.097 246.282 380.797 241.348 380.797 238.207C380.797 226.542 386.482 220.857 396.351 217.72C386.329 214.43 380.797 208.894 380.797 197.229C380.797 194.088 381.097 189.154 381.097 186.16C381.097 175.992 379.003 171.354 364.644 166.868C362.699 166.272 360.307 164.327 360.307 160.736C360.307 156.399 363.897 153.558 368.532 154.605C391.713 159.687 397.845 168.962 397.845 183.47Z" fill="#BAB2DC"/>
<path d="M1054.78 345.597C1057.19 348.111 1057.19 351.879 1054.78 354.297C1053.52 355.457 1052.07 356.037 1050.52 356.037C1048.88 356.037 1047.33 355.457 1046.08 354.297L1018.91 326.746C1018.62 326.649 1018.53 326.457 1018.43 326.166C1018.33 326.069 1018.14 325.972 1018.14 325.972C1017.95 325.683 1017.95 325.489 1017.85 325.2C1017.66 325.103 1017.56 324.91 1017.56 324.813C1017.46 324.62 1017.46 324.329 1017.37 324.233C1017.37 323.944 1017.17 323.847 1017.17 323.748C1017.17 323.459 1017.17 323.265 1017.17 323.073C1017.17 322.879 1017.08 322.784 1017.08 322.491C1017.08 322.396 1017.17 322.105 1017.17 322.008C1017.17 321.816 1017.17 321.525 1017.17 321.331C1017.17 321.139 1017.37 321.042 1017.37 320.945C1017.46 320.656 1017.46 320.462 1017.56 320.173C1017.56 320.076 1017.66 320.076 1017.66 319.98C1017.85 319.691 1017.95 319.303 1018.14 319.109C1018.14 319.109 1018.14 318.917 1018.33 318.917C1018.43 318.725 1018.62 318.434 1018.91 318.24L1046.08 290.691C1048.49 288.373 1052.46 288.373 1054.78 290.691C1057.19 293.107 1057.19 296.975 1054.78 299.391L1031.87 322.493L1054.78 345.597Z" fill="#BAB2DC"/>
<path d="M1079.42 348.69L1103.11 292.333C1104.27 289.626 1107.36 288.369 1110.16 289.529C1112.77 290.593 1114.03 293.782 1112.87 296.394L1089.19 352.847C1088.32 354.877 1086.29 356.037 1084.26 356.037C1083.68 356.037 1082.91 355.942 1082.32 355.651C1079.52 354.588 1078.26 351.398 1079.42 348.69Z" fill="#BAB2DC"/>
<path d="M1159.66 325.972C1159.66 325.972 1159.66 326.069 1159.56 326.069C1159.37 326.261 1159.17 326.552 1158.89 326.746L1131.72 354.297C1130.56 355.457 1128.92 356.037 1127.37 356.037C1125.73 356.037 1124.28 355.457 1123.02 354.297C1120.61 351.879 1120.61 348.109 1123.02 345.597L1145.93 322.491L1123.02 299.389C1120.61 296.974 1120.61 293.105 1123.02 290.689C1125.34 288.371 1129.3 288.371 1131.72 290.689L1158.89 318.238C1159.17 318.432 1159.37 318.723 1159.56 318.915C1159.66 318.915 1159.66 319.108 1159.66 319.108C1159.85 319.494 1160.04 319.689 1160.14 319.979C1160.14 320.074 1160.24 320.074 1160.24 320.171C1160.33 320.46 1160.33 320.654 1160.53 321.04C1160.53 321.137 1160.63 321.137 1160.63 321.329C1160.63 321.523 1160.63 321.812 1160.63 322.006C1160.63 322.103 1160.72 322.392 1160.72 322.489C1160.72 322.586 1160.63 322.876 1160.63 322.974C1160.63 323.264 1160.63 323.458 1160.63 323.747C1160.63 323.844 1160.53 323.844 1160.53 323.941C1160.34 324.327 1160.34 324.618 1160.24 324.812C1160.24 324.909 1160.14 324.909 1160.14 325.101C1160.04 325.297 1159.85 325.586 1159.66 325.972Z" fill="#BAB2DC"/>
<path d="M1004.35 206.462C1004.35 218.681 994.901 228.688 982.9 229.575V229.64H851.628C836.58 229.64 824.387 217.447 824.387 202.398C824.387 188.212 835.229 176.545 849.082 175.271C849.867 150.614 870.098 130.858 894.948 130.858C914.731 130.858 931.592 143.373 938.036 160.918C941.701 159.066 945.83 158.037 950.216 158.037C964.699 158.037 976.546 169.33 977.408 183.594C978.629 183.387 979.89 183.285 981.176 183.285C993.974 183.285 1004.35 193.664 1004.35 206.462Z" fill="#BAB2DC"/>
<path d="M1132.55 522.068L1147.45 498.057L1140.05 493.476C1137.89 492.14 1136.76 489.686 1136.98 487.158C1137.09 485.791 1137.14 484.415 1137.11 483.036C1137.06 480.473 1138.35 478.073 1140.61 476.861L1148.24 472.773L1134.88 447.863L1127.26 451.951C1125.06 453.125 1122.39 453.005 1120.35 451.577C1119.12 450.713 1117.84 449.921 1116.52 449.208C1114.33 448.019 1113.03 445.672 1113.1 443.181L1113.38 434.535L1085.14 433.656L1084.87 442.335C1084.8 444.838 1083.31 447.069 1081.04 448.13C1080.38 448.439 1079.73 448.768 1079.08 449.116C1078.43 449.463 1077.8 449.828 1077.17 450.205C1075.04 451.502 1072.37 451.511 1070.26 450.198L1062.85 445.609L1047.95 469.621L1055.37 474.226C1057.53 475.563 1058.65 478.012 1058.43 480.536C1058.31 481.901 1058.27 483.273 1058.29 484.649C1058.34 487.21 1057.05 489.606 1054.79 490.816L1047.17 494.905L1060.52 519.814L1068.15 515.727C1070.41 514.516 1073.12 514.762 1075.23 516.219C1076.36 517.002 1077.53 517.722 1078.73 518.377C1080.95 519.591 1082.37 521.883 1082.29 524.417L1082.02 533.146L1110.26 534.024L1110.53 525.353C1110.61 522.819 1112.17 520.613 1114.46 519.53C1115.09 519.232 1115.71 518.918 1116.33 518.584C1116.95 518.255 1117.55 517.91 1118.15 517.553C1120.32 516.237 1123.03 516.165 1125.19 517.505L1132.55 522.068ZM1111.21 502.641C1098.77 511.484 1081.54 506.285 1076.06 492.034C1072.34 482.333 1075.72 471.06 1084.19 465.036C1096.63 456.187 1113.9 461.401 1119.37 475.654C1123.1 485.358 1119.68 496.621 1111.21 502.641Z" fill="#BAB2DC"/>
<path d="M976.585 579.159L993.73 569.267L990.698 564.019C989.806 562.476 989.892 560.578 990.865 559.086C991.404 558.259 991.898 557.404 992.347 556.523C993.153 554.939 994.752 553.918 996.53 553.918H1002.59V534.118H996.53C994.752 534.118 993.153 533.099 992.347 531.515C991.898 530.631 991.404 529.777 990.865 528.952C989.892 527.46 989.806 525.561 990.698 524.019L993.73 518.771L976.585 508.878L973.55 514.15C972.659 515.696 970.964 516.545 969.182 516.454C968.699 516.431 968.212 516.418 967.725 516.418C967.237 516.418 966.752 516.431 966.269 516.454C964.496 516.545 962.808 515.7 961.921 514.164L958.868 508.878L941.723 518.771L944.756 524.033C945.647 525.578 945.559 527.476 944.584 528.968C944.047 529.789 943.553 530.642 943.106 531.521C942.299 533.103 940.701 534.119 938.925 534.119H932.863V553.92H938.925C940.701 553.92 942.299 554.937 943.106 556.519C943.553 557.397 944.047 558.249 944.584 559.071C945.559 560.564 945.647 562.462 944.756 564.007L941.723 569.269L958.868 579.161L961.905 573.897C962.794 572.358 964.484 571.51 966.26 571.6C966.745 571.625 967.235 571.638 967.727 571.638C968.214 571.638 968.701 571.625 969.184 571.6C970.965 571.508 972.661 572.358 973.553 573.904L976.585 579.159ZM967.725 560.233C958.771 560.233 951.518 552.981 951.518 544.026C951.518 535.071 958.771 527.803 967.725 527.803C976.68 527.803 983.947 535.071 983.947 544.026C983.949 552.981 976.68 560.233 967.725 560.233Z" fill="#BAB2DC"/>
<path d="M106.019 151.715C107.563 152.606 108.414 154.303 108.323 156.085C108.298 156.568 108.285 157.055 108.285 157.541C108.285 158.035 108.298 158.524 108.323 159.009C108.413 160.783 107.567 162.475 106.026 163.362L100.762 166.399L110.654 183.546L115.916 180.512C117.461 179.621 119.359 179.709 120.852 180.684C121.673 181.221 122.524 181.715 123.404 182.163C124.986 182.969 126.003 184.567 126.003 186.344V192.405H145.804V186.344C145.804 184.567 146.82 182.969 148.402 182.163C149.281 181.715 150.134 181.221 150.955 180.684C152.447 179.709 154.345 179.621 155.89 180.512L161.152 183.546L171.045 166.399L165.759 163.346C164.222 162.459 163.377 160.77 163.467 158.998C163.492 158.515 163.505 158.028 163.505 157.541C163.505 157.053 163.492 156.568 163.467 156.085C163.376 154.303 164.227 152.608 165.772 151.719L171.043 148.683L161.15 131.539L155.903 134.57C154.36 135.463 152.461 135.377 150.969 134.403C150.145 133.865 149.288 133.371 148.406 132.922C146.822 132.117 145.804 130.517 145.804 128.739V122.677H126.004V128.737C126.004 130.515 124.986 132.115 123.402 132.92C122.518 133.369 121.664 133.863 120.837 134.402C119.345 135.375 117.447 135.461 115.904 134.569L110.658 131.537L100.765 148.682L106.019 151.715ZM135.897 141.318C144.852 141.318 152.12 148.586 152.12 157.541C152.12 166.496 144.852 173.748 135.897 173.748C126.942 173.748 119.69 166.496 119.69 157.541C119.69 148.586 126.942 141.318 135.897 141.318Z" fill="#BAB2DC"/>
<path d="M637.57 719.086H838.643L798.551 485.875H648.195L637.57 719.086Z" fill="#DDD8F0"/>
<path d="M637.57 719.086H655.202L665.096 485.875H648.195L637.57 719.086Z" fill="#514E84"/>
<path d="M615.331 719.086H414.26L454.35 485.875H604.706L615.331 719.086Z" fill="#DDD8F0"/>
<path d="M615.33 719.086H597.701L587.807 485.875H604.705L615.33 719.086Z" fill="#514E84"/>
<path d="M1090.07 353.914H904.91V472.03H1090.07V353.914Z" fill="white"/>
<path d="M1091.24 473.201H903.738V352.745H1091.24V473.201ZM906.079 470.859H1088.9V355.083H906.079V470.859Z" fill="#BAB2DC"/>
<path d="M1090.07 353.914H904.91V376.251H1090.07V353.914Z" fill="#B5A7E9"/>
<path d="M1091.24 377.422H903.738V352.745H1091.24V377.422ZM906.079 375.082H1088.9V355.085H906.079V375.082Z" fill="#BAB2DC"/>
<path d="M925.878 365.245C925.878 368.35 923.362 370.866 920.256 370.866C917.151 370.866 914.635 368.35 914.635 365.245C914.635 362.14 917.151 359.624 920.256 359.624C923.36 359.624 925.878 362.142 925.878 365.245Z" fill="#3E3F48"/>
<path d="M948.835 365.245C948.835 368.35 946.319 370.866 943.213 370.866C940.108 370.866 937.592 368.35 937.592 365.245C937.592 362.14 940.108 359.624 943.213 359.624C946.317 359.624 948.835 362.142 948.835 365.245Z" fill="#BAB2DC"/>
<path d="M971.788 365.245C971.788 368.35 969.272 370.866 966.166 370.866C963.061 370.866 960.545 368.35 960.545 365.245C960.545 362.14 963.061 359.624 966.166 359.624C969.272 359.624 971.788 362.142 971.788 365.245Z" fill="white"/>
<path d="M936.865 420.418C936.926 408.101 947.255 398.083 959.696 398.022C965.172 398.022 970.149 399.827 974.068 402.875C975.56 404.119 975.81 406.296 974.689 407.852C973.446 409.407 971.144 409.657 969.712 408.536C966.973 406.296 963.552 405.114 959.694 405.114C955.402 405.114 951.42 406.857 948.496 409.594C945.696 412.455 943.954 416.189 943.954 420.418C943.954 424.65 945.696 428.506 948.496 431.244C951.42 433.982 955.402 435.724 959.694 435.724C963.552 435.724 966.912 434.542 969.712 432.302C971.144 431.244 973.444 431.492 974.689 432.987C975.81 434.542 975.56 436.782 974.068 437.963C970.149 441.011 965.172 442.816 959.696 442.816C947.257 442.814 936.928 432.8 936.865 420.418Z" fill="#BAB2DC"/>
<path d="M985.39 431.99C986.511 430.621 988.564 430.434 989.932 431.555C992.667 433.795 997.396 436.408 1001.81 436.345C1004.92 436.345 1007.72 435.413 1009.59 434.044C1011.46 432.676 1012.27 431.121 1012.27 429.565C1012.27 428.757 1012.08 428.197 1011.7 427.575C1011.33 426.952 1010.77 426.331 1009.84 425.709C1008.03 424.526 1004.99 423.47 1001.32 422.785H1001.19C998.266 422.225 995.528 421.48 993.165 420.359C990.801 419.238 988.747 417.683 987.38 415.506C986.444 414.012 985.949 412.271 985.949 410.405C985.949 406.673 988.062 403.437 990.923 401.323C993.847 399.207 997.644 398.026 1001.69 398.026C1007.66 398.026 1012.08 400.95 1015.25 403.002C1016.68 403.997 1017.12 405.989 1016.12 407.419C1015.19 408.913 1013.2 409.348 1011.7 408.353C1008.53 406.237 1005.48 404.371 1001.69 404.371C998.887 404.371 996.398 405.242 994.718 406.485C993.041 407.729 992.355 409.098 992.355 410.405C992.355 411.153 992.481 411.65 992.791 412.148C993.102 412.645 993.662 413.205 994.471 413.766C996.087 414.886 998.887 415.881 1002.25 416.503H1002.37C1005.54 417.124 1008.47 417.934 1010.96 419.116C1013.51 420.361 1015.74 421.977 1017.18 424.28C1018.11 425.772 1018.67 427.638 1018.67 429.567C1018.67 433.549 1016.43 436.97 1013.32 439.21C1010.27 441.449 1006.23 442.755 1001.81 442.755C995.092 442.692 989.429 439.334 985.882 436.534C984.521 435.411 984.332 433.358 985.39 431.99Z" fill="#BAB2DC"/>
<path d="M1026.26 431.99C1027.38 430.621 1029.44 430.434 1030.8 431.555C1033.54 433.795 1038.27 436.408 1042.68 436.345C1045.8 436.345 1048.6 435.413 1050.46 434.044C1052.33 432.676 1053.14 431.121 1053.14 429.565C1053.14 428.757 1052.95 428.197 1052.58 427.575C1052.21 426.952 1051.65 426.331 1050.71 425.709C1048.91 424.526 1045.86 423.47 1042.19 422.785H1042.06C1039.14 422.225 1036.4 421.48 1034.04 420.359C1031.68 419.238 1029.62 417.683 1028.25 415.506C1027.32 414.012 1026.82 412.271 1026.82 410.405C1026.82 406.673 1028.94 403.437 1031.8 401.323C1034.72 399.207 1038.52 398.026 1042.56 398.026C1048.53 398.026 1052.95 400.95 1056.12 403.002C1057.56 403.997 1057.99 405.989 1057 407.419C1056.06 408.913 1054.07 409.348 1052.58 408.353C1049.41 406.237 1046.36 404.371 1042.56 404.371C1039.76 404.371 1037.27 405.242 1035.59 406.485C1033.91 407.729 1033.23 409.098 1033.23 410.405C1033.23 411.153 1033.35 411.65 1033.67 412.148C1033.98 412.645 1034.54 413.205 1035.34 413.766C1036.96 414.886 1039.76 415.881 1043.12 416.503H1043.25C1046.42 417.124 1049.34 417.934 1051.83 419.116C1054.38 420.361 1056.62 421.977 1058.05 424.28C1058.99 425.772 1059.55 427.638 1059.55 429.567C1059.55 433.549 1057.31 436.97 1054.2 439.21C1051.15 441.449 1047.1 442.755 1042.68 442.755C1035.97 442.692 1030.3 439.334 1026.76 436.534C1025.39 435.411 1025.2 433.358 1026.26 431.99Z" fill="#BAB2DC"/>
<path d="M310.092 365.854H124.93V483.97H310.092V365.854Z" fill="white"/>
<path d="M311.26 485.139H123.76V364.685H311.26V485.139ZM126.1 482.799H308.92V367.025H126.1V482.799Z" fill="#BAB2DC"/>
<path d="M310.092 365.854H124.93V388.191H310.092V365.854Z" fill="#B5A7E9"/>
<path d="M311.26 389.36H123.76V364.683H311.26V389.36ZM126.1 387.02H308.92V367.023H126.1V387.02Z" fill="#BAB2DC"/>
<path d="M145.897 377.185C145.897 380.29 143.379 382.806 140.276 382.806C137.17 382.806 134.654 380.29 134.654 377.185C134.654 374.08 137.17 371.563 140.276 371.563C143.379 371.563 145.897 374.08 145.897 377.185Z" fill="#3E3F48"/>
<path d="M168.854 377.185C168.854 380.29 166.338 382.806 163.233 382.806C160.128 382.806 157.611 380.29 157.611 377.185C157.611 374.08 160.128 371.563 163.233 371.563C166.336 371.563 168.854 374.08 168.854 377.185Z" fill="#BAB2DC"/>
<path d="M191.809 377.185C191.809 380.29 189.291 382.806 186.188 382.806C183.083 382.806 180.566 380.29 180.566 377.185C180.566 374.08 183.084 371.563 186.188 371.563C189.291 371.563 191.809 374.08 191.809 377.185Z" fill="white"/>
<path d="M159.5 432.358C159.561 420.041 169.888 410.025 182.331 409.962C187.805 409.962 192.783 411.767 196.702 414.815C198.195 416.059 198.444 418.236 197.324 419.791C196.077 421.347 193.777 421.596 192.345 420.476C189.61 418.236 186.189 417.054 182.329 417.054C178.037 417.054 174.055 418.796 171.131 421.533C168.331 424.394 166.589 428.128 166.589 432.358C166.589 436.589 168.331 440.445 171.131 443.184C174.055 445.921 178.037 447.663 182.329 447.663C186.187 447.663 189.545 446.482 192.345 444.242C193.777 443.184 196.077 443.432 197.324 444.926C198.444 446.482 198.195 448.721 196.702 449.903C192.782 452.951 187.805 454.756 182.331 454.756C169.888 454.754 159.561 444.74 159.5 432.358Z" fill="#BAB2DC"/>
<path d="M219.158 436.277H210.324C208.458 436.277 206.902 434.784 206.902 432.855C206.902 430.989 208.46 429.434 210.324 429.434H219.158V420.786C219.158 418.796 220.715 417.241 222.705 417.241C224.634 417.241 226.251 418.796 226.251 420.786V429.434H235.085C236.953 429.434 238.507 430.989 238.507 432.855C238.507 434.784 236.953 436.277 235.085 436.277H226.251V444.925C226.251 446.915 224.634 448.47 222.705 448.47C220.714 448.47 219.158 446.915 219.158 444.925V436.277Z" fill="#BAB2DC"/>
<path d="M257.727 436.277H248.892C247.024 436.277 245.471 434.784 245.471 432.855C245.471 430.989 247.024 429.434 248.892 429.434H257.727V420.786C257.727 418.796 259.28 417.241 261.272 417.241C263.201 417.241 264.819 418.796 264.819 420.786V429.434H273.654C275.518 429.434 277.075 430.989 277.075 432.855C277.075 434.784 275.518 436.277 273.654 436.277H264.819V444.925C264.819 446.915 263.201 448.47 261.272 448.47C259.282 448.47 257.727 446.915 257.727 444.925V436.277Z" fill="#BAB2DC"/>
<path d="M825.956 81.9243H424V335.525H825.956V81.9243Z" fill="#EEEEFD"/>
<path d="M827.126 336.694H422.83V80.7551H827.126V336.694ZM425.172 334.354H824.786V83.0952H425.172V334.354Z" fill="#BAB2DC"/>
<path d="M825.956 81.9243H424V104.261H825.956V81.9243Z" fill="#6880E4"/>
<path d="M827.126 105.432H422.83V80.7551H827.126V105.432ZM425.172 103.09H824.786V83.0952H425.172V103.09Z" fill="#6880E4"/>
<path d="M444.969 93.2552C444.969 96.3605 442.451 98.8767 439.348 98.8767C436.245 98.8767 433.727 96.3605 433.727 93.2552C433.727 90.1499 436.243 87.6337 439.348 87.6337C442.453 87.6337 444.969 90.1499 444.969 93.2552Z" fill="#263238"/>
<path d="M467.925 93.2552C467.925 96.3605 465.408 98.8767 462.303 98.8767C459.198 98.8767 456.682 96.3605 456.682 93.2552C456.682 90.1499 459.198 87.6337 462.303 87.6337C465.408 87.6337 467.925 90.1499 467.925 93.2552Z" fill="#BAB2DC"/>
<path d="M490.88 93.2552C490.88 96.3605 488.362 98.8767 485.258 98.8767C482.155 98.8767 479.637 96.3605 479.637 93.2552C479.637 90.1499 482.153 87.6337 485.258 87.6337C488.363 87.6337 490.88 90.1499 490.88 93.2552Z" fill="white"/>
<path d="M459.905 148.698H447.963V153.06H459.905V148.698Z" fill="#BAB2DC"/>
<path d="M661.491 148.698H468.607V153.06H661.491V148.698Z" fill="#BAB2DC"/>
<path d="M691.514 148.698H668.83V153.06H691.514V148.698Z" fill="#B5A7E9"/>
<path d="M727.816 207.071H705.133V211.434H727.816V207.071Z" fill="#BAB2DC"/>
<path d="M772.921 148.698H696.445V153.06H772.921V148.698Z" fill="#A6A6A6"/>
<path d="M471.846 160.372H459.904V164.734H471.846V160.372Z" fill="#BAB2DC"/>
<path d="M570.153 160.372H480.252V164.734H570.153V160.372Z" fill="#A6A6A6"/>
<path d="M699.744 207.071H665.738V211.434H699.744V207.071Z" fill="#A6A6A6"/>
<path d="M554.476 195.396H468.607V199.758H554.476V195.396Z" fill="#A6A6A6"/>
<path d="M540.492 172.046H480.252V176.408H540.492V172.046Z" fill="#B5A7E9"/>
<path d="M744.238 183.722H683.998V188.084H744.238V183.722Z" fill="#A6A6A6"/>
<path d="M699.268 172.046H547.176V176.408H699.268V172.046Z" fill="#A6A6A6"/>
<path d="M657.963 207.071H468.607V211.434H657.963V207.071Z" fill="#B5A7E9"/>
<path d="M793.409 160.372H693.916V164.734H793.409V160.372Z" fill="#B5A7E9"/>
<path d="M688.986 160.372H575.797V164.734H688.986V160.372Z" fill="#BAB2DC"/>
<path d="M779.715 172.046H741.053V176.408H779.715V172.046Z" fill="#BAB2DC"/>
<path d="M471.846 172.046H459.904V176.408H471.846V172.046Z" fill="#BAB2DC"/>
<path d="M459.905 183.722H447.963V188.084H459.905V183.722Z" fill="#A6A6A6"/>
<path d="M539.187 183.722H468.607V188.084H539.187V183.722Z" fill="#BAB2DC"/>
<path d="M550.831 218.745H480.252V223.108H550.831V218.745Z" fill="#BAB2DC"/>
<path d="M758.671 230.419H667.75V234.782H758.671V230.419Z" fill="#B5A7E9"/>
<path d="M683.232 218.745H556.561V223.108H683.232V218.745Z" fill="#B5A7E9"/>
<path d="M661.579 230.419H544.076V234.782H661.579V230.419Z" fill="#BAB2DC"/>
<path d="M500.687 230.419H480.252V234.782H500.687V230.419Z" fill="#A6A6A6"/>
<path d="M691.513 195.396H559.336V199.758H691.513V195.396Z" fill="#BAB2DC"/>
<path d="M782.246 195.396H696.445V199.758H782.246V195.396Z" fill="#B5A7E9"/>
<path d="M678.446 183.722H546.361V188.084H678.446V183.722Z" fill="#B5A7E9"/>
<path d="M459.905 195.396H447.963V199.758H459.905V195.396Z" fill="#BAB2DC"/>
<path d="M459.905 207.071H447.963V211.434H459.905V207.071Z" fill="#BAB2DC"/>
<path d="M471.846 218.745H459.904V223.108H471.846V218.745Z" fill="#A6A6A6"/>
<path d="M471.846 230.419H459.904V234.782H471.846V230.419Z" fill="#BAB2DC"/>
<path d="M459.905 240.197H447.963V244.559H459.905V240.197Z" fill="#BAB2DC"/>
<path d="M608.638 240.197H468.607V244.559H608.638V240.197Z" fill="#BAB2DC"/>
<path d="M471.846 251.873H459.904V256.235H471.846V251.873Z" fill="#BAB2DC"/>
<path d="M570.153 251.873H480.252V256.235H570.153V251.873Z" fill="#A6A6A6"/>
<path d="M554.476 286.896H468.607V291.259H554.476V286.896Z" fill="#A6A6A6"/>
<path d="M540.492 263.547H480.252V267.909H540.492V263.547Z" fill="#B5A7E9"/>
<path d="M699.268 263.547H547.176V267.909H699.268V263.547Z" fill="#A6A6A6"/>
<path d="M657.963 298.57H468.607V302.933H657.963V298.57Z" fill="#B5A7E9"/>
<path d="M793.409 251.873H693.916V256.235H793.409V251.873Z" fill="#B5A7E9"/>
<path d="M688.986 251.873H575.797V256.235H688.986V251.873Z" fill="#BAB2DC"/>
<path d="M779.715 263.547H741.053V267.909H779.715V263.547Z" fill="#BAB2DC"/>
<path d="M471.846 263.547H459.904V267.909H471.846V263.547Z" fill="#BAB2DC"/>
<path d="M459.905 275.221H447.963V279.583H459.905V275.221Z" fill="#A6A6A6"/>
<path d="M539.187 275.221H468.607V279.583H539.187V275.221Z" fill="#BAB2DC"/>
<path d="M691.513 286.896H559.336V291.259H691.513V286.896Z" fill="#BAB2DC"/>
<path d="M678.446 275.221H546.361V279.583H678.446V275.221Z" fill="#B5A7E9"/>
<path d="M459.905 286.896H447.963V291.259H459.905V286.896Z" fill="#BAB2DC"/>
<path d="M455.339 137.209C455.75 137.634 455.75 138.274 455.339 138.683C455.127 138.879 454.881 138.978 454.619 138.978C454.34 138.978 454.076 138.879 453.865 138.683L449.26 134.012C449.209 133.996 449.193 133.963 449.177 133.913C449.161 133.895 449.127 133.879 449.127 133.879C449.094 133.83 449.094 133.796 449.078 133.748C449.044 133.732 449.028 133.699 449.028 133.683C449.012 133.651 449.012 133.601 448.996 133.584C448.996 133.536 448.961 133.52 448.961 133.502C448.961 133.453 448.961 133.419 448.961 133.387C448.961 133.355 448.945 133.338 448.945 133.288C448.945 133.27 448.961 133.222 448.961 133.205C448.961 133.171 448.961 133.123 448.961 133.09C448.961 133.056 448.996 133.042 448.996 133.024C449.012 132.976 449.012 132.943 449.028 132.893C449.028 132.877 449.044 132.877 449.044 132.861C449.078 132.812 449.094 132.746 449.127 132.713C449.127 132.713 449.127 132.681 449.161 132.681C449.177 132.647 449.209 132.598 449.26 132.566L453.865 127.895C454.274 127.501 454.946 127.501 455.339 127.895C455.75 128.304 455.75 128.96 455.339 129.369L451.456 133.286L455.339 137.209Z" fill="#B5A7E9"/>
<path d="M459.514 137.733L463.53 128.175C463.726 127.717 464.25 127.503 464.724 127.701C465.168 127.88 465.38 128.421 465.184 128.865L461.168 138.437C461.019 138.78 460.676 138.978 460.331 138.978C460.232 138.978 460.103 138.962 460.004 138.913C459.53 138.734 459.318 138.193 459.514 137.733Z" fill="#B5A7E9"/>
<path d="M473.118 133.881C473.118 133.881 473.118 133.897 473.102 133.897C473.068 133.931 473.036 133.979 472.986 134.012L468.381 138.683C468.185 138.879 467.905 138.978 467.642 138.978C467.364 138.978 467.12 138.879 466.906 138.683C466.495 138.272 466.495 137.634 466.906 137.209L470.789 133.292L466.906 129.375C466.495 128.965 466.495 128.308 466.906 127.9C467.299 127.507 467.971 127.507 468.381 127.9L472.986 132.571C473.036 132.604 473.068 132.652 473.102 132.686C473.118 132.686 473.118 132.719 473.118 132.719C473.151 132.783 473.183 132.817 473.201 132.866C473.201 132.882 473.217 132.882 473.217 132.898C473.233 132.949 473.233 132.981 473.266 133.047C473.266 133.064 473.282 133.064 473.282 133.096C473.282 133.128 473.282 133.177 473.282 133.211C473.282 133.227 473.3 133.275 473.3 133.293C473.3 133.31 473.282 133.358 473.282 133.374C473.282 133.423 473.282 133.457 473.282 133.505C473.282 133.522 473.266 133.522 473.266 133.538C473.233 133.602 473.233 133.653 473.217 133.685C473.217 133.701 473.201 133.701 473.201 133.733C473.181 133.766 473.149 133.816 473.118 133.881Z" fill="#B5A7E9"/>
<path d="M932.996 271.485H806.855V318.184H932.996V271.485Z" fill="url(#paint0_linear_649_773)"/>
<path d="M825.057 304.526V283.813C825.057 282.724 825.901 281.882 826.987 281.882C828.076 281.882 828.952 282.724 828.952 283.813V292.239H838.045V283.813C838.045 282.724 838.889 281.882 839.978 281.882C841.066 281.882 841.943 282.724 841.943 283.813V304.526C841.943 305.614 841.064 306.457 839.978 306.457C838.889 306.457 838.045 305.614 838.045 304.526V296.101H828.952V304.526C828.952 305.614 828.074 306.457 826.987 306.457C825.901 306.457 825.057 305.614 825.057 304.526Z" fill="white"/>
<path d="M864.975 285.779H859.393V304.526C859.393 305.614 858.549 306.457 857.462 306.457C856.408 306.457 855.533 305.614 855.533 304.526V285.779H849.985C848.897 285.779 848.055 284.867 848.055 283.813C848.055 282.724 848.899 281.882 849.985 281.882H864.975C866.029 281.882 866.906 282.724 866.906 283.813C866.906 284.867 866.027 285.779 864.975 285.779Z" fill="white"/>
<path d="M893.833 283.813V304.526C893.833 305.58 892.919 306.457 891.868 306.457C890.778 306.457 889.938 305.578 889.938 304.526V289.747L884.882 296.769C884.496 297.295 883.933 297.575 883.303 297.575H883.269H883.233C882.603 297.575 882.006 297.295 881.62 296.769L876.599 289.747V304.526C876.599 305.58 875.72 306.457 874.634 306.457C873.579 306.457 872.703 305.578 872.703 304.526V283.813C872.703 282.76 873.581 281.882 874.634 281.882C874.67 281.882 874.67 281.882 874.74 281.882C875.302 281.882 875.932 282.164 876.284 282.688L883.271 292.378L890.255 282.688C890.641 282.162 891.204 281.882 891.834 281.882C891.834 281.882 891.834 281.882 891.87 281.882C892.919 281.918 893.833 282.76 893.833 283.813Z" fill="white"/>
<path d="M902.328 304.526V283.813C902.328 282.76 903.17 281.882 904.259 281.882C905.347 281.882 906.224 282.76 906.224 283.813V302.559H915.739C916.755 302.559 917.668 303.438 917.668 304.524C917.668 305.578 916.755 306.455 915.739 306.455H904.363C904.295 306.455 904.295 306.455 904.295 306.455C904.257 306.455 904.257 306.455 904.257 306.455C903.172 306.457 902.328 305.578 902.328 304.526Z" fill="white"/>
<path d="M364.546 287.523H260.596V334.223H364.546V287.523Z" fill="url(#paint1_linear_649_773)"/>
<path d="M291.522 312.946H287.206V320.562C287.206 321.617 286.328 322.493 285.241 322.493C284.185 322.493 283.309 321.615 283.309 320.562V299.849C283.309 298.761 284.187 297.918 285.241 297.918H285.279H291.524C295.701 297.918 299.076 301.288 299.076 305.465C299.074 309.574 295.701 312.946 291.522 312.946ZM287.206 309.048H291.522C293.56 309.048 295.137 307.434 295.175 305.467C295.139 303.432 293.562 301.817 291.522 301.817H287.206V309.048Z" fill="white"/>
<path d="M303.777 320.562V299.849C303.777 298.761 304.618 297.918 305.706 297.918C306.795 297.918 307.671 298.761 307.671 299.849V308.276H316.764V299.849C316.764 298.761 317.61 297.918 318.699 297.918C319.787 297.918 320.663 298.761 320.663 299.849V320.562C320.663 321.651 319.785 322.493 318.699 322.493C317.61 322.493 316.764 321.651 316.764 320.562V312.137H307.671V320.562C307.671 321.651 306.793 322.493 305.706 322.493C304.618 322.493 303.777 321.651 303.777 320.562Z" fill="white"/>
<path d="M336.883 312.946H332.564V320.562C332.564 321.617 331.685 322.493 330.599 322.493C329.548 322.493 328.67 321.615 328.67 320.562V299.849C328.67 298.761 329.548 297.918 330.599 297.918H330.635H336.883C341.061 297.918 344.43 301.288 344.43 305.465C344.43 309.574 341.061 312.946 336.883 312.946ZM332.564 309.048H336.883C338.916 309.048 340.498 307.434 340.536 305.467C340.5 303.432 338.918 301.817 336.883 301.817H332.564V309.048Z" fill="white"/>
<path d="M1033.72 492.059L1041.61 511.105L1033.74 514.365L1025.8 495.191L1012.79 505.29V451.636L1050.34 489.579L1033.72 492.059Z" fill="#263238"/>
<path d="M1012.78 445.787C1012.41 444.887 1012.32 443.989 1012.31 443.089C1012.32 442.189 1012.41 441.291 1012.78 440.391C1013.16 441.291 1013.25 442.189 1013.26 443.089C1013.25 443.989 1013.16 444.889 1012.78 445.787Z" fill="#263238"/>
<path d="M1008.14 447.712C1007.24 447.342 1006.54 446.765 1005.89 446.142C1005.27 445.496 1004.69 444.801 1004.32 443.897C1005.23 444.265 1005.92 444.842 1006.57 445.467C1007.19 446.114 1007.77 446.81 1008.14 447.712Z" fill="#263238"/>
<path d="M1006.22 452.358C1005.32 452.735 1004.42 452.82 1003.52 452.834C1002.62 452.82 1001.72 452.735 1000.82 452.358C1001.72 451.979 1002.62 451.895 1003.52 451.882C1004.42 451.897 1005.32 451.981 1006.22 452.358Z" fill="#263238"/>
<path d="M1008.14 457.005C1007.77 457.906 1007.19 458.601 1006.57 459.25C1005.92 459.876 1005.23 460.451 1004.32 460.819C1004.69 459.916 1005.27 459.221 1005.89 458.574C1006.54 457.951 1007.24 457.374 1008.14 457.005Z" fill="#263238"/>
<path d="M1019.36 452.358C1020.26 451.983 1021.16 451.898 1022.05 451.882C1022.95 451.897 1023.85 451.981 1024.75 452.358C1023.85 452.737 1022.95 452.822 1022.05 452.834C1021.16 452.818 1020.26 452.734 1019.36 452.358Z" fill="#263238"/>
<path d="M1017.43 447.712C1017.8 446.81 1018.38 446.115 1019 445.467C1019.65 444.84 1020.34 444.265 1021.25 443.897C1020.88 444.801 1020.3 445.496 1019.68 446.142C1019.03 446.765 1018.34 447.342 1017.43 447.712Z" fill="#263238"/>
<path d="M749.028 378.038C724.303 399.236 731.187 430.149 720.858 446.918C714.543 457.171 693.975 468.001 689.886 479.819C683.167 499.232 699.626 506.204 695.946 516.756C690.732 531.705 670.714 530.543 667.109 555C663.504 579.456 690.412 605.471 754.276 612.517C818.14 619.562 853.227 596.182 855.517 575.433C857.807 554.683 836.562 547.778 835.114 532.28C834.189 522.379 847.309 515.484 847.972 497.262C848.634 479.038 830.877 473.113 828.334 457.638C825.778 442.09 833.981 404.552 811.24 385.353C788.499 366.152 761.228 367.578 749.028 378.038Z" fill="#181670"/>
<path d="M751.894 378.593C744.854 383.548 739.48 389.924 735.479 397.532C731.321 405.438 728.568 414.008 726.35 422.634C725.039 427.731 723.837 432.967 721.391 437.667C719.272 441.738 716.204 445.185 712.817 448.247C705.909 454.495 697.662 459.244 691.459 466.265C685.582 472.915 681.01 481.811 683.357 490.873C684.632 495.802 687.883 499.823 689.902 504.424C691.813 508.781 692.587 514.198 688.846 517.819C685.651 520.911 681.022 522.33 677.396 524.865C673.838 527.352 670.656 530.409 668.077 533.9C662.814 541.027 660.541 549.707 662.197 558.462C665.954 578.33 684.594 589.626 701.802 596.742C704.201 597.734 706.612 598.7 709.025 599.661C709.397 599.808 709.713 599.273 709.334 599.102C692.064 591.372 672.022 582.301 665.39 562.994C662.401 554.297 663.378 545.109 668.368 537.359C670.763 533.638 673.935 530.382 677.491 527.756C680.965 525.191 684.975 523.618 688.508 521.183C692.086 518.715 694.146 515.096 693.939 510.689C693.72 506.026 691.441 501.951 689.185 497.993C686.798 493.801 684.772 489.564 685.11 484.614C685.426 479.975 687.578 475.597 690.22 471.852C695.593 464.239 703.553 459.244 710.689 453.481C717.867 447.681 723.611 440.993 726.231 431.984C727.555 427.43 728.377 422.742 729.521 418.141C730.583 413.875 731.813 409.646 733.331 405.519C736.332 397.347 740.605 389.437 746.831 383.262C748.462 381.646 750.192 380.2 752.108 378.931C752.318 378.79 752.104 378.446 751.894 378.593Z" fill="#181670"/>
<path d="M858.354 560.213C857.562 556.855 856.077 553.631 853.934 550.919C851.713 548.105 849.028 545.725 846.565 543.132C844.234 540.677 842.025 537.909 841.345 534.507C840.527 530.425 842.241 526.51 844.157 523C846.169 519.317 848.403 515.823 849.874 511.87C851.294 508.058 852.081 504.026 852.306 499.967C852.774 491.475 850.276 483.415 845.879 476.216C843.701 472.649 841.251 469.26 839.046 465.711C836.619 461.803 834.703 457.717 833.383 453.307C830.507 443.691 829.886 433.547 827.537 423.8C825.127 413.809 821.531 404.132 817.165 394.836C817.057 394.604 816.718 394.816 816.826 395.046C820.788 403.423 823.756 412.2 825.895 421.212C827.923 429.757 828.706 438.466 830.215 447.1C830.955 451.327 831.898 455.535 833.455 459.546C834.911 463.298 836.899 466.8 838.999 470.223C843.313 477.258 847.772 484.203 848.963 492.545C850.141 500.8 848.74 509.083 844.845 516.45C841.486 522.801 836.786 529.798 839.721 537.234C842.205 543.527 848.207 547.3 852.192 552.514C856.585 558.263 857.866 565.666 856.514 572.701C853.074 590.582 835.156 599.454 818.377 600.338C817.853 600.367 817.871 601.16 818.397 601.155C832.984 600.981 848.854 594.571 855.693 580.914C858.865 574.581 859.987 567.141 858.354 560.213Z" fill="#181670"/>
<path d="M771.126 539.346C787.305 603.592 803.289 652.74 821.603 664.771C836.375 674.48 857.119 681.293 878.454 686.063C903.486 691.627 929.426 694.434 947.6 695.943C954.757 696.541 960.718 696.912 964.944 697.212C975.407 697.88 992.536 628.799 985.125 620.372C983.417 618.449 976.524 616.956 966.856 615.731C934.295 611.646 870.183 610.69 866.361 607.046C862.396 603.233 829.708 557.467 801.684 521.506C782.342 496.657 762.155 503.724 771.126 539.346Z" fill="#FFB7D6"/>
<path d="M943.961 690.244C945.263 690.844 963.73 698.865 975.07 701.702C983.531 703.82 1008.05 709.263 1011.31 700.179C1013.53 693.987 999.493 689.089 989.642 685.404C984.452 683.462 977.956 678.345 979.34 675.003C981.763 669.161 995.135 674.446 1003.97 679.155C1021.07 688.261 1044 704.94 1053.91 696.074C1057.65 692.721 1052.95 687.043 1046.18 681.557C1057.07 687.841 1068.63 692.9 1072.94 689.342C1075.41 687.315 1075.43 684.656 1073.9 681.677C1077.23 682.623 1080.13 682.307 1082.08 680.091C1085.41 676.339 1083.52 671.055 1079.53 665.712C1080.74 665.54 1081.81 664.883 1082.6 663.53C1089.52 652.082 1051.64 621.344 1038.84 618.81C1001.18 611.311 961.58 616.012 961.58 616.012C947.347 628.271 943.931 690.219 943.961 690.244Z" fill="#FFB7D6"/>
<path d="M997.578 653.411C1006.42 654.464 1015.28 657.294 1022.83 662.079C1031.77 667.74 1038.99 675.659 1047.29 682.128C1047.51 682.304 1047.22 682.654 1047.01 682.469C1043.09 679.109 1038.81 676.131 1034.76 672.929C1030.81 669.804 1026.93 666.528 1022.77 663.686C1015.14 658.48 1006.71 654.938 997.549 653.564C997.452 653.55 997.479 653.401 997.578 653.411Z" fill="#263238"/>
<path d="M1003.95 637.314C1013.86 639.634 1024.01 641.976 1033.29 646.281C1043.45 650.992 1051.55 658.984 1059.51 666.671C1064.3 671.287 1068.98 676.002 1073.55 680.831C1073.74 681.034 1073.47 681.375 1073.27 681.172C1065.18 673.227 1056.86 665.517 1048.3 658.079C1040.25 651.084 1031.37 645.831 1021.26 642.4C1015.57 640.468 1009.74 638.975 1003.92 637.488C1003.81 637.461 1003.84 637.287 1003.95 637.314Z" fill="#263238"/>
<path d="M1013.92 623.073C1023.53 624.679 1031.91 626.048 1040.54 630.845C1051.96 637.195 1063.17 648.194 1067.11 652.093C1071.45 656.402 1075.65 660.851 1079.78 665.366C1079.95 665.549 1079.63 665.847 1079.46 665.666C1070.03 655.809 1059.93 646.491 1049.31 637.935C1044.24 633.848 1038.76 630.326 1032.66 627.962C1026.63 625.626 1020.22 624.413 1013.91 623.14C1013.87 623.129 1013.88 623.066 1013.92 623.073Z" fill="#263238"/>
<path d="M782.982 604.102L840.709 570.061C840.709 570.061 816.068 530.254 795.012 511.465C773.956 492.673 765.468 507.416 768.663 534.721C771.86 562.026 782.982 604.102 782.982 604.102Z" fill="#B5A7E9"/>
<path d="M831.617 561.408C822.366 566.137 797.664 579.723 782.827 590.756C782.739 590.823 782.958 591.211 783.057 591.159C796.83 583.951 823.165 567.536 831.946 561.984C832.111 561.88 831.791 561.32 831.617 561.408Z" fill="#263238"/>
<path d="M835.961 572.877L782.992 604.104C782.992 604.104 771.869 562.035 768.663 534.721C766.614 517.095 769.409 504.706 777.327 503.196L835.961 572.877Z" fill="#263238"/>
<path d="M838.75 718.881H647.889C647.889 718.881 689.342 558.786 727.712 513.715C728.569 512.675 729.456 511.696 730.343 510.779C730.526 510.565 730.679 510.412 730.864 510.227C734.168 506.77 737.626 504.169 741.114 502.301C741.787 501.935 742.461 501.597 743.163 501.292C757.942 494.5 773.548 500.13 784.807 509.767C788.386 512.828 828.837 565.456 832.417 585.528C835.508 603.244 823.543 622.276 823.543 622.276L838.75 718.881Z" fill="#B5A7E9"/>
<path d="M794.9 615.421C786.802 616.324 778.679 617.508 770.792 619.602C766.868 620.643 763.021 621.861 759.178 623.163C757.261 623.813 755.336 624.395 753.398 624.972C751.408 625.563 749.273 626.114 747.189 626.198C747.003 626.206 747.01 626.486 747.196 626.489C749.224 626.527 751.166 626.558 753.186 626.326C755.106 626.105 757.013 625.678 758.887 625.2C762.876 624.182 766.816 622.976 770.794 621.917C778.82 619.778 786.845 617.644 795.008 616.089C795.383 616.019 795.284 615.378 794.9 615.421Z" fill="#263238"/>
<path d="M815.062 622.448C808.39 621.827 801.587 621.516 794.884 621.656C791.511 621.726 788.172 621.99 784.819 622.346C783.219 622.515 781.62 622.714 780.027 622.93C778.273 623.169 776.549 623.644 774.792 623.856C774.609 623.878 774.611 624.165 774.799 624.147C776.462 623.996 778.158 624.119 779.826 624.065C781.504 624.011 783.179 623.943 784.857 623.887C788.215 623.776 791.572 623.702 794.931 623.558C801.653 623.273 808.347 623.055 815.075 623.001C815.441 622.998 815.407 622.481 815.062 622.448Z" fill="#263238"/>
<path d="M716.819 523.002C680.886 573.567 634.28 661.251 658.255 677.381C697.672 703.901 806.121 711.036 830.91 711.658C841.609 711.925 856.219 640.787 848.309 632.519C840.4 624.25 726.869 628.663 725.418 621.807C724.596 617.923 738.491 582.083 745.537 539.084C753.662 489.503 726.947 508.749 716.819 523.002Z" fill="#FFB7D6"/>
<path d="M829.262 628.578C829.262 628.578 861.646 625.252 882.925 624.072C894.796 623.413 915.251 624.101 924.193 627.607C937.57 632.851 990.166 663.325 983.052 676.237C976.611 687.925 934.75 656.005 934.75 656.005C934.75 656.005 979.839 684.479 969.497 697.126C959.156 709.774 916.655 667.42 916.655 667.42C916.655 667.42 962.326 697.715 949.598 709.069C939.978 717.651 899.324 681.46 899.324 681.46C899.324 681.46 938.398 707.771 928.888 717.022C918.378 727.245 878.754 696.192 878.754 696.192C850.62 715.637 829.269 713.387 814.271 709.976C810.637 709.152 829.262 628.578 829.262 628.578Z" fill="#FFB7D6"/>
<path d="M919.788 645.157C925.204 648.309 930.709 651.465 935.828 655.089C940.946 658.713 945.943 662.519 950.7 666.603C962.371 676.619 968.113 684.718 967.703 684.256C958.028 673.34 939.905 660.084 934.784 656.459C929.676 652.844 924.748 648.97 919.642 645.347C919.513 645.256 919.658 645.082 919.788 645.157Z" fill="#263238"/>
<path d="M906.365 663.403C913.109 667.727 919.961 671.776 926.516 676.4C933.038 681.002 941.962 687.762 948.151 692.801C948.627 693.189 948.27 694.037 947.774 693.667C941.389 688.879 931.973 682.403 925.532 677.69C919.115 672.993 912.833 668.011 906.249 663.553C906.146 663.485 906.263 663.336 906.365 663.403Z" fill="#263238"/>
<path d="M892.031 676.989C902.674 683.072 912.184 691.111 921.322 699.22C921.776 699.624 921.286 699.737 920.797 699.351C911.199 691.778 903.724 685.768 891.817 677.358C891.63 677.228 891.806 676.862 892.031 676.989Z" fill="#263238"/>
<path d="M824.604 627.996C839.382 626.488 882.798 622.246 897.651 621.978C910.748 621.743 921.824 623.53 933.472 629.733C958.442 643.032 975.319 659.845 979.592 664.917C982.182 667.99 986.004 672.911 983.319 676.851C980.05 681.646 966.007 678.608 950.393 666.964C949.83 666.546 950.129 666.221 950.7 666.601C972.439 681.039 980.3 678.385 982.139 675.387C983.328 673.446 981.717 670.441 980.266 668.162C978.162 664.861 975.073 661.948 972.21 659.333C962.322 650.299 950.649 642.264 939.13 635.466C925.879 627.648 912.233 623.821 896.827 624.018C881.606 624.214 839.827 628.584 824.604 628.562C824.279 628.564 824.287 628.029 824.604 627.996Z" fill="#263238"/>
<path d="M971.282 690.405C970.061 686.443 966.805 683.044 964.19 679.929C960.961 676.084 957.455 672.336 953.513 669.211C953.337 669.073 953.089 669.292 953.256 669.46C956.582 672.805 959.872 676.125 962.784 679.849C964.368 681.873 965.83 683.952 967.166 686.147C968.445 688.247 969.933 690.68 969.625 693.241C969.034 698.146 962.924 698.611 959.192 697.658C956.763 697.038 954.42 696.077 952.149 695.027C949.802 693.942 945.393 691.135 943.31 689.588C943.065 689.407 942.501 689.542 942.746 689.734C948.613 694.355 959.82 704.044 967.769 699.341C970.948 697.46 972.378 693.96 971.282 690.405Z" fill="#263238"/>
<path d="M672.018 575.675L735.068 598.389C735.068 598.389 749.985 554.014 751.013 525.811C752.04 497.607 735.273 500.484 716.293 520.369C697.312 540.256 672.018 575.675 672.018 575.675Z" fill="#B5A7E9"/>
<path d="M735.927 585.866C726.382 581.762 700.156 571.417 682.195 567.036C682.087 567.009 681.929 567.428 682.031 567.469C696.37 573.473 725.814 583.269 735.694 586.487C735.879 586.548 736.107 585.943 735.927 585.866Z" fill="#263238"/>
<path d="M748.115 561.979C748.14 561.884 747.998 561.841 747.955 561.925C746.82 564.102 745.813 566.304 744.853 568.561C745.951 563.631 746.931 558.68 747.801 553.726C747.831 553.548 747.578 553.504 747.53 553.672C743.3 568.211 738.713 582.672 734.791 597.299C733.179 597.222 731.559 597.116 729.965 596.897C729.693 596.859 729.614 597.25 729.882 597.315C731.621 597.737 733.343 598.29 735.035 598.871C735.416 599.002 735.958 598.962 736.129 598.508C739.241 590.232 741.734 581.708 743.806 573.085C744.471 571.771 745.117 570.447 745.681 569.096C746.658 566.762 747.477 564.432 748.115 561.979Z" fill="#263238"/>
<path d="M759.575 495.408C745.262 498.048 745.124 513.857 749.226 525.378C753.328 536.9 762.326 550.691 769.831 551.045C777.337 551.399 780.568 532.801 780.568 532.801C780.568 532.801 790.058 545.49 796.024 541.988C801.992 538.484 792.924 515.978 785.633 508.542C775.056 497.752 767.179 494.006 759.575 495.408Z" fill="white"/>
<path d="M751.063 503.517C751.361 506.93 764.048 530.622 779.242 532.079C784.192 532.544 787.94 505.646 787.94 505.646L788.671 503.724L798.878 476.804L769.215 451.158L764.892 447.707C764.892 447.707 762.586 455.255 759.807 464.684C759.676 465.121 759.545 465.557 759.411 466.026C759.24 466.556 759.071 467.053 758.935 467.554C758.502 468.957 758.065 470.392 757.659 471.83C757.347 472.922 757.038 473.986 756.752 475.144C756.435 476.301 756.151 477.429 755.835 478.585C752.952 490.054 750.955 502.071 751.063 503.517Z" fill="#FFB7D6"/>
<path d="M759.807 464.684C764.6 487.96 780.987 499.519 788.67 503.724L798.877 476.804L769.214 451.158L764.891 447.707C764.891 447.707 762.585 455.255 759.807 464.684Z" fill="#181670"/>
<path d="M843.113 437.787C840.508 488.246 809.993 492.386 799.112 491.811C789.236 491.29 755.671 488.262 753.047 437.805C750.423 387.347 774.707 372.607 797.36 372.601C820.013 372.596 845.717 387.327 843.113 437.787Z" fill="#FFB7D6"/>
<path d="M756.676 439.86C769.024 441.051 777.584 403.746 778.584 399.154C778.104 402.077 775.62 417.575 776.727 418.351C777.011 418.538 778.422 418.432 780.682 418.132H780.712C780.949 416.372 781.343 414.484 781.894 412.629C782.108 411.779 781.971 414.543 781.998 417.965C782.72 417.864 783.503 417.733 784.351 417.633C784.701 414.27 785.454 410.152 787.084 405.962C787.638 404.545 787.156 411.205 787.801 417.166C796.583 415.996 809.225 414.61 820.725 415.743C823.805 416.032 826.445 416.42 828.771 416.841C829.395 412.252 829.513 407.289 829.709 408.387C830.33 411.521 830.512 414.597 830.501 417.171C831.758 417.412 832.922 417.654 833.96 417.897C835.135 411.451 833.416 400.696 834.246 402.415C837.406 409.078 838.213 415.727 838.398 419.211C842.71 420.653 843.818 421.681 844.091 420.547C844.578 418.504 844.443 400.023 832.067 384.85C818.617 368.359 788.455 360.674 768.235 380.676C768.235 380.676 752.784 388.083 748.565 402.747C744.348 417.383 749.544 439.163 756.676 439.86Z" fill="#181670"/>
<path d="M761.235 438.333C761.235 438.333 752.485 421.194 744.856 424.104C737.228 427.013 742.293 450.799 750.183 455.052C758.072 459.305 762.155 452.08 762.155 452.08L761.235 438.333Z" fill="#FFB7D6"/>
<path d="M746.477 430.885C746.344 430.855 746.292 431.04 746.401 431.101C751.908 434.276 754.226 440.113 755.598 446.022C754.163 443.622 751.965 442.11 748.786 443.773C748.619 443.861 748.732 444.12 748.901 444.107C751.363 443.928 753.028 444.582 754.377 446.721C755.333 448.235 755.875 450.058 756.477 451.737C756.676 452.295 757.658 452.148 757.544 451.519C757.535 451.473 757.524 451.424 757.515 451.378C758.695 443.958 754.359 432.746 746.477 430.885Z" fill="#181670"/>
<path d="M469.815 518.049C457.015 573.788 431.108 644.361 411.09 658.596C394.944 670.084 310.239 690.314 305.517 690.824C293.824 692.006 270.731 609.399 282.852 606.044C298.125 601.814 370.716 599.557 374.847 595.316C379.132 590.882 405.549 555.109 435.458 513.666C456.099 485.027 477.757 483.463 469.815 518.049Z" fill="#FFB7D6"/>
<path d="M314.904 686.285C313.512 686.991 293.733 696.939 281.502 700.483C272.378 703.128 245.909 710.036 241.999 700.28C239.325 693.629 254.411 687.735 264.986 683.327C270.557 681.007 277.423 675.174 275.782 671.592C272.91 665.331 258.567 671.619 249.136 677.101C230.898 687.699 206.602 706.774 195.459 697.521C191.253 694.022 196.142 687.654 203.295 681.407C191.686 688.687 179.304 694.656 174.478 690.955C171.707 688.848 171.578 685.955 173.12 682.652C169.536 683.818 166.369 683.59 164.16 681.255C160.385 677.305 162.226 671.477 166.353 665.502C165.03 665.364 163.841 664.69 162.926 663.25C154.936 651.068 194.928 616.089 208.76 612.815C249.454 603.141 292.743 606.667 292.743 606.667C308.731 619.442 314.936 686.257 314.904 686.285Z" fill="#FFB7D6"/>
<path d="M255.066 648.824C245.483 650.324 236.05 653.909 227.923 659.272C217.607 666.08 210.764 674.051 202.107 682.075C201.879 682.286 202.201 682.647 202.429 682.435C206.553 678.62 223.643 664.277 228.058 661.017C236.149 655.044 245.188 650.85 255.1 648.988C255.208 648.97 255.172 648.808 255.066 648.824Z" fill="#263238"/>
<path d="M247.484 631.558C236.791 634.482 225.83 637.438 215.903 642.497C205.039 648.032 196.539 657.059 188.18 665.743C183.161 670.958 178.25 676.28 173.473 681.72C173.274 681.948 173.579 682.309 173.794 682.079C182.275 673.106 191.023 664.38 200.038 655.942C208.518 648.004 217.976 641.93 228.838 637.792C234.959 635.46 241.245 633.6 247.522 631.748C247.642 631.712 247.605 631.524 247.484 631.558Z" fill="#263238"/>
<path d="M236.058 616.457C225.666 618.591 216.601 620.415 207.401 625.983C195.218 633.355 183.46 645.775 179.334 650.179C174.776 655.042 170.387 660.055 166.071 665.134C165.895 665.34 166.251 665.651 166.432 665.446C176.294 654.34 186.917 643.792 198.131 634.052C203.491 629.399 209.315 625.345 215.856 622.527C222.324 619.742 229.251 618.165 236.074 616.525C236.119 616.518 236.104 616.448 236.058 616.457Z" fill="#263238"/>
<path d="M375.473 587.188L453.547 583.876C453.547 583.876 467.724 545.19 472.94 510.845C478.155 476.502 448.897 488.83 419.913 525.816C390.931 562.805 375.473 587.188 375.473 587.188Z" fill="#B5A7E9"/>
<path d="M456.21 566.929C439.326 566.498 422.386 567.247 405.505 568.328C400.73 568.633 395.96 569.052 391.204 569.581C391.069 569.596 391.053 569.795 391.197 569.795C399.633 569.831 408.068 569.524 416.508 569.267C424.967 569.008 433.437 568.68 441.891 568.182C446.664 567.902 451.435 567.625 456.203 567.248C456.404 567.232 456.422 566.934 456.21 566.929Z" fill="#263238"/>
<path d="M395.217 719.086H594.488C596.683 715.057 564.025 540.506 496.82 491.357C481.91 480.451 455.458 487.465 448.1 498.066C411.12 551.359 395.217 719.086 395.217 719.086Z" fill="#B5A7E9"/>
<path d="M426.877 544.5C425.043 551.126 423.274 557.76 421.563 564.407C421.786 561.507 422.102 558.611 422.475 555.727C422.497 555.556 422.236 555.485 422.2 555.661C421.464 559.253 421.108 562.886 421.01 566.534C418.966 574.551 417.026 582.593 415.244 590.683C411.83 606.186 408.795 621.8 406.281 637.465C404.862 646.297 403.764 655.191 402.252 664.006C402.223 664.171 402.484 664.236 402.514 664.069C403.899 656.249 405.742 648.471 407.444 640.71C409.138 632.998 410.778 625.275 412.38 617.545C415.6 602.003 419.007 586.496 422.209 570.95C424.014 562.191 425.694 553.408 427.504 544.653C427.587 544.258 426.985 544.109 426.877 544.5Z" fill="#263238"/>
<path d="M522.319 508.6C554.494 543.062 631.031 672.381 606.217 696.224C581.226 720.239 443.688 687.972 405.006 669.543C393.499 664.062 437.226 592.32 450.75 590.645C462.009 589.251 519.577 615.582 521.241 612.27C523.122 608.529 510.049 584.508 496.2 534.496C480.23 476.83 508.106 493.379 522.319 508.6Z" fill="#FFB7D6"/>
<path d="M393.581 567.491C365.614 563.595 357.836 566.889 335.978 551.066C321.635 540.684 308.851 545.387 317.034 561.884C330.418 588.867 365.445 601.469 378.847 602.342L393.581 567.491Z" fill="#FFB7D6"/>
<path d="M467.867 594.415C467.867 594.415 436.445 576.965 407.051 569.865C386.726 564.955 341.314 559.206 297.863 604.012C287.558 614.639 280.41 637.091 303.546 625.848C319.979 617.861 327.988 607.831 338.394 604.925C338.394 604.925 332.692 634.564 343.741 644.471C348.678 648.9 362.44 660.671 374.461 668.307C374.461 668.307 376.828 666.136 379.436 662.959C379.436 662.959 390.632 671.24 411.708 669.234L467.867 594.415Z" fill="#FFB7D6"/>
<path d="M386.903 568.276C377.185 573.344 356.768 584.427 343.221 599.305C328.174 615.83 303.641 651.716 315.953 662.698C324.981 670.752 335.552 657.873 335.552 657.873C335.552 657.873 328.539 674.843 338.286 680.333C347.167 685.337 354.748 674.884 354.748 674.884C354.748 674.884 352.264 685.91 361.747 689.082C373.153 692.896 376.488 669.164 391.381 663.045C394.725 661.671 386.903 568.276 386.903 568.276Z" fill="#FFB7D6"/>
<path d="M363.335 612.292C354.977 618.555 339.646 637.653 335.404 657.433C335.309 657.88 335.594 658.194 335.77 657.803C345.064 637.016 357.688 619.532 363.491 612.432C363.569 612.339 363.428 612.222 363.335 612.292Z" fill="#263238"/>
<path d="M379.573 627.967C372.917 634.113 357.994 654.502 354.384 674.694C354.304 675.145 354.612 675.439 354.77 675.042C363.587 652.925 374.368 635.532 379.737 628.1C379.81 628 379.659 627.888 379.573 627.967Z" fill="#263238"/>
<path d="M338.388 604.738C329.275 607.421 323.346 611.893 315.654 617.233C311.848 619.875 307.992 622.463 303.913 624.668C300.199 626.676 294.725 629.711 290.77 626.567C288.568 624.817 288.601 621.631 289.091 619.12C289.641 616.301 290.72 613.589 292.392 611.247C292.476 611.128 292.272 610.976 292.184 611.094C290.641 613.177 289.31 615.392 288.414 617.831C287.602 620.04 286.968 622.606 287.591 624.945C288.931 629.972 294.856 630.631 299.053 629.248C301.564 628.422 303.94 627.087 306.227 625.776C308.436 624.508 310.584 623.136 312.694 621.71C317.026 618.783 321.187 615.609 325.485 612.633C330.209 609.363 333.468 607.763 338.522 605.04C338.697 604.952 338.569 604.686 338.388 604.738Z" fill="#263238"/>
<path d="M319.302 636.804C321.66 631.606 334.431 609.963 338.573 604.954C338.679 604.826 338.506 604.659 338.384 604.774C331.281 611.509 319.864 629.394 317.202 635.125C314.573 640.787 311.545 648.025 311.543 654.338C311.541 663.861 317.858 665.666 320.194 666.131C322.98 666.686 325.796 666.1 328.298 664.803C331.083 663.36 333.779 660.367 335.644 657.9C335.742 657.77 335.568 657.593 335.455 657.72C332.156 661.47 326.672 665.173 321.498 664.495C319.253 664.2 316.979 663.178 315.609 661.317C313.998 659.13 313.869 656.255 314.088 653.647C314.587 647.75 316.881 642.143 319.302 636.804Z" fill="#263238"/>
<path d="M354.384 674.694C353.059 675.829 350.327 679.777 345.988 680.621C342.816 681.239 339.496 680.939 337.058 678.625C334.671 676.363 333.777 673.164 333.63 669.965C333.547 668.155 334.991 660.339 335.623 657.98C335.674 657.795 335.442 657.711 335.384 657.887C334.009 662.09 332.525 666.662 332.523 670.781C332.522 674.207 333.605 677.882 336.169 680.272C338.824 682.747 342.714 683.622 346.137 682.341C347.833 681.707 353.192 678.273 354.749 674.884C354.783 674.811 354.442 674.644 354.384 674.694Z" fill="#263238"/>
<path d="M390.483 661.335C388.987 662.219 387.692 663.541 386.445 664.741C385.109 666.027 383.818 667.365 382.56 668.728C380.044 671.452 377.868 674.568 375.973 677.753C374.049 680.984 372.278 684.585 369.141 686.83C366.07 689.028 361.847 689.378 358.717 687.088C357.084 685.894 355.987 684.2 355.461 682.259C354.918 680.26 354.555 677.824 354.854 675.763C354.881 675.578 354.613 675.545 354.599 675.734C354.442 677.74 353.898 679.602 354.132 681.636C354.336 683.424 354.92 685.193 355.998 686.652C358.207 689.635 362.122 690.944 365.719 690.283C369.696 689.552 372.616 686.56 374.775 683.327C377.181 679.726 379.161 675.885 381.731 672.383C383.083 670.54 384.41 668.681 385.892 666.941C387.433 665.129 389.283 663.505 390.702 661.605C390.815 661.454 390.666 661.226 390.483 661.335Z" fill="#263238"/>
<path d="M401.624 669.459C398.632 669.2 391.732 668.049 386.286 666.278C386.126 666.226 385.904 666.675 386.049 666.756C388.08 667.876 392.332 668.992 393.612 669.252C396.17 669.773 398.973 670.005 401.583 669.739C401.73 669.723 401.798 669.473 401.624 669.459Z" fill="#263238"/>
<path d="M573.319 637.422C565.293 631.935 556.73 627.22 548.003 622.955C539.357 618.729 530.296 615.453 521.133 612.545C515.9 610.884 510.603 609.483 505.307 608.043C505.145 607.998 505.084 608.246 505.244 608.294C514.486 611.069 523.527 614.665 532.38 618.483C541.2 622.287 549.936 626.242 558.608 630.367C563.515 632.7 568.309 635.265 573.133 637.761C573.359 637.88 573.524 637.562 573.319 637.422Z" fill="#263238"/>
<path d="M588.219 589.878L510.117 587.294C510.117 587.294 495.58 548.741 490.044 514.448C484.509 480.153 512.6 490.622 541.927 527.338C571.254 564.053 588.219 589.878 588.219 589.878Z" fill="#B5A7E9"/>
<path d="M513.33 587.028C512.909 587.024 510.161 586.545 510.151 586.545C509.955 585.519 505.499 569.407 504.328 565.9C501.943 558.757 499.136 551.731 496.431 544.705C496.345 544.482 496.002 544.577 496.072 544.814C497.836 550.86 499.488 556.947 501.298 562.979C500.752 562.124 500.213 561.264 499.696 560.389C498.638 558.599 497.715 556.742 496.727 554.913C496.639 554.75 496.381 554.872 496.435 555.046C497.209 557.584 498.478 559.987 499.878 562.232C500.481 563.198 501.18 564.113 501.907 564.991C502.062 565.492 502.207 565.997 502.365 566.496C503.473 570.023 509.193 587.466 509.486 587.484C509.556 587.487 512.38 587.55 513.252 587.558C513.468 587.559 513.547 587.029 513.33 587.028Z" fill="#263238"/>
<path d="M575.578 574.757C558.735 573.5 541.779 573.418 524.864 573.669C520.08 573.741 515.293 573.924 510.518 574.22C510.383 574.229 510.358 574.425 510.5 574.432C518.925 574.883 527.364 574.989 535.805 575.145C544.268 575.302 552.743 575.388 561.21 575.307C565.992 575.26 570.77 575.219 575.551 575.075C575.757 575.07 575.79 574.772 575.578 574.757Z" fill="#263238"/>
<path d="M449.478 492.838C444.293 497.176 439.086 513.404 441.945 524.126C444.805 534.849 450.482 541.745 460.241 540.88C470.001 540.012 488.722 532.562 500.944 510.685C513.164 488.81 475.012 471.482 449.478 492.838Z" fill="#CBC0F4"/>
<path d="M456.517 528.864C468.048 532.255 489.055 515.487 497.752 501.45C498.342 500.484 496.361 460.598 496.789 452.654C496.884 451.024 446.311 462.076 446.311 462.076C446.311 462.076 450.312 478.993 449.48 492.838C449.398 493.996 445.373 525.579 456.517 528.864Z" fill="#FFB7D6"/>
<path d="M497.696 491.299C471.126 495.231 456.71 487.276 449.125 479.65C448.209 470.117 446.316 462.067 446.316 462.067C446.316 462.067 496.876 451.026 496.797 452.649C496.502 458.12 497.335 478.673 497.696 491.299Z" fill="#263238"/>
<path d="M433.949 388.638C426.571 405.601 430.034 457.445 441.237 470.2C457.48 488.69 486.974 493.661 503.416 473.472C519.354 453.903 513.646 386.42 500.861 374.53C482.03 357.018 444.849 363.582 433.949 388.638Z" fill="#FFB7D6"/>
<path d="M432.313 428.85C445.516 429.423 449.206 405.581 449.206 405.581C449.206 405.581 472.048 402.934 476.145 386.027C476.145 386.027 497.011 400.772 514.214 395.432C531.418 390.093 528.767 370.795 527.086 366.615C525.407 362.436 515.669 369.593 515.669 369.593C515.669 369.593 515.107 358.717 512.264 357.479C509.423 356.242 505.973 362.644 505.973 362.644C505.973 362.644 484.525 354.309 464.724 353.943C444.923 353.576 434.195 373.049 434.195 373.049C434.195 373.049 423.516 374.796 419.741 382.041C415.968 389.283 423.899 428.486 432.313 428.85Z" fill="#181670"/>
<path d="M476.027 382.734C475.759 386.249 474.96 389.689 473.485 392.763C471.957 395.808 469.725 398.437 466.88 400.242C464.008 402.016 460.707 402.979 457.318 403.597C455.615 403.846 453.875 403.933 452.136 404.078C450.391 404.089 448.641 404.044 446.863 404.105C448.595 404.428 450.355 404.644 452.118 404.915C453.891 404.938 455.685 405 457.474 404.901C461.052 404.574 464.635 403.6 467.801 401.68C470.903 399.674 473.352 396.682 474.683 393.293C475.998 389.906 476.465 386.249 476.027 382.734Z" fill="#181670"/>
<path d="M433.943 375.739C435.535 370.243 438.367 365.101 442.417 361.233C446.426 357.323 451.672 354.864 457.202 354.158C458.59 354.04 459.96 353.664 461.368 353.74L465.583 353.857C468.385 354.076 471.167 354.699 473.955 355.168C476.676 355.97 479.467 356.603 482.157 357.547C484.837 358.532 487.502 359.573 490.225 360.518C487.667 359.221 485.052 358.02 482.453 356.763C479.797 355.649 477.008 354.861 474.278 353.893C468.673 352.546 462.805 351.511 456.948 352.468C451.156 353.341 445.499 355.985 441.485 360.313C437.429 364.573 434.852 370.067 433.943 375.739Z" fill="#181670"/>
<path d="M473.101 441.51C466.452 440.824 460.838 435.706 459.818 428.796C458.613 420.623 464.279 412.995 472.449 411.79C480.623 410.583 488.249 416.248 489.455 424.42C490.661 432.59 484.994 440.219 476.824 441.428C475.562 441.613 474.315 441.636 473.101 441.51ZM475.967 413.699C474.917 413.59 473.834 413.609 472.744 413.771C465.666 414.815 460.757 421.426 461.799 428.504C462.846 435.58 469.457 440.497 476.531 439.445C483.611 438.4 488.518 431.79 487.476 424.712C486.591 418.728 481.727 414.294 475.967 413.699Z" fill="#263238"/>
<path d="M507.471 440.844C501.768 440.255 497.199 433.883 497.088 426.068C497.031 422.124 498.103 418.389 500.105 415.553C502.173 412.616 504.987 410.975 508.028 410.932C511.079 410.883 513.927 412.449 516.079 415.325C518.159 418.107 519.335 421.808 519.389 425.75C519.504 434.008 514.599 440.799 508.453 440.887C508.121 440.891 507.796 440.876 507.471 440.844ZM508.814 412.968C508.563 412.943 508.31 412.931 508.054 412.934C505.673 412.967 503.43 414.306 501.738 416.704C499.981 419.199 499.039 422.514 499.087 426.038C499.191 433.193 503.36 438.96 508.421 438.883C513.464 438.811 517.485 432.933 517.385 425.779C517.334 422.255 516.3 418.969 514.47 416.523C512.904 414.427 510.919 413.186 508.814 412.968Z" fill="#263238"/>
<path d="M488.977 426.162L487.668 424.646C489.913 422.706 495.13 420.068 498.841 423.929L497.397 425.316C494.078 421.851 489.184 425.986 488.977 426.162Z" fill="#263238"/>
<path d="M422.296 430.961L420.504 430.066C420.922 429.231 424.708 421.88 429.17 421.09C433.34 420.364 460.217 422.5 461.358 422.591L461.196 424.587C453.491 423.967 432.738 422.491 429.518 423.062C426.574 423.584 423.309 428.94 422.296 430.961Z" fill="#263238"/>
<path d="M440.061 431.266C440.061 431.266 430.105 413.726 422.253 417.124C414.399 420.524 420.802 445.192 429.261 449.282C437.719 453.371 441.659 445.616 441.659 445.616L440.061 431.266Z" fill="#FFB7D6"/>
<path d="M424.264 424.15C424.124 424.125 424.079 424.319 424.196 424.38C430.108 427.45 432.806 433.454 434.514 439.578C432.901 437.132 430.528 435.65 427.276 437.538C427.105 437.636 427.234 437.902 427.412 437.882C429.981 437.581 431.757 438.188 433.267 440.365C434.336 441.906 434.99 443.788 435.697 445.519C435.933 446.096 436.953 445.896 436.804 445.243C436.793 445.194 436.778 445.144 436.768 445.095C437.66 437.274 432.603 425.733 424.264 424.15Z" fill="#263238"/>
<path d="M51.2598 719.086L194.57 718.649L337.88 718.491L624.5 718.19L911.12 718.49L1054.43 718.648L1197.74 719.086L1054.43 719.526L911.12 719.684L624.5 719.982L337.88 719.682L194.57 719.522L51.2598 719.086Z" fill="#263238"/>
<path d="M1065.58 714.574H865.871V723.531H1065.58V714.574Z" fill="#514E84"/>
<path d="M966.384 714.574H865.871V723.531H966.384V714.574Z" fill="#2D2D54"/>
<path d="M964.053 723.524H1158.68L1186.18 591.338H991.551L964.053 723.524Z" fill="#514E84"/>
<path d="M1060.03 660.384C1059.28 667.548 1064.47 673.356 1071.64 673.356C1078.8 673.356 1085.22 667.548 1085.97 660.384C1086.73 653.219 1081.53 647.411 1074.37 647.411C1067.2 647.411 1060.78 653.219 1060.03 660.384Z" fill="white"/>
<path d="M351.326 717.626H362.357V710.424H351.326V717.626Z" fill="#3A376B"/>
<path d="M337.02 717.15H348.051V709.948H337.02V717.15Z" fill="#3A376B"/>
<path d="M322.715 716.674H333.746V709.472H322.715V716.674Z" fill="#3A376B"/>
<path d="M308.41 716.198H319.441V708.996H308.41V716.198Z" fill="#3A376B"/>
<path d="M294.106 715.722H305.137V708.52H294.106V715.722Z" fill="#3A376B"/>
<path d="M279.801 715.244H290.832V708.042H279.801V715.244Z" fill="#3A376B"/>
<path d="M265.494 714.77H276.525V707.568H265.494V714.77Z" fill="#3A376B"/>
<path d="M251.19 714.292H262.221V707.09H251.19V714.292Z" fill="#3A376B"/>
<path d="M236.885 713.816H247.916V706.614H236.885V713.816Z" fill="#3A376B"/>
<path d="M234.184 721.767H365.058V713.004L234.184 709.355V721.767Z" fill="#514E84"/>
<path d="M106.447 687.209H322.501L288.141 526.362H72.0879L106.447 687.209Z" fill="#3A376B"/>
<path d="M98.4569 687.209H314.509L280.149 526.362H64.0977L98.4569 687.209Z" fill="#514E84"/>
<path d="M170.633 597.466C171.803 604.844 178.73 610.825 186.108 610.825C193.486 610.825 198.518 604.844 197.351 597.466C196.182 590.088 189.254 584.107 181.876 584.107C174.498 584.107 169.464 590.088 170.633 597.466Z" fill="#2D2D54"/>
<path d="M159.561 729.217H265.821V720.964L159.561 717.529V729.217Z" fill="#3A376B"/>
<path d="M130.67 729.204H187.722L222.081 639.076H165.029L130.67 729.204Z" fill="#3A376B"/>
<path d="M121.281 729.204H178.333L212.692 639.076H155.641L121.281 729.204Z" fill="#2D2D54"/>
<path d="M369.099 731.408C369.099 731.408 469.299 731.408 478.651 731.408C488.003 731.408 474.474 704.786 440.351 694.574C406.231 684.36 358.337 721.422 369.099 731.408Z" fill="#514E84"/>
<path d="M412.091 731.408C411.374 728.481 410.411 725.661 409.346 722.906C408.245 720.165 406.97 717.509 405.451 715.007C403.991 712.464 402.159 710.169 400.171 708.021L398.63 706.442L396.95 705.003C395.891 703.94 394.562 703.258 393.391 702.277C396.147 703.443 398.919 704.888 401.144 707.013C403.428 709.051 405.431 711.438 406.986 714.08C410.11 719.344 411.99 725.359 412.091 731.408Z" fill="#2D2D54"/>
<path d="M399.109 706.077C396.117 707.701 393.189 709.391 390.283 711.092C387.399 712.828 384.538 714.59 381.83 716.55C379.1 718.473 376.503 720.58 374.198 722.958C371.961 725.365 369.897 728.068 369.1 731.406C369.188 727.947 370.973 724.687 373.146 722.031C375.346 719.339 378.002 717.089 380.788 715.088C386.415 711.156 392.591 708.076 399.109 706.077Z" fill="#2D2D54"/>
<path d="M572.471 665.655L564.583 764.839H510.017L502.129 665.655H572.471Z" fill="url(#paint2_linear_649_773)"/>
<path d="M577.171 656.7H496.967V671.16H577.171V656.7Z" fill="#455A64"/>
<path d="M571.674 656.7H502.463L506.508 640.453H567.629L571.674 656.7Z" fill="#37474F"/>
<path d="M556.244 716.119C556.244 728.996 547.763 739.434 537.3 739.434C526.836 739.434 518.355 728.996 518.355 716.119C518.355 703.242 526.836 692.803 537.3 692.803C547.763 692.803 556.244 703.242 556.244 716.119Z" fill="white"/>
<path d="M546.948 414.534C543.505 409.292 541.571 403.397 541.571 397.164C541.571 375.157 565.736 357.314 595.528 357.314C625.318 357.314 649.462 375.157 649.462 397.164C649.462 419.17 625.318 437.013 595.528 437.013C581.083 437.013 567.987 432.829 558.312 425.988L539.727 430.713L546.948 414.534Z" fill="white"/>
<path d="M546.949 414.534C543.686 409.707 541.629 403.994 541.396 398.112C541.216 392.244 542.644 386.296 545.647 381.203C548.578 376.068 552.78 371.745 557.522 368.262C562.271 364.762 567.617 362.115 573.201 360.25C578.785 358.374 584.606 357.244 590.479 356.764C596.36 356.324 602.282 356.689 608.097 357.646C613.916 358.603 619.624 360.342 624.962 362.894C630.298 365.428 635.305 368.753 639.52 372.953C643.725 377.14 647.123 382.259 648.919 387.999C650.707 393.719 650.83 399.999 649.087 405.748C647.392 411.517 644.071 416.69 639.924 420.93C635.766 425.187 630.801 428.568 625.492 431.16C614.823 436.333 602.799 438.218 591.078 437.514C579.367 436.751 567.677 433.173 558.075 426.322L558.411 426.384L539.774 430.903L539.377 431L539.546 430.634L546.949 414.534ZM546.949 414.534L539.905 430.792L539.677 430.521L558.21 425.589L558.388 425.542L558.547 425.652C568.113 432.216 579.631 435.632 591.156 436.225C596.932 436.571 602.738 436.086 608.404 435.052C614.067 433.994 619.646 432.309 624.798 429.734C629.955 427.191 634.754 423.886 638.735 419.775C642.71 415.679 645.844 410.727 647.426 405.269C649.057 399.825 648.893 393.92 647.209 388.525C645.537 383.103 642.331 378.207 638.304 374.166C634.27 370.11 629.436 366.867 624.256 364.381C619.076 361.876 613.512 360.155 607.826 359.198C602.144 358.23 596.346 357.88 590.579 358.239C584.819 358.638 579.099 359.674 573.6 361.447C568.102 363.207 562.826 365.737 558.134 369.108C553.44 372.46 549.311 376.65 546.315 381.592C543.269 386.51 541.737 392.304 541.784 398.101C541.882 403.908 543.792 409.633 546.949 414.534Z" fill="#263238"/>
<path d="M614.928 397.162C614.928 400.251 617.433 402.756 620.522 402.756C623.611 402.756 626.117 400.251 626.117 397.162C626.117 394.073 623.611 391.567 620.522 391.567C617.433 391.567 614.928 394.071 614.928 397.162Z" fill="#263238"/>
<path d="M589.928 397.162C589.928 400.251 592.433 402.756 595.522 402.756C598.611 402.756 601.117 400.251 601.117 397.162C601.117 394.073 598.611 391.567 595.522 391.567C592.431 391.567 589.928 394.071 589.928 397.162Z" fill="#263238"/>
<path d="M564.926 397.162C564.926 400.251 567.431 402.756 570.52 402.756C573.609 402.756 576.115 400.251 576.115 397.162C576.115 394.073 573.609 391.567 570.52 391.567C567.431 391.567 564.926 394.071 564.926 397.162Z" fill="#263238"/>
<defs>
<linearGradient id="paint0_linear_649_773" x1="806.855" y1="294.835" x2="932.996" y2="294.835" gradientUnits="userSpaceOnUse">
<stop stop-color="#FB9004"/>
<stop offset="1" stop-color="#FC067D"/>
</linearGradient>
<linearGradient id="paint1_linear_649_773" x1="260.596" y1="310.873" x2="364.546" y2="310.873" gradientUnits="userSpaceOnUse">
<stop stop-color="#9942FF"/>
<stop offset="1" stop-color="#FC067D"/>
</linearGradient>
<linearGradient id="paint2_linear_649_773" x1="502.129" y1="715.247" x2="572.471" y2="715.247" gradientUnits="userSpaceOnUse">
<stop stop-color="#FB9004"/>
<stop offset="1" stop-color="#FC067D"/>
</linearGradient>
</defs>
</svg>
