<svg width="60" height="60" viewBox="0 0 60 60" fill="none" xmlns="http://www.w3.org/2000/svg">
<path d="M15.5 42.5L9.5 44L7 48L12.5 52.5L16.5 51L25.5 54.5L26.5 58.5H34L35 55L44 50.5L47.5 53L53 48L51 44L44.5 43C46.1667 41.1666 48.5 38.5 44.5 42.5C39.5 47.5 34 49 28 49C23.2 49 17.6667 44.6666 15.5 42.5Z" fill="#DDDFE8"/>
<path d="M59 27.0528C59.0001 26.4045 58.4608 25.9806 57.8213 25.874L54.3062 25.2882C53.6636 21.9543 52.3534 18.8579 50.5187 16.1451L52.5902 13.2451C52.9669 12.7174 53.0486 12.0364 52.5902 11.5779L48.4222 7.41006C47.9637 6.95148 47.2826 7.03318 46.7551 7.41006L43.8549 9.48144C41.1427 7.6463 38.0459 6.33647 34.712 5.69388L34.1261 2.17886C34.0195 1.53933 33.5956 1 32.9472 1H27.0528C26.4044 1 25.9806 1.53933 25.8739 2.17886L25.2881 5.69388C21.9541 6.33647 18.8574 7.6463 16.1451 9.48144L13.245 7.41006C12.7173 7.03318 12.0363 6.95148 11.5778 7.41006L7.40996 11.5779C6.95149 12.0364 7.03307 12.7174 7.40996 13.2451L9.48134 16.1451C7.64655 18.8579 6.33636 21.9543 5.69376 25.2882L2.17875 25.874C1.53933 25.9806 0.999882 26.4045 1 27.0528V32.9472C0.999882 33.5955 1.53933 34.0194 2.17875 34.126L5.69376 34.7119C6.33636 38.0457 7.64655 41.1422 9.48134 43.8549L7.40996 46.755C7.03307 47.2827 6.95149 47.9637 7.40996 48.4222L11.5778 52.5901C12.0363 53.0486 12.7173 52.9669 13.245 52.5901L16.1451 50.5186C18.8574 52.3537 21.9541 53.6636 25.2881 54.3061L25.8739 57.8213C25.9806 58.4608 26.4044 59 27.0528 59H32.9472C33.5956 59 34.0195 58.4608 34.1261 57.8213L34.712 54.3061C38.0459 53.6636 41.1427 52.3537 43.8549 50.5186L46.7551 52.5901C47.2826 52.9669 47.9637 53.0486 48.4222 52.5901L52.5902 48.4222C53.0486 47.9637 52.9669 47.2827 52.5902 46.755L50.5187 43.8549C52.3534 41.1422 53.6636 38.0457 54.3062 34.7119L57.8213 34.126C58.4608 34.0194 59.0001 33.5955 59 32.9472V27.0528Z" stroke="url(#paint0_linear_613_856)" stroke-width="2" stroke-miterlimit="22.926" stroke-linecap="round" stroke-linejoin="round"/>
<path d="M20.8358 13.3534C23.5534 11.8542 26.6767 11 29.9999 11C40.4934 11 49 19.5065 49 30C49 40.4933 40.4934 49 29.9999 49C19.5066 49 11 40.4933 11 30C11 26.677 11.8538 23.5537 13.353 20.8365" stroke="url(#paint1_linear_613_856)" stroke-width="2" stroke-miterlimit="22.926" stroke-linecap="round" stroke-linejoin="round"/>
<path d="M25.1598 37.1532V17H27.9092C28.8771 17 29.77 17.8 30.0432 18.6935L31.8032 24.4517H38.2734C39.773 24.4517 41 25.633 41 27.0767V35.375C41 36.8187 39.773 38 38.2734 38H19V24.4517H24.2802" stroke="url(#paint2_linear_613_856)" stroke-width="2" stroke-miterlimit="22.926" stroke-linecap="round" stroke-linejoin="round"/>
<defs>
<linearGradient id="paint0_linear_613_856" x1="1" y1="30" x2="59" y2="30" gradientUnits="userSpaceOnUse">
<stop stop-color="#9942FF"/>
<stop offset="1" stop-color="#FC067D"/>
</linearGradient>
<linearGradient id="paint1_linear_613_856" x1="11" y1="30" x2="49" y2="30" gradientUnits="userSpaceOnUse">
<stop stop-color="#9942FF"/>
<stop offset="1" stop-color="#FC067D"/>
</linearGradient>
<linearGradient id="paint2_linear_613_856" x1="19" y1="27.5" x2="41" y2="27.5" gradientUnits="userSpaceOnUse">
<stop stop-color="#FB9004"/>
<stop offset="1" stop-color="#FC067D"/>
</linearGradient>
</defs>
</svg>
