<svg width="884" height="637" viewBox="0 0 884 637" fill="none" xmlns="http://www.w3.org/2000/svg">
<g clip-path="url(#clip0_624_808)">
<path d="M230.494 332.96C210.388 261.035 172.02 211.606 143.366 182.807C112.308 151.584 85.5971 137.16 85.33 137.014L84.043 139.414C84.3101 139.56 110.73 153.838 141.521 184.795C169.908 213.352 207.959 262.393 227.896 333.712L230.494 332.96Z" fill="#EEEEFD"/>
<path d="M88.0498 139.681C88.0498 139.681 84.0431 131.875 76.2482 128.093C73.4314 126.712 67.5063 126.469 66.2436 129.087C64.9566 131.705 67.5306 135.584 71.6344 137.572C79.4293 141.354 88.0498 139.681 88.0498 139.681Z" fill="#EEEEFD"/>
<path d="M100.336 148.335C100.336 148.335 93.3429 144.772 85.5723 145.935C82.7555 146.347 78.166 149.087 78.5302 151.559C78.8944 154.032 82.7797 155.535 86.9079 154.929C94.6784 153.765 100.336 148.335 100.336 148.335Z" fill="#EEEEFD"/>
<path d="M119.812 164.844C119.812 164.844 113.207 161.959 106.845 163.995C104.538 164.747 101.235 168.044 102.037 170.541C102.838 173.037 106.432 174.128 109.759 173.062C116.121 171.025 119.812 164.844 119.812 164.844Z" fill="#EEEEFD"/>
<path d="M99.0752 148.505C99.0752 148.505 104.175 143.463 104.612 136.869C104.782 134.469 102.936 130.202 100.338 130.008C97.7397 129.839 95.4085 132.723 95.1657 136.214C94.7286 142.832 99.0752 148.505 99.0752 148.505Z" fill="#EEEEFD"/>
<path d="M204.389 268.598C204.389 268.598 211.043 265.495 214.418 259.096C215.632 256.768 215.997 251.872 213.835 250.732C211.674 249.593 208.372 251.605 206.599 254.975C203.199 261.35 204.389 268.598 204.389 268.598Z" fill="#EEEEFD"/>
<path d="M120.784 163.583C120.784 163.583 126.151 157.377 126.709 149.305C126.903 146.372 125.058 141.184 122.338 140.99C119.618 140.82 117.166 144.384 116.874 148.626C116.316 156.699 120.784 163.583 120.784 163.583Z" fill="#EEEEFD"/>
<path d="M141.423 181.377C141.423 181.377 147.64 176.043 148.125 168.989C148.295 166.419 145.988 161.838 142.783 161.62C139.578 161.401 136.737 164.48 136.494 168.189C136.008 175.243 141.423 181.377 141.423 181.377Z" fill="#EEEEFD"/>
<path d="M139.675 182.492C139.675 182.492 133.021 177.959 125.809 179.049C123.211 179.437 119.058 182.564 119.52 185.546C119.981 188.552 123.648 190.492 127.46 189.91C134.672 188.819 139.675 182.492 139.675 182.492Z" fill="#EEEEFD"/>
<path d="M204.196 269.932C204.196 269.932 200.505 264.186 193.002 261.859C190.282 261.011 184.527 261.253 183.216 263.362C181.904 265.471 184.284 268.259 188.242 269.495C195.746 271.847 204.196 269.932 204.196 269.932Z" fill="#EEEEFD"/>
<path d="M175.202 221.739C175.202 221.739 170.2 220.018 163.692 222.369C161.336 223.218 157.16 226.321 156.99 228.333C156.844 230.345 159.709 230.878 163.133 229.642C169.665 227.266 175.202 221.739 175.202 221.739Z" fill="#EEEEFD"/>
<path d="M160.534 201.909C160.534 201.909 163.74 198.103 163.618 191.946C163.57 189.716 161.991 185.304 160.17 184.625C158.325 183.946 156.916 186.249 156.989 189.522C157.11 195.679 160.534 201.909 160.534 201.909Z" fill="#EEEEFD"/>
<path d="M190.912 246.829C190.912 246.829 185.91 239.896 180.033 237.569C177.897 236.721 174.327 237.521 174.448 240.284C174.57 243.072 177.387 246.393 180.471 247.629C186.371 249.957 190.912 246.829 190.912 246.829Z" fill="#EEEEFD"/>
<path d="M175.298 222.903C175.298 222.903 182.559 216.067 185.012 208.382C185.91 205.594 185.085 201.085 182.171 201.425C179.257 201.764 175.784 205.594 174.497 209.643C172.045 217.303 175.298 222.903 175.298 222.903Z" fill="#EEEEFD"/>
<path d="M192.442 247.193C192.442 247.193 199.29 240.696 201.257 233.666C201.961 231.121 200.82 227.097 197.906 227.533C194.992 227.993 191.738 231.581 190.718 235.266C188.751 242.32 192.442 247.193 192.442 247.193Z" fill="#EEEEFD"/>
<path d="M214.953 292.283C214.953 292.283 211.553 288.21 204.754 286.925C202.301 286.465 197.08 286.998 195.915 288.671C194.749 290.343 196.935 292.307 200.504 292.986C207.304 294.246 214.953 292.283 214.953 292.283Z" fill="#EEEEFD"/>
<path d="M160.948 203.752C160.948 203.752 155.29 200.091 146.839 200.14C143.779 200.164 137.927 201.837 137.272 203.873C136.616 205.909 139.967 207.558 144.435 207.509C152.886 207.485 160.948 203.752 160.948 203.752Z" fill="#EEEEFD"/>
<path d="M275.977 375.65C230.374 316.452 176.271 284.937 138.9 268.914C98.3955 251.556 68.2117 248.138 67.9203 248.114L67.6289 250.805C67.9203 250.829 97.7642 254.223 137.928 271.459C174.96 287.362 228.601 318.609 273.816 377.323L275.977 375.65Z" fill="#EEEEFD"/>
<path d="M71.4654 249.569C71.4654 249.569 64.8118 243.823 56.167 243.217C53.0345 242.999 47.4494 244.987 47.2552 247.872C47.0609 250.781 50.8733 253.399 55.4143 253.738C64.0833 254.344 71.4654 249.569 71.4654 249.569Z" fill="#EEEEFD"/>
<path d="M86.1072 253.035C86.1072 253.035 78.288 252.332 71.5131 256.308C69.0605 257.738 65.8308 262.005 67.0935 264.162C68.3563 266.32 72.533 266.247 76.1026 264.162C82.9018 260.187 86.1072 253.035 86.1072 253.035Z" fill="#EEEEFD"/>
<path d="M110.342 261.059C110.342 261.059 103.13 260.865 98.0062 265.108C96.1607 266.659 94.3152 270.95 95.9907 272.986C97.6662 274.998 101.406 274.683 104.101 272.429C109.249 268.186 110.342 261.059 110.342 261.059Z" fill="#EEEEFD"/>
<path d="M85.0146 253.666C85.0146 253.666 87.8557 247.096 85.7916 240.817C85.0389 238.539 81.7364 235.266 79.2595 236.066C76.7826 236.866 75.6899 240.43 76.7826 243.751C78.8467 250.029 85.0146 253.666 85.0146 253.666Z" fill="#EEEEFD"/>
<path d="M227.653 325.712C227.653 325.712 232.655 320.354 233.384 313.155C233.651 310.561 232.145 305.858 229.693 305.616C227.264 305.373 224.958 308.476 224.569 312.258C223.841 319.458 227.653 325.712 227.653 325.712Z" fill="#EEEEFD"/>
<path d="M110.779 259.532C110.779 259.532 113.426 251.775 110.925 244.066C110.002 241.278 106.335 237.157 103.737 237.981C101.163 238.83 100.216 243.048 101.527 247.096C104.052 254.829 110.779 259.532 110.779 259.532Z" fill="#EEEEFD"/>
<path d="M136.592 268.332C136.592 268.332 140.38 261.083 138.17 254.344C137.369 251.896 133.508 248.502 130.448 249.496C127.389 250.49 125.907 254.393 127.073 257.932C129.258 264.671 136.592 268.332 136.592 268.332Z" fill="#EEEEFD"/>
<path d="M135.377 270.029C135.377 270.029 127.485 268.307 121.245 271.992C118.986 273.326 116.315 277.762 117.869 280.38C119.423 282.998 123.552 283.41 126.854 281.447C133.095 277.762 135.377 270.029 135.377 270.029Z" fill="#EEEEFD"/>
<path d="M227.969 327.021C227.969 327.021 222.408 323.094 214.565 323.7C211.724 323.918 206.478 326.294 206.041 328.742C205.604 331.191 208.858 332.888 212.986 332.572C220.854 331.966 227.969 327.021 227.969 327.021Z" fill="#EEEEFD"/>
<path d="M183.045 293.155C183.045 293.155 177.751 293.422 172.628 298.052C170.758 299.725 168.038 304.161 168.645 306.076C169.252 307.991 172.118 307.409 174.837 304.985C179.985 300.355 183.045 293.155 183.045 293.155Z" fill="#EEEEFD"/>
<path d="M162.017 280.234C162.017 280.234 163.571 275.507 161.142 269.835C160.268 267.774 157.136 264.283 155.193 264.332C153.25 264.405 152.789 267.071 154.052 270.053C156.48 275.75 162.017 280.234 162.017 280.234Z" fill="#EEEEFD"/>
<path d="M206.989 310.561C206.989 310.561 199.753 306.003 193.439 306.028C191.157 306.052 188.121 308.112 189.287 310.634C190.453 313.155 194.314 315.191 197.64 315.191C203.954 315.167 206.989 310.561 206.989 310.561Z" fill="#EEEEFD"/>
<path d="M183.555 294.198C183.555 294.198 187.732 285.131 187.125 277.107C186.906 274.198 184.454 270.295 181.88 271.701C179.33 273.107 177.509 277.931 177.825 282.174C178.432 290.246 183.555 294.198 183.555 294.198Z" fill="#EEEEFD"/>
<path d="M208.567 310.318C208.567 310.318 212.501 301.737 211.675 294.489C211.384 291.87 208.81 288.549 206.284 290.052C203.759 291.555 202.083 296.113 202.52 299.919C203.322 307.191 208.567 310.318 208.567 310.318Z" fill="#EEEEFD"/>
<path d="M246.328 343.748C246.328 343.748 241.641 341.227 234.866 342.584C232.413 343.069 227.775 345.517 227.314 347.505C226.853 349.493 229.621 350.487 233.191 349.784C239.965 348.426 246.328 343.748 246.328 343.748Z" fill="#EEEEFD"/>
<path d="M163.06 281.81C163.06 281.81 156.455 280.525 148.612 283.749C145.771 284.913 140.987 288.646 141.157 290.78C141.302 292.913 145.042 293.18 149.146 291.483C156.989 288.283 163.06 281.81 163.06 281.81Z" fill="#EEEEFD"/>
<path d="M697.336 374.074C720.478 303.07 760.909 255.29 790.753 227.727C823.122 197.837 850.392 184.552 850.683 184.431L851.873 186.88C851.606 187.001 824.603 200.164 792.525 229.812C762.949 257.156 722.857 304.525 699.934 374.947L697.336 374.074Z" fill="#EEEEFD"/>
<path d="M847.818 186.976C847.818 186.976 852.165 179.34 860.106 175.898C862.971 174.637 868.896 174.637 870.062 177.328C871.227 179.995 868.507 183.752 864.331 185.57C856.39 189.013 847.818 186.976 847.818 186.976Z" fill="#EEEEFD"/>
<path d="M835.191 195.122C835.191 195.122 842.331 191.849 850.053 193.328C852.845 193.861 857.313 196.794 856.852 199.243C856.39 201.715 852.432 203.025 848.353 202.249C840.606 200.77 835.191 195.122 835.191 195.122Z" fill="#EEEEFD"/>
<path d="M815.035 210.782C815.035 210.782 821.762 208.188 828.027 210.491C830.285 211.339 833.466 214.782 832.567 217.23C831.669 219.703 828.027 220.624 824.724 219.412C818.459 217.109 815.035 210.782 815.035 210.782Z" fill="#EEEEFD"/>
<path d="M836.429 195.34C836.429 195.34 831.548 190.104 831.378 183.486C831.329 181.086 833.345 176.892 835.943 176.819C838.566 176.746 840.751 179.752 840.848 183.243C841.018 189.861 836.429 195.34 836.429 195.34Z" fill="#EEEEFD"/>
<path d="M726.135 310.876C726.135 310.876 719.627 307.482 716.519 300.961C715.402 298.585 715.256 293.664 717.466 292.622C719.676 291.58 722.881 293.737 724.508 297.179C727.616 303.7 726.135 310.876 726.135 310.876Z" fill="#EEEEFD"/>
<path d="M814.113 209.473C814.113 209.473 809.013 203.049 808.795 194.952C808.722 192.019 810.81 186.904 813.53 186.831C816.25 186.758 818.557 190.419 818.654 194.685C818.872 202.782 814.113 209.473 814.113 209.473Z" fill="#EEEEFD"/>
<path d="M792.744 226.394C792.744 226.394 786.746 220.818 786.576 213.739C786.503 211.17 789.004 206.685 792.234 206.612C795.463 206.515 798.159 209.715 798.232 213.448C798.426 220.503 792.744 226.394 792.744 226.394Z" fill="#EEEEFD"/>
<path d="M794.443 227.581C794.443 227.581 801.291 223.315 808.43 224.721C811.029 225.23 815.011 228.503 814.428 231.484C813.846 234.466 810.082 236.236 806.318 235.508C799.179 234.102 794.443 227.581 794.443 227.581Z" fill="#EEEEFD"/>
<path d="M726.258 312.209C726.258 312.209 730.192 306.634 737.792 304.622C740.536 303.894 746.291 304.379 747.505 306.537C748.72 308.694 746.243 311.385 742.236 312.476C734.636 314.488 726.258 312.209 726.258 312.209Z" fill="#EEEEFD"/>
<path d="M757.266 265.277C757.266 265.277 762.341 263.774 768.727 266.392C771.034 267.338 775.089 270.61 775.162 272.623C775.235 274.635 772.321 275.047 768.97 273.665C762.584 271.047 757.266 265.277 757.266 265.277Z" fill="#EEEEFD"/>
<path d="M772.759 246.078C772.759 246.078 769.724 242.151 770.112 235.993C770.258 233.763 772.007 229.424 773.876 228.818C775.746 228.236 777.057 230.587 776.863 233.836C776.45 240.017 772.759 246.078 772.759 246.078Z" fill="#EEEEFD"/>
<path d="M740.535 289.689C740.535 289.689 745.829 282.974 751.778 280.889C753.939 280.137 757.485 281.083 757.242 283.846C756.999 286.61 754.037 289.834 750.904 290.925C744.93 293.01 740.535 289.689 740.535 289.689Z" fill="#EEEEFD"/>
<path d="M757.146 266.465C757.146 266.465 750.176 259.314 748.064 251.556C747.287 248.744 748.307 244.26 751.196 244.72C754.086 245.181 757.388 249.157 758.53 253.253C760.642 261.011 757.146 266.465 757.146 266.465Z" fill="#EEEEFD"/>
<path d="M738.981 290.004C738.981 290.004 732.4 283.216 730.749 276.113C730.142 273.544 731.453 269.568 734.367 270.126C737.257 270.707 740.365 274.441 741.239 278.174C742.866 285.277 738.981 290.004 738.981 290.004Z" fill="#EEEEFD"/>
<path d="M714.576 334.1C714.576 334.1 718.146 330.172 724.994 329.178C727.47 328.815 732.643 329.566 733.76 331.288C734.853 333.009 732.594 334.875 728.976 335.409C722.128 336.378 714.576 334.1 714.576 334.1Z" fill="#EEEEFD"/>
<path d="M772.297 247.92C772.297 247.92 778.101 244.502 786.551 244.914C789.611 245.06 795.366 246.999 795.949 249.06C796.531 251.12 793.107 252.623 788.639 252.405C780.189 251.993 772.297 247.92 772.297 247.92Z" fill="#EEEEFD"/>
<path d="M650.082 414.825C698.138 357.59 753.528 328.379 791.555 313.955C832.763 298.319 863.044 296.185 863.36 296.161L863.53 298.876C863.239 298.901 833.273 301.01 792.429 316.524C754.742 330.851 699.838 359.82 652.17 416.546L650.082 414.825Z" fill="#EEEEFD"/>
<path d="M859.742 297.47C859.742 297.47 866.614 292.016 875.283 291.774C878.416 291.677 883.904 293.907 883.977 296.816C884.05 299.725 880.14 302.197 875.575 302.319C866.93 302.561 859.742 297.47 859.742 297.47Z" fill="#EEEEFD"/>
<path d="M844.979 300.307C844.979 300.307 852.822 299.943 859.427 304.21C861.831 305.761 864.866 310.125 863.506 312.234C862.147 314.343 857.994 314.1 854.498 311.846C847.893 307.579 844.979 300.307 844.979 300.307Z" fill="#EEEEFD"/>
<path d="M820.404 307.312C820.404 307.312 827.616 307.409 832.57 311.894C834.367 313.518 836.018 317.906 834.246 319.845C832.473 321.785 828.758 321.3 826.159 318.949C821.23 314.464 820.404 307.312 820.404 307.312Z" fill="#EEEEFD"/>
<path d="M846.047 300.985C846.047 300.985 843.497 294.295 845.804 288.113C846.654 285.859 850.078 282.731 852.53 283.628C854.983 284.549 855.906 288.137 854.667 291.41C852.36 297.616 846.047 300.985 846.047 300.985Z" fill="#EEEEFD"/>
<path d="M700.469 366.971C700.469 366.971 695.709 361.396 695.272 354.196C695.127 351.578 696.826 346.948 699.279 346.826C701.707 346.681 703.893 349.881 704.111 353.687C704.548 360.862 700.469 366.971 700.469 366.971Z" fill="#EEEEFD"/>
<path d="M820.039 305.761C820.039 305.761 817.708 297.882 820.549 290.319C821.569 287.58 825.43 283.604 827.979 284.549C830.529 285.495 831.282 289.761 829.8 293.761C826.959 301.349 820.039 305.761 820.039 305.761Z" fill="#EEEEFD"/>
<path d="M793.887 313.47C793.887 313.47 790.414 306.052 792.915 299.434C793.814 297.034 797.821 293.81 800.832 294.925C803.843 296.04 805.154 300.016 803.843 303.506C801.366 310.124 793.887 313.47 793.887 313.47Z" fill="#EEEEFD"/>
<path d="M795.027 315.215C795.027 315.215 802.968 313.809 809.063 317.785C811.273 319.215 813.75 323.748 812.098 326.294C810.447 328.839 806.295 329.082 803.065 326.997C796.97 323.021 795.027 315.215 795.027 315.215Z" fill="#EEEEFD"/>
<path d="M700.105 368.256C700.105 368.256 705.836 364.547 713.631 365.517C716.448 365.856 721.596 368.45 721.912 370.923C722.227 373.395 718.901 374.947 714.797 374.462C707.026 373.492 700.105 368.256 700.105 368.256Z" fill="#EEEEFD"/>
<path d="M746.438 336.306C746.438 336.306 751.707 336.79 756.636 341.639C758.433 343.384 760.959 347.942 760.279 349.808C759.599 351.699 756.733 350.996 754.135 348.451C749.181 343.627 746.438 336.306 746.438 336.306Z" fill="#EEEEFD"/>
<path d="M768 324.282C768 324.282 766.641 319.506 769.312 313.93C770.283 311.918 773.537 308.549 775.48 308.694C777.422 308.84 777.786 311.531 776.354 314.464C773.683 320.039 768 324.282 768 324.282Z" fill="#EEEEFD"/>
<path d="M721.766 352.693C721.766 352.693 729.172 348.451 735.486 348.742C737.768 348.863 740.706 351.045 739.444 353.517C738.181 355.99 734.247 357.881 730.92 357.711C724.607 357.42 721.766 352.693 721.766 352.693Z" fill="#EEEEFD"/>
<path d="M745.854 337.348C745.854 337.348 742.066 328.112 743.013 320.136C743.353 317.227 745.976 313.446 748.477 314.973C750.978 316.476 752.581 321.397 752.071 325.615C751.148 333.591 745.854 337.348 745.854 337.348Z" fill="#EEEEFD"/>
<path d="M720.187 352.402C720.187 352.402 716.617 343.651 717.758 336.451C718.171 333.857 720.867 330.657 723.343 332.257C725.82 333.881 727.277 338.487 726.695 342.269C725.578 349.469 720.187 352.402 720.187 352.402Z" fill="#EEEEFD"/>
<path d="M681.066 384.183C681.066 384.183 685.85 381.88 692.577 383.504C695.005 384.086 699.522 386.728 699.91 388.74C700.274 390.752 697.482 391.625 693.936 390.777C687.21 389.128 681.066 384.183 681.066 384.183Z" fill="#EEEEFD"/>
<path d="M766.859 325.809C766.859 325.809 773.513 324.815 781.211 328.354C783.979 329.639 788.617 333.566 788.374 335.7C788.131 337.833 784.392 337.93 780.361 336.063C772.663 332.548 766.859 325.809 766.859 325.809Z" fill="#EEEEFD"/>
<path d="M576.65 558.433C576.65 558.433 572.765 556.517 568.297 554.845C563.537 553.051 557.807 550.821 554.431 549.196C548.531 546.36 548.021 544.518 545.811 534.845C543.407 524.3 541.149 502.046 540.226 492.325H428.378C427.455 502.046 425.197 524.3 422.793 534.845C420.583 544.518 420.073 546.36 414.172 549.196C410.846 550.796 405.188 553.002 400.477 554.772C395.936 556.493 392.245 557.802 392.245 557.802C392.245 557.802 388.651 559.79 394.43 560.081H574.222C579.637 560.178 576.65 558.433 576.65 558.433Z" fill="#6880E4"/>
<path d="M543.673 518.773C543.187 514.167 540.492 495.283 540.225 492.325H428.377C428.11 495.283 428.353 496.762 427.867 501.368L543.673 518.773Z" fill="#1717A1"/>
<path d="M751.341 431.212V120.894C751.341 112.845 744.785 106.3 736.698 106.3H231.902C223.84 106.3 217.26 112.845 217.26 120.894V431.236H751.341V431.212Z" fill="#6880E4"/>
<path d="M726.501 131.317H242.078V403.649H726.501V131.317Z" fill="white"/>
<path d="M216.896 431.018V475.889C216.896 484.544 223.89 491.525 232.535 491.525H736.068C744.713 491.525 751.706 484.52 751.706 475.889V431.018H216.896Z" fill="#DBDCFD"/>
<path d="M726.501 131.317H242.078V158.323H726.501V131.317Z" fill="#DBDCFD"/>
<path d="M726.817 164.262H243.342V402.825H726.817V164.262Z" fill="#EEEEFD"/>
<path d="M714.602 138.323H489.279V151.293H714.602V138.323Z" fill="white"/>
<path d="M480.32 138.323H466.43V151.293H480.32V138.323Z" fill="white"/>
<path d="M701.925 181.425H431.801V283.483H701.925V181.425Z" fill="white"/>
<path d="M675.068 199.122H564.119V206.806H675.068V199.122Z" fill="#DFDEFF"/>
<path d="M690.682 215.606H564.119V221.351H690.682V215.606Z" fill="#DFDEFF"/>
<path d="M674.072 229.06H563.584V234.854H674.072V229.06Z" fill="#DFDEFF"/>
<path d="M686.602 242.054H563.584V247.823H686.602V242.054Z" fill="#DFDEFF"/>
<path d="M591.072 256.09H563.584V261.835H591.072V256.09Z" fill="#DFDEFF"/>
<path d="M555.061 199.534H440.518V267.12H555.061V199.534Z" fill="#DFDEFF"/>
<path d="M440.518 199.534L555.061 267.12" stroke="white" stroke-width="0.3388" stroke-miterlimit="10"/>
<path d="M555.061 199.534L440.518 267.12" stroke="white" stroke-width="0.3388" stroke-miterlimit="10"/>
<path d="M413.856 180.795H262.5V283.41H413.856V180.795Z" fill="white"/>
<path d="M389.793 208.77H275.979V215.412H389.793V208.77Z" fill="#DFDEFF"/>
<path d="M403.974 194.346H275.979V200.988H403.974V194.346Z" fill="#DFDEFF"/>
<path d="M405.796 223.63H275.979V229.375H405.796V223.63Z" fill="#DFDEFF"/>
<path d="M388.772 237.084H275.443V242.878H388.772V237.084Z" fill="#DFDEFF"/>
<path d="M401.642 250.102H275.443V255.871H401.642V250.102Z" fill="#DFDEFF"/>
<path d="M303.636 264.114H275.443V269.859H303.636V264.114Z" fill="#DFDEFF"/>
<path d="M807.922 560.832C807.922 566.141 670.382 570.456 500.741 570.456C331.075 570.456 193.561 566.141 193.561 560.832C193.561 555.524 331.1 551.209 500.741 551.209C670.407 551.209 807.922 555.499 807.922 560.832Z" fill="#DBDCFD"/>
<path d="M820.304 405.346C820.304 405.346 770.233 441.2 730.287 542.239" stroke="#151852" stroke-width="0.4688" stroke-miterlimit="10"/>
<path d="M770.913 418.509C770.913 418.509 735.047 468.52 724.605 530.288" stroke="#151852" stroke-width="0.4688" stroke-miterlimit="10"/>
<path d="M800.247 467.769C800.247 467.769 757.218 481.538 747.432 538.118" stroke="#151852" stroke-width="0.4688" stroke-miterlimit="10"/>
<path d="M826.789 397.637C834.778 404.352 839.052 412.4 836.332 415.625C833.612 418.849 824.919 416.037 816.954 409.346C808.965 402.631 804.691 394.583 807.411 391.359C810.131 388.11 818.8 390.922 826.789 397.637Z" fill="#EAAA37"/>
<path d="M823.412 401.613C825.938 403.746 827.298 406.291 826.448 407.334C825.574 408.352 822.83 407.455 820.304 405.346C817.779 403.213 816.419 400.667 817.269 399.625C818.143 398.607 820.887 399.48 823.412 401.613Z" fill="#151852"/>
<path d="M773.634 415.309C776.961 418.097 778.733 421.467 777.616 422.8C776.475 424.133 772.857 422.97 769.554 420.182C766.228 417.394 764.455 414.049 765.596 412.691C766.689 411.334 770.307 412.522 773.634 415.309Z" fill="#EAAA37"/>
<path d="M772.224 416.958C773.292 417.855 773.851 418.921 773.487 419.333C773.122 419.77 771.981 419.382 770.913 418.509C769.868 417.612 769.286 416.546 769.65 416.134C770.014 415.697 771.18 416.085 772.224 416.958Z" fill="#151852"/>
<path d="M803.597 465.417C806.803 469.999 807.871 474.774 806.026 476.083C804.156 477.368 800.052 474.702 796.871 470.12C793.666 465.538 792.597 460.763 794.467 459.454C796.312 458.145 800.416 460.835 803.597 465.417Z" fill="#EAAA37"/>
<path d="M801.315 467.017C802.335 468.471 802.675 469.999 802.092 470.411C801.51 470.823 800.198 469.975 799.178 468.52C798.159 467.065 797.819 465.538 798.401 465.126C798.984 464.714 800.295 465.562 801.315 467.017Z" fill="#151852"/>
<path d="M866.176 560.033C869.77 554.53 865.302 549.827 848.231 547.354C829.606 544.639 811.831 546.481 797.188 549.851C831.694 533.148 871.931 509.707 835.191 506.992C823.729 506.143 806.124 511.694 786.528 520.325C808.382 502.555 820.403 487.962 807.168 485.271C794.881 482.75 769.797 497.198 743.134 516.373C758.335 500.301 767.15 486.289 760.302 479.671C754.717 474.265 742.843 480.471 729.171 491.937C729.778 481.853 725.529 475.744 715.84 476.98C706.709 478.12 699.327 489.804 694.058 503.84C685.316 482.095 662.199 468.811 638.887 475.405C611.496 483.162 633.496 535.282 645.759 560.033H866.176Z" fill="url(#paint0_linear_624_808)"/>
<path d="M301.96 413.297H0V636.976H301.96V413.297Z" fill="#EEEEFD"/>
<path d="M279.474 443.939H25.2305V590.068H279.474V443.939Z" fill="white"/>
<path d="M279.474 590.068L125.641 589.51L199.874 518.288L279.474 590.068Z" fill="#D4CCF3"/>
<path d="M253.806 590.068L25.4727 589.244L135.645 483.526L253.806 590.068Z" fill="#D4CCF3"/>
<path d="M232.461 476.714C232.461 468.617 239.042 462.072 247.128 462.072C255.238 462.072 261.795 468.641 261.795 476.714C261.795 484.786 255.214 491.356 247.128 491.356C239.017 491.356 232.461 484.81 232.461 476.714Z" fill="url(#paint1_linear_624_808)"/>
<g opacity="0.2">
<path d="M327.967 276.332H4.37109V394.025H327.967V276.332Z" fill="white"/>
<path d="M327.749 276.428H4.46875V393.855H327.749V276.428Z" fill="#FEFEFF"/>
<path d="M327.553 276.525H4.56445V393.686H327.553V276.525Z" fill="#FDFDFF"/>
<path d="M327.335 276.622H4.66211V393.516H327.335V276.622Z" fill="#FCFCFE"/>
<path d="M327.117 276.719H4.75977V393.322H327.117V276.719Z" fill="#FBFBFE"/>
<path d="M326.899 276.816H4.85742V393.152H326.899V276.816Z" fill="#FAFAFE"/>
<path d="M326.679 276.889H4.95312V392.959H326.679V276.889Z" fill="#F9F9FE"/>
<path d="M326.461 276.986H5.05078V392.765H326.461V276.986Z" fill="#F8F8FE"/>
<path d="M326.218 277.083H5.12305V392.595H326.218V277.083Z" fill="#F7F7FE"/>
<path d="M326 277.18H5.2207V392.425H326V277.18Z" fill="#F6F6FD"/>
<path d="M325.782 277.277H5.31836V392.231H325.782V277.277Z" fill="#F5F5FD"/>
<path d="M325.564 277.374H5.41602V392.062H325.564V277.374Z" fill="#F4F4FD"/>
<path d="M325.344 277.471H5.51172V391.892H325.344V277.471Z" fill="#F3F3FD"/>
<path d="M325.126 277.568H5.60938V391.698H325.126V277.568Z" fill="#F2F2FD"/>
<path d="M324.908 277.665H5.70703V391.528H324.908V277.665Z" fill="#F1F1FD"/>
<path d="M324.69 277.762H5.80469V391.359H324.69V277.762Z" fill="#F0F0FC"/>
<path d="M324.47 277.859H5.90039V391.189H324.47V277.859Z" fill="#EFEFFC"/>
<path d="M324.228 277.956H5.97461V390.995H324.228V277.956Z" fill="#EEEEFC"/>
<path d="M324.033 278.053H6.07031V390.825H324.033V278.053Z" fill="#EDEDFC"/>
<path d="M323.815 278.15H6.16797V390.656H323.815V278.15Z" fill="#EDECFC"/>
<path d="M323.596 278.247H6.26562V390.462H323.596V278.247Z" fill="#ECEBFC"/>
<path d="M323.376 278.344H6.36133V390.292H323.376V278.344Z" fill="#EBEAFB"/>
<path d="M323.158 278.441H6.45898V390.122H323.158V278.441Z" fill="#EAE9FB"/>
<path d="M322.94 278.538H6.55664V389.928H322.94V278.538Z" fill="#E9E8FB"/>
<path d="M322.722 278.634H6.6543V389.759H322.722V278.634Z" fill="#E8E7FB"/>
<path d="M322.479 278.731H6.72656V389.589H322.479V278.731Z" fill="#E7E6FB"/>
<path d="M322.261 278.828H6.82422V389.395H322.261V278.828Z" fill="#E6E5FB"/>
<path d="M322.041 278.925H6.91992V389.225H322.041V278.925Z" fill="#E5E4FA"/>
<path d="M321.823 279.022H7.01758V389.056H321.823V279.022Z" fill="#E4E3FA"/>
<path d="M321.605 279.119H7.11523V388.886H321.605V279.119Z" fill="#E3E2FA"/>
<path d="M321.387 279.216H7.21289V388.692H321.387V279.216Z" fill="#E2E1FA"/>
<path d="M321.167 279.289H7.30859V388.498H321.167V279.289Z" fill="#E1E0FA"/>
<path d="M320.949 279.386H7.40625V388.328H320.949V279.386Z" fill="#E0DFFA"/>
<path d="M320.731 279.483H7.50391V388.134H320.731V279.483Z" fill="#DFDEF9"/>
<path d="M320.488 279.58H7.57617V387.965H320.488V279.58Z" fill="#DEDDF9"/>
<path d="M320.294 279.677H7.67383V387.795H320.294V279.677Z" fill="#DDDCF9"/>
<path d="M320.076 279.774H7.77148V387.601H320.076V279.774Z" fill="#DCDBF9"/>
<path d="M319.856 279.871H7.86719V387.431H319.856V279.871Z" fill="#DBDAF9"/>
<path d="M319.638 279.968H7.96484V387.262H319.638V279.968Z" fill="#DAD9F8"/>
<path d="M319.42 280.065H8.0625V387.068H319.42V280.065Z" fill="#D9D8F8"/>
<path d="M319.202 280.162H8.16016V386.898H319.202V280.162Z" fill="#D8D7F8"/>
<path d="M318.982 280.259H8.25586V386.728H318.982V280.259Z" fill="#D7D6F8"/>
<path d="M318.74 280.356H8.33008V386.534H318.74V280.356Z" fill="#D6D5F8"/>
<path d="M318.52 280.453H8.42578V386.365H318.52V280.453Z" fill="#D5D4F8"/>
<path d="M318.302 280.55H8.52344V386.195H318.302V280.55Z" fill="#D4D3F7"/>
<path d="M318.084 280.647H8.62109V386.025H318.084V280.647Z" fill="#D3D2F7"/>
<path d="M317.864 280.743H8.7168V385.831H317.864V280.743Z" fill="#D2D1F7"/>
<path d="M317.646 280.84H8.81445V385.662H317.646V280.84Z" fill="#D1D0F7"/>
<path d="M317.428 280.937H8.91211V385.492H317.428V280.937Z" fill="#D0CFF7"/>
<path d="M317.21 281.034H9.00977V385.298H317.21V281.034Z" fill="#CFCEF7"/>
<path d="M316.99 281.131H9.10547V385.128H316.99V281.131Z" fill="#CECDF6"/>
<path d="M316.749 281.228H9.17969V384.959H316.749V281.228Z" fill="#CDCCF6"/>
<path d="M316.553 281.325H9.27539V384.765H316.553V281.325Z" fill="#CCCBF6"/>
<path d="M316.335 281.422H9.37305V384.595H316.335V281.422Z" fill="#CBCAF6"/>
<path d="M316.117 281.519H9.4707V384.425H316.117V281.519Z" fill="#CAC9F6"/>
<path d="M315.899 281.592H9.56836V384.207H315.899V281.592Z" fill="#C9C8F6"/>
<path d="M315.679 281.689H9.66406V384.038H315.679V281.689Z" fill="#C9C8F5"/>
<path d="M315.461 281.786H9.76172V383.868H315.461V281.786Z" fill="#C8C7F5"/>
<path d="M315.243 281.883H9.85938V383.698H315.243V281.883Z" fill="#C7C6F5"/>
<path d="M315 281.98H9.93164V383.504H315V281.98Z" fill="#C6C5F5"/>
<path d="M314.782 282.077H10.0293V383.335H314.782V282.077Z" fill="#C5C4F5"/>
<path d="M314.563 282.174H10.127V383.165H314.563V282.174Z" fill="#C4C3F5"/>
<path d="M314.344 282.271H10.2227V382.971H314.344V282.271Z" fill="#C3C2F4"/>
<path d="M314.125 282.368H10.3203V382.801H314.125V282.368Z" fill="#C2C1F4"/>
<path d="M313.907 282.465H10.418V382.632H313.907V282.465Z" fill="#C1C0F4"/>
<path d="M313.689 282.562H10.5156V382.438H313.689V282.562Z" fill="#C0BFF4"/>
<path d="M313.469 282.659H10.6113V382.268H313.469V282.659Z" fill="#BFBEF4"/>
<path d="M313.251 282.756H10.709V382.098H313.251V282.756Z" fill="#BEBDF4"/>
<path d="M313.008 282.853H10.7812V381.904H313.008V282.853Z" fill="#BDBCF3"/>
<path d="M312.814 282.95H10.8789V381.735H312.814V282.95Z" fill="#BCBBF3"/>
<path d="M312.596 283.046H10.9766V381.565H312.596V283.046Z" fill="#BBBAF3"/>
<path d="M312.376 283.143H11.0723V381.395H312.376V283.143Z" fill="#BAB9F3"/>
<path d="M312.158 283.24H11.1699V381.201H312.158V283.24Z" fill="#B9B8F3"/>
<path d="M311.94 283.337H11.2676V381.032H311.94V283.337Z" fill="#B8B7F3"/>
<path d="M311.722 283.434H11.3652V380.862H311.722V283.434Z" fill="#B7B6F2"/>
<path d="M311.502 283.531H11.4609V380.668H311.502V283.531Z" fill="#B6B5F2"/>
<path d="M311.261 283.628H11.5352V380.498H311.261V283.628Z" fill="#B5B4F2"/>
<path d="M311.041 283.725H11.6309V380.329H311.041V283.725Z" fill="#B4B3F2"/>
<path d="M310.823 283.822H11.7285V380.135H310.823V283.822Z" fill="#B3B2F2"/>
<path d="M310.605 283.895H11.8262V379.941H310.605V283.895Z" fill="#B2B1F1"/>
<path d="M310.387 283.992H11.9238V379.771H310.387V283.992Z" fill="#B1B0F1"/>
<path d="M310.167 284.089H12.0195V379.577H310.167V284.089Z" fill="#B0AFF1"/>
<path d="M309.949 284.186H12.1172V379.407H309.949V284.186Z" fill="#AFAEF1"/>
<path d="M309.731 284.283H12.2148V379.238H309.731V284.283Z" fill="#AEADF1"/>
<path d="M309.513 284.38H12.3125V379.068H309.513V284.38Z" fill="#ADACF1"/>
<path d="M309.269 284.477H12.3848V378.874H309.269V284.477Z" fill="#ACABF0"/>
<path d="M309.076 284.574H12.4824V378.704H309.076V284.574Z" fill="#ABAAF0"/>
<path d="M308.856 284.671H12.5781V378.535H308.856V284.671Z" fill="#AAA9F0"/>
<path d="M308.638 284.768H12.6758V378.341H308.638V284.768Z" fill="#A9A8F0"/>
<path d="M308.419 284.865H12.7734V378.171H308.419V284.865Z" fill="#A8A7F0"/>
<path d="M308.201 284.962H12.8711V378.001H308.201V284.962Z" fill="#A7A6F0"/>
<path d="M307.982 285.059H12.9668V377.807H307.982V285.059Z" fill="#A6A5EF"/>
<path d="M307.764 285.156H13.0645V377.638H307.764V285.156Z" fill="#A5A4EF"/>
<path d="M307.52 285.252H13.1367V377.468H307.52V285.252Z" fill="#A5A3EF"/>
<path d="M307.302 285.349H13.2344V377.274H307.302V285.349Z" fill="#A4A2EF"/>
<path d="M307.084 285.446H13.332V377.104H307.084V285.446Z" fill="#A3A1EF"/>
<path d="M306.864 285.543H13.4277V376.935H306.864V285.543Z" fill="#A2A0EF"/>
<path d="M306.646 285.64H13.5254V376.741H306.646V285.64Z" fill="#A19FEE"/>
<path d="M306.428 285.737H13.623V376.571H306.428V285.737Z" fill="#A09EEE"/>
<path d="M306.21 285.834H13.7207V376.401H306.21V285.834Z" fill="#9F9DEE"/>
<path d="M305.99 285.931H13.8164V376.232H305.99V285.931Z" fill="#9E9CEE"/>
<path d="M305.749 286.028H13.8906V376.038H305.749V286.028Z" fill="#9D9BEE"/>
<path d="M305.553 286.125H13.9863V375.868H305.553V286.125Z" fill="#9C9AEE"/>
<path d="M305.335 286.222H14.084V375.698H305.335V286.222Z" fill="#9B99ED"/>
<path d="M305.117 286.295H14.1816V375.48H305.117V286.295Z" fill="#9A98ED"/>
<path d="M304.899 286.392H14.2793V375.311H304.899V286.392Z" fill="#9997ED"/>
<path d="M304.679 286.489H14.375V375.141H304.679V286.489Z" fill="#9896ED"/>
<path d="M304.461 286.586H14.4727V374.947H304.461V286.586Z" fill="#9795ED"/>
<path d="M304.243 286.683H14.5703V374.777H304.243V286.683Z" fill="#9694ED"/>
<path d="M304.025 286.78H14.668V374.607H304.025V286.78Z" fill="#9593EC"/>
<path d="M303.781 286.877H14.7402V374.414H303.781V286.877Z" fill="#9492EC"/>
<path d="M303.563 286.974H14.8379V374.244H303.563V286.974Z" fill="#9391EC"/>
</g>
<path d="M297.589 270.853H0.388672V367.335H297.589V270.853Z" fill="#F3F3FD"/>
<path d="M244.7 287.604H135.645V294.876H244.7V287.604Z" fill="#9391EC"/>
<path d="M260.047 303.167H135.645V308.597H260.047V303.167Z" fill="#9391EC"/>
<path d="M243.729 315.894H135.135V321.373H243.729V315.894Z" fill="#9391EC"/>
<path d="M256.04 328.185H135.135V333.639H256.04V328.185Z" fill="#9391EC"/>
<path d="M162.162 341.445H135.135V346.875H162.162V341.445Z" fill="#9391EC"/>
<path d="M125.397 287.992H15.6621V351.893H125.397V287.992Z" fill="#9391EC"/>
<path d="M70.5414 309.155C64.5678 309.155 59.7598 313.979 59.7598 319.942C59.7598 325.882 64.5678 330.706 70.5414 330.706C76.4908 330.706 81.3474 325.882 81.3474 319.942C81.3231 313.979 76.4908 309.155 70.5414 309.155ZM74.9124 320.015L67.7246 324.136C67.6518 324.16 67.6518 324.185 67.6032 324.185C67.6032 324.16 67.6032 324.136 67.6032 324.063V315.773C67.6032 315.676 67.6032 315.676 67.6032 315.652C67.6032 315.652 67.6518 315.676 67.7246 315.676L74.9124 319.821C74.9852 319.845 75.0095 319.894 75.0095 319.918C75.0095 319.942 74.9852 319.967 74.9124 320.015Z" fill="white"/>
<path d="M569.05 460.375L569.025 532.761L631.894 470.047L569.05 460.375Z" fill="#E5EDFD"/>
<path d="M703.577 492.422C703.577 497.562 699.401 501.731 694.253 501.731L437.095 501.658C431.947 501.658 427.795 497.489 427.795 492.35L427.843 312.646C427.843 307.506 432.02 303.361 437.168 303.361L694.326 303.434C699.474 303.434 703.65 307.603 703.65 312.743L703.577 492.422Z" fill="white"/>
<path d="M480.149 333.687C480.149 341.518 473.786 347.845 465.943 347.845C458.1 347.845 451.762 341.493 451.762 333.663C451.762 325.833 458.124 319.506 465.967 319.506C473.811 319.53 480.149 325.857 480.149 333.687Z" fill="url(#paint2_linear_624_808)"/>
<path d="M638.888 337.687H492.559V343.893H638.888V337.687Z" fill="#EEEEFD"/>
<path d="M575.024 323.53H492.559V329.736H575.024V323.53Z" fill="#EEEEFD"/>
<path d="M681.431 361.832H452.539V478.58H681.431V361.832Z" fill="url(#paint3_linear_624_808)"/>
<path d="M572.619 420.206L564.047 425.152L555.451 430.097L555.475 420.206V410.34L564.047 415.261L572.619 420.206Z" fill="white"/>
<path d="M564.047 451.575C581.401 451.575 595.47 437.531 595.47 420.206C595.47 402.882 581.401 388.837 564.047 388.837C546.693 388.837 532.625 402.882 532.625 420.206C532.625 437.531 546.693 451.575 564.047 451.575Z" stroke="white" stroke-width="0.9375" stroke-miterlimit="10"/>
<path d="M180.837 181.934C180.837 196.673 168.865 208.624 154.101 208.624C139.337 208.624 127.365 196.673 127.365 181.934C127.365 167.195 139.337 155.244 154.101 155.244C168.865 155.244 180.837 167.195 180.837 181.934Z" fill="url(#paint4_linear_624_808)"/>
<path d="M141.352 184.916L151.332 192.916L169.301 170.977" stroke="#FFFFFD" stroke-width="1.9206" stroke-miterlimit="10" stroke-linecap="round" stroke-linejoin="round"/>
<path d="M767.928 91.3186H722.737C709.965 91.3186 699.596 80.9674 699.596 68.2162V23.1024C699.596 10.3512 709.965 0 722.737 0H767.928C780.701 0 791.07 10.3512 791.07 23.1024V68.2162C791.07 80.9674 780.701 91.3186 767.928 91.3186Z" fill="url(#paint5_linear_624_808)"/>
<path d="M765.33 65.6224C765.33 65.6224 765.33 64.1679 765.33 63.4164C765.33 56.0711 759.356 50.1077 751.999 50.1077C749.57 50.1077 741.096 50.1077 738.667 50.1077C731.31 50.1077 725.336 56.0711 725.336 63.4164C725.336 64.1679 725.336 65.6224 725.336 65.6224H765.33Z" fill="white"/>
<path d="M754.232 34.5687C754.232 39.4655 750.25 43.4412 745.345 43.4412C740.439 43.4412 736.457 39.4655 736.457 34.5687C736.457 29.6719 740.439 25.6962 745.345 25.6962C750.25 25.6962 754.232 29.6719 754.232 34.5687Z" fill="white"/>
<path d="M626.577 174.686H581.386C568.613 174.686 558.244 164.335 558.244 151.584V106.47C558.244 93.7185 568.613 83.3673 581.386 83.3673H626.577C639.35 83.3673 649.718 93.7185 649.718 106.47V151.584C649.718 164.359 639.35 174.686 626.577 174.686Z" fill="#9391EC"/>
<path d="M627.597 119.366C627.039 115.706 624.877 112.506 621.696 110.615L621.599 110.567C617.01 107.876 611.182 108.409 607.199 111.948L603.994 114.76L600.789 111.948C596.782 108.433 590.978 107.876 586.389 110.567L586.292 110.615C583.111 112.506 580.925 115.706 580.391 119.366C579.832 123.075 580.998 126.833 583.572 129.572L600.522 147.705C602.391 149.717 605.597 149.717 607.467 147.705L619.317 135.026L624.416 129.572C626.99 126.833 628.156 123.075 627.597 119.366Z" fill="white"/>
<path d="M839.685 260.477H807.049C797.821 260.477 790.342 253.011 790.342 243.799V211.218C790.342 202.006 797.821 194.54 807.049 194.54H839.685C848.913 194.54 856.392 202.006 856.392 211.218V243.799C856.392 253.011 848.913 260.477 839.685 260.477Z" fill="#5553E6"/>
<path d="M815.087 215.436V235.654C814.65 235.508 814.189 235.436 813.703 235.436C811.323 235.46 809.429 237.399 809.453 239.775C809.478 242.151 811.42 244.042 813.8 244.017C816.058 243.993 817.88 242.248 818.025 240.042V224.26L833.008 222.515L833.105 230.66C832.668 230.515 832.207 230.442 831.721 230.442C829.341 230.466 827.447 232.405 827.471 234.781C827.496 237.157 829.438 239.048 831.818 239.023C834.198 238.999 836.092 237.06 836.068 234.684V212.891L815.087 215.436Z" fill="white"/>
<path d="M800.36 551.674L798.113 565.061C800.901 572.426 799.659 581.743 799.659 581.743L744.926 581.73C750.852 570.646 776.527 569.836 779.233 564.533C781.939 559.225 783.145 543.49 783.145 543.49L800.36 551.674Z" fill="#FFB7D6"/>
<path d="M788.052 565.757C788.138 563.841 786.733 556.936 781.771 554.878C781.152 558.652 780.311 562.421 779.233 564.537C776.527 569.845 750.852 570.655 744.926 581.734L799.659 581.748C799.659 581.748 800.901 572.426 798.113 565.065C798.113 565.061 788.225 569.221 788.052 565.757Z" fill="#517FC4"/>
<path d="M746.395 579.617C745.827 580.278 745.327 580.978 744.922 581.734L799.655 581.748C799.655 581.748 799.764 580.924 799.846 579.577L746.395 579.617Z" fill="#517FC4"/>
<path d="M783.221 567.168C783.098 567.164 782.984 567.082 782.939 566.959C782.93 566.936 782.116 564.701 780.524 564C779.864 563.709 779.15 563.723 778.4 564.041C778.241 564.109 778.054 564.032 777.986 563.873C777.918 563.713 777.995 563.527 778.154 563.459C779.073 563.072 779.951 563.063 780.774 563.427C782.616 564.241 783.489 566.645 783.526 566.749C783.585 566.913 783.498 567.095 783.335 567.15C783.303 567.164 783.262 567.173 783.221 567.168Z" fill="#517FC4"/>
<path d="M778.046 570.801C777.924 570.796 777.81 570.714 777.764 570.591C777.755 570.568 776.941 568.334 775.349 567.633C774.69 567.341 773.976 567.355 773.23 567.674C773.071 567.742 772.884 567.664 772.816 567.505C772.748 567.346 772.825 567.159 772.984 567.091C773.903 566.704 774.781 566.695 775.604 567.059C777.446 567.874 778.319 570.277 778.356 570.382C778.415 570.546 778.328 570.728 778.165 570.782C778.124 570.796 778.087 570.801 778.046 570.801Z" fill="#517FC4"/>
<path d="M769.556 573.213C769.433 573.209 769.32 573.127 769.274 573.004C769.265 572.981 768.451 570.746 766.859 570.045C766.2 569.754 765.485 569.767 764.74 570.086C764.58 570.154 764.394 570.077 764.326 569.918C764.257 569.758 764.335 569.572 764.494 569.503C765.413 569.117 766.29 569.107 767.114 569.472C768.956 570.286 769.829 572.69 769.865 572.794C769.924 572.958 769.838 573.14 769.674 573.195C769.633 573.209 769.597 573.213 769.556 573.213Z" fill="#517FC4"/>
<path d="M790.188 351.531C782.02 437.196 775.016 560.25 775.016 560.25L808.477 561.419L824.819 462.122L815.09 349.587L790.188 351.531Z" fill="#3A376B"/>
<path d="M860.764 551.674L858.517 565.061C861.305 572.426 860.063 581.743 860.063 581.743L805.33 581.729C811.256 570.646 836.931 569.836 839.637 564.533C842.344 559.225 843.549 543.49 843.549 543.49L860.764 551.674Z" fill="#FFB7D6"/>
<path d="M848.456 565.757C848.543 563.841 847.137 556.936 842.175 554.878C841.557 558.652 840.715 562.421 839.637 564.537C836.931 569.845 811.256 570.655 805.33 581.734L860.063 581.748C860.063 581.748 861.305 572.426 858.517 565.065C858.517 565.061 848.629 569.221 848.456 565.757Z" fill="#517FC4"/>
<path d="M806.804 579.617C806.235 580.277 805.735 580.978 805.33 581.734L860.063 581.748C860.063 581.748 860.173 580.924 860.254 579.576L806.804 579.617Z" fill="#517FC4"/>
<path d="M843.625 567.168C843.502 567.164 843.389 567.082 843.343 566.959C843.334 566.936 842.52 564.701 840.928 564C840.269 563.709 839.554 563.723 838.804 564.041C838.645 564.109 838.458 564.032 838.39 563.873C838.322 563.713 838.399 563.527 838.558 563.459C839.477 563.072 840.355 563.063 841.178 563.427C843.02 564.241 843.893 566.645 843.93 566.749C843.989 566.913 843.903 567.095 843.739 567.15C843.707 567.164 843.666 567.173 843.625 567.168Z" fill="#517FC4"/>
<path d="M838.451 570.801C838.328 570.796 838.214 570.714 838.169 570.591C838.16 570.569 837.345 568.334 835.754 567.633C835.094 567.341 834.38 567.355 833.634 567.674C833.475 567.742 833.288 567.664 833.22 567.505C833.152 567.346 833.229 567.159 833.389 567.091C834.307 566.704 835.185 566.695 836.008 567.059C837.85 567.874 838.724 570.277 838.76 570.382C838.819 570.546 838.733 570.728 838.569 570.782C838.533 570.796 838.492 570.801 838.451 570.801Z" fill="#517FC4"/>
<path d="M829.959 573.213C829.836 573.209 829.723 573.127 829.677 573.004C829.668 572.981 828.854 570.746 827.262 570.045C826.603 569.754 825.889 569.767 825.138 570.086C824.979 570.154 824.792 570.077 824.724 569.918C824.656 569.758 824.733 569.572 824.892 569.503C825.811 569.117 826.689 569.107 827.512 569.472C829.354 570.286 830.227 572.69 830.264 572.794C830.323 572.958 830.237 573.14 830.073 573.195C830.041 573.209 830 573.213 829.959 573.213Z" fill="#517FC4"/>
<path d="M851.275 345.686C858.279 376.448 866.061 561.41 866.061 561.41H834.546C834.546 561.41 791.356 369.829 792.525 351.526C793.69 333.228 851.275 345.686 851.275 345.686Z" fill="#3A376B"/>
<path d="M854.387 554.296C854.396 554.296 854.401 554.296 854.41 554.296C854.565 554.282 854.678 554.15 854.669 553.995C854.556 552.548 843.212 408.488 828.59 354.572C828.549 354.421 828.394 354.335 828.249 354.376C828.099 354.417 828.012 354.572 828.053 354.717C842.662 408.583 854.001 552.589 854.114 554.036C854.124 554.182 854.246 554.296 854.387 554.296Z" fill="#1B2348"/>
<path d="M864.456 556.244C864.611 556.244 864.734 556.121 864.734 555.966C864.734 555.811 864.611 555.684 864.456 555.684L836.294 555.538C836.134 555.534 836.012 555.661 836.012 555.816C836.012 555.971 836.134 556.098 836.289 556.098L864.456 556.244Z" fill="#D4D4D4"/>
<path d="M693.889 315.317H729.883C732.03 315.317 733.772 313.573 733.772 311.425V257.878C733.772 255.729 732.03 253.986 729.883 253.986H693.889C691.742 253.986 690 255.729 690 257.878V311.425C690 313.573 691.737 315.317 693.889 315.317Z" fill="#517FC4"/>
<path d="M729.08 255.324H694.254V307.697H729.08V255.324Z" fill="white"/>
<path d="M774.426 298.229C772.466 298.238 771.17 304.101 769.173 303.778C755.215 301.52 744.076 293.491 744.076 292.144C744.076 290.605 740.66 277.546 740.028 276.458C739.396 275.37 734.234 275.188 733.597 274.737C732.965 274.282 732.146 272.38 732.146 272.38C730.877 272.653 729.067 274.373 730.063 276.367C731.059 278.361 733.774 279.722 733.774 279.722L733.784 294.652C733.06 301.721 765.235 329.741 776.464 330.647C780.612 329.418 796.294 313.105 795.044 306.163C793.625 298.257 774.426 298.229 774.426 298.229Z" fill="#FFB7D6"/>
<path d="M797.89 306.359C800.842 309.427 797.044 315.312 793.328 316.491C789.612 317.67 767.931 303.555 767.203 299.162C766.475 294.77 770.496 291.479 774.971 294.096C779.438 296.723 797.89 306.359 797.89 306.359Z" fill="#8F80C7"/>
<path d="M832.11 265.588C831.696 244.614 804.802 247.017 795.828 259.73C790.129 267.805 771.473 296.404 771.473 296.404C774.283 300.965 791.044 311.671 796.588 309.395C805.18 295.239 833.897 279.945 832.11 265.588Z" fill="#8F80C7"/>
<path d="M826.885 245.733C846.511 260.991 854.098 350.652 854.098 350.652C822.583 358.245 789.021 353.575 789.021 353.575C789.021 326.123 789.749 269.758 803.394 254.423C817.039 239.092 826.885 245.733 826.885 245.733Z" fill="#B5A7E9"/>
<path d="M795.95 219.815C795.659 219.779 792.775 220.362 792.775 220.362L795.623 221.017L795.95 219.815Z" fill="#517FC4"/>
<path d="M824.331 235.733C824.404 239.893 826.882 245.369 826.882 245.738C823.089 250.85 802.004 255.665 803.391 254.427C804.778 253.185 804.778 248.296 803.172 243.476C797.192 244.791 795.004 240.553 794.199 235.592C793.394 230.63 795.368 211.499 795.368 211.499L795.877 209.455C795.877 209.455 798.065 208.946 798.429 208.946C798.793 208.946 809.517 213.033 809.517 213.033C809.517 213.033 816.74 219.533 816.958 219.824C817.176 220.116 821.406 225.956 821.406 226.47C821.406 226.984 821.406 231.582 821.406 232.164C821.406 232.747 824.331 235.733 824.331 235.733Z" fill="#FFB7D6"/>
<path d="M796.32 209.961C795.811 214.412 798.872 215.655 802.96 218.063C807.045 220.471 803.374 227.553 804.029 227.189C804.684 226.825 807.772 224.267 807.772 224.267C807.772 224.267 812.953 226.092 813.244 226.456C814.34 228.791 813.39 229.961 813.681 232.078C813.972 234.194 822.29 238.136 824.769 237.335C827.248 236.534 824.624 236.093 824.041 234.636C823.459 233.179 826.156 226.607 827.98 223.612C829.804 220.616 831.482 210.033 824.551 206.014C817.619 202 809.596 201.267 809.596 198.13C809.305 194.771 793.764 194.626 791.358 203.315C788.952 212.004 795.369 216.019 794.933 214.849C794.419 212.951 796.32 209.961 796.32 209.961Z" fill="#181670"/>
<path d="M841.256 324.038C838.35 333.838 817.878 359.16 816.309 358.996C814.74 358.832 811.101 353.684 807.726 354.194C804.356 354.704 796.274 360.202 798.107 361.982C799.94 363.762 804.374 358.818 806.812 359.292C799.826 363.966 797.607 368.118 798.953 369.183C800.299 370.243 801.418 369.929 801.418 369.929C803.797 371.482 808.695 369.128 811.529 368.942C814.362 368.755 819.588 372.014 824.173 371.632C828.757 371.249 830.645 366.684 831.45 366.229C832.255 365.774 866.949 335.263 867.235 322.304C867.522 309.34 848.665 297.542 848.665 297.542L841.256 324.038Z" fill="#FFB7D6"/>
<path d="M855.022 298.785C858.829 296.877 863.309 302.258 863.332 306.159C863.354 310.059 843.438 326.578 839.03 325.968C834.623 325.358 832.681 320.533 836.511 317.042C840.34 313.551 855.022 298.785 855.022 298.785Z" fill="#8F80C7"/>
<path d="M826.314 253.958C806.184 248.114 800.476 274.528 809.931 286.882C815.94 294.729 837.675 321.061 837.675 321.061C842.865 319.732 858.065 306.9 857.538 300.929C846.586 288.511 840.536 256.521 826.314 253.958Z" fill="#8F80C7"/>
<path d="M812.374 360.735C812.347 360.73 812.315 360.726 812.288 360.712C812.265 360.703 810.227 359.779 808.303 359.365C808.153 359.333 808.062 359.187 808.094 359.037C808.126 358.887 808.272 358.796 808.422 358.828C810.4 359.255 812.433 360.17 812.515 360.211C812.652 360.275 812.715 360.439 812.652 360.575C812.602 360.685 812.488 360.748 812.374 360.735Z" fill="#E0B3A8"/>
<path d="M802.549 369.078C802.495 369.074 802.44 369.051 802.399 369.014C802.286 368.914 802.272 368.741 802.372 368.628C804.396 366.302 807.316 363.511 809.745 363.443C811.955 363.384 813.024 363.857 813.069 363.88C813.206 363.944 813.269 364.103 813.206 364.244C813.142 364.381 812.983 364.444 812.842 364.381C812.833 364.376 811.823 363.939 809.758 363.994C807.53 364.053 804.737 366.743 802.786 368.987C802.727 369.055 802.636 369.087 802.549 369.078Z" fill="#E0B3A8"/>
<path d="M813.915 227.732C814.246 225.69 812.861 223.766 810.82 223.434C808.779 223.103 806.857 224.489 806.525 226.532C806.194 228.574 807.58 230.498 809.621 230.83C811.661 231.161 813.584 229.774 813.915 227.732Z" fill="#FFB7D6"/>
<path d="M704.859 258.656H716.625C719.418 258.656 721.683 256.389 721.683 253.594V251.5H699.797V253.594C699.797 256.389 702.062 258.656 704.859 258.656Z" fill="#707070"/>
<path d="M710.718 260.167C712.115 260.167 713.247 259.034 713.247 257.636C713.247 256.239 712.115 255.105 710.718 255.105C709.322 255.105 708.189 256.239 708.189 257.636C708.189 259.034 709.322 260.167 710.718 260.167Z" fill="#808080"/>
<path d="M818.786 490.625C818.813 490.625 818.841 490.621 818.868 490.616C819.068 490.57 819.195 490.37 819.15 490.17C818.959 489.314 800.107 404.054 793.184 355.564C793.157 355.359 792.966 355.218 792.761 355.245C792.557 355.273 792.416 355.464 792.443 355.669C799.37 404.186 818.231 489.473 818.418 490.329C818.459 490.507 818.613 490.625 818.786 490.625Z" fill="#1B2348"/>
</g>
<defs>
<linearGradient id="paint0_linear_624_808" x1="625.742" y1="516.87" x2="867.332" y2="516.87" gradientUnits="userSpaceOnUse">
<stop stop-color="#9942FF"/>
<stop offset="1" stop-color="#4D6DFF"/>
</linearGradient>
<linearGradient id="paint1_linear_624_808" x1="232.461" y1="476.714" x2="261.795" y2="476.714" gradientUnits="userSpaceOnUse">
<stop stop-color="#9942FF"/>
<stop offset="1" stop-color="#FC067D"/>
</linearGradient>
<linearGradient id="paint2_linear_624_808" x1="451.762" y1="333.675" x2="480.149" y2="333.675" gradientUnits="userSpaceOnUse">
<stop stop-color="#9942FF"/>
<stop offset="1" stop-color="#FC067D"/>
</linearGradient>
<linearGradient id="paint3_linear_624_808" x1="452.539" y1="420.206" x2="681.431" y2="420.206" gradientUnits="userSpaceOnUse">
<stop stop-color="#9942FF"/>
<stop offset="1" stop-color="#4D6DFF"/>
</linearGradient>
<linearGradient id="paint4_linear_624_808" x1="127.365" y1="181.934" x2="180.837" y2="181.934" gradientUnits="userSpaceOnUse">
<stop stop-color="#FB9004"/>
<stop offset="1" stop-color="#FC067D"/>
</linearGradient>
<linearGradient id="paint5_linear_624_808" x1="699.596" y1="45.6593" x2="791.07" y2="45.6593" gradientUnits="userSpaceOnUse">
<stop stop-color="#FB9004"/>
<stop offset="1" stop-color="#FC067D"/>
</linearGradient>
<clipPath id="clip0_624_808">
<rect width="884" height="637" fill="white"/>
</clipPath>
</defs>
</svg>
