<svg width="688" height="670" viewBox="0 0 688 670" fill="none" xmlns="http://www.w3.org/2000/svg">
<path opacity="0.16" d="M391.059 561.164C391.059 561.164 120.919 572.47 78.4393 538.528C35.9591 504.585 13.0834 479.449 26.1452 415.348C39.207 351.247 95.8473 359.307 101.315 325.107C106.759 290.907 59.9331 267.01 69.7236 197.886C79.5375 128.739 143.795 98.5809 183.004 102.342C222.213 106.103 237.471 111.149 261.422 91.0355C285.396 70.9222 284.297 19.3891 342.036 4.29828C399.774 -10.7925 441.156 47.0478 461.859 92.297C482.562 137.546 548.992 108.649 583.855 173.685C605.212 213.514 605.749 281.68 570.887 319.384C536.024 357.087 599.113 384.699 603.459 457.21C607.806 529.744 571.962 561 391.059 561.164Z" fill="#B5A7E9"/>
<path d="M213.919 555.043C214.549 555.043 215.087 554.553 215.11 553.922C215.134 553.455 217.47 506.244 193.496 459.312C187.935 448.403 182.584 439.036 177.864 430.743C162.068 403.037 152.512 386.311 160.106 358.068C160.269 357.438 159.895 356.784 159.264 356.597C158.61 356.433 157.979 356.807 157.792 357.438C149.965 386.638 159.685 403.668 175.784 431.911C180.481 440.157 185.832 449.524 191.37 460.364C215.04 506.687 212.774 553.291 212.727 553.759C212.68 554.413 213.194 554.973 213.848 555.02C213.848 555.02 213.895 555.02 213.919 555.02V555.043Z" fill="#8085FD"/>
<path d="M209.899 517.994C209.899 517.994 191.673 522.526 187.374 508.486C183.074 494.47 205.366 491.55 209.899 517.994Z" fill="#8085FD"/>
<path d="M197.048 471.109C197.048 471.109 179.827 478.631 173.237 465.526C166.648 452.421 188.122 445.81 197.048 471.109Z" fill="#8085FD"/>
<path d="M167.186 415.745C167.186 415.745 149.965 423.267 143.375 410.162C136.786 397.057 158.26 390.446 167.186 415.745Z" fill="#8085FD"/>
<path d="M212.236 513.532C212.236 513.532 229.878 507.061 225.579 493.045C221.279 479.029 201.184 489.12 212.236 513.532Z" fill="#8085FD"/>
<path d="M191.791 456.579C191.791 456.579 209.432 450.108 205.133 436.092C200.833 422.076 180.738 432.168 191.791 456.579Z" fill="#8085FD"/>
<path d="M160.596 395.095C160.596 395.095 179.336 393.833 179.149 379.163C178.963 364.492 156.834 368.534 160.596 395.095Z" fill="#8085FD"/>
<path d="M156.764 360.708C156.764 360.708 175.504 359.447 175.317 344.776C175.13 330.106 153.002 334.147 156.764 360.708Z" fill="#8085FD"/>
<path d="M135.244 567.681C135.244 567.681 149.31 524.091 138.866 486.294C128.397 448.497 94.7732 437.237 83.347 425.393C71.9208 413.549 61.1723 357.998 45.1663 357.344C29.1603 356.714 25.1412 367.529 27.7816 400.187C30.422 432.869 37.7591 458.892 38.9975 486.784C40.2359 514.677 66.196 581.815 135.244 567.681Z" fill="url(#paint0_linear_201_658)"/>
<path d="M45.1201 389.068C47.2698 397.267 49.5831 405.397 52.1067 413.479C54.5602 421.585 57.1538 429.621 59.9578 437.611C65.519 453.589 71.5242 469.404 78.5341 484.775C85.4038 500.193 93.2082 515.237 102.368 529.394C106.901 536.519 111.855 543.363 117.346 549.787C122.743 556.258 128.702 562.285 135.268 567.681C121.575 557.636 110.359 544.485 100.896 530.398C96.1057 523.367 91.7595 516.055 87.7405 508.556C83.7215 501.081 79.9127 493.465 76.4311 485.733C69.538 470.198 63.4861 454.337 58.2754 438.195C53.1114 422.053 48.5316 405.677 45.1435 389.091L45.1201 389.068Z" fill="#7D88D3"/>
<path d="M91.9925 451.744C92.2729 455.084 92.5066 458.448 92.8337 461.765C93.0907 465.106 93.3945 468.446 93.745 471.764C94.446 478.421 95.147 485.079 96.0115 491.69C96.806 498.324 97.8341 504.935 98.8856 511.546C99.3997 514.84 99.9838 518.157 100.638 521.428C101.129 524.745 101.97 527.992 102.531 531.309C100.358 524.955 98.5351 518.461 97.1331 511.873C95.661 505.309 94.5628 498.651 93.7216 491.97C92.9038 485.289 92.2495 478.585 91.9925 471.88C91.6888 465.153 91.5953 458.425 92.0159 451.72L91.9925 451.744Z" fill="#7D88D3"/>
<path d="M82.8098 496.643C76.7813 493.582 71.1266 489.938 65.5654 486.154C60.0509 482.299 54.6532 478.305 49.6528 473.726C55.7281 476.786 61.3594 480.43 66.8972 484.215C72.3884 488.069 77.786 492.041 82.8098 496.643Z" fill="#7D88D3"/>
<path d="M231.397 417.847C231.397 417.847 201.231 402.593 192.421 425.299C183.612 448.006 160.994 427.729 145.899 445.413C130.804 463.097 138.352 489.494 120.757 494.516C103.162 499.539 86.8052 509.327 86.8052 525.165C86.8052 541.004 90.5672 563.64 108.185 569.924H264.086C264.086 569.924 271.003 547.288 254.973 532.22C238.944 517.129 264.086 509.817 259.693 483.303C255.3 456.789 250.253 459.149 247.753 445.413C245.23 431.653 242.122 421.632 231.397 417.847Z" fill="#5B65D7"/>
<path d="M247.752 362.157C247.752 362.157 248.827 358.723 250.159 353.139" stroke="#3C46B5" stroke-width="1.90088" stroke-miterlimit="10"/>
<path d="M253.641 334.568C255.908 317.795 256.211 296.888 247.753 282.404C231.396 254.442 118.91 289.482 108.185 201.951C97.4833 114.419 194.945 116.171 223.872 136.285C252.8 156.398 316.917 133.762 338.298 100.45C359.678 67.1379 396.13 43.2635 440.152 48.286C484.151 53.3085 512.471 86.7372 517.799 118.414C523.126 150.091 520.626 190.808 557.078 214.449C593.529 238.089 587.617 293.711 569.836 308.007C555.863 319.243 519.481 315.88 498.428 327.163" stroke="#3C46B5" stroke-width="1.90088" stroke-miterlimit="10"/>
<path d="M490.764 332.699C488.567 334.848 486.745 337.348 485.39 340.291" stroke="#3C46B5" stroke-width="1.90088" stroke-miterlimit="10"/>
<path d="M480.786 546.82C480.155 546.82 479.618 546.33 479.594 545.699C479.571 545.232 477.234 498.021 501.208 451.089C506.77 440.18 512.12 430.813 516.84 422.52C532.636 394.814 542.193 378.088 534.599 349.845C534.435 349.215 534.809 348.561 535.44 348.374C536.094 348.21 536.725 348.584 536.912 349.215C544.74 378.415 535.02 395.445 518.897 423.688C514.2 431.934 508.849 441.301 503.311 452.141C479.641 498.464 481.908 545.068 481.954 545.536C482.001 546.19 481.487 546.75 480.833 546.797C480.833 546.797 480.786 546.797 480.763 546.797L480.786 546.82Z" fill="#8085FD"/>
<path d="M484.829 509.771C484.829 509.771 503.055 514.303 507.354 500.263C511.654 486.247 489.362 483.327 484.829 509.771Z" fill="#8085FD"/>
<path d="M497.681 462.886C497.681 462.886 514.902 470.408 521.491 457.303C528.08 444.198 506.607 437.587 497.681 462.886Z" fill="#8085FD"/>
<path d="M527.542 407.522C527.542 407.522 544.764 415.044 551.353 401.939C557.942 388.834 536.468 382.223 527.542 407.522Z" fill="#8085FD"/>
<path d="M482.492 505.309C482.492 505.309 464.851 498.838 469.15 484.822C473.45 470.806 493.545 480.897 482.492 505.309Z" fill="#8085FD"/>
<path d="M502.915 448.356C502.915 448.356 485.274 441.885 489.573 427.869C493.873 413.853 513.968 423.945 502.915 448.356Z" fill="#8085FD"/>
<path d="M534.132 386.872C534.132 386.872 515.392 385.61 515.579 370.94C515.766 356.269 537.894 360.311 534.132 386.872Z" fill="#8085FD"/>
<path d="M537.942 352.485C537.942 352.485 519.202 351.224 519.389 336.553C519.576 321.883 541.704 325.924 537.942 352.485Z" fill="#8085FD"/>
<path opacity="0.52" d="M612.714 630.56C538.623 629.859 522.518 612.987 534.093 610.347C545.668 607.706 636.893 576.44 596.609 569.898C556.325 563.378 508.776 569.898 508.776 569.898L327.706 569.57H325.518H323.33L142.26 569.898C142.26 569.898 94.7114 563.378 54.4275 569.898C14.1435 576.417 105.368 607.706 116.943 610.347C128.518 612.987 112.414 629.859 38.3227 630.56C-9.773 630.56 -29.4883 667.784 82.2608 669.326C185.673 670.728 307.838 669.537 325.496 669.35C343.155 669.537 465.319 670.728 568.732 669.326C680.503 667.807 660.765 630.56 612.67 630.56H612.714Z" fill="#C3D3F5"/>
<path d="M488.52 567.681C488.52 567.681 474.453 524.091 484.898 486.294C495.366 448.497 528.991 437.237 540.417 425.393C551.843 413.549 562.591 357.998 578.597 357.344C594.603 356.714 598.622 367.529 595.982 400.187C593.342 432.869 586.005 458.892 584.766 486.784C583.528 514.677 557.568 581.815 488.52 567.681Z" fill="url(#paint1_linear_201_658)"/>
<path d="M578.668 389.068C575.28 405.677 570.7 422.029 565.536 438.171C560.326 454.313 554.274 470.199 547.381 485.71C543.899 493.465 540.09 501.058 536.071 508.533C532.052 516.008 527.706 523.343 522.916 530.375C513.452 544.461 502.237 557.613 488.521 567.658C495.063 562.285 501.022 556.258 506.443 549.764C511.91 543.34 516.887 536.495 521.42 529.37C530.58 515.191 538.384 500.17 545.254 484.752C552.287 469.381 558.293 453.566 563.831 437.587C566.611 429.598 569.228 421.562 571.682 413.456C574.205 405.373 576.519 397.244 578.668 389.044V389.068Z" fill="#7D88D3"/>
<path d="M531.795 451.744C532.216 458.448 532.122 465.199 531.819 471.904C531.538 478.631 530.907 485.336 530.089 491.994C529.248 498.675 528.127 505.309 526.678 511.897C525.276 518.484 523.453 524.979 521.28 531.333C521.841 528.015 522.659 524.768 523.173 521.451C523.827 518.181 524.411 514.863 524.925 511.57C525.954 504.959 527.005 498.371 527.8 491.713C528.664 485.079 529.365 478.445 530.066 471.787C530.417 468.446 530.72 465.129 530.977 461.789C531.328 458.448 531.538 455.108 531.819 451.767L531.795 451.744Z" fill="#7D88D3"/>
<path d="M540.977 496.643C546.001 492.064 551.375 488.069 556.89 484.215C562.427 480.43 568.059 476.786 574.134 473.726C569.157 478.305 563.736 482.299 558.221 486.154C552.66 489.938 547.029 493.606 540.977 496.643Z" fill="#7D88D3"/>
<path d="M661.245 493.536H607.502C601.876 493.536 597.314 498.096 597.314 503.721V533.645C597.314 539.27 601.876 543.83 607.502 543.83H661.245C666.872 543.83 671.433 539.27 671.433 533.645V503.721C671.433 498.096 666.872 493.536 661.245 493.536Z" fill="#F94B6A"/>
<path d="M622.808 508.673V529.394L650.31 518.695L622.808 508.673Z" fill="white"/>
<path d="M584.557 167.191L651.198 146.12L604.371 174.409L584.557 167.191Z" fill="#E8E9FE"/>
<path d="M602.478 190.131L604.371 174.409L651.197 146.12L602.478 190.131Z" fill="#F5F6FF"/>
<path d="M617.877 187.304L613.227 180.413L651.197 146.12L617.877 187.304Z" fill="#D7DCFF"/>
<path d="M478.964 0H435.642C430.735 0 426.74 3.99463 426.74 8.90032V37.6103C426.74 42.516 430.735 46.5106 435.642 46.5106H450.503L457.303 55.0605L462.888 46.5106H478.964C483.871 46.5106 487.866 42.516 487.866 37.6103V8.90032C487.866 3.99463 483.871 0 478.964 0Z" fill="#F94B6A"/>
<path d="M473.729 20.0198C473.729 15.4178 469.99 11.6802 465.387 11.6802C461.672 11.6802 458.541 14.0863 457.443 17.4502C456.344 14.1097 453.213 11.6802 449.498 11.6802C444.895 11.6802 441.156 15.4178 441.156 20.0198C441.156 21.1879 441.39 22.3092 441.834 23.3137C444.708 33.5689 457.84 37.9373 457.84 37.9373C467.093 34.6435 470.972 28.3362 472.607 24.1546C473.308 22.9399 473.729 21.5149 473.729 19.9965V20.0198Z" fill="white"/>
<path d="M246.117 79.7057H485.786C493.894 79.7057 500.484 86.294 500.484 94.401V570H231.396V94.4243C231.396 86.3174 237.985 79.7291 246.093 79.7291L246.117 79.7057Z" fill="#D7DCFF"/>
<path d="M246.117 79.7057H485.786C493.894 79.7057 500.484 86.294 500.484 94.401V110.591H231.396V94.401C231.396 86.294 237.985 79.7057 246.093 79.7057H246.117Z" fill="#4549C4"/>
<path d="M254.972 100.475C257.579 100.475 259.692 98.3623 259.692 95.7559C259.692 93.1495 257.579 91.0366 254.972 91.0366C252.366 91.0366 250.252 93.1495 250.252 95.7559C250.252 98.3623 252.366 100.475 254.972 100.475Z" fill="#F46291"/>
<path d="M277.615 95.7559C277.615 98.3492 275.512 100.475 272.895 100.475C270.278 100.475 268.175 98.3726 268.175 95.7559C268.175 93.1393 270.278 91.0366 272.895 91.0366C275.512 91.0366 277.615 93.1393 277.615 95.7559Z" fill="#F46291"/>
<path d="M291.331 100.475C293.938 100.475 296.051 98.3623 296.051 95.7559C296.051 93.1495 293.938 91.0366 291.331 91.0366C288.724 91.0366 286.611 93.1495 286.611 95.7559C286.611 98.3623 288.724 100.475 291.331 100.475Z" fill="#F46291"/>
<path d="M264.086 110.591H231.396V570H264.086V110.591Z" fill="#4549C4"/>
<path d="M454.989 142.155H304.416C294.582 142.155 286.611 150.125 286.611 159.957V213.201C286.611 223.034 294.582 231.004 304.416 231.004H454.989C464.823 231.004 472.795 223.034 472.795 213.201V159.957C472.795 150.125 464.823 142.155 454.989 142.155Z" fill="white"/>
<path d="M454.989 251.47H304.416C294.582 251.47 286.611 259.44 286.611 269.273V387.092C286.611 396.924 294.582 404.894 304.416 404.894H454.989C464.823 404.894 472.795 396.924 472.795 387.092V269.273C472.795 259.44 464.823 251.47 454.989 251.47Z" fill="white"/>
<path d="M355.448 185.306C355.448 199.417 343.999 210.865 329.886 210.865C315.772 210.865 304.323 199.417 304.323 185.306C304.323 171.195 315.772 159.747 329.886 159.747C343.999 159.747 355.448 171.195 355.448 185.306Z" fill="#E8E9FE"/>
<path d="M457.302 165.705H369.702V174.513H457.302V165.705Z" fill="#E8E9FE"/>
<path d="M457.302 181.638H369.702V190.446H457.302V181.638Z" fill="#E8E9FE"/>
<path d="M413.49 197.548H369.702V206.356H413.49V197.548Z" fill="#E8E9FE"/>
<path d="M452.699 270.137H306.846V290.299H452.699V270.137Z" fill="#E8E9FE"/>
<path d="M452.699 308.031H306.846V391.764H452.699V308.031Z" fill="#E8E9FE"/>
<mask id="mask0_201_658" style="mask-type:luminance" maskUnits="userSpaceOnUse" x="231" y="79" width="270" height="491">
<path d="M246.117 79.7057H485.786C493.894 79.7057 500.484 86.294 500.484 94.401V570H231.396V94.4243C231.396 86.3174 237.985 79.7291 246.093 79.7291L246.117 79.7057Z" fill="white"/>
</mask>
<g mask="url(#mask0_201_658)">
<path d="M454.989 425.36H304.416C294.582 425.36 286.611 433.331 286.611 443.163V560.982C286.611 570.814 294.582 578.785 304.416 578.785H454.989C464.823 578.785 472.795 570.814 472.795 560.982V443.163C472.795 433.331 464.823 425.36 454.989 425.36Z" fill="white"/>
<path d="M452.7 445.476H306.847V465.638H452.7V445.476Z" fill="#E8E9FE"/>
<path d="M453 483H307V570H453V483Z" fill="#E8E9FE"/>
</g>
<path d="M109.26 233.581C109.26 233.581 115.055 250.937 118.91 260.585C122.766 270.233 124.915 287.45 103.138 293.734L104.189 298.546C104.189 298.546 92.88 297.915 84.7018 302.517L80.3089 281.773C80.3089 281.773 67.1069 275.279 68.7893 262.711C70.4716 250.143 85.7533 258.016 86.5945 265.397L87.4357 272.779L91.6183 271.728C91.6183 271.728 93.7212 264.813 93.0903 254.979C92.4594 245.144 93.0903 232.973 100.007 230.894C106.923 228.792 109.283 233.604 109.283 233.604L109.26 233.581Z" fill="#FFB7D6"/>
<path d="M68.7419 262.734C70.4243 250.166 85.706 258.039 86.5472 265.421L87.3883 272.803L91.5709 271.751C91.5709 271.751 93.6739 264.837 93.043 255.002C92.4121 245.144 93.043 232.997 99.9595 230.917C106.876 228.815 109.236 233.627 109.236 233.627C109.236 233.627 110.101 236.197 111.362 239.911C111.362 239.911 118.396 231.969 118.185 226.105C117.975 220.242 115.872 210.173 107.086 207.884C107.086 207.884 99.2118 205.431 94.9824 209.8C90.7531 214.168 85.3087 216.691 78.3923 216.901C71.4758 217.111 59.115 221.083 58.9047 231.572C58.9047 231.572 32.6408 256.193 79.4438 281.399C76.6164 279.741 67.3166 273.48 68.7419 262.804V262.734Z" fill="#181670"/>
<path d="M84.6782 302.541C84.6782 302.541 77.2477 307.259 78.4861 323.285C79.7479 339.31 84.2109 354.074 81.5004 368.861C78.7899 383.648 73.5091 401.238 81.5004 406.261C81.5004 406.261 75.9392 414.437 94.9828 413.175C114.003 411.914 144.192 409.414 147.651 403.434C151.109 397.454 144.823 366.034 142.3 353.163C139.776 340.268 128.257 309.058 104.166 298.593C104.166 298.593 93.3705 298.172 84.6782 302.564V302.541Z" fill="#B5A7E9"/>
<path d="M92.6464 331.461C92.6464 331.461 116.06 339.006 148.679 337.114C181.299 335.222 186.019 313.24 192.304 301.279C198.59 289.342 203.614 278.339 204.572 274.251C205.506 270.163 194.197 261.052 187.911 261.356C181.626 261.66 163.704 298.523 163.704 298.523C163.704 298.523 156.156 298.733 156.156 302.517C156.156 302.517 146.506 306.488 125.359 302.517C104.213 298.546 101.526 298.523 101.526 298.523C101.526 298.523 82.1782 298.429 84.9121 319.477C86.3842 327.326 92.6698 331.414 92.6698 331.414L92.6464 331.461Z" fill="#D1C9F4"/>
<path d="M156.133 302.541C158.306 302.751 160.339 303.568 162.208 304.643C164.054 305.764 165.76 307.236 166.811 309.128C165.923 308.497 165.106 307.867 164.241 307.283C163.353 306.722 162.512 306.138 161.624 305.624C159.848 304.55 158.025 303.592 156.133 302.517V302.541Z" fill="#3C46B5"/>
<path d="M163.68 298.546C164.615 298.616 165.479 298.966 166.297 299.41C167.115 299.831 167.863 300.415 168.54 301.069C169.849 302.4 170.854 304.035 171.228 305.834C170.036 304.433 168.961 303.101 167.723 301.886C166.508 300.672 165.199 299.574 163.68 298.546Z" fill="#3C46B5"/>
<path d="M81.5239 406.237C84.4213 406.611 87.2486 406.892 90.076 406.892C91.5013 406.938 92.9033 406.845 94.3287 406.751C95.754 406.681 97.156 406.401 98.6047 406.214C95.9877 407.546 92.9968 408.083 90.0526 408.036C87.1084 407.989 84.1643 407.452 81.5005 406.214L81.5239 406.237Z" fill="#3C46B5"/>
<path d="M82.2244 354.214C81.6168 344.216 79.3503 334.031 78.5091 323.261C77.9016 315.506 79.3269 310.413 80.9626 307.213C80.9626 307.213 47.385 340.548 43.2959 345.594C39.2068 350.64 22.2427 391.474 24.112 398.388C26.0047 405.303 41.4032 408.433 44.8614 406.238C48.3197 404.042 52.4088 388.647 55.2361 383.601C58.0635 378.579 59.9561 379.513 61.5217 374.491C61.5217 374.491 65.9146 374.187 66.5455 371.033C66.5455 371.033 75.2612 360.031 82.201 354.214H82.2244Z" fill="#A190DF"/>
<path d="M61.5223 374.514C60.4708 374.607 59.5361 374.28 58.6716 373.79C58.251 373.509 57.8537 373.206 57.55 372.785C57.2462 372.388 56.9658 371.898 56.9658 371.36C57.807 371.944 58.508 372.318 59.3025 372.785C60.0502 373.276 60.8213 373.743 61.5456 374.491L61.5223 374.514Z" fill="#3C46B5"/>
<path d="M213.194 250.213C212.399 248.181 209.899 248.017 209.268 245.494C208.637 242.971 205.646 241.733 205.646 241.733C205.646 241.733 207.376 236.711 208.007 232.926C208.637 229.142 207.843 227.904 205.81 227.904C203.777 227.904 198.894 240.308 197.959 242.364C197.024 244.396 194.337 246.919 193.239 249.279C192.141 251.638 190.879 261.8 190.879 261.8C195.552 263.131 201.23 267.406 203.544 270.957C203.544 270.957 212.867 262.337 214.456 258.413C216.021 254.488 213.988 252.292 213.194 250.236V250.213Z" fill="#FFB7D6"/>
<path d="M39.7914 406.868C35.6555 406.541 30.2813 404.953 26.9632 402.289C26.9632 402.289 22.4535 406.237 22.0329 409.811C21.6123 413.362 22.8741 417.357 22.4535 421.118C22.0329 424.879 21.6591 427.916 18.9486 429.177C16.2147 430.439 12.8733 430.649 14.5557 434.83C16.238 439.012 26.4024 433.779 28.6924 432.308C31.0056 430.836 33.7629 424.879 33.7629 424.879C33.7629 424.879 35.2349 428.219 37.3146 427.192C39.4175 426.14 39.6278 422.59 40.2587 418.805C40.8896 415.044 39.8148 406.868 39.8148 406.868H39.7914Z" fill="#FFB7D6"/>
<path d="M94.9824 413.152C88.4398 413.573 84.818 412.895 82.8552 411.821L82.201 413.269C82.201 413.269 73.7657 457.771 71.873 484.168C69.9803 510.565 67.153 511.196 56.9419 527.525C46.7307 543.877 32.2669 571.512 20.3267 609.239C20.3267 609.239 24.6962 621.807 40.4218 619.284C40.4218 619.284 85.7059 548.269 98.5808 533.178C109.797 520.049 133.116 430.766 139.005 407.709C127.836 410.699 108.558 412.241 94.959 413.129L94.9824 413.152Z" fill="#3A376B"/>
<path d="M180.901 505.262C180.901 492.04 157.231 440.133 141.436 407.008C140.501 407.312 139.473 407.616 138.375 407.873C138.585 407.826 138.818 407.756 139.052 407.709C136.108 419.226 128.818 447.235 120.873 474.053C123.584 478.117 126.247 481.949 128.748 485.312C144.473 506.617 142.721 508.93 145.571 527.992C148.422 547.054 155.385 577.469 170.807 613.888C170.807 613.888 182.303 620.593 192.631 608.469C192.631 608.469 180.901 525.072 180.901 505.239V505.262Z" fill="#2D2D54"/>
<path d="M22.5934 613.14L14.2516 622.438C14.2516 622.438 13.1767 637.505 32.9213 647.41C35.0477 648.485 37.4311 646.452 36.7534 644.163C35.5618 640.192 34.2065 634.982 33.9728 631.478C33.5522 625.124 33.9728 619.448 33.9728 619.448C33.9728 619.448 26.5423 618.467 22.5934 613.094V613.14Z" fill="#B5A7E9"/>
<path d="M210.343 621.06C206.441 619.658 201.417 617.696 198.473 615.804C195.365 613.818 192.631 611.786 190.856 610.384C185.995 615.08 181.042 615.991 177.256 615.71L179.5 626.316C179.5 626.316 191.019 636.081 210.694 626.036C212.82 624.961 212.586 621.831 210.343 621.037V621.06Z" fill="#B5A7E9"/>
<path d="M33.7626 424.879C32.8513 423.197 32.641 421.492 32.5942 419.81C32.6176 418.104 32.8279 416.422 33.7626 414.74C34.6972 416.422 34.9075 418.128 34.9309 419.81C34.8841 421.492 34.6739 423.197 33.7626 424.879Z" fill="#FF7EA0"/>
<path d="M174.289 99.2115H51.6387C41.8052 99.2115 33.8335 107.181 33.8335 117.012V156.912C33.8335 166.743 41.8052 174.712 51.6387 174.712H174.289C184.123 174.712 192.094 166.743 192.094 156.912V117.012C192.094 107.181 184.123 99.2115 174.289 99.2115Z" fill="url(#paint2_linear_201_658)"/>
<path d="M70.6365 157.613C82.6381 157.613 92.3673 147.886 92.3673 135.887C92.3673 123.889 82.6381 114.162 70.6365 114.162C58.635 114.162 48.9058 123.889 48.9058 135.887C48.9058 147.886 58.635 157.613 70.6365 157.613Z" fill="white"/>
<path d="M178.939 119.208H104.47V126.683H178.939V119.208Z" fill="white"/>
<path d="M178.939 132.757H104.47V140.232H178.939V132.757Z" fill="white"/>
<path d="M141.693 146.283H104.47V153.758H141.693V146.283Z" fill="white"/>
<path d="M670.194 240.028H537.426C527.593 240.028 519.621 247.998 519.621 257.829V302.564C519.621 312.395 527.593 320.365 537.426 320.365H670.194C680.028 320.365 688 312.395 688 302.564V257.829C688 247.998 680.028 240.028 670.194 240.028Z" fill="url(#paint3_linear_201_658)"/>
<path d="M581.317 284.371C584.241 271.937 576.529 259.488 564.092 256.565C551.655 253.642 539.203 261.351 536.279 273.785C533.355 286.219 541.067 298.668 553.504 301.591C565.94 304.514 578.393 296.804 581.317 284.371Z" fill="white"/>
<path d="M673.98 261.333H594.768V269.299H673.98V261.333Z" fill="white"/>
<path d="M673.98 275.723H594.768V283.689H673.98V275.723Z" fill="white"/>
<path d="M634.374 290.113H594.768V298.079H634.374V290.113Z" fill="white"/>
<path d="M324.044 45.1789V50.692H319.114V45.3191C314.23 45.0154 309.557 43.497 306.847 41.3712L309.557 35.3676C312.011 37.1897 315.562 38.5212 319.114 38.8716V30.6488C313.646 29.3172 307.524 27.4951 307.524 20.4403C307.524 15.2075 311.31 10.7223 319.114 9.83462V4.36829H324.044V9.74118C327.736 10.0449 331.335 11.026 334.045 12.7547L331.568 18.8284C329.045 17.4034 326.498 16.5624 324.021 16.2587V24.6451C329.489 25.9299 335.517 27.7521 335.517 34.6901C335.517 39.806 331.779 44.2445 324.021 45.1789H324.044ZM319.114 23.3837V16.3755C316.497 16.9596 315.469 18.4079 315.469 20.0198C315.469 21.7484 316.941 22.6829 319.114 23.3603V23.3837ZM327.596 35.2741C327.596 33.5454 326.171 32.611 324.044 31.8635V38.6614C326.498 38.1241 327.596 36.8393 327.596 35.2508V35.2741Z" fill="#634AFF"/>
<path d="M589.907 98.2772V92.7642H583.762C583.434 90.6617 582.663 88.7228 581.542 87.0175L585.771 82.7893L581.869 78.8881L577.733 83.0229C576.027 81.8081 574.041 80.9438 571.915 80.5467V74.7533H566.4V80.5467C564.251 80.9438 562.288 81.8081 560.582 83.0229L556.446 78.8881L552.544 82.7893L556.773 87.0175C555.652 88.7228 554.904 90.6617 554.554 92.7642H548.408V98.2772H554.694C555.138 100.263 555.956 102.085 557.101 103.697L552.544 108.252L556.446 112.153L561.073 107.528C562.662 108.579 564.461 109.303 566.424 109.677V116.288H571.938V109.677C573.878 109.303 575.677 108.579 577.289 107.528L581.916 112.153L585.818 108.252L581.261 103.697C582.406 102.108 583.224 100.263 583.668 98.2772H589.954H589.907Z" stroke="#B5A7E9" stroke-width="1.90088" stroke-miterlimit="10"/>
<path d="M569.135 104.935C574.568 104.935 578.972 100.532 578.972 95.1001C578.972 89.6685 574.568 85.2654 569.135 85.2654C563.702 85.2654 559.297 89.6685 559.297 95.1001C559.297 100.532 563.702 104.935 569.135 104.935Z" stroke="#B5A7E9" stroke-width="1.90088" stroke-miterlimit="10"/>
<path d="M218.756 36.5824C219.573 34.4799 220.041 32.1906 220.041 29.7845C220.041 19.2957 211.535 10.7925 201.044 10.7925C190.552 10.7925 182.047 19.2957 182.047 29.7845C182.047 32.7513 182.748 35.5545 183.963 38.0541H183.94L184.197 38.5447C184.29 38.7082 184.36 38.8717 184.454 39.0119L194.221 57.3731H209.269L217.844 38.568C218.148 37.984 218.428 37.3766 218.662 36.7459L218.756 36.559V36.5824Z" fill="#F94B6A"/>
<path d="M209.199 57.3964H194.221V66.5303H209.199V57.3964Z" fill="#D7DCFF"/>
<path d="M199.806 57.3966C199.689 50.9257 198.287 44.5951 198.287 44.5951C198.287 44.5951 197.656 41.3013 195.506 40.5304C193.356 39.7595 191.44 42.189 191.954 44.7119C192.469 47.2348 195.132 48.6364 198.053 47.6319" stroke="#D7DCFF" stroke-width="1.42566" stroke-miterlimit="10"/>
<path d="M202.633 57.3966C202.75 50.9257 204.152 44.5951 204.152 44.5951C204.152 44.5951 204.783 41.3013 206.932 40.5304C209.082 39.7595 210.998 42.189 210.484 44.7119C209.97 47.2348 207.306 48.6364 204.385 47.6319" stroke="#D7DCFF" stroke-width="1.42566" stroke-miterlimit="10"/>
<defs>
<linearGradient id="paint0_linear_201_658" x1="27.0337" y1="463.466" x2="142.725" y2="463.466" gradientUnits="userSpaceOnUse">
<stop stop-color="#9942FF"/>
<stop offset="1" stop-color="#4D6DFF"/>
</linearGradient>
<linearGradient id="paint1_linear_201_658" x1="481.039" y1="463.466" x2="596.73" y2="463.466" gradientUnits="userSpaceOnUse">
<stop stop-color="#9942FF"/>
<stop offset="1" stop-color="#4D6DFF"/>
</linearGradient>
<linearGradient id="paint2_linear_201_658" x1="33.8335" y1="136.962" x2="192.094" y2="136.962" gradientUnits="userSpaceOnUse">
<stop stop-color="#FB9004"/>
<stop offset="1" stop-color="#FC067D"/>
</linearGradient>
<linearGradient id="paint3_linear_201_658" x1="519.621" y1="280.196" x2="688" y2="280.196" gradientUnits="userSpaceOnUse">
<stop stop-color="#FB9004"/>
<stop offset="1" stop-color="#FC067D"/>
</linearGradient>
</defs>
</svg>
