<svg width="745" height="527" viewBox="0 0 745 527" fill="none" xmlns="http://www.w3.org/2000/svg">
<path opacity="0.16" d="M85.206 506.278C85.206 506.278 36.489 391.577 98.102 304.894C159.715 218.212 122.137 141.369 230.317 64.8685C369.365 -33.4607 503.483 63.5555 543.478 129.332C583.472 195.109 719.316 161.531 679.837 348.695C649.211 493.882 672.063 500.251 672.063 500.251L85.206 506.278Z" fill="#B5A7E9"/>
<path d="M114.559 475.249C114.559 475.249 28.103 430.072 48.9347 328.488C69.7664 226.904 154.607 202.799 189.498 210.256C254.894 224.234 148.051 265.474 122.529 194.689C90.5057 105.874 204.684 38.6304 310.527 56.0325C378.55 67.2171 411.385 99.7858 471.852 120.25C532.103 140.642 557.373 113.331 533.368 97.5027C510.581 82.4762 427.848 106.991 456.255 140.591C495.151 186.598 588.89 115.318 661.541 194.689C734.192 274.06 671.121 373.845 615.269 382.167C559.416 390.487 583.906 310.301 671.121 373.847C758.337 437.392 648.171 506.281 648.171 506.281" stroke="#C3C8FF" stroke-miterlimit="10"/>
<path d="M708.213 512.633H47.3314C43.8224 512.633 40.9795 509.788 40.9795 506.28C40.9795 502.77 43.8239 499.927 47.3314 499.927H714.565V506.28C714.565 509.788 711.721 512.633 708.213 512.633Z" fill="#D7DCFF"/>
<path d="M383.559 257.718C355.258 312.113 323.458 334.274 323.458 334.274L350.92 378.127L398.876 328.283L383.559 257.718Z" fill="#3D3771"/>
<path d="M453.73 244.734L383.559 257.718C379.114 390.507 377.448 499.909 377.448 499.909H503.404C503.404 499.909 507.059 296.569 486.796 252.204L453.73 244.734Z" fill="#3D3771"/>
<path d="M445.583 312.404L479.77 309.511" stroke="#342E63" stroke-width="4" stroke-miterlimit="10"/>
<path d="M429.89 283.865C429.89 283.865 451.589 431.965 432.709 491.889" stroke="#342E63" stroke-miterlimit="10"/>
<path d="M407.171 358.05C407.171 358.05 428.129 366.488 455.301 367.38C482.473 368.273 465.567 382.733 425.286 379.991" stroke="#342E63" stroke-miterlimit="10"/>
<path d="M412.572 239.335L429.891 285.355L453.731 244.734L438.018 219.052L412.572 239.335Z" fill="#E9A394"/>
<path d="M429.89 285.355L462.218 276.428L453.73 244.734L429.89 285.355Z" fill="#342E63"/>
<path d="M416.421 249.561L398.876 269.162L429.89 285.355L416.421 249.561Z" fill="#342E63"/>
<path d="M350.92 378.127C350.92 378.127 361.167 356.755 339.166 329.228C326.965 313.963 321.344 287.622 321.344 287.622L303.014 290.41L319.799 378.128H350.92V378.127Z" fill="#E9A394"/>
<path d="M299.266 260.118L291.761 266.941L301.795 275.799L270.377 275.264L269.703 286.046L303.012 290.41L321.344 287.622L299.266 260.118Z" fill="#E9A394"/>
<path d="M304.757 276.911L274.613 264.475L272.667 269.831L297.827 280.406L304.757 276.911Z" fill="#E9A394"/>
<path d="M486.798 252.204C486.798 252.204 527.292 275.264 540.079 361.644L493.099 372.982L486.798 252.204Z" fill="#1C145E"/>
<path d="M398.851 183.097L383.558 222.238L395.253 225.837L398.851 247.883L436.187 239.335L441.584 179.498L398.851 183.097Z" fill="#E9A394"/>
<path d="M423.769 192.398H395.218L398.332 183.96L423.769 182.387V192.398Z" fill="#E37A82"/>
<path d="M438.688 210.255C438.688 210.255 420.472 206.486 420.472 187.638C420.472 187.638 393.445 191.318 384.115 176.645C373.064 159.263 389.953 139.289 403.901 143.347C403.901 143.347 395.111 152.061 408.46 153.085C417.98 153.815 435.375 141.147 441.586 153.399C441.586 153.399 489.501 164.345 453.731 208.999L438.688 210.255Z" fill="#181670"/>
<path d="M420.471 186.148C420.471 186.148 384.343 193.13 376.788 167.217C372.37 152.068 387.551 143.441 387.551 143.441" stroke="#181670" stroke-width="2" stroke-miterlimit="10"/>
<path d="M405.184 220.991C412.716 220.991 418.822 214.884 418.822 207.35C418.822 199.817 412.716 193.71 405.184 193.71C397.652 193.71 391.546 199.817 391.546 207.35C391.546 214.884 397.652 220.991 405.184 220.991Z" stroke="#181670" stroke-width="0.5" stroke-miterlimit="10"/>
<path d="M418.089 202.936L437.513 204" stroke="#181670" stroke-width="0.5" stroke-miterlimit="10"/>
<path d="M462.219 213.69C462.219 222.138 450.902 228.986 442.455 228.986C434.008 228.986 431.632 222.137 431.632 213.69C431.632 205.243 438.48 198.394 446.925 198.394C455.371 198.394 462.219 205.243 462.219 213.69Z" fill="#E9A394"/>
<path d="M534.472 362.996V433.534H499.306L496.38 372.19L534.472 362.996Z" fill="#E9A394"/>
<path d="M380.82 347.05L382.297 297.9L359.518 369.193L380.82 347.05Z" fill="#1C145C"/>
<path d="M414.382 244.016L436.188 239.335L418.311 254.585L414.382 244.016Z" fill="#E37A82"/>
<path d="M223.761 365.43C223.761 365.43 279.804 356.756 280.905 454.504C281.084 470.367 291.182 499.925 291.182 499.925H240.392L223.761 365.43Z" fill="#5321D7"/>
<path d="M165.16 356.756L131.288 364.753L141.623 499.925H273.416C273.416 499.925 268.995 392.978 219.295 360.893L165.16 356.756Z" fill="url(#paint0_linear_441_2424)"/>
<path d="M131.288 364.753C96.3759 372.717 104.549 399.518 111.289 454.555C93.8637 468.709 110.582 475.08 110.582 475.08C91.444 495.371 115.318 499.925 115.318 499.925H179.051C179.051 499.925 166.224 356.783 131.288 364.753Z" fill="url(#paint1_linear_441_2424)"/>
<path d="M175.261 468.705L159.966 398.483" stroke="#5C5A92" stroke-miterlimit="10"/>
<path d="M115.316 499.925C115.316 499.925 126.077 475.215 160.086 462.792C188.285 452.492 229.532 479.229 255.937 453.823L260.827 482.428L179.05 499.925H115.316Z" fill="#E9A394"/>
<path d="M227.427 287.139L252.64 325.526L236.46 331.302L233.664 362.498L185.039 345.601L189.621 282.146L227.427 287.139Z" fill="#E9A394"/>
<path d="M190.015 327.462L165.16 356.756L197.034 395.826L211.41 350.193L190.015 327.462Z" fill="#E37A82"/>
<path d="M198.326 309.323L233.892 296.982L227.427 287.139L192.293 290.796L198.326 309.323Z" fill="#E37A82"/>
<path d="M195.255 322.77C195.255 322.77 206.023 344.333 198.531 302.767C198.531 302.767 208.75 303.915 216.752 290.426C216.752 290.426 214.266 312.407 237.741 290.426C261.216 268.445 231.372 251.247 194.906 257.718C163.299 263.327 131.669 281.188 177.898 341.743L195.255 322.77Z" fill="#181670"/>
<path d="M189.498 331.344C187.072 334.597 182.905 337.549 178.572 338.181C169.906 339.443 161.443 332.602 160.181 323.934C158.919 315.267 163.296 310.766 171.96 309.504C176.831 308.794 182.471 310.238 186.701 313.179C187.979 314.772 189.498 331.344 189.498 331.344Z" fill="#E9A394"/>
<path d="M161.18 357.954L166.95 351.326L164.833 346.412L177.896 341.745L215.371 360.594L216.751 374.985L210.409 372.981L200.057 411.576L161.18 357.954Z" fill="#6A3FDC"/>
<path d="M195.02 367.379L216.751 374.985L215.371 360.594" stroke="#5321D7" stroke-miterlimit="10"/>
<path d="M198.531 302.767C198.531 302.767 202.903 328.216 209.296 333.448C211.396 335.166 215.369 330.795 233.664 330.429C244.849 330.205 244.84 369.257 229.997 368.137C215.153 367.018 192.596 357.762 189.215 329.298C186.252 304.326 198.531 302.767 198.531 302.767Z" fill="#181670"/>
<path d="M216.751 338.181C216.751 338.181 220.524 345.208 227.959 340.448" stroke="#C4C6C5" stroke-miterlimit="10"/>
<path d="M301.579 483.854H176.467V493.125C176.467 496.88 179.511 499.924 183.264 499.924H301.579C305.334 499.924 308.377 496.879 308.377 493.125V490.652C308.378 486.898 305.334 483.854 301.579 483.854Z" fill="#1C145E"/>
<path d="M403.189 390.912H257.652C253.327 390.912 249.675 394.128 249.126 398.419L237.402 490.24C236.746 495.378 240.748 499.925 245.927 499.925H391.465C395.79 499.925 399.442 496.709 399.99 492.418L411.715 400.597C412.371 395.459 408.369 390.912 403.189 390.912Z" fill="#1C145E"/>
<path d="M410.232 390.912H264.695C260.37 390.912 256.718 394.128 256.169 398.419L244.444 490.24C243.789 495.378 247.791 499.925 252.97 499.925H398.507C402.833 499.925 406.485 496.709 407.033 492.418L418.758 400.597C419.414 395.459 415.412 390.912 410.232 390.912Z" fill="#6876EB"/>
<path d="M340.967 455.284C347.028 449.532 347.744 440.446 342.567 434.989C337.39 429.532 328.281 429.771 322.22 435.523C316.159 441.274 315.443 450.361 320.62 455.818C325.797 461.275 334.907 461.036 340.967 455.284Z" fill="white"/>
<path d="M407.059 499.147H225.903" stroke="#1C145E" stroke-miterlimit="10"/>
<path d="M487.12 376.267L547.258 377.407L533.624 303.827L501.647 307.448C501.647 307.448 487.244 328.712 498.618 345.245C511.452 363.899 485.798 364.595 487.12 376.267Z" fill="#181670"/>
<path d="M501.646 307.448C501.646 307.448 487.242 328.712 498.617 345.245C511.452 363.901 485.798 364.595 487.12 376.267" stroke="#342E63" stroke-width="2" stroke-miterlimit="10"/>
<path d="M513.644 367.379C513.644 367.379 486.281 394.234 471.854 495.438H502.312L513.644 367.379Z" fill="#9A89D9"/>
<path d="M585.958 359.898L574.05 495.438H485.586L496.599 443.671C496.599 443.671 462.919 426.096 513.643 367.379L526.25 360.893L581.022 356.756L585.958 359.898Z" fill="#B5A7E9"/>
<path d="M513.643 428.04C513.643 428.04 508.34 437.124 513.439 444.418L505.931 495.438" stroke="#7079F1" stroke-miterlimit="10"/>
<path d="M501.279 443.905L552.519 445.418" stroke="#7079F1" stroke-miterlimit="10"/>
<path d="M562.621 469.419L557.202 404.226" stroke="#7079F1" stroke-miterlimit="10"/>
<path d="M585.959 359.898C585.959 359.898 590.845 366.045 596.501 380.3C604.52 400.512 614.084 437.029 613.457 495.436H574.051L585.959 359.898Z" fill="#B5A7E9"/>
<path d="M613.457 499.909C613.457 499.909 593.768 454.872 544.245 467.76C490.171 481.833 470.092 479.203 470.092 479.203L465.993 499.909H613.457Z" fill="#E9A394"/>
<path d="M561.911 458.295L544.34 462.225L584.252 499.909H621.873C621.873 499.909 605.659 460.586 561.911 458.295Z" fill="#9A89D9"/>
<path d="M562.998 469.984L571.367 467.426" stroke="#C3C8FF" stroke-miterlimit="10"/>
<path d="M470.092 479.203L444.398 473.89L425.98 499.909H465.993L470.092 479.203Z" fill="#E9A394"/>
<path d="M513.644 428.04L561.389 380.285L552.519 376.096L585.959 359.898L570.603 350.124H534.864L513.644 376.654L519.507 378.127L513.644 382.24V428.04Z" fill="#9A89D9"/>
<path d="M547.023 366.358L562.62 355.577L545.783 317.922L519.686 334.317L527.038 365.552L513.643 428.04L547.023 366.358Z" fill="#E9A394"/>
<path d="M521.785 343.238L540.1 333.685L523.749 351.577L521.785 343.238Z" fill="#E37A82"/>
<path d="M488.328 288.723L480.331 333.053H492.327L505.797 351.577L540.101 333.685L516.109 280.218L488.328 288.723Z" fill="#E9A394"/>
<path d="M486.389 299.472L485.586 304.343L517.223 300.025L516.739 293.961L486.389 299.472Z" fill="#E37A82"/>
<path d="M575.772 285.355C567.852 263.883 558.169 255.604 558.169 255.604C538.761 236.316 505.587 257.719 505.587 257.719C463.074 247.427 480.331 300.218 480.331 300.218L514.953 295.97C519.794 325.019 537.106 310.31 537.106 310.31L545.18 324.876C545.18 324.876 537.034 332.077 545.527 344.423C552.52 354.588 535.775 358.051 540.102 368.872L607.023 354.999C607.023 310.958 590.084 324.162 575.772 285.355Z" fill="#181670"/>
<path d="M477.618 300.559C477.618 300.559 471.495 270.418 482.742 260.61C488.606 255.496 507.075 257.719 507.075 257.719" stroke="#342E63" stroke-width="2" stroke-miterlimit="10"/>
<path d="M611.403 353.729C611.403 353.729 616.748 333.685 587.629 310.957" stroke="#181670" stroke-width="2" stroke-miterlimit="10"/>
<path d="M538.101 326.739C546.063 326.739 552.517 320.283 552.517 312.32C552.517 304.357 546.063 297.902 538.101 297.902C530.14 297.902 523.686 304.357 523.686 312.32C523.686 320.283 530.14 326.739 538.101 326.739Z" fill="#E9A394"/>
<path d="M361.556 146.954C356.37 132.531 340.068 125.309 325.779 131.471C313.482 136.775 306.964 150.728 310.778 163.569C312.91 170.747 317.726 176.3 323.756 179.54C329.323 182.53 334.099 186.796 337.601 192.056L338.611 193.573L358.632 186.373L358.446 184.568C357.786 178.178 358.904 171.785 361.265 165.81C363.569 159.979 363.843 153.317 361.556 146.954Z" fill="#C3C8FF"/>
<path d="M361.556 146.954C356.37 132.531 340.068 125.309 325.779 131.471C313.482 136.775 306.964 150.728 310.778 163.569C312.91 170.747 317.726 176.3 323.756 179.54C329.323 182.53 334.099 186.796 337.601 192.056L338.611 193.573L358.632 186.373L358.446 184.568C357.786 178.178 358.904 171.785 361.265 165.81C363.569 159.979 363.843 153.317 361.556 146.954Z" fill="#C3C8FF"/>
<path d="M343.192 187.667L327.232 165.154C327.232 165.154 327.523 160.596 332.532 161.318C337.542 162.041 340.532 169.949 336.958 168.673C333.383 167.397 332.118 158.102 338.883 156.685C345.646 155.268 347.906 170.637 344.169 167.676C340.432 164.715 341.221 154.93 348.463 154.849L352.713 187.318" stroke="white" stroke-miterlimit="10"/>
<path d="M358.168 201.76L348.766 205.142C345.191 206.428 341.25 204.571 339.966 200.996L337.978 195.467C336.692 191.892 338.549 187.95 342.123 186.665L351.525 183.284C355.1 181.998 359.039 183.855 360.325 187.43L362.313 192.959C363.597 196.534 361.742 200.474 358.168 201.76Z" fill="#16005C"/>
<path d="M360.381 178.278L332.067 188.459L337.036 202.283L365.35 192.102L360.381 178.278Z" fill="#6876EB"/>
<path d="M335.728 122.443L332.903 106.245" stroke="#C3C8FF" stroke-miterlimit="10"/>
<path d="M315.324 132.091L301.798 118.877" stroke="#C3C8FF" stroke-miterlimit="10"/>
<path d="M301.227 156.096L285.794 157.201" stroke="#C3C8FF" stroke-miterlimit="10"/>
<path d="M357.974 131.319L364.92 118.435" stroke="#C3C8FF" stroke-miterlimit="10"/>
<path d="M575.277 250.315H670.977C674.304 250.315 677.491 247.618 678.095 244.289L687.984 189.719C688.587 186.391 686.378 183.692 683.051 183.692H587.351C584.024 183.692 580.837 186.389 580.233 189.719L570.344 244.289C569.742 247.616 571.95 250.315 575.277 250.315Z" fill="url(#paint2_linear_441_2424)"/>
<path d="M651.999 221.244C654.792 218.691 655.331 214.732 653.201 212.401C651.072 210.069 647.081 210.248 644.288 212.8C641.494 215.352 640.956 219.311 643.085 221.643C645.215 223.975 649.205 223.796 651.999 221.244Z" fill="white"/>
<path d="M632.99 221.243C635.784 218.691 636.322 214.732 634.193 212.4C632.063 210.069 628.072 210.247 625.279 212.8C622.485 215.352 621.947 219.311 624.076 221.643C626.206 223.974 630.197 223.795 632.99 221.243Z" fill="white"/>
<path d="M613.981 221.243C616.775 218.691 617.313 214.731 615.184 212.4C613.054 210.068 609.064 210.247 606.27 212.799C603.476 215.352 602.938 219.311 605.068 221.642C607.197 223.974 611.188 223.795 613.981 221.243Z" fill="white"/>
<path d="M626.783 246.727L593.53 266.492L599.49 245.168L626.783 246.727Z" fill="url(#paint3_linear_441_2424)"/>
<path d="M266.98 242.226H171.28C167.953 242.226 164.766 239.529 164.162 236.199L154.273 181.63C153.67 178.302 155.879 175.603 159.207 175.603H254.906C258.233 175.603 261.42 178.3 262.024 181.63L271.913 236.199C272.517 239.527 270.308 242.226 266.98 242.226Z" fill="#C3C8FF"/>
<path d="M199.126 213.529C201.256 211.197 200.717 207.238 197.924 204.686C195.13 202.133 191.139 201.954 189.01 204.286C186.881 206.618 187.419 210.577 190.212 213.129C193.006 215.681 196.997 215.86 199.126 213.529Z" fill="white"/>
<path d="M218.135 213.528C220.264 211.197 219.726 207.238 216.932 204.686C214.139 202.133 210.148 201.954 208.019 204.286C205.889 206.618 206.428 210.577 209.221 213.129C212.015 215.681 216.006 215.86 218.135 213.528Z" fill="white"/>
<path d="M237.142 213.53C239.271 211.198 238.733 207.239 235.939 204.687C233.146 202.134 229.155 201.956 227.026 204.287C224.896 206.619 225.435 210.578 228.228 213.13C231.022 215.682 235.012 215.861 237.142 213.53Z" fill="white"/>
<path d="M232.841 238.637L238.09 257.718L259.32 237.302L232.841 238.637Z" fill="#C3C8FF"/>
<defs>
<linearGradient id="paint0_linear_441_2424" x1="255.283" y1="333.607" x2="168.696" y2="454.016" gradientUnits="userSpaceOnUse">
<stop stop-color="#4A6EFF"/>
<stop offset="1" stop-color="#A13DFF"/>
</linearGradient>
<linearGradient id="paint1_linear_441_2424" x1="169.368" y1="342.524" x2="85.4075" y2="408.407" gradientUnits="userSpaceOnUse">
<stop stop-color="#4A6EFF"/>
<stop offset="1" stop-color="#A13DFF"/>
</linearGradient>
<linearGradient id="paint2_linear_441_2424" x1="570.245" y1="217.004" x2="688.083" y2="217.004" gradientUnits="userSpaceOnUse">
<stop stop-color="#FB9004"/>
<stop offset="1" stop-color="#FC067D"/>
</linearGradient>
<linearGradient id="paint3_linear_441_2424" x1="593.53" y1="255.83" x2="626.783" y2="255.83" gradientUnits="userSpaceOnUse">
<stop stop-color="#FB9004"/>
<stop offset="1" stop-color="#FC067D"/>
</linearGradient>
</defs>
</svg>
